<?xml version="1.0" standalone="no"?>
<!DOCTYPE svg PUBLIC "-//W3C//DTD SVG 20010904//EN"
 "http://www.w3.org/TR/2001/REC-SVG-20010904/DTD/svg10.dtd">
<svg version="1.0" xmlns="http://www.w3.org/2000/svg"
 width="500.000000pt" height="500.000000pt" viewBox="0 0 500.000000 500.000000"
 preserveAspectRatio="xMidYMid meet">

<g transform="translate(0.000000,500.000000) scale(0.100000,-0.100000)"
fill="#000000" stroke="none">
<path d="M2285 4883 c-11 -3 -59 -18 -108 -34 -48 -17 -92 -27 -99 -23 -6 4
-8 3 -5 -3 6 -9 -82 -46 -295 -123 -114 -42 -252 -154 -368 -298 l-64 -80 -51
21 c-44 19 -69 22 -205 21 -175 0 -244 -14 -392 -79 -86 -38 -218 -116 -238
-141 -18 -20 -35 -17 -19 4 13 15 12 16 -4 3 -9 -8 -15 -16 -12 -19 2 -3 -33
-44 -79 -92 -81 -86 -143 -179 -178 -270 -25 -63 -41 -322 -28 -460 27 -301
122 -518 304 -687 62 -59 206 -152 234 -153 16 0 16 4 -17 -124 -56 -211 -73
-322 -78 -499 -6 -181 4 -261 39 -332 39 -76 127 -196 223 -304 42 -47 177
-147 244 -180 150 -76 629 -186 848 -195 l32 -1 -22 -35 c-11 -19 -35 -58 -53
-86 -81 -130 -158 -361 -190 -573 -17 -116 -18 -141 -1 -141 7 0 26 49 46 122
55 197 169 524 215 617 l43 86 74 5 c85 7 106 15 88 36 -42 51 -438 115 -872
140 l-117 7 -81 96 c-44 53 -100 119 -124 146 -23 28 -99 118 -169 200 -146
175 -132 115 -116 481 12 298 19 572 13 557 -9 -24 -16 -20 -114 72 -174 163
-314 405 -364 629 -24 108 -17 337 15 451 39 143 145 355 170 340 5 -3 8 0 5
7 -11 31 155 173 258 221 153 72 368 106 609 99 l68 -2 -10 -26 c-6 -14 -10
-33 -10 -42 1 -14 2 -14 12 3 29 53 170 180 318 287 36 26 91 65 122 88 157
113 474 220 651 220 129 0 432 -68 667 -149 295 -102 310 -109 419 -207 33
-31 65 -53 71 -49 5 3 8 0 5 -7 -3 -7 13 -33 35 -57 22 -25 40 -39 40 -33 0
15 53 37 154 64 62 16 110 21 206 21 112 0 135 -3 220 -31 165 -54 318 -156
416 -277 95 -116 163 -297 184 -484 35 -317 -103 -657 -328 -806 -23 -15 -40
-30 -38 -33 11 -10 144 62 184 101 55 53 120 152 155 237 104 251 98 651 -12
868 -36 70 -64 108 -134 181 -195 203 -397 304 -607 304 -132 0 -260 -35 -361
-99 -29 -18 -39 -21 -39 -10 0 26 -106 130 -180 176 -39 25 -93 59 -119 76
-164 109 -443 197 -793 249 -92 14 -249 18 -293 8z"/>
<path d="M2355 4514 c-212 -36 -278 -70 -442 -226 -215 -204 -448 -524 -613
-842 -181 -346 -314 -773 -338 -1081 -12 -144 13 -255 118 -525 36 -93 146
-316 199 -402 80 -133 155 -193 374 -298 197 -95 354 -133 532 -128 l100 3
-61 14 -60 14 -13 101 c-7 56 -15 116 -18 135 -5 30 -4 32 14 23 18 -10 239
-43 273 -41 8 0 -25 9 -73 19 -116 24 -208 61 -308 121 -119 73 -236 184 -350
333 -68 88 -79 110 -136 281 -58 173 -66 199 -123 415 -28 107 -53 200 -56
205 -4 10 2 -43 12 -100 5 -28 4 -29 -10 -10 -37 52 -104 124 -128 139 -33 20
-61 20 -99 0 l-30 -15 3 38 c3 36 5 38 53 52 39 11 64 11 110 4 33 -6 62 -9
64 -7 6 5 50 258 57 324 4 43 3 52 -6 40 -9 -11 -10 3 -5 61 4 42 10 94 15
115 6 25 5 52 -2 75 -10 34 -7 43 32 115 76 138 71 134 153 135 40 0 103 6
141 12 l69 12 -37 18 c-20 9 -47 16 -59 14 -12 -2 -16 -2 -8 1 10 3 2 10 -20
20 l-34 15 70 7 c39 4 134 11 212 15 98 5 142 11 140 19 -1 6 3 10 8 9 6 0 37
-6 69 -12 33 -6 63 -11 67 -11 5 0 1 20 -8 44 -9 25 -20 43 -25 40 -4 -3 -5 3
-1 12 4 10 2 15 -3 11 -5 -3 -10 3 -10 13 0 17 2 17 16 5 25 -22 137 -72 205
-90 l63 -17 114 35 c176 56 277 87 282 87 7 0 -15 -74 -27 -88 -23 -28 11 -33
234 -32 200 0 221 -1 204 -14 -11 -9 -28 -16 -37 -16 -9 0 -19 -4 -23 -9 -3
-5 -19 -13 -36 -16 -41 -9 -26 -22 36 -29 86 -11 230 -38 235 -45 14 -18 62
-41 72 -35 6 4 8 3 4 -4 -3 -6 -2 -13 3 -17 6 -3 24 -26 40 -51 l31 -45 -38 6
c-22 3 -54 10 -73 15 -46 13 -47 13 -19 -7 14 -10 40 -31 58 -48 19 -16 43
-35 55 -42 13 -7 22 -21 22 -37 1 -13 -3 -22 -7 -20 -5 3 -7 13 -6 22 2 11 -4
17 -17 17 -11 1 -26 4 -33 8 -6 5 -12 6 -12 3 0 -2 27 -56 60 -119 61 -116 69
-137 48 -120 -7 6 -26 13 -43 17 -24 5 -26 4 -13 -4 10 -6 19 -9 21 -8 8 6 36
-25 31 -34 -7 -12 16 -39 27 -32 5 3 6 -2 2 -11 -4 -12 -8 -13 -13 -5 -4 7
-12 11 -18 9 -5 -2 15 -42 45 -89 l55 -85 -7 -73 c-4 -55 -3 -72 6 -67 6 4 15
1 21 -6 7 -11 8 -9 6 6 -2 15 9 24 53 42 73 29 123 23 145 -19 9 -17 13 -32
11 -35 -3 -2 -27 2 -54 9 -26 8 -55 13 -64 11 -19 -5 -59 -93 -59 -130 0 -26
28 -88 37 -80 2 3 0 14 -6 25 -15 27 -14 61 2 92 17 32 42 28 85 -13 43 -41
41 -26 -4 29 l-36 44 30 0 c45 0 79 -19 91 -49 33 -85 34 -107 13 -188 -12
-43 -24 -109 -27 -148 l-6 -70 31 40 c18 22 39 56 48 75 l16 35 4 -43 c6 -78
-77 -205 -198 -303 -14 -11 3 -5 37 14 71 38 145 98 164 133 24 46 32 27 26
-63 -8 -106 -18 -144 -64 -248 -31 -68 -97 -184 -126 -220 -4 -5 -33 -44 -64
-85 -32 -41 -60 -77 -63 -80 -3 -3 -42 -46 -87 -96 -64 -71 -93 -95 -130 -109
-27 -10 -140 -54 -251 -98 -241 -94 -233 -95 -237 32 l-3 81 48 24 c132 66
260 175 349 295 57 77 119 199 149 291 41 127 100 383 118 510 7 50 8 52 15
25 4 -16 13 -45 20 -63 10 -24 11 -35 3 -40 -25 -16 -54 -79 -54 -118 0 -54
19 -78 63 -78 52 0 67 17 67 80 l0 54 34 0 c19 0 39 7 47 16 18 22 18 159 0
202 -17 40 -34 43 -20 3 5 -15 9 -61 7 -102 l-3 -73 -47 -14 c-46 -12 -48 -15
-48 -48 0 -42 -15 -74 -35 -74 -22 0 -18 34 10 90 14 27 25 60 25 73 0 25 -45
117 -62 128 -6 4 -9 42 -6 98 2 50 0 91 -4 91 -4 0 -8 -15 -8 -33 0 -86 -95
-514 -157 -702 -86 -265 -248 -469 -465 -584 -152 -80 -301 -120 -458 -122
-72 -1 -79 -3 -45 -10 78 -16 284 15 398 60 16 6 30 11 33 11 2 0 4 -47 4
-104 l0 -104 -115 -47 c-113 -47 -137 -60 -92 -51 12 3 82 17 155 31 380 74
661 204 845 389 159 160 270 360 347 623 18 64 19 80 9 140 -23 144 -85 367
-186 672 -77 232 -152 427 -241 621 -32 71 -103 189 -140 231 -21 24 -51 64
-67 89 -42 65 -144 199 -179 238 -248 270 -475 411 -733 456 -104 19 -170 19
-278 0z m275 -94 c18 -12 2 -12 -25 0 -13 6 -15 9 -5 9 8 0 22 -4 30 -9z
m-423 -212 c-3 -8 -6 -5 -6 6 -1 11 2 17 5 13 3 -3 4 -12 1 -19z m-230 -80
c-3 -8 -6 -5 -6 6 -1 11 2 17 5 13 3 -3 4 -12 1 -19z m816 -225 c-7 -2 -19 -2
-25 0 -7 3 -2 5 12 5 14 0 19 -2 13 -5z m-578 -61 c-3 -3 -11 0 -18 7 -9 10
-8 11 6 5 10 -3 15 -9 12 -12z m545 4 c0 -2 -9 -6 -20 -9 -11 -3 -18 -1 -14 4
5 9 34 13 34 5z m-595 -96 c-3 -5 -12 -10 -18 -10 -7 0 -6 4 3 10 19 12 23 12
15 0z m-118 -16 c-3 -3 -12 -4 -19 -1 -8 3 -5 6 6 6 11 1 17 -2 13 -5z m1543
-249 c14 -19 14 -19 -2 -6 -10 7 -18 18 -18 24 0 6 1 8 3 6 1 -2 9 -13 17 -24z
m80 -16 c0 -6 -4 -7 -10 -4 -5 3 -10 11 -10 16 0 6 5 7 10 4 6 -3 10 -11 10
-16z m-16 -125 c7 -19 2 -18 -19 6 -16 17 -16 20 -3 15 9 -4 19 -13 22 -21z
m-11 -239 c-3 -9 -8 -14 -10 -11 -3 3 -2 9 2 15 9 16 15 13 8 -4z m-2403 -500
c64 -12 68 -15 94 -70 26 -55 38 -65 52 -43 5 7 16 -24 26 -72 10 -46 15 -86
10 -89 -18 -13 -42 -57 -42 -78 0 -14 8 -24 23 -29 42 -13 45 -44 3 -44 -12 0
-37 16 -57 36 -28 29 -39 34 -63 30 l-29 -6 7 62 c7 58 40 138 57 138 10 0 18
39 9 45 -13 8 -78 -61 -95 -102 -19 -46 -19 -116 0 -153 12 -24 22 -30 47 -30
22 0 39 -9 57 -30 26 -29 37 -33 78 -31 17 1 23 9 28 43 6 36 5 44 -14 56 -25
17 -27 35 -6 52 12 10 15 7 21 -17 4 -15 20 -77 36 -138 16 -60 30 -117 32
-125 14 -54 81 -232 107 -283 38 -76 99 -157 153 -203 65 -56 246 -173 307
-198 l36 -15 2 -77 c1 -43 4 -81 7 -86 3 -4 -7 -13 -23 -19 -15 -6 -37 -19
-49 -30 -16 -15 -26 -17 -50 -9 -310 99 -437 153 -527 224 -10 8 -68 126 -128
262 -61 137 -121 273 -135 302 -13 28 -36 80 -50 115 -14 34 -39 89 -54 122
-18 38 -27 73 -25 95 2 19 3 44 4 55 1 14 7 9 22 -20 29 -56 65 -91 117 -116
50 -25 130 -45 98 -26 -123 76 -196 160 -216 249 -16 76 -3 231 22 263 18 23
21 24 46 11 15 -7 43 -17 62 -21z m1830 -1459 c0 -3 -4 -8 -10 -11 -5 -3 -10
-1 -10 4 0 6 5 11 10 11 6 0 10 -2 10 -4z m-936 -52 c10 -26 7 -44 -6 -40 -7
3 -26 7 -43 11 l-30 7 24 19 c28 23 47 24 55 3z"/>
<path d="M1233 2563 c-33 -17 -63 -63 -40 -63 7 0 32 14 55 31 62 46 53 66
-15 32z"/>
<path d="M1090 2196 c0 -25 48 -92 90 -125 46 -37 142 -81 175 -81 11 0 12 -7
4 -32 -11 -41 -12 -108 -1 -108 5 0 9 17 10 38 3 72 11 92 40 92 21 1 15 6
-29 24 -60 25 -159 88 -218 140 -52 46 -71 59 -71 52z"/>
<path d="M1436 2008 c23 -36 6 -122 -32 -168 -14 -16 -21 -30 -16 -30 20 0 61
61 67 98 3 20 10 45 16 55 6 12 6 17 -3 17 -6 0 -8 3 -5 7 8 7 -11 33 -25 33
-5 0 -6 -5 -2 -12z"/>
<path d="M3981 4234 c-65 -17 -167 -62 -181 -78 -5 -7 16 0 48 15 31 16 80 31
109 35 65 8 289 -13 323 -31 41 -21 165 -141 216 -208 136 -182 179 -380 125
-587 -23 -88 -105 -271 -145 -325 -50 -67 -43 -70 23 -10 181 162 246 289 245
475 -1 124 -28 221 -102 365 -37 72 -65 108 -137 180 -97 97 -172 144 -270
170 -73 19 -183 18 -254 -1z"/>
<path d="M1025 4160 c-167 -20 -313 -94 -448 -227 -63 -62 -156 -194 -183
-259 -9 -21 -22 -52 -30 -69 -54 -118 -69 -315 -34 -444 33 -117 71 -180 166
-275 64 -64 229 -166 269 -166 9 0 15 -9 15 -22 0 -40 15 -7 16 36 1 43 38
154 195 596 89 251 213 619 223 665 4 17 19 47 32 67 21 30 24 40 15 57 -6 11
-19 25 -29 30 -26 13 -139 20 -207 11z m162 -118 c10 -6 0 -37 -38 -123 -177
-400 -310 -782 -368 -1059 -15 -67 -22 -85 -35 -84 -44 4 -175 105 -243 187
-142 171 -150 518 -19 828 36 86 227 200 411 245 56 14 273 18 292 6z"/>
<path d="M665 3576 c-35 -53 -15 -188 35 -238 34 -33 50 -35 76 -7 24 26 26
136 5 189 -31 77 -85 103 -116 56z"/>
<path d="M3802 4088 c42 -65 208 -356 333 -583 15 -27 49 -88 75 -135 26 -47
64 -116 85 -155 21 -38 44 -79 52 -90 12 -19 13 -18 13 6 0 58 -44 191 -99
304 -85 172 -215 366 -394 588 -68 84 -95 111 -65 65z"/>
<path d="M4281 3801 c-69 -69 -30 -231 56 -231 25 0 71 45 79 76 10 40 -2 114
-23 143 -26 34 -83 41 -112 12z"/>
<path d="M3590 3120 c0 -5 5 -10 11 -10 5 0 7 5 4 10 -3 6 -8 10 -11 10 -2 0
-4 -4 -4 -10z"/>
<path d="M2912 3010 c-81 -12 -139 -55 -178 -132 -13 -26 -24 -49 -24 -51 0
-2 33 5 73 15 104 26 462 78 654 93 46 4 81 11 78 15 -6 10 -159 46 -225 54
-90 10 -326 15 -378 6z"/>
<path d="M1830 2976 c-110 -16 -221 -46 -273 -73 l-37 -18 78 4 c80 4 206 -6
526 -40 213 -22 208 -20 252 -114 28 -58 32 -37 7 37 -19 60 -87 164 -124 191
-23 17 -48 20 -180 23 -97 2 -189 -2 -249 -10z"/>
<path d="M3039 2840 c-111 -19 -209 -92 -260 -192 -38 -76 -37 -84 5 -22 38
56 112 121 168 146 60 28 147 38 322 40 91 1 164 4 162 5 -2 2 -52 10 -112 18
-117 16 -212 17 -285 5z"/>
<path d="M1840 2819 c-47 -5 -119 -18 -160 -28 l-75 -18 218 5 c221 5 293 -2
358 -34 31 -15 77 -71 107 -129 27 -52 28 -22 2 49 -27 70 -81 120 -152 140
-72 20 -195 26 -298 15z"/>
<path d="M3576 2794 c-48 -17 -119 -24 -316 -28 -134 -3 -166 -7 -235 -30 -44
-14 -92 -34 -107 -44 -59 -39 -96 -118 -104 -221 l-5 -66 19 47 c26 63 57 104
105 139 38 28 78 43 45 17 -51 -39 -76 -169 -48 -240 22 -54 68 -105 116 -128
64 -31 174 -26 230 11 66 44 98 100 102 179 2 38 -1 85 -8 106 -14 43 -91 124
-117 124 -15 0 -16 2 -3 10 25 16 232 12 273 -5 20 -8 56 -15 79 -14 l43 0
-47 15 c-53 16 -63 34 -20 34 15 1 41 7 57 15 29 13 29 13 -35 15 -36 1 -76 5
-88 9 -21 5 -16 9 32 25 31 11 61 25 67 33 13 15 15 15 -35 -3z"/>
<path d="M4464 2775 c22 -55 80 -252 100 -345 43 -191 50 -244 50 -380 0 -143
-2 -152 -58 -246 -13 -23 -59 -109 -102 -190 -104 -200 -102 -198 -187 -230
-39 -15 -99 -38 -132 -52 -132 -55 -350 -130 -453 -157 -79 -20 -273 -86 -332
-113 l-45 -21 40 5 c22 3 81 11 131 18 88 11 91 11 100 -8 12 -26 82 -79 220
-166 75 -47 123 -85 148 -117 44 -56 156 -280 222 -443 25 -63 64 -158 85
-210 21 -52 39 -101 39 -107 0 -9 20 -13 65 -13 45 0 65 4 65 12 0 32 -58 181
-110 283 -64 125 -220 361 -293 445 -26 29 -95 115 -117 145 -38 51 -150 152
-188 169 -23 10 -42 22 -42 26 0 3 39 12 88 18 194 28 416 98 503 160 71 50
85 66 110 114 16 31 44 61 84 90 76 56 133 124 185 220 93 173 102 325 34 593
-48 192 -91 314 -145 413 -22 40 -36 78 -33 85 4 7 4 9 -1 5 -4 -4 -15 -2 -23
5 -13 10 -15 9 -8 -8z"/>
<path d="M1524 2721 c11 -11 37 -27 59 -33 l40 -12 -54 -13 c-30 -6 -74 -13
-99 -14 l-45 -1 40 -8 c22 -5 57 -7 79 -5 l39 3 -39 -24 c-22 -13 -44 -24 -51
-24 -6 0 -14 -4 -18 -9 -3 -6 8 -8 27 -4 l33 5 13 -99 c24 -197 107 -347 202
-368 17 -4 37 -16 45 -28 13 -18 15 -19 21 -4 13 34 74 17 75 -22 l1 -26 7 25
c5 20 14 26 41 28 60 5 180 34 193 46 7 7 21 17 32 24 28 16 2 15 -65 -3 -83
-22 -253 -20 -332 5 -36 11 -72 28 -80 37 -42 48 -96 204 -123 354 -7 36 -6
37 37 53 42 15 145 36 179 36 12 0 8 -9 -18 -36 -51 -55 -64 -87 -64 -165 0
-95 33 -156 113 -206 50 -31 65 -35 121 -35 104 1 177 44 223 134 34 66 27
184 -14 231 -24 27 -3 20 43 -15 24 -18 57 -53 74 -78 l32 -45 -7 45 c-17 108
-90 211 -174 245 -61 24 -217 31 -295 14 -77 -18 -251 -17 -285 1 l-25 13 19
-22z"/>
<path d="M3521 2600 c-3 -86 -28 -203 -56 -263 -31 -66 -95 -127 -152 -146
-62 -21 -248 -25 -323 -8 -58 14 -63 14 -45 0 38 -29 89 -45 164 -50 84 -6
111 -16 111 -39 0 -8 5 -12 10 -9 6 3 10 14 10 24 0 32 50 34 84 3 l28 -27 -4
33 c-4 29 -1 35 26 49 36 18 91 75 112 116 30 57 54 179 54 274 0 96 -15 132
-19 43z"/>
<path d="M3694 2109 c-4 -8 0 -9 15 -4 17 5 26 -2 52 -42 27 -43 30 -54 26
-103 -3 -34 -2 -47 3 -35 20 48 2 134 -37 177 -18 20 -48 24 -59 7z"/>
<path d="M3670 2023 c0 -16 46 -115 64 -138 9 -11 0 16 -20 60 -39 85 -44 94
-44 78z"/>
<path d="M2480 1990 c0 -8 28 -40 35 -40 2 0 1 9 -2 19 -5 20 -33 38 -33 21z"/>
<path d="M2609 1973 c-12 -16 -12 -17 1 -7 8 6 22 14 30 17 13 5 12 6 -1 6 -9
1 -23 -7 -30 -16z"/>
<path d="M2443 1659 c-63 -15 -55 -33 10 -25 28 3 111 6 182 6 106 1 126 3
110 13 -25 15 -245 19 -302 6z"/>
<path d="M2574 980 c-32 -16 -72 -40 -89 -54 l-29 -24 23 -143 c12 -79 36
-196 53 -259 58 -221 60 -237 55 -373 l-6 -127 35 0 c31 0 34 2 34 31 0 16 -9
74 -19 127 -11 53 -22 144 -25 202 -6 118 -22 214 -68 409 -37 151 -37 151 47
172 69 17 139 45 143 57 8 25 -92 13 -154 -18z"/>
<path d="M3270 955 c81 -142 137 -219 256 -346 33 -36 82 -96 108 -133 26 -36
50 -66 52 -66 3 0 3 3 1 8 -2 4 -21 43 -43 87 -32 66 -96 179 -126 220 -60 83
-195 227 -252 268 l-30 21 34 -59z"/>
<path d="M3000 976 c0 -3 11 -23 23 -44 29 -45 181 -312 229 -402 78 -144 134
-250 180 -340 26 -52 48 -91 48 -86 0 5 -14 56 -31 115 -70 243 -175 462 -286
598 -20 25 -32 47 -27 54 4 8 3 9 -5 5 -6 -4 -27 8 -49 31 -47 49 -82 78 -82
69z"/>
<path d="M1334 885 c-93 -46 -215 -182 -324 -360 -47 -76 -200 -377 -200 -392
0 -6 -11 -31 -25 -57 -37 -70 -35 -76 34 -76 66 0 56 -12 101 120 50 145 171
408 235 511 15 24 50 73 78 108 45 58 65 79 146 148 34 30 17 29 -45 -2z"/>
<path d="M2627 792 c-21 -23 -22 -76 -1 -93 13 -10 17 -10 25 2 5 8 9 20 9 27
0 22 19 13 26 -13 4 -16 0 -34 -10 -50 -20 -31 -9 -32 35 -2 28 19 35 30 37
64 3 34 -1 44 -24 62 -33 26 -75 27 -97 3z"/>
<path d="M3124 524 c5 -11 149 -207 182 -249 8 -11 43 -57 77 -102 33 -46 63
-80 65 -78 7 7 -85 163 -127 215 -58 72 -208 235 -197 214z"/>
</g>
</svg>
