<svg t="1699268410677" class="icon" viewBox="0 0 1026 1024" version="1.1" xmlns="http://www.w3.org/2000/svg" p-id="6539" width="300" height="300"><path d="M26.155913 301.712857l473.815966 258.589596c4.749258 1.969692 9.788471 2.919544 14.967662 2.999531 4.969224 0 10.958288-1.969692 14.897672-2.919544l479.655054-258.659584a28.911483 28.911483 0 0 0 16.137478-28.915482 29.835338 29.835338 0 0 0-17.007342-27.955632L534.866427 4.209342c-8.988596-4.999219-19.916888-4.999219-28.905483 0L27.255741 244.841743A30.650211 30.650211 0 0 0 9.298547 272.807374c0 12.997969 5.989064 22.926418 16.937354 28.915482h-0.079988zM519.908764 68.089361l404.896735 206.677707L514.939541 495.482581 109.972817 274.777066l409.935947-206.607717v-0.079988z m482.644587 411.405718l-94.685205-47.962506-67.899391 36.944227 79.867521 40.883612L509.910327 730.04593 105.003593 509.420403l84.766755-42.923293-67.819403-36.944228L21.196688 479.495079c-22.926418 11.96813-23.866271 44.902984-0.949852 56.871114l473.745978 258.589595c4.969224 2.919544 10.948289 4.019372 15.917513 4.019372 5.269177 0.089986 10.448367-1.299797 14.967661-4.019372l478.705202-258.589595c10.698328-5.579128 17.307296-16.727386 17.097329-28.785502s-7.22887-22.966411-18.11717-28.155601v0.069989z m0 223.61506L912.757382 659.157007l-67.749414 36.944227L919.836276 733.045462l-409.935948 220.625527L105.003593 733.045462l78.84768-35.924387-67.89939-36.944228-94.695204 42.933292c-22.926418 11.96813-23.946258 44.902984-1.019841 56.941103l473.745977 258.519606c5.989064 2.039681 9.928449 4.019372 15.917513 4.019372 5.269177 0.089986 10.448367-1.299797 14.967661-4.019372l478.705203-258.589595a31.829027 31.829027 0 0 0 17.097328-28.785502 31.81003 31.81003 0 0 0-18.117169-28.155601v0.069989z m0 0" fill="#1296db" p-id="6540"></path></svg>