<svg version="1.1" xmlns="http://www.w3.org/2000/svg" viewBox="0 0 1623.3781941731766 905.5172475179037" width="1623.3781941731766" height="905.5172475179037">
  <!-- svg-source:excalidraw -->
  
  <defs>
    <style class="style-fonts">
      @font-face {
        font-family: "Virgil";
        src: url("https://excalidraw.com/Virgil.woff2");
      }
      @font-face {
        font-family: "Cascadia";
        src: url("https://excalidraw.com/Cascadia.woff2");
      }
      @font-face {
        font-family: "Assistant";
        src: url("https://excalidraw.com/Assistant-Regular.woff2");
      }
    </style>
    
  </defs>
  <rect x="0" y="0" width="1623.3781941731766" height="905.5172475179037" fill="#ffffff"></rect><g stroke-linecap="round" transform="translate(445.84774751771545 118.3822377522786) rotate(0 90.86964925130206 48.380762736002595)"><path d="M7.24 30.14 C7.24 30.14, 7.24 30.14, 7.24 30.14 M7.24 30.14 C7.24 30.14, 7.24 30.14, 7.24 30.14 M-0.5 51.24 C5.76 42.31, 14.83 33.82, 34.27 11.24 M-0.5 51.24 C8.07 42.42, 16.38 33.22, 34.27 11.24 M3.57 58.75 C16.31 43.66, 29.06 28.52, 48.84 6.68 M3.57 58.75 C19.49 40.42, 35.13 21.66, 48.84 6.68 M7.64 66.27 C23.3 44.67, 40.96 24.69, 64.06 1.36 M7.64 66.27 C20.54 52.46, 32.73 37.16, 64.06 1.36 M12.37 73.03 C31.51 51.84, 53.06 28.03, 74.04 2.08 M12.37 73.03 C27.44 55.91, 41.01 40.28, 74.04 2.08 M19.06 77.52 C33.02 61.72, 45.26 45.77, 84.67 2.05 M19.06 77.52 C43.27 49.61, 67 22.23, 84.67 2.05 M26.41 81.26 C45.55 56.19, 69.3 33.52, 95.3 2.01 M26.41 81.26 C40.26 63.61, 56.77 45.76, 95.3 2.01 M33.76 85 C62.4 55.68, 88.03 24.09, 105.93 1.98 M33.76 85 C51.92 65.53, 69.63 46.08, 105.93 1.98 M41.11 88.74 C68.83 56.57, 97.1 24.6, 115.24 3.45 M41.11 88.74 C67.65 59.52, 91.64 30.73, 115.24 3.45 M50.43 90.21 C78.26 59.94, 107.68 27.81, 123.91 5.68 M50.43 90.21 C68.39 71.85, 84.19 51.8, 123.91 5.68 M59.09 92.44 C78.22 70.14, 94.41 51, 133.22 7.16 M59.09 92.44 C85.81 62.34, 112.84 32.27, 133.22 7.16 M67.75 94.67 C87.99 68.31, 110.97 41.11, 141.89 9.39 M67.75 94.67 C88.37 72.6, 107.51 49.5, 141.89 9.39 M77.07 96.15 C100.01 69.82, 122.46 44.36, 149.24 13.13 M77.07 96.15 C101.64 67.87, 126.19 39.38, 149.24 13.13 M87.7 96.11 C107.03 72.66, 130.02 47.68, 156.59 16.87 M87.7 96.11 C111.01 69.69, 134.19 43.16, 156.59 16.87 M98.99 95.32 C122.48 66.91, 145.8 40.54, 163.94 20.61 M98.99 95.32 C122.62 70.28, 144.9 42.97, 163.94 20.61 M109.62 95.29 C122.25 80.41, 134.75 67.81, 171.28 24.34 M109.62 95.29 C130.27 72.59, 149.37 48.74, 171.28 24.34 M122.21 92.99 C135.52 76.99, 150.08 62.65, 174.7 32.61 M122.21 92.99 C137.33 75.43, 154.44 57.43, 174.7 32.61 M136.12 89.18 C152.11 72.67, 168.55 53.22, 178.77 40.12 M136.12 89.18 C143.72 79.22, 153.46 68.79, 178.77 40.12 M150.03 85.37 C158.59 76.17, 165.07 68.49, 179.56 51.41 M150.03 85.37 C159.29 73.24, 169.38 61.77, 179.56 51.41" stroke="#e9ecef" stroke-width="1" fill="none"></path><path d="M64.57 1.19 C76.22 -1.2, 92.49 0.25, 105.55 1.58 C118.61 2.92, 132.11 5.43, 142.92 9.19 C153.72 12.96, 164.1 18.25, 170.38 24.17 C176.66 30.1, 179.75 37.76, 180.59 44.75 C181.44 51.74, 180.09 59.48, 175.44 66.11 C170.79 72.73, 162.44 79.79, 152.7 84.5 C142.96 89.2, 129.93 92.39, 117 94.35 C104.08 96.31, 88.33 97.37, 75.15 96.25 C61.98 95.13, 48.67 91.65, 37.94 87.61 C27.22 83.58, 17.2 78.1, 10.8 72.05 C4.4 65.99, 0.09 58.31, -0.47 51.28 C-1.02 44.25, 2.36 36.31, 7.49 29.86 C12.63 23.4, 20.04 17.16, 30.33 12.56 C40.62 7.95, 61.82 4.03, 69.23 2.23 C76.65 0.43, 74.41 1.1, 74.84 1.75 M81.7 1.55 C94.47 0.24, 111.26 0.45, 123.86 2.68 C136.47 4.91, 148.27 9.97, 157.33 14.91 C166.39 19.85, 174.15 25.59, 178.22 32.32 C182.29 39.06, 183.72 48.43, 181.76 55.29 C179.81 62.15, 173.56 67.77, 166.49 73.48 C159.42 79.19, 150.34 85.75, 139.34 89.55 C128.34 93.35, 113.86 95.55, 100.51 96.28 C87.17 97.01, 71.55 96.33, 59.26 93.95 C46.98 91.56, 35.91 87.02, 26.81 81.95 C17.71 76.89, 8.84 70.09, 4.67 63.54 C0.5 56.98, 0.13 49.56, 1.78 42.63 C3.43 35.7, 7.33 28.14, 14.59 21.97 C21.84 15.79, 33.84 9.27, 45.31 5.57 C56.78 1.88, 77.26 0.36, 83.43 -0.2 C89.59 -0.75, 82.34 1.27, 82.3 2.25" stroke="#1e1e1e" stroke-width="2" fill="none"></path></g><g transform="translate(494.412879045199 154.05263507867633) rotate(0 42.54997253417969 12.5)"><text x="42.54997253417969" y="0" font-family="Virgil, Segoe UI Emoji" font-size="20px" fill="#1e1e1e" text-anchor="middle" style="white-space: pre;" direction="ltr" dominant-baseline="text-before-edge">new Vu e</text></g><g stroke-linecap="round"><g transform="translate(627.8237628381316 150.13327434336497) rotate(0 210.41051122000022 -53.0211074882515)"><path d="M-0.8 0.26 C34.01 -17.72, 139.47 -93.2, 209.58 -107.01 C279.69 -120.83, 384.75 -86.69, 419.86 -82.63" stroke="#1e1e1e" stroke-width="2.5" fill="none" stroke-dasharray="8 10"></path></g><g transform="translate(627.8237628381316 150.13327434336497) rotate(0 210.41051122000022 -53.0211074882515)"><path d="M395.14 -78.92 C404.44 -80.88, 411.29 -83.03, 419.86 -82.63" stroke="#1e1e1e" stroke-width="2.5" fill="none"></path></g><g transform="translate(627.8237628381316 150.13327434336497) rotate(0 210.41051122000022 -53.0211074882515)"><path d="M398.54 -95.68 C406.74 -91.64, 412.36 -87.75, 419.86 -82.63" stroke="#1e1e1e" stroke-width="2.5" fill="none"></path></g></g><mask></mask><g stroke-linecap="round" transform="translate(1050.606455200007 10) rotate(0 60.506134033203125 39.04856363932291)"><path d="M2.72 7.66 C2.72 7.66, 2.72 7.66, 2.72 7.66 M2.72 7.66 C2.72 7.66, 2.72 7.66, 2.72 7.66 M0.22 22.72 C5.84 17.58, 12.99 8.64, 19.91 0.08 M0.22 22.72 C6.99 14.79, 13.17 6.78, 19.91 0.08 M0.36 34.76 C9.65 23.9, 19.58 11.85, 30.54 0.04 M0.36 34.76 C7.83 26.02, 17.08 15.18, 30.54 0.04 M0.49 46.8 C11.54 32.28, 24.39 18.53, 41.17 0.01 M0.49 46.8 C11.04 34.8, 20.49 24.11, 41.17 0.01 M0.62 58.84 C10.85 46.43, 22.58 34.38, 51.8 -0.02 M0.62 58.84 C15.13 41.59, 29.49 24.61, 51.8 -0.02 M2.73 68.62 C17.76 54.17, 29.94 39.69, 62.43 -0.06 M2.73 68.62 C16.84 53.51, 31.22 37.22, 62.43 -0.06 M7.45 75.38 C28.48 51.54, 49.12 27.34, 73.06 -0.09 M7.45 75.38 C26.41 53.08, 45.95 30.51, 73.06 -0.09 M16.11 77.61 C30.37 63.55, 43.23 46.44, 83.69 -0.13 M16.11 77.61 C35.94 53.91, 56.49 32.38, 83.69 -0.13 M26.09 78.33 C47.36 52.69, 67.28 29.85, 93.66 0.59 M26.09 78.33 C50.89 50.25, 75.24 21.6, 93.66 0.59 M36.72 78.29 C57.13 52.71, 78.76 29.21, 104.29 0.56 M36.72 78.29 C60.55 51.5, 84.24 22.72, 104.29 0.56 M47.35 78.26 C68.11 56.66, 85.77 33.35, 112.95 2.79 M47.35 78.26 C67.3 55.36, 85.35 33.51, 112.95 2.79 M57.98 78.22 C80.07 52.75, 102.12 28.03, 118.99 8.04 M57.98 78.22 C74.09 61.99, 88.88 45.62, 118.99 8.04 M68.61 78.19 C87.2 55.67, 109.29 31.87, 121.09 17.81 M68.61 78.19 C84.74 58.94, 102.77 40.28, 121.09 17.81 M79.24 78.16 C91.49 63.5, 106.5 48.49, 121.23 29.85 M79.24 78.16 C94.39 61.04, 109.51 42.85, 121.23 29.85 M89.87 78.12 C97.12 66.56, 108.38 60.55, 120.7 42.65 M89.87 78.12 C101.38 63.46, 113.44 50.1, 120.7 42.65 M100.5 78.09 C104.53 70.43, 111.68 66.13, 120.84 54.69 M100.5 78.09 C104.2 72.12, 109.33 67.49, 120.84 54.69 M113.75 75.03 C114.39 73.92, 116.38 73, 119 69 M113.75 75.03 C115.17 73, 117.57 71.13, 119 69" stroke="#e9ecef" stroke-width="1" fill="none"></path><path d="M19.52 0 C38.14 0.54, 52.51 0.53, 101.49 0 M19.52 0 C46.93 0, 74.7 0.87, 101.49 0 M101.49 0 C113.68 0.11, 121.36 4.96, 121.01 19.52 M101.49 0 C113.8 0.92, 120.45 4.75, 121.01 19.52 M121.01 19.52 C122.53 32.9, 120.95 45.34, 121.01 58.57 M121.01 19.52 C121.02 28.82, 121.07 35.97, 121.01 58.57 M121.01 58.57 C119.65 70.73, 113.59 76.33, 101.49 78.1 M121.01 58.57 C120.47 69.29, 113.22 76.07, 101.49 78.1 M101.49 78.1 C78.86 80.47, 59.5 76.76, 19.52 78.1 M101.49 78.1 C77.24 79.54, 55.24 78.26, 19.52 78.1 M19.52 78.1 C7.56 79.74, -0.28 72.6, 0 58.57 M19.52 78.1 C5.74 79.98, 0.64 70.1, 0 58.57 M0 58.57 C2.18 49.82, -1.03 39.75, 0 19.52 M0 58.57 C0.67 46.87, 0.77 33.93, 0 19.52 M0 19.52 C1.79 4.52, 6.5 -0.27, 19.52 0 M0 19.52 C-0.47 8.23, 5.41 -1.31, 19.52 0" stroke="#1e1e1e" stroke-width="2" fill="none"></path></g><g transform="translate(1084.6526054075266 26.548563639322907) rotate(0 26.459983825683594 22.5)"><text x="26.459983825683594" y="0" font-family="Virgil, Segoe UI Emoji" font-size="36px" fill="#1e1e1e" text-anchor="middle" style="white-space: pre;" direction="ltr" dominant-baseline="text-before-edge">init</text></g><g stroke-linecap="round"><g transform="translate(1177.7460223480186 88.39341030097526) rotate(0 144.70985422312583 65.86578216521619)"><path d="M1.15 -0.59 C29.77 5.22, 123.95 13.37, 171.95 35.57 C219.94 57.76, 269.68 116.42, 289.09 132.6" stroke="#1e1e1e" stroke-width="2.5" fill="none" stroke-dasharray="8 10"></path></g><g transform="translate(1177.7460223480186 88.39341030097526) rotate(0 144.70985422312583 65.86578216521619)"><path d="M266.25 122.45 C272.57 126.16, 278.97 128.12, 289.09 132.6" stroke="#1e1e1e" stroke-width="2.5" fill="none"></path></g><g transform="translate(1177.7460223480186 88.39341030097526) rotate(0 144.70985422312583 65.86578216521619)"><path d="M278.11 110.14 C280.75 117.87, 283.39 123.72, 289.09 132.6" stroke="#1e1e1e" stroke-width="2.5" fill="none"></path></g></g><mask></mask><g stroke-linecap="round" transform="translate(1469.1274007161453 192.691167195638) rotate(0 72.12539672851562 50)"><path d="M6 6.54 C6 6.54, 6 6.54, 6 6.54 M6 6.54 C6 6.54, 6 6.54, 6 6.54 M0.88 24.62 C7.94 18.27, 13.56 9.48, 21.88 0.47 M0.88 24.62 C8.2 16.28, 14.85 7.6, 21.88 0.47 M1.02 36.66 C9.77 24.93, 22.63 16.25, 32.51 0.43 M1.02 36.66 C9.5 27.96, 16.6 16.7, 32.51 0.43 M1.15 48.7 C16.89 30.96, 30.82 15.55, 43.14 0.4 M1.15 48.7 C10.44 37.58, 20.35 27.08, 43.14 0.4 M1.28 60.74 C19.99 37.14, 39.73 16.43, 53.77 0.36 M1.28 60.74 C16.67 43.13, 30.61 25.47, 53.77 0.36 M1.42 72.78 C21 49.22, 44.36 19.8, 64.4 0.33 M1.42 72.78 C14.67 55.39, 29.96 40.18, 64.4 0.33 M1.55 84.82 C17.78 64.66, 35.49 43.53, 75.03 0.29 M1.55 84.82 C20.48 62.62, 38.41 40.94, 75.03 0.29 M5.62 92.33 C29.55 67.62, 47.93 39.55, 85.66 0.26 M5.62 92.33 C38.22 56.3, 69.2 18.73, 85.66 0.26 M11.66 97.58 C39.15 66.33, 67.46 33.21, 95.63 0.98 M11.66 97.58 C27.82 78.48, 43.97 57.47, 95.63 0.98 M20.32 99.81 C48.29 67.94, 75.97 36.22, 106.26 0.95 M20.32 99.81 C47.5 67.99, 75.75 37.21, 106.26 0.95 M30.29 100.53 C49 77.9, 64.15 56.79, 116.89 0.91 M30.29 100.53 C50.09 77.27, 69.44 54.02, 116.89 0.91 M40.92 100.5 C58.5 79.27, 78.68 55.28, 126.87 1.63 M40.92 100.5 C57.96 81.23, 75.52 60.24, 126.87 1.63 M51.55 100.46 C71.14 81.3, 87.81 59.66, 134.87 4.62 M51.55 100.46 C70.65 78.36, 91.72 54.44, 134.87 4.62 M62.18 100.43 C88.97 70.47, 113.71 38.32, 140.91 9.86 M62.18 100.43 C79.24 80.52, 95.21 61.98, 140.91 9.86 M72.81 100.4 C97.59 69.89, 124.38 39.58, 143.67 18.89 M72.81 100.4 C89.26 81.92, 105.34 61.29, 143.67 18.89 M83.44 100.36 C106.4 74.65, 127.54 49.03, 144.46 30.17 M83.44 100.36 C103.91 76.67, 125.16 51.06, 144.46 30.17 M94.07 100.33 C108.27 82.88, 121 67.09, 144.59 42.21 M94.07 100.33 C112.15 79.63, 130.99 59.11, 144.59 42.21 M104.7 100.29 C117.99 85.17, 126.4 75.51, 144.72 54.25 M104.7 100.29 C117.18 86.04, 129.48 70.35, 144.72 54.25 M115.33 100.26 C123.45 90.66, 131.44 81.54, 144.2 67.05 M115.33 100.26 C123.33 89.93, 132.65 79.91, 144.2 67.05 M127.27 98.71 C133.88 93, 139.35 86.01, 144.33 79.09 M127.27 98.71 C132.86 92.89, 138.33 86.69, 144.33 79.09" stroke="#e9ecef" stroke-width="1" fill="none"></path><path d="M25 0 C60.48 -0.88, 101.05 -2.01, 119.25 0 M25 0 C59.53 0.08, 96.89 -1.25, 119.25 0 M119.25 0 C134.46 -1.28, 144.58 10.31, 144.25 25 M119.25 0 C133.7 0.73, 142.05 10.12, 144.25 25 M144.25 25 C146.14 39.92, 146.21 57.12, 144.25 75 M144.25 25 C144.71 41.19, 143.94 58.85, 144.25 75 M144.25 75 C145.59 92.57, 135.13 101.46, 119.25 100 M144.25 75 C144.77 90.55, 133.77 98.72, 119.25 100 M119.25 100 C91.91 98.69, 65.65 98.67, 25 100 M119.25 100 C97.83 99.25, 75.51 99.4, 25 100 M25 100 C8.05 99.99, 1.14 91.95, 0 75 M25 100 C8.16 98.16, -0.32 90.5, 0 75 M0 75 C0.18 57.34, -0.67 38.74, 0 25 M0 75 C0 58.34, 0.71 41.11, 0 25 M0 25 C-0.5 6.77, 9.19 1.86, 25 0 M0 25 C-1.62 7.72, 10.02 -2.07, 25 0" stroke="#1e1e1e" stroke-width="2" fill="none"></path></g><g transform="translate(1476.632809956868 220.191167195638) rotate(0 64.61998748779297 22.5)"><text x="64.61998748779297" y="0" font-family="Virgil, Segoe UI Emoji" font-size="36px" fill="#1e1e1e" text-anchor="middle" style="white-space: pre;" direction="ltr" dominant-baseline="text-before-edge">$mount</text></g><g stroke-linecap="round"><g transform="translate(1518.6656514961655 297.84475965306825) rotate(0 -16.624469858985663 216.7365328321573)"><path d="M1.06 -0.31 C7.92 20.02, 39.24 83.94, 42.35 121.57 C45.45 159.21, 39.41 173.5, 19.7 225.52 C-0.02 277.54, -59.89 399.17, -75.93 433.68" stroke="#1e1e1e" stroke-width="2.5" fill="none" stroke-dasharray="8 10"></path></g><g transform="translate(1518.6656514961655 297.84475965306825) rotate(0 -16.624469858985663 216.7365328321573)"><path d="M-73.54 408.79 C-75.1 416.88, -76 428.22, -75.93 433.68" stroke="#1e1e1e" stroke-width="2.5" fill="none"></path></g><g transform="translate(1518.6656514961655 297.84475965306825) rotate(0 -16.624469858985663 216.7365328321573)"><path d="M-58.1 416.15 C-65.81 421.43, -72.88 429.83, -75.93 433.68" stroke="#1e1e1e" stroke-width="2.5" fill="none"></path></g></g><mask></mask><g stroke-linecap="round" transform="translate(1369.1311645507803 733.2794952392578) rotate(0 88.88778686523438 50)"><path d="M6 6.54 C6 6.54, 6 6.54, 6 6.54 M6 6.54 C6 6.54, 6 6.54, 6 6.54 M0.88 24.62 C7.7 18.61, 10.63 9.59, 21.88 0.47 M0.88 24.62 C4.76 18.59, 9.51 13.79, 21.88 0.47 M1.02 36.66 C9.86 27.56, 19.76 16, 32.51 0.43 M1.02 36.66 C7.82 30.39, 13.35 22.59, 32.51 0.43 M1.15 48.7 C11.67 38.33, 21.25 25.16, 43.14 0.4 M1.15 48.7 C15.57 32.17, 31.51 15.48, 43.14 0.4 M1.28 60.74 C17.27 43.64, 34.93 23.19, 53.77 0.36 M1.28 60.74 C12.71 48.7, 21.78 35.94, 53.77 0.36 M1.42 72.78 C24.41 48.1, 42.35 26.03, 64.4 0.33 M1.42 72.78 C25.26 45.23, 48.87 17.4, 64.4 0.33 M1.55 84.82 C26.99 57.39, 51.51 25.62, 75.03 0.29 M1.55 84.82 C19.92 63.26, 39.68 42.39, 75.03 0.29 M5.62 92.33 C37.23 55.76, 69.29 18.89, 85.66 0.26 M5.62 92.33 C29.62 64.58, 54.52 37.37, 85.66 0.26 M12.31 96.83 C40.98 63.69, 67.2 33.32, 95.63 0.98 M12.31 96.83 C41.64 63.08, 70.84 28.64, 95.63 0.98 M20.97 99.06 C44.4 74.84, 68.53 45.65, 106.26 0.95 M20.97 99.06 C49.12 66.11, 76.02 33.52, 106.26 0.95 M30.29 100.53 C47.85 78.36, 67.62 55.65, 116.89 0.91 M30.29 100.53 C59.99 67.34, 88.68 33.71, 116.89 0.91 M40.92 100.5 C73.55 66.86, 104.1 31.93, 127.52 0.88 M40.92 100.5 C71.82 64, 103.77 27.5, 127.52 0.88 M51.55 100.46 C70.33 78.59, 88.78 55.24, 138.15 0.84 M51.55 100.46 C84.02 62.76, 116.89 24.59, 138.15 0.84 M62.18 100.43 C84.32 75.95, 109.28 46.68, 148.78 0.81 M62.18 100.43 C85.08 74.29, 109.46 45.59, 148.78 0.81 M72.81 100.4 C101.89 66.27, 133.58 30.11, 158.76 1.53 M72.81 100.4 C99.67 69.39, 124.35 39.73, 158.76 1.53 M83.44 100.36 C115.28 66.01, 144.91 32.64, 167.42 3.76 M83.44 100.36 C102.77 76.43, 123.94 53.19, 167.42 3.76 M94.07 100.33 C117.76 75.38, 140.23 49.26, 173.46 9.01 M94.07 100.33 C115.72 77.63, 136.45 52.23, 173.46 9.01 M104.7 100.29 C122.56 81.49, 138.3 62.22, 176.87 17.27 M104.7 100.29 C121.28 81.69, 137.57 61.4, 176.87 17.27 M115.33 100.26 C135.78 77.98, 154.72 55.1, 177.66 28.56 M115.33 100.26 C130.51 82.75, 145.21 67.02, 177.66 28.56 M125.96 100.22 C135.78 86.03, 149.12 74.51, 177.79 40.6 M125.96 100.22 C140.28 84.46, 155.85 67.55, 177.79 40.6 M136.59 100.19 C152.98 81.31, 167.35 63.88, 177.92 52.64 M136.59 100.19 C153.1 82.69, 167.65 64.25, 177.92 52.64 M147.22 100.15 C157.35 91.8, 163.45 80.49, 178.06 64.68 M147.22 100.15 C155.06 91.91, 162.6 82.49, 178.06 64.68 M158.51 99.36 C163.23 95.24, 168.93 87.43, 177.53 77.48 M158.51 99.36 C162.32 94.45, 166.68 88.63, 177.53 77.48" stroke="#e9ecef" stroke-width="1" fill="none"></path><path d="M25 0 C74.15 0.72, 123.92 2.53, 152.78 0 M25 0 C65.01 0.18, 106.11 1.07, 152.78 0 M152.78 0 C168.79 -1.72, 176.77 10.27, 177.78 25 M152.78 0 C170.9 -2.27, 175.78 7.66, 177.78 25 M177.78 25 C178.82 40.86, 176.19 59.07, 177.78 75 M177.78 25 C178.01 35.4, 178.81 46.64, 177.78 75 M177.78 75 C176.08 93.33, 170.07 99.63, 152.78 100 M177.78 75 C175.67 93.72, 171.47 100.71, 152.78 100 M152.78 100 C105.9 97.61, 56.76 100.93, 25 100 M152.78 100 C113.08 99.92, 73.69 101.37, 25 100 M25 100 C9.61 100.51, 0.78 91.85, 0 75 M25 100 C9.2 99.93, 1.95 91.61, 0 75 M0 75 C1.04 63.19, 1.46 56.06, 0 25 M0 75 C-0.38 60.48, -0.1 45.2, 0 25 M0 25 C0.66 9.77, 6.96 1.03, 25 0 M0 25 C1.51 7.65, 8.08 -1.74, 25 0" stroke="#1e1e1e" stroke-width="2" fill="none"></path></g><g transform="translate(1400.2209854125967 760.7794952392578) rotate(0 57.79796600341797 22.5)"><text x="57.79796600341797" y="0" font-family="Virgil, Segoe UI Emoji" font-size="36px" fill="#1e1e1e" text-anchor="middle" style="white-space: pre;" direction="ltr" dominant-baseline="text-before-edge">compile</text></g><g stroke-linecap="round"><g transform="translate(1356.7710637341024 770.5401857353592) rotate(0 -153.5103353195326 52.57850014767496)"><path d="M-0.65 -0.91 C-19.86 11.48, -63.56 56.09, -114.7 73.68 C-165.84 91.26, -275.26 99.38, -307.49 104.62" stroke="#1e1e1e" stroke-width="2.5" fill="none" stroke-dasharray="8 10"></path></g><g transform="translate(1356.7710637341024 770.5401857353592) rotate(0 -153.5103353195326 52.57850014767496)"><path d="M-285.22 93.27 C-294.47 97.6, -302.27 100.19, -307.49 104.62" stroke="#1e1e1e" stroke-width="2.5" fill="none"></path></g><g transform="translate(1356.7710637341024 770.5401857353592) rotate(0 -153.5103353195326 52.57850014767496)"><path d="M-283.13 110.24 C-293.01 108.71, -301.53 105.45, -307.49 104.62" stroke="#1e1e1e" stroke-width="2.5" fill="none"></path></g></g><mask></mask><g stroke-linecap="round" transform="translate(895.7412719726553 817.4201202392579) rotate(0 71.36357625325513 39.04856363932288)"><path d="M2.72 7.66 C2.72 7.66, 2.72 7.66, 2.72 7.66 M2.72 7.66 C2.72 7.66, 2.72 7.66, 2.72 7.66 M4.16 18.19 C6.38 14.65, 12.38 7.71, 19.91 0.08 M4.16 18.19 C8.19 13.17, 13.31 8.9, 19.91 0.08 M4.29 30.23 C8.6 21.92, 14.38 18.68, 30.54 0.04 M4.29 30.23 C10.22 23.04, 16.18 16.07, 30.54 0.04 M4.43 42.27 C18.9 26.32, 31.57 11.11, 41.17 0.01 M4.43 42.27 C18.21 26.24, 32.67 8.45, 41.17 0.01 M3.9 55.07 C18.59 40.05, 32.14 22.5, 51.8 -0.02 M3.9 55.07 C18.96 38.11, 35.17 18.48, 51.8 -0.02 M4.69 66.36 C18.57 53.39, 31.29 36.23, 62.43 -0.06 M4.69 66.36 C21.14 46.86, 37.21 28.96, 62.43 -0.06 M8.11 74.62 C31.11 46.74, 54.69 21.35, 73.06 -0.09 M8.11 74.62 C33.38 45.89, 58.5 16.85, 73.06 -0.09 M13.49 80.63 C31.75 59.94, 52.98 39.51, 83.69 -0.13 M13.49 80.63 C29.34 63.39, 45.82 44.38, 83.69 -0.13 M23.46 81.35 C47.26 52.25, 71.71 25.05, 93.66 0.59 M23.46 81.35 C51.12 49.4, 78.54 17.34, 93.66 0.59 M34.09 81.31 C47.3 63.87, 61.02 48.26, 104.29 0.56 M34.09 81.31 C52.26 60.87, 69.52 40.11, 104.29 0.56 M44.72 81.28 C68.85 53.64, 91.33 29.32, 114.92 0.52 M44.72 81.28 C62.25 60.62, 81.39 39.52, 114.92 0.52 M55.35 81.24 C81.19 48.85, 110.3 17.26, 124.9 1.24 M55.35 81.24 C77.71 54.82, 102.05 28.72, 124.9 1.24 M65.98 81.21 C91.1 51.96, 116.33 25.22, 133.56 3.47 M65.98 81.21 C89.91 55, 112.12 27.93, 133.56 3.47 M76.61 81.17 C91.21 65.6, 104.47 48.44, 140.25 7.97 M76.61 81.17 C100.61 54.94, 123.69 26.42, 140.25 7.97 M87.24 81.14 C105.88 59.56, 128.88 34.53, 143.66 16.23 M87.24 81.14 C104.84 60.31, 123.45 38.83, 143.66 16.23 M97.87 81.11 C111.38 65.6, 124 50.8, 143.8 28.28 M97.87 81.11 C116.52 60.72, 133.73 40.13, 143.8 28.28 M108.5 81.07 C118.57 67.86, 130.07 54.78, 143.93 40.32 M108.5 81.07 C119.05 68.56, 130.69 54.58, 143.93 40.32 M118.48 81.79 C125.07 73.14, 129.57 68.59, 144.06 52.36 M118.48 81.79 C124.84 75.93, 129.24 69.07, 144.06 52.36 M128.45 82.51 C135.66 73.6, 139.64 70.66, 146.17 62.13 M128.45 82.51 C135.38 74.1, 141.92 66.56, 146.17 62.13" stroke="#e9ecef" stroke-width="1" fill="none"></path><path d="M19.52 0 C43.36 -1.06, 69.57 -2.07, 123.2 0 M19.52 0 C50.81 -0.1, 81.76 -0.01, 123.2 0 M123.2 0 C136.8 0.32, 142.8 5.61, 142.73 19.52 M123.2 0 C136.87 -2, 144.6 6.56, 142.73 19.52 M142.73 19.52 C144.6 33.13, 143.56 46.37, 142.73 58.57 M142.73 19.52 C142.65 29.74, 142.91 40.24, 142.73 58.57 M142.73 58.57 C142.41 71.59, 134.81 78.98, 123.2 78.1 M142.73 58.57 C141.3 72.12, 136.13 79.18, 123.2 78.1 M123.2 78.1 C101.66 77.18, 77.78 77.9, 19.52 78.1 M123.2 78.1 C94.08 78.84, 64.49 78.13, 19.52 78.1 M19.52 78.1 C8.42 79.89, 1.91 70.44, 0 58.57 M19.52 78.1 C6.17 77.32, 1.51 71.97, 0 58.57 M0 58.57 C-0.31 44.44, 1.18 30.58, 0 19.52 M0 58.57 C1.09 47.46, 0.65 34.51, 0 19.52 M0 19.52 C-1.08 8.11, 7.01 -1.04, 19.52 0 M0 19.52 C1.68 7.85, 4.29 1.37, 19.52 0" stroke="#1e1e1e" stroke-width="2" fill="none"></path></g><g transform="translate(913.2848714192698 833.9686838785808) rotate(0 53.819976806640625 22.5)"><text x="53.819976806640625" y="0" font-family="Virgil, Segoe UI Emoji" font-size="36px" fill="#1e1e1e" text-anchor="middle" style="white-space: pre;" direction="ltr" dominant-baseline="text-before-edge">render</text></g><g stroke-linecap="round"><g transform="translate(883.7431096325399 844.253664742291) rotate(0 -146.34909387876996 -4.27377494366749)"><path d="M-0.9 1.02 C-36.78 3.1, -166.16 16.52, -214.72 12.63 C-263.28 8.74, -279.28 -16.38, -292.25 -22.31" stroke="#1e1e1e" stroke-width="2.5" fill="none" stroke-dasharray="8 10"></path></g><g transform="translate(883.7431096325399 844.253664742291) rotate(0 -146.34909387876996 -4.27377494366749)"><path d="M-268.14 -15.69 C-274.8 -18.46, -286.78 -19.71, -292.25 -22.31" stroke="#1e1e1e" stroke-width="2.5" fill="none"></path></g><g transform="translate(883.7431096325399 844.253664742291) rotate(0 -146.34909387876996 -4.27377494366749)"><path d="M-278.04 -1.74 C-281.29 -9.27, -289.84 -15.35, -292.25 -22.31" stroke="#1e1e1e" stroke-width="2.5" fill="none"></path></g></g><mask></mask><g stroke-linecap="round" transform="translate(466.9281005859373 787.458826700846) rotate(0 60.506134033203125 39.048563639322936)"><path d="M2.72 7.66 C2.72 7.66, 2.72 7.66, 2.72 7.66 M2.72 7.66 C2.72 7.66, 2.72 7.66, 2.72 7.66 M4.16 18.19 C6.69 13.71, 11.97 8.48, 19.91 0.08 M4.16 18.19 C9.22 13.73, 14.27 8.05, 19.91 0.08 M4.29 30.23 C7.7 25.91, 16.34 18.23, 30.54 0.04 M4.29 30.23 C13.39 19.8, 23.62 8.13, 30.54 0.04 M4.43 42.27 C13.8 30.21, 25.19 15.36, 41.17 0.01 M4.43 42.27 C13.65 30.45, 24.02 20.14, 41.17 0.01 M3.9 55.07 C15.88 39.85, 31.55 22.77, 51.8 -0.02 M3.9 55.07 C20.11 35.15, 36.68 17.69, 51.8 -0.02 M4.69 66.36 C20.81 51.06, 32.38 32.24, 62.43 -0.06 M4.69 66.36 C28.45 40.44, 51.34 13.61, 62.43 -0.06 M8.11 74.62 C32.15 50.25, 54.95 21.5, 73.06 -0.09 M8.11 74.62 C31.36 46.7, 56.41 19.33, 73.06 -0.09 M13.49 80.63 C30.3 61.04, 47.76 45.44, 83.69 -0.13 M13.49 80.63 C30.8 61.72, 48.6 42.5, 83.69 -0.13 M23.46 81.35 C44.44 56.17, 66.01 33.46, 93.66 0.59 M23.46 81.35 C47.72 51.57, 74.59 22.91, 93.66 0.59 M34.09 81.31 C52.13 61.45, 73.35 37.62, 103.64 1.31 M34.09 81.31 C57.1 54.05, 81.37 25.64, 103.64 1.31 M44.72 81.28 C58.83 65.71, 71.55 46.78, 112.3 3.54 M44.72 81.28 C67.83 54.48, 90.65 29.53, 112.3 3.54 M55.35 81.24 C77.67 59.05, 95.68 34.52, 118.99 8.04 M55.35 81.24 C78.86 55.88, 100.38 30.72, 118.99 8.04 M65.98 81.21 C82.94 62.91, 96.51 48.13, 122.4 16.3 M65.98 81.21 C88.34 56.09, 108.44 32.6, 122.4 16.3 M76.61 81.17 C93.21 60.76, 109.56 44.93, 122.54 28.34 M76.61 81.17 C89.64 66.55, 102.21 50.97, 122.54 28.34 M87.24 81.14 C94.41 72.57, 103.39 61.5, 122.67 40.39 M87.24 81.14 C96.56 69.33, 106.03 59.39, 122.67 40.39 M97.87 81.11 C105.12 72.5, 110.05 63.66, 122.8 52.43 M97.87 81.11 C103.74 74.31, 109.84 65.54, 122.8 52.43 M113.75 75.03 C115.89 71.93, 120.53 66.6, 124.9 62.2 M113.75 75.03 C116.48 71.38, 120.34 66.85, 124.9 62.2" stroke="#e9ecef" stroke-width="1" fill="none"></path><path d="M19.52 0 C36.05 0.87, 56.5 0.41, 101.49 0 M19.52 0 C39.08 1.03, 61.4 -0.74, 101.49 0 M101.49 0 C116.19 0.18, 121.9 5.34, 121.01 19.52 M101.49 0 C116.66 -1.37, 121.61 5.88, 121.01 19.52 M121.01 19.52 C119.52 27.02, 122.19 38.96, 121.01 58.57 M121.01 19.52 C121.76 31.77, 121.35 43.78, 121.01 58.57 M121.01 58.57 C119.06 72.01, 113.83 76.41, 101.49 78.1 M121.01 58.57 C122.07 71.73, 114.4 76.17, 101.49 78.1 M101.49 78.1 C75.17 80.18, 51.99 76.95, 19.52 78.1 M101.49 78.1 C70.74 78.82, 40.05 79.69, 19.52 78.1 M19.52 78.1 C4.63 79.63, -1.37 71.28, 0 58.57 M19.52 78.1 C4.35 79.23, 2.14 70.51, 0 58.57 M0 58.57 C-1.66 44.5, 0.33 32.3, 0 19.52 M0 58.57 C0.67 46.02, -0.48 34.97, 0 19.52 M0 19.52 C-0.15 5.86, 4.53 -0.9, 19.52 0 M0 19.52 C0.38 7.08, 7.8 0.53, 19.52 0" stroke="#1e1e1e" stroke-width="2" fill="none"></path></g><g transform="translate(479.5542526245115 804.0073903401689) rotate(0 47.879981994628906 22.5)"><text x="47.879981994628906" y="0" font-family="Virgil, Segoe UI Emoji" font-size="36px" fill="#1e1e1e" text-anchor="middle" style="white-space: pre;" direction="ltr" dominant-baseline="text-before-edge">vnode</text></g><g stroke-linecap="round"><g transform="translate(460.00364942357623 806.331393208641) rotate(0 -86.88551480554918 -41.899688447010874)"><path d="M-0.39 -0.95 C-22.69 -5.54, -104.08 -14.71, -132.87 -28.66 C-161.65 -42.62, -166.37 -75.53, -173.08 -84.69" stroke="#1e1e1e" stroke-width="2.5" fill="none" stroke-dasharray="8 10"></path></g><g transform="translate(460.00364942357623 806.331393208641) rotate(0 -86.88551480554918 -41.899688447010874)"><path d="M-155.5 -66.92 C-163.61 -73.52, -169.59 -79.35, -173.08 -84.69" stroke="#1e1e1e" stroke-width="2.5" fill="none"></path></g><g transform="translate(460.00364942357623 806.331393208641) rotate(0 -86.88551480554918 -41.899688447010874)"><path d="M-171.04 -59.78 C-173.16 -69.05, -173.23 -77.6, -173.08 -84.69" stroke="#1e1e1e" stroke-width="2.5" fill="none"></path></g></g><mask></mask><g stroke-linecap="round" transform="translate(153.82181803385402 642.857487996419) rotate(0 60.506134033203125 39.048563639322936)"><path d="M2.72 7.66 C2.72 7.66, 2.72 7.66, 2.72 7.66 M2.72 7.66 C2.72 7.66, 2.72 7.66, 2.72 7.66 M0.22 22.72 C5.25 17.04, 12.22 8.98, 19.91 0.08 M0.22 22.72 C7.73 14.39, 15.18 5.29, 19.91 0.08 M0.36 34.76 C8.96 24.79, 16.94 15.94, 30.54 0.04 M0.36 34.76 C10.32 23.07, 22.57 10.29, 30.54 0.04 M0.49 46.8 C17.22 29.24, 27.88 14.62, 41.17 0.01 M0.49 46.8 C9.05 36.48, 17.22 26.59, 41.17 0.01 M0.62 58.84 C10.72 46.97, 23.2 32.66, 51.8 -0.02 M0.62 58.84 C16.23 40.94, 32.11 23.98, 51.8 -0.02 M2.73 68.62 C19.12 50.37, 31.48 32.99, 62.43 -0.06 M2.73 68.62 C19.39 48.89, 37.79 27.71, 62.43 -0.06 M7.45 75.38 C32.52 47.46, 58.86 16.36, 73.06 -0.09 M7.45 75.38 C32.67 47.51, 56.93 18.45, 73.06 -0.09 M16.11 77.61 C31.38 60.69, 44.28 44.83, 83.69 -0.13 M16.11 77.61 C37.88 53.1, 59.71 27.26, 83.69 -0.13 M26.09 78.33 C44.16 54.72, 66.03 34.17, 93.66 0.59 M26.09 78.33 C46.06 56.54, 65.23 35.64, 93.66 0.59 M36.72 78.29 C53.2 60.9, 71.47 42.24, 104.29 0.56 M36.72 78.29 C59.03 53.28, 80.81 28.72, 104.29 0.56 M47.35 78.26 C68.14 56.29, 86.92 32.05, 112.95 2.79 M47.35 78.26 C73.4 49.64, 98.61 21.33, 112.95 2.79 M57.98 78.22 C78.96 53.45, 102.29 31.37, 118.99 8.04 M57.98 78.22 C81.83 51.21, 104.46 25.6, 118.99 8.04 M68.61 78.19 C79.22 62.6, 93.83 47.55, 121.09 17.81 M68.61 78.19 C80.58 63.58, 93.68 49.07, 121.09 17.81 M79.24 78.16 C91.33 62.73, 107.17 45.25, 121.23 29.85 M79.24 78.16 C93.05 63.37, 105.19 47.46, 121.23 29.85 M89.87 78.12 C102.09 67.33, 112.28 53.62, 120.7 42.65 M89.87 78.12 C97.08 68.56, 106.5 59.1, 120.7 42.65 M100.5 78.09 C107.05 69.84, 114.57 61.61, 120.84 54.69 M100.5 78.09 C107.87 70.45, 114.83 60.81, 120.84 54.69 M113.75 75.03 C114.9 72.88, 117.36 70.9, 119 69 M113.75 75.03 C115.93 72.67, 117.01 70.54, 119 69" stroke="#e9ecef" stroke-width="1" fill="none"></path><path d="M19.52 0 C40.6 1.07, 61.92 1.01, 101.49 0 M19.52 0 C45.83 -0.19, 71.03 0.25, 101.49 0 M101.49 0 C112.93 -1.15, 119.14 5.94, 121.01 19.52 M101.49 0 C114 0.66, 120.19 7.28, 121.01 19.52 M121.01 19.52 C121.55 32.26, 118.95 45.17, 121.01 58.57 M121.01 19.52 C121.52 32.27, 120.91 43.47, 121.01 58.57 M121.01 58.57 C122.57 70.62, 112.76 78.76, 101.49 78.1 M121.01 58.57 C121.21 71.17, 114.64 77.24, 101.49 78.1 M101.49 78.1 C69.62 80.17, 40.23 80.09, 19.52 78.1 M101.49 78.1 C73.97 79.45, 47.02 78.96, 19.52 78.1 M19.52 78.1 C4.53 78.37, -1.48 73.35, 0 58.57 M19.52 78.1 C5.07 78.2, -0.23 72.07, 0 58.57 M0 58.57 C-0.89 48.81, -1.31 34.84, 0 19.52 M0 58.57 C0.32 44.65, 0.73 28.64, 0 19.52 M0 19.52 C-1.93 8.31, 6.14 1.44, 19.52 0 M0 19.52 C1.25 7.04, 8.72 0.93, 19.52 0" stroke="#1e1e1e" stroke-width="2" fill="none"></path></g><g transform="translate(165.34997049967433 659.4060516357418) rotate(0 48.97798156738281 22.5)"><text x="48.97798156738281" y="0" font-family="Virgil, Segoe UI Emoji" font-size="36px" fill="#1e1e1e" text-anchor="middle" style="white-space: pre;" direction="ltr" dominant-baseline="text-before-edge">patch</text></g><g stroke-linecap="round"><g transform="translate(157.29258917614197 641.857487996419) rotate(0 -45.13328016790635 -132.9964497884114)"><path d="M0.73 -1.06 C-10.56 -21.82, -52.93 -81.4, -68.12 -125.41 C-83.32 -169.41, -86.83 -241.72, -90.45 -265.11" stroke="#1e1e1e" stroke-width="2.5" fill="none" stroke-dasharray="8 10"></path></g><g transform="translate(157.29258917614197 641.857487996419) rotate(0 -45.13328016790635 -132.9964497884114)"><path d="M-79.38 -242.69 C-83.96 -248.44, -83.64 -254.97, -90.45 -265.11" stroke="#1e1e1e" stroke-width="2.5" fill="none"></path></g><g transform="translate(157.29258917614197 641.857487996419) rotate(0 -45.13328016790635 -132.9964497884114)"><path d="M-96.38 -240.82 C-96.38 -247.17, -91.5 -254.21, -90.45 -265.11" stroke="#1e1e1e" stroke-width="2.5" fill="none"></path></g></g><mask></mask><g stroke-linecap="round" transform="translate(10 285.9018198649087) rotate(0 60.506134033203125 39.04856363932291)"><path d="M2.72 7.66 C2.72 7.66, 2.72 7.66, 2.72 7.66 M2.72 7.66 C2.72 7.66, 2.72 7.66, 2.72 7.66 M4.16 18.19 C10.18 9.59, 18.15 5.23, 19.91 0.08 M4.16 18.19 C8.69 12.72, 13.38 8.31, 19.91 0.08 M4.29 30.23 C12.38 19.63, 22.41 10.86, 30.54 0.04 M4.29 30.23 C9.55 22.67, 16.18 16.41, 30.54 0.04 M4.43 42.27 C18.29 25.12, 32.8 11.91, 41.17 0.01 M4.43 42.27 C16.33 29.05, 28.08 16.19, 41.17 0.01 M3.9 55.07 C16.35 40.69, 28.74 28.08, 51.8 -0.02 M3.9 55.07 C22.87 35.17, 39.65 13.4, 51.8 -0.02 M4.69 66.36 C19 50.92, 35.37 31.18, 62.43 -0.06 M4.69 66.36 C23.02 44.85, 43.23 21.74, 62.43 -0.06 M8.11 74.62 C24.9 54.6, 41.26 35.53, 73.06 -0.09 M8.11 74.62 C32.37 46.05, 57.78 18.38, 73.06 -0.09 M13.49 80.63 C30.83 63.66, 45.16 47.64, 83.69 -0.13 M13.49 80.63 C37.54 55.65, 59.97 28.04, 83.69 -0.13 M23.46 81.35 C41.62 61.53, 60.41 39.52, 93.66 0.59 M23.46 81.35 C45.27 57.94, 66.73 32.83, 93.66 0.59 M34.09 81.31 C55.77 56.09, 74.96 32.07, 103.64 1.31 M34.09 81.31 C52.03 59.58, 69.5 39.97, 103.64 1.31 M44.72 81.28 C59.85 63.58, 74.03 49.08, 112.3 3.54 M44.72 81.28 C61.12 62.35, 76.65 41.52, 112.3 3.54 M55.35 81.24 C74.92 58.42, 91.8 36.57, 118.99 8.04 M55.35 81.24 C79.43 53.55, 102.99 26.32, 118.99 8.04 M65.98 81.21 C80.4 63.78, 97.07 45.8, 122.4 16.3 M65.98 81.21 C80.94 63.98, 94.01 48.41, 122.4 16.3 M76.61 81.17 C87.34 68.89, 98.39 57.36, 122.54 28.34 M76.61 81.17 C91.56 63.31, 106.81 45.38, 122.54 28.34 M87.24 81.14 C97.75 67.1, 109.31 56.44, 122.67 40.39 M87.24 81.14 C101.19 65.24, 114.48 49.71, 122.67 40.39 M97.87 81.11 C103.45 73.26, 110.06 67.34, 122.8 52.43 M97.87 81.11 C104.13 74.55, 110.72 67.66, 122.8 52.43 M113.75 75.03 C116.28 70.87, 121.64 65.27, 124.9 62.2 M113.75 75.03 C117.04 71.26, 120.42 68.26, 124.9 62.2" stroke="#e9ecef" stroke-width="1" fill="none"></path><path d="M19.52 0 C50.65 -0.39, 80.2 0.65, 101.49 0 M19.52 0 C46.14 0.94, 73.08 0.88, 101.49 0 M101.49 0 C114.95 -0.41, 119.17 5.76, 121.01 19.52 M101.49 0 C113.77 -0.15, 122.24 7.69, 121.01 19.52 M121.01 19.52 C122.13 35.65, 121.74 48.11, 121.01 58.57 M121.01 19.52 C121.68 34.1, 121.34 48.44, 121.01 58.57 M121.01 58.57 C120.91 71.27, 116.31 76.86, 101.49 78.1 M121.01 58.57 C122.27 72.9, 114.22 77.82, 101.49 78.1 M101.49 78.1 C67.9 77.06, 36.31 79.42, 19.52 78.1 M101.49 78.1 C80.97 77.22, 60.71 77.96, 19.52 78.1 M19.52 78.1 C5.47 79.79, 1.64 71.73, 0 58.57 M19.52 78.1 C7.68 77.62, -1.14 69.76, 0 58.57 M0 58.57 C1.59 50.38, -0.03 41.94, 0 19.52 M0 58.57 C0.1 44.7, -0.08 30.71, 0 19.52 M0 19.52 C-1.64 7.27, 7.98 1.05, 19.52 0 M0 19.52 C0.37 4.33, 8.41 2.08, 19.52 0" stroke="#1e1e1e" stroke-width="2" fill="none"></path></g><g transform="translate(29.610153198242188 302.4503835042316) rotate(0 40.89598083496094 22.5)"><text x="40.89598083496094" y="0" font-family="Virgil, Segoe UI Emoji" font-size="36px" fill="#1e1e1e" text-anchor="middle" style="white-space: pre;" direction="ltr" dominant-baseline="text-before-edge">DOM</text></g></svg>