<svg version="1.1" xmlns="http://www.w3.org/2000/svg" viewBox="0 0 509.6209716796875 378.1951217651367" width="509.6209716796875" height="378.1951217651367">
  <!-- svg-source:excalidraw -->
  
  <defs>
    <style class="style-fonts">
      @font-face {
        font-family: "Virgil";
        src: url("https://excalidraw.com/Virgil.woff2");
      }
      @font-face {
        font-family: "Cascadia";
        src: url("https://excalidraw.com/Cascadia.woff2");
      }
      @font-face {
        font-family: "Assistant";
        src: url("https://excalidraw.com/Assistant-Regular.woff2");
      }
    </style>
    
  </defs>
  <g stroke-linecap="round" transform="translate(10 10) rotate(0 243.57855224609375 23.73859405517578)"><path d="M0 0 C190.3 -1.01, 379.71 -1.69, 487.16 0 M0 0 C178.1 1.29, 356.83 1.91, 487.16 0 M487.16 0 C487.47 15.69, 487.2 35.86, 487.16 47.48 M487.16 0 C487.21 16.6, 488.08 34.62, 487.16 47.48 M487.16 47.48 C349.85 49.9, 213.63 49.86, 0 47.48 M487.16 47.48 C317.93 46.06, 149.94 46.54, 0 47.48 M0 47.48 C0.84 33.43, 0.1 19.7, 0 0 M0 47.48 C-0.22 37.2, -0.47 27.09, 0 0" stroke="#4dabf7" stroke-width="2" fill="none"></path></g><g transform="translate(225.45355224609375 24.13859405517576) rotate(0 28.125 9.600000000000023)"><text x="28.125" y="0" font-family="Cascadia, Segoe UI Emoji" font-size="16px" fill="#1e1e1e" text-anchor="middle" style="white-space: pre;" direction="ltr" dominant-baseline="text-before-edge">Header</text></g><g stroke-linecap="round" transform="translate(10.85400390625 86.07109069824219) rotate(0 243.8690185546875 103.50015258789062)"><path d="M0 0 C164.76 -1.67, 328.41 -1.72, 487.74 0 M0 0 C174.64 -1.33, 349.65 -1.67, 487.74 0 M487.74 0 C488.5 83.87, 488.17 166.12, 487.74 207 M487.74 0 C486.45 51.54, 487.75 104.62, 487.74 207 M487.74 207 C320.5 209.11, 152.33 208.07, 0 207 M487.74 207 C295.75 205.16, 104.29 204.89, 0 207 M0 207 C-1.67 128.91, -2.31 53.94, 0 0 M0 207 C-0.84 130.36, 0.01 55.58, 0 0" stroke="#4dabf7" stroke-width="2" fill="none"></path></g><g transform="translate(53.098876953125 108.45671081542969) rotate(0 24 9.600000000000023)"><text x="0" y="0" font-family="Cascadia, Segoe UI Emoji" font-size="16px" fill="#1e1e1e" text-anchor="start" style="white-space: pre;" direction="ltr" dominant-baseline="text-before-edge">主页面</text></g><g stroke-linecap="round" transform="translate(44.47705078125 147.98927307128906) rotate(0 58.98468017578125 57.70881652832031)"><path d="M0 0 C36.93 0.06, 75.35 0.17, 117.97 0 M0 0 C34.55 1.53, 71.42 1.35, 117.97 0 M117.97 0 C119.74 22.45, 120.65 46.78, 117.97 115.42 M117.97 0 C118.71 45.9, 118.23 90.85, 117.97 115.42 M117.97 115.42 C88.54 114.81, 63.14 117.66, 0 115.42 M117.97 115.42 C92.88 116.49, 67.36 116.07, 0 115.42 M0 115.42 C2.11 90.33, -0.31 66.06, 0 0 M0 115.42 C-0.43 73.21, -1.93 30.92, 0 0" stroke="#4dabf7" stroke-width="2" fill="none"></path></g><g transform="translate(65.96173095703125 196.09808959960947) rotate(0 37.5 9.600000000000023)"><text x="37.5" y="0" font-family="Cascadia, Segoe UI Emoji" font-size="16px" fill="#1e1e1e" text-anchor="middle" style="white-space: pre;" direction="ltr" dominant-baseline="text-before-edge">Page-One</text></g><g stroke-linecap="round" transform="translate(205.85806274414062 149.97628784179688) rotate(0 58.413238525390625 57.70881652832031)"><path d="M0 0 C38.99 -0.28, 77.23 -1.6, 116.83 0 M0 0 C45.25 -0.72, 90.13 -0.08, 116.83 0 M116.83 0 C117.25 25.93, 115.79 52.26, 116.83 115.42 M116.83 0 C115.71 42.57, 115.3 85.94, 116.83 115.42 M116.83 115.42 C77.2 116.28, 37.43 116.82, 0 115.42 M116.83 115.42 C77.64 114.11, 39.15 115.62, 0 115.42 M0 115.42 C-0.32 76.22, 0.45 32.31, 0 0 M0 115.42 C-1.85 87.99, -1.24 60.03, 0 0" stroke="#4dabf7" stroke-width="2" fill="none"></path></g><g transform="translate(226.77130126953125 198.08510437011728) rotate(0 37.5 9.600000000000023)"><text x="37.5" y="0" font-family="Cascadia, Segoe UI Emoji" font-size="16px" fill="#1e1e1e" text-anchor="middle" style="white-space: pre;" direction="ltr" dominant-baseline="text-before-edge">Page-Two</text></g><g stroke-linecap="round" transform="translate(361.0782165527344 146.01498413085938) rotate(0 54.87030029296875 57.70881652832031)"><path d="M0 0 C32.84 1.93, 62.97 0.37, 109.74 0 M0 0 C29.93 0.32, 61.67 -0.73, 109.74 0 M109.74 0 C110.07 31.91, 108.24 66.43, 109.74 115.42 M109.74 0 C109.39 29.99, 108.86 57.95, 109.74 115.42 M109.74 115.42 C71.83 115.97, 31.38 115.62, 0 115.42 M109.74 115.42 C83.79 117.33, 56.46 116.79, 0 115.42 M0 115.42 C-2 71.43, -0.51 22.27, 0 0 M0 115.42 C0.36 73.94, -0.12 31.2, 0 0" stroke="#4dabf7" stroke-width="2" fill="none"></path></g><g transform="translate(369.0735168457031 194.12380065917978) rotate(0 46.875 9.600000000000023)"><text x="46.875" y="0" font-family="Cascadia, Segoe UI Emoji" font-size="16px" fill="#1e1e1e" text-anchor="middle" style="white-space: pre;" direction="ltr" dominant-baseline="text-before-edge">Page-Three</text></g><g stroke-linecap="round" transform="translate(12.4638671875 320.71793365478516) rotate(0 243.57855224609375 23.73859405517578)"><path d="M0 0 C128.51 0.32, 256.16 0.58, 487.16 0 M0 0 C157.59 1.93, 316.31 1.91, 487.16 0 M487.16 0 C488.55 14.56, 488.16 35.02, 487.16 47.48 M487.16 0 C486.79 12.74, 486.64 26.26, 487.16 47.48 M487.16 47.48 C385.63 46.09, 284.49 45.81, 0 47.48 M487.16 47.48 C312.06 46.26, 136.8 46.78, 0 47.48 M0 47.48 C-0.76 33.48, 1.48 20.26, 0 0 M0 47.48 C-0.88 34.4, -1 20.44, 0 0" stroke="#4dabf7" stroke-width="2" fill="none"></path></g><g transform="translate(227.91741943359375 334.85652770996103) rotate(0 28.125 9.600000000000023)"><text x="28.125" y="0" font-family="Cascadia, Segoe UI Emoji" font-size="16px" fill="#1e1e1e" text-anchor="middle" style="white-space: pre;" direction="ltr" dominant-baseline="text-before-edge">Footer</text></g></svg>