<svg version="1.1" xmlns="http://www.w3.org/2000/svg" viewBox="0 0 1682.580062866211 1083.046406432681" width="1682.580062866211" height="1083.046406432681">
  <!-- svg-source:excalidraw -->
  
  <defs>
    <style class="style-fonts">
      @font-face {
        font-family: "Virgil";
        src: url("https://excalidraw.com/Virgil.woff2");
      }
      @font-face {
        font-family: "Cascadia";
        src: url("https://excalidraw.com/Cascadia.woff2");
      }
      @font-face {
        font-family: "Assistant";
        src: url("https://excalidraw.com/Assistant-Regular.woff2");
      }
    </style>
    
  </defs>
  <rect x="0" y="0" width="1682.580062866211" height="1083.046406432681" fill="#ffffff"></rect><g stroke-linecap="round" transform="translate(528.7371826171875 532.5926513671875) rotate(0 140.22586059570312 42.92411804199219)"><path d="M21.46 0 C91.83 -0.66, 169.04 -4.37, 258.99 0 C275.55 -3.46, 283.58 9.96, 280.45 21.46 C278.46 34.13, 281.35 54.32, 280.45 64.39 C279.55 76.32, 271.83 87.39, 258.99 85.85 C189.14 85.26, 113.32 80.63, 21.46 85.85 C5.52 83.9, 0.37 76.24, 0 64.39 C-2.24 50.95, 0.67 41.1, 0 21.46 C2.11 10.65, 4.7 -2.14, 21.46 0" stroke="none" stroke-width="0" fill="#1e1e1e"></path><path d="M21.46 0 C84.81 0.14, 148.31 0.82, 258.99 0 M21.46 0 C108.93 0.86, 198.07 0.73, 258.99 0 M258.99 0 C273.96 1.99, 279.99 7.8, 280.45 21.46 M258.99 0 C271.3 -2.2, 278.66 5.01, 280.45 21.46 M280.45 21.46 C279.81 32.6, 279.58 43.57, 280.45 64.39 M280.45 21.46 C280.86 38.33, 280.4 53.53, 280.45 64.39 M280.45 64.39 C280.66 79.16, 273.13 84.33, 258.99 85.85 M280.45 64.39 C279.28 78.21, 272.55 86.25, 258.99 85.85 M258.99 85.85 C184.14 86.55, 111.09 84.66, 21.46 85.85 M258.99 85.85 C190.66 87.28, 123.26 86.48, 21.46 85.85 M21.46 85.85 C6.72 84.98, -0.02 78.97, 0 64.39 M21.46 85.85 C5.57 85.17, 0.08 77.66, 0 64.39 M0 64.39 C1.92 53.52, -1.19 42.08, 0 21.46 M0 64.39 C-0.24 55.02, -0.52 44.47, 0 21.46 M0 21.46 C0.13 7.19, 5.22 1.29, 21.46 0 M0 21.46 C-2.05 6.86, 5.77 1.45, 21.46 0" stroke="#1e1e1e" stroke-width="2" fill="none"></path></g><g transform="translate(581.1793823242188 562.8249206542969) rotate(0 96.29994201660156 12.5)"><text x="0" y="0" font-family="Virgil, Segoe UI Emoji" font-size="20px" fill="#ffffff" text-anchor="start" style="white-space: pre;" direction="ltr" dominant-baseline="text-before-edge">TypeScript 类型体操</text></g><g stroke-linecap="round"><g transform="translate(526.6012573242188 580.1755676269531) rotate(0 -62.590087890625 1.11151123046875)"><path d="M0.01 0.53 C-20.67 1.26, -104.07 3.14, -124.99 3.26 M-1.44 -0.24 C-22.19 0.28, -105 1.3, -125.84 1.68" stroke="#1e1e1e" stroke-width="2" fill="none"></path></g></g><mask></mask><g stroke-linecap="round" transform="translate(246.9234619140625 556.6319274902344) rotate(0 77.28970336914062 25.59844970703125)"><path d="M12.8 0 C36.87 -4.04, 68.78 -3.21, 141.78 0 C150.35 -1.12, 153.11 3.44, 154.58 12.8 C152.24 19.97, 153.16 24.17, 154.58 38.4 C155.15 48.03, 149.49 50.05, 141.78 51.2 C107.18 54.68, 65.39 48.2, 12.8 51.2 C6.43 50.28, 1.02 48.22, 0 38.4 C2.25 28.37, -3.9 18.35, 0 12.8 C-1.15 2.31, 1.79 1.79, 12.8 0" stroke="none" stroke-width="0" fill="#e9ecef"></path><path d="M12.8 0 C49.22 -2.31, 86.12 -1.59, 141.78 0 M12.8 0 C55.26 -0.94, 95.81 0.28, 141.78 0 M141.78 0 C149.81 1.18, 156.09 5.59, 154.58 12.8 M141.78 0 C150.72 -1.57, 156.25 2.18, 154.58 12.8 M154.58 12.8 C155.59 19.2, 156.21 27.55, 154.58 38.4 M154.58 12.8 C154.95 21.26, 154.65 29.08, 154.58 38.4 M154.58 38.4 C156.4 48.5, 150.99 49.42, 141.78 51.2 M154.58 38.4 C156.74 46.78, 151.58 49.43, 141.78 51.2 M141.78 51.2 C106.29 48.84, 69.91 52.25, 12.8 51.2 M141.78 51.2 C115.01 50.81, 89.84 51.86, 12.8 51.2 M12.8 51.2 C2.7 53.1, 1.65 47.1, 0 38.4 M12.8 51.2 C4.04 51.82, 0.1 47.62, 0 38.4 M0 38.4 C1.35 32.28, -1.3 24.88, 0 12.8 M0 38.4 C-0.41 33.55, 0.13 26.23, 0 12.8 M0 12.8 C-0.04 3.2, 6.01 1.33, 12.8 0 M0 12.8 C-0.11 2.55, 2.39 0.45, 12.8 0" stroke="#1e1e1e" stroke-width="2" fill="none"></path></g><g transform="translate(284.2131652832031 569.7303771972656) rotate(0 40 12.5)"><text x="40" y="0" font-family="Virgil, Segoe UI Emoji" font-size="20px" fill="#1e1e1e" text-anchor="middle" style="white-space: pre;" direction="ltr" dominant-baseline="text-before-edge">前置知识</text></g><g stroke-linecap="round"><g transform="translate(244.2330322265625 580.9570007324219) rotate(0 -68.84896850585938 -0.25384521484375)"><path d="M-0.73 0.73 C-23.96 0.55, -115.46 -0.39, -138.31 -0.43 M1.09 0.07 C-21.84 0.05, -112.63 1.38, -135.92 1.15" stroke="#1e1e1e" stroke-width="2" fill="none"></path></g></g><mask></mask><g stroke-linecap="round"><g transform="translate(244.574951171875 578.0431518554688) rotate(0 -66.724609375 -19.803298950195312)"><path d="M0.74 -0.5 C-9.76 -5.9, -40.01 -26.92, -62.4 -33.27 C-84.79 -39.61, -121.85 -37.69, -133.61 -38.56 M-0.33 -1.8 C-11.01 -7.46, -40.79 -28.55, -63.15 -34.97 C-85.5 -41.4, -122.91 -39.45, -134.46 -40.36" stroke="#1e1e1e" stroke-width="2" fill="none"></path></g></g><mask></mask><g stroke-linecap="round"><g transform="translate(246.053466796875 586.01513671875) rotate(0 -67.90792846679688 15.021575927734375)"><path d="M-0.54 -0.54 C-12.46 4.06, -48.07 21.9, -70.62 26.98 C-93.17 32.05, -124.79 29.5, -135.82 29.91 M1.38 1.8 C-10.82 6.56, -48.83 23.12, -71.83 28.01 C-94.82 32.91, -125.71 30.79, -136.59 31.16" stroke="#1e1e1e" stroke-width="2" fill="none"></path></g></g><mask></mask><g transform="translate(21.98638916015625 527.3956909179688) rotate(0 40 12.5)"><text x="0" y="0" font-family="Virgil, Segoe UI Emoji" font-size="20px" fill="#1e1e1e" text-anchor="start" style="white-space: pre;" direction="ltr" dominant-baseline="text-before-edge">联合类型</text></g><g transform="translate(19.32940673828125 569.4241943359375) rotate(0 40 12.5)"><text x="0" y="0" font-family="Virgil, Segoe UI Emoji" font-size="20px" fill="#1e1e1e" text-anchor="start" style="white-space: pre;" direction="ltr" dominant-baseline="text-before-edge">交叉类型</text></g><g transform="translate(10 607.2359008789062) rotate(0 46.90997314453125 12.5)"><text x="0" y="0" font-family="Virgil, Segoe UI Emoji" font-size="20px" fill="#1e1e1e" text-anchor="start" style="white-space: pre;" direction="ltr" dominant-baseline="text-before-edge">Never类型</text></g><g stroke-linecap="round"><g transform="translate(807.1327819824219 575.8572387695312) rotate(0 95.77964782714844 80.30531311035156)"><path d="M-1.07 1.06 C20.73 23.84, 98.59 109.69, 130.62 136.34 C162.66 162.98, 180.87 157.04, 191.13 160.96 M0.57 0.57 C22.33 23.01, 98.66 108.05, 130.26 134.42 C161.85 160.79, 179.72 154.44, 190.14 158.79" stroke="#1e1e1e" stroke-width="2" fill="none"></path></g></g><mask></mask><g stroke-linecap="round"><g transform="translate(810.8703308105469 578.0005971160531) rotate(0 95.77964782714844 -80.3053131103516)"><path d="M-0.85 -1.13 C20.81 -23.77, 97.42 -110.28, 129.35 -136.83 C161.29 -163.37, 180.42 -156.34, 190.77 -160.42 M0.9 0.89 C22.45 -21.53, 96.26 -109.11, 128.32 -135.75 C160.38 -162.4, 182.7 -154.86, 193.25 -159" stroke="#1e1e1e" stroke-width="2" fill="none"></path></g></g><mask></mask><g stroke-linecap="round"><g transform="translate(809.9878234863281 581.4293212890625) rotate(0 87.75166320800781 192.37319946289062)"><path d="M-0.24 0.97 C19.08 54.29, 87.11 255.98, 116.58 320.1 C146.05 384.21, 166.58 374.71, 176.58 385.68 M-1.83 0.43 C17.33 53.43, 86.18 254.69, 115.88 318.59 C145.58 382.49, 166.74 372.93, 176.38 383.82" stroke="#1e1e1e" stroke-width="2" fill="none"></path></g></g><mask></mask><g stroke-linecap="round" transform="translate(995.1226196289062 157.2761993408203) rotate(0 92.48782348632812 33.13196563720703)"><path d="M16.57 0 C59.74 4.07, 96.29 0.55, 168.41 0 C182.6 1.3, 185.85 3.95, 184.98 16.57 C187.12 26.51, 187.2 34.3, 184.98 49.7 C186.49 61.16, 176.44 63.19, 168.41 66.26 C115.51 68.92, 66.13 67.08, 16.57 66.26 C2.47 67.17, 1.65 64.18, 0 49.7 C-3.24 43.08, -1.5 34.68, 0 16.57 C-1.92 5.35, 5.94 2.08, 16.57 0" stroke="none" stroke-width="0" fill="#e9ecef"></path><path d="M16.57 0 C54.17 -1.4, 88.24 -0.54, 168.41 0 M16.57 0 C62.48 0.66, 107.97 1.85, 168.41 0 M168.41 0 C180.3 0.54, 184.55 7.15, 184.98 16.57 M168.41 0 C179.65 0.88, 186.08 6.25, 184.98 16.57 M184.98 16.57 C183.79 27.24, 183.73 40.1, 184.98 49.7 M184.98 16.57 C185.09 26.31, 186.11 36.72, 184.98 49.7 M184.98 49.7 C184.43 61.84, 178.7 67.37, 168.41 66.26 M184.98 49.7 C186.57 60.21, 178.83 67.33, 168.41 66.26 M168.41 66.26 C127.9 66.54, 83.43 67.5, 16.57 66.26 M168.41 66.26 C132.2 67.31, 96.26 67.11, 16.57 66.26 M16.57 66.26 C4.57 66.7, -0.92 60.07, 0 49.7 M16.57 66.26 C5.54 65.44, -0.05 62.43, 0 49.7 M0 49.7 C1.78 36.06, 0.44 27.19, 0 16.57 M0 49.7 C0.25 39.5, 0.38 29.98, 0 16.57 M0 16.57 C-0.53 7.14, 4.13 -0.25, 16.57 0 M0 16.57 C1.2 3.38, 3.96 1.52, 16.57 0" stroke="#1e1e1e" stroke-width="2" fill="none"></path></g><g transform="translate(1068.9204635620117 177.90816497802734) rotate(0 18.689979553222656 12.5)"><text x="18.689979553222656" y="0" font-family="Virgil, Segoe UI Emoji" font-size="20px" fill="#1e1e1e" text-anchor="middle" style="white-space: pre;" direction="ltr" dominant-baseline="text-before-edge">Pick</text></g><g stroke-linecap="round" transform="translate(1004.1536865234375 387.60302734375) rotate(0 88.72982788085938 35.3377685546875)"><path d="M17.67 0 C55.14 2.93, 88.81 2.2, 159.79 0 C173.97 0.73, 175.97 3.48, 177.46 17.67 C180.17 29.13, 178.84 42.56, 177.46 53.01 C180.76 63.58, 172.58 67.71, 159.79 70.68 C115.82 70.73, 77.41 69.5, 17.67 70.68 C8.73 73.4, -0.49 65.41, 0 53.01 C0 41.32, 0.32 27.99, 0 17.67 C-2.64 5.77, 3.82 1.33, 17.67 0" stroke="none" stroke-width="0" fill="#e9ecef"></path><path d="M17.67 0 C47.31 -1.69, 80.08 1.01, 159.79 0 M17.67 0 C57.01 -0.8, 97.66 -1.19, 159.79 0 M159.79 0 C171.84 -0.19, 176.16 7.36, 177.46 17.67 M159.79 0 C173.56 -2.25, 176.45 7.66, 177.46 17.67 M177.46 17.67 C176.1 27.72, 177.22 36.77, 177.46 53.01 M177.46 17.67 C177.8 28.88, 177.59 39.78, 177.46 53.01 M177.46 53.01 C177.22 65.16, 169.63 69.7, 159.79 70.68 M177.46 53.01 C178.14 62.55, 171.4 70.51, 159.79 70.68 M159.79 70.68 C121.33 71.41, 82.73 71.98, 17.67 70.68 M159.79 70.68 C127.86 71.24, 98.02 71.15, 17.67 70.68 M17.67 70.68 C7.25 72.57, 1.76 65.96, 0 53.01 M17.67 70.68 C4.26 68.5, 0.4 65, 0 53.01 M0 53.01 C1.6 46.95, 1.86 38.25, 0 17.67 M0 53.01 C-0.81 44.14, -0.07 36.39, 0 17.67 M0 17.67 C-0.07 4.53, 5.72 -0.86, 17.67 0 M0 17.67 C-1.5 6.56, 3.94 -1.91, 17.67 0" stroke="#1e1e1e" stroke-width="2" fill="none"></path></g><g transform="translate(1056.033546447754 410.4407958984375) rotate(0 36.84996795654297 12.5)"><text x="36.84996795654297" y="0" font-family="Virgil, Segoe UI Emoji" font-size="20px" fill="#1e1e1e" text-anchor="middle" style="white-space: pre;" direction="ltr" dominant-baseline="text-before-edge">Exclude</text></g><g stroke-linecap="round" transform="translate(1000.6264343261719 695.6250610351562) rotate(0 101.39434814453125 40.50933837890625)"><path d="M20.25 0 C60.97 -2.37, 99.35 -0.49, 182.53 0 C198.77 -3.17, 199.8 4.98, 202.79 20.25 C202.32 31.57, 200.75 43.32, 202.79 60.76 C204.21 76.96, 199.5 83.29, 182.53 81.02 C126.99 80.32, 76.77 81.57, 20.25 81.02 C9.48 81.22, -2.53 77.86, 0 60.76 C-0.71 50.99, -1.08 40.53, 0 20.25 C-1.54 7.4, 10.02 -1.13, 20.25 0" stroke="none" stroke-width="0" fill="#e9ecef"></path><path d="M20.25 0 C70.73 -0.02, 120.09 1.52, 182.53 0 M20.25 0 C72.35 -0.35, 125.36 -1.42, 182.53 0 M182.53 0 C194.08 -1.55, 202.36 8.21, 202.79 20.25 M182.53 0 C195.51 0.41, 203.77 5.94, 202.79 20.25 M202.79 20.25 C204.76 29.04, 202.24 38.95, 202.79 60.76 M202.79 20.25 C204 31.63, 203.27 40.55, 202.79 60.76 M202.79 60.76 C204.73 75.45, 197.5 81.38, 182.53 81.02 M202.79 60.76 C203.41 74.46, 196.51 80.19, 182.53 81.02 M182.53 81.02 C145.15 78.62, 107.07 80.53, 20.25 81.02 M182.53 81.02 C119.89 80.13, 54.8 80.76, 20.25 81.02 M20.25 81.02 C8.05 79.31, -1.65 72.84, 0 60.76 M20.25 81.02 C6.56 78.79, 0.13 73.35, 0 60.76 M0 60.76 C1.78 51.34, -1.14 45.38, 0 20.25 M0 60.76 C0.18 49.55, -0.14 38, 0 20.25 M0 20.25 C1.02 5.98, 6.79 -1.53, 20.25 0 M0 20.25 C-1.82 5.72, 4.91 0.64, 20.25 0" stroke="#1e1e1e" stroke-width="2" fill="none"></path></g><g transform="translate(1080.590805053711 723.6343994140625) rotate(0 21.429977416992188 12.5)"><text x="21.429977416992188" y="0" font-family="Virgil, Segoe UI Emoji" font-size="20px" fill="#1e1e1e" text-anchor="middle" style="white-space: pre;" direction="ltr" dominant-baseline="text-before-edge">Omit</text></g><g stroke-linecap="round"><g transform="translate(813.5912131466857 575.3395579964807) rotate(0 87.75166320800781 -192.37319946289062)"><path d="M0.02 0.46 C19.38 -52.86, 87.79 -254.59, 116.87 -318.95 C145.96 -383.31, 164.79 -374.66, 174.51 -385.71 M-1.43 -0.35 C17.78 -53.55, 86.61 -253.34, 116.33 -317.43 C146.05 -381.53, 167.05 -373.73, 176.88 -384.9" stroke="#1e1e1e" stroke-width="2" fill="none"></path></g></g><mask></mask><g stroke-linecap="round" transform="translate(987.2345275878906 922.4198608398438) rotate(0 101.39434814453125 40.50933837890625)"><path d="M20.25 0 C72.55 0.8, 123.34 4.57, 182.53 0 C193.95 2.56, 202.36 4.76, 202.79 20.25 C203.78 33.06, 200.98 49.05, 202.79 60.76 C204.34 73.84, 199.34 78.78, 182.53 81.02 C132.25 82.54, 76.32 78.62, 20.25 81.02 C8.9 79.81, -2.34 72.66, 0 60.76 C-3.31 46.99, 2.09 38.49, 0 20.25 C1.59 7.69, 7.49 3.09, 20.25 0" stroke="none" stroke-width="0" fill="#e9ecef"></path><path d="M20.25 0 C57.65 0.58, 96.77 -1.26, 182.53 0 M20.25 0 C58.44 -0.59, 95.21 0.94, 182.53 0 M182.53 0 C197.16 -0.65, 201.08 7.85, 202.79 20.25 M182.53 0 C196.7 2.27, 204.56 4.96, 202.79 20.25 M202.79 20.25 C204.59 34.55, 204.13 49.24, 202.79 60.76 M202.79 20.25 C202.24 31.98, 201.71 44.61, 202.79 60.76 M202.79 60.76 C201.91 76.25, 197.47 79.74, 182.53 81.02 M202.79 60.76 C204.52 75.17, 197.54 82.32, 182.53 81.02 M182.53 81.02 C126.06 79.47, 68.41 79.84, 20.25 81.02 M182.53 81.02 C144.72 82.4, 106.17 80.48, 20.25 81.02 M20.25 81.02 C7.8 80.21, 1.2 75.94, 0 60.76 M20.25 81.02 C8.57 80.44, -0.87 73.56, 0 60.76 M0 60.76 C-0.34 42.91, -1.34 27.69, 0 20.25 M0 60.76 C0.89 49.69, -0.44 37.94, 0 20.25 M0 20.25 C-1.14 5.09, 7.25 0.25, 20.25 0 M0 20.25 C0.98 8.02, 5.42 -1.56, 20.25 0" stroke="#1e1e1e" stroke-width="2" fill="none"></path></g><g transform="translate(1032.9489288330078 950.42919921875) rotate(0 55.67994689941406 12.5)"><text x="55.67994689941406" y="0" font-family="Virgil, Segoe UI Emoji" font-size="20px" fill="#1e1e1e" text-anchor="middle" style="white-space: pre;" direction="ltr" dominant-baseline="text-before-edge">ReturnType</text></g><g stroke-linecap="round"><g transform="translate(1181.3851013183594 191.46954345703125) rotate(0 63.15142822265625 -83.45501708984375)"><path d="M0.4 -0.38 C9.64 -19.55, 35.14 -88.42, 56.06 -116.15 C76.97 -143.88, 114.15 -158.22, 125.88 -166.77 M-0.85 -1.63 C8.19 -21.06, 34.26 -90.75, 55.22 -118.04 C76.18 -145.34, 112.97 -157.28, 124.9 -165.37" stroke="#1e1e1e" stroke-width="2" fill="none"></path></g></g><mask></mask><g stroke-linecap="round"><g transform="translate(1178.7410583496094 195.56781005859375) rotate(0 70.05960083007812 -55.31292724609375)"><path d="M-0.88 0.95 C14.39 -14, 68.12 -72.01, 91.67 -90.76 C115.22 -109.51, 132.34 -108.35, 140.44 -111.54 M0.86 0.4 C16.48 -14.32, 70.62 -71.15, 93.79 -89.67 C116.95 -108.19, 132.04 -106.97, 139.84 -110.71" stroke="#1e1e1e" stroke-width="2" fill="none"></path></g></g><mask></mask><g stroke-linecap="round"><g transform="translate(1182.0050964355469 193.1707763671875) rotate(0 61.414276123046875 25.602935791015625)"><path d="M-1.07 0.85 C7.71 8.54, 32.83 36.73, 53.63 45.21 C74.44 53.69, 112.23 50.67, 123.77 51.74 M0.57 0.24 C9.17 7.65, 32.57 35.01, 53.05 43.25 C73.54 51.49, 111.81 48.06, 123.5 49.69" stroke="#1e1e1e" stroke-width="2" fill="none"></path></g></g><mask></mask><g transform="translate(1310.4848327636719 10) rotate(0 60.429969787597656 12.5)"><text x="0" y="0" font-family="Virgil, Segoe UI Emoji" font-size="20px" fill="#1e1e1e" text-anchor="start" style="white-space: pre;" direction="ltr" dominant-baseline="text-before-edge">keyof 操作符</text></g><g transform="translate(1336.4851989746094 76.9146728515625) rotate(0 51.85999298095703 12.5)"><text x="0" y="0" font-family="Virgil, Segoe UI Emoji" font-size="20px" fill="#1e1e1e" text-anchor="start" style="white-space: pre;" direction="ltr" dominant-baseline="text-before-edge">in 映射关系</text></g><g transform="translate(1331.4851989746094 237.9146728515625) rotate(0 36.43999481201172 12.5)"><text x="0" y="0" font-family="Virgil, Segoe UI Emoji" font-size="20px" fill="#1e1e1e" text-anchor="start" style="white-space: pre;" direction="ltr" dominant-baseline="text-before-edge">举一反N</text></g><g stroke-linecap="round"><g transform="translate(1415.3733825683594 246.14239501953125) rotate(0 48.56683349609375 -23.014556884765625)"><path d="M-0.09 -0.45 C5.97 -7.7, 20.78 -35.06, 36.94 -42.51 C53.1 -49.95, 86.96 -44.36, 96.86 -45.11 M-1.6 -1.73 C4.23 -8.77, 19.61 -36.53, 35.87 -44.07 C52.13 -51.61, 85.91 -46.58, 95.95 -46.97" stroke="#1e1e1e" stroke-width="2" fill="none"></path></g></g><mask></mask><g stroke-linecap="round"><g transform="translate(1413.2685241699219 249.208251953125) rotate(0 52.87554931640625 0.689483642578125)"><path d="M-0.09 -0.74 C17.26 -0.62, 87.68 1.16, 105.13 1.7 M-1.59 1.49 C16.06 1.15, 89.44 -0.13, 107.51 -0.25" stroke="#1e1e1e" stroke-width="2" fill="none"></path></g></g><mask></mask><g stroke-linecap="round"><g transform="translate(1412.4377136230469 250.091064453125) rotate(0 50.66119384765625 25.540496826171875)"><path d="M0.37 0.78 C6.58 8.7, 21.48 39.86, 38.2 48.38 C54.93 56.89, 90.13 51.36, 100.71 51.87 M-0.9 0.14 C5.12 7.66, 20.79 38.46, 37.55 46.76 C54.3 55.06, 88.86 48.94, 99.62 49.94" stroke="#1e1e1e" stroke-width="2" fill="none"></path></g></g><mask></mask><g transform="translate(1528.5992126464844 182) rotate(0 34.719970703125 12.5)"><text x="0" y="0" font-family="Virgil, Segoe UI Emoji" font-size="20px" fill="#1e1e1e" text-anchor="start" style="white-space: pre;" direction="ltr" dominant-baseline="text-before-edge">Partial</text></g><g transform="translate(1532.0846862792969 233.885986328125) rotate(0 41.03996276855469 12.5)"><text x="0" y="0" font-family="Virgil, Segoe UI Emoji" font-size="20px" fill="#1e1e1e" text-anchor="start" style="white-space: pre;" direction="ltr" dominant-baseline="text-before-edge">Required</text></g><g transform="translate(1531.7420349121094 286.6572265625) rotate(0 43.85997009277344 12.5)"><text x="0" y="0" font-family="Virgil, Segoe UI Emoji" font-size="20px" fill="#1e1e1e" text-anchor="start" style="white-space: pre;" direction="ltr" dominant-baseline="text-before-edge">ReadOnly</text></g><g stroke-linecap="round"><g transform="translate(1183.2620544433594 419.05035400390625) rotate(0 67.780517578125 -21.031265258789062)"><path d="M0.1 -0.11 C9.44 -5.05, 33.18 -22.82, 55.6 -29.69 C78.02 -36.56, 121.17 -39.45, 134.64 -41.34 M-1.3 -1.21 C7.98 -6.5, 32.02 -24.44, 55.08 -31.46 C78.14 -38.48, 123.39 -41.37, 137.05 -43.31" stroke="#1e1e1e" stroke-width="2" fill="none"></path></g></g><mask></mask><g stroke-linecap="round"><g transform="translate(1183.9007263183594 421.2855529785156) rotate(0 67.5975341796875 22.053207397460938)"><path d="M-1.15 -0.88 C10.08 5.41, 44.45 29.6, 67.02 37.25 C89.6 44.9, 122.87 43.76, 134.29 45.02 M0.45 1.27 C11.59 7.29, 43.58 28.64, 66.29 35.62 C89 42.61, 125.1 41.99, 136.71 43.15" stroke="#1e1e1e" stroke-width="2" fill="none"></path></g></g><mask></mask><g transform="translate(1333.5479431152344 362.2858581542969) rotate(0 82.99996185302734 12.5)"><text x="0" y="0" font-family="Virgil, Segoe UI Emoji" font-size="20px" fill="#1e1e1e" text-anchor="start" style="white-space: pre;" direction="ltr" dominant-baseline="text-before-edge">extends 条件判断</text></g><g transform="translate(1324.427719116211 454.2822365737841) rotate(0 36.43999481201172 12.5)"><text x="0" y="0" font-family="Virgil, Segoe UI Emoji" font-size="20px" fill="#1e1e1e" text-anchor="start" style="white-space: pre;" direction="ltr" dominant-baseline="text-before-edge">举一反N</text></g><g stroke-linecap="round"><g transform="translate(1408.315902709961 462.5099587417528) rotate(0 48.56683349609375 -23.014556884765625)"><path d="M-0.6 -1.18 C5.39 -8.6, 20.65 -36.44, 36.9 -43.92 C53.16 -51.4, 86.91 -45.79, 96.93 -46.08 M1.29 0.82 C7.01 -6.49, 20.02 -34.96, 35.82 -42.56 C51.61 -50.16, 85.83 -44.5, 96.06 -44.79" stroke="#1e1e1e" stroke-width="2" fill="none"></path></g></g><mask></mask><g stroke-linecap="round"><g transform="translate(1406.2110443115234 465.5758156753466) rotate(0 52.87554931640625 0.689483642578125)"><path d="M-0.26 -0.34 C17.43 0.08, 87.9 0.98, 105.55 1.33 M1.8 -1.56 C19.37 -0.84, 87.33 2.64, 104.5 2.84" stroke="#1e1e1e" stroke-width="2" fill="none"></path></g></g><mask></mask><g stroke-linecap="round"><g transform="translate(1405.3802337646484 466.4586281753466) rotate(0 50.66119384765625 25.54049682617186)"><path d="M-0.2 -0.05 C6.1 7.97, 20.47 39.22, 37.52 47.81 C54.57 56.4, 91.55 50.94, 102.1 51.46 M-1.77 -1.12 C4.39 6.56, 19.26 37.49, 36.51 45.9 C53.76 54.3, 91.03 48.3, 101.74 49.32" stroke="#1e1e1e" stroke-width="2" fill="none"></path></g></g><mask></mask><g transform="translate(1525.0272064208984 450.2535500503466) rotate(0 53.87995147705078 12.5)"><text x="0" y="0" font-family="Virgil, Segoe UI Emoji" font-size="20px" fill="#1e1e1e" text-anchor="start" style="white-space: pre;" direction="ltr" dominant-baseline="text-before-edge">NonNullable</text></g><g transform="translate(1524.684555053711 503.02479028472163) rotate(0 32.79997253417969 12.5)"><text x="0" y="0" font-family="Virgil, Segoe UI Emoji" font-size="20px" fill="#1e1e1e" text-anchor="start" style="white-space: pre;" direction="ltr" dominant-baseline="text-before-edge">Record</text></g><g transform="translate(1525.9992370605469 404.89013671875) rotate(0 39.64997100830078 12.5)"><text x="0" y="0" font-family="Virgil, Segoe UI Emoji" font-size="20px" fill="#1e1e1e" text-anchor="start" style="white-space: pre;" direction="ltr" dominant-baseline="text-before-edge">Extract</text></g><g stroke-linecap="round"><g transform="translate(1212.270324693001 736.1715748298608) rotate(0 48.56683349609375 -23.014556884765625)"><path d="M0.87 -1.09 C7.09 -8.33, 21.9 -36.48, 37.89 -43.96 C53.87 -51.45, 87.03 -45.82, 96.8 -46.02 M-0.13 0.95 C5.95 -6.07, 21.32 -35.02, 37.32 -42.63 C53.32 -50.24, 86.01 -43.92, 95.86 -44.71" stroke="#1e1e1e" stroke-width="2" fill="none"></path></g></g><mask></mask><g stroke-linecap="round"><g transform="translate(1210.1654662945634 739.2374317634545) rotate(0 52.87554931640625 0.689483642578125)"><path d="M0.72 -0.38 C18.15 0.03, 88.02 0.95, 105.42 1.38 M-0.36 -1.63 C16.81 -0.92, 86.9 2.6, 104.29 2.92" stroke="#1e1e1e" stroke-width="2" fill="none"></path></g></g><mask></mask><g stroke-linecap="round"><g transform="translate(1209.3346557476884 740.1202442634545) rotate(0 50.66119384765625 25.540496826171875)"><path d="M-0.34 0 C5.71 8.11, 19.94 39.59, 37 48.23 C54.06 56.88, 91.14 51.49, 102.04 51.86 M1.69 -1.04 C8.07 6.76, 22.71 38.05, 39.37 46.54 C56.03 55.04, 91.62 49.14, 101.66 49.93" stroke="#1e1e1e" stroke-width="2" fill="none"></path></g></g><mask></mask><g transform="translate(1328.9816284039384 723.6865894782983) rotate(0 37.09999084472656 12.5)"><text x="0" y="0" font-family="Virgil, Segoe UI Emoji" font-size="20px" fill="#1e1e1e" text-anchor="start" style="white-space: pre;" direction="ltr" dominant-baseline="text-before-edge">as 语法</text></g><g transform="translate(1328.638977036751 776.4578297126734) rotate(0 36.43999481201172 12.5)"><text x="0" y="0" font-family="Virgil, Segoe UI Emoji" font-size="20px" fill="#1e1e1e" text-anchor="start" style="white-space: pre;" direction="ltr" dominant-baseline="text-before-edge">举一反N</text></g><g transform="translate(1329.9536590435869 678.551752806858) rotate(0 77.99996185302734 12.5)"><text x="0" y="0" font-family="Virgil, Segoe UI Emoji" font-size="20px" fill="#1e1e1e" text-anchor="start" style="white-space: pre;" direction="ltr" dominant-baseline="text-before-edge">extends语法巩固</text></g><g stroke-linecap="round"><g transform="translate(1411.9793395996094 790.65283203125) rotate(0 46.30078125 -0.5086669921875)"><path d="M-0.5 0.34 C15.14 0.15, 78.26 -0.62, 93.8 -0.92 M1.43 -0.53 C17.03 -0.52, 78.39 0.64, 93.48 0.66" stroke="#1e1e1e" stroke-width="2" fill="none"></path></g></g><mask></mask><g transform="translate(1520.3594360351562 778.251953125) rotate(0 76.10992431640625 12.5)"><text x="0" y="0" font-family="Virgil, Segoe UI Emoji" font-size="20px" fill="#1e1e1e" text-anchor="start" style="white-space: pre;" direction="ltr" dominant-baseline="text-before-edge">CustomRequired</text></g><g stroke-linecap="round"><g transform="translate(1192.6734611531858 966.1334935893656) rotate(0 67.780517578125 -21.031265258789062)"><path d="M1.03 -1.11 C10 -5.91, 31.29 -22.82, 53.72 -29.56 C76.16 -36.29, 121.97 -39.32, 135.63 -41.52 M0.11 0.92 C9.46 -4.14, 33.41 -23.84, 55.88 -31.25 C78.34 -38.67, 121.55 -41.78, 134.91 -43.58" stroke="#1e1e1e" stroke-width="2" fill="none"></path></g></g><mask></mask><g stroke-linecap="round"><g transform="translate(1193.3121330281858 968.368692563975) rotate(0 67.5975341796875 22.053207397460938)"><path d="M-1.06 0.81 C9.88 7.13, 43.95 29.74, 66.68 36.83 C89.41 43.92, 123.84 42.25, 135.32 43.36 M0.58 0.19 C11.28 6.25, 43.43 27.64, 65.77 34.99 C88.11 42.34, 122.92 42.74, 134.63 44.28" stroke="#1e1e1e" stroke-width="2" fill="none"></path></g></g><mask></mask><g transform="translate(1333.8391258260374 1001.3653761592434) rotate(0 36.43999481201172 12.5)"><text x="0" y="0" font-family="Virgil, Segoe UI Emoji" font-size="20px" fill="#1e1e1e" text-anchor="start" style="white-space: pre;" direction="ltr" dominant-baseline="text-before-edge">举一反N</text></g><g transform="translate(1349.3601684570312 912.9976196289062) rotate(0 21.489974975585938 12.5)"><text x="0" y="0" font-family="Virgil, Segoe UI Emoji" font-size="20px" fill="#1e1e1e" text-anchor="start" style="white-space: pre;" direction="ltr" dominant-baseline="text-before-edge">infer</text></g><g stroke-linecap="round"><g transform="translate(1411.5061027547483 1012.8145238628031) rotate(0 67.780517578125 -21.031265258789062)"><path d="M0.65 0.31 C9.87 -4.9, 32.4 -23.26, 54.84 -30.23 C77.29 -37.2, 121.78 -39.54, 135.32 -41.51 M-0.46 -0.58 C8.64 -5.05, 31.44 -21.46, 53.93 -28.63 C76.41 -35.79, 120.64 -41.52, 134.43 -43.56" stroke="#1e1e1e" stroke-width="2" fill="none"></path></g></g><mask></mask><g stroke-linecap="round"><g transform="translate(1412.1447746297483 1015.0497228374124) rotate(0 67.5975341796875 22.053207397460938)"><path d="M0.06 0.13 C11.01 6.22, 43.75 29.51, 66.37 36.85 C88.98 44.18, 124.4 42.82, 135.74 44.15 M-1.37 -0.84 C9.35 4.86, 42.52 27.29, 65.29 35.02 C88.06 42.74, 123.78 44.21, 135.26 45.49" stroke="#1e1e1e" stroke-width="2" fill="none"></path></g></g><mask></mask><g transform="translate(1552.6717674276 1048.046406432681) rotate(0 56.89994812011719 12.5)"><text x="0" y="0" font-family="Virgil, Segoe UI Emoji" font-size="20px" fill="#1e1e1e" text-anchor="start" style="white-space: pre;" direction="ltr" dominant-baseline="text-before-edge">Parameters</text></g><g transform="translate(1554.3601684570312 956.9966430664062) rotate(0 59.109947204589844 12.5)"><text x="0" y="0" font-family="Virgil, Segoe UI Emoji" font-size="20px" fill="#1e1e1e" text-anchor="start" style="white-space: pre;" direction="ltr" dominant-baseline="text-before-edge">子FilterType</text></g></svg>