<svg version="1.1" xmlns="http://www.w3.org/2000/svg" viewBox="0 0 1112.3147277832031 679.9006652832031" width="1112.3147277832031" height="679.9006652832031">
  <!-- svg-source:excalidraw -->
  
  <defs>
    <style class="style-fonts">
      @font-face {
        font-family: "Virgil";
        src: url("https://excalidraw.com/Virgil.woff2");
      }
      @font-face {
        font-family: "Cascadia";
        src: url("https://excalidraw.com/Cascadia.woff2");
      }
      @font-face {
        font-family: "Assistant";
        src: url("https://excalidraw.com/Assistant-Regular.woff2");
      }
    </style>
    
  </defs>
  <g stroke-linecap="round" transform="translate(10 362.4981384277344) rotate(0 108.2144775390625 27.655426025390625)"><path d="M2.39 2.19 L212.99 1.26 L217.53 54.02 L-0.73 53.56" stroke="none" stroke-width="0" fill="#69db7c"></path><path d="M0.71 2.95 C72.67 5.72, 136.08 1.97, 213.46 -2.36 M-0.61 -1.57 C59.08 -0.6, 118.63 -1.85, 217.06 0.95 M219.47 3.5 C212.98 23.32, 213.53 44.6, 215.08 58.9 M215.1 -1.39 C217.36 13.33, 216.29 23.75, 215.85 55.23 M212.97 57.92 C135.98 53.58, 54.34 57.15, -0.14 56.28 M215.65 54.44 C140 53.87, 59.36 54.73, 0.98 54.18 M-2.86 57.83 C3.45 39.31, -0.23 25.88, -1.24 -3.82 M-1.89 56.95 C-0.02 37.54, 1.27 20.8, -0.5 -0.89" stroke="#1e1e1e" stroke-width="2" fill="none"></path></g><g transform="translate(52.5894775390625 380.553564453125) rotate(0 65.625 9.600000000000001)"><text x="65.625" y="0" font-family="Cascadia, Segoe UI Emoji" font-size="16px" fill="#ffffff" text-anchor="middle" style="white-space: pre;" direction="ltr" dominant-baseline="text-before-edge">Vue Components</text></g><g stroke-linecap="round" transform="translate(330.75653076171875 10) rotate(0 113.19876098632807 26.282974243164062)"><path d="M-1.76 2.99 L227.74 2.23 L223.52 50.89 L1.17 52.92" stroke="none" stroke-width="0" fill="#868e96"></path><path d="M0.5 0 C47.99 -7.03, 100.05 -4.61, 227.16 -3.21 M-1.01 0.39 C86.98 -2.12, 173.64 -4.43, 225.82 -0.3 M224.69 1.88 C225.04 13.99, 225.77 28.18, 225.72 55.25 M226.87 -0.05 C226.96 19.79, 224.36 37.94, 225.43 53.04 M224.68 50.45 C175.27 51.5, 126.18 53.99, -1.66 54.94 M226.38 52.33 C173.41 55.9, 124.8 54.69, -1.5 53.68 M0.7 49.43 C1.51 36.97, -1.44 23.59, -3.74 3.43 M1.35 52.62 C0.2 36.44, -2.46 17.49, 0.06 0.73" stroke="#1e1e1e" stroke-width="2" fill="none"></path></g><g transform="translate(392.39279174804676 26.68297424316404) rotate(0 51.5625 9.599999999999994)"><text x="51.5625" y="0" font-family="Cascadia, Segoe UI Emoji" font-size="16px" fill="#ffffff" text-anchor="middle" style="white-space: pre;" direction="ltr" dominant-baseline="text-before-edge">Backend API</text></g><g stroke-linecap="round" transform="translate(946.3188171386718 355.0209503173828) rotate(0 77.99795532226562 27.883010864257812)"><path d="M-3.06 3.91 L156.76 3.75 L154.2 58.74 L-0.91 56.84" stroke="none" stroke-width="0" fill="#868e96"></path><path d="M2.65 0.39 C61.06 5.97, 118.71 0.04, 152.43 -2.86 M-1.64 -0.27 C56.01 -1.71, 115.02 -3.55, 157.92 0.59 M155.9 1.37 C157.72 13.42, 154.11 27.47, 158.3 51.99 M156 0.12 C155.13 20.83, 154.02 44.31, 154.36 55.08 M154.61 56.6 C105.85 53.49, 60.38 48.7, 2.58 57.95 M157.16 56.54 C101.71 56, 48.12 59.06, 0.81 54.38 M3.1 59.29 C-0.17 39.8, -1.65 26.03, 0.96 3.49 M-1.16 56.64 C-0.22 41.31, -1.01 23.93, -1.21 0.58" stroke="#1e1e1e" stroke-width="2" fill="none"></path></g><g transform="translate(986.8167724609374 373.3039611816406) rotate(0 37.5 9.600000000000001)"><text x="37.5" y="0" font-family="Cascadia, Segoe UI Emoji" font-size="16px" fill="#ffffff" text-anchor="middle" style="white-space: pre;" direction="ltr" dominant-baseline="text-before-edge">Devtools</text></g><g stroke-linecap="round" transform="translate(369.6605224609375 179.19509887695312) rotate(0 59.204376220703125 57.77510070800781)"><path d="M52.27 -1.63 C60.79 -3.07, 72.67 1.64, 81.35 5.49 C90.03 9.34, 98.63 15.01, 104.36 21.46 C110.08 27.9, 113.7 35.69, 115.7 44.17 C117.71 52.64, 118.38 63.74, 116.4 72.28 C114.43 80.83, 110.43 88.73, 103.84 95.44 C97.25 102.16, 85.48 109.47, 76.87 112.56 C68.26 115.64, 60.96 115.54, 52.18 113.96 C43.4 112.38, 32.11 108.5, 24.21 103.09 C16.3 97.67, 9 89.13, 4.76 81.45 C0.51 73.77, -1.86 65.94, -1.24 57 C-0.63 48.07, 3.87 35.73, 8.44 27.85 C13 19.97, 14.48 13.86, 26.13 9.74 C37.79 5.62, 65.53 1.75, 78.36 3.11 C91.18 4.46, 102.82 17.09, 103.09 17.86 M92.93 13.59 C100.91 18.1, 111.34 26.85, 115.19 34.79 C119.03 42.72, 116.81 52.64, 116.01 61.19 C115.2 69.73, 113.91 79.01, 110.37 86.05 C106.82 93.08, 102.13 98.22, 94.73 103.41 C87.34 108.59, 75.17 115.42, 66.02 117.14 C56.88 118.87, 48.44 117.52, 39.86 113.75 C31.28 109.97, 21.04 101.63, 14.53 94.49 C8.02 87.34, 2.54 79.7, 0.79 70.88 C-0.97 62.06, 0.99 50.6, 3.98 41.55 C6.96 32.5, 12.34 22.55, 18.69 16.6 C25.04 10.64, 33.55 8.4, 42.1 5.84 C50.65 3.29, 61.45 -0.08, 69.98 1.25 C78.52 2.58, 89.31 11.86, 93.31 13.81 C97.31 15.75, 94.42 12.55, 93.97 12.92" stroke="none" stroke-width="0" fill="#fab005"></path><path d="M99.15 14.4 C106.56 19.14, 113.72 28.44, 116.95 36.87 C120.17 45.31, 119.94 56, 118.52 65 C117.1 73.99, 113.85 83.31, 108.43 90.84 C103.02 98.36, 94.44 105.86, 86.04 110.14 C77.63 114.42, 67.29 117, 58.02 116.53 C48.75 116.07, 38.71 111.97, 30.41 107.35 C22.11 102.73, 13.43 95.95, 8.22 88.8 C3.01 81.65, -0.41 73.4, -0.83 64.45 C-1.25 55.51, 1.97 43.47, 5.71 35.13 C9.46 26.79, 15.02 20.25, 21.67 14.41 C28.31 8.56, 36.73 2.17, 45.56 0.05 C54.4 -2.06, 64.1 -3.01, 74.66 1.72 C85.23 6.46, 102.48 22.24, 108.93 28.45 C115.37 34.65, 113.91 38.49, 113.34 38.96 M59.9 0.1 C68.89 -0.51, 77.2 2.32, 85.43 6.3 C93.67 10.29, 103.41 16.85, 109.32 24.02 C115.22 31.19, 119.91 40.58, 120.87 49.33 C121.83 58.07, 118.48 67.89, 115.08 76.51 C111.69 85.14, 106.96 95.35, 100.5 101.08 C94.05 106.81, 85.6 108.9, 76.36 110.9 C67.12 112.9, 54.75 114.84, 45.05 113.08 C35.35 111.33, 24.96 106.41, 18.18 100.37 C11.39 94.33, 6.84 84.75, 4.33 76.86 C1.82 68.96, 1.9 61.11, 3.1 52.99 C4.3 44.86, 6.85 35.49, 11.54 28.1 C16.22 20.71, 23.46 12.9, 31.22 8.64 C38.99 4.37, 53.77 3.5, 58.14 2.51 C62.51 1.52, 56.93 1.87, 57.44 2.7" stroke="#1e1e1e" stroke-width="2" fill="none"></path></g><g transform="translate(396.1885827800619 227.51703409059292) rotate(0 32.8125 9.600000000000001)"><text x="32.8125" y="0" font-family="Cascadia, Segoe UI Emoji" font-size="16px" fill="#ffffff" text-anchor="middle" style="white-space: pre;" direction="ltr" dominant-baseline="text-before-edge">Actions</text></g><g stroke-linecap="round" transform="translate(368.9959716796875 516.4726104736328) rotate(0 66.06167602539057 60.40373229980469)"><path d="M21.66 17.22 C27.81 10.53, 37.94 5.36, 47.74 2.51 C57.54 -0.33, 70.03 -2.1, 80.45 0.14 C90.86 2.38, 102.44 9.51, 110.22 15.96 C118.01 22.4, 123.59 30.45, 127.14 38.83 C130.69 47.2, 132.71 56.96, 131.52 66.19 C130.32 75.42, 125.43 86.55, 119.98 94.2 C114.53 101.84, 107.4 107.69, 98.83 112.05 C90.26 116.4, 79.07 120.19, 68.56 120.32 C58.06 120.46, 45.1 117.25, 35.8 112.88 C26.5 108.5, 18.6 101.66, 12.78 94.07 C6.96 86.47, 2.59 76.49, 0.88 67.3 C-0.84 58.11, -7.04 50.39, 2.47 38.92 C11.98 27.44, 42.34 3.54, 57.92 -1.54 C73.5 -6.63, 96.04 7.38, 95.94 8.38 M67.51 0.48 C77.26 -0.47, 90.4 1.88, 99.16 6.26 C107.93 10.64, 114.69 18.98, 120.09 26.77 C125.49 34.57, 130.38 43.34, 131.56 53 C132.74 62.67, 131.31 76.29, 127.17 84.76 C123.02 93.24, 114.01 98.11, 106.7 103.84 C99.39 109.57, 93.12 116.17, 83.3 119.14 C73.48 122.12, 57.91 124.05, 47.76 121.68 C37.62 119.31, 29.26 111.12, 22.43 104.92 C15.6 98.72, 10.3 93.45, 6.8 84.48 C3.3 75.51, 0.19 61, 1.42 51.1 C2.66 41.19, 8.18 32.17, 14.22 25.06 C20.26 17.95, 28.59 13.06, 37.65 8.41 C46.71 3.77, 63.48 -1.45, 68.58 -2.8 C73.67 -4.15, 68.97 -1.43, 68.21 0.33" stroke="none" stroke-width="0" fill="#9775fa"></path><path d="M30.44 7.7 C38.48 1.87, 50.96 -0.8, 61.32 -1.06 C71.68 -1.32, 83.19 2.41, 92.61 6.14 C102.04 9.87, 111.58 14.31, 117.86 21.32 C124.13 28.32, 128.38 39.08, 130.26 48.17 C132.14 57.25, 131.88 67.01, 129.15 75.83 C126.41 84.66, 120.58 93.94, 113.84 101.13 C107.1 108.31, 98.43 115.72, 88.7 118.94 C78.97 122.16, 66.08 121.81, 55.46 120.44 C44.83 119.08, 32.76 116.49, 24.95 110.75 C17.13 105.01, 12.41 94.86, 8.56 85.99 C4.71 77.12, 1.85 66.58, 1.86 57.55 C1.86 48.51, -1.52 41.41, 8.62 31.79 C18.75 22.17, 47.99 3.64, 62.65 -0.15 C77.3 -3.95, 96.2 8.25, 96.55 9.01 M114.38 21.35 C122.38 26.99, 129.59 36.26, 131.97 44.51 C134.36 52.77, 131.27 61.92, 128.71 70.88 C126.15 79.83, 123.18 90.57, 116.62 98.24 C110.05 105.92, 98.99 113.5, 89.34 116.94 C79.68 120.39, 68.47 119.69, 58.7 118.91 C48.92 118.14, 38.62 117.55, 30.69 112.28 C22.77 107, 16.35 96.07, 11.15 87.26 C5.96 78.44, 0.21 68.25, -0.5 59.39 C-1.21 50.53, 2.29 41.83, 6.9 34.08 C11.51 26.32, 18.91 18.6, 27.14 12.85 C35.38 7.09, 45.97 1.54, 56.29 -0.47 C66.61 -2.47, 79.17 -2.82, 89.07 0.81 C98.96 4.44, 111.48 18.59, 115.67 21.29 C119.86 23.99, 115.37 16.62, 114.23 17.02" stroke="#1e1e1e" stroke-width="2" fill="none"></path></g><g transform="translate(411.40748861097563 567.0644540552687) rotate(0 23.4375 9.599999999999994)"><text x="23.4375" y="0" font-family="Cascadia, Segoe UI Emoji" font-size="16px" fill="#ffffff" text-anchor="middle" style="white-space: pre;" direction="ltr" dominant-baseline="text-before-edge">State</text></g><g stroke-linecap="round" transform="translate(667.0495605468749 328.0634002685547) rotate(0 67.8902587890625 62.80378723144531)"><path d="M116.21 17.94 C124.29 24.08, 131.06 36.99, 134.01 46.66 C136.97 56.32, 136.24 66.76, 133.93 75.94 C131.62 85.13, 126.9 94.32, 120.17 101.77 C113.43 109.22, 102.92 116.96, 93.51 120.64 C84.1 124.31, 73.76 124.73, 63.72 123.84 C53.69 122.95, 42.43 120.5, 33.28 115.32 C24.14 110.14, 14.27 101.32, 8.85 92.77 C3.43 84.22, 1.07 73.69, 0.75 64.01 C0.43 54.34, 2.79 43.43, 6.94 34.74 C11.09 26.05, 17.33 17.84, 25.66 11.85 C33.98 5.86, 46.4 0.24, 56.89 -1.19 C67.37 -2.61, 76.37 -3.48, 88.57 3.3 C100.77 10.08, 122.46 28.64, 130.08 39.49 C137.69 50.35, 135.08 67.63, 134.27 68.44 M78.14 1.26 C87.78 1.88, 100.04 5.94, 108.45 12.13 C116.86 18.33, 124.54 29.94, 128.6 38.46 C132.66 46.97, 132.8 53.97, 132.78 63.24 C132.76 72.52, 133.58 84.91, 128.46 94.12 C123.35 103.33, 111.18 113.38, 102.09 118.5 C92.99 123.63, 83.56 124.03, 73.89 124.87 C64.21 125.71, 53.62 127.54, 44.03 123.54 C34.43 119.54, 23.01 109, 16.3 100.86 C9.59 92.72, 5.7 83.65, 3.76 74.68 C1.83 65.72, 1.79 56.76, 4.67 47.08 C7.55 37.4, 13.82 24.04, 21.06 16.6 C28.3 9.15, 38.9 4.74, 48.13 2.4 C57.35 0.06, 71.69 2.55, 76.39 2.56 C81.09 2.57, 76.31 1.88, 76.31 2.43" stroke="none" stroke-width="0" fill="#e03131"></path><path d="M12.37 29.95 C16.97 21.86, 27.01 12.43, 35.92 7.52 C44.83 2.61, 55.58 0.77, 65.83 0.47 C76.07 0.17, 87.96 1.59, 97.4 5.71 C106.84 9.83, 116.01 16.95, 122.46 25.19 C128.92 33.43, 134.67 45.35, 136.14 55.14 C137.61 64.93, 135.26 74.72, 131.27 83.94 C127.27 93.16, 119.45 104.03, 112.17 110.46 C104.9 116.9, 97.16 120.43, 87.64 122.53 C78.13 124.63, 65.66 124.87, 55.1 123.09 C44.53 121.31, 32.67 118.01, 24.23 111.87 C15.79 105.74, 8.42 95.34, 4.46 86.3 C0.49 77.27, -4.21 70.67, 0.45 57.67 C5.12 44.66, 22.6 17.71, 32.45 8.27 C42.3 -1.17, 58.95 -0.17, 59.54 1.03 M115.05 17.36 C122.24 23.21, 130.03 34.96, 132.89 44.79 C135.76 54.63, 134.59 66.98, 132.24 76.35 C129.9 85.73, 125.08 93.47, 118.82 101.04 C112.56 108.6, 103.69 118.18, 94.68 121.75 C85.67 125.33, 75.4 123.96, 64.77 122.47 C54.13 120.98, 40.12 117.56, 30.87 112.82 C21.62 108.08, 14.35 101.81, 9.27 94.03 C4.18 86.25, 0.76 76.06, 0.38 66.14 C-0.01 56.22, 2.2 43.87, 6.95 34.51 C11.7 25.16, 20.22 15.24, 28.86 10.01 C37.51 4.78, 48.51 4.72, 58.82 3.15 C69.13 1.58, 81.1 -2.25, 90.72 0.57 C100.34 3.4, 111.96 16.64, 116.54 20.1 C121.13 23.57, 119.35 20.62, 118.24 21.37" stroke="#1e1e1e" stroke-width="2" fill="none"></path></g><g transform="translate(692.7466569696816 381.3582036644479) rotate(0 42.1875 9.600000000000001)"><text x="42.1875" y="0" font-family="Cascadia, Segoe UI Emoji" font-size="16px" fill="#ffffff" text-anchor="middle" style="white-space: pre;" direction="ltr" dominant-baseline="text-before-edge">Mutations</text></g><g stroke-linecap="round"><g transform="translate(440.01139649438517 102.91888427734375) rotate(0 -1.4462079957860396 -18.971893310546875)"><path d="M-1.68 0.5 C-2.76 -8.82, -3.03 -20.2, -1.37 -38.66" stroke="#1e1e1e" stroke-width="2.5" fill="none" stroke-dasharray="8 10"></path></g><g transform="translate(440.01139649438517 102.91888427734375) rotate(0 -1.4462079957860396 -18.971893310546875)"><path d="M2.32 -19.91 C0.66 -23.83, -0.31 -29.68, 0.07 -39.35" stroke="#1e1e1e" stroke-width="2.5" fill="none"></path></g><g transform="translate(440.01139649438517 102.91888427734375) rotate(0 -1.4462079957860396 -18.971893310546875)"><path d="M-10.66 -20.79 C-8.7 -24.37, -6.05 -29.98, 0.07 -39.35" stroke="#1e1e1e" stroke-width="2.5" fill="none"></path></g></g><mask></mask><g stroke-linecap="round"><g transform="translate(435.0953674316405 112.71745437543879) rotate(0 1.6818072302316978 34.07705418239921)"><path d="M-0.09 -1.35 C-0.97 23.3, 0.07 49.97, 0.85 64.57" stroke="#1e1e1e" stroke-width="2.5" fill="none" stroke-dasharray="8 10"></path></g><g transform="translate(435.0953674316405 112.71745437543879) rotate(0 1.6818072302316978 34.07705418239921)"><path d="M-8.79 40.81 C-6.16 48.86, -2.58 57.93, -0.4 62.78" stroke="#1e1e1e" stroke-width="2.5" fill="none"></path></g><g transform="translate(435.0953674316405 112.71745437543879) rotate(0 1.6818072302316978 34.07705418239921)"><path d="M8.3 40.04 C4.3 48.43, 1.26 57.8, -0.4 62.78" stroke="#1e1e1e" stroke-width="2.5" fill="none"></path></g></g><mask></mask><g stroke-linecap="round"><g transform="translate(114.93878173828125 358.6698913574219) rotate(0 123.87548828125 -58.46961975097656)"><path d="M-0.79 2.54 C3.74 -16.32, -17.04 -91.55, 24.77 -111.9 C66.57 -132.25, 213.18 -118.33, 250.02 -119.56 M3.97 1.46 C9.59 -18.36, -10.97 -96.31, 29.95 -116.2 C70.86 -136.09, 213.55 -117.59, 249.44 -117.87" stroke="#1e1e1e" stroke-width="2" fill="none"></path></g><g transform="translate(114.93878173828125 358.6698913574219) rotate(0 123.87548828125 -58.46961975097656)"><path d="M227.3 -112.33 C231.46 -110.55, 233.73 -115.08, 247.78 -119.21 M226.4 -111.39 C232.94 -112.27, 241.66 -115.42, 249.08 -117.16" stroke="#1e1e1e" stroke-width="2" fill="none"></path></g><g transform="translate(114.93878173828125 358.6698913574219) rotate(0 123.87548828125 -58.46961975097656)"><path d="M228.31 -129.4 C232.33 -124.01, 234.39 -124.92, 247.78 -119.21 M227.41 -128.46 C233.59 -123.58, 241.97 -120.96, 249.08 -117.16" stroke="#1e1e1e" stroke-width="2" fill="none"></path></g></g><mask></mask><g transform="translate(191.4263916015625 207.25436401367188) rotate(0 37.5 9.599999999999994)"><text x="0" y="0" font-family="Cascadia, Segoe UI Emoji" font-size="16px" fill="#1e1e1e" text-anchor="start" style="white-space: pre;" direction="ltr" dominant-baseline="text-before-edge">Dispatch</text></g><g stroke-linecap="round"><g transform="translate(495.70416259765625 235.67465209960938) rotate(0 115.03436466684246 44.87146793048641)"><path d="M-1.92 -0.16 C32.35 0.49, 166.51 -12.91, 205.27 1.65 C244.04 16.2, 226.39 72.19, 230.69 87.17 M2.24 -2.71 C37.45 -1.46, 172.95 -10.45, 210.78 4.82 C248.61 20.08, 225.65 75.28, 229.21 88.89" stroke="#1e1e1e" stroke-width="2" fill="none"></path></g><g transform="translate(495.70416259765625 235.67465209960938) rotate(0 115.03436466684246 44.87146793048641)"><path d="M222.33 63.64 C223.6 72.25, 224.32 79.46, 230.49 87.93 M223.13 64.58 C224.47 69.4, 226.22 75.29, 228.24 89.28" stroke="#1e1e1e" stroke-width="2" fill="none"></path></g><g transform="translate(495.70416259765625 235.67465209960938) rotate(0 115.03436466684246 44.87146793048641)"><path d="M239.38 64.92 C235.75 73.04, 231.55 79.88, 230.49 87.93 M240.19 65.86 C237.68 70.5, 235.57 76.1, 228.24 89.28" stroke="#1e1e1e" stroke-width="2" fill="none"></path></g></g><mask></mask><g transform="translate(598.4263916015624 199.25436401367188) rotate(0 28.125 9.599999999999994)"><text x="0" y="0" font-family="Cascadia, Segoe UI Emoji" font-size="16px" fill="#1e1e1e" text-anchor="start" style="white-space: pre;" direction="ltr" dominant-baseline="text-before-edge">Commit</text></g><g stroke-linecap="round"><g transform="translate(737.7990112304686 456.2083435058594) rotate(0 -117.68200683593744 63.693023681640625)"><path d="M-1.72 -1.54 C-6.31 17.6, 11.15 93.94, -27.74 115.2 C-66.63 136.45, -200.29 124.07, -235.06 125.97 M2.53 3.8 C-2.51 23.34, 9.26 97.78, -30.61 118.53 C-70.48 139.28, -202.41 126.6, -236.7 128.31" stroke="#1e1e1e" stroke-width="2" fill="none"></path></g><g transform="translate(737.7990112304686 456.2083435058594) rotate(0 -117.68200683593744 63.693023681640625)"><path d="M-214.14 119.41 C-220.32 122.67, -227.85 124.08, -237.24 129.13 M-214.03 119.73 C-219.22 122.35, -224.03 124.92, -235.86 128.69" stroke="#1e1e1e" stroke-width="2" fill="none"></path></g><g transform="translate(737.7990112304686 456.2083435058594) rotate(0 -117.68200683593744 63.693023681640625)"><path d="M-214.48 136.51 C-220.59 134.78, -228.02 131.2, -237.24 129.13 M-214.37 136.83 C-219.6 135.66, -224.33 134.44, -235.86 128.69" stroke="#1e1e1e" stroke-width="2" fill="none"></path></g></g><mask></mask><g transform="translate(583.2550048828124 554.6075134277344) rotate(0 28.125 9.599999999999994)"><text x="0" y="0" font-family="Cascadia, Segoe UI Emoji" font-size="16px" fill="#1e1e1e" text-anchor="start" style="white-space: pre;" direction="ltr" dominant-baseline="text-before-edge">Mutate</text></g><g stroke-linecap="round"><g transform="translate(369.68896484375 584.0894470214844) rotate(0 -127.95846557617188 -80.31796264648438)"><path d="M1.14 2.5 C-36.38 1.87, -183.09 20.98, -225.7 -6.49 C-268.3 -33.96, -249.68 -136.45, -254.51 -162.33 M-1.68 1.38 C-39.35 0.17, -184.55 16.22, -226.86 -10.7 C-269.17 -37.62, -251.12 -135.29, -255.55 -160.14" stroke="#1e1e1e" stroke-width="2" fill="none"></path></g><g transform="translate(369.68896484375 584.0894470214844) rotate(0 -127.95846557617188 -80.31796264648438)"><path d="M-245.12 -135.26 C-248.06 -142.21, -252.73 -148.9, -256.37 -158.9 M-246.5 -137.4 C-249.15 -145.17, -252.05 -152.73, -255.83 -159.81" stroke="#1e1e1e" stroke-width="2" fill="none"></path></g><g transform="translate(369.68896484375 584.0894470214844) rotate(0 -127.95846557617188 -80.31796264648438)"><path d="M-262.22 -135.19 C-260.36 -142.23, -260.24 -148.94, -256.37 -158.9 M-263.6 -137.34 C-260.71 -145.12, -258.07 -152.7, -255.83 -159.81" stroke="#1e1e1e" stroke-width="2" fill="none"></path></g></g><mask></mask><g transform="translate(222.36865234375 555.8012390136719) rotate(0 28.125 9.599999999999994)"><text x="0" y="0" font-family="Cascadia, Segoe UI Emoji" font-size="16px" fill="#1e1e1e" text-anchor="start" style="white-space: pre;" direction="ltr" dominant-baseline="text-before-edge">Render</text></g><g stroke-linecap="round"><g transform="translate(909.6918152824604 426.71308072495367) rotate(89.59032204880118 -0.4551491659901785 -39.19060379469483)"><path d="M2.41 2.5 C-0.53 -17.79, 1.76 -35, -0.59 -74.87" stroke="#1e1e1e" stroke-width="2.5" fill="none" stroke-dasharray="8 10"></path></g><g transform="translate(909.6918152824604 426.71308072495367) rotate(89.59032204880118 -0.4551491659901785 -39.19060379469483)"><path d="M10.03 -50.47 C6.82 -57.15, 6 -62.22, -0.44 -73.12" stroke="#1e1e1e" stroke-width="2.5" fill="none"></path></g><g transform="translate(909.6918152824604 426.71308072495367) rotate(89.59032204880118 -0.4551491659901785 -39.19060379469483)"><path d="M-7.06 -49.83 C-6.5 -56.51, -3.56 -61.72, -0.44 -73.12" stroke="#1e1e1e" stroke-width="2.5" fill="none"></path></g></g><mask></mask><g stroke-linecap="round"><g transform="translate(842.086303252276 357.84934244933305) rotate(89.59032204880118 -0.41648484109646233 30.43889704072138)"><path d="M0.36 -0.51 C3.41 12.77, 0.69 29.92, -0.72 64.23" stroke="#1e1e1e" stroke-width="2.5" fill="none" stroke-dasharray="8 10"></path></g><g transform="translate(842.086303252276 357.84934244933305) rotate(89.59032204880118 -0.41648484109646233 30.43889704072138)"><path d="M-7.82 40.06 C-4.85 45.23, -4.54 52.39, -0.67 65.9" stroke="#1e1e1e" stroke-width="2.5" fill="none"></path></g><g transform="translate(842.086303252276 357.84934244933305) rotate(89.59032204880118 -0.41648484109646233 30.43889704072138)"><path d="M9.26 40.97 C8.52 46.05, 5.12 53.02, -0.67 65.9" stroke="#1e1e1e" stroke-width="2.5" fill="none"></path></g></g><mask></mask><g stroke-linecap="round" transform="translate(266.0628662109375 114.0693359375) rotate(0 288.4744262695312 277.91566467285156)"><path d="M32 0 C197.56 2.89, 363.07 1.6, 544.95 0 M544.95 0 C570 2.12, 573.87 13.58, 576.95 32 M576.95 32 C581.83 177.79, 581.72 324.96, 576.95 523.83 M576.95 523.83 C573.1 547.29, 568.4 558.8, 544.95 555.83 M544.95 555.83 C369.98 553.64, 193.66 552.91, 32 555.83 M32 555.83 C10.15 556.6, 0.9 542.94, 0 523.83 M0 523.83 C3.59 350.76, 1.11 180.51, 0 32 M0 32 C2.65 12.04, 8.89 -0.1, 32 0" stroke="#2f9e44" stroke-width="2.5" fill="none" stroke-dasharray="8 10"></path></g><g transform="translate(609.4263916015624 95.25436401367188) rotate(0 18.75 9.599999999999994)"><text x="0" y="0" font-family="Cascadia, Segoe UI Emoji" font-size="16px" fill="#1e1e1e" text-anchor="start" style="white-space: pre;" direction="ltr" dominant-baseline="text-before-edge">Vuex</text></g></svg>