<svg version="1.1" xmlns="http://www.w3.org/2000/svg" viewBox="0 0 1032.5575866699214 1891.888671875" width="1032.5575866699214" height="1891.888671875">
  <!-- svg-source:excalidraw -->
  
  <defs>
    <style class="style-fonts">
      @font-face {
        font-family: "Virgil";
        src: url("https://excalidraw.com/Virgil.woff2");
      }
      @font-face {
        font-family: "Cascadia";
        src: url("https://excalidraw.com/Cascadia.woff2");
      }
      @font-face {
        font-family: "Assistant";
        src: url("https://excalidraw.com/Assistant-Regular.woff2");
      }
    </style>
    
  </defs>
  <g stroke-linecap="round" transform="translate(269.666046142578 10) rotate(0 135.569580078125 34)"><path d="M17 0 C91.29 0, 165.58 0, 254.14 0 C265.47 0, 271.14 5.67, 271.14 17 C271.14 24.45, 271.14 31.9, 271.14 51 C271.14 62.33, 265.47 68, 254.14 68 C199.13 68, 144.12 68, 17 68 C5.67 68, 0 62.33, 0 51 C0 42.34, 0 33.68, 0 17 C0 5.67, 5.67 0, 17 0" stroke="none" stroke-width="0" fill="#228be6"></path><path d="M17 0 C94.99 0, 172.98 0, 254.14 0 M17 0 C108.09 0, 199.19 0, 254.14 0 M254.14 0 C265.47 0, 271.14 5.67, 271.14 17 M254.14 0 C265.47 0, 271.14 5.67, 271.14 17 M271.14 17 C271.14 28.41, 271.14 39.82, 271.14 51 M271.14 17 C271.14 30.11, 271.14 43.22, 271.14 51 M271.14 51 C271.14 62.33, 265.47 68, 254.14 68 M271.14 51 C271.14 62.33, 265.47 68, 254.14 68 M254.14 68 C178.85 68, 103.56 68, 17 68 M254.14 68 C183.31 68, 112.48 68, 17 68 M17 68 C5.67 68, 0 62.33, 0 51 M17 68 C5.67 68, 0 62.33, 0 51 M0 51 C0 43, 0 34.99, 0 17 M0 51 C0 41.77, 0 32.55, 0 17 M0 17 C0 5.67, 5.67 0, 17 0 M0 17 C0 5.67, 5.67 0, 17 0" stroke="transparent" stroke-width="2" fill="none"></path></g><g transform="translate(306.798126220703 15.199999999999989) rotate(0 98.4375 28.799999999999983)"><text x="98.4375" y="0" font-family="Cascadia, Segoe UI Emoji" font-size="16px" fill="#ffffff" text-anchor="middle" style="white-space: pre;" direction="ltr" dominant-baseline="text-before-edge">Render</text><text x="98.4375" y="19.2" font-family="Cascadia, Segoe UI Emoji" font-size="16px" fill="#ffffff" text-anchor="middle" style="white-space: pre;" direction="ltr" dominant-baseline="text-before-edge"> encounters component</text><text x="98.4375" y="38.4" font-family="Cascadia, Segoe UI Emoji" font-size="16px" fill="#ffffff" text-anchor="middle" style="white-space: pre;" direction="ltr" dominant-baseline="text-before-edge">(组件要开始渲染时)</text></g><g stroke-linecap="round"><g transform="translate(406.6480852330013 81.852294921875) rotate(0 0.3903547843506203 140.67940521240234)"><path d="M0 0 C0.13 46.89, 0.65 234.47, 0.78 281.36 M0 0 C0.13 46.89, 0.65 234.47, 0.78 281.36" stroke="#ced4da" stroke-width="4" fill="none"></path></g><g transform="translate(406.6480852330013 81.852294921875) rotate(0 0.3903547843506203 140.67940521240234)"><path d="M-7.83 257.89 C-4.73 266.36, -1.62 274.83, 0.78 281.36 M-7.83 257.89 C-4.48 267.04, -1.12 276.19, 0.78 281.36" stroke="#ced4da" stroke-width="4" fill="none"></path></g><g transform="translate(406.6480852330013 81.852294921875) rotate(0 0.3903547843506203 140.67940521240234)"><path d="M9.27 257.84 C6.2 266.33, 3.14 274.81, 0.78 281.36 M9.27 257.84 C5.96 267.01, 2.65 276.18, 0.78 281.36" stroke="#ced4da" stroke-width="4" fill="none"></path></g></g><mask></mask><g stroke-linecap="round" transform="translate(10 119.48623657226562) rotate(0 92.2195739746092 35.60981750488281)"><path d="M17.8 0 C52.02 0, 86.23 0, 166.63 0 M17.8 0 C74.98 0, 132.16 0, 166.63 0 M166.63 0 C178.5 0, 184.44 5.93, 184.44 17.8 M166.63 0 C178.5 0, 184.44 5.93, 184.44 17.8 M184.44 17.8 C184.44 28.93, 184.44 40.05, 184.44 53.41 M184.44 17.8 C184.44 29.88, 184.44 41.95, 184.44 53.41 M184.44 53.41 C184.44 65.28, 178.5 71.22, 166.63 71.22 M184.44 53.41 C184.44 65.28, 178.5 71.22, 166.63 71.22 M166.63 71.22 C130.57 71.22, 94.51 71.22, 17.8 71.22 M166.63 71.22 C110.73 71.22, 54.83 71.22, 17.8 71.22 M17.8 71.22 C5.93 71.22, 0 65.28, 0 53.41 M17.8 71.22 C5.93 71.22, 0 65.28, 0 53.41 M0 53.41 C0 43.68, 0 33.95, 0 17.8 M0 53.41 C0 41.77, 0 30.13, 0 17.8 M0 17.8 C0 5.93, 5.93 0, 17.8 0 M0 17.8 C0 5.93, 5.93 0, 17.8 0" stroke="#228be6" stroke-width="4" fill="none"></path></g><g transform="translate(22.532073974609148 135.89605407714845) rotate(0 79.68750000000006 19.19999999999999)"><text x="79.6875" y="0" font-family="Cascadia, Segoe UI Emoji" font-size="16px" fill="#228be6" text-anchor="middle" style="white-space: pre;" direction="ltr" dominant-baseline="text-before-edge">setup</text><text x="79.6875" y="19.2" font-family="Cascadia, Segoe UI Emoji" font-size="16px" fill="#228be6" text-anchor="middle" style="white-space: pre;" direction="ltr" dominant-baseline="text-before-edge">(Composition API)</text></g><g stroke-linecap="round"><g transform="translate(406.3514709472655 153.74542236328125) rotate(0 -105.45616149902355 -0.5407155515325712)"><path d="M0 0 C-35.15 -0.18, -175.76 -0.9, -210.91 -1.08" stroke="#228be6" stroke-width="4.5" fill="none" stroke-dasharray="8 12"></path></g><g transform="translate(406.3514709472655 153.74542236328125) rotate(0 -105.45616149902355 -0.5407155515325712)"><path d="M-187.38 -9.51 C-196.3 -6.31, -205.23 -3.12, -210.91 -1.08" stroke="#228be6" stroke-width="4.5" fill="none"></path></g><g transform="translate(406.3514709472655 153.74542236328125) rotate(0 -105.45616149902355 -0.5407155515325712)"><path d="M-187.46 7.59 C-196.36 4.3, -205.25 1.01, -210.91 -1.08" stroke="#228be6" stroke-width="4.5" fill="none"></path></g></g><mask></mask><g stroke-linecap="round" transform="translate(31.59194946289051 238.90406799316406) rotate(0 78.27635192871082 24.866714477539062)"><path d="M12.43 0 C50.52 0, 88.61 0, 144.12 0 M12.43 0 C54.08 0, 95.73 0, 144.12 0 M144.12 0 C152.41 0, 156.55 4.14, 156.55 12.43 M144.12 0 C152.41 0, 156.55 4.14, 156.55 12.43 M156.55 12.43 C156.55 20.29, 156.55 28.15, 156.55 37.3 M156.55 12.43 C156.55 22.17, 156.55 31.9, 156.55 37.3 M156.55 37.3 C156.55 45.59, 152.41 49.73, 144.12 49.73 M156.55 37.3 C156.55 45.59, 152.41 49.73, 144.12 49.73 M144.12 49.73 C93.57 49.73, 43.01 49.73, 12.43 49.73 M144.12 49.73 C92.27 49.73, 40.42 49.73, 12.43 49.73 M12.43 49.73 C4.14 49.73, 0 45.59, 0 37.3 M12.43 49.73 C4.14 49.73, 0 45.59, 0 37.3 M0 37.3 C0 30.9, 0 24.49, 0 12.43 M0 37.3 C0 28.26, 0 19.22, 0 12.43 M0 12.43 C0 4.14, 4.14 0, 12.43 0 M0 12.43 C0 4.14, 4.14 0, 12.43 0" stroke="#e03131" stroke-width="4" fill="none"></path></g><g transform="translate(53.618301391601335 254.17078247070313) rotate(0 56.25000000000006 9.599999999999994)"><text x="56.25" y="0" font-family="Cascadia, Segoe UI Emoji" font-size="16px" fill="#e03131" text-anchor="middle" style="white-space: pre;" direction="ltr" dominant-baseline="text-before-edge">beforeCreate</text></g><g stroke-linecap="round"><g transform="translate(402.11444091796864 266.3059539794922) rotate(0 -99.35764934318343 -0.056020942723904454)"><path d="M0 0 C-33.12 -0.02, -165.6 -0.09, -198.72 -0.11" stroke="#e03131" stroke-width="4.5" fill="none" stroke-dasharray="8 12"></path></g><g transform="translate(402.11444091796864 266.3059539794922) rotate(0 -99.35764934318343 -0.056020942723904454)"><path d="M-175.22 -8.65 C-181.22 -6.47, -187.21 -4.29, -198.72 -0.11" stroke="#e03131" stroke-width="4.5" fill="none"></path></g><g transform="translate(402.11444091796864 266.3059539794922) rotate(0 -99.35764934318343 -0.056020942723904454)"><path d="M-175.23 8.45 C-181.22 6.27, -187.22 4.08, -198.72 -0.11" stroke="#e03131" stroke-width="4.5" fill="none"></path></g></g><mask></mask><g stroke-linecap="round" transform="translate(280.1809082031249 371.29661560058594) rotate(0 126.31216430664062 29.198043823242188)"><path d="M14.6 0 C80.84 0, 147.09 0, 238.03 0 C247.76 0, 252.62 4.87, 252.62 14.6 C252.62 20.6, 252.62 26.59, 252.62 43.8 C252.62 53.53, 247.76 58.4, 238.03 58.4 C152.41 58.4, 66.8 58.4, 14.6 58.4 C4.87 58.4, 0 53.53, 0 43.8 C0 32.4, 0 21.01, 0 14.6 C0 4.87, 4.87 0, 14.6 0" stroke="none" stroke-width="0" fill="#40c057"></path><path d="M14.6 0 C103.56 0, 192.52 0, 238.03 0 M14.6 0 C100.66 0, 186.73 0, 238.03 0 M238.03 0 C247.76 0, 252.62 4.87, 252.62 14.6 M238.03 0 C247.76 0, 252.62 4.87, 252.62 14.6 M252.62 14.6 C252.62 21.02, 252.62 27.44, 252.62 43.8 M252.62 14.6 C252.62 23.2, 252.62 31.81, 252.62 43.8 M252.62 43.8 C252.62 53.53, 247.76 58.4, 238.03 58.4 M252.62 43.8 C252.62 53.53, 247.76 58.4, 238.03 58.4 M238.03 58.4 C188.49 58.4, 138.95 58.4, 14.6 58.4 M238.03 58.4 C180.3 58.4, 122.58 58.4, 14.6 58.4 M14.6 58.4 C4.87 58.4, 0 53.53, 0 43.8 M14.6 58.4 C4.87 58.4, 0 53.53, 0 43.8 M0 43.8 C0 36.76, 0 29.73, 0 14.6 M0 43.8 C0 32.83, 0 21.86, 0 14.6 M0 14.6 C0 4.87, 4.87 0, 14.6 0 M0 14.6 C0 4.87, 4.87 0, 14.6 0" stroke="#ffffff" stroke-width="2" fill="none"></path></g><g transform="translate(331.4930725097655 390.8946594238281) rotate(0 75 9.600000000000001)"><text x="75" y="0" font-family="Cascadia, Segoe UI Emoji" font-size="16px" fill="#ffffff" text-anchor="middle" style="white-space: pre;" direction="ltr" dominant-baseline="text-before-edge">Init Options API</text></g><g stroke-linecap="round"><g transform="translate(408.5861577869026 432.028564453125) rotate(0 -0.7006753137236501 83.26265451484396)"><path d="M0 0 C-0.23 27.75, -1.17 138.77, -1.4 166.53 M0 0 C-0.23 27.75, -1.17 138.77, -1.4 166.53" stroke="#ced4da" stroke-width="4" fill="none"></path></g><g transform="translate(408.5861577869026 432.028564453125) rotate(0 -0.7006753137236501 83.26265451484396)"><path d="M-9.75 142.96 C-7.11 150.42, -4.47 157.88, -1.4 166.53 M-9.75 142.96 C-7.47 149.41, -5.19 155.85, -1.4 166.53" stroke="#ced4da" stroke-width="4" fill="none"></path></g><g transform="translate(408.5861577869026 432.028564453125) rotate(0 -0.7006753137236501 83.26265451484396)"><path d="M7.35 143.11 C4.58 150.52, 1.81 157.93, -1.4 166.53 M7.35 143.11 C4.95 149.51, 2.56 155.91, -1.4 166.53" stroke="#ced4da" stroke-width="4" fill="none"></path></g></g><mask></mask><g stroke-linecap="round" transform="translate(45.823303222656136 467.12718200683594) rotate(0 76.75634765624989 26.892501831054688)"><path d="M13.45 0 C44.2 0, 74.95 0, 140.07 0 M13.45 0 C55.01 0, 96.58 0, 140.07 0 M140.07 0 C149.03 0, 153.51 4.48, 153.51 13.45 M140.07 0 C149.03 0, 153.51 4.48, 153.51 13.45 M153.51 13.45 C153.51 20.87, 153.51 28.3, 153.51 40.34 M153.51 13.45 C153.51 23.43, 153.51 33.42, 153.51 40.34 M153.51 40.34 C153.51 49.3, 149.03 53.79, 140.07 53.79 M153.51 40.34 C153.51 49.3, 149.03 53.79, 140.07 53.79 M140.07 53.79 C103.89 53.79, 67.72 53.79, 13.45 53.79 M140.07 53.79 C113.18 53.79, 86.29 53.79, 13.45 53.79 M13.45 53.79 C4.48 53.79, 0 49.3, 0 40.34 M13.45 53.79 C4.48 53.79, 0 49.3, 0 40.34 M0 40.34 C0 34.74, 0 29.14, 0 13.45 M0 40.34 C0 30.72, 0 21.1, 0 13.45 M0 13.45 C0 4.48, 4.48 0, 13.45 0 M0 13.45 C0 4.48, 4.48 0, 13.45 0" stroke="#e03131" stroke-width="4" fill="none"></path></g><g transform="translate(89.76715087890602 484.4196838378906) rotate(0 32.81250000000006 9.6)"><text x="32.8125" y="0" font-family="Cascadia, Segoe UI Emoji" font-size="16px" fill="#e03131" text-anchor="middle" style="white-space: pre;" direction="ltr" dominant-baseline="text-before-edge">created</text></g><g stroke-linecap="round"><g transform="translate(406.4852600097655 494.04652404785156) rotate(0 -96.32474320688016 -0.7900068372706297)"><path d="M0 0 C-32.11 -0.26, -160.54 -1.32, -192.65 -1.58" stroke="#e03131" stroke-width="4.5" fill="none" stroke-dasharray="8 12"></path></g><g transform="translate(406.4852600097655 494.04652404785156) rotate(0 -96.32474320688016 -0.7900068372706297)"><path d="M-169.09 -9.94 C-174.09 -8.16, -179.1 -6.39, -192.65 -1.58" stroke="#e03131" stroke-width="4.5" fill="none"></path></g><g transform="translate(406.4852600097655 494.04652404785156) rotate(0 -96.32474320688016 -0.7900068372706297)"><path d="M-169.23 7.16 C-174.2 5.31, -179.18 3.45, -192.65 -1.58" stroke="#e03131" stroke-width="4.5" fill="none"></path></g></g><mask></mask><g stroke-linecap="round" transform="translate(233.7447814941405 600.8920593261719) rotate(0 173.25448608398438 87)"><path d="M174 0 L346.51 88 L174 174 L0 88" stroke="none" stroke-width="0" fill="#7950f2" fill-rule="evenodd"></path><path d="M174 0 C241.54 34.46, 309.09 68.91, 346.51 88 M174 0 C228.34 27.72, 282.67 55.44, 346.51 88 M346.51 88 C279.65 121.33, 212.8 154.66, 174 174 M346.51 88 C299.92 111.22, 253.34 134.45, 174 174 M174 174 C113.04 143.87, 52.09 113.74, 0 88 M174 174 C136.09 155.26, 98.18 136.53, 0 88 M0 88 C52.48 61.46, 104.96 34.91, 174 0 M0 88 C54.86 60.25, 109.72 32.51, 174 0" stroke="transparent" stroke-width="2" fill="none"></path></g><g transform="translate(333.4970245361327 649.4920593261719) rotate(0 73.375 38.39999999999999)"><text x="73.375" y="0" font-family="Cascadia, Segoe UI Emoji" font-size="16px" fill="#ffffff" text-anchor="middle" style="white-space: pre;" direction="ltr" dominant-baseline="text-before-edge">Has</text><text x="73.375" y="19.2" font-family="Cascadia, Segoe UI Emoji" font-size="16px" fill="#ffffff" text-anchor="middle" style="white-space: pre;" direction="ltr" dominant-baseline="text-before-edge">pre-compiled</text><text x="73.375" y="38.4" font-family="Cascadia, Segoe UI Emoji" font-size="16px" fill="#ffffff" text-anchor="middle" style="white-space: pre;" direction="ltr" dominant-baseline="text-before-edge">template？</text><text x="73.375" y="57.599999999999994" font-family="Cascadia, Segoe UI Emoji" font-size="16px" fill="#ffffff" text-anchor="middle" style="white-space: pre;" direction="ltr" dominant-baseline="text-before-edge">(是否有预编译模版)</text></g><g mask="url(#mask-SaGVjH2d9ydEK5czt2-nT)" stroke-linecap="round"><g transform="translate(577.3583679199218 686.7822265625) rotate(0 64.85425915572227 54.561737060546875)"><path d="M0 0 C37.95 0, 75.9 0, 129.08 -0.01 M129.08 -0.01 C129.25 30.65, 129.43 61.3, 129.71 109.13" stroke="#ced4da" stroke-width="4.5" fill="none" stroke-dasharray="8 12"></path></g><g transform="translate(577.3583679199218 686.7822265625) rotate(0 64.85425915572227 54.561737060546875)"><path d="M121.02 85.69 C123.58 92.58, 126.13 99.47, 129.71 109.13" stroke="#ced4da" stroke-width="4.5" fill="none"></path></g><g transform="translate(577.3583679199218 686.7822265625) rotate(0 64.85425915572227 54.561737060546875)"><path d="M138.12 85.59 C135.65 92.51, 133.18 99.43, 129.71 109.13" stroke="#ced4da" stroke-width="4.5" fill="none"></path></g></g><mask id="mask-SaGVjH2d9ydEK5czt2-nT"><rect x="0" y="0" fill="#fff" width="807.0668862313663" height="895.9161376953125"></rect><rect x="697.0602722167969" y="677.1770080566406" fill="#000" width="18.75" height="19.2" opacity="1"></rect></mask><g transform="translate(697.0602722167969 677.1770080566406) rotate(0 -54.847645141152725 64.16695556640624)"><text x="9.375" y="0" font-family="Cascadia, Segoe UI Emoji" font-size="16px" fill="#1e1e1e" text-anchor="middle" style="white-space: pre;" direction="ltr" dominant-baseline="text-before-edge">NO</text></g><g stroke-linecap="round" transform="translate(580.9175415039061 800.2764129638672) rotate(0 126.31216430664062 34)"><path d="M17 0 C69.53 0, 122.06 0, 235.62 0 C246.96 0, 252.62 5.67, 252.62 17 C252.62 25.08, 252.62 33.16, 252.62 51 C252.62 62.33, 246.96 68, 235.62 68 C155.04 68, 74.46 68, 17 68 C5.67 68, 0 62.33, 0 51 C0 41.42, 0 31.85, 0 17 C0 5.67, 5.67 0, 17 0" stroke="none" stroke-width="0" fill="#40c057"></path><path d="M17 0 C86.31 0, 155.62 0, 235.62 0 M17 0 C92.81 0, 168.63 0, 235.62 0 M235.62 0 C246.96 0, 252.62 5.67, 252.62 17 M235.62 0 C246.96 0, 252.62 5.67, 252.62 17 M252.62 17 C252.62 28.34, 252.62 39.68, 252.62 51 M252.62 17 C252.62 26.62, 252.62 36.24, 252.62 51 M252.62 51 C252.62 62.33, 246.96 68, 235.62 68 M252.62 51 C252.62 62.33, 246.96 68, 235.62 68 M235.62 68 C160.79 68, 85.95 68, 17 68 M235.62 68 C169.46 68, 103.3 68, 17 68 M17 68 C5.67 68, 0 62.33, 0 51 M17 68 C5.67 68, 0 62.33, 0 51 M0 51 C0 41.44, 0 31.88, 0 17 M0 51 C0 42.24, 0 33.48, 0 17 M0 17 C0 5.67, 5.67 0, 17 0 M0 17 C0 5.67, 5.67 0, 17 0" stroke="#ffffff" stroke-width="2" fill="none"></path></g><g transform="translate(627.5422058105468 805.4764129638672) rotate(0 79.6875 28.799999999999983)"><text x="79.6875" y="0" font-family="Cascadia, Segoe UI Emoji" font-size="16px" fill="#ffffff" text-anchor="middle" style="white-space: pre;" direction="ltr" dominant-baseline="text-before-edge">Compile template </text><text x="79.6875" y="19.2" font-family="Cascadia, Segoe UI Emoji" font-size="16px" fill="#ffffff" text-anchor="middle" style="white-space: pre;" direction="ltr" dominant-baseline="text-before-edge">on-the-fly</text><text x="79.6875" y="38.4" font-family="Cascadia, Segoe UI Emoji" font-size="16px" fill="#ffffff" text-anchor="middle" style="white-space: pre;" direction="ltr" dominant-baseline="text-before-edge">(即时编译模版)</text></g><g mask="url(#mask-JAmO75AGY7KtXMxrAaIwN)" stroke-linecap="round"><g transform="translate(407.1634826660155 774.0832214355469) rotate(0 0.7155034114701948 149.3692398071289)"><path d="M0 0 C0.18 17.84, 0.36 35.67, 0.78 76.68 M0 0 C0.16 15.43, 0.31 30.86, 0.78 76.68 M0.78 76.68 C0.92 126.35, 1.07 176.03, 1.43 298.74 M0.78 76.68 C1.02 159.95, 1.27 243.22, 1.43 298.74" stroke="#ced4da" stroke-width="4" fill="none"></path></g><g transform="translate(407.1634826660155 774.0832214355469) rotate(0 0.7155034114701948 149.3692398071289)"><path d="M-7.19 275.27 C-5.18 280.73, -3.18 286.19, 1.43 298.74 M-7.19 275.27 C-5.45 279.99, -3.72 284.72, 1.43 298.74" stroke="#ced4da" stroke-width="4" fill="none"></path></g><g transform="translate(407.1634826660155 774.0832214355469) rotate(0 0.7155034114701948 149.3692398071289)"><path d="M9.91 275.22 C7.94 280.69, 5.97 286.16, 1.43 298.74 M9.91 275.22 C8.21 279.95, 6.5 284.69, 1.43 298.74" stroke="#ced4da" stroke-width="4" fill="none"></path></g></g><mask id="mask-JAmO75AGY7KtXMxrAaIwN"><rect x="0" y="0" fill="#fff" width="508.5944894889559" height="1172.8217010498047"></rect><rect x="393.8780212402344" y="841.1593688964842" fill="#000" width="28.125" height="19.2" opacity="1"></rect></mask><g transform="translate(393.8780212402344 841.1593688964844) rotate(0 14.000964837251445 82.29309234619143)"><text x="14.0625" y="0" font-family="Cascadia, Segoe UI Emoji" font-size="16px" fill="#1e1e1e" text-anchor="middle" style="white-space: pre;" direction="ltr" dominant-baseline="text-before-edge">YES</text></g><g stroke-linecap="round"><g transform="translate(709.8404485907671 861.8436584472656) rotate(0 -146.72266875339142 30.299468994140625)"><path d="M0 0 C-0.14 19, -0.29 38.01, -0.45 59.48 M-0.45 59.48 C-71.76 59.75, -143.07 60.03, -293.45 60.6" stroke="#ced4da" stroke-width="4.5" fill="none" stroke-dasharray="8 12"></path></g><g transform="translate(709.8404485907671 861.8436584472656) rotate(0 -146.72266875339142 30.299468994140625)"><path d="M-269.99 51.96 C-277.48 54.72, -284.98 57.48, -293.45 60.6" stroke="#ced4da" stroke-width="4.5" fill="none"></path></g><g transform="translate(709.8404485907671 861.8436584472656) rotate(0 -146.72266875339142 30.299468994140625)"><path d="M-269.92 69.06 C-277.44 66.36, -284.95 63.65, -293.45 60.6" stroke="#ced4da" stroke-width="4.5" fill="none"></path></g></g><mask></mask><g stroke-linecap="round" transform="translate(43.097518920898324 958.4913177490234) rotate(0 76.75634765624989 26.892501831054688)"><path d="M13.45 0 C53.87 0, 94.3 0, 140.07 0 M13.45 0 C49.45 0, 85.45 0, 140.07 0 M140.07 0 C149.03 0, 153.51 4.48, 153.51 13.45 M140.07 0 C149.03 0, 153.51 4.48, 153.51 13.45 M153.51 13.45 C153.51 22.8, 153.51 32.15, 153.51 40.34 M153.51 13.45 C153.51 22.11, 153.51 30.78, 153.51 40.34 M153.51 40.34 C153.51 49.3, 149.03 53.79, 140.07 53.79 M153.51 40.34 C153.51 49.3, 149.03 53.79, 140.07 53.79 M140.07 53.79 C93.19 53.79, 46.32 53.79, 13.45 53.79 M140.07 53.79 C90.96 53.79, 41.86 53.79, 13.45 53.79 M13.45 53.79 C4.48 53.79, 0 49.3, 0 40.34 M13.45 53.79 C4.48 53.79, 0 49.3, 0 40.34 M0 40.34 C0 33.59, 0 26.85, 0 13.45 M0 40.34 C0 34.36, 0 28.38, 0 13.45 M0 13.45 C0 4.48, 4.48 0, 13.45 0 M0 13.45 C0 4.48, 4.48 0, 13.45 0" stroke="#e03131" stroke-width="4" fill="none"></path></g><g transform="translate(68.29136657714821 975.7838195800781) rotate(0 51.56250000000006 9.600000000000023)"><text x="51.5625" y="0" font-family="Cascadia, Segoe UI Emoji" font-size="16px" fill="#e03131" text-anchor="middle" style="white-space: pre;" direction="ltr" dominant-baseline="text-before-edge">beforeMount</text></g><g stroke-linecap="round"><g transform="translate(403.7594757080077 985.4106597900391) rotate(0 -96.32474320688016 -0.7900068372706244)"><path d="M0 0 C-32.11 -0.26, -160.54 -1.32, -192.65 -1.58" stroke="#e03131" stroke-width="4.5" fill="none" stroke-dasharray="8 12"></path></g><g transform="translate(403.7594757080077 985.4106597900391) rotate(0 -96.32474320688016 -0.7900068372706244)"><path d="M-169.09 -9.94 C-175.81 -7.55, -182.54 -5.17, -192.65 -1.58" stroke="#e03131" stroke-width="4.5" fill="none"></path></g><g transform="translate(403.7594757080077 985.4106597900391) rotate(0 -96.32474320688016 -0.7900068372706244)"><path d="M-169.23 7.16 C-175.91 4.67, -182.6 2.17, -192.65 -1.58" stroke="#e03131" stroke-width="4.5" fill="none"></path></g></g><mask></mask><g stroke-linecap="round" transform="translate(258.7172851562499 1079.1533508300781) rotate(0 143.91259765625 43.5)"><path d="M21.75 0 C107.23 0, 192.72 0, 266.08 0 C280.58 0, 287.83 7.25, 287.83 21.75 C287.83 34.92, 287.83 48.08, 287.83 65.25 C287.83 79.75, 280.58 87, 266.08 87 C169.04 87, 72 87, 21.75 87 C7.25 87, 0 79.75, 0 65.25 C0 50.17, 0 35.08, 0 21.75 C0 7.25, 7.25 0, 21.75 0" stroke="none" stroke-width="0" fill="#40c057"></path><path d="M21.75 0 C91.94 0, 162.13 0, 266.08 0 M21.75 0 C113.48 0, 205.21 0, 266.08 0 M266.08 0 C280.58 0, 287.83 7.25, 287.83 21.75 M266.08 0 C280.58 0, 287.83 7.25, 287.83 21.75 M287.83 21.75 C287.83 38.75, 287.83 55.75, 287.83 65.25 M287.83 21.75 C287.83 31.5, 287.83 41.25, 287.83 65.25 M287.83 65.25 C287.83 79.75, 280.58 87, 266.08 87 M287.83 65.25 C287.83 79.75, 280.58 87, 266.08 87 M266.08 87 C173.96 87, 81.84 87, 21.75 87 M266.08 87 C168.91 87, 71.74 87, 21.75 87 M21.75 87 C7.25 87, 0 79.75, 0 65.25 M21.75 87 C7.25 87, 0 79.75, 0 65.25 M0 65.25 C0 55.85, 0 46.44, 0 21.75 M0 65.25 C0 54.65, 0 44.05, 0 21.75 M0 21.75 C0 7.25, 7.25 0, 21.75 0 M0 21.75 C0 7.25, 7.25 0, 21.75 0" stroke="#ffffff" stroke-width="2" fill="none"></path></g><g transform="translate(277.1298828124999 1093.8533508300782) rotate(0 125.5 28.80000000000001)"><text x="125.5" y="0" font-family="Cascadia, Segoe UI Emoji" font-size="16px" fill="#ffffff" text-anchor="middle" style="white-space: pre;" direction="ltr" dominant-baseline="text-before-edge">initial render</text><text x="125.5" y="19.2" font-family="Cascadia, Segoe UI Emoji" font-size="16px" fill="#ffffff" text-anchor="middle" style="white-space: pre;" direction="ltr" dominant-baseline="text-before-edge">create &amp; insert DOM nodes</text><text x="125.5" y="38.4" font-family="Cascadia, Segoe UI Emoji" font-size="16px" fill="#ffffff" text-anchor="middle" style="white-space: pre;" direction="ltr" dominant-baseline="text-before-edge">(初始渲染 &amp; 创建和插入DOM节点)</text></g><g stroke-linecap="round"><g transform="translate(405.0555870593388 1168.0680236816406) rotate(0 0.14873800562475026 81.38819744709241)"><path d="M0 0 C0.07 40.2, 0.15 80.4, 0.3 162.78 M0 0 C0.1 56.41, 0.21 112.81, 0.3 162.78" stroke="#ced4da" stroke-width="4" fill="none"></path></g><g transform="translate(405.0555870593388 1168.0680236816406) rotate(0 0.14873800562475026 81.38819744709241)"><path d="M-8.3 139.3 C-6.17 145.1, -4.05 150.9, 0.3 162.78 M-8.3 139.3 C-5.32 147.44, -2.34 155.57, 0.3 162.78" stroke="#ced4da" stroke-width="4" fill="none"></path></g><g transform="translate(405.0555870593388 1168.0680236816406) rotate(0 0.14873800562475026 81.38819744709241)"><path d="M8.81 139.27 C6.7 145.07, 4.6 150.88, 0.3 162.78 M8.81 139.27 C5.86 147.41, 2.91 155.56, 0.3 162.78" stroke="#ced4da" stroke-width="4" fill="none"></path></g></g><mask></mask><g stroke-linecap="round" transform="translate(36.910995483398324 1198.6943817138672) rotate(0 76.75634765624989 26.892501831054688)"><path d="M13.45 0 C43.64 0, 73.82 0, 140.07 0 M13.45 0 C60.25 0, 107.05 0, 140.07 0 M140.07 0 C149.03 0, 153.51 4.48, 153.51 13.45 M140.07 0 C149.03 0, 153.51 4.48, 153.51 13.45 M153.51 13.45 C153.51 22.44, 153.51 31.43, 153.51 40.34 M153.51 13.45 C153.51 19.67, 153.51 25.89, 153.51 40.34 M153.51 40.34 C153.51 49.3, 149.03 53.79, 140.07 53.79 M153.51 40.34 C153.51 49.3, 149.03 53.79, 140.07 53.79 M140.07 53.79 C91.12 53.79, 42.18 53.79, 13.45 53.79 M140.07 53.79 C103.98 53.79, 67.89 53.79, 13.45 53.79 M13.45 53.79 C4.48 53.79, 0 49.3, 0 40.34 M13.45 53.79 C4.48 53.79, 0 49.3, 0 40.34 M0 40.34 C0 29.75, 0 19.16, 0 13.45 M0 40.34 C0 29.92, 0 19.51, 0 13.45 M0 13.45 C0 4.48, 4.48 0, 13.45 0 M0 13.45 C0 4.48, 4.48 0, 13.45 0" stroke="#e03131" stroke-width="4" fill="none"></path></g><g transform="translate(80.85484313964821 1215.986883544922) rotate(0 32.81250000000006 9.600000000000023)"><text x="32.8125" y="0" font-family="Cascadia, Segoe UI Emoji" font-size="16px" fill="#e03131" text-anchor="middle" style="white-space: pre;" direction="ltr" dominant-baseline="text-before-edge">mounted</text></g><g stroke-linecap="round"><g transform="translate(397.34437561035145 1225.6137237548828) rotate(0 -96.21045487680203 -0.7897200256418841)"><path d="M0 0 C-32.07 -0.26, -160.35 -1.32, -192.42 -1.58" stroke="#e03131" stroke-width="4.5" fill="none" stroke-dasharray="8 12"></path></g><g transform="translate(397.34437561035145 1225.6137237548828) rotate(0 -96.21045487680203 -0.7897200256418841)"><path d="M-168.86 -9.94 C-177.17 -6.99, -185.48 -4.04, -192.42 -1.58" stroke="#e03131" stroke-width="4.5" fill="none"></path></g><g transform="translate(397.34437561035145 1225.6137237548828) rotate(0 -96.21045487680203 -0.7897200256418841)"><path d="M-169 7.16 C-177.26 4.08, -185.52 1, -192.42 -1.58" stroke="#e03131" stroke-width="4.5" fill="none"></path></g></g><mask></mask><g stroke-linecap="round" transform="translate(456.78817749023426 1228.9659118652346) rotate(0 165.38824462890625 162.70947265625)"><path d="M330.78 162.71 C330.78 166.76, 330.62 170.83, 330.31 174.87 C330.01 178.91, 329.54 182.95, 328.93 186.96 C328.32 190.97, 327.55 194.96, 326.63 198.92 C325.71 202.87, 324.64 206.8, 323.43 210.67 C322.21 214.54, 320.85 218.38, 319.34 222.15 C317.84 225.93, 316.19 229.65, 314.4 233.31 C312.61 236.96, 310.68 240.55, 308.62 244.06 C306.56 247.57, 304.36 251.02, 302.04 254.37 C299.72 257.72, 297.26 260.99, 294.69 264.16 C292.13 267.33, 289.43 270.41, 286.63 273.38 C283.82 276.35, 280.9 279.23, 277.88 281.98 C274.86 284.74, 271.73 287.39, 268.51 289.92 C265.29 292.45, 261.96 294.86, 258.55 297.15 C255.15 299.43, 251.65 301.59, 248.08 303.62 C244.51 305.65, 240.86 307.55, 237.15 309.31 C233.44 311.06, 229.65 312.69, 225.81 314.17 C221.98 315.65, 218.07 317, 214.14 318.19 C210.2 319.38, 206.21 320.44, 202.19 321.34 C198.17 322.24, 194.11 323, 190.04 323.6 C185.96 324.21, 181.86 324.66, 177.75 324.96 C173.64 325.27, 169.51 325.42, 165.39 325.42 C161.27 325.42, 157.14 325.27, 153.03 324.96 C148.92 324.66, 144.81 324.21, 140.74 323.6 C136.66 323, 132.6 322.24, 128.59 321.34 C124.57 320.44, 120.58 319.38, 116.64 318.19 C112.7 317, 108.8 315.65, 104.97 314.17 C101.13 312.69, 97.34 311.06, 93.63 309.31 C89.92 307.55, 86.26 305.65, 82.69 303.62 C79.13 301.59, 75.63 299.43, 72.22 297.15 C68.82 294.86, 65.49 292.45, 62.27 289.92 C59.05 287.39, 55.92 284.74, 52.9 281.98 C49.88 279.23, 46.95 276.35, 44.15 273.38 C41.35 270.41, 38.65 267.33, 36.08 264.16 C33.51 260.99, 31.06 257.72, 28.74 254.37 C26.42 251.02, 24.22 247.57, 22.16 244.06 C20.1 240.55, 18.17 236.96, 16.38 233.31 C14.59 229.65, 12.94 225.93, 11.43 222.15 C9.93 218.38, 8.56 214.54, 7.35 210.67 C6.13 206.8, 5.06 202.87, 4.15 198.92 C3.23 194.96, 2.46 190.97, 1.85 186.96 C1.23 182.95, 0.77 178.91, 0.46 174.87 C0.15 170.83, 0 166.76, 0 162.71 C0 158.66, 0.15 154.59, 0.46 150.55 C0.77 146.51, 1.23 142.47, 1.85 138.46 C2.46 134.45, 3.23 130.45, 4.15 126.5 C5.06 122.55, 6.13 118.62, 7.35 114.75 C8.56 110.88, 9.93 107.04, 11.43 103.27 C12.94 99.49, 14.59 95.76, 16.38 92.11 C18.17 88.46, 20.1 84.86, 22.16 81.35 C24.22 77.84, 26.42 74.4, 28.74 71.05 C31.06 67.7, 33.51 64.43, 36.08 61.26 C38.65 58.09, 41.35 55.01, 44.15 52.04 C46.95 49.07, 49.88 46.19, 52.9 43.43 C55.92 40.68, 59.05 38.03, 62.27 35.5 C65.49 32.97, 68.82 30.56, 72.22 28.27 C75.63 25.99, 79.13 23.83, 82.69 21.8 C86.26 19.77, 89.92 17.87, 93.63 16.11 C97.34 14.35, 101.13 12.73, 104.97 11.25 C108.8 9.77, 112.7 8.42, 116.64 7.23 C120.58 6.03, 124.57 4.98, 128.59 4.08 C132.6 3.18, 136.66 2.42, 140.74 1.82 C144.81 1.21, 148.92 0.76, 153.03 0.45 C157.14 0.15, 161.27 0, 165.39 0 C169.51 0, 173.64 0.15, 177.75 0.45 C181.86 0.76, 185.96 1.21, 190.04 1.82 C194.11 2.42, 198.17 3.18, 202.19 4.08 C206.21 4.98, 210.2 6.03, 214.14 7.23 C218.07 8.42, 221.98 9.77, 225.81 11.25 C229.65 12.73, 233.44 14.35, 237.15 16.11 C240.86 17.87, 244.51 19.77, 248.08 21.8 C251.65 23.83, 255.15 25.99, 258.55 28.27 C261.96 30.56, 265.29 32.97, 268.51 35.5 C271.73 38.03, 274.86 40.68, 277.88 43.43 C280.9 46.19, 283.82 49.07, 286.63 52.04 C289.43 55.01, 292.13 58.09, 294.69 61.26 C297.26 64.43, 299.72 67.7, 302.04 71.05 C304.36 74.4, 306.56 77.84, 308.62 81.35 C310.68 84.86, 312.61 88.46, 314.4 92.11 C316.19 95.76, 317.84 99.49, 319.34 103.27 C320.85 107.04, 322.21 110.88, 323.43 114.75 C324.64 118.62, 325.71 122.55, 326.63 126.5 C327.55 130.45, 328.32 134.45, 328.93 138.46 C329.54 142.47, 330.01 146.51, 330.31 150.55 C330.62 154.59, 330.78 158.66, 330.78 162.71" stroke="#ced4da" stroke-width="4.5" fill="none" stroke-dasharray="8 12"></path></g><g stroke-linecap="round" transform="translate(669.2880554199218 1371.7190856933594) rotate(0 119.7977294921875 36.8431396484375)"><path d="M18.42 0 C63.11 0, 107.79 0, 221.17 0 C233.45 0, 239.6 6.14, 239.6 18.42 C239.6 32.18, 239.6 45.94, 239.6 55.26 C239.6 67.55, 233.45 73.69, 221.17 73.69 C175.35 73.69, 129.53 73.69, 18.42 73.69 C6.14 73.69, 0 67.55, 0 55.26 C0 43.39, 0 31.52, 0 18.42 C0 6.14, 6.14 0, 18.42 0" stroke="none" stroke-width="0" fill="#40c057"></path><path d="M18.42 0 C99.28 0, 180.15 0, 221.17 0 M18.42 0 C69.21 0, 119.99 0, 221.17 0 M221.17 0 C233.45 0, 239.6 6.14, 239.6 18.42 M221.17 0 C233.45 0, 239.6 6.14, 239.6 18.42 M239.6 18.42 C239.6 32.73, 239.6 47.04, 239.6 55.26 M239.6 18.42 C239.6 29.81, 239.6 41.21, 239.6 55.26 M239.6 55.26 C239.6 67.55, 233.45 73.69, 221.17 73.69 M239.6 55.26 C239.6 67.55, 233.45 73.69, 221.17 73.69 M221.17 73.69 C160.93 73.69, 100.69 73.69, 18.42 73.69 M221.17 73.69 C145.71 73.69, 70.24 73.69, 18.42 73.69 M18.42 73.69 C6.14 73.69, 0 67.55, 0 55.26 M18.42 73.69 C6.14 73.69, 0 67.55, 0 55.26 M0 55.26 C0 41.64, 0 28.02, 0 18.42 M0 55.26 C0 43.74, 0 32.21, 0 18.42 M0 18.42 C0 6.14, 6.14 0, 18.42 0 M0 18.42 C0 6.14, 6.14 0, 18.42 0" stroke="#ffffff" stroke-width="2" fill="none"></path></g><g transform="translate(700.0232849121093 1389.3622253417968) rotate(0 89.0625 19.19999999999999)"><text x="89.0625" y="0" font-family="Cascadia, Segoe UI Emoji" font-size="16px" fill="#ffffff" text-anchor="middle" style="white-space: pre;" direction="ltr" dominant-baseline="text-before-edge">re-render and patch</text><text x="89.0625" y="19.2" font-family="Cascadia, Segoe UI Emoji" font-size="16px" fill="#ffffff" text-anchor="middle" style="white-space: pre;" direction="ltr" dominant-baseline="text-before-edge">(重新渲染并且打补丁)</text></g><g transform="translate(583.9429626464843 1186.2181701660156) rotate(0 46.875 19.19999999999999)"><text x="0" y="0" font-family="Cascadia, Segoe UI Emoji" font-size="16px" fill="#1e1e1e" text-anchor="start" style="white-space: pre;" direction="ltr" dominant-baseline="text-before-edge">when data </text><text x="0" y="19.2" font-family="Cascadia, Segoe UI Emoji" font-size="16px" fill="#1e1e1e" text-anchor="start" style="white-space: pre;" direction="ltr" dominant-baseline="text-before-edge">changes</text></g><g transform="translate(573.9255065917968 1249.1613464355469) rotate(0 57.375 9.600000000000023)"><text x="0" y="0" font-family="Cascadia, Segoe UI Emoji" font-size="16px" fill="#1e1e1e" text-anchor="start" style="white-space: pre;" direction="ltr" dominant-baseline="text-before-edge">(当数据改变时)</text></g><g stroke-linecap="round" transform="translate(333.59603881835926 1333.9102478027344) rotate(0 73.11343383789062 69.87435913085938)"><path d="M146.23 69.87 C146.23 72.48, 146.07 75.11, 145.77 77.7 C145.46 80.29, 145 82.88, 144.39 85.42 C143.79 87.97, 143.03 90.49, 142.12 92.95 C141.22 95.41, 140.17 97.84, 138.99 100.19 C137.8 102.54, 136.47 104.84, 135.02 107.05 C133.57 109.26, 131.98 111.4, 130.28 113.44 C128.57 115.48, 126.74 117.44, 124.81 119.28 C122.88 121.13, 120.83 122.88, 118.7 124.5 C116.57 126.13, 114.32 127.65, 112.01 129.04 C109.7 130.43, 107.29 131.7, 104.84 132.83 C102.38 133.96, 99.84 134.97, 97.26 135.83 C94.69 136.69, 92.04 137.42, 89.38 138 C86.72 138.58, 84.01 139.02, 81.3 139.31 C78.59 139.6, 75.84 139.75, 73.11 139.75 C70.38 139.75, 67.64 139.6, 64.93 139.31 C62.22 139.02, 59.5 138.58, 56.84 138 C54.18 137.42, 51.54 136.69, 48.97 135.83 C46.39 134.97, 43.85 133.96, 41.39 132.83 C38.93 131.7, 36.53 130.43, 34.21 129.04 C31.9 127.65, 29.66 126.13, 27.53 124.5 C25.39 122.88, 23.34 121.13, 21.41 119.28 C19.48 117.44, 17.65 115.48, 15.95 113.44 C14.25 111.4, 12.66 109.26, 11.21 107.05 C9.75 104.84, 8.42 102.54, 7.24 100.19 C6.06 97.84, 5 95.41, 4.1 92.95 C3.2 90.49, 2.44 87.97, 1.83 85.42 C1.23 82.88, 0.77 80.29, 0.46 77.7 C0.15 75.11, 0 72.48, 0 69.87 C0 67.27, 0.15 64.64, 0.46 62.05 C0.77 59.46, 1.23 56.87, 1.83 54.33 C2.44 51.78, 3.2 49.26, 4.1 46.8 C5 44.33, 6.06 41.91, 7.24 39.56 C8.42 37.21, 9.75 34.91, 11.21 32.7 C12.66 30.49, 14.25 28.35, 15.95 26.31 C17.65 24.27, 19.48 22.31, 21.41 20.47 C23.34 18.62, 25.39 16.87, 27.53 15.24 C29.66 13.62, 31.9 12.1, 34.21 10.71 C36.53 9.32, 38.93 8.05, 41.39 6.92 C43.85 5.79, 46.39 4.78, 48.97 3.92 C51.54 3.06, 54.18 2.33, 56.84 1.75 C59.5 1.17, 62.22 0.73, 64.93 0.44 C67.64 0.15, 70.38 0, 73.11 0 C75.84 0, 78.59 0.15, 81.3 0.44 C84.01 0.73, 86.72 1.17, 89.38 1.75 C92.04 2.33, 94.69 3.06, 97.26 3.92 C99.84 4.78, 102.38 5.79, 104.84 6.92 C107.29 8.05, 109.7 9.32, 112.01 10.71 C114.32 12.1, 116.57 13.62, 118.7 15.24 C120.83 16.87, 122.88 18.62, 124.81 20.47 C126.74 22.31, 128.57 24.27, 130.28 26.31 C131.98 28.35, 133.57 30.49, 135.02 32.7 C136.47 34.91, 137.8 37.21, 138.99 39.56 C140.17 41.91, 141.22 44.33, 142.12 46.8 C143.03 49.26, 143.79 51.78, 144.39 54.33 C145 56.87, 145.46 59.46, 145.77 62.05 C146.07 64.64, 146.15 68.57, 146.23 69.87 C146.3 71.18, 146.3 68.57, 146.23 69.87" stroke="none" stroke-width="0" fill="#e03131"></path><path d="M146.23 69.87 C146.23 72.48, 146.07 75.11, 145.77 77.7 C145.46 80.29, 145 82.88, 144.39 85.42 C143.79 87.97, 143.03 90.49, 142.12 92.95 C141.22 95.41, 140.17 97.84, 138.99 100.19 C137.8 102.54, 136.47 104.84, 135.02 107.05 C133.57 109.26, 131.98 111.4, 130.28 113.44 C128.57 115.48, 126.74 117.44, 124.81 119.28 C122.88 121.13, 120.83 122.88, 118.7 124.5 C116.57 126.13, 114.32 127.65, 112.01 129.04 C109.7 130.43, 107.29 131.7, 104.84 132.83 C102.38 133.96, 99.84 134.97, 97.26 135.83 C94.69 136.69, 92.04 137.42, 89.38 138 C86.72 138.58, 84.01 139.02, 81.3 139.31 C78.59 139.6, 75.84 139.75, 73.11 139.75 C70.38 139.75, 67.64 139.6, 64.93 139.31 C62.22 139.02, 59.5 138.58, 56.84 138 C54.18 137.42, 51.54 136.69, 48.97 135.83 C46.39 134.97, 43.85 133.96, 41.39 132.83 C38.93 131.7, 36.53 130.43, 34.21 129.04 C31.9 127.65, 29.66 126.13, 27.53 124.5 C25.39 122.88, 23.34 121.13, 21.41 119.28 C19.48 117.44, 17.65 115.48, 15.95 113.44 C14.25 111.4, 12.66 109.26, 11.21 107.05 C9.75 104.84, 8.42 102.54, 7.24 100.19 C6.06 97.84, 5 95.41, 4.1 92.95 C3.2 90.49, 2.44 87.97, 1.83 85.42 C1.23 82.88, 0.77 80.29, 0.46 77.7 C0.15 75.11, 0 72.48, 0 69.87 C0 67.27, 0.15 64.64, 0.46 62.05 C0.77 59.46, 1.23 56.87, 1.83 54.33 C2.44 51.78, 3.2 49.26, 4.1 46.8 C5 44.33, 6.06 41.91, 7.24 39.56 C8.42 37.21, 9.75 34.91, 11.21 32.7 C12.66 30.49, 14.25 28.35, 15.95 26.31 C17.65 24.27, 19.48 22.31, 21.41 20.47 C23.34 18.62, 25.39 16.87, 27.53 15.24 C29.66 13.62, 31.9 12.1, 34.21 10.71 C36.53 9.32, 38.93 8.05, 41.39 6.92 C43.85 5.79, 46.39 4.78, 48.97 3.92 C51.54 3.06, 54.18 2.33, 56.84 1.75 C59.5 1.17, 62.22 0.73, 64.93 0.44 C67.64 0.15, 70.38 0, 73.11 0 C75.84 0, 78.59 0.15, 81.3 0.44 C84.01 0.73, 86.72 1.17, 89.38 1.75 C92.04 2.33, 94.69 3.06, 97.26 3.92 C99.84 4.78, 102.38 5.79, 104.84 6.92 C107.29 8.05, 109.7 9.32, 112.01 10.71 C114.32 12.1, 116.57 13.62, 118.7 15.24 C120.83 16.87, 122.88 18.62, 124.81 20.47 C126.74 22.31, 128.57 24.27, 130.28 26.31 C131.98 28.35, 133.57 30.49, 135.02 32.7 C136.47 34.91, 137.8 37.21, 138.99 39.56 C140.17 41.91, 141.22 44.33, 142.12 46.8 C143.03 49.26, 143.79 51.78, 144.39 54.33 C145 56.87, 145.46 59.46, 145.77 62.05 C146.07 64.64, 146.15 68.57, 146.23 69.87 C146.3 71.18, 146.3 68.57, 146.23 69.87" stroke="transparent" stroke-width="1.5" fill="none" stroke-dasharray="8 9"></path></g><g transform="translate(373.69796779364344 1394.275973761099) rotate(0 32.8125 9.600000000000023)"><text x="32.8125" y="0" font-family="Cascadia, Segoe UI Emoji" font-size="16px" fill="#ffffff" text-anchor="middle" style="white-space: pre;" direction="ltr" dominant-baseline="text-before-edge">Mounted</text></g><g stroke-linecap="round"><g transform="translate(744.1951173534306 1279.775382758396) rotate(0 62.1058603853088 -33.130800415719875)"><path d="M0 0 C41.22 -21.99, 82.44 -43.98, 124.21 -66.26" stroke="#e03131" stroke-width="4.5" fill="none" stroke-dasharray="8 12"></path></g><g transform="translate(744.1951173534306 1279.775382758396) rotate(0 62.1058603853088 -33.130800415719875)"><path d="M107.51 -47.66 C113.05 -53.83, 118.6 -60.01, 124.21 -66.26" stroke="#e03131" stroke-width="4.5" fill="none"></path></g><g transform="translate(744.1951173534306 1279.775382758396) rotate(0 62.1058603853088 -33.130800415719875)"><path d="M99.46 -62.75 C107.67 -63.91, 115.89 -65.08, 124.21 -66.26" stroke="#e03131" stroke-width="4.5" fill="none"></path></g></g><mask></mask><g stroke-linecap="round" transform="translate(869.0448913574218 1158.9587860107422) rotate(0 76.75634765624989 26.892501831054688)"><path d="M13.45 0 C63.29 0, 113.14 0, 140.07 0 M13.45 0 C59.19 0, 104.93 0, 140.07 0 M140.07 0 C149.03 0, 153.51 4.48, 153.51 13.45 M140.07 0 C149.03 0, 153.51 4.48, 153.51 13.45 M153.51 13.45 C153.51 20.44, 153.51 27.44, 153.51 40.34 M153.51 13.45 C153.51 21.25, 153.51 29.06, 153.51 40.34 M153.51 40.34 C153.51 49.3, 149.03 53.79, 140.07 53.79 M153.51 40.34 C153.51 49.3, 149.03 53.79, 140.07 53.79 M140.07 53.79 C97.1 53.79, 54.13 53.79, 13.45 53.79 M140.07 53.79 C105.94 53.79, 71.82 53.79, 13.45 53.79 M13.45 53.79 C4.48 53.79, 0 49.3, 0 40.34 M13.45 53.79 C4.48 53.79, 0 49.3, 0 40.34 M0 40.34 C0 33.7, 0 27.05, 0 13.45 M0 40.34 C0 32.91, 0 25.49, 0 13.45 M0 13.45 C0 4.48, 4.48 0, 13.45 0 M0 13.45 C0 4.48, 4.48 0, 13.45 0" stroke="#e03131" stroke-width="4" fill="none"></path></g><g transform="translate(889.5512390136715 1176.251287841797) rotate(0 56.25 9.600000000000023)"><text x="56.25" y="0" font-family="Cascadia, Segoe UI Emoji" font-size="16px" fill="#e03131" text-anchor="middle" style="white-space: pre;" direction="ltr" dominant-baseline="text-before-edge">beforeUpdate</text></g><g stroke-linecap="round"><g transform="translate(736.3628022069887 1523.5794640773452) rotate(0 62.105860385308915 33.13080041571993)"><path d="M0 0 C40.72 21.72, 81.44 43.44, 124.21 66.26" stroke="#e03131" stroke-width="4.5" fill="none" stroke-dasharray="8 12"></path></g><g transform="translate(736.3628022069887 1523.5794640773452) rotate(0 62.105860385308915 33.13080041571993)"><path d="M99.46 62.75 C107.57 63.9, 115.69 65.05, 124.21 66.26" stroke="#e03131" stroke-width="4.5" fill="none"></path></g><g transform="translate(736.3628022069887 1523.5794640773452) rotate(0 62.105860385308915 33.13080041571993)"><path d="M107.51 47.66 C112.98 53.76, 118.46 59.86, 124.21 66.26" stroke="#e03131" stroke-width="4.5" fill="none"></path></g></g><mask></mask><g stroke-linecap="round" transform="translate(861.2125762109798 1590.61105716289) rotate(0 76.75634765624989 26.892501831054688)"><path d="M13.45 0 C55.41 0, 97.38 0, 140.07 0 M13.45 0 C61.75 0, 110.06 0, 140.07 0 M140.07 0 C149.03 0, 153.51 4.48, 153.51 13.45 M140.07 0 C149.03 0, 153.51 4.48, 153.51 13.45 M153.51 13.45 C153.51 22.97, 153.51 32.49, 153.51 40.34 M153.51 13.45 C153.51 22.75, 153.51 32.06, 153.51 40.34 M153.51 40.34 C153.51 49.3, 149.03 53.79, 140.07 53.79 M153.51 40.34 C153.51 49.3, 149.03 53.79, 140.07 53.79 M140.07 53.79 C112.59 53.79, 85.1 53.79, 13.45 53.79 M140.07 53.79 C89.73 53.79, 39.39 53.79, 13.45 53.79 M13.45 53.79 C4.48 53.79, 0 49.3, 0 40.34 M13.45 53.79 C4.48 53.79, 0 49.3, 0 40.34 M0 40.34 C0 32.5, 0 24.66, 0 13.45 M0 40.34 C0 33.07, 0 25.8, 0 13.45 M0 13.45 C0 4.48, 4.48 0, 13.45 0 M0 13.45 C0 4.48, 4.48 0, 13.45 0" stroke="#e03131" stroke-width="4" fill="none"></path></g><g transform="translate(909.8439238672298 1607.9035589939447) rotate(0 28.125 9.600000000000023)"><text x="28.125" y="0" font-family="Cascadia, Segoe UI Emoji" font-size="16.000000000000014px" fill="#e03131" text-anchor="middle" style="white-space: pre;" direction="ltr" dominant-baseline="text-before-edge">update</text></g><g mask="url(#mask-8X2tU9ziHXY5vlF_DpNwl)" stroke-linecap="round"><g transform="translate(408.06661987304676 1475.0905456542969) rotate(0 1.20050048828125 135.11026000976562)"><path d="M0 0 C0.79 89.42, 1.59 178.84, 2.4 270.22" stroke="#ced4da" stroke-width="4.5" fill="none" stroke-dasharray="8 12"></path></g><g transform="translate(408.06661987304676 1475.0905456542969) rotate(0 1.20050048828125 135.11026000976562)"><path d="M-6.36 246.81 C-3.46 254.55, -0.56 262.3, 2.4 270.22" stroke="#ced4da" stroke-width="4.5" fill="none"></path></g><g transform="translate(408.06661987304676 1475.0905456542969) rotate(0 1.20050048828125 135.11026000976562)"><path d="M10.74 246.65 C7.98 254.45, 5.22 262.25, 2.4 270.22" stroke="#ced4da" stroke-width="4.5" fill="none"></path></g></g><mask id="mask-8X2tU9ziHXY5vlF_DpNwl"><rect x="0" y="0" fill="#fff" width="510.46762084960926" height="1845.3110656738281"></rect><rect x="324.8921203613281" y="1581.4008056640625" fill="#000" width="168.75" height="57.599999999999994" opacity="1"></rect></mask><g transform="translate(324.8921203613281 1581.4008056640623) rotate(0 84.375 28.799999999999955)"><text x="84.375" y="0" font-family="Cascadia, Segoe UI Emoji" font-size="16px" fill="#1e1e1e" text-anchor="middle" style="white-space: pre;" direction="ltr" dominant-baseline="text-before-edge">when component is </text><text x="84.375" y="19.2" font-family="Cascadia, Segoe UI Emoji" font-size="16px" fill="#1e1e1e" text-anchor="middle" style="white-space: pre;" direction="ltr" dominant-baseline="text-before-edge">unmounted</text><text x="84.375" y="38.4" font-family="Cascadia, Segoe UI Emoji" font-size="16px" fill="#1e1e1e" text-anchor="middle" style="white-space: pre;" direction="ltr" dominant-baseline="text-before-edge">(当组件被卸载时)</text></g><g stroke-linecap="round" transform="translate(46.02980041503895 1666.343734741211) rotate(0 76.75634765624989 26.892501831054688)"><path d="M13.45 0 C49.95 0, 86.45 0, 140.07 0 M13.45 0 C57.32 0, 101.2 0, 140.07 0 M140.07 0 C149.03 0, 153.51 4.48, 153.51 13.45 M140.07 0 C149.03 0, 153.51 4.48, 153.51 13.45 M153.51 13.45 C153.51 19.38, 153.51 25.31, 153.51 40.34 M153.51 13.45 C153.51 23.59, 153.51 33.74, 153.51 40.34 M153.51 40.34 C153.51 49.3, 149.03 53.79, 140.07 53.79 M153.51 40.34 C153.51 49.3, 149.03 53.79, 140.07 53.79 M140.07 53.79 C104.58 53.79, 69.1 53.79, 13.45 53.79 M140.07 53.79 C105.74 53.79, 71.42 53.79, 13.45 53.79 M13.45 53.79 C4.48 53.79, 0 49.3, 0 40.34 M13.45 53.79 C4.48 53.79, 0 49.3, 0 40.34 M0 40.34 C0 33.79, 0 27.23, 0 13.45 M0 40.34 C0 33.43, 0 26.52, 0 13.45 M0 13.45 C0 4.48, 4.48 0, 13.45 0 M0 13.45 C0 4.48, 4.48 0, 13.45 0" stroke="#e03131" stroke-width="4" fill="none"></path></g><g transform="translate(61.848648071288835 1683.6362365722657) rotate(0 60.93750000000006 9.600000000000023)"><text x="60.9375" y="0" font-family="Cascadia, Segoe UI Emoji" font-size="16px" fill="#e03131" text-anchor="middle" style="white-space: pre;" direction="ltr" dominant-baseline="text-before-edge">beforeUnmount</text></g><g stroke-linecap="round"><g transform="translate(406.4631805419921 1693.2630767822266) rotate(0 -96.21045487680203 -0.789720025641941)"><path d="M0 0 C-32.07 -0.26, -160.35 -1.32, -192.42 -1.58" stroke="#e03131" stroke-width="4.5" fill="none" stroke-dasharray="8 12"></path></g><g transform="translate(406.4631805419921 1693.2630767822266) rotate(0 -96.21045487680203 -0.789720025641941)"><path d="M-168.86 -9.94 C-177.96 -6.71, -187.06 -3.48, -192.42 -1.58" stroke="#e03131" stroke-width="4.5" fill="none"></path></g><g transform="translate(406.4631805419921 1693.2630767822266) rotate(0 -96.21045487680203 -0.789720025641941)"><path d="M-169 7.16 C-178.04 3.79, -187.09 0.41, -192.42 -1.58" stroke="#e03131" stroke-width="4.5" fill="none"></path></g></g><mask></mask><g stroke-linecap="round" transform="translate(336.40216064453114 1742.1399536132812) rotate(0 73.11343383789062 69.87435913085938)"><path d="M146.23 69.87 C146.23 72.48, 146.07 75.11, 145.77 77.7 C145.46 80.29, 145 82.88, 144.39 85.42 C143.79 87.97, 143.03 90.49, 142.12 92.95 C141.22 95.41, 140.17 97.84, 138.99 100.19 C137.8 102.54, 136.47 104.84, 135.02 107.05 C133.57 109.26, 131.98 111.4, 130.28 113.44 C128.57 115.48, 126.74 117.44, 124.81 119.28 C122.88 121.13, 120.83 122.88, 118.7 124.5 C116.57 126.13, 114.32 127.65, 112.01 129.04 C109.7 130.43, 107.29 131.7, 104.84 132.83 C102.38 133.96, 99.84 134.97, 97.26 135.83 C94.69 136.69, 92.04 137.42, 89.38 138 C86.72 138.58, 84.01 139.02, 81.3 139.31 C78.59 139.6, 75.84 139.75, 73.11 139.75 C70.38 139.75, 67.64 139.6, 64.93 139.31 C62.22 139.02, 59.5 138.58, 56.84 138 C54.18 137.42, 51.54 136.69, 48.97 135.83 C46.39 134.97, 43.85 133.96, 41.39 132.83 C38.93 131.7, 36.53 130.43, 34.21 129.04 C31.9 127.65, 29.66 126.13, 27.53 124.5 C25.39 122.88, 23.34 121.13, 21.41 119.28 C19.48 117.44, 17.65 115.48, 15.95 113.44 C14.25 111.4, 12.66 109.26, 11.21 107.05 C9.75 104.84, 8.42 102.54, 7.24 100.19 C6.06 97.84, 5 95.41, 4.1 92.95 C3.2 90.49, 2.44 87.97, 1.83 85.42 C1.23 82.88, 0.77 80.29, 0.46 77.7 C0.15 75.11, 0 72.48, 0 69.87 C0 67.27, 0.15 64.64, 0.46 62.05 C0.77 59.46, 1.23 56.87, 1.83 54.33 C2.44 51.78, 3.2 49.26, 4.1 46.8 C5 44.33, 6.06 41.91, 7.24 39.56 C8.42 37.21, 9.75 34.91, 11.21 32.7 C12.66 30.49, 14.25 28.35, 15.95 26.31 C17.65 24.27, 19.48 22.31, 21.41 20.47 C23.34 18.62, 25.39 16.87, 27.53 15.24 C29.66 13.62, 31.9 12.1, 34.21 10.71 C36.53 9.32, 38.93 8.05, 41.39 6.92 C43.85 5.79, 46.39 4.78, 48.97 3.92 C51.54 3.06, 54.18 2.33, 56.84 1.75 C59.5 1.17, 62.22 0.73, 64.93 0.44 C67.64 0.15, 70.38 0, 73.11 0 C75.84 0, 78.59 0.15, 81.3 0.44 C84.01 0.73, 86.72 1.17, 89.38 1.75 C92.04 2.33, 94.69 3.06, 97.26 3.92 C99.84 4.78, 102.38 5.79, 104.84 6.92 C107.29 8.05, 109.7 9.32, 112.01 10.71 C114.32 12.1, 116.57 13.62, 118.7 15.24 C120.83 16.87, 122.88 18.62, 124.81 20.47 C126.74 22.31, 128.57 24.27, 130.28 26.31 C131.98 28.35, 133.57 30.49, 135.02 32.7 C136.47 34.91, 137.8 37.21, 138.99 39.56 C140.17 41.91, 141.22 44.33, 142.12 46.8 C143.03 49.26, 143.79 51.78, 144.39 54.33 C145 56.87, 145.46 59.46, 145.77 62.05 C146.07 64.64, 146.15 68.57, 146.23 69.87 C146.3 71.18, 146.3 68.57, 146.23 69.87" stroke="none" stroke-width="0" fill="#e03131"></path><path d="M146.23 69.87 C146.23 72.48, 146.07 75.11, 145.77 77.7 C145.46 80.29, 145 82.88, 144.39 85.42 C143.79 87.97, 143.03 90.49, 142.12 92.95 C141.22 95.41, 140.17 97.84, 138.99 100.19 C137.8 102.54, 136.47 104.84, 135.02 107.05 C133.57 109.26, 131.98 111.4, 130.28 113.44 C128.57 115.48, 126.74 117.44, 124.81 119.28 C122.88 121.13, 120.83 122.88, 118.7 124.5 C116.57 126.13, 114.32 127.65, 112.01 129.04 C109.7 130.43, 107.29 131.7, 104.84 132.83 C102.38 133.96, 99.84 134.97, 97.26 135.83 C94.69 136.69, 92.04 137.42, 89.38 138 C86.72 138.58, 84.01 139.02, 81.3 139.31 C78.59 139.6, 75.84 139.75, 73.11 139.75 C70.38 139.75, 67.64 139.6, 64.93 139.31 C62.22 139.02, 59.5 138.58, 56.84 138 C54.18 137.42, 51.54 136.69, 48.97 135.83 C46.39 134.97, 43.85 133.96, 41.39 132.83 C38.93 131.7, 36.53 130.43, 34.21 129.04 C31.9 127.65, 29.66 126.13, 27.53 124.5 C25.39 122.88, 23.34 121.13, 21.41 119.28 C19.48 117.44, 17.65 115.48, 15.95 113.44 C14.25 111.4, 12.66 109.26, 11.21 107.05 C9.75 104.84, 8.42 102.54, 7.24 100.19 C6.06 97.84, 5 95.41, 4.1 92.95 C3.2 90.49, 2.44 87.97, 1.83 85.42 C1.23 82.88, 0.77 80.29, 0.46 77.7 C0.15 75.11, 0 72.48, 0 69.87 C0 67.27, 0.15 64.64, 0.46 62.05 C0.77 59.46, 1.23 56.87, 1.83 54.33 C2.44 51.78, 3.2 49.26, 4.1 46.8 C5 44.33, 6.06 41.91, 7.24 39.56 C8.42 37.21, 9.75 34.91, 11.21 32.7 C12.66 30.49, 14.25 28.35, 15.95 26.31 C17.65 24.27, 19.48 22.31, 21.41 20.47 C23.34 18.62, 25.39 16.87, 27.53 15.24 C29.66 13.62, 31.9 12.1, 34.21 10.71 C36.53 9.32, 38.93 8.05, 41.39 6.92 C43.85 5.79, 46.39 4.78, 48.97 3.92 C51.54 3.06, 54.18 2.33, 56.84 1.75 C59.5 1.17, 62.22 0.73, 64.93 0.44 C67.64 0.15, 70.38 0, 73.11 0 C75.84 0, 78.59 0.15, 81.3 0.44 C84.01 0.73, 86.72 1.17, 89.38 1.75 C92.04 2.33, 94.69 3.06, 97.26 3.92 C99.84 4.78, 102.38 5.79, 104.84 6.92 C107.29 8.05, 109.7 9.32, 112.01 10.71 C114.32 12.1, 116.57 13.62, 118.7 15.24 C120.83 16.87, 122.88 18.62, 124.81 20.47 C126.74 22.31, 128.57 24.27, 130.28 26.31 C131.98 28.35, 133.57 30.49, 135.02 32.7 C136.47 34.91, 137.8 37.21, 138.99 39.56 C140.17 41.91, 141.22 44.33, 142.12 46.8 C143.03 49.26, 143.79 51.78, 144.39 54.33 C145 56.87, 145.46 59.46, 145.77 62.05 C146.07 64.64, 146.15 68.57, 146.23 69.87 C146.3 71.18, 146.3 68.57, 146.23 69.87" stroke="transparent" stroke-width="1.5" fill="none" stroke-dasharray="8 9"></path></g><g transform="translate(367.1290896198153 1802.505679571646) rotate(0 42.1875 9.600000000000023)"><text x="42.1875" y="0" font-family="Cascadia, Segoe UI Emoji" font-size="16px" fill="#ffffff" text-anchor="middle" style="white-space: pre;" direction="ltr" dominant-baseline="text-before-edge">Unmounted</text></g><g stroke-linecap="round" transform="translate(48.09983825683571 1791.1487884521484) rotate(0 76.75634765624983 26.892501831054688)"><path d="M13.45 0 C60.34 0, 107.22 0, 140.07 0 M13.45 0 C47.67 0, 81.9 0, 140.07 0 M140.07 0 C149.03 0, 153.51 4.48, 153.51 13.45 M140.07 0 C149.03 0, 153.51 4.48, 153.51 13.45 M153.51 13.45 C153.51 20.83, 153.51 28.21, 153.51 40.34 M153.51 13.45 C153.51 22.71, 153.51 31.97, 153.51 40.34 M153.51 40.34 C153.51 49.3, 149.03 53.79, 140.07 53.79 M153.51 40.34 C153.51 49.3, 149.03 53.79, 140.07 53.79 M140.07 53.79 C101.97 53.79, 63.87 53.79, 13.45 53.79 M140.07 53.79 C96.33 53.79, 52.6 53.79, 13.45 53.79 M13.45 53.79 C4.48 53.79, 0 49.3, 0 40.34 M13.45 53.79 C4.48 53.79, 0 49.3, 0 40.34 M0 40.34 C0 31.24, 0 22.15, 0 13.45 M0 40.34 C0 32.37, 0 24.4, 0 13.45 M0 13.45 C0 4.48, 4.48 0, 13.45 0 M0 13.45 C0 4.48, 4.48 0, 13.45 0" stroke="#e03131" stroke-width="4" fill="none"></path></g><g transform="translate(82.6686859130856 1808.4412902832032) rotate(0 42.1875 9.600000000000023)"><text x="42.1875" y="0" font-family="Cascadia, Segoe UI Emoji" font-size="16px" fill="#e03131" text-anchor="middle" style="white-space: pre;" direction="ltr" dominant-baseline="text-before-edge">unmounted</text></g><g stroke-linecap="round"><g transform="translate(332.21340642360667 1816.6370876505202) rotate(0 -58.05054889671089 -0.24404965889368668)"><path d="M0 0 C-19.35 -0.08, -96.75 -0.41, -116.1 -0.49" stroke="#e03131" stroke-width="4.5" fill="none" stroke-dasharray="8 12"></path></g><g transform="translate(332.21340642360667 1816.6370876505202) rotate(0 -58.05054889671089 -0.24404965889368668)"><path d="M-92.57 -8.94 C-100.25 -6.18, -107.92 -3.43, -116.1 -0.49" stroke="#e03131" stroke-width="4.5" fill="none"></path></g><g transform="translate(332.21340642360667 1816.6370876505202) rotate(0 -58.05054889671089 -0.24404965889368668)"><path d="M-92.64 8.16 C-100.3 5.34, -107.95 2.52, -116.1 -0.49" stroke="#e03131" stroke-width="4.5" fill="none"></path></g></g><mask></mask></svg>