<svg version="1.1" xmlns="http://www.w3.org/2000/svg" viewBox="0 0 1041.0565490722656 324.8275604248047" width="1041.0565490722656" height="324.8275604248047">
  <!-- svg-source:excalidraw -->
  
  <defs>
    <style class="style-fonts">
      @font-face {
        font-family: "Virgil";
        src: url("https://excalidraw.com/Virgil.woff2");
      }
      @font-face {
        font-family: "Cascadia";
        src: url("https://excalidraw.com/Cascadia.woff2");
      }
      @font-face {
        font-family: "Assistant";
        src: url("https://excalidraw.com/Assistant-Regular.woff2");
      }
    </style>
    
  </defs>
  <g transform="translate(18.343963623046875 26.700250244140648) rotate(0 24.023101806640625 14.413861083984386)"><text x="0" y="0" font-family="Cascadia, Segoe UI Emoji" font-size="24.023101806640607px" fill="#1e1e1e" text-anchor="start" style="white-space: pre;" direction="ltr" dominant-baseline="text-before-edge">依赖</text></g><g stroke-linecap="round" transform="translate(10 63.79351806640625) rotate(0 134.14955139160156 85.48828125)"><path d="M0 0 C0 0, 0 0, 0 0 M0 0 C0 0, 0 0, 0 0 M0.13 12.04 C4.21 9.24, 6.62 4.33, 10.63 -0.03 M0.13 12.04 C3.52 7.64, 6.84 2.87, 10.63 -0.03 M0.27 24.08 C5.65 16.26, 9.78 12.56, 21.26 -0.07 M0.27 24.08 C8.06 14.08, 16.38 6.32, 21.26 -0.07 M-0.26 36.88 C8.98 27.41, 17.96 13.21, 31.89 -0.1 M-0.26 36.88 C11.97 23.51, 22.49 10.54, 31.89 -0.1 M-0.12 48.92 C12.29 37.31, 21.68 23.24, 42.52 -0.14 M-0.12 48.92 C14.22 33.75, 27.5 17.33, 42.52 -0.14 M0.01 60.96 C16.62 46.03, 30.8 28.73, 53.15 -0.17 M0.01 60.96 C12.14 46.25, 23.21 32.71, 53.15 -0.17 M0.14 73 C17.1 57.03, 29.36 37.85, 63.78 -0.21 M0.14 73 C12.34 59.08, 25.05 43.61, 63.78 -0.21 M0.28 85.04 C19.4 64.99, 35.21 45.78, 74.41 -0.24 M0.28 85.04 C16.09 65.91, 30.93 47.05, 74.41 -0.24 M-0.25 97.84 C23.25 68.08, 48.52 40.58, 85.04 -0.28 M-0.25 97.84 C18.85 75.33, 39.3 52.18, 85.04 -0.28 M-0.11 109.88 C21.48 82.41, 44.7 57.49, 95.67 -0.31 M-0.11 109.88 C22.83 84.06, 45.06 58.2, 95.67 -0.31 M0.02 121.92 C21.12 96.91, 40.62 74.91, 106.3 -0.34 M0.02 121.92 C36.8 81.88, 71.29 39.39, 106.3 -0.34 M0.15 133.96 C34.44 94.6, 70.83 52.93, 116.27 0.38 M0.15 133.96 C41.45 88.01, 83.45 40.75, 116.27 0.38 M0.29 146 C40.87 95.48, 83.5 48.85, 126.91 0.34 M0.29 146 C45.23 95.24, 89.76 41.74, 126.91 0.34 M-0.24 158.8 C37.57 116.76, 72.69 75.5, 137.54 0.31 M-0.24 158.8 C35.64 117.46, 71.09 75.76, 137.54 0.31 M-0.1 170.84 C49.98 113.16, 97.88 57.68, 148.17 0.27 M-0.1 170.84 C50.6 112.77, 100.36 54.74, 148.17 0.27 M9.87 171.56 C55.39 119.61, 97.95 67.67, 158.8 0.24 M9.87 171.56 C40.75 134.67, 73.03 99.16, 158.8 0.24 M20.5 171.52 C79.42 102.95, 139.79 35.07, 169.43 0.2 M20.5 171.52 C79.03 104.39, 137.2 36.08, 169.43 0.2 M31.13 171.49 C89 102.74, 148.48 35.88, 180.06 0.17 M31.13 171.49 C72.43 123.58, 113.87 76.03, 180.06 0.17 M41.76 171.45 C82.42 125.56, 120.43 79.8, 190.69 0.13 M41.76 171.45 C80.37 126.74, 118.52 82.36, 190.69 0.13 M52.39 171.42 C99.71 117.27, 142.88 66.82, 201.32 0.1 M52.39 171.42 C97.94 118.59, 143.38 66.3, 201.32 0.1 M63.02 171.38 C93.14 134.84, 126.73 97.71, 211.95 0.06 M63.02 171.38 C113.27 114.3, 161.76 56.12, 211.95 0.06 M73.65 171.35 C129.38 103.21, 189.49 37.11, 222.58 0.03 M73.65 171.35 C126.3 112.43, 177.19 52.28, 222.58 0.03 M84.28 171.31 C118.95 134.34, 151.77 94.68, 233.21 0 M84.28 171.31 C118.02 132.03, 150.16 94.54, 233.21 0 M94.91 171.28 C147.23 109.31, 201.53 48.95, 243.84 -0.04 M94.91 171.28 C130.53 131.46, 163.01 92.75, 243.84 -0.04 M105.54 171.25 C137.06 132.82, 173.8 90.72, 254.47 -0.07 M105.54 171.25 C139.36 132.98, 170.67 94.49, 254.47 -0.07 M116.17 171.21 C165.57 115.21, 217.75 57.03, 265.1 -0.11 M116.17 171.21 C174.53 103.95, 232.9 37.11, 265.1 -0.11 M126.8 171.18 C170.52 123.11, 210.9 77.32, 268.51 8.16 M126.8 171.18 C157.17 134.41, 187.75 99.39, 268.51 8.16 M136.77 171.9 C189.47 112.17, 240.1 52.84, 268.64 20.2 M136.77 171.9 C169.21 134.19, 200.47 98.89, 268.64 20.2 M147.4 171.86 C174.13 141.21, 200.76 108.96, 268.78 32.24 M147.4 171.86 C193.67 116.09, 241.72 62.36, 268.78 32.24 M158.04 171.83 C183.8 143.04, 208.19 113.98, 268.91 44.28 M158.04 171.83 C179.56 144.67, 201.69 118.36, 268.91 44.28 M168.67 171.79 C203.05 131.64, 232.62 94.74, 268.39 57.08 M168.67 171.79 C201.09 134.76, 231.39 100.24, 268.39 57.08 M179.3 171.76 C204.96 145.07, 227.5 114.33, 268.52 69.12 M179.3 171.76 C203.48 143.27, 227.66 114.62, 268.52 69.12 M189.93 171.72 C212.36 145.45, 235.16 118.75, 268.65 81.16 M189.93 171.72 C208.83 148.56, 229.35 125.76, 268.65 81.16 M200.56 171.69 C215.29 154.17, 227.66 137.12, 268.79 93.2 M200.56 171.69 C217.67 149.05, 237.47 128.54, 268.79 93.2 M211.19 171.66 C226.51 151.24, 245.19 131.75, 268.92 105.24 M211.19 171.66 C227.12 154.78, 241.35 135.77, 268.92 105.24 M221.82 171.62 C231.7 160.24, 242.66 149.89, 268.4 118.04 M221.82 171.62 C237.16 153.38, 254.47 134.69, 268.4 118.04 M232.45 171.59 C243.02 157.89, 251.27 149.39, 268.53 130.08 M232.45 171.59 C243.16 158.42, 252.98 147.19, 268.53 130.08 M243.08 171.55 C251.19 162.01, 259.06 151.63, 268.66 142.12 M243.08 171.55 C251.38 162.58, 259.55 152.88, 268.66 142.12 M253.71 171.52 C259.12 167.59, 260.5 160.95, 268.8 154.16 M253.71 171.52 C257.39 166.47, 261.35 162.02, 268.8 154.16 M264.34 171.48 C265.56 170.22, 267.05 167.33, 268.93 166.2 M264.34 171.48 C265.68 169.56, 267.62 167.84, 268.93 166.2" stroke="#a5d8ff" stroke-width="1" fill="none"></path><path d="M0 0 C93.62 -3.33, 185.36 -1.32, 268.3 0 M0 0 C100.1 -2.14, 200.15 -1.25, 268.3 0 M268.3 0 C266.17 37.66, 267.53 74.82, 268.3 170.98 M268.3 0 C269.16 35.04, 269.9 69, 268.3 170.98 M268.3 170.98 C164.71 170.61, 60.41 171.32, 0 170.98 M268.3 170.98 C211.05 172.46, 152.23 172.39, 0 170.98 M0 170.98 C1.29 129.05, 0.18 86.38, 0 0 M0 170.98 C0.32 131.09, 1.33 93.94, 0 0" stroke="#1e1e1e" stroke-width="2" fill="none"></path></g><g transform="translate(69.14955139160156 101.28179931640625) rotate(0 75 48)"><text x="75" y="0" font-family="Cascadia, Segoe UI Emoji" font-size="16px" fill="#1e1e1e" text-anchor="middle" style="white-space: pre;" direction="ltr" dominant-baseline="text-before-edge">&lt;p&gt;{{name1}}&lt;/p&gt;</text><text x="75" y="19.2" font-family="Cascadia, Segoe UI Emoji" font-size="16px" fill="#1e1e1e" text-anchor="middle" style="white-space: pre;" direction="ltr" dominant-baseline="text-before-edge"></text><text x="75" y="38.4" font-family="Cascadia, Segoe UI Emoji" font-size="16px" fill="#1e1e1e" text-anchor="middle" style="white-space: pre;" direction="ltr" dominant-baseline="text-before-edge">&lt;p&gt;{{name2}}&lt;/p&gt;</text><text x="75" y="57.599999999999994" font-family="Cascadia, Segoe UI Emoji" font-size="16px" fill="#1e1e1e" text-anchor="middle" style="white-space: pre;" direction="ltr" dominant-baseline="text-before-edge"></text><text x="75" y="76.8" font-family="Cascadia, Segoe UI Emoji" font-size="16px" fill="#1e1e1e" text-anchor="middle" style="white-space: pre;" direction="ltr" dominant-baseline="text-before-edge">&lt;p&gt;{{name1}}&lt;/p&gt;</text></g><g mask="url(#mask--liVGz8Gw9lDnWImXi4xj)" stroke-linecap="round"><g transform="translate(284.5702819824219 151.86511119622287) rotate(0 78.74530029296875 -0.31556057809439153)"><path d="M0 0 C49.7 -1.45, 101.59 -0.23, 157.49 -0.63 M0 0 C55.05 0.43, 108.69 1.18, 157.49 -0.63" stroke="#1e1e1e" stroke-width="2" fill="none"></path></g><g transform="translate(284.5702819824219 151.86511119622287) rotate(0 78.74530029296875 -0.31556057809439153)"><path d="M134.2 8.45 C140.36 3.78, 148.73 2.26, 157.49 -0.63 M134.2 8.45 C142.8 4.91, 149.98 2.73, 157.49 -0.63" stroke="#1e1e1e" stroke-width="2" fill="none"></path></g><g transform="translate(284.5702819824219 151.86511119622287) rotate(0 78.74530029296875 -0.31556057809439153)"><path d="M133.81 -8.65 C140.12 -7.77, 148.62 -3.74, 157.49 -0.63 M133.81 -8.65 C142.53 -6.27, 149.84 -2.52, 157.49 -0.63" stroke="#1e1e1e" stroke-width="2" fill="none"></path></g></g><mask id="mask--liVGz8Gw9lDnWImXi4xj"><rect x="0" y="0" fill="#fff" width="542.0608825683594" height="252.49623235241165"></rect><rect x="347.3155822753906" y="141.94955061812857" fill="#000" width="32" height="19.2" opacity="1"></rect></mask><g transform="translate(347.3155822753906 141.94955061812857) rotate(0 16 9.811175138581802)"><text x="16" y="0" font-family="Cascadia, Segoe UI Emoji" font-size="16px" fill="#1e1e1e" text-anchor="middle" style="white-space: pre;" direction="ltr" dominant-baseline="text-before-edge">收集</text></g><g stroke-linecap="round" transform="translate(460.9201965332031 17.660308837890625) rotate(0 93.56228637695312 35.812896728515625)"><path d="M0 0 C0 0, 0 0, 0 0 M0 0 C0 0, 0 0, 0 0 M0.13 12.04 C5.03 8.13, 8.43 4.38, 10.63 -0.03 M0.13 12.04 C2.36 9.15, 5.63 6.67, 10.63 -0.03 M0.27 24.08 C7.56 17.45, 14.34 9.12, 21.26 -0.07 M0.27 24.08 C3.96 20.05, 9.67 13.77, 21.26 -0.07 M-0.26 36.88 C7.73 28.33, 15.42 18.41, 31.89 -0.1 M-0.26 36.88 C6.55 27.42, 15.05 19.28, 31.89 -0.1 M-0.12 48.92 C10.91 37.4, 20.74 21.8, 42.52 -0.14 M-0.12 48.92 C10.63 36.87, 19.23 25.16, 42.52 -0.14 M0.01 60.96 C12.48 47.78, 24.2 32.33, 53.15 -0.17 M0.01 60.96 C15.83 42.04, 31.53 24.21, 53.15 -0.17 M1.45 71.49 C27.82 42.2, 51.83 14.92, 63.78 -0.21 M1.45 71.49 C23.94 46.16, 44.61 23.01, 63.78 -0.21 M12.09 71.46 C33.28 45.36, 56.87 22.98, 74.41 -0.24 M12.09 71.46 C26.28 55.89, 40.81 39.45, 74.41 -0.24 M22.72 71.42 C37.45 55.45, 48.79 41.44, 85.04 -0.28 M22.72 71.42 C39.05 51.57, 54.77 33.03, 85.04 -0.28 M33.35 71.39 C56.66 44.58, 81.38 17.16, 95.67 -0.31 M33.35 71.39 C47.44 55.78, 61.94 39.3, 95.67 -0.31 M43.98 71.35 C56.55 57.87, 70.07 42.04, 106.3 -0.34 M43.98 71.35 C66.82 43.54, 90.15 18.51, 106.3 -0.34 M54.61 71.32 C73.61 49.28, 92.99 24.72, 116.27 0.38 M54.61 71.32 C77.48 44.34, 101.24 17.77, 116.27 0.38 M65.24 71.28 C77.05 56.17, 92.9 38.3, 126.91 0.34 M65.24 71.28 C87.79 44.26, 110.88 17.47, 126.91 0.34 M75.21 72 C97.42 45.36, 119.8 21.91, 137.54 0.31 M75.21 72 C95.65 48.79, 116.92 24.8, 137.54 0.31 M85.84 71.97 C110.6 41.66, 136.05 15.76, 148.17 0.27 M85.84 71.97 C98.06 57.8, 112.69 41.48, 148.17 0.27 M96.47 71.93 C112.32 52.6, 132.3 30.97, 158.8 0.24 M96.47 71.93 C110.99 56.29, 124.11 38.92, 158.8 0.24 M107.1 71.9 C122.47 53.53, 140.1 33.47, 169.43 0.2 M107.1 71.9 C128.55 45.74, 150.27 20.63, 169.43 0.2 M117.73 71.87 C130.31 56.42, 145.92 39.28, 180.06 0.17 M117.73 71.87 C142.73 44.53, 166.95 16.42, 180.06 0.17 M128.36 71.83 C141.24 55.29, 159.36 36.07, 187.41 3.91 M128.36 71.83 C145.52 50.77, 163.93 30.97, 187.41 3.91 M138.99 71.8 C158.34 50.94, 175.3 31.05, 187.54 15.95 M138.99 71.8 C151.14 57.5, 162.49 45.2, 187.54 15.95 M149.62 71.76 C165.54 53.94, 177.69 36.93, 187.67 27.99 M149.62 71.76 C162.23 59.19, 171.7 45.1, 187.67 27.99 M160.25 71.73 C169.43 62.69, 174.32 54.21, 187.8 40.03 M160.25 71.73 C170.02 60.13, 178.46 49.7, 187.8 40.03 M170.88 71.69 C175.5 63.24, 183.91 57.22, 187.94 52.07 M170.88 71.69 C175.38 66.98, 178.33 63.33, 187.94 52.07 M181.51 71.66 C182.91 69.91, 185.1 67.69, 187.41 64.87 M181.51 71.66 C182.93 70.2, 183.54 68.71, 187.41 64.87" stroke="#fab005" stroke-width="1" fill="none"></path><path d="M0 0 C71.01 -0.42, 142.77 -1.32, 187.12 0 M0 0 C57.9 -0.72, 118.38 -1.39, 187.12 0 M187.12 0 C185.9 22.75, 185.42 45.16, 187.12 71.63 M187.12 0 C187.56 22.88, 188.22 43.76, 187.12 71.63 M187.12 71.63 C144.62 70.95, 104.37 71.18, 0 71.63 M187.12 71.63 C118.8 70.97, 50.21 70.61, 0 71.63 M0 71.63 C1.37 54.73, 0.22 34.38, 0 0 M0 71.63 C0.26 48.22, -0.24 25.37, 0 0" stroke="#1e1e1e" stroke-width="2" fill="none"></path></g><g transform="translate(502.91998291015625 34.273205566406205) rotate(0 51.5625 19.19999999999999)"><text x="51.5625" y="0" font-family="Cascadia, Segoe UI Emoji" font-size="16px" fill="#1e1e1e" text-anchor="middle" style="white-space: pre;" direction="ltr" dominant-baseline="text-before-edge">Watcher1</text><text x="51.5625" y="19.2" font-family="Cascadia, Segoe UI Emoji" font-size="16px" fill="#1e1e1e" text-anchor="middle" style="white-space: pre;" direction="ltr" dominant-baseline="text-before-edge">key = name1</text></g><g stroke-linecap="round" transform="translate(458.6566162109375 121.41522216796875) rotate(0 93.56228637695312 35.812896728515625)"><path d="M0 0 C0 0, 0 0, 0 0 M0 0 C0 0, 0 0, 0 0 M0.13 12.04 C1.73 7.78, 4.86 5.81, 10.63 -0.03 M0.13 12.04 C4.18 7.16, 7.55 3.93, 10.63 -0.03 M0.27 24.08 C6.33 15.36, 12.39 10.59, 21.26 -0.07 M0.27 24.08 C6.76 17.88, 12.48 9.27, 21.26 -0.07 M-0.26 36.88 C10.45 24.86, 20.54 12.6, 31.89 -0.1 M-0.26 36.88 C8.35 28.48, 15.05 19.6, 31.89 -0.1 M-0.12 48.92 C16.81 31.88, 28.99 14.78, 42.52 -0.14 M-0.12 48.92 C15.54 31.28, 29.28 14.34, 42.52 -0.14 M0.01 60.96 C14.58 44.28, 31.22 24.15, 53.15 -0.17 M0.01 60.96 C15.82 43.28, 31.02 25.74, 53.15 -0.17 M1.45 71.49 C24.55 44.37, 49.83 13.11, 63.78 -0.21 M1.45 71.49 C21.7 47.83, 40.86 25.9, 63.78 -0.21 M12.09 71.46 C32.84 48.23, 53.84 22.81, 74.41 -0.24 M12.09 71.46 C37.2 44.84, 61.22 17.91, 74.41 -0.24 M22.72 71.42 C41.55 52.64, 56.05 33.6, 85.04 -0.28 M22.72 71.42 C45.39 45.87, 66.19 20.31, 85.04 -0.28 M33.35 71.39 C50.07 54.92, 63.39 37.41, 95.67 -0.31 M33.35 71.39 C58.02 42.37, 82.68 15.67, 95.67 -0.31 M43.98 71.35 C63.31 51.39, 78.46 30.46, 106.3 -0.34 M43.98 71.35 C70.01 43.52, 93.67 14.42, 106.3 -0.34 M54.61 71.32 C75.54 48.82, 95.45 25.35, 116.27 0.38 M54.61 71.32 C74.02 49.21, 94.91 24.67, 116.27 0.38 M65.24 71.28 C82.34 49.1, 104.07 25.87, 126.91 0.34 M65.24 71.28 C79.83 54.12, 96.64 37.31, 126.91 0.34 M75.21 72 C88.05 57.44, 104.18 40.89, 137.54 0.31 M75.21 72 C91.35 54.65, 106.59 35.75, 137.54 0.31 M85.84 71.97 C98.46 55.77, 109.66 40.63, 148.17 0.27 M85.84 71.97 C106.31 48.23, 129.31 23.05, 148.17 0.27 M96.47 71.93 C118.83 47.3, 139.27 22.98, 158.8 0.24 M96.47 71.93 C117.33 48.94, 139.03 24.16, 158.8 0.24 M107.1 71.9 C121.17 58.47, 132.79 42.4, 169.43 0.2 M107.1 71.9 C127.3 48.57, 146.91 25.09, 169.43 0.2 M117.73 71.87 C132.49 53.98, 147.05 40.76, 180.06 0.17 M117.73 71.87 C130.42 57.51, 142.69 43.52, 180.06 0.17 M128.36 71.83 C141.79 58.29, 153.65 43.4, 187.41 3.91 M128.36 71.83 C146.4 48.88, 166.61 27.26, 187.41 3.91 M138.99 71.8 C155.08 52.65, 175.04 30.66, 187.54 15.95 M138.99 71.8 C148.75 60.69, 158.81 48.85, 187.54 15.95 M149.62 71.76 C157.07 63.6, 163.39 52.66, 187.67 27.99 M149.62 71.76 C158.15 60.99, 167.98 52.24, 187.67 27.99 M160.25 71.73 C169.4 61.94, 177.58 49.88, 187.8 40.03 M160.25 71.73 C168.6 62.06, 178.67 51.91, 187.8 40.03 M170.88 71.69 C175.49 68.24, 178.6 61.93, 187.94 52.07 M170.88 71.69 C173.79 67.26, 178.74 62.34, 187.94 52.07 M181.51 71.66 C182.97 68.67, 185.91 65.88, 187.41 64.87 M181.51 71.66 C183.1 69.47, 184.8 68.16, 187.41 64.87" stroke="#fab005" stroke-width="1" fill="none"></path><path d="M0 0 C37.89 2.61, 76.06 0.72, 187.12 0 M0 0 C70.88 0.66, 142.18 1.27, 187.12 0 M187.12 0 C185.24 17.32, 185.05 32.25, 187.12 71.63 M187.12 0 C186.92 23.8, 187.45 48.62, 187.12 71.63 M187.12 71.63 C147.5 68.84, 105.8 71.89, 0 71.63 M187.12 71.63 C140.29 70.38, 93 71.97, 0 71.63 M0 71.63 C0.87 54.32, -0.24 38.94, 0 0 M0 71.63 C-0.94 53.55, -1.14 35.87, 0 0" stroke="#1e1e1e" stroke-width="2" fill="none"></path></g><g transform="translate(500.6564025878906 138.02811889648433) rotate(0 51.5625 19.200000000000045)"><text x="51.5625" y="0" font-family="Cascadia, Segoe UI Emoji" font-size="16px" fill="#1e1e1e" text-anchor="middle" style="white-space: pre;" direction="ltr" dominant-baseline="text-before-edge">Watcher2</text><text x="51.5625" y="19.2" font-family="Cascadia, Segoe UI Emoji" font-size="16px" fill="#1e1e1e" text-anchor="middle" style="white-space: pre;" direction="ltr" dominant-baseline="text-before-edge">key = name2</text></g><g stroke-linecap="round" transform="translate(458.4483642578125 235.66818237304688) rotate(0 93.56228637695312 35.812896728515625)"><path d="M0 0 C0 0, 0 0, 0 0 M0 0 C0 0, 0 0, 0 0 M0.13 12.04 C2.17 7.5, 6.61 3.81, 10.63 -0.03 M0.13 12.04 C3.57 7.74, 6.19 4.28, 10.63 -0.03 M0.27 24.08 C6.15 19.02, 12.36 12.99, 21.26 -0.07 M0.27 24.08 C7.8 16.64, 13.63 9.17, 21.26 -0.07 M-0.26 36.88 C7.15 29.15, 18.11 18.98, 31.89 -0.1 M-0.26 36.88 C10.49 24.05, 21.23 13.08, 31.89 -0.1 M-0.12 48.92 C8.47 38.66, 21.39 24.44, 42.52 -0.14 M-0.12 48.92 C11.98 34.94, 24.78 20.59, 42.52 -0.14 M0.01 60.96 C16.24 44.59, 31.09 27.7, 53.15 -0.17 M0.01 60.96 C17.39 41.44, 33.78 21.32, 53.15 -0.17 M1.45 71.49 C20.85 49.06, 38.26 28.6, 63.78 -0.21 M1.45 71.49 C13.85 55.7, 26.99 41.4, 63.78 -0.21 M12.09 71.46 C24.55 53.03, 41.8 38.83, 74.41 -0.24 M12.09 71.46 C34.9 44.16, 59.55 17.56, 74.41 -0.24 M22.72 71.42 C39.64 51.76, 59.57 29.71, 85.04 -0.28 M22.72 71.42 C40.52 50.61, 59.34 31.27, 85.04 -0.28 M33.35 71.39 C49.26 52.6, 68.09 29.47, 95.67 -0.31 M33.35 71.39 C54.35 47.21, 75.01 24.32, 95.67 -0.31 M43.98 71.35 C56.72 54.21, 74.22 38.75, 106.3 -0.34 M43.98 71.35 C61.98 52.2, 79.17 32.12, 106.3 -0.34 M54.61 71.32 C79.39 42.64, 101.26 18.03, 116.27 0.38 M54.61 71.32 C76.08 48.38, 95.41 23.98, 116.27 0.38 M65.24 71.28 C86.09 46.24, 107.86 21.01, 126.91 0.34 M65.24 71.28 C88.56 43.5, 113.09 16.14, 126.91 0.34 M75.21 72 C98.57 46.31, 123.41 19.88, 137.54 0.31 M75.21 72 C96.24 49.7, 116.28 25.08, 137.54 0.31 M85.84 71.97 C99.94 53.57, 112.68 39.44, 148.17 0.27 M85.84 71.97 C110.28 43.43, 135.43 15.56, 148.17 0.27 M96.47 71.93 C113.1 50, 130.17 33.25, 158.8 0.24 M96.47 71.93 C117.67 47.68, 139.75 23.98, 158.8 0.24 M107.1 71.9 C122.52 53.31, 136.45 37.29, 169.43 0.2 M107.1 71.9 C123.43 54.11, 139.82 34.73, 169.43 0.2 M117.73 71.87 C140.93 44.09, 164.46 17.96, 180.06 0.17 M117.73 71.87 C129.51 58.09, 143.66 42.74, 180.06 0.17 M128.36 71.83 C146.69 52.12, 163.32 27.92, 187.41 3.91 M128.36 71.83 C147.76 49.7, 166.16 28.04, 187.41 3.91 M138.99 71.8 C156.85 49.72, 175.11 30.13, 187.54 15.95 M138.99 71.8 C150.95 59.69, 162.54 45.67, 187.54 15.95 M149.62 71.76 C157.06 61.52, 166.16 50.43, 187.67 27.99 M149.62 71.76 C164.31 56.4, 177.42 40.09, 187.67 27.99 M160.25 71.73 C165.16 63.66, 171.76 57.57, 187.8 40.03 M160.25 71.73 C170.65 60.11, 179.66 50.35, 187.8 40.03 M170.88 71.69 C176.69 65.95, 178.18 61.41, 187.94 52.07 M170.88 71.69 C176.45 65.27, 180.64 58.96, 187.94 52.07 M181.51 71.66 C182.64 70.3, 185.11 66.86, 187.41 64.87 M181.51 71.66 C183.42 69.62, 185.21 66.74, 187.41 64.87" stroke="#fab005" stroke-width="1" fill="none"></path><path d="M0 0 C46.37 -2.16, 95.27 -1.39, 187.12 0 M0 0 C39.77 0.59, 80.53 2.15, 187.12 0 M187.12 0 C186.91 15.89, 187.12 31.26, 187.12 71.63 M187.12 0 C187.16 23.99, 187.97 48.71, 187.12 71.63 M187.12 71.63 C118.57 70.39, 48.03 68.88, 0 71.63 M187.12 71.63 C125.12 70.51, 63.24 69.36, 0 71.63 M0 71.63 C1.02 52.21, -1.03 28.82, 0 0 M0 71.63 C0.3 56.78, -0.7 41.46, 0 0" stroke="#1e1e1e" stroke-width="2" fill="none"></path></g><g transform="translate(500.4481506347656 252.28107910156245) rotate(0 51.5625 19.200000000000045)"><text x="51.5625" y="0" font-family="Cascadia, Segoe UI Emoji" font-size="16px" fill="#1e1e1e" text-anchor="middle" style="white-space: pre;" direction="ltr" dominant-baseline="text-before-edge">Watcher3</text><text x="51.5625" y="19.2" font-family="Cascadia, Segoe UI Emoji" font-size="16px" fill="#1e1e1e" text-anchor="middle" style="white-space: pre;" direction="ltr" dominant-baseline="text-before-edge">key = name1</text></g><g stroke-linecap="round" transform="translate(746.8621520996094 10) rotate(0 141.67193603515625 66.59275817871094)"><path d="M0 0 C0 0, 0 0, 0 0 M0 0 C0 0, 0 0, 0 0 M0.13 12.04 C3.62 9.47, 4.93 7.25, 10.63 -0.03 M0.13 12.04 C2.32 8.91, 5.07 6.76, 10.63 -0.03 M0.27 24.08 C7.16 16.62, 13 8.89, 21.26 -0.07 M0.27 24.08 C6.88 15.48, 14.7 5.76, 21.26 -0.07 M-0.26 36.88 C8.79 24.43, 23.05 13.62, 31.89 -0.1 M-0.26 36.88 C9.84 24.38, 21.64 11.93, 31.89 -0.1 M-0.12 48.92 C15.08 30.21, 33.3 11.14, 42.52 -0.14 M-0.12 48.92 C15.5 31.96, 30.18 13.64, 42.52 -0.14 M0.01 60.96 C15.13 41.98, 30.76 26.61, 53.15 -0.17 M0.01 60.96 C13.19 47.85, 25.7 31.92, 53.15 -0.17 M0.14 73 C20.35 49.43, 37.02 28.52, 63.78 -0.21 M0.14 73 C21.15 49.01, 42.26 24.23, 63.78 -0.21 M0.28 85.04 C15.99 64.85, 34.27 45.23, 74.41 -0.24 M0.28 85.04 C25.43 57.8, 49.25 29.29, 74.41 -0.24 M-0.25 97.84 C32.15 62.22, 60.45 24.23, 85.04 -0.28 M-0.25 97.84 C19.09 75.59, 37.92 55.14, 85.04 -0.28 M-0.11 109.88 C36.92 67.05, 73.54 22.75, 95.67 -0.31 M-0.11 109.88 C36.85 68.05, 72.18 27.39, 95.67 -0.31 M0.02 121.92 C37.39 80.1, 73.19 35.06, 106.3 -0.34 M0.02 121.92 C25.48 93.28, 51.21 62.74, 106.3 -0.34 M0.15 133.96 C33.37 96.38, 68 54.76, 116.27 0.38 M0.15 133.96 C40.72 85.93, 82.34 41.24, 116.27 0.38 M10.78 133.92 C40.45 101.92, 69.9 68.02, 126.91 0.34 M10.78 133.92 C35.15 103.7, 59.74 75.71, 126.91 0.34 M21.41 133.89 C66.38 81.73, 107.47 29.16, 137.54 0.31 M21.41 133.89 C63.2 84.25, 107.96 34.07, 137.54 0.31 M32.04 133.86 C59.43 100.03, 86.69 71.21, 148.17 0.27 M32.04 133.86 C62.97 100.22, 91.9 65.41, 148.17 0.27 M42.67 133.82 C77.59 94.56, 116.49 52.36, 158.8 0.24 M42.67 133.82 C70.04 103.56, 95.28 74.2, 158.8 0.24 M53.3 133.79 C79.69 102.35, 105.59 74.83, 169.43 0.2 M53.3 133.79 C83.81 98.95, 114.08 63.14, 169.43 0.2 M63.93 133.75 C99.01 96.31, 132.97 57.62, 180.06 0.17 M63.93 133.75 C87.65 104.02, 112.05 76.37, 180.06 0.17 M74.56 133.72 C98.17 106.36, 122.97 77.22, 190.69 0.13 M74.56 133.72 C102.93 101.56, 130.87 68.68, 190.69 0.13 M85.19 133.68 C126.2 84.61, 167.96 35.73, 201.32 0.1 M85.19 133.68 C117.61 95.96, 153.16 55.8, 201.32 0.1 M95.82 133.65 C141.39 82.15, 187.4 29.24, 211.95 0.06 M95.82 133.65 C139.75 83.84, 182.89 32.73, 211.95 0.06 M106.45 133.61 C140.64 98.77, 168.38 61.86, 222.58 0.03 M106.45 133.61 C148.5 84.97, 191.28 35.15, 222.58 0.03 M117.08 133.58 C147.48 99.66, 176.39 67.05, 233.21 0 M117.08 133.58 C156.29 88.98, 195.87 45.74, 233.21 0 M127.71 133.54 C155.67 100.17, 184.3 70.43, 243.84 -0.04 M127.71 133.54 C168.51 87.3, 211.1 38.64, 243.84 -0.04 M138.34 133.51 C163.68 103.83, 188.07 78.91, 254.47 -0.07 M138.34 133.51 C162.68 106.91, 186.69 81.01, 254.47 -0.07 M148.97 133.48 C195.13 84.18, 237.46 29.81, 265.1 -0.11 M148.97 133.48 C192.11 84.76, 233.57 37.56, 265.1 -0.11 M159.6 133.44 C189.43 101.81, 217.31 65.98, 275.73 -0.14 M159.6 133.44 C199.2 87.79, 237.81 43.52, 275.73 -0.14 M170.23 133.41 C201.86 96.34, 235 58.17, 283.73 2.84 M170.23 133.41 C204.02 97.08, 236.35 59.56, 283.73 2.84 M180.86 133.37 C204.45 105.14, 231.44 76.24, 283.21 15.64 M180.86 133.37 C213.29 97.25, 242.43 62.89, 283.21 15.64 M191.49 133.34 C212.46 108.17, 237.27 83.89, 283.34 27.68 M191.49 133.34 C210.09 111.01, 230.09 89.23, 283.34 27.68 M202.12 133.3 C218.61 113.76, 239.13 90.9, 283.48 39.72 M202.12 133.3 C229.31 102.62, 255.47 70.82, 283.48 39.72 M212.75 133.27 C238.81 104.14, 263.2 75.52, 283.61 51.76 M212.75 133.27 C230.04 112.86, 247.06 93.49, 283.61 51.76 M223.38 133.23 C244.18 107.19, 266.29 83.61, 283.74 63.8 M223.38 133.23 C241.09 113.6, 257.33 95.58, 283.74 63.8 M233.36 133.95 C252.1 115.08, 266.17 95.26, 283.22 76.6 M233.36 133.95 C242.95 121.89, 253.41 110, 283.22 76.6 M243.99 133.92 C260.26 118.92, 273.07 103.06, 283.35 88.64 M243.99 133.92 C253.65 120.57, 265.58 108.77, 283.35 88.64 M254.62 133.89 C263.76 126.06, 269.63 115.49, 283.49 100.68 M254.62 133.89 C261.02 127.34, 267.75 118.11, 283.49 100.68 M265.25 133.85 C267.09 130.86, 274.65 124.13, 283.62 112.72 M265.25 133.85 C269.57 127.92, 273.84 123.77, 283.62 112.72 M275.88 133.82 C277.31 130.71, 281.8 128.06, 283.75 124.76 M275.88 133.82 C278.88 130.68, 280.87 128.65, 283.75 124.76" stroke="#38d9a9" stroke-width="1" fill="none"></path><path d="M0 0 C89.85 0.83, 182.49 -0.35, 283.34 0 M0 0 C93.57 -1.32, 186.84 -1, 283.34 0 M283.34 0 C285.18 32.66, 283.15 67.46, 283.34 133.19 M283.34 0 C284.07 43.33, 283.32 84.86, 283.34 133.19 M283.34 133.19 C199.63 133.49, 115.58 134.11, 0 133.19 M283.34 133.19 C205.72 131.87, 128.93 130.64, 0 133.19 M0 133.19 C-2.17 98.85, -3.15 60.6, 0 0 M0 133.19 C-0.3 91.57, -1.6 50.39, 0 0" stroke="#1e1e1e" stroke-width="2" fill="none"></path></g><g transform="translate(766.6590881347656 47.79275817871098) rotate(0 121.875 28.799999999999955)"><text x="121.875" y="0" font-family="Cascadia, Segoe UI Emoji" font-size="16px" fill="#1e1e1e" text-anchor="middle" style="white-space: pre;" direction="ltr" dominant-baseline="text-before-edge">Dep1</text><text x="121.875" y="19.2" font-family="Cascadia, Segoe UI Emoji" font-size="16px" fill="#1e1e1e" text-anchor="middle" style="white-space: pre;" direction="ltr" dominant-baseline="text-before-edge"></text><text x="121.875" y="38.4" font-family="Cascadia, Segoe UI Emoji" font-size="16px" fill="#1e1e1e" text-anchor="middle" style="white-space: pre;" direction="ltr" dominant-baseline="text-before-edge">deps = [Watcher1,Watcher3]</text></g><g stroke-linecap="round" transform="translate(747.7126770019531 181.6420440673828) rotate(0 141.67193603515625 66.59275817871094)"><path d="M0 0 C0 0, 0 0, 0 0 M0 0 C0 0, 0 0, 0 0 M0.13 12.04 C4.35 6.12, 7.06 1.12, 10.63 -0.03 M0.13 12.04 C2.62 9.24, 6.11 6.63, 10.63 -0.03 M0.27 24.08 C5.16 17.46, 8.03 15.49, 21.26 -0.07 M0.27 24.08 C4.82 18.11, 10.59 12.29, 21.26 -0.07 M-0.26 36.88 C11.99 23.04, 20.89 10.69, 31.89 -0.1 M-0.26 36.88 C8.11 28.06, 14.32 19.59, 31.89 -0.1 M-0.12 48.92 C17.04 31.08, 30.55 13.8, 42.52 -0.14 M-0.12 48.92 C7.29 40, 17.44 28.37, 42.52 -0.14 M0.01 60.96 C14.42 46.86, 26.55 29.42, 53.15 -0.17 M0.01 60.96 C14.8 41.98, 31.49 24.84, 53.15 -0.17 M0.14 73 C22.21 44.55, 43.48 21, 63.78 -0.21 M0.14 73 C21.76 49.3, 42.97 22.9, 63.78 -0.21 M0.28 85.04 C27.31 51.28, 59.56 18.81, 74.41 -0.24 M0.28 85.04 C19.56 62.74, 37.77 41.18, 74.41 -0.24 M-0.25 97.84 C31.44 66.29, 60.3 29.11, 85.04 -0.28 M-0.25 97.84 C19.51 74.08, 40.11 50.52, 85.04 -0.28 M-0.11 109.88 C22.81 81.84, 49.6 50.39, 95.67 -0.31 M-0.11 109.88 C36.37 68.15, 71.88 27.35, 95.67 -0.31 M0.02 121.92 C29.24 90.46, 57.2 56.44, 106.3 -0.34 M0.02 121.92 C41.04 72.9, 84.19 23.81, 106.3 -0.34 M0.15 133.96 C41.84 87.07, 81.72 41.92, 116.27 0.38 M0.15 133.96 C37.86 90.73, 74.77 48.57, 116.27 0.38 M10.78 133.92 C49 88.58, 87.55 41.93, 126.91 0.34 M10.78 133.92 C55.92 85.53, 98.48 36.2, 126.91 0.34 M21.41 133.89 C57.98 93.33, 93.21 52.16, 137.54 0.31 M21.41 133.89 C50.15 100.6, 77.71 67.63, 137.54 0.31 M32.04 133.86 C59.32 101.03, 84.53 74.19, 148.17 0.27 M32.04 133.86 C59.56 102.64, 86.07 70.65, 148.17 0.27 M42.67 133.82 C66.06 106.09, 90.87 79.88, 158.8 0.24 M42.67 133.82 C76.15 96.37, 110.84 57.12, 158.8 0.24 M53.3 133.79 C77.03 105.22, 104.53 75.84, 169.43 0.2 M53.3 133.79 C90.41 94.15, 125 52.13, 169.43 0.2 M63.93 133.75 C97.39 93.72, 135.7 49.67, 180.06 0.17 M63.93 133.75 C93.03 101.46, 122.67 69.01, 180.06 0.17 M74.56 133.72 C105.79 98.31, 131.84 67.68, 190.69 0.13 M74.56 133.72 C98.55 104.92, 124.08 75.62, 190.69 0.13 M85.19 133.68 C113.46 102.05, 137.51 72.39, 201.32 0.1 M85.19 133.68 C122.46 89.44, 161.15 45.76, 201.32 0.1 M95.82 133.65 C132.13 92.6, 167.36 50.33, 211.95 0.06 M95.82 133.65 C125.14 101.11, 153.15 68.43, 211.95 0.06 M106.45 133.61 C134.88 102.58, 162.77 67.84, 222.58 0.03 M106.45 133.61 C129.06 104.71, 153.64 77.31, 222.58 0.03 M117.08 133.58 C140.71 108.9, 164.94 77.67, 233.21 0 M117.08 133.58 C162.8 81.63, 209.01 27.77, 233.21 0 M127.71 133.54 C172.2 86.18, 213 38.57, 243.84 -0.04 M127.71 133.54 C168.41 86.42, 207.83 41.2, 243.84 -0.04 M138.34 133.51 C164.2 102.77, 190.64 73.57, 254.47 -0.07 M138.34 133.51 C173.04 91.96, 209.2 49.98, 254.47 -0.07 M148.97 133.48 C173.65 103.61, 200.78 75.88, 265.1 -0.11 M148.97 133.48 C183.23 93.68, 218.58 55, 265.1 -0.11 M159.6 133.44 C187.47 99.9, 214.35 67.57, 275.73 -0.14 M159.6 133.44 C203.68 83.69, 247.16 35.14, 275.73 -0.14 M170.23 133.41 C195.64 105.75, 219.57 77.62, 283.73 2.84 M170.23 133.41 C210.92 86.03, 253.82 36.76, 283.73 2.84 M180.86 133.37 C204.56 105.94, 225.67 77.4, 283.21 15.64 M180.86 133.37 C221.47 88.8, 258.69 42.97, 283.21 15.64 M191.49 133.34 C225.81 97.66, 256.86 56.29, 283.34 27.68 M191.49 133.34 C227.3 91.29, 264.67 49.95, 283.34 27.68 M202.12 133.3 C232.2 101.4, 262.27 66.98, 283.48 39.72 M202.12 133.3 C224.72 106.93, 248.45 81.49, 283.48 39.72 M212.75 133.27 C232.84 110.28, 247.31 93.07, 283.61 51.76 M212.75 133.27 C238.01 104.26, 264.18 75.23, 283.61 51.76 M223.38 133.23 C240.11 112.89, 257.81 93.9, 283.74 63.8 M223.38 133.23 C236.84 117.81, 251.81 102.08, 283.74 63.8 M233.36 133.95 C246.69 116.63, 263.17 99.82, 283.22 76.6 M233.36 133.95 C250.45 114.2, 266.24 94.88, 283.22 76.6 M243.99 133.92 C256.36 122.64, 265.69 110.44, 283.35 88.64 M243.99 133.92 C257.05 119.49, 270.63 102.69, 283.35 88.64 M254.62 133.89 C263.37 124.05, 271.98 113.7, 283.49 100.68 M254.62 133.89 C264.41 121.84, 276.96 107.8, 283.49 100.68 M265.25 133.85 C267.98 130.26, 274.55 121.97, 283.62 112.72 M265.25 133.85 C271.13 126.25, 278.29 118.92, 283.62 112.72 M275.88 133.82 C278.48 129.52, 282.64 126.8, 283.75 124.76 M275.88 133.82 C278.15 131.88, 280 129.24, 283.75 124.76" stroke="#38d9a9" stroke-width="1" fill="none"></path><path d="M0 0 C92.78 -1.31, 189.72 -0.18, 283.34 0 M0 0 C93.74 1.7, 188.56 1.55, 283.34 0 M283.34 0 C282.69 52.24, 284.28 104.29, 283.34 133.19 M283.34 0 C284.41 49.16, 283.58 97.17, 283.34 133.19 M283.34 133.19 C200.1 132.13, 116.94 134.09, 0 133.19 M283.34 133.19 C218.28 133.04, 153.01 131.66, 0 133.19 M0 133.19 C1.82 92.69, 0.05 54.41, 0 0 M0 133.19 C-0.62 88.55, -0.91 43.59, 0 0" stroke="#1e1e1e" stroke-width="2" fill="none"></path></g><g transform="translate(809.6971130371094 229.0348022460937) rotate(0 79.6875 19.200000000000045)"><text x="79.6875" y="0" font-family="Cascadia, Segoe UI Emoji" font-size="16px" fill="#1e1e1e" text-anchor="middle" style="white-space: pre;" direction="ltr" dominant-baseline="text-before-edge">Dep2</text><text x="79.6875" y="19.2" font-family="Cascadia, Segoe UI Emoji" font-size="16px" fill="#1e1e1e" text-anchor="middle" style="white-space: pre;" direction="ltr" dominant-baseline="text-before-edge">deps = [Watcher2]</text></g></svg>