<svg version="1.1" xmlns="http://www.w3.org/2000/svg" viewBox="0 0 617.4068756103514 455.5151824951172" width="617.4068756103514" height="455.5151824951172">
  <!-- svg-source:excalidraw -->
  
  <defs>
    <style class="style-fonts">
      @font-face {
        font-family: "Virgil";
        src: url("https://excalidraw.com/Virgil.woff2");
      }
      @font-face {
        font-family: "Cascadia";
        src: url("https://excalidraw.com/Cascadia.woff2");
      }
      @font-face {
        font-family: "Assistant";
        src: url("https://excalidraw.com/Assistant-Regular.woff2");
      }
    </style>
    
  </defs>
  <g stroke-linecap="round" transform="translate(10 11.163101196289062) rotate(0 58.999114990234375 21.21221923828125)"><path d="M2.06 -3.23 L118.72 -3.3 L121.05 43.81 L-1.79 45.81" stroke="none" stroke-width="0" fill="#ebfbee"></path><path d="M2.99 0.2 C32.74 -1.29, 58.12 0.34, 117.52 -1.92 M-1.55 1.03 C37.68 -0.99, 75.99 -1.58, 117 -1.1 M114.53 -0.3 C118.45 13.76, 117.16 21.88, 114.98 39.99 M116.61 -1.36 C115.99 12.48, 117.49 20.03, 117.53 44.4 M114.69 41.99 C93.66 42.38, 63.72 42.21, -0.51 38.78 M116.13 40.67 C90.64 40.13, 64.37 43.06, 1.61 40.82 M2.34 39.2 C-0.75 25.53, -0.24 15.68, -3.88 -2.65 M-1.68 42.53 C0.46 27.54, -1.46 17.57, -0.86 0.77" stroke="#1e1e1e" stroke-width="2" fill="none"></path></g><g transform="translate(44.999114990234375 22.375320434570312) rotate(0 24 10)"><text x="24" y="0" font-family="Virgil, Segoe UI Emoji" font-size="16px" fill="#1e1e1e" text-anchor="middle" style="white-space: pre;" direction="ltr" dominant-baseline="text-before-edge">浏览器</text></g><g stroke-linecap="round" transform="translate(13.277801513671875 403.0907440185547) rotate(0 58.999114990234375 21.21221923828125)"><path d="M-1.97 -1.9 L119 0.99 L120.19 43.83 L-2.87 41.95" stroke="none" stroke-width="0" fill="#ebfbee"></path><path d="M2.51 -3.69 C41.8 1.35, 77.6 -4.42, 121.71 2.34 M-1.13 0.08 C27.6 0.85, 56.75 -0.84, 119.94 0.46 M115.05 1.47 C114.94 19.62, 115.01 28.76, 119.19 40.6 M118.07 -1.36 C117.63 12.33, 119.33 26.99, 118.79 43.29 M117.76 42.07 C78.29 41.29, 42.54 40.2, -2.86 42.5 M119.39 44.27 C83.23 43.02, 47.75 42.42, -0.99 43.63 M-1.63 39.37 C1.54 24.06, 1.29 9.75, -2.51 0.07 M-1.29 42.82 C2.28 33.61, 1.81 22.57, -0.94 -1.49" stroke="#1e1e1e" stroke-width="2" fill="none"></path></g><g transform="translate(48.27691650390625 414.30296325683594) rotate(0 24 10)"><text x="24" y="0" font-family="Virgil, Segoe UI Emoji" font-size="16px" fill="#1e1e1e" text-anchor="middle" style="white-space: pre;" direction="ltr" dominant-baseline="text-before-edge">浏览器</text></g><g stroke-linecap="round"><g transform="translate(70.3211669921875 54.43180847167969) rotate(0 0.76824951171875 172.80343627929688)"><path d="M0 0 C0.57 128.33, 1.14 256.65, 1.54 345.61" stroke="#1e1e1e" stroke-width="2.5" fill="none" stroke-dasharray="8 10"></path></g></g><mask></mask><g stroke-linecap="round" transform="translate(251.52415466308594 18.547607421875) rotate(0 58.999114990234375 15)"><path d="M-0.26 1.61 L117.3 0.66 L114.68 32.2 L2.5 32.92" stroke="none" stroke-width="0" fill="#ebfbee"></path><path d="M-2.23 1.44 C34.29 1.14, 67.73 -0.44, 121.48 -1.22 M-0.54 1.67 C23.21 -0.03, 51.17 -0.05, 119.98 -1.21 M121.16 -0.08 C114.53 2.54, 114.12 13.24, 116.9 32.2 M119.62 -0.06 C119.09 8.53, 118.57 16.86, 118.14 31.6 M120.12 28.14 C90.96 31.63, 57 29.28, 1.13 30.07 M118.85 31.56 C83.02 29.5, 46.82 29.48, -0.94 29.36 M1.45 32.29 C3.05 19.08, 2.27 6.85, 0.89 -3.49 M0 31.21 C-2.02 23.48, -0.22 15.41, 0.93 1.47" stroke="#1e1e1e" stroke-width="2" fill="none"></path></g><g transform="translate(270.5232696533203 23.547607421875) rotate(0 40 10)"><text x="40" y="0" font-family="Virgil, Segoe UI Emoji" font-size="16px" fill="#1e1e1e" text-anchor="middle" style="white-space: pre;" direction="ltr" dominant-baseline="text-before-edge">浏览器缓存</text></g><g stroke-linecap="round" transform="translate(254.8019561767578 410.4752502441406) rotate(0 58.999114990234375 15)"><path d="M-3.32 2.2 L120.5 2.92 L119.66 28.4 L1.06 33.33" stroke="none" stroke-width="0" fill="#ebfbee"></path><path d="M3.37 -2.76 C43.13 -0.53, 75.77 -1.08, 114.75 -1.09 M1.16 -1.97 C47.21 1.1, 88.55 0.64, 116.58 1.58 M114.62 0.94 C116.45 11.14, 117.23 20.72, 115.9 33.24 M118.14 -0.66 C118.34 10.52, 117.32 19.52, 119.81 31.06 M117.43 27.14 C89.21 29.77, 58.29 26.21, -1.82 31.71 M118.44 30.56 C72.47 30.03, 29.91 29.06, -0.23 30.72 M1.78 28.09 C0.51 15.8, -2.34 11.11, 0 0 M0.16 30.48 C1.42 20.67, 0.36 9.19, -0.35 0.33" stroke="#1e1e1e" stroke-width="2" fill="none"></path></g><g transform="translate(273.8010711669922 415.4752502441406) rotate(0 40 10)"><text x="40" y="0" font-family="Virgil, Segoe UI Emoji" font-size="16px" fill="#1e1e1e" text-anchor="middle" style="white-space: pre;" direction="ltr" dominant-baseline="text-before-edge">浏览器缓存</text></g><g stroke-linecap="round"><g transform="translate(311.84532165527344 61.816314697265625) rotate(0 0.5466079711914062 172.80343627929688)"><path d="M0 0 C-0.1 56.08, -0.2 112.17, -0.44 242.71 M-0.44 242.71 C0.32 282.15, 1.07 321.58, 1.54 345.61" stroke="#1e1e1e" stroke-width="2.5" fill="none" stroke-dasharray="8 10"></path></g></g><mask></mask><g stroke-linecap="round" transform="translate(485.9022064208983 10) rotate(0 58.999114990234375 21.21221923828125)"><path d="M-0.78 -1.45 L118.03 -2.27 L120.64 40.4 L0.98 45.22" stroke="none" stroke-width="0" fill="#ebfbee"></path><path d="M-2.41 -3.79 C38.9 -5.18, 87.62 -2.41, 115.03 -3.61 M1.1 -0.16 C26.86 -0.4, 52.52 0.59, 118.66 -0.23 M121.2 -1.76 C121.1 16.66, 119.84 24.2, 121.18 41.91 M118.03 0.07 C115.65 11.22, 118.24 25.81, 118.83 43 M116.71 44.59 C76.78 40.85, 43.49 43.6, 2.56 42.13 M116.25 41.45 C78.61 42.95, 36.67 44.16, -1.64 43.44 M2.95 42.17 C1.41 28.67, 0.46 12.98, 2.2 2.5 M0.53 44.09 C-1.68 26.5, -0.01 9.49, 1.25 -1.11" stroke="#1e1e1e" stroke-width="2" fill="none"></path></g><g transform="translate(520.9013214111327 21.21221923828125) rotate(0 24 10)"><text x="24" y="0" font-family="Virgil, Segoe UI Emoji" font-size="16px" fill="#1e1e1e" text-anchor="middle" style="white-space: pre;" direction="ltr" dominant-baseline="text-before-edge">服务器</text></g><g stroke-linecap="round" transform="translate(489.4086456298827 401.9276428222656) rotate(0 58.999114990234375 21.21221923828125)"><path d="M2.64 -2.02 L118.98 2.8 L119.03 39.25 L-3.51 40.48" stroke="none" stroke-width="0" fill="#ebfbee"></path><path d="M3.16 -0.08 C21.24 -1.93, 45.04 2.61, 116.9 2.2 M1.62 -0.06 C35.12 1.01, 69.06 0.58, 118.14 1.6 M120.12 -1.86 C121.89 10.35, 118.15 18.87, 119.13 42.49 M118.85 1.56 C118.09 13.45, 117.69 26.3, 117.06 41.78 M119.44 44.71 C78.78 41.86, 36.23 40.24, 0.89 38.94 M118 43.63 C86.74 43.44, 58.9 42.9, 0.93 43.9 M0.66 39.1 C1.85 32.47, 2.57 19.18, -1.6 1.06 M0.34 41.13 C1.81 25.06, 0.17 9.17, 0.02 -1.13" stroke="#1e1e1e" stroke-width="2" fill="none"></path></g><g transform="translate(524.4077606201171 413.1398620605469) rotate(0 24 10)"><text x="24" y="0" font-family="Virgil, Segoe UI Emoji" font-size="16px" fill="#1e1e1e" text-anchor="middle" style="white-space: pre;" direction="ltr" dominant-baseline="text-before-edge">服务器</text></g><g stroke-linecap="round"><g transform="translate(546.2233734130858 53.268707275390625) rotate(0 0.76824951171875 172.80343627929688)"><path d="M0 0 C0.46 103.02, 0.92 206.05, 1.54 345.61" stroke="#1e1e1e" stroke-width="2.5" fill="none" stroke-dasharray="8 10"></path></g></g><mask></mask><g stroke-linecap="round"><g transform="translate(76.33001708984375 105.89753723144531) rotate(0 115.92276000976562 -1.1114959716796875)"><path d="M-3.31 -1.09 C51.02 -0.82, 104.79 0.12, 233.84 0.26 M0.83 1.5 C88.64 -3.21, 176.99 -2.8, 230.51 -2.01" stroke="#1e1e1e" stroke-width="2" fill="none"></path></g><g transform="translate(76.33001708984375 105.89753723144531) rotate(0 115.92276000976562 -1.1114959716796875)"><path d="M204.99 5.7 C211.31 5.22, 217.33 4.18, 231.68 -0.55 M207.43 7.23 C215.71 2.27, 224.34 -0.2, 229.71 -1.89" stroke="#1e1e1e" stroke-width="2" fill="none"></path></g><g transform="translate(76.33001708984375 105.89753723144531) rotate(0 115.92276000976562 -1.1114959716796875)"><path d="M205.13 -11.4 C211.49 -8, 217.48 -5.15, 231.68 -0.55 M207.58 -9.88 C215.89 -8.27, 224.46 -4.16, 229.71 -1.89" stroke="#1e1e1e" stroke-width="2" fill="none"></path></g></g><mask></mask><g transform="translate(135.53955078125 81.16642761230469) rotate(0 54.55998992919922 10)"><text x="0" y="0" font-family="Virgil, Segoe UI Emoji" font-size="16px" fill="#1e1e1e" text-anchor="start" style="white-space: pre;" direction="ltr" dominant-baseline="text-before-edge">发起HTTP请求</text></g><g stroke-linecap="round"><g transform="translate(307.0376358112518 160.89128496269964) rotate(0 -114.84646988316496 1.1392040152322132)"><path d="M3.16 1.57 C-25.42 -2.92, -47.88 3.23, -110.9 -2.02 M-1.21 0.38 C-28.56 2.1, -59.25 0.7, -113.66 2.29 M-115.85 1.69 C-141.16 4.27, -168.44 4.12, -231.14 5.51 M-116.43 1.76 C-144.04 2.76, -175.12 2.59, -229.18 2.56" stroke="#1e1e1e" stroke-width="2" fill="none"></path></g><g transform="translate(307.0376358112518 160.89128496269964) rotate(0 -114.84646988316496 1.1392040152322132)"><path d="M-204.1 -5.19 C-210.85 -5.69, -214.57 -0.78, -227.26 1.28 M-206.28 -5.79 C-211.28 -3.16, -218.02 -1.76, -228.64 3.44" stroke="#1e1e1e" stroke-width="2" fill="none"></path></g><g transform="translate(307.0376358112518 160.89128496269964) rotate(0 -114.84646988316496 1.1392040152322132)"><path d="M-204.11 11.91 C-210.9 7.62, -214.62 8.74, -227.26 1.28 M-206.3 11.31 C-211.45 9.59, -218.19 6.65, -228.64 3.44" stroke="#1e1e1e" stroke-width="2" fill="none"></path></g></g><mask></mask><g transform="translate(107.7689208984375 116.71897888183594) rotate(0 88 20)"><text x="0" y="0" font-family="Virgil, Segoe UI Emoji" font-size="16px" fill="#1e1e1e" text-anchor="start" style="white-space: pre;" direction="ltr" dominant-baseline="text-before-edge">该请求的缓存结果失效，</text><text x="0" y="20" font-family="Virgil, Segoe UI Emoji" font-size="16px" fill="#1e1e1e" text-anchor="start" style="white-space: pre;" direction="ltr" dominant-baseline="text-before-edge">只返回缓存标识</text></g><g stroke-linecap="round"><g transform="translate(75.453857421875 215.10231018066406) rotate(0 232.19595336914057 -0.901123046875)"><path d="M-0.08 0.43 C158.88 1.47, 317.58 -0.6, 465.82 -1.47 M0.77 -0.71 C161.26 -2.22, 321.71 -2.84, 464.43 -1.13" stroke="#1e1e1e" stroke-width="2" fill="none"></path></g><g transform="translate(75.453857421875 215.10231018066406) rotate(0 232.19595336914057 -0.901123046875)"><path d="M440.79 7.73 C449.06 4.54, 457.04 0.09, 465.98 -0.76 M441.71 6.48 C449.59 4.58, 457.44 1.69, 464.47 -0.39" stroke="#1e1e1e" stroke-width="2" fill="none"></path></g><g transform="translate(75.453857421875 215.10231018066406) rotate(0 232.19595336914057 -0.901123046875)"><path d="M440.91 -9.37 C449.16 -6.71, 457.1 -5.32, 465.98 -0.76 M441.84 -10.62 C449.71 -6.6, 457.52 -3.57, 464.47 -0.39" stroke="#1e1e1e" stroke-width="2" fill="none"></path></g></g><mask></mask><g transform="translate(190.28338623046875 192.96653747558594) rotate(0 142.5599975585937 10)"><text x="0" y="0" font-family="Virgil, Segoe UI Emoji" font-size="16px" fill="#1e1e1e" text-anchor="start" style="white-space: pre;" direction="ltr" dominant-baseline="text-before-edge">携带该资源的缓存标识，发起HTTP请求</text></g><g stroke-linecap="round"><g transform="translate(546.8248291015624 268.6574249267578) rotate(0 -235.76339721679682 0.5649261474609375)"><path d="M-1.31 1.7 C-131.84 0.06, -265.2 1.23, -471.74 2.42 M-0.48 -0.79 C-139.17 -0.06, -278.01 -0.62, -470.64 1.42" stroke="#1e1e1e" stroke-width="2" fill="none"></path></g><g transform="translate(546.8248291015624 268.6574249267578) rotate(0 -235.76339721679682 0.5649261474609375)"><path d="M-448.67 -5.41 C-452.17 -4.62, -458.87 -1.21, -470.87 2.87 M-447.74 -8.19 C-454.09 -4.21, -460.52 -2.63, -469.64 1.75" stroke="#1e1e1e" stroke-width="2" fill="none"></path></g><g transform="translate(546.8248291015624 268.6574249267578) rotate(0 -235.76339721679682 0.5649261474609375)"><path d="M-448.54 11.69 C-452.17 7.64, -458.91 6.23, -470.87 2.87 M-447.61 8.91 C-453.84 7.84, -460.31 4.37, -469.64 1.75" stroke="#1e1e1e" stroke-width="2" fill="none"></path></g></g><mask></mask><g transform="translate(165.65771484375 243.7024688720703) rotate(0 144.70399475097656 10)"><text x="0" y="0" font-family="Virgil, Segoe UI Emoji" font-size="16px" fill="#1e1e1e" text-anchor="start" style="white-space: pre;" direction="ltr" dominant-baseline="text-before-edge">该资源更新了，重新返回请求结果，200</text></g><g stroke-linecap="round"><g transform="translate(76.21966552734375 327.0637664794922) rotate(0 116.55338493236297 -1.617301866188484)"><path d="M-1.56 -1.24 C67.93 1.62, 138.53 1.64, 231.7 -2.41 M-0.25 1.57 C60.53 -2.36, 125.36 -2.87, 234.27 -3.45" stroke="#1e1e1e" stroke-width="2" fill="none"></path></g><g transform="translate(76.21966552734375 327.0637664794922) rotate(0 116.55338493236297 -1.617301866188484)"><path d="M209.91 4.53 C217.08 3.19, 224.9 1.18, 233.43 -2.97 M210.69 6.19 C216.11 3.12, 223.96 1.01, 234.96 -3.58" stroke="#1e1e1e" stroke-width="2" fill="none"></path></g><g transform="translate(76.21966552734375 327.0637664794922) rotate(0 116.55338493236297 -1.617301866188484)"><path d="M209.79 -12.57 C216.97 -8.84, 224.82 -5.78, 233.43 -2.97 M210.57 -10.91 C216.15 -9.43, 224.03 -6.98, 234.96 -3.58" stroke="#1e1e1e" stroke-width="2" fill="none"></path></g></g><mask></mask><g transform="translate(110.482666015625 283.2234344482422) rotate(0 88 20)"><text x="0" y="0" font-family="Virgil, Segoe UI Emoji" font-size="16px" fill="#1e1e1e" text-anchor="start" style="white-space: pre;" direction="ltr" dominant-baseline="text-before-edge">将该请求结果和缓存标识</text><text x="0" y="20" font-family="Virgil, Segoe UI Emoji" font-size="16px" fill="#1e1e1e" text-anchor="start" style="white-space: pre;" direction="ltr" dominant-baseline="text-before-edge">存入到浏览器缓存中</text></g></svg>