<svg version="1.1" xmlns="http://www.w3.org/2000/svg" viewBox="0 0 1145.4957885742185 514.1504821777344" width="1145.4957885742185" height="514.1504821777344">
  <!-- svg-source:excalidraw -->
  
  <defs>
    <style class="style-fonts">
      @font-face {
        font-family: "Virgil";
        src: url("https://excalidraw.com/Virgil.woff2");
      }
      @font-face {
        font-family: "Cascadia";
        src: url("https://excalidraw.com/Cascadia.woff2");
      }
      @font-face {
        font-family: "Assistant";
        src: url("https://excalidraw.com/Assistant-Regular.woff2");
      }
    </style>
    
  </defs>
  <g stroke-linecap="round" transform="translate(10 173.68838500976562) rotate(0 72.26266479492176 25.093231201171875)"><path d="M1.46 5.25 C1.46 5.25, 1.46 5.25, 1.46 5.25 M1.46 5.25 C1.46 5.25, 1.46 5.25, 1.46 5.25 M0.55 12.4 C2.54 8.77, 5.49 6.25, 10.39 1.08 M0.55 12.4 C3.03 9.06, 6.97 5.6, 10.39 1.08 M0.28 18.8 C8.27 10.03, 12.52 5.63, 16.69 -0.07 M0.28 18.8 C3.48 14.61, 6.93 11.01, 16.69 -0.07 M0.02 25.2 C7.34 20.33, 13.06 12.71, 21.67 0.29 M0.02 25.2 C5.44 19.51, 8.76 13.57, 21.67 0.29 M0.42 30.84 C10.43 18.64, 18.27 6.72, 27.32 -0.1 M0.42 30.84 C6.49 22.99, 13.88 15.26, 27.32 -0.1 M0.16 37.24 C6.22 29.66, 14.34 21.39, 32.3 0.26 M0.16 37.24 C11.28 25.78, 21.83 12.42, 32.3 0.26 M1.21 42.12 C15.88 25.26, 28.78 11.7, 37.95 -0.14 M1.21 42.12 C14.76 28.31, 26.57 12.62, 37.95 -0.14 M2.91 46.26 C13.87 32.64, 27.31 19.06, 42.93 0.22 M2.91 46.26 C18.14 29.73, 32.22 11.47, 42.93 0.22 M5.93 48.88 C17.12 37.91, 27.99 25.11, 47.92 0.58 M5.93 48.88 C16.56 36.04, 29.74 22.42, 47.92 0.58 M10.26 50 C20.14 35.49, 33.52 24.36, 53.56 0.19 M10.26 50 C25.9 31.81, 42.03 13.76, 53.56 0.19 M15.25 50.36 C29.48 33.48, 45.09 18.4, 58.55 0.55 M15.25 50.36 C29.23 35.52, 42.28 19.43, 58.55 0.55 M20.89 49.96 C38.02 31.73, 52.11 13.86, 64.19 0.15 M20.89 49.96 C37.3 30.7, 53.24 10.78, 64.19 0.15 M25.88 50.32 C36.95 36.37, 49.96 23.12, 69.18 0.51 M25.88 50.32 C35.23 38.97, 45.44 26.93, 69.18 0.51 M31.52 49.93 C40.99 35.91, 52.93 22.66, 74.82 0.12 M31.52 49.93 C42.03 37.32, 52.84 23.86, 74.82 0.12 M36.51 50.29 C45.72 39.05, 56 26.25, 79.81 0.48 M36.51 50.29 C44.93 39.33, 54.58 30.37, 79.81 0.48 M42.15 49.89 C55.31 38.09, 66.42 25.24, 84.8 0.84 M42.15 49.89 C50.38 38.26, 60.28 29.46, 84.8 0.84 M47.14 50.25 C63.33 31.78, 78.49 15.81, 90.44 0.44 M47.14 50.25 C60.32 35.97, 71.74 21.37, 90.44 0.44 M52.78 49.86 C64.38 33.38, 77.98 17.86, 95.43 0.8 M52.78 49.86 C61.92 36.87, 73.6 25.2, 95.43 0.8 M57.77 50.22 C75.47 29.06, 90 11.83, 101.07 0.41 M57.77 50.22 C70.19 34.17, 84.86 19.81, 101.07 0.41 M62.76 50.58 C71.73 38.83, 83.25 25.37, 106.06 0.77 M62.76 50.58 C77.75 34.16, 92.12 16.44, 106.06 0.77 M68.4 50.18 C83.8 34.32, 100.6 16.29, 111.7 0.37 M68.4 50.18 C84.28 30.86, 101.57 10.58, 111.7 0.37 M73.39 50.54 C84.59 37.4, 93.02 28.6, 116.69 0.73 M73.39 50.54 C84.46 36.86, 97.16 23.52, 116.69 0.73 M79.03 50.15 C90.95 33.08, 106.23 19.34, 121.67 1.09 M79.03 50.15 C88.35 39.83, 95.82 29.93, 121.67 1.09 M84.02 50.51 C92.26 41.84, 102.48 29.77, 127.32 0.7 M84.02 50.51 C99.49 31.9, 117.31 12.38, 127.32 0.7 M89.66 50.12 C103.82 35.52, 115.95 19.94, 132.3 1.06 M89.66 50.12 C104.4 32.55, 118.87 16.89, 132.3 1.06 M94.65 50.48 C105.08 37.33, 118.95 23.19, 137.95 0.67 M94.65 50.48 C111.38 31.08, 129.67 10.77, 137.95 0.67 M99.64 50.84 C115.65 33.49, 129.11 18, 140.97 3.29 M99.64 50.84 C114.3 31.74, 131.61 14.72, 140.97 3.29 M105.28 50.44 C121.41 35.16, 134.09 17.95, 143.33 6.67 M105.28 50.44 C115.35 39.32, 125.29 27.01, 143.33 6.67 M110.27 50.8 C117.62 39.86, 126.58 29.21, 144.38 11.56 M110.27 50.8 C122.45 36.4, 133.9 23.5, 144.38 11.56 M115.91 50.41 C125.56 37.26, 138.15 26.14, 144.12 17.95 M115.91 50.41 C123.37 41.87, 128.72 34.55, 144.12 17.95 M120.9 50.77 C129.62 43.54, 136.56 35.11, 144.51 23.6 M120.9 50.77 C127.78 43.83, 133.5 35.8, 144.51 23.6 M126.54 50.37 C132.78 46.56, 135 39.82, 144.25 30 M126.54 50.37 C131.25 45.62, 134.95 40.24, 144.25 30 M132.18 49.98 C134.79 48.59, 138.55 43.27, 143.99 36.39 M132.18 49.98 C135.6 45.92, 137.47 42.05, 143.99 36.39 M138.48 48.83 C140.28 46.18, 142.28 43.87, 143.73 42.79 M138.48 48.83 C140.28 47.17, 141.79 45.22, 143.73 42.79" stroke="#ffec99" stroke-width="0.5" fill="none"></path><path d="M12.55 0 C40.72 -0.54, 71.8 2.66, 131.98 0 M12.55 0 C49.66 0.29, 88.34 0.14, 131.98 0 M131.98 0 C142.06 1.05, 144.82 4.98, 144.53 12.55 M131.98 0 C138.25 0.71, 142.75 5.43, 144.53 12.55 M144.53 12.55 C142.54 20.67, 145.04 28.21, 144.53 37.64 M144.53 12.55 C145.24 17.72, 145.5 24.11, 144.53 37.64 M144.53 37.64 C145.46 44.29, 140.06 50.01, 131.98 50.19 M144.53 37.64 C142.59 43.75, 138.33 47.91, 131.98 50.19 M131.98 50.19 C99.54 51.23, 69.25 51.44, 12.55 50.19 M131.98 50.19 C89.48 48.68, 47.76 49, 12.55 50.19 M12.55 50.19 C6.07 50.1, -1.01 47.48, 0 37.64 M12.55 50.19 C3.36 51.4, 2.26 46.11, 0 37.64 M0 37.64 C-1.72 30.2, 1.58 23.54, 0 12.55 M0 37.64 C0.71 30.51, 0.63 24.86, 0 12.55 M0 12.55 C1.15 5.19, 4.05 0.82, 12.55 0 M0 12.55 C1.33 4.98, 3.04 0.25, 12.55 0" stroke="#1e1e1e" stroke-width="1" fill="none"></path></g><g transform="translate(35.38766479492176 189.1816162109376) rotate(0 46.875 9.600000000000023)"><text x="46.875" y="0" font-family="Cascadia, Segoe UI Emoji" font-size="16px" fill="#1e1e1e" text-anchor="middle" style="white-space: pre;" direction="ltr" dominant-baseline="text-before-edge">new MVVM()</text></g><g stroke-linecap="round" transform="translate(265.857482910156 105.27322387695312) rotate(0 104.811279296875 36.83868408203125)"><path d="M4.9 4.26 C4.9 4.26, 4.9 4.26, 4.9 4.26 M4.9 4.26 C4.9 4.26, 4.9 4.26, 4.9 4.26 M1.36 14.43 C4.38 9.02, 7.53 7.24, 11.86 2.36 M1.36 14.43 C4.84 10.16, 8.58 5.88, 11.86 2.36 M1.1 20.83 C4.51 13.88, 11.38 8.73, 18.81 0.45 M1.1 20.83 C7.18 14.09, 13.69 6.2, 18.81 0.45 M0.84 27.23 C7.91 20.76, 11.69 14.03, 24.46 0.06 M0.84 27.23 C6.33 21.17, 11.78 15.36, 24.46 0.06 M1.23 32.87 C9.86 21.49, 22.82 11.25, 29.44 0.42 M1.23 32.87 C7.29 24.22, 15.71 16.26, 29.44 0.42 M0.97 39.27 C12.16 28.28, 20.35 16.78, 35.09 0.02 M0.97 39.27 C9.25 29.46, 16.87 19.74, 35.09 0.02 M1.37 44.91 C11.4 35.65, 19.4 23.41, 40.07 0.38 M1.37 44.91 C9.01 36.76, 17.22 26.72, 40.07 0.38 M1.1 51.31 C16.49 34.16, 31.16 17.3, 45.06 0.75 M1.1 51.31 C15.34 34.77, 29.49 17.94, 45.06 0.75 M0.84 57.71 C14.28 42.46, 27.89 29.44, 50.7 0.35 M0.84 57.71 C16.61 39.58, 31.88 20.47, 50.7 0.35 M2.55 61.84 C19.41 46.39, 32.11 28.6, 55.69 0.71 M2.55 61.84 C13.97 48.45, 25.13 36.56, 55.69 0.71 M4.26 65.98 C21.26 48.19, 37.41 31.38, 61.33 0.32 M4.26 65.98 C16.97 52.64, 30 38.21, 61.33 0.32 M5.96 70.11 C21.58 51.6, 39.03 30.2, 66.32 0.68 M5.96 70.11 C21.45 52.17, 37.94 33.95, 66.32 0.68 M9.64 71.98 C29.31 44.98, 51.19 23.67, 71.96 0.28 M9.64 71.98 C32.97 46.43, 55.26 19.22, 71.96 0.28 M12.66 74.6 C29.35 56.27, 43.29 37.79, 76.95 0.64 M12.66 74.6 C32.63 51.62, 53.21 28.24, 76.95 0.64 M18.3 74.21 C35.45 54.87, 56.27 33.44, 82.59 0.25 M18.3 74.21 C41.4 48.52, 64.26 20.15, 82.59 0.25 M23.94 73.81 C49.76 43.53, 73.27 16, 87.58 0.61 M23.94 73.81 C40.95 56.16, 56.07 37.71, 87.58 0.61 M28.93 74.17 C49.47 47.55, 73.29 22.46, 93.22 0.21 M28.93 74.17 C46.27 54.93, 64.16 34.86, 93.22 0.21 M34.57 73.78 C54.26 52.73, 70.8 31.18, 98.21 0.57 M34.57 73.78 C55.66 49.94, 76.6 24.14, 98.21 0.57 M39.56 74.14 C57.48 53.6, 74.95 34.04, 103.85 0.18 M39.56 74.14 C56.7 54.66, 73.14 36.73, 103.85 0.18 M45.2 73.74 C64.8 54.99, 81.47 32.93, 108.84 0.54 M45.2 73.74 C67.19 47.58, 89.5 21.43, 108.84 0.54 M50.19 74.11 C71.42 50.45, 91.93 26.16, 114.48 0.14 M50.19 74.11 C72.93 46.51, 95.15 19.91, 114.48 0.14 M55.83 73.71 C78.68 48.69, 99.2 24.17, 119.47 0.5 M55.83 73.71 C73.1 54.2, 90.55 34.21, 119.47 0.5 M60.82 74.07 C85.89 47.14, 109.38 19.11, 125.11 0.11 M60.82 74.07 C83.43 48.11, 107.32 20.93, 125.11 0.11 M66.46 73.68 C85.12 52.92, 101.03 31.41, 130.1 0.47 M66.46 73.68 C88.47 49.87, 111.13 25.14, 130.1 0.47 M71.45 74.04 C85.45 58.7, 100.67 42.58, 135.74 0.07 M71.45 74.04 C89.4 53.42, 108.53 31.29, 135.74 0.07 M77.09 73.64 C103.06 45.41, 129.4 15.47, 140.73 0.43 M77.09 73.64 C91.39 57.79, 104.47 41.01, 140.73 0.43 M82.08 74 C106.66 42.07, 131.29 12.95, 146.37 0.04 M82.08 74 C99.97 54.23, 116.28 34.24, 146.37 0.04 M87.72 73.61 C106.58 49.89, 127.65 27.35, 151.36 0.4 M87.72 73.61 C102.95 57.31, 118.34 38.6, 151.36 0.4 M92.71 73.97 C104.03 56.59, 118.47 42.51, 156.35 0.76 M92.71 73.97 C112.98 48.5, 135.89 23.67, 156.35 0.76 M98.35 73.57 C122.06 46.27, 147.86 15.23, 161.99 0.37 M98.35 73.57 C120.52 47.21, 142.33 22.46, 161.99 0.37 M103.34 73.93 C125.5 49.63, 147.92 23.58, 166.98 0.73 M103.34 73.93 C118.26 57.46, 130.33 41.45, 166.98 0.73 M108.98 73.54 C132.5 45.74, 156.44 22.78, 172.62 0.33 M108.98 73.54 C131.01 47.55, 154.22 20.81, 172.62 0.33 M113.97 73.9 C132.54 52.38, 152.71 29.81, 177.61 0.69 M113.97 73.9 C132.12 52.75, 150.9 31.93, 177.61 0.69 M119.61 73.5 C130.94 59.48, 144.86 43.93, 183.25 0.3 M119.61 73.5 C138.35 50.41, 158.53 28.35, 183.25 0.3 M124.6 73.86 C141.36 51.46, 160.54 31.33, 188.24 0.66 M124.6 73.86 C143.97 51.88, 161.8 29.83, 188.24 0.66 M129.59 74.22 C150.58 49.79, 173.88 22.96, 192.57 1.77 M129.59 74.22 C147.87 53.14, 166.36 32.96, 192.57 1.77 M135.23 73.83 C152.12 55.69, 164.38 38.67, 197.56 2.13 M135.23 73.83 C160.42 45.29, 185.58 15.48, 197.56 2.13 M140.22 74.19 C155.27 57.44, 165.99 40.27, 201.89 3.25 M140.22 74.19 C152.77 60.05, 165.32 44.88, 201.89 3.25 M145.86 73.79 C161.35 51.89, 179.82 34.96, 205.56 5.12 M145.86 73.79 C163.16 53.05, 183.07 31.89, 205.56 5.12 M150.85 74.15 C169.26 52.63, 185.74 30.9, 207.27 9.25 M150.85 74.15 C165.86 57.3, 181.28 38.87, 207.27 9.25 M156.49 73.76 C172.19 56.3, 190.02 35.38, 208.98 13.38 M156.49 73.76 C175.69 50.04, 196.74 27.28, 208.98 13.38 M161.48 74.12 C181.33 53.21, 196.33 29.87, 211.99 16.01 M161.48 74.12 C175.05 60.49, 187.48 44.39, 211.99 16.01 M167.12 73.73 C177.58 62.29, 188.63 45.82, 211.73 22.41 M167.12 73.73 C181.29 57.11, 196.38 41.74, 211.73 22.41 M172.11 74.09 C184.16 62.71, 193.71 51.23, 212.13 28.05 M172.11 74.09 C182.49 63.47, 190.89 53.27, 212.13 28.05 M177.75 73.69 C189.85 59.86, 201.78 46.46, 211.87 34.45 M177.75 73.69 C186.05 64.07, 193.64 53.67, 211.87 34.45 M182.74 74.05 C191.07 65.12, 198.79 54.87, 212.26 40.09 M182.74 74.05 C191.65 64.31, 200.59 52.84, 212.26 40.09 M188.38 73.66 C193.41 66.08, 202.78 60.17, 212 46.49 M188.38 73.66 C193.78 67.21, 200.5 60.15, 212 46.49 M192.71 74.77 C196.4 67.28, 203.74 63.55, 209.77 55.15 M192.71 74.77 C196.8 70.06, 199.44 66.06, 209.77 55.15 M199.01 73.62 C201.36 72.11, 202.36 69.32, 208.85 62.3 M199.01 73.62 C202.34 70.71, 203.56 67.23, 208.85 62.3" stroke="#ffec99" stroke-width="0.5" fill="none"></path><path d="M18.42 0 C66.56 -1.88, 116.8 0.89, 191.2 0 M18.42 0 C61.51 1.66, 103.92 1.37, 191.2 0 M191.2 0 C202.72 0.97, 210.89 4.71, 209.62 18.42 M191.2 0 C203.9 -1.76, 209.12 7.71, 209.62 18.42 M209.62 18.42 C208.87 27.76, 211.43 36.24, 209.62 55.26 M209.62 18.42 C209.38 33.68, 210.44 47.85, 209.62 55.26 M209.62 55.26 C210.83 67.72, 204.14 74.84, 191.2 73.68 M209.62 55.26 C209.54 67.23, 205.29 75.54, 191.2 73.68 M191.2 73.68 C129.79 73.6, 72.36 73.92, 18.42 73.68 M191.2 73.68 C138.9 74.65, 85.58 74.53, 18.42 73.68 M18.42 73.68 C7.13 74.25, 0.81 68.26, 0 55.26 M18.42 73.68 C7.22 72.34, -0.81 66.21, 0 55.26 M0 55.26 C-1.61 43.49, 1.26 32.99, 0 18.42 M0 55.26 C-0.14 43.31, 0.51 31.91, 0 18.42 M0 18.42 C0.58 5.67, 4.83 1.9, 18.42 0 M0 18.42 C-0.77 4.73, 7.9 -0.62, 18.42 0" stroke="#1e1e1e" stroke-width="1" fill="none"></path></g><g transform="translate(306.668762207031 122.91190795898433) rotate(0 64 19.200000000000045)"><text x="64" y="0" font-family="Cascadia, Segoe UI Emoji" font-size="16px" fill="#1e1e1e" text-anchor="middle" style="white-space: pre;" direction="ltr" dominant-baseline="text-before-edge">Observer</text><text x="64" y="19.2" font-family="Cascadia, Segoe UI Emoji" font-size="16px" fill="#1e1e1e" text-anchor="middle" style="white-space: pre;" direction="ltr" dominant-baseline="text-before-edge">劫持监听所有属性</text></g><g stroke-linecap="round" transform="translate(265.728576660156 228.21783447265625) rotate(0 104.811279296875 36.83868408203125)"><path d="M4.9 4.26 C4.9 4.26, 4.9 4.26, 4.9 4.26 M4.9 4.26 C4.9 4.26, 4.9 4.26, 4.9 4.26 M0.05 15.94 C4.2 11.81, 5.59 9.47, 12.51 1.6 M0.05 15.94 C3.09 11.79, 6.14 8.15, 12.51 1.6 M0.44 21.59 C6.97 14.08, 11.55 10.56, 18.81 0.45 M0.44 21.59 C6.92 15.13, 11.61 7.28, 18.81 0.45 M0.18 27.98 C9.43 18.1, 19.65 7.01, 24.46 0.06 M0.18 27.98 C8.67 18.06, 15.31 9.59, 24.46 0.06 M0.58 33.63 C9.38 19.69, 19.96 8.02, 29.44 0.42 M0.58 33.63 C10.92 21.6, 21.3 9.23, 29.44 0.42 M0.32 40.02 C14.05 24.63, 25.57 12.8, 35.09 0.02 M0.32 40.02 C11.34 25.55, 24.62 12.16, 35.09 0.02 M0.05 46.42 C15.14 32.63, 27.9 16.38, 40.07 0.38 M0.05 46.42 C8.5 37.97, 16.47 28.4, 40.07 0.38 M0.45 52.07 C15.7 36.17, 29.42 17.41, 45.06 0.75 M0.45 52.07 C11.46 38.22, 22.74 24.84, 45.06 0.75 M0.19 58.46 C17.58 38.16, 37.97 13.4, 50.7 0.35 M0.19 58.46 C11.4 46.97, 21.92 33.44, 50.7 0.35 M1.89 62.6 C16.79 48.18, 26.28 30.94, 55.69 0.71 M1.89 62.6 C21.54 41.65, 40.36 19.75, 55.69 0.71 M3.6 66.73 C17.31 51.26, 29.02 36.93, 61.33 0.32 M3.6 66.73 C22.19 43.55, 43.42 22.4, 61.33 0.32 M5.96 70.11 C24.24 49.68, 38.53 32.46, 66.32 0.68 M5.96 70.11 C18.49 55.69, 30.55 40.46, 66.32 0.68 M9.64 71.98 C33.2 45.61, 56.72 18.39, 71.96 0.28 M9.64 71.98 C28.22 49.48, 47.22 27.18, 71.96 0.28 M13.97 73.09 C32.25 50.89, 54.06 25.97, 76.95 0.64 M13.97 73.09 C38.29 45.62, 61.85 17.52, 76.95 0.64 M18.3 74.21 C31.04 61.6, 42.27 42.93, 82.59 0.25 M18.3 74.21 C35.17 54.97, 51.83 36.75, 82.59 0.25 M23.94 73.81 C44.66 52.94, 63.01 29.46, 87.58 0.61 M23.94 73.81 C43.51 50.17, 64.66 27.42, 87.58 0.61 M28.93 74.17 C46.71 50.11, 69.02 31.25, 93.22 0.21 M28.93 74.17 C46.14 56.75, 61.71 38.32, 93.22 0.21 M34.57 73.78 C54.27 50.99, 76.51 25.64, 98.21 0.57 M34.57 73.78 C50.39 55.23, 67.14 36.58, 98.21 0.57 M39.56 74.14 C61.74 50.34, 84.05 22.79, 103.85 0.18 M39.56 74.14 C52.99 59.57, 66.04 42.75, 103.85 0.18 M45.2 73.74 C68.27 46.59, 92.91 20.24, 108.84 0.54 M45.2 73.74 C64.07 52.29, 83.67 30.81, 108.84 0.54 M50.19 74.11 C74.71 44.79, 98.93 17.14, 114.48 0.14 M50.19 74.11 C73.85 48.17, 95.59 20.48, 114.48 0.14 M55.83 73.71 C72.33 57.72, 88.18 40.91, 119.47 0.5 M55.83 73.71 C76.99 49.55, 98.38 26.25, 119.47 0.5 M60.82 74.07 C84.44 45.41, 109.59 16.33, 125.11 0.11 M60.82 74.07 C86.1 45.58, 110.37 17.66, 125.11 0.11 M66.46 73.68 C83.68 51.15, 101.01 32.69, 130.1 0.47 M66.46 73.68 C88 48.22, 109.57 23.5, 130.1 0.47 M71.45 74.04 C91.84 49.03, 112.53 28.84, 135.74 0.07 M71.45 74.04 C88.56 54.55, 107.76 33.09, 135.74 0.07 M77.09 73.64 C99.52 49.15, 123.88 22.65, 140.73 0.43 M77.09 73.64 C95.21 53.11, 114.21 31.54, 140.73 0.43 M82.08 74 C105.9 46.95, 130.11 16.99, 146.37 0.04 M82.08 74 C99.67 52.05, 118.21 30.05, 146.37 0.04 M87.72 73.61 C110.72 45.35, 132.66 19.14, 151.36 0.4 M87.72 73.61 C100.08 56.95, 114.41 42.68, 151.36 0.4 M92.71 73.97 C107.39 56.03, 124.22 38.81, 156.35 0.76 M92.71 73.97 C117.43 46.21, 142.81 18.52, 156.35 0.76 M98.35 73.57 C119.78 47.67, 142.87 23.38, 161.99 0.37 M98.35 73.57 C119.12 48.71, 139.42 25.62, 161.99 0.37 M103.34 73.93 C117.88 56.15, 129.58 40.6, 166.98 0.73 M103.34 73.93 C126.21 46.76, 149.53 21.07, 166.98 0.73 M108.98 73.54 C130.87 48.66, 157.42 19.13, 172.62 0.33 M108.98 73.54 C131.47 47.02, 154.75 20.04, 172.62 0.33 M113.97 73.9 C128.68 55.53, 142.87 40.78, 177.61 0.69 M113.97 73.9 C138.24 48.83, 161.32 21.48, 177.61 0.69 M119.61 73.5 C138.32 53.9, 155.94 31.07, 183.25 0.3 M119.61 73.5 C144.03 44.28, 168.51 16.91, 183.25 0.3 M124.6 73.86 C145.05 51.59, 163.84 28.89, 188.24 0.66 M124.6 73.86 C146.75 48.45, 170.15 21.95, 188.24 0.66 M129.59 74.22 C151.19 48.63, 176.19 19.86, 193.88 0.26 M129.59 74.22 C153.93 45.02, 178.34 17.09, 193.88 0.26 M135.23 73.83 C148.38 57.39, 162.03 42.52, 198.21 1.38 M135.23 73.83 C150.85 56.39, 165.97 38, 198.21 1.38 M140.22 74.19 C154.36 57.18, 167.51 44, 201.89 3.25 M140.22 74.19 C159.41 53.13, 176.78 31.4, 201.89 3.25 M145.86 73.79 C160.23 54.79, 176.95 37.6, 205.56 5.12 M145.86 73.79 C168.77 48.78, 189.06 23.26, 205.56 5.12 M150.85 74.15 C166.03 55.88, 182.3 40.08, 207.27 9.25 M150.85 74.15 C172.08 49.21, 193.38 22.91, 207.27 9.25 M156.49 73.76 C174.6 52.3, 193.02 32.23, 208.98 13.38 M156.49 73.76 C176.35 51.77, 195.96 29.08, 208.98 13.38 M161.48 74.12 C180.19 55.14, 196.71 37.13, 209.37 19.03 M161.48 74.12 C173.32 60.87, 187.15 45.49, 209.37 19.03 M167.12 73.73 C176.71 62.48, 190.72 48.03, 209.77 24.67 M167.12 73.73 C183.71 54.52, 200.26 34.74, 209.77 24.67 M172.11 74.09 C184.5 63.58, 195.06 50.95, 209.5 31.07 M172.11 74.09 C179.74 64.24, 188.7 55.17, 209.5 31.07 M177.75 73.69 C189.69 59.35, 200.21 48, 209.9 36.71 M177.75 73.69 C184.51 66.07, 192.27 55.93, 209.9 36.71 M182.74 74.05 C188.25 64.65, 194.83 58.01, 209.64 43.11 M182.74 74.05 C191.24 63.2, 202.68 51.69, 209.64 43.11 M188.38 73.66 C195.4 67.43, 202.31 58.39, 210.03 48.75 M188.38 73.66 C195.87 65.22, 204.56 56.27, 210.03 48.75 M193.37 74.02 C197.72 70.5, 202.85 64.76, 209.77 55.15 M193.37 74.02 C197.7 69.32, 201.32 64.8, 209.77 55.15 M200.32 72.11 C202.12 69.96, 206.17 66.68, 208.85 62.3 M200.32 72.11 C204.32 68.05, 207.29 64.92, 208.85 62.3" stroke="#ffec99" stroke-width="0.5" fill="none"></path><path d="M18.42 0 C56.92 -1.32, 97.25 -1.37, 191.2 0 M18.42 0 C86.05 -1.36, 155.28 -0.16, 191.2 0 M191.2 0 C204.8 1.28, 211.59 5.23, 209.62 18.42 M191.2 0 C204.47 2.15, 209.39 4.93, 209.62 18.42 M209.62 18.42 C210.95 31.34, 209.76 46.51, 209.62 55.26 M209.62 18.42 C210.09 27.55, 209.37 36.49, 209.62 55.26 M209.62 55.26 C210.42 68.27, 204.43 72.63, 191.2 73.68 M209.62 55.26 C208.27 68.59, 202.19 72.82, 191.2 73.68 M191.2 73.68 C155.04 75.04, 116.72 73.19, 18.42 73.68 M191.2 73.68 C138.44 74.4, 85.25 75.11, 18.42 73.68 M18.42 73.68 C7.91 74.02, 0.76 69.21, 0 55.26 M18.42 73.68 C6.06 72.74, -0.5 66.02, 0 55.26 M0 55.26 C-0.77 47.95, -0.9 38.54, 0 18.42 M0 55.26 C0.67 41.93, -0.51 27.72, 0 18.42 M0 18.42 C-0.04 8.06, 7.18 1.36, 18.42 0 M0 18.42 C-1.39 7.38, 6.71 -0.22, 18.42 0" stroke="#1e1e1e" stroke-width="1" fill="none"></path></g><g transform="translate(337.727355957031 245.85651855468745) rotate(0 32.8125 19.200000000000045)"><text x="32.8125" y="0" font-family="Cascadia, Segoe UI Emoji" font-size="16px" fill="#1e1e1e" text-anchor="middle" style="white-space: pre;" direction="ltr" dominant-baseline="text-before-edge">Compile</text><text x="32.8125" y="19.2" font-family="Cascadia, Segoe UI Emoji" font-size="16px" fill="#1e1e1e" text-anchor="middle" style="white-space: pre;" direction="ltr" dominant-baseline="text-before-edge">解析指令</text></g><g stroke-linecap="round"><g transform="translate(156.09478759765602 193.50021362304688) rotate(0 55.4036865234375 -25.16351318359375)"><path d="M0.99 0.46 C19.58 -8.25, 93 -42.71, 111.39 -51.29 M0.05 -0.34 C18.55 -9.01, 92.28 -41.97, 110.74 -50.26" stroke="#1e1e1e" stroke-width="2" fill="none"></path></g><g transform="translate(156.09478759765602 193.50021362304688) rotate(0 55.4036865234375 -25.16351318359375)"><path d="M92.8 -32.85 C98.58 -37.03, 101.36 -42.16, 110.74 -50.26 M92.8 -32.85 C96.39 -37.29, 100.77 -41.31, 110.74 -50.26" stroke="#1e1e1e" stroke-width="2" fill="none"></path></g><g transform="translate(156.09478759765602 193.50021362304688) rotate(0 55.4036865234375 -25.16351318359375)"><path d="M85.81 -48.45 C93.72 -48.21, 98.5 -48.86, 110.74 -50.26 M85.81 -48.45 C90.95 -49.06, 97.01 -49.32, 110.74 -50.26" stroke="#1e1e1e" stroke-width="2" fill="none"></path></g></g><mask></mask><g stroke-linecap="round"><g transform="translate(155.98388671874977 209.32015991210938) rotate(0 56.469879150390625 30.47515869140625)"><path d="M0.75 0.99 C19.34 11.04, 93.79 50.67, 112.43 60.53 M-0.32 0.47 C17.99 10.66, 92.55 51.75, 111.21 61.85" stroke="#1e1e1e" stroke-width="2" fill="none"></path></g><g transform="translate(155.98388671874977 209.32015991210938) rotate(0 56.469879150390625 30.47515869140625)"><path d="M86.5 58.08 C97.39 58.48, 104.25 60.15, 111.21 61.85 M86.5 58.08 C91.86 58.32, 98.2 60.26, 111.21 61.85" stroke="#1e1e1e" stroke-width="2" fill="none"></path></g><g transform="translate(155.98388671874977 209.32015991210938) rotate(0 56.469879150390625 30.47515869140625)"><path d="M94.7 43.07 C102.56 49.12, 106.36 56.4, 111.21 61.85 M94.7 43.07 C98.28 46.88, 102.71 52.3, 111.21 61.85" stroke="#1e1e1e" stroke-width="2" fill="none"></path></g></g><mask></mask><g stroke-linecap="round" transform="translate(653.938781738281 10) rotate(0 73.6427001953125 55.28753662109375)"><path d="M19.3 16.78 C19.3 16.78, 19.3 16.78, 19.3 16.78 M19.3 16.78 C19.3 16.78, 19.3 16.78, 19.3 16.78 M2.64 42.05 C8.73 34.37, 17.65 23.63, 28.23 12.61 M2.64 42.05 C9.76 34.86, 14.45 27.02, 28.23 12.61 M2.38 48.44 C9.08 40.17, 17.38 29.32, 37.15 8.44 M2.38 48.44 C10.51 39.95, 16.51 31.03, 37.15 8.44 M2.12 54.84 C14.81 41.22, 24.69 28.23, 46.07 4.28 M2.12 54.84 C11.44 44.39, 20.52 33.38, 46.07 4.28 M1.86 61.24 C19.7 40.34, 42.75 17.64, 53.03 2.37 M1.86 61.24 C21.66 39.67, 39.33 18.16, 53.03 2.37 M2.25 66.88 C20.89 44.4, 39.78 22.11, 58.67 1.98 M2.25 66.88 C14.99 52.65, 28.47 37.69, 58.67 1.98 M3.96 71.02 C21.5 54.2, 35.23 34.84, 64.32 1.58 M3.96 71.02 C17.35 53.54, 32.57 38.5, 64.32 1.58 M6.32 74.4 C21.75 54.04, 38.23 35.18, 69.96 1.19 M6.32 74.4 C20.82 56.28, 35.46 40.71, 69.96 1.19 M8.68 77.77 C30.76 50.2, 55.63 23.31, 75.6 0.79 M8.68 77.77 C31.99 52.84, 52.43 25.91, 75.6 0.79 M10.39 81.91 C36.63 53.22, 64.65 20.94, 81.24 0.4 M10.39 81.91 C24.72 64.12, 42.13 45.02, 81.24 0.4 M12.75 85.29 C30.99 68.02, 47.18 49.94, 86.23 0.76 M12.75 85.29 C31.25 65.11, 47.99 44.83, 86.23 0.76 M15.12 88.67 C41.03 60.6, 65.38 29.25, 89.91 2.63 M15.12 88.67 C37.69 62.48, 60.69 37.14, 89.91 2.63 M17.48 92.04 C46.34 59.02, 74.16 27.59, 94.24 3.74 M17.48 92.04 C43.38 61.04, 71.24 31.07, 94.24 3.74 M21.15 93.91 C49.28 64.48, 75.17 32.86, 98.57 4.86 M21.15 93.91 C39.67 71.17, 59.05 50.21, 98.57 4.86 M24.83 95.78 C45.88 70.14, 68.95 43.77, 102.9 5.97 M24.83 95.78 C49.38 68.98, 71.11 43.41, 102.9 5.97 M28.5 97.65 C57.75 63.85, 86.77 33.47, 106.57 7.84 M28.5 97.65 C53.6 67.96, 79.78 37.78, 106.57 7.84 M31.52 100.28 C55.59 69.79, 83.51 44.41, 110.91 8.96 M31.52 100.28 C59.7 69.49, 86.5 37.75, 110.91 8.96 M35.2 102.15 C54.42 79.37, 76.01 60.17, 115.24 10.07 M35.2 102.15 C56.5 76.35, 79.74 51.27, 115.24 10.07 M38.87 104.02 C65.69 73.06, 92.97 43.39, 118.91 11.94 M38.87 104.02 C54.97 85.33, 69.85 66.99, 118.91 11.94 M42.55 105.89 C63.2 82.69, 78.5 64.81, 121.93 14.57 M42.55 105.89 C67.07 75.41, 93.52 45.68, 121.93 14.57 M46.22 107.76 C63.54 87.99, 79.58 70.3, 124.95 17.19 M46.22 107.76 C75.83 74.43, 104.21 39.27, 124.95 17.19 M51.21 108.12 C73.01 82.63, 94.77 55.95, 127.97 19.81 M51.21 108.12 C79.61 74.44, 107.98 41.76, 127.97 19.81 M56.2 108.48 C76.27 86.62, 95.79 63.02, 130.99 22.44 M56.2 108.48 C76.52 86.28, 96.19 63.65, 130.99 22.44 M61.18 108.84 C88.72 80.89, 115.35 49.16, 134.01 25.06 M61.18 108.84 C78.26 89.83, 96.2 69.59, 134.01 25.06 M66.17 109.2 C90.71 80.54, 112.77 57.36, 137.02 27.69 M66.17 109.2 C81.93 90.59, 96.45 72.12, 137.02 27.69 M70.5 110.31 C88.71 88.25, 105.17 69.15, 140.04 30.31 M70.5 110.31 C94.98 81.44, 120.74 51.94, 140.04 30.31 M75.49 110.67 C96.46 88.16, 111.61 68.15, 141.75 34.45 M75.49 110.67 C96.61 86.78, 118.01 61.89, 141.75 34.45 M80.47 111.03 C92.07 95.05, 107.45 82.53, 142.8 39.33 M80.47 111.03 C103.4 85.4, 124.65 60.93, 142.8 39.33 M87.43 109.13 C106.36 84.51, 129.54 62.66, 144.51 43.47 M87.43 109.13 C108.43 83.47, 131.76 59.22, 144.51 43.47 M94.38 107.22 C112.89 86.41, 129.39 71.29, 145.56 48.36 M94.38 107.22 C113.41 83.69, 134.18 62.61, 145.56 48.36 M101.34 105.32 C113.84 93.81, 126.81 79.83, 146.61 53.24 M101.34 105.32 C117.36 87.27, 131.77 69.69, 146.61 53.24 M108.3 103.41 C119.25 88.24, 132.89 76.82, 146.35 59.64 M108.3 103.41 C117.76 93.32, 127.13 83.27, 146.35 59.64 M117.87 98.49 C126.13 88.6, 137.41 77.4, 142.8 69.81 M117.87 98.49 C124.2 90.65, 132.03 82.3, 142.8 69.81 M135.98 83.76 C137.26 82.91, 137.75 81.46, 138.61 80.74 M135.98 83.76 C136.52 83.03, 137.34 82.24, 138.61 80.74" stroke="#b2f2bb" stroke-width="0.5" fill="none"></path><path d="M84.31 0.3 C94.94 0.5, 106.81 5.21, 116.18 10.22 C125.56 15.22, 135.41 22.67, 140.55 30.34 C145.69 38.01, 147.54 47.55, 147 56.23 C146.46 64.92, 142.95 74.82, 137.31 82.45 C131.67 90.08, 122.71 97.27, 113.16 102.02 C103.61 106.77, 91.34 110.05, 80 110.94 C68.66 111.83, 55.75 110.65, 45.13 107.36 C34.51 104.07, 23.62 98.08, 16.29 91.2 C8.97 84.32, 3.52 74.67, 1.19 66.08 C-1.14 57.48, -0.74 47.91, 2.31 39.65 C5.36 31.39, 11.5 22.8, 19.51 16.54 C27.52 10.29, 38.35 4.46, 50.36 2.1 C62.37 -0.25, 83.6 1.94, 91.56 2.42 C99.53 2.9, 98.56 4.17, 98.13 4.98" stroke="#1e1e1e" stroke-width="1.5" fill="none" stroke-dasharray="8 9"></path></g><g transform="translate(713.4457292406003 55.59334456121883) rotate(0 14.0625 9.600000000000023)"><text x="14.0625" y="0" font-family="Cascadia, Segoe UI Emoji" font-size="16px" fill="#ced4da" text-anchor="middle" style="white-space: pre;" direction="ltr" dominant-baseline="text-before-edge">Dep</text></g><g stroke-linecap="round" transform="translate(652.9259033203123 393.5754089355469) rotate(0 73.6427001953125 55.28753662109375)"><path d="M15.3 22.58 C15.3 22.58, 15.3 22.58, 15.3 22.58 M15.3 22.58 C15.3 22.58, 15.3 22.58, 15.3 22.58 M6.51 38.79 C15.22 31.05, 20.37 19.66, 26.85 15.39 M6.51 38.79 C14.44 30.81, 21.6 22.04, 26.85 15.39 M2.97 48.96 C12.52 39.28, 19.05 30.72, 39.05 7.45 M2.97 48.96 C15.57 34.92, 28.48 21.34, 39.05 7.45 M3.36 54.6 C14.47 39.86, 27.25 26.15, 46.01 5.54 M3.36 54.6 C16.59 39.9, 30.84 23.28, 46.01 5.54 M3.76 60.24 C17.15 46.99, 27.27 29.93, 52.31 4.39 M3.76 60.24 C20.63 41.53, 37.67 22.6, 52.31 4.39 M4.81 65.13 C16.73 50.15, 28.95 35.21, 57.95 4 M4.81 65.13 C15.68 51.58, 26.58 39.59, 57.95 4 M5.2 70.77 C16.1 55.22, 28.88 42.94, 64.25 2.85 M5.2 70.77 C22.22 51.38, 39.53 31.78, 64.25 2.85 M6.91 74.91 C26.87 53.27, 43.07 30.63, 70.55 1.7 M6.91 74.91 C21.39 57.6, 37.23 40.49, 70.55 1.7 M9.27 78.29 C26.64 62.25, 41.3 45.36, 76.19 1.31 M9.27 78.29 C30.41 53.31, 51.03 30.05, 76.19 1.31 M11.64 81.67 C36.9 49.99, 66.62 19.57, 80.52 2.42 M11.64 81.67 C30 61.27, 47.08 40.91, 80.52 2.42 M14 85.04 C35.41 64.31, 52.18 39.43, 85.51 2.78 M14 85.04 C38.84 56.27, 64.52 27.1, 85.51 2.78 M16.36 88.42 C44.15 57.04, 72.72 27, 89.84 3.9 M16.36 88.42 C39.37 61.04, 64.26 33.01, 89.84 3.9 M18.72 91.8 C49.31 56.97, 78.73 24.48, 94.17 5.01 M18.72 91.8 C40.9 65.89, 65.59 37.68, 94.17 5.01 M21.09 95.18 C48.66 62.15, 75.61 32.17, 98.5 6.13 M21.09 95.18 C51.64 60.65, 82.4 24.24, 98.5 6.13 M24.76 97.05 C41.89 75.03, 63.52 53.22, 102.83 7.24 M24.76 97.05 C46.06 75.04, 65.03 51.31, 102.83 7.24 M28.44 98.92 C45.93 80.1, 60.73 64.52, 107.82 7.6 M28.44 98.92 C56.13 64.66, 85.99 31.8, 107.82 7.6 M32.77 100.04 C58.99 71.56, 84.89 38.86, 112.15 8.72 M32.77 100.04 C56.21 71.34, 80.35 45.5, 112.15 8.72 M36.44 101.9 C65.94 65.49, 98.18 31.45, 115.17 11.34 M36.44 101.9 C56.52 80.07, 73.23 58.81, 115.17 11.34 M40.77 103.02 C69.09 70.63, 100.16 34.66, 118.19 13.96 M40.77 103.02 C60.78 79.74, 81.38 57.45, 118.19 13.96 M44.45 104.89 C70.79 70.93, 98.16 38.86, 121.86 15.83 M44.45 104.89 C74.13 70.03, 105.86 34, 121.86 15.83 M48.12 106.76 C66.22 84.3, 84.61 64.08, 124.88 18.46 M48.12 106.76 C77.09 72.67, 107.84 36.57, 124.88 18.46 M52.45 107.87 C81.12 74.96, 110.62 43.42, 128.56 20.33 M52.45 107.87 C76.33 79.84, 99.74 53.05, 128.56 20.33 M56.79 108.99 C78.25 81.94, 101.62 55.09, 131.58 22.95 M56.79 108.99 C80.99 82.93, 104.88 55.79, 131.58 22.95 M61.77 109.35 C80.89 85.53, 103.44 62.07, 134.6 25.58 M61.77 109.35 C79.47 88.95, 96.83 69.51, 134.6 25.58 M66.76 109.71 C85.73 85.81, 104.46 63.5, 136.96 28.95 M66.76 109.71 C83.77 92, 99.19 73.15, 136.96 28.95 M71.75 110.07 C90.9 86.5, 109.99 65.95, 138.66 33.09 M71.75 110.07 C92.26 85.63, 111.94 62.83, 138.66 33.09 M76.73 110.43 C92.99 93.17, 107.91 77.68, 140.37 37.22 M76.73 110.43 C96.63 87.9, 117.1 64.53, 140.37 37.22 M81.72 110.79 C97.3 93.37, 111.31 72.46, 142.73 40.6 M81.72 110.79 C95.62 96.2, 108.47 80.32, 142.73 40.6 M86.71 111.15 C109.95 84.69, 131.21 62.01, 144.44 44.73 M86.71 111.15 C108.4 86.2, 129.97 61.73, 144.44 44.73 M94.32 108.49 C103.76 97.1, 113.3 84.6, 146.15 48.87 M94.32 108.49 C113.27 85.06, 135.35 62.33, 146.15 48.87 M102.59 105.08 C113.6 90.89, 128.8 76.41, 147.2 53.76 M102.59 105.08 C115.21 89, 129.65 72.57, 147.2 53.76 M110.85 101.66 C119.97 90.5, 131.01 75.54, 145.62 61.66 M110.85 101.66 C124.48 86.59, 137.39 70.34, 145.62 61.66 M118.46 99 C125.41 90.68, 128.22 85.72, 144.05 69.57 M118.46 99 C125.04 89.15, 133.86 81.29, 144.05 69.57" stroke="#b2f2bb" stroke-width="0.5" fill="none"></path><path d="M41.15 6.28 C50.27 2, 64.08 0.38, 75.72 0.7 C87.35 1.01, 101.07 3.99, 110.97 8.15 C120.86 12.3, 129.01 18.34, 135.09 25.61 C141.16 32.88, 146.24 43.19, 147.43 51.77 C148.62 60.36, 146.72 69.51, 142.22 77.12 C137.72 84.74, 129.49 91.92, 120.43 97.46 C111.38 103, 99.05 108.53, 87.89 110.38 C76.72 112.24, 64.48 111.06, 53.46 108.59 C42.44 106.13, 29.9 101.73, 21.76 95.62 C13.62 89.51, 7.93 79.97, 4.61 71.93 C1.29 63.89, 0.01 55.67, 1.84 47.4 C3.66 39.12, 7.14 29.83, 15.56 22.28 C23.98 14.73, 44.68 5.35, 52.36 2.08 C60.05 -1.19, 61.32 1.79, 61.69 2.66" stroke="#1e1e1e" stroke-width="1.5" fill="none" stroke-dasharray="8 9"></path></g><g transform="translate(693.6828508226315 439.1687534967657) rotate(0 32.8125 9.600000000000023)"><text x="32.8125" y="0" font-family="Cascadia, Segoe UI Emoji" font-size="16px" fill="#ced4da" text-anchor="middle" style="white-space: pre;" direction="ltr" dominant-baseline="text-before-edge">Updater</text></g><g mask="url(#mask-CZrw_Ah39YbFJf4x4vgAu)" stroke-linecap="round"><g transform="translate(485.3626708984373 150.193725169476) rotate(0 83.65265053640633 -39.52187126011563)"><path d="M1.09 -0.65 C29.21 -13.73, 140.19 -66.72, 167.73 -79.59 M0.21 1.62 C28.29 -11.2, 138.93 -64.8, 167 -78.33" stroke="#1e1e1e" stroke-width="2" fill="none"></path></g><g transform="translate(485.3626708984373 150.193725169476) rotate(0 83.65265053640633 -39.52187126011563)"><path d="M149.56 -60.42 C152.45 -63.78, 156.44 -70.09, 167 -78.33 M149.56 -60.42 C157.01 -67.02, 164.13 -74.65, 167 -78.33" stroke="#1e1e1e" stroke-width="2" fill="none"></path></g><g transform="translate(485.3626708984373 150.193725169476) rotate(0 83.65265053640633 -39.52187126011563)"><path d="M142.13 -75.82 C146.5 -75.89, 152.1 -78.83, 167 -78.33 M142.13 -75.82 C152.47 -76.29, 162.56 -77.77, 167 -78.33" stroke="#1e1e1e" stroke-width="2" fill="none"></path></g></g><mask id="mask-CZrw_Ah39YbFJf4x4vgAu"><rect x="0" y="0" fill="#fff" width="752.6679719712499" height="329.2374676897073"></rect><rect x="553.0153214348436" y="91.47185390936033" fill="#000" width="32" height="38.4" opacity="1"></rect></mask><g transform="translate(553.0153214348436 91.47185390936033) rotate(0 16.315329711800473 19.740518319094576)"><text x="16" y="0" font-family="Cascadia, Segoe UI Emoji" font-size="16px" fill="#1e1e1e" text-anchor="middle" style="white-space: pre;" direction="ltr" dominant-baseline="text-before-edge">通知</text><text x="16" y="19.2" font-family="Cascadia, Segoe UI Emoji" font-size="16px" fill="#1e1e1e" text-anchor="middle" style="white-space: pre;" direction="ltr" dominant-baseline="text-before-edge">变化</text></g><g mask="url(#mask-n6MiYG1afj1zKQNBOIgCU)" stroke-linecap="round"><g transform="translate(480.3486328124998 277.31952571292595) rotate(0 85.64548159905144 82.36616863271104)"><path d="M-0.06 -0.97 C28.35 26.51, 141.6 136.29, 170.17 163.87 M-1.56 1.14 C27.24 28.84, 143.6 137.52, 172.3 164.96" stroke="#1e1e1e" stroke-width="2" fill="none"></path></g><g transform="translate(480.3486328124998 277.31952571292595) rotate(0 85.64548159905144 82.36616863271104)"><path d="M149.35 155.05 C153.9 155.9, 160.32 160.6, 172.3 164.96 M149.35 155.05 C156.75 158.5, 162.28 161.29, 172.3 164.96" stroke="#1e1e1e" stroke-width="2" fill="none"></path></g><g transform="translate(480.3486328124998 277.31952571292595) rotate(0 85.64548159905144 82.36616863271104)"><path d="M161.08 142.62 C162.34 146.84, 165.57 154.93, 172.3 164.96 M161.08 142.62 C165.17 149.55, 167.37 155.86, 172.3 164.96" stroke="#1e1e1e" stroke-width="2" fill="none"></path></g></g><mask id="mask-n6MiYG1afj1zKQNBOIgCU"><rect x="0" y="0" fill="#fff" width="751.6395960106026" height="542.051862978348"></rect><rect x="541.9941144115512" y="340.48569434563706" fill="#000" width="48" height="38.4" opacity="1"></rect></mask><g transform="translate(541.9941144115512 340.48569434563706) rotate(0 23.725804155729747 18.829070389028516)"><text x="24" y="0" font-family="Cascadia, Segoe UI Emoji" font-size="16px" fill="#1e1e1e" text-anchor="middle" style="white-space: pre;" direction="ltr" dominant-baseline="text-before-edge">初始化</text><text x="24" y="19.2" font-family="Cascadia, Segoe UI Emoji" font-size="16px" fill="#1e1e1e" text-anchor="middle" style="white-space: pre;" direction="ltr" dominant-baseline="text-before-edge">视图</text></g><g mask="url(#mask-mCQoFmArSx6Nv0EzlIadW)" stroke-linecap="round"><g transform="translate(480.819396972656 268.2383728027344) rotate(0 237.92330932617188 -1.494299474341119)"><path d="M-0.18 0.19 C79.11 -0.59, 396.05 -3.18, 475.44 -3.64 M-1.73 -0.76 C77.39 -0.88, 394.73 -1.78, 474.27 -2.44" stroke="#1e1e1e" stroke-width="1" fill="none"></path></g><g transform="translate(480.819396972656 268.2383728027344) rotate(0 237.92330932617188 -1.494299474341119)"><path d="M450.83 6.23 C457.49 3.2, 462.54 1.97, 474.27 -2.44 M450.83 6.23 C459.57 3.97, 467.01 0.22, 474.27 -2.44" stroke="#1e1e1e" stroke-width="1" fill="none"></path></g><g transform="translate(480.819396972656 268.2383728027344) rotate(0 237.92330932617188 -1.494299474341119)"><path d="M450.74 -10.87 C457.58 -9.21, 462.64 -5.74, 474.27 -2.44 M450.74 -10.87 C459.48 -7.43, 466.94 -5.47, 474.27 -2.44" stroke="#1e1e1e" stroke-width="1" fill="none"></path></g></g><mask id="mask-mCQoFmArSx6Nv0EzlIadW"><rect x="0" y="0" fill="#fff" width="1056.6660156249998" height="371.2269717514166"></rect><rect x="614.7427062988279" y="257.14407332839323" fill="#000" width="208" height="19.2" opacity="1"></rect></mask><g transform="translate(614.7427062988281 257.14407332839323) rotate(0 102.92954948655324 9.367362111434318)"><text x="104" y="0" font-family="Cascadia, Segoe UI Emoji" font-size="16px" fill="#1e1e1e" text-anchor="middle" style="white-space: pre;" direction="ltr" dominant-baseline="text-before-edge">订阅数据变化，绑定更新函数</text></g><g stroke-linecap="round" transform="translate(956.1867065429685 188.10226440429688) rotate(0 89.654541015625 78.50704956054688)"><path d="M7.86 8.16 C7.86 8.16, 7.86 8.16, 7.86 8.16 M7.86 8.16 C7.86 8.16, 7.86 8.16, 7.86 8.16 M3.66 19.09 C6.18 15.4, 10.69 9.56, 18.1 2.48 M3.66 19.09 C8.98 12.74, 13.53 6.27, 18.1 2.48 M2.75 26.24 C9.56 20.24, 14.83 16.31, 24.4 1.33 M2.75 26.24 C12.15 15.43, 19.51 6.27, 24.4 1.33 M2.48 32.64 C12.4 24.49, 19.74 12.16, 30.7 0.18 M2.48 32.64 C9.97 23.25, 18.48 15.21, 30.7 0.18 M2.88 38.28 C15.58 27.47, 25.55 12.11, 34.37 2.05 M2.88 38.28 C12.79 28.12, 20.81 17.57, 34.37 2.05 M2.62 44.68 C15.26 31.58, 26.69 16.13, 39.36 2.41 M2.62 44.68 C13.02 32.66, 24.08 19.69, 39.36 2.41 M2.36 51.07 C20.35 33.56, 32.65 12.3, 45 2.02 M2.36 51.07 C13.41 37.82, 24.83 25.79, 45 2.02 M2.75 56.72 C15.69 45.57, 25.32 31.34, 49.99 2.38 M2.75 56.72 C13.37 43.6, 24.53 31.53, 49.99 2.38 M2.49 63.11 C21.64 38.55, 44.46 15.67, 55.63 1.98 M2.49 63.11 C20.32 43.71, 37.29 24, 55.63 1.98 M2.23 69.51 C21.48 45.69, 43.34 24.16, 60.62 2.34 M2.23 69.51 C16.26 54.28, 28.92 39.22, 60.62 2.34 M2.62 75.16 C22.66 50.72, 43.13 29.56, 66.26 1.95 M2.62 75.16 C28.68 45.31, 52.61 18, 66.26 1.95 M2.36 81.55 C22.09 56.96, 43.17 34.54, 71.25 2.31 M2.36 81.55 C22.18 58.34, 42.62 36.97, 71.25 2.31 M2.1 87.95 C20.73 68.65, 40.46 46.49, 76.89 1.91 M2.1 87.95 C26.73 60.65, 49.58 34.34, 76.89 1.91 M2.49 93.59 C18.64 72.56, 36.28 54.11, 81.88 2.27 M2.49 93.59 C35.05 56.85, 65.77 20.74, 81.88 2.27 M2.23 99.99 C35.33 61.81, 70.7 23.87, 87.52 1.88 M2.23 99.99 C28.38 69.65, 55.99 38.29, 87.52 1.88 M1.97 106.39 C26.63 76.93, 57.33 46.6, 92.51 2.24 M1.97 106.39 C29.92 75.15, 55.91 44.01, 92.51 2.24 M2.37 112.03 C32.74 73.73, 65.55 38.12, 98.15 1.85 M2.37 112.03 C34.12 75.41, 64.76 40.55, 98.15 1.85 M2.1 118.43 C25.78 93.59, 46.02 69.23, 103.14 2.21 M2.1 118.43 C37.57 75.07, 74.87 32.23, 103.14 2.21 M1.19 125.58 C36.97 84.47, 70.49 41.83, 108.78 1.81 M1.19 125.58 C27.2 93.47, 55.09 61.34, 108.78 1.81 M1.58 131.23 C39.63 86.79, 78.73 40.88, 113.77 2.17 M1.58 131.23 C37.96 88.22, 74.84 47.89, 113.77 2.17 M2.63 136.11 C30.34 108.36, 54.8 78.34, 119.41 1.78 M2.63 136.11 C39.3 94.34, 75.36 52.74, 119.41 1.78 M3.68 141 C43.94 94.97, 82.37 48.15, 124.4 2.14 M3.68 141 C47.63 92.31, 88.93 43.11, 124.4 2.14 M6.05 144.38 C44.97 98.75, 86.97 52.11, 130.04 1.74 M6.05 144.38 C45.08 99.9, 82.29 57.15, 130.04 1.74 M8.41 147.76 C46.89 104.02, 85.31 59.64, 135.03 2.1 M8.41 147.76 C52.98 98.01, 97.51 47.52, 135.03 2.1 M10.77 151.14 C61.12 96.5, 108.95 40.5, 140.67 1.71 M10.77 151.14 C52.91 103.03, 93.8 55.66, 140.67 1.71 M13.79 153.76 C45.64 114.99, 81.49 76.62, 147.63 -0.2 M13.79 153.76 C49.06 112.41, 85.35 70.72, 147.63 -0.2 M18.12 154.88 C59.7 106.04, 102.92 56.4, 151.96 0.92 M18.12 154.88 C50.47 120.14, 80.7 83.46, 151.96 0.92 M22.45 155.99 C64.04 107.63, 107.88 61.29, 156.94 1.28 M22.45 155.99 C76.64 94.97, 131.06 34, 156.94 1.28 M27.44 156.35 C74.75 100.05, 126.02 39.49, 161.28 2.39 M27.44 156.35 C59.21 121.92, 90.93 85.98, 161.28 2.39 M31.77 157.47 C63.3 123.07, 93.54 85.7, 164.95 4.26 M31.77 157.47 C69.75 115.22, 106.8 71.93, 164.95 4.26 M37.41 157.07 C86.72 99.63, 138.18 42.58, 168.63 6.13 M37.41 157.07 C72.87 113.49, 110.42 70.81, 168.63 6.13 M42.4 157.43 C81.36 115.87, 118.35 72.03, 171.64 8.76 M42.4 157.43 C91.48 99, 140.97 42.07, 171.64 8.76 M48.04 157.04 C96.02 98.86, 144.21 45.05, 174.01 12.14 M48.04 157.04 C78.92 121.79, 111.03 86.43, 174.01 12.14 M53.03 157.4 C76.58 125.7, 105.95 94.75, 176.37 15.51 M53.03 157.4 C83.2 121.95, 112.39 87.77, 176.37 15.51 M58.67 157.01 C95.3 115.63, 132.05 75.2, 178.73 18.89 M58.67 157.01 C104.17 106.47, 148.16 54.31, 178.73 18.89 M63.66 157.37 C92.29 122.37, 122.06 89.45, 179.13 24.54 M63.66 157.37 C98.76 116.26, 134.74 75.87, 179.13 24.54 M69.3 156.97 C94.28 128.33, 121.52 96.79, 180.18 29.42 M69.3 156.97 C93.03 129.96, 116.82 102.05, 180.18 29.42 M74.29 157.33 C104.67 119.13, 135.56 84.14, 181.23 34.31 M74.29 157.33 C105.48 123.41, 133.78 88.21, 181.23 34.31 M79.93 156.94 C118.83 112.52, 160.28 65.89, 181.62 39.96 M79.93 156.94 C112.85 120.49, 143.2 84.87, 181.62 39.96 M84.92 157.3 C117.7 119.09, 152.08 81.34, 181.36 46.35 M84.92 157.3 C104.71 134.34, 125.55 109.47, 181.36 46.35 M90.56 156.9 C121.68 123.01, 150.15 92.33, 181.76 52 M90.56 156.9 C117.43 127.63, 142.51 98.52, 181.76 52 M95.55 157.26 C119.1 132.12, 143.88 105.58, 181.49 58.39 M95.55 157.26 C130.08 117.5, 164.01 79.09, 181.49 58.39 M101.19 156.87 C123.23 129.78, 146.99 103.77, 181.23 64.79 M101.19 156.87 C128.13 124.71, 156.3 92.26, 181.23 64.79 M106.18 157.23 C126.5 134.9, 145.02 115.63, 181.63 70.44 M106.18 157.23 C124.37 136.36, 144.34 113.17, 181.63 70.44 M111.82 156.83 C132.43 129.97, 154.52 107.56, 181.37 76.83 M111.82 156.83 C126.8 137.99, 143.62 119.93, 181.37 76.83 M116.81 157.19 C134.76 134.02, 153.1 112.75, 181.1 83.23 M116.81 157.19 C133.74 138.2, 150.06 118.9, 181.1 83.23 M122.45 156.8 C144.58 134.18, 162.72 109.94, 181.5 88.87 M122.45 156.8 C137.04 140.15, 151.2 124.89, 181.5 88.87 M127.44 157.16 C145.87 136.05, 161.99 113.54, 181.24 95.27 M127.44 157.16 C138.61 143.05, 151.27 128.13, 181.24 95.27 M133.08 156.76 C147.82 141.8, 162.01 125.99, 180.98 101.67 M133.08 156.76 C150.66 136.55, 167.63 117.71, 180.98 101.67 M138.07 157.12 C156.01 137.6, 171.9 116.03, 181.37 107.31 M138.07 157.12 C148.22 144.78, 158.28 134.57, 181.37 107.31 M143.71 156.73 C154.3 145.19, 167.2 133.03, 181.11 113.71 M143.71 156.73 C157.7 139.98, 174.07 123.14, 181.11 113.71 M148.05 157.84 C158.05 143.69, 171.43 131.18, 180.85 120.11 M148.05 157.84 C156.06 148.56, 164.99 138.43, 180.85 120.11 M154.34 156.69 C164.03 146.33, 171.62 133.57, 181.24 125.75 M154.34 156.69 C160.33 149.94, 166.12 142.69, 181.24 125.75 M159.99 156.3 C168.68 147.13, 173.81 139.76, 179.67 133.66 M159.99 156.3 C166.85 149.6, 172.2 142.34, 179.67 133.66" stroke="#ffec99" stroke-width="0.5" fill="none"></path><path d="M32 0 C62.17 0.68, 90.25 -1.39, 147.31 0 M32 0 C64.51 0.43, 97.36 1.3, 147.31 0 M147.31 0 C168.64 0.44, 179.28 8.9, 179.31 32 M147.31 0 C169.27 -1.25, 179.16 12.48, 179.31 32 M179.31 32 C179.82 68.89, 179.57 107.88, 179.31 125.01 M179.31 32 C180.37 57.7, 179.89 81.81, 179.31 125.01 M179.31 125.01 C179.64 147.2, 169.03 155.72, 147.31 157.01 M179.31 125.01 C178.05 144.95, 170.66 157.01, 147.31 157.01 M147.31 157.01 C123.17 156.62, 99.84 156.16, 32 157.01 M147.31 157.01 C109.19 156.99, 69.32 155.69, 32 157.01 M32 157.01 C8.86 157.06, -0.11 145.2, 0 125.01 M32 157.01 C10.36 158.43, 1.3 147.62, 0 125.01 M0 125.01 C-0.22 106.89, -0.4 84.3, 0 32 M0 125.01 C0.42 100.51, 0.59 77.56, 0 32 M0 32 C1.86 11.71, 11.11 1.25, 32 0 M0 32 C0.73 12.38, 9.68 -0.15, 32 0" stroke="#1e1e1e" stroke-width="1" fill="none"></path></g><g transform="translate(1013.0287475585935 257.00931396484384) rotate(0 32.8125 9.600000000000023)"><text x="32.8125" y="0" font-family="Cascadia, Segoe UI Emoji" font-size="16px" fill="#1e1e1e" text-anchor="middle" style="white-space: pre;" direction="ltr" dominant-baseline="text-before-edge">Watcher</text></g><g mask="url(#mask-ZCa20cJ8maf3mNh9Wa1fz)" stroke-linecap="round"><g transform="translate(949.952209472656 276.2807561020327) rotate(0 -69.95799329598185 84.43916618501544)"><path d="M-0.47 -0.76 C-23.56 27.49, -116.19 141.06, -139.4 169.34 M1.49 1.46 C-21.64 29.35, -116.43 139.33, -140.08 167.47" stroke="#1e1e1e" stroke-width="2" fill="none"></path></g><g transform="translate(949.952209472656 276.2807561020327) rotate(0 -69.95799329598185 84.43916618501544)"><path d="M-131.35 144.04 C-134.61 150.18, -134.55 154.95, -140.08 167.47 M-131.35 144.04 C-133.46 150.59, -137.09 157.35, -140.08 167.47" stroke="#1e1e1e" stroke-width="2" fill="none"></path></g><g transform="translate(949.952209472656 276.2807561020327) rotate(0 -69.95799329598185 84.43916618501544)"><path d="M-118.33 155.13 C-124.53 158.7, -127.42 160.97, -140.08 167.47 M-118.33 155.13 C-124.51 158.31, -132.11 161.69, -140.08 167.47" stroke="#1e1e1e" stroke-width="2" fill="none"></path></g></g><mask id="mask-ZCa20cJ8maf3mNh9Wa1fz"><rect x="0" y="0" fill="#fff" width="1189.8681960646197" height="545.1590884720636"></rect><rect x="863.994216176674" y="341.5199222870481" fill="#000" width="32" height="38.4" opacity="1"></rect></mask><g transform="translate(863.994216176674 341.5199222870481) rotate(0 16.662873668726547 19.05505078397698)"><text x="16" y="0" font-family="Cascadia, Segoe UI Emoji" font-size="16px" fill="#1e1e1e" text-anchor="middle" style="white-space: pre;" direction="ltr" dominant-baseline="text-before-edge">更新</text><text x="16" y="19.2" font-family="Cascadia, Segoe UI Emoji" font-size="16px" fill="#1e1e1e" text-anchor="middle" style="white-space: pre;" direction="ltr" dominant-baseline="text-before-edge">视图</text></g><g mask="url(#mask-IC9_69E021tVAiZDrRNWZ)" stroke-linecap="round"><g transform="translate(950.010498046875 243.02045142559973) rotate(0 -80.7185774940832 -72.28649286149243)"><path d="M0.13 -0.02 C-26.75 -23.94, -133.52 -119.94, -160.36 -143.91 M-1.26 -1.08 C-28.28 -25.31, -134.06 -121.57, -160.74 -145.68" stroke="#1e1e1e" stroke-width="2" fill="none"></path></g><g transform="translate(950.010498046875 243.02045142559973) rotate(0 -80.7185774940832 -72.28649286149243)"><path d="M-137.6 -136.23 C-146.29 -137.96, -153.81 -142.39, -160.74 -145.68 M-137.6 -136.23 C-146.18 -140.23, -153.92 -142.89, -160.74 -145.68" stroke="#1e1e1e" stroke-width="2" fill="none"></path></g><g transform="translate(950.010498046875 243.02045142559973) rotate(0 -80.7185774940832 -72.28649286149243)"><path d="M-149.09 -123.57 C-153.43 -130.05, -156.65 -139.23, -160.74 -145.68 M-149.09 -123.57 C-153.58 -132.08, -157.16 -139.33, -160.74 -145.68" stroke="#1e1e1e" stroke-width="2" fill="none"></path></g></g><mask id="mask-IC9_69E021tVAiZDrRNWZ"><rect x="0" y="0" fill="#fff" width="1211.4476530350414" height="487.5934371485846"></rect><rect x="829.2919205527917" y="161.1339585641074" fill="#000" width="80" height="19.2" opacity="1"></rect></mask><g transform="translate(829.2919205527919 161.1339585641074) rotate(0 40.41176155424694 9.031985045755277)"><text x="40" y="0" font-family="Cascadia, Segoe UI Emoji" font-size="16px" fill="#1e1e1e" text-anchor="middle" style="white-space: pre;" direction="ltr" dominant-baseline="text-before-edge">添加订阅者</text></g><g mask="url(#mask-vF_wmuTBd75KS8oOInJXr)" stroke-linecap="round"><g transform="translate(799.2560424804685 49.73614501953125) rotate(0 119.47186279296875 72.71073913574219)"><path d="M-0.77 0.7 C39 24.9, 198.42 121.79, 238.56 145.71 M1.03 0.02 C40.61 23.8, 197.6 119.59, 237.41 143.74" stroke="#1e1e1e" stroke-width="2" fill="none"></path></g><g transform="translate(799.2560424804685 49.73614501953125) rotate(0 119.47186279296875 72.71073913574219)"><path d="M212.9 138.83 C221.39 139.81, 228 143.79, 237.41 143.74 M212.9 138.83 C218.76 139.78, 222.06 141.31, 237.41 143.74" stroke="#1e1e1e" stroke-width="2" fill="none"></path></g><g transform="translate(799.2560424804685 49.73614501953125) rotate(0 119.47186279296875 72.71073913574219)"><path d="M221.79 124.22 C227.69 129.5, 231.66 137.83, 237.41 143.74 M221.79 124.22 C225.95 128.09, 227.48 132.55, 237.41 143.74" stroke="#1e1e1e" stroke-width="2" fill="none"></path></g></g><mask id="mask-vF_wmuTBd75KS8oOInJXr"><rect x="0" y="0" fill="#fff" width="1138.199768066406" height="295.1576232910156"></rect><rect x="886.7279052734375" y="112.84688415527353" fill="#000" width="64" height="19.2" opacity="1"></rect></mask><g transform="translate(886.7279052734375 112.84688415527353) rotate(0 31.426473301276474 9.753123171832385)"><text x="32" y="0" font-family="Cascadia, Segoe UI Emoji" font-size="16px" fill="#1e1e1e" text-anchor="middle" style="white-space: pre;" direction="ltr" dominant-baseline="text-before-edge">通知变化</text></g></svg>