<svg version="1.1" xmlns="http://www.w3.org/2000/svg" viewBox="0 0 745.0849304199218 495.4831848144531" width="745.0849304199218" height="495.4831848144531">
  <!-- svg-source:excalidraw -->
  
  <defs>
    <style class="style-fonts">
      @font-face {
        font-family: "Virgil";
        src: url("https://excalidraw.com/Virgil.woff2");
      }
      @font-face {
        font-family: "Cascadia";
        src: url("https://excalidraw.com/Cascadia.woff2");
      }
      @font-face {
        font-family: "Assistant";
        src: url("https://excalidraw.com/Assistant-Regular.woff2");
      }
    </style>
    
  </defs>
  <g stroke-linecap="round" transform="translate(14.6533203125 56.03240966796875) rotate(0 107.53253173828125 32.42572021484375)"><path d="M3.24 0.03 L211.75 -2.67 L213.51 64.11 L1.86 62.54" stroke="none" stroke-width="0" fill="#1971c2"></path><path d="M0.76 1.5 C58.68 3.43, 122.16 5.31, 217.04 1.69 M-1.39 0.67 C78.41 -2.21, 154.29 -1.09, 213.94 0.57 M212.9 -0.98 C216.68 19.32, 212.33 43.18, 214.32 67.5 M214.62 -1.59 C215.73 18.54, 216.42 34.51, 213.74 64.74 M213.68 64.04 C162.32 62.89, 111.74 64.4, 0.78 65.91 M213.58 66.36 C165.33 64.7, 111.87 63.68, -1.34 66.59 M-1.17 66.44 C3.1 48.22, 0.89 30.98, -1.13 -0.5 M0.96 66.64 C1.62 50, 0.9 35.51, -0.57 0.63" stroke="#1e1e1e" stroke-width="2" fill="none"></path></g><g transform="translate(64.37788391113281 78.4581298828125) rotate(0 57.80796813964844 10)"><text x="57.80796813964844" y="0" font-family="Virgil, Segoe UI Emoji" font-size="16px" fill="#ffffff" text-anchor="middle" style="white-space: pre;" direction="ltr" dominant-baseline="text-before-edge">ESTABLISHED</text></g><g transform="translate(103.49484252929688 10) rotate(0 24 10)"><text x="0" y="0" font-family="Virgil, Segoe UI Emoji" font-size="16px" fill="#1e1e1e" text-anchor="start" style="white-space: pre;" direction="ltr" dominant-baseline="text-before-edge">客户端</text></g><g transform="translate(596.4948425292968 14) rotate(0 24 10)"><text x="0" y="0" font-family="Virgil, Segoe UI Emoji" font-size="16px" fill="#1e1e1e" text-anchor="start" style="white-space: pre;" direction="ltr" dominant-baseline="text-before-edge">服务端</text></g><g stroke-linecap="round" transform="translate(517.2681579589843 50.636322021484375) rotate(0 107.53253173828125 71.51232910156251)"><path d="M-0.51 2.66 L216.64 -3.7 L214.32 143.24 L1.64 146.66" stroke="none" stroke-width="0" fill="#1971c2"></path><path d="M-2.34 2.01 C68.19 5.38, 132.08 -1.06, 218.02 -1.3 M-1.13 -0.07 C77.72 -0.19, 154.22 -1.55, 214.72 1.63 M214.03 1.12 C217.75 51.28, 215.44 98.7, 211.69 139.77 M215.12 1.13 C216.53 30.21, 214.31 59.15, 216.97 143.13 M216.2 145.47 C169.66 136.05, 125.18 136.11, -3.31 142.81 M215.03 142.36 C156.56 146.99, 97.88 144.57, -1.26 144.75 M-0.74 144.92 C-0.43 102.37, -0.9 59.36, -1.38 3.86 M-0.49 143.87 C-1.69 106.99, 2.1 73.1, -1.38 -0.05" stroke="#1e1e1e" stroke-width="2" fill="none"></path></g><g transform="translate(566.9927215576171 112.14865112304688) rotate(0 57.80796813964844 10)"><text x="57.80796813964844" y="0" font-family="Virgil, Segoe UI Emoji" font-size="16px" fill="#ffffff" text-anchor="middle" style="white-space: pre;" direction="ltr" dominant-baseline="text-before-edge">ESTABLISHED</text></g><g stroke-linecap="round" transform="translate(10 123.34188842773438) rotate(0 107.53253173828125 55.969116210937486)"><path d="M2.49 -2.24 L213.97 1.77 L218.46 111.23 L3.98 109.41" stroke="none" stroke-width="0" fill="#228be6"></path><path d="M-2.42 3.07 C77.06 -0.07, 156.92 0.47, 216.67 0.71 M1.54 1.41 C60.93 1.66, 122.35 3.11, 214.75 -0.38 M214.79 0.2 C209.88 33.5, 214.65 68.8, 215.62 115.72 M215.06 -0.96 C217.33 43.4, 216.7 87, 213.26 110.47 M212.41 111.87 C168.28 113.7, 120.38 112.38, -0.11 111.55 M215.37 113.64 C159.84 116.11, 106.74 113.82, 1.23 110.56 M0.18 110.44 C-3.13 70.36, -1.26 28.12, 2.22 -1.92 M0.86 112.6 C-2.28 70.97, -2.23 33.24, -0.57 -1.7" stroke="#1e1e1e" stroke-width="2" fill="none"></path></g><g transform="translate(66.03658294677734 169.31100463867188) rotate(0 51.495948791503906 10)"><text x="51.495948791503906" y="0" font-family="Virgil, Segoe UI Emoji" font-size="16px" fill="#ffffff" text-anchor="middle" style="white-space: pre;" direction="ltr" dominant-baseline="text-before-edge">FIN_WAIT_1</text></g><g stroke-linecap="round" transform="translate(11.905120849609375 241.516845703125) rotate(0 107.53253173828125 47.7403564453125)"><path d="M3.69 3.91 L215 -0.52 L217.36 95.29 L-0.44 93.57" stroke="none" stroke-width="0" fill="#4dabf7"></path><path d="M2.32 -1.47 C52.15 -0.97, 101.17 2.73, 212.17 -2.19 M-0.77 1.61 C44.79 1.59, 88.09 -0.89, 214.8 -1.07 M213.78 -1.77 C213.93 27.39, 217.12 50.75, 215.89 98.24 M216.38 1.29 C214.45 35.73, 215.27 71.16, 213.43 93.74 M218.52 98.02 C128.57 96.61, 47.72 97.39, 1.41 94.63 M214.32 95.78 C160.88 93.25, 109.64 92.15, 0.21 95.67 M-3.69 96.5 C4.99 60.64, 4.06 21.62, 1.77 -2.54 M1.41 95.79 C-0.81 70.15, 1.52 39.07, 0.44 -0.5" stroke="#1e1e1e" stroke-width="2" fill="none"></path></g><g transform="translate(64.41370391845703 279.2572021484375) rotate(0 55.023948669433594 10)"><text x="55.023948669433594" y="0" font-family="Virgil, Segoe UI Emoji" font-size="16px" fill="#1e1e1e" text-anchor="middle" style="white-space: pre;" direction="ltr" dominant-baseline="text-before-edge">FIN_WAIT_2</text></g><g stroke-linecap="round" transform="translate(11.248321533203125 341.6319885253906) rotate(0 107.53253173828125 45.1116943359375)"><path d="M-1.38 2.09 L214.4 0.69 L214.08 92.88 L2.26 90.81" stroke="none" stroke-width="0" fill="#a5d8ff"></path><path d="M3.16 -3.49 C70.55 -1.64, 149.16 -2.44, 216.7 -1.48 M-0.41 -0.96 C50.9 0.62, 101.07 -0.6, 215.16 -0.75 M212.8 -1.56 C214.98 26.73, 215.41 44.47, 213.32 92.77 M217.01 -1.53 C215.6 30.01, 216.95 62.98, 215.73 89.9 M213.88 90.3 C145.67 85.04, 77.36 88.71, 2.35 87.46 M214.47 91.59 C151.17 92.97, 88.74 92.77, 0.25 91.12 M0.79 88.63 C4.07 68.74, 0.37 43.23, -2.88 -3.17 M0.84 88.56 C-0.19 56.78, -1.49 25.01, -0.82 -0.01" stroke="#1e1e1e" stroke-width="2" fill="none"></path></g><g transform="translate(67.85289001464844 376.7436828613281) rotate(0 50.92796325683594 10)"><text x="50.92796325683594" y="0" font-family="Virgil, Segoe UI Emoji" font-size="16px" fill="#1e1e1e" text-anchor="middle" style="white-space: pre;" direction="ltr" dominant-baseline="text-before-edge">TIME_WAIT</text></g><g stroke-linecap="round" transform="translate(10.076324462890625 436.4035339355469) rotate(0 107.53253173828125 24.539825439453125)"><path d="M1.97 -0.2 L212.95 -3.33 L217.74 47.95 L-1.39 50.52" stroke="none" stroke-width="0" fill="#e7f5ff"></path><path d="M-2.24 -2.33 C52.46 0.35, 99.14 3.24, 215.81 -3.11 M1.25 1.7 C54.6 -1.1, 107.43 -0.35, 216.63 0.43 M217.45 1.44 C211.73 8.08, 214.45 21.51, 211.27 45.62 M215.77 1.83 C217.4 10.24, 216.72 20.36, 214.46 48.16 M212.97 49.03 C143.13 45.88, 79.04 44.04, 0.93 49.53 M215.15 49.16 C134.04 51.44, 51.39 53.77, -1.14 49.58 M-1.52 46.07 C2.74 33.54, -2.35 24.78, 2.58 2.45 M-0.72 50.67 C-0.78 34.41, 1 21.53, 0.23 0.61" stroke="#1e1e1e" stroke-width="2" fill="none"></path></g><g transform="translate(85.36087036132812 450.943359375) rotate(0 32.24798583984375 10)"><text x="32.24798583984375" y="0" font-family="Virgil, Segoe UI Emoji" font-size="16px" fill="#1e1e1e" text-anchor="middle" style="white-space: pre;" direction="ltr" dominant-baseline="text-before-edge">CLOSED</text></g><g stroke-linecap="round" transform="translate(520.0198669433593 197.34634399414062) rotate(0 107.53253173828125 48.99754333496093)"><path d="M-1.9 -0.44 L215.37 -3.29 L211.1 94.22 L-3.64 100.53" stroke="none" stroke-width="0" fill="#228be6"></path><path d="M1.01 -1.36 C84.15 4.76, 167.84 -0.17, 217.35 -2.38 M1.07 -0.23 C50.68 -2.03, 101.82 -1.03, 214.11 -0.51 M216.28 1.97 C215.46 30.69, 212.33 68.28, 213.94 96.6 M215.3 -0.25 C212.93 32.24, 215 67.13, 216.53 99.77 M216.43 100.61 C142.52 102.5, 66.81 101.76, 0.74 97.68 M215.87 98.9 C129.43 98.44, 43.09 98.3, 1.57 98.36 M2.17 100.51 C-1.19 66.83, 2.65 32.55, -3.31 -3.07 M0.05 97.14 C2.58 61.42, 1.78 29.66, -1.6 1.85" stroke="#1e1e1e" stroke-width="2" fill="none"></path></g><g transform="translate(566.6884384155272 236.34388732910156) rotate(0 60.86396026611328 10)"><text x="60.86396026611328" y="0" font-family="Virgil, Segoe UI Emoji" font-size="16px" fill="#1e1e1e" text-anchor="middle" style="white-space: pre;" direction="ltr" dominant-baseline="text-before-edge">CLOSED_WAIT</text></g><g stroke-linecap="round" transform="translate(517.4478454589843 298.518798828125) rotate(0 107.53253173828125 66.36941528320312)"><path d="M-1.27 -1.75 L218.6 3.48 L211.41 132.07 L2.22 129.53" stroke="none" stroke-width="0" fill="#a5d8ff"></path><path d="M-3.25 1.85 C81.91 2.15, 157.55 -1.87, 216.5 2.94 M1.08 1.73 C72.67 1.21, 145.99 0.63, 213.37 0.18 M213.98 -3.91 C215.42 51.26, 211.49 101.64, 211.81 131.71 M213.63 -0.54 C214.12 30.16, 214.97 59.08, 213.86 134.27 M217.43 131.73 C162.36 132.87, 103.21 134.35, 2.82 135.9 M216.61 133.16 C144.8 132.55, 77.21 132.04, 0.95 132.67 M2.64 135.43 C-3.26 80.97, 2.86 36.74, 1.33 2.02 M1.33 133.96 C-1.97 99.99, -0.55 65.63, 1.59 1.07" stroke="#1e1e1e" stroke-width="2" fill="none"></path></g><g transform="translate(581.7324066162108 354.8882141113281) rotate(0 43.24797058105469 10)"><text x="43.24797058105469" y="0" font-family="Virgil, Segoe UI Emoji" font-size="16px" fill="#1e1e1e" text-anchor="middle" style="white-space: pre;" direction="ltr" dominant-baseline="text-before-edge">LAST_ACK</text></g><g stroke-linecap="round" transform="translate(515.133575439453 436.8681335449219) rotate(0 107.53253173828125 19.968292236328125)"><path d="M3.87 -0.96 L217.68 2.22 L218.96 42.12 L-2.55 36.91" stroke="none" stroke-width="0" fill="#e7f5ff"></path><path d="M-2.77 1.42 C60.52 -3.2, 114.68 1.03, 212.53 -1.91 M-1.43 0.78 C73.83 0.18, 148.42 -0.62, 215.18 -1.36 M218.25 0.25 C215.38 13.07, 215.61 28.83, 212.37 40.24 M216.01 -0.14 C217.75 13.73, 215.21 25.18, 215.58 40.28 M215.15 38.21 C139.66 41.45, 61.41 45.47, 1.8 42.29 M214.84 39.9 C156.01 37.61, 97.23 39.59, 1.54 38.3 M3.62 40 C-0.78 29.95, 1.02 22.4, 3.86 2.99 M1.06 39.13 C-0.83 32.19, -1.88 21.24, -0.3 -0.83" stroke="#1e1e1e" stroke-width="2" fill="none"></path></g><g transform="translate(590.4181213378905 446.83642578125) rotate(0 32.24798583984375 10)"><text x="32.24798583984375" y="0" font-family="Virgil, Segoe UI Emoji" font-size="16px" fill="#1e1e1e" text-anchor="middle" style="white-space: pre;" direction="ltr" dominant-baseline="text-before-edge">CLOSED</text></g><g mask="url(#mask-R9EbsKLAvVukTBUY6tqhx)" stroke-linecap="round"><g transform="translate(228.56759643554688 120.60888671875) rotate(0 144.0244750976562 39.95683288574219)"><path d="M0.82 -1.27 C70.04 17.66, 144.08 40.23, 288.23 80.17 M-0.25 0.19 C69.11 18.46, 140.35 37.73, 288.89 80.28" stroke="#343a40" stroke-width="2" fill="none"></path></g><g transform="translate(228.56759643554688 120.60888671875) rotate(0 144.0244750976562 39.95683288574219)"><path d="M264.52 81.22 C269.58 81.07, 277.83 82.58, 289.02 80.45 M263.79 82.21 C269.02 81.44, 275.91 80.89, 289.47 80.52" stroke="#343a40" stroke-width="2" fill="none"></path></g><g transform="translate(228.56759643554688 120.60888671875) rotate(0 144.0244750976562 39.95683288574219)"><path d="M269.19 64.77 C273.08 68.68, 280.17 74.25, 289.02 80.45 M268.46 65.76 C272.63 69, 278.38 72.45, 289.47 80.52" stroke="#343a40" stroke-width="2" fill="none"></path></g></g><mask id="mask-R9EbsKLAvVukTBUY6tqhx"><rect x="0" y="0" fill="#fff" width="616.6165466308593" height="300.5225524902344"></rect><rect x="349.154571533203" y="141.3657196044922" fill="#000" width="46.875" height="38.4" opacity="1"></rect></mask><g transform="translate(349.1545715332031 141.3657196044922) rotate(0 23.734485726340893 18.745100044092908)"><text x="23.4375" y="0" font-family="Cascadia, Segoe UI Emoji" font-size="16px" fill="#343a40" text-anchor="middle" style="white-space: pre;" direction="ltr" dominant-baseline="text-before-edge">FIN=1</text><text x="23.4375" y="19.2" font-family="Cascadia, Segoe UI Emoji" font-size="16px" fill="#343a40" text-anchor="middle" style="white-space: pre;" direction="ltr" dominant-baseline="text-before-edge">seq=u</text></g><g mask="url(#mask-sjCBlDViqb25Eccsl1dks)" stroke-linecap="round"><g transform="translate(518.119171142578 206.21359252929688) rotate(0 -149.3892211914062 17.56744384765625)"><path d="M-1.28 -2.12 C-98.6 12.14, -201.47 26.97, -297.5 32.28 M1.37 -1.27 C-99.32 11.72, -201.19 23.67, -297.98 34.07" stroke="#343a40" stroke-width="2" fill="none"></path></g><g transform="translate(518.119171142578 206.21359252929688) rotate(0 -149.3892211914062 17.56744384765625)"><path d="M-276.45 21.54 C-281.7 25.63, -290.88 31.42, -297.11 32.13 M-274.64 22.12 C-282.63 27.37, -291.42 31.22, -297.44 33.35" stroke="#343a40" stroke-width="2" fill="none"></path></g><g transform="translate(518.119171142578 206.21359252929688) rotate(0 -149.3892211914062 17.56744384765625)"><path d="M-274.57 38.54 C-280.35 36.92, -290.16 36.99, -297.11 32.13 M-272.76 39.12 C-281.4 38.68, -290.81 36.83, -297.44 33.35" stroke="#343a40" stroke-width="2" fill="none"></path></g></g><mask id="mask-sjCBlDViqb25Eccsl1dks"><rect x="0" y="0" fill="#fff" width="916.8976135253904" height="341.3484802246094"></rect><rect x="331.2299499511719" y="194.9810363769531" fill="#000" width="75" height="57.599999999999994" opacity="1"></rect></mask><g transform="translate(331.2299499511719 194.9810363769531) rotate(0 38.583351246014445 27.206998491273055)"><text x="37.5" y="0" font-family="Cascadia, Segoe UI Emoji" font-size="16px" fill="#343a40" text-anchor="middle" style="white-space: pre;" direction="ltr" dominant-baseline="text-before-edge">ACK=1,</text><text x="37.5" y="19.2" font-family="Cascadia, Segoe UI Emoji" font-size="16px" fill="#343a40" text-anchor="middle" style="white-space: pre;" direction="ltr" dominant-baseline="text-before-edge">ack=u+1,</text><text x="37.5" y="38.4" font-family="Cascadia, Segoe UI Emoji" font-size="16px" fill="#343a40" text-anchor="middle" style="white-space: pre;" direction="ltr" dominant-baseline="text-before-edge">seq=v</text></g><g mask="url(#mask-fH9ElfcN_BJ6Js0ALoBss)" stroke-linecap="round"><g transform="translate(523.2594909667968 300.50567626953125) rotate(0 -147.7345581054687 22.653900146484375)"><path d="M-1.71 0.61 C-85.43 9.6, -170.26 24.28, -297.11 48.04 M-0.95 -1.37 C-111.63 14.84, -219.61 32.79, -295.19 44.16" stroke="#343a40" stroke-width="2" fill="none"></path></g><g transform="translate(523.2594909667968 300.50567626953125) rotate(0 -147.7345581054687 22.653900146484375)"><path d="M-274.45 32.52 C-278.97 35.28, -284.22 39.77, -296.31 46.02 M-273.93 31.17 C-282.27 36.37, -289.04 41.59, -295 43.38" stroke="#343a40" stroke-width="2" fill="none"></path></g><g transform="translate(523.2594909667968 300.50567626953125) rotate(0 -147.7345581054687 22.653900146484375)"><path d="M-271.83 49.42 C-277.13 47.21, -283.15 46.75, -296.31 46.02 M-271.31 48.07 C-280.49 46.96, -288.24 45.9, -295 43.38" stroke="#343a40" stroke-width="2" fill="none"></path></g></g><mask id="mask-fH9ElfcN_BJ6Js0ALoBss"><rect x="0" y="0" fill="#fff" width="918.7286071777341" height="445.8134765625"></rect><rect x="338.0249328613281" y="284.75957641601565" fill="#000" width="75" height="76.8" opacity="1"></rect></mask><g transform="translate(338.0249328613281 284.75957641601565) rotate(0 36.202707598865004 39.08172503510768)"><text x="37.5" y="0" font-family="Cascadia, Segoe UI Emoji" font-size="16px" fill="#343a40" text-anchor="middle" style="white-space: pre;" direction="ltr" dominant-baseline="text-before-edge">FIN=1,</text><text x="37.5" y="19.2" font-family="Cascadia, Segoe UI Emoji" font-size="16px" fill="#343a40" text-anchor="middle" style="white-space: pre;" direction="ltr" dominant-baseline="text-before-edge">ACK=1,</text><text x="37.5" y="38.4" font-family="Cascadia, Segoe UI Emoji" font-size="16px" fill="#343a40" text-anchor="middle" style="white-space: pre;" direction="ltr" dominant-baseline="text-before-edge">ack=u+1,</text><text x="37.5" y="57.599999999999994" font-family="Cascadia, Segoe UI Emoji" font-size="16px" fill="#343a40" text-anchor="middle" style="white-space: pre;" direction="ltr" dominant-baseline="text-before-edge">seq=w</text></g><g mask="url(#mask-xlX-g8guXAtNTnO-K9oei)" stroke-linecap="round"><g transform="translate(234.54129028320312 350.38763427734375) rotate(0 143.85665893554682 43.460601806640625)"><path d="M0.08 1.53 C52.3 10.9, 100.43 25.2, 186.82 60.22 M0.93 -0.04 C75.06 20.77, 150.95 43.72, 185.81 57.74 M189.09 60.05 C212.41 67.5, 241.32 78.46, 288.19 88.1 M187.69 55.23 C212.47 65.17, 234.04 71.76, 289.1 85.55" stroke="#343a40" stroke-width="2" fill="none"></path></g><g transform="translate(234.54129028320312 350.38763427734375) rotate(0 143.85665893554682 43.460601806640625)"><path d="M264.26 88.71 C272.62 86.28, 278.69 85.27, 289.45 87.15 M264.68 87.92 C273.92 86.76, 284.62 85.88, 288.95 85.91" stroke="#343a40" stroke-width="2" fill="none"></path></g><g transform="translate(234.54129028320312 350.38763427734375) rotate(0 143.85665893554682 43.460601806640625)"><path d="M268.55 72.15 C275.71 74.12, 280.65 77.48, 289.45 87.15 M268.97 71.36 C276.66 76.85, 285.63 82.59, 288.95 85.91" stroke="#343a40" stroke-width="2" fill="none"></path></g></g><mask id="mask-xlX-g8guXAtNTnO-K9oei"><rect x="0" y="0" fill="#fff" width="622.2546081542968" height="537.308837890625"></rect><rect x="383.1612854003905" y="378.617724609375" fill="#000" width="75" height="57.599999999999994" opacity="1"></rect></mask><g transform="translate(383.1612854003906 378.617724609375) rotate(0 -4.027074594981912 15.799147658236322)"><text x="37.5" y="0" font-family="Cascadia, Segoe UI Emoji" font-size="16px" fill="#343a40" text-anchor="middle" style="white-space: pre;" direction="ltr" dominant-baseline="text-before-edge">ACK=1,</text><text x="37.5" y="19.2" font-family="Cascadia, Segoe UI Emoji" font-size="16px" fill="#343a40" text-anchor="middle" style="white-space: pre;" direction="ltr" dominant-baseline="text-before-edge">ack=w+1,</text><text x="37.5" y="38.4" font-family="Cascadia, Segoe UI Emoji" font-size="16px" fill="#343a40" text-anchor="middle" style="white-space: pre;" direction="ltr" dominant-baseline="text-before-edge">seq=u+1</text></g><g mask="url(#mask-Hb2gkAubO-3JpCW2ESSty)" stroke-linecap="round"><g transform="translate(514.6800842285155 236.73208618164062) rotate(0 -143.93057250976557 35.95695495605469)"><path d="M1.7 -1.52 C-103.28 24.93, -211.4 51.52, -286.79 69.66 M-1.4 1.11 C-87.92 18.63, -179.63 41.52, -287.7 70.73" stroke="#e03131" stroke-width="2" fill="none"></path></g><g transform="translate(514.6800842285155 236.73208618164062) rotate(0 -143.93057250976557 35.95695495605469)"><path d="M-266.01 55.44 C-272.72 62.33, -280.97 67.51, -286.97 69.21 M-268.11 57.21 C-272.68 59.82, -280.71 64.64, -287.58 69.94" stroke="#e03131" stroke-width="2" fill="none"></path></g><g transform="translate(514.6800842285155 236.73208618164062) rotate(0 -143.93057250976557 35.95695495605469)"><path d="M-261.65 71.97 C-270.14 72.68, -280.02 71.7, -286.97 69.21 M-263.74 73.75 C-269.69 71.2, -279.07 70.9, -287.58 69.94" stroke="#e03131" stroke-width="2" fill="none"></path></g></g><mask id="mask-Hb2gkAubO-3JpCW2ESSty"><rect x="0" y="0" fill="#fff" width="902.5412292480466" height="408.64599609375"></rect><rect x="338.74951171875" y="263.0890411376953" fill="#000" width="64" height="19.2" opacity="1"></rect></mask><g transform="translate(338.74951171875 263.0890411376953) rotate(0 32.933997248009746 8.249900855419895)"><text x="32" y="0" font-family="Cascadia, Segoe UI Emoji" font-size="16px" fill="#e03131" text-anchor="middle" style="white-space: pre;" direction="ltr" dominant-baseline="text-before-edge">传输数据</text></g><g stroke-linecap="round"><g transform="translate(415.904571533203 75.8691670349728) rotate(0 50.181793212890625 -0.8488598678982555)"><path d="M-0.97 -1.41 C25.59 -2.19, 41.5 -0.77, 100.7 1.11 M-0.75 0.69 C23.26 0.79, 45.34 -2.95, 102.29 -1.66" stroke="#e03131" stroke-width="2" fill="none"></path></g><g transform="translate(415.904571533203 75.8691670349728) rotate(0 50.181793212890625 -0.8488598678982555)"><path d="M78.31 6.16 C85.61 3.42, 87.57 2.41, 102.46 -0.26 M78.42 7.21 C84.71 5.71, 89.99 2.19, 103.25 -1.65" stroke="#e03131" stroke-width="2" fill="none"></path></g><g transform="translate(415.904571533203 75.8691670349728) rotate(0 50.181793212890625 -0.8488598678982555)"><path d="M78.32 -10.94 C85.59 -9.84, 87.55 -7.02, 102.46 -0.26 M78.43 -9.89 C84.6 -7.7, 89.88 -7.53, 103.25 -1.65" stroke="#e03131" stroke-width="2" fill="none"></path></g></g><mask></mask><g stroke-linecap="round"><g transform="translate(324.24130249023426 74.41174466101518) rotate(0 -49.02981567382807 -1.2178047035544637)"><path d="M-2.47 1.92 C-25.78 2.16, -46.93 0.64, -96.93 0.09 M1.98 1.42 C-33.77 2.96, -67.42 1.32, -97.33 -1.74" stroke="#e03131" stroke-width="2" fill="none"></path></g><g transform="translate(324.24130249023426 74.41174466101518) rotate(0 -49.02981567382807 -1.2178047035544637)"><path d="M-74.44 -7.35 C-80.42 -6.05, -85.39 -5.05, -96.76 -0.47 M-72.22 -7.6 C-81.39 -4.83, -89.52 -2.93, -96.97 -1.39" stroke="#e03131" stroke-width="2" fill="none"></path></g><g transform="translate(324.24130249023426 74.41174466101518) rotate(0 -49.02981567382807 -1.2178047035544637)"><path d="M-75.86 9.69 C-81.67 7.15, -86.33 4.31, -96.76 -0.47 M-73.64 9.44 C-82.33 6.25, -89.97 2.2, -96.97 -1.39" stroke="#e03131" stroke-width="2" fill="none"></path></g></g><mask></mask><g transform="translate(340.1807556152344 64.771240234375) rotate(0 31.999999999999943 9.599999999999994)"><text x="0" y="0" font-family="Cascadia, Segoe UI Emoji" font-size="16px" fill="#e03131" text-anchor="start" style="white-space: pre;" direction="ltr" dominant-baseline="text-before-edge">传输数据</text></g></svg>