<svg version="1.1" xmlns="http://www.w3.org/2000/svg" viewBox="0 0 1003.6602783203124 1139.6334991455078" width="1003.6602783203124" height="1139.6334991455078">
  <!-- svg-source:excalidraw -->
  
  <defs>
    <style class="style-fonts">
      @font-face {
        font-family: "Virgil";
        src: url("https://excalidraw.com/Virgil.woff2");
      }
      @font-face {
        font-family: "Cascadia";
        src: url("https://excalidraw.com/Cascadia.woff2");
      }
      @font-face {
        font-family: "Assistant";
        src: url("https://excalidraw.com/Assistant-Regular.woff2");
      }
    </style>
    
  </defs>
  <g stroke-linecap="round" transform="translate(460.92022705078125 10) rotate(0 80.466064453125 17.5)"><path d="M2.32 -1.92 L162.29 -0.28 L157.6 38.97 L2.65 35.91" stroke="none" stroke-width="0" fill="#ebfbee"></path><path d="M-3.2 2.84 C55.63 2.73, 113.22 0.47, 160.29 -3.62 M-1.69 1.73 C52.29 1.13, 104.3 0.85, 160.16 0.15 M158.55 -1.35 C161.11 8.17, 161.42 23.74, 157.8 34.54 M160.34 -1.43 C160.03 10.49, 162.76 18.32, 161.73 35.33 M162.13 34.18 C117.45 30.37, 77.14 31.23, 2.68 38.48 M162.5 36.75 C117.01 33.22, 75.21 35.37, 0.92 33.87 M-2.94 31.53 C4.29 26.18, -2.78 15.2, 0.48 -0.02 M0.69 34.6 C-1.48 24.75, -1.11 13.15, -0.29 -0.08" stroke="#1e1e1e" stroke-width="2" fill="none"></path></g><g transform="translate(493.38629150390625 17.5) rotate(0 48 10)"><text x="48" y="0" font-family="Virgil, Segoe UI Emoji" font-size="16px" fill="#1e1e1e" text-anchor="middle" style="white-space: pre;" direction="ltr" dominant-baseline="text-before-edge">用户请求资源</text></g><g stroke-linecap="round"><g transform="translate(538.585150588981 52.73487854003906) rotate(0 0.4919327826050903 22.779345768473526)"><path d="M0 0 C0.23 10.77, 0.47 21.54, 0.98 45.56 M0 0 C0.34 15.83, 0.68 31.65, 0.98 45.56" stroke="#1e1e1e" stroke-width="2" fill="none"></path></g><g transform="translate(538.585150588981 52.73487854003906) rotate(0 0.4919327826050903 22.779345768473526)"><path d="M-7.27 24.32 C-5.32 29.34, -3.37 34.36, 0.98 45.56 M-7.27 24.32 C-4.4 31.7, -1.54 39.08, 0.98 45.56" stroke="#1e1e1e" stroke-width="2" fill="none"></path></g><g transform="translate(538.585150588981 52.73487854003906) rotate(0 0.4919327826050903 22.779345768473526)"><path d="M8.31 23.98 C6.58 29.08, 4.85 34.18, 0.98 45.56 M8.31 23.98 C5.77 31.48, 3.22 38.97, 0.98 45.56" stroke="#1e1e1e" stroke-width="2" fill="none"></path></g></g><mask></mask><g stroke-linecap="round" transform="translate(458.02520751953125 102.40226745605469) rotate(0 80.9208374023437 50)"><path d="M84.41 -4 L164.14 51.37 L79.72 96.77 L1.01 53.68" stroke="none" stroke-width="0" fill="#ebfbee" fill-rule="evenodd"></path><path d="M77.51 -0.18 C105.5 14.8, 132.88 32.65, 158.16 54.37 M80.52 0.62 C113.84 19.3, 143.56 40.91, 163.02 51.8 M163.58 48.44 C130.23 65.61, 108.9 86.51, 84.91 103.61 M163.55 50.04 C142.74 62.93, 121.96 73.09, 80.92 99.06 M80.51 100.92 C59.8 87, 45.3 80.8, 3.95 54.79 M80.35 99.01 C61.34 87.49, 44.37 77.26, 1.99 52.22 M-2.92 53.46 C24.88 36.33, 45.98 19.54, 83.15 -2.22 M-1.53 52.25 C26.64 35.18, 53.64 18.58, 80.9 0.45" stroke="#1e1e1e" stroke-width="2" fill="none"></path></g><g transform="translate(506.9856262207031 132.4022674560547) rotate(0 32 20)"><text x="32" y="0" font-family="Virgil, Segoe UI Emoji" font-size="16px" fill="#1e1e1e" text-anchor="middle" style="white-space: pre;" direction="ltr" dominant-baseline="text-before-edge">是否存在</text><text x="32" y="20" font-family="Virgil, Segoe UI Emoji" font-size="16px" fill="#1e1e1e" text-anchor="middle" style="white-space: pre;" direction="ltr" dominant-baseline="text-before-edge">缓存</text></g><g mask="url(#mask-HW-9DOx1sXSe3YInNB7rQ)" stroke-linecap="round"><g transform="translate(245.0431809541525 196.55107145379642) rotate(0 -2.1543407618775063 71.32092113206608)"><path d="M0.8 -0.45 C2.45 42.91, -1.69 86.82, -0.7 138.95 M0.85 -0.93 C1.62 50.54, -2.62 103.37, -2.93 144.21" stroke="#1e1e1e" stroke-width="2" fill="none"></path></g><g transform="translate(245.0431809541525 196.55107145379642) rotate(0 -2.1543407618775063 71.32092113206608)"><path d="M-10.43 120.26 C-6.58 128.16, -5.73 136.28, -1.12 142.36 M-10.4 120.02 C-6.94 128.69, -5.45 138.02, -2.24 144.99" stroke="#1e1e1e" stroke-width="2" fill="none"></path></g><g transform="translate(245.0431809541525 196.55107145379642) rotate(0 -2.1543407618775063 71.32092113206608)"><path d="M6.67 120.74 C5.54 128.42, 1.43 136.41, -1.12 142.36 M6.69 120.5 C4.02 128.95, -0.63 138.11, -2.24 144.99" stroke="#1e1e1e" stroke-width="2" fill="none"></path></g></g><mask id="mask-HW-9DOx1sXSe3YInNB7rQ"><rect x="0" y="0" fill="#fff" width="349.3518624779075" height="439.1929137179286"></rect><rect x="230.4168476995992" y="257.87199258586253" fill="#000" width="24.943984985351562" height="20" opacity="1"></rect></mask><g transform="translate(230.4168476995992 257.8719925858625) rotate(0 13.756917708341007 10.317897502332926)"><text x="12.471992492675781" y="0" font-family="Virgil, Segoe UI Emoji" font-size="16px" fill="#1e1e1e" text-anchor="middle" style="white-space: pre;" direction="ltr" dominant-baseline="text-before-edge">yes</text></g><g mask="url(#mask-T3dXhK5Wovq2lLjhRzssQ)" stroke-linecap="round"><g transform="translate(626.3375982303569 156.9604018295752) rotate(0 149.09882164017682 291.26012720647236)"><path d="M-2.89 0.57 C113.92 2.48, 230.88 6.13, 291.75 2.43 M0.39 0.71 C69.05 2.43, 141.26 3.97, 290.08 4.82 M291.27 3.59 C294.5 172.32, 296.07 343.4, 296.44 488.73 M289.56 3.75 C294.28 110.16, 294.63 217.65, 296.85 487.44 M297.37 485.24 C300.43 516.82, 294.56 555.76, 297.64 579.6 M298.36 487.41 C297.01 524.76, 296.16 560.1, 297.22 583.62" stroke="#1e1e1e" stroke-width="2" fill="none"></path></g><g transform="translate(626.3375982303569 156.9604018295752) rotate(0 149.09882164017682 291.26012720647236)"><path d="M286.28 560.68 C291.51 569.27, 296.81 579.86, 298.52 582.59 M288.46 560.77 C289.6 565.87, 293.04 571.91, 297.41 584.18" stroke="#1e1e1e" stroke-width="2" fill="none"></path></g><g transform="translate(626.3375982303569 156.9604018295752) rotate(0 149.09882164017682 291.26012720647236)"><path d="M303.37 560.34 C301.86 569.02, 300.42 579.74, 298.52 582.59 M305.56 560.44 C302.54 565.55, 301.83 571.67, 297.41 584.18" stroke="#1e1e1e" stroke-width="2" fill="none"></path></g></g><mask id="mask-T3dXhK5Wovq2lLjhRzssQ"><rect x="0" y="0" fill="#fff" width="1024.5352415107104" height="839.4806562425199"></rect><rect x="911.8924971785522" y="392.8031436883747" fill="#000" width="16.33599853515625" height="20" opacity="1"></rect></mask><g transform="translate(911.8924971785523 392.8031436883747) rotate(0 -137.8222216255969 56.25142787089197)"><text x="8.167999267578125" y="0" font-family="Virgil, Segoe UI Emoji" font-size="16px" fill="#1e1e1e" text-anchor="middle" style="white-space: pre;" direction="ltr" dominant-baseline="text-before-edge">no</text></g><g mask="url(#mask-zZrsOzAh2DSahYWyIJSzS)" stroke-linecap="round"><g transform="translate(152.553506703739 168.6450743366) rotate(0 -34.469482929621904 222.61270792199218)"><path d="M-3.86 -1.87 C-19.13 2.36, -45.61 1.68, -67.94 -2.34 M-1.36 0.25 C-26.91 1.39, -56.2 -0.24, -67.84 -1.19 M-71.72 0.46 C-66.65 111.56, -65.73 222.16, -66.35 306.64 M-68.8 -2.21 C-66.45 77.78, -64.13 156, -63.09 308.56 M-65.24 306.14 C-66.55 344.47, -63.2 376.51, -63.19 449.83 M-64.2 309.06 C-62.99 337.29, -63.13 369.5, -67.22 446.37" stroke="#1e1e1e" stroke-width="2" fill="none"></path></g><g transform="translate(152.553506703739 168.6450743366) rotate(0 -34.469482929621904 222.61270792199218)"><path d="M-76.61 421.57 C-70.74 431.94, -70.5 439.59, -66.71 446.2 M-75.36 422.63 C-71.43 432.89, -69.56 441.87, -66.67 446.78" stroke="#1e1e1e" stroke-width="2" fill="none"></path></g><g transform="translate(152.553506703739 168.6450743366) rotate(0 -34.469482929621904 222.61270792199218)"><path d="M-59.52 422.36 C-59.14 432.41, -64.4 439.81, -66.71 446.2 M-58.27 423.42 C-61.08 433.39, -65.94 442.06, -66.67 446.78" stroke="#1e1e1e" stroke-width="2" fill="none"></path></g></g><mask id="mask-zZrsOzAh2DSahYWyIJSzS"><rect x="0" y="0" fill="#fff" width="321.4924725629828" height="717.8913822619875"></rect><rect x="77.71876391560329" y="311.56667425278016" fill="#000" width="16.33599853515625" height="20" opacity="1"></rect></mask><g transform="translate(77.71876391560329 311.5666742527801) rotate(0 38.29589227334935 80.82512844609244)"><text x="8.167999267578125" y="0" font-family="Virgil, Segoe UI Emoji" font-size="16px" fill="#1e1e1e" text-anchor="middle" style="white-space: pre;" direction="ltr" dominant-baseline="text-before-edge">no</text></g><g stroke-linecap="round" transform="translate(10 618.0350494384766) rotate(0 75.84719848632812 15)"><path d="M1.35 -3.46 L148.5 2.91 L154.66 31.19 L3.4 27.03" stroke="none" stroke-width="0" fill="#ebfbee"></path><path d="M0.23 -0.25 C52.55 -0.65, 106.07 -1.72, 147.79 -2.99 M-0.38 0.67 C49.09 0.75, 96.89 0.06, 153.56 -0.13 M152.31 -2.67 C151.26 6.4, 150.92 15.62, 149.2 29.03 M151.25 -0.27 C151.85 10.09, 150.56 21.73, 152.69 31.43 M153.13 31.43 C116.92 28.87, 81.73 33.59, 3.75 30.49 M152.14 31.6 C110.03 32.19, 68.04 29.5, 1.75 28.72 M0.71 31.4 C-1.86 23.57, -2.34 14.5, 0.5 -3.04 M-0.44 30.31 C-0.22 22.3, -0.28 15.51, 0.9 -1.61" stroke="#1e1e1e" stroke-width="2" fill="none"></path></g><g transform="translate(21.847198486328125 623.0350494384766) rotate(0 64 10)"><text x="64" y="0" font-family="Virgil, Segoe UI Emoji" font-size="16px" fill="#1e1e1e" text-anchor="middle" style="white-space: pre;" direction="ltr" dominant-baseline="text-before-edge">直接使用缓存内容</text></g><g stroke-linecap="round" transform="translate(154.9443359375 340.56068420410156) rotate(0 88.79583740234375 30)"><path d="M87.78 -1.27 L177.83 32.34 L88.7 58.07 L0.6 29.92" stroke="none" stroke-width="0" fill="#ebfbee" fill-rule="evenodd"></path><path d="M86.36 1.89 C107.93 2.73, 129.93 11.81, 179.79 34.04 M89 -1.41 C107.6 7.95, 128.7 15.56, 178.42 30.89 M175.77 29.4 C154.19 40.25, 131.88 46.68, 86.6 57.32 M177.6 31.21 C144.65 42.11, 114.82 51.92, 89.17 58.62 M90.06 61.38 C69.5 52.53, 48.49 46.16, -2.09 32.79 M88.35 58.15 C69.82 52.52, 49.69 46.68, 1.16 29.31 M-3.66 30.09 C31.08 17.76, 57.86 9.98, 86.63 2.43 M1.02 30.12 C26.23 22.1, 54.14 10.91, 87.05 -1.46" stroke="#1e1e1e" stroke-width="2" fill="none"></path></g><g transform="translate(206.67426300048828 360.56068420410156) rotate(0 37.167991638183594 10)"><text x="37.167991638183594" y="0" font-family="Virgil, Segoe UI Emoji" font-size="16px" fill="#1e1e1e" text-anchor="middle" style="white-space: pre;" direction="ltr" dominant-baseline="text-before-edge">判断ETag</text></g><g stroke-linecap="round"><g transform="translate(92.45010424026691 648.7149200439453) rotate(0 164.7970423661784 232.71786087507826)"><path d="M-0.49 -0.72 C-0.89 165.94, -2.88 331.42, -6.81 460.1 M0.88 -0.75 C-0.63 125.78, -2.42 250.71, -5.34 460.72 M-7.76 462.8 C113.92 460.77, 234.09 459.17, 335.52 464.62 M-5.96 462.22 C97.44 460.06, 200.62 460.39, 336.5 465.65" stroke="#1e1e1e" stroke-width="2" fill="none"></path></g><g transform="translate(92.45010424026691 648.7149200439453) rotate(0 164.7970423661784 232.71786087507826)"><path d="M312.23 472.7 C320.42 471.6, 329.05 469.35, 335.52 464.36 M313.71 472.67 C318.7 471.48, 324.95 468.86, 337.1 465.04" stroke="#1e1e1e" stroke-width="2" fill="none"></path></g><g transform="translate(92.45010424026691 648.7149200439453) rotate(0 164.7970423661784 232.71786087507826)"><path d="M312.75 455.61 C320.83 460.63, 329.27 464.49, 335.52 464.36 M314.23 455.58 C319.13 459.04, 325.24 461.06, 337.1 465.04" stroke="#1e1e1e" stroke-width="2" fill="none"></path></g></g><mask></mask><g stroke-linecap="round" transform="translate(430.64630126953125 1077.829360961914) rotate(0 89.69073486328125 25.902069091796875)"><path d="M2.02 2.75 L180.83 1.4 L176.52 52.21 L0.2 55.46" stroke="none" stroke-width="0" fill="#ebfbee"></path><path d="M-3.5 2.97 C43.2 -2.74, 80.39 -2.61, 182 3.29 M1.26 -0.88 C40.32 -1.53, 83.87 1.01, 179.58 -0.2 M175.58 3.03 C178.51 9.3, 179.09 25.69, 176.96 49.48 M178.56 -0.66 C178.05 10.36, 178.12 22.78, 178.68 50.6 M178.48 51.79 C123.41 56.96, 63.31 54.33, -1.07 49.17 M178.43 51.68 C143.16 48.93, 108.75 46.99, 0.52 50.13 M-1.79 52.71 C-4.5 38.82, -1.95 27.26, 0.39 -3.13 M-1.53 52.33 C-0.8 39.2, -0.87 30.8, 0.81 -0.19" stroke="#1e1e1e" stroke-width="2" fill="none"></path></g><g transform="translate(472.3370361328125 1093.731430053711) rotate(0 48 10)"><text x="48" y="0" font-family="Virgil, Segoe UI Emoji" font-size="16px" fill="#1e1e1e" text-anchor="middle" style="white-space: pre;" direction="ltr" dominant-baseline="text-before-edge">返回展示资源</text></g><g stroke-linecap="round" transform="translate(862.3194580078124 735.1310882568359) rotate(0 60.51837158203125 25.725189208984375)"><path d="M-1.69 2.27 L125 -3.06 L119.98 55.16 L1.62 50.99" stroke="none" stroke-width="0" fill="#ebfbee"></path><path d="M1.06 2.63 C27.5 1.93, 53.74 3.38, 124.42 0.79 M-0.62 -0.94 C23.54 3.56, 48.28 3.49, 120.79 -1.83 M118.84 1.46 C124.79 17.06, 121.88 31.98, 119.3 48.77 M121.84 -0.49 C121.52 8.96, 121.57 23.7, 121.96 51.41 M118.58 47.93 C94.16 54.7, 73.29 52.3, 0.14 49.44 M122.94 50.21 C97.21 47.99, 68.74 49.59, 0.09 50.98 M-0.17 48.56 C-2.06 42.04, 1.48 30.25, 0.48 2.18 M-0.87 51.33 C1.31 39.47, 2.14 27.59, 1.05 -1.33" stroke="#1e1e1e" stroke-width="2" fill="none"></path></g><g transform="translate(874.8378295898436 750.8562774658203) rotate(0 48 10)"><text x="48" y="0" font-family="Virgil, Segoe UI Emoji" font-size="16px" fill="#1e1e1e" text-anchor="middle" style="white-space: pre;" direction="ltr" dominant-baseline="text-before-edge">向服务器请求</text></g><g stroke-linecap="round" transform="translate(863.8312988281249 957.1703948974609) rotate(0 64.91448974609375 25)"><path d="M1.43 3.23 L131.82 3.55 L129.18 47.29 L0.14 48.4" stroke="none" stroke-width="0" fill="#ebfbee"></path><path d="M2.22 -1.78 C40.24 -2.01, 74.6 2.91, 133.79 -3.06 M-0.23 -1.68 C35.63 -1.72, 71.4 -3.01, 131.54 -0.59 M127.74 -0.98 C128.72 14.04, 129.25 22, 131.01 50.64 M129.62 -1.43 C128.7 15.57, 129.93 32.76, 131.25 50.7 M131.58 51.09 C98.42 47.85, 62.21 51.21, -1.04 46.96 M128.09 51.42 C96.23 48.3, 59.96 47.41, 0.85 50.67 M-1.87 53.26 C3.03 35.59, 1.48 28.69, 1.61 -3.09 M1.29 51.63 C-1.88 33.33, -1.32 14.36, 1.82 1.31" stroke="#1e1e1e" stroke-width="2" fill="none"></path></g><g transform="translate(896.7457885742186 962.1703948974609) rotate(0 32 20)"><text x="32" y="0" font-family="Virgil, Segoe UI Emoji" font-size="16px" fill="#1e1e1e" text-anchor="middle" style="white-space: pre;" direction="ltr" dominant-baseline="text-before-edge">请求响应</text><text x="32" y="20" font-family="Virgil, Segoe UI Emoji" font-size="16px" fill="#1e1e1e" text-anchor="middle" style="white-space: pre;" direction="ltr" dominant-baseline="text-before-edge">缓存协商</text></g><g stroke-linecap="round"><g transform="translate(927.4305102239986 781.3819122314453) rotate(0 1.0751828180370921 85.93510437011724)"><path d="M3.08 3.64 C0.3 38.98, -4.43 79.3, 2.26 169.86 M-2 1.96 C-0.01 57.9, 2.27 115.62, 1.17 173.35" stroke="#1e1e1e" stroke-width="2" fill="none"></path></g><g transform="translate(927.4305102239986 781.3819122314453) rotate(0 1.0751828180370921 85.93510437011724)"><path d="M-5.76 151.64 C-4.03 154.65, -4.67 160.17, 1.22 172.34 M-8.3 150.81 C-5.3 157.72, -1.65 165.47, 0.68 174.08" stroke="#1e1e1e" stroke-width="2" fill="none"></path></g><g transform="translate(927.4305102239986 781.3819122314453) rotate(0 1.0751828180370921 85.93510437011724)"><path d="M11.34 151.7 C9.06 154.76, 4.41 160.26, 1.22 172.34 M8.8 150.86 C6.02 157.59, 3.88 165.32, 0.68 174.08" stroke="#1e1e1e" stroke-width="2" fill="none"></path></g></g><mask></mask><g stroke-linecap="round"><g transform="translate(931.2701928224777 1010.913314819336) rotate(0 -152.79723139669647 55.90763854980463)"><path d="M3.28 0.48 C2.19 32.62, 2.12 69.97, 1.32 114.5 M-1.08 0.2 C0.26 38.61, 5.33 76.91, 3.53 110.04 M7.81 111.43 C-89.33 111.39, -185.12 109.98, -310.91 108.58 M4.69 113 C-116.89 111.06, -238.98 110.54, -311.27 110.71" stroke="#1e1e1e" stroke-width="2" fill="none"></path></g><g transform="translate(931.2701928224777 1010.913314819336) rotate(0 -152.79723139669647 55.90763854980463)"><path d="M-286.14 102.42 C-294.68 103.82, -302.66 108.02, -313.14 112.06 M-288.32 102.28 C-296.45 105.45, -302.68 108.64, -312.04 109.82" stroke="#1e1e1e" stroke-width="2" fill="none"></path></g><g transform="translate(931.2701928224777 1010.913314819336) rotate(0 -152.79723139669647 55.90763854980463)"><path d="M-286.15 119.52 C-294.69 115.69, -302.67 114.67, -313.14 112.06 M-288.33 119.38 C-296.46 116.79, -302.69 114.21, -312.04 109.82" stroke="#1e1e1e" stroke-width="2" fill="none"></path></g></g><mask></mask><g mask="url(#mask-_3GS9I0udF0mhvyEwwdCV)" stroke-linecap="round"><g transform="translate(243.17869454428626 401.4894614294286) rotate(0 4.490740254234311 59.94457745178963)"><path d="M0.29 0.84 C2.23 24.63, 0.78 52.16, 7.05 123.71 M0.86 -0.85 C2.58 34.3, 6.07 69.66, 7.56 118.1" stroke="#1e1e1e" stroke-width="2" fill="none"></path></g><g transform="translate(243.17869454428626 401.4894614294286) rotate(0 4.490740254234311 59.94457745178963)"><path d="M-1.88 95.42 C0.73 99.73, 1.05 105.9, 6.59 120.01 M-1.59 94.58 C0.94 101.34, 4.18 108.2, 6.84 117.2" stroke="#1e1e1e" stroke-width="2" fill="none"></path></g><g transform="translate(243.17869454428626 401.4894614294286) rotate(0 4.490740254234311 59.94457745178963)"><path d="M15.21 94.67 C14.29 98.99, 11.09 105.32, 6.59 120.01 M15.5 93.83 C13.01 100.76, 11.23 107.84, 6.84 117.2" stroke="#1e1e1e" stroke-width="2" fill="none"></path></g></g><mask id="mask-_3GS9I0udF0mhvyEwwdCV"><rect x="0" y="0" fill="#fff" width="352.1601750527549" height="621.3786163330078"></rect><rect x="235.1974423058448" y="451.43403888121827" fill="#000" width="24.943984985351562" height="20" opacity="1"></rect></mask><g transform="translate(235.1974423058448 451.43403888121827) rotate(0 11.901950953528285 11.482547791674705)"><text x="12.471992492675781" y="0" font-family="Virgil, Segoe UI Emoji" font-size="16px" fill="#1e1e1e" text-anchor="middle" style="white-space: pre;" direction="ltr" dominant-baseline="text-before-edge">yes</text></g><g mask="url(#mask-DimlR4wpWb_ate0jNFQLB)" stroke-linecap="round"><g transform="translate(333.2843303099329 371.2240225977811) rotate(0 62.403209540288344 -1.4051283338221765)"><path d="M1.53 3.75 C43.99 -6.1, 83.78 -3.03, 124.44 -2.27 M-1.33 0.5 C33.66 -1.12, 72.13 0.07, 124.91 -0.95" stroke="#1e1e1e" stroke-width="2" fill="none"></path></g><g transform="translate(333.2843303099329 371.2240225977811) rotate(0 62.403209540288344 -1.4051283338221765)"><path d="M102.28 9.72 C109.74 3.09, 115.92 2.02, 124.73 -0.68 M100.85 8.09 C107.27 4.67, 115.47 3.17, 124.96 -0.03" stroke="#1e1e1e" stroke-width="2" fill="none"></path></g><g transform="translate(333.2843303099329 371.2240225977811) rotate(0 62.403209540288344 -1.4051283338221765)"><path d="M102.1 -7.38 C109.78 -8, 116.03 -3.05, 124.73 -0.68 M100.67 -9.01 C107.25 -7.59, 115.5 -4.25, 124.96 -0.03" stroke="#1e1e1e" stroke-width="2" fill="none"></path></g></g><mask id="mask-DimlR4wpWb_ate0jNFQLB"><rect x="0" y="0" fill="#fff" width="558.0907493905096" height="474.0342792654254"></rect><rect x="387.519540582643" y="359.8188942639589" fill="#000" width="16.33599853515625" height="20" opacity="1"></rect></mask><g transform="translate(387.5195405826431 359.8188942639589) rotate(0 7.557387892156839 11.619999948086871)"><text x="8.167999267578125" y="0" font-family="Virgil, Segoe UI Emoji" font-size="16px" fill="#1e1e1e" text-anchor="middle" style="white-space: pre;" direction="ltr" dominant-baseline="text-before-edge">no</text></g><g stroke-linecap="round" transform="translate(458.08087158203136 320.59181213378906) rotate(0 116.22476196289051 50)"><path d="M118.3 -2.63 L232.95 53.85 L115.85 99.7 L3.16 48.21" stroke="none" stroke-width="0" fill="#ebfbee" fill-rule="evenodd"></path><path d="M116.07 -2.09 C139.89 13.47, 171.69 19.35, 228.84 54.16 M116.47 1.5 C147.35 10.89, 176.13 24.81, 234.17 52.4 M230.99 49.76 C207.04 59.92, 175.16 72.23, 116.81 101.94 M233.65 51.36 C201.84 63.47, 172.5 77.9, 116.61 99.73 M116.11 100.79 C79.63 88.53, 50.39 73.99, -0.58 53.49 M116.2 98.92 C89.9 90.46, 58.51 75.87, 1.17 52.81 M-0.96 51.46 C26.77 42.1, 58.34 27.66, 119.93 -2.28 M-1.78 52.13 C32.51 37.25, 62.79 25.47, 118.72 -0.96" stroke="#1e1e1e" stroke-width="2" fill="none"></path></g><g transform="translate(524.2332992553711 350.59181213378906) rotate(0 49.95995330810547 20)"><text x="49.95995330810547" y="0" font-family="Virgil, Segoe UI Emoji" font-size="16px" fill="#1e1e1e" text-anchor="middle" style="white-space: pre;" direction="ltr" dominant-baseline="text-before-edge">判断</text><text x="49.95995330810547" y="20" font-family="Virgil, Segoe UI Emoji" font-size="16px" fill="#1e1e1e" text-anchor="middle" style="white-space: pre;" direction="ltr" dominant-baseline="text-before-edge">last-modified</text></g><g mask="url(#mask-CL2e6HVFH4cN9sHH3f01V)" stroke-linecap="round"><g transform="translate(576.7167846261225 420.6431432171149) rotate(0 3.7425147425138903 54.24331639193082)"><path d="M2.26 3.04 C1.21 34.4, 2.42 72.6, 5.83 106.98 M0.12 -1.22 C0.07 28.82, 2.41 52.74, 8.79 108.32" stroke="#1e1e1e" stroke-width="2" fill="none"></path></g><g transform="translate(576.7167846261225 420.6431432171149) rotate(0 3.7425147425138903 54.24331639193082)"><path d="M-1.16 87.42 C1.57 92.32, 4.67 100.61, 7.97 107.56 M-2.23 85.3 C0.22 92.42, 3.21 96.47, 9.45 108.23" stroke="#1e1e1e" stroke-width="2" fill="none"></path></g><g transform="translate(576.7167846261225 420.6431432171149) rotate(0 3.7425147425138903 54.24331639193082)"><path d="M15.84 85.54 C12.78 90.96, 10.1 99.88, 7.97 107.56 M14.77 83.42 C12.97 90.92, 11.74 95.43, 9.45 108.23" stroke="#1e1e1e" stroke-width="2" fill="none"></path></g></g><mask id="mask-CL2e6HVFH4cN9sHH3f01V"><rect x="0" y="0" fill="#fff" width="684.2018141111503" height="629.1297760009766"></rect><rect x="567.9873068759606" y="464.8864596090458" fill="#000" width="24.943984985351562" height="20" opacity="1"></rect></mask><g transform="translate(567.9873068759607 464.8864596090457) rotate(0 13.185416444768862 9.304733339697123)"><text x="12.471992492675781" y="0" font-family="Virgil, Segoe UI Emoji" font-size="16px" fill="#1e1e1e" text-anchor="middle" style="white-space: pre;" direction="ltr" dominant-baseline="text-before-edge">yes</text></g><g stroke-linecap="round" transform="translate(473.8322753906251 533.3172760009766) rotate(0 110.00363159179682 33.047332763671875)"><path d="M3.6 -3.16 L220.06 -1.28 L219.37 70.01 L-1.95 63.96" stroke="none" stroke-width="0" fill="#ebfbee"></path><path d="M-2.13 -1.1 C68.62 -2.21, 130.91 0.45, 221.65 -2.33 M-0.71 1.62 C82.07 -2.07, 165 -2.63, 218.39 0.65 M219.09 -2.68 C221.71 17.75, 221.04 34.31, 222.27 65.7 M221.73 1.93 C220.36 22.37, 221.29 42.38, 219.14 65.15 M219.88 68.67 C139.57 67.91, 55.01 70.08, 0.22 67.13 M220.14 64.79 C139.72 67.38, 60.5 66.56, -0.77 67.56 M-3.45 64.2 C1.11 41.61, 0.64 25, -0.76 -2.07 M-1.28 65.33 C-1.37 50.72, -2.49 33.2, -1.35 0.93" stroke="#1e1e1e" stroke-width="2" fill="none"></path></g><g transform="translate(523.027961730957 546.3646087646484) rotate(0 60.807945251464844 20)"><text x="60.807945251464844" y="0" font-family="Virgil, Segoe UI Emoji" font-size="16px" fill="#1e1e1e" text-anchor="middle" style="white-space: pre;" direction="ltr" dominant-baseline="text-before-edge">向服务器请求</text><text x="60.807945251464844" y="20" font-family="Virgil, Segoe UI Emoji" font-size="16px" fill="#1e1e1e" text-anchor="middle" style="white-space: pre;" direction="ltr" dominant-baseline="text-before-edge">if-modified-since</text></g><g stroke-linecap="round" transform="translate(138.71487426757835 530.0077362060547) rotate(0 110.00363159179682 33.047332763671875)"><path d="M-1.38 3.9 L223.7 3.17 L218.14 62.99 L-2.32 68.41" stroke="none" stroke-width="0" fill="#ebfbee"></path><path d="M0.77 -0.68 C84.11 -5.55, 175.62 -3.32, 217.25 3.03 M1.52 -1.03 C46.81 0.17, 89.91 -0.47, 218.41 -1.46 M220.49 2.95 C220.83 20.27, 223.5 41.43, 217.51 65.63 M220.36 -1.13 C221.86 17.56, 220.5 38.83, 218.49 64.28 M217.27 63.78 C155.64 69.59, 87.23 66.78, -2.37 63.93 M220.73 67.08 C173.9 63.59, 125.96 61.86, 0.27 66.15 M1.06 63.42 C2.08 44.55, 0.4 31.5, 3.92 3.81 M-1.24 64.59 C-2.89 44.67, 0.07 23.78, 0.53 0.42" stroke="#1e1e1e" stroke-width="2" fill="none"></path></g><g transform="translate(197.3345413208009 543.0550689697266) rotate(0 51.38396453857422 20)"><text x="51.38396453857422" y="0" font-family="Virgil, Segoe UI Emoji" font-size="16px" fill="#1e1e1e" text-anchor="middle" style="white-space: pre;" direction="ltr" dominant-baseline="text-before-edge">向服务器请求</text><text x="51.38396453857422" y="20" font-family="Virgil, Segoe UI Emoji" font-size="16px" fill="#1e1e1e" text-anchor="middle" style="white-space: pre;" direction="ltr" dominant-baseline="text-before-edge">if-none-match</text></g><g stroke-linecap="round" transform="translate(384.02227783203125 759.8596954345703) rotate(0 126.7395629882812 50)"><path d="M123.33 -1.86 L250.65 47.21 L126.28 98.86 L0.93 48.63" stroke="none" stroke-width="0" fill="#ebfbee" fill-rule="evenodd"></path><path d="M129.17 3.61 C170.47 20.64, 218.84 37.88, 249.55 52.41 M126.87 0.32 C153.35 11.94, 179.71 20.82, 252.52 49.47 M255.78 49.63 C220.85 61.02, 189.82 75.6, 129.26 101.53 M255.47 49.77 C219.31 64.83, 183.47 77.03, 126.87 101.5 M124.85 103.62 C103.1 84.17, 69.64 79.49, 1.39 49.55 M126.31 100.26 C78.37 84.32, 27.88 62.91, -1.79 51.32 M0.63 51.23 C39.64 30.13, 84.99 12.56, 129.21 -0.92 M0.91 50 C50.29 27.65, 96.13 11.48, 126.98 -1.64" stroke="#1e1e1e" stroke-width="2" fill="none"></path></g><g transform="translate(454.1880645751953 789.8596954345703) rotate(0 56.70399475097656 20)"><text x="56.70399475097656" y="0" font-family="Virgil, Segoe UI Emoji" font-size="16px" fill="#1e1e1e" text-anchor="middle" style="white-space: pre;" direction="ltr" dominant-baseline="text-before-edge">服务器返回200</text><text x="56.70399475097656" y="20" font-family="Virgil, Segoe UI Emoji" font-size="16px" fill="#1e1e1e" text-anchor="middle" style="white-space: pre;" direction="ltr" dominant-baseline="text-before-edge">但还是304</text></g><g stroke-linecap="round"><g transform="translate(247.71318602127735 600.2133636474609) rotate(0 70.81828364454338 107.05659484863281)"><path d="M-2.79 -3.3 C-0.49 51.17, 1.29 100.22, -3.07 217.6 M-0.73 0.5 C-3.82 60.15, -4.49 121.2, -1.07 215.01 M1.27 212.34 C53.09 209.39, 105.85 215.8, 138.38 214.9 M-2.18 213.67 C29.97 213.51, 64.17 214.04, 140.33 212.6" stroke="#1e1e1e" stroke-width="2" fill="none"></path></g><g transform="translate(247.71318602127735 600.2133636474609) rotate(0 70.81828364454338 107.05659484863281)"><path d="M115.37 219.61 C122.51 219.87, 129.07 217.12, 138.87 214.59 M116.55 221.77 C123.1 218.42, 129.45 215.95, 140.01 213.12" stroke="#1e1e1e" stroke-width="2" fill="none"></path></g><g transform="translate(247.71318602127735 600.2133636474609) rotate(0 70.81828364454338 107.05659484863281)"><path d="M115.13 202.51 C122.3 206.78, 128.92 208.04, 138.87 214.59 M116.3 204.67 C122.8 206.18, 129.22 208.58, 140.01 213.12" stroke="#1e1e1e" stroke-width="2" fill="none"></path></g></g><mask></mask><g mask="url(#mask-_2fU5fkrIwRWaSYiZVQAc)" stroke-linecap="round"><g transform="translate(633.7767596347525 809.8191321284114) rotate(0 113.49565338574871 84.60245406737215)"><path d="M-0.13 -2.47 C48.76 -0.54, 92.82 -5.46, 117.25 -3.11 M-1.28 0.25 C30.23 -1.22, 59.85 -2.33, 116.55 -4.4 M120.64 -4.92 C114.05 22.31, 116.84 50.34, 116.61 91.13 M115.45 -1.33 C117.03 15.61, 119.35 37.5, 118.41 88.03 M115.84 88.3 C118.31 104.22, 120.96 128.08, 118.28 170.05 M118.58 90.74 C119.25 113.29, 119.19 135.87, 118.65 171.19 M121.09 174.48 C155.22 173.19, 197.23 170.33, 223.85 175.21 M116.62 169.73 C160.88 172.13, 203.7 172.11, 228.29 172.27" stroke="#1e1e1e" stroke-width="2" fill="none"></path></g><g transform="translate(633.7767596347525 809.8191321284114) rotate(0 113.49565338574871 84.60245406737215)"><path d="M204.68 179.44 C215.3 178.25, 223.53 173.01, 228.43 172.07 M204.11 180.8 C211.02 178.2, 217.04 175.87, 228.08 171.42" stroke="#1e1e1e" stroke-width="2" fill="none"></path></g><g transform="translate(633.7767596347525 809.8191321284114) rotate(0 113.49565338574871 84.60245406737215)"><path d="M204.79 162.34 C215.47 167.9, 223.67 169.41, 228.43 172.07 M204.21 163.7 C211.24 165.4, 217.23 167.37, 228.08 171.42" stroke="#1e1e1e" stroke-width="2" fill="none"></path></g></g><mask id="mask-_2fU5fkrIwRWaSYiZVQAc"><rect x="0" y="0" fill="#fff" width="960.7680664062499" height="1084.4364439242754"></rect><rect x="734.4298553466797" y="888.6878204345703" fill="#000" width="33.407989501953125" height="20" opacity="1"></rect></mask><g transform="translate(734.4298553466797 888.6878204345703) rotate(0 12.851430544177447 6.279766845362133)"><text x="16.703994750976562" y="0" font-family="Virgil, Segoe UI Emoji" font-size="16px" fill="#1e1e1e" text-anchor="middle" style="white-space: pre;" direction="ltr" dominant-baseline="text-before-edge">200</text></g><g mask="url(#mask-1zMWFpTztOmGpNo-T5JAg)" stroke-linecap="round"><g transform="translate(506.17781574316984 858.9177212329014) rotate(0 1.3155415913057027 46.78928544067821)"><path d="M0.2 3.9 C3.48 21.19, 1.98 42.62, 5.06 93.54 M-1.79 0.71 C-0.09 22.11, 1.25 48.51, 4.25 91.74" stroke="#1e1e1e" stroke-width="2" fill="none"></path></g><g transform="translate(506.17781574316984 858.9177212329014) rotate(0 1.3155415913057027 46.78928544067821)"><path d="M-5.74 70.82 C-2.32 73.94, -1.02 79.06, 5.47 91.72 M-6.73 69.22 C-3.14 73.95, -0.28 81.16, 5.07 90.82" stroke="#1e1e1e" stroke-width="2" fill="none"></path></g><g transform="translate(506.17781574316984 858.9177212329014) rotate(0 1.3155415913057027 46.78928544067821)"><path d="M11.33 69.68 C10.75 72.91, 8.07 78.3, 5.47 91.72 M10.33 68.09 C9.64 73.09, 8.24 80.59, 5.07 90.82" stroke="#1e1e1e" stroke-width="2" fill="none"></path></g></g><mask id="mask-1zMWFpTztOmGpNo-T5JAg"><rect x="0" y="0" fill="#fff" width="608.8088989257812" height="1052.4962921142578"></rect><rect x="491.42136636767873" y="895.7070066735796" fill="#000" width="32.14398193359375" height="20" opacity="1"></rect></mask><g transform="translate(491.4213663676786 895.7070066735796) rotate(0 16.391692934557852 10.333685787394643)"><text x="16.071990966796875" y="0" font-family="Virgil, Segoe UI Emoji" font-size="16px" fill="#1e1e1e" text-anchor="middle" style="white-space: pre;" direction="ltr" dominant-baseline="text-before-edge">304</text></g><g stroke-linecap="round" transform="translate(387.51751708984375 955.0918731689453) rotate(0 123.05175781249994 30.98565673828125)"><path d="M2.58 -2.11 L247.95 -3.4 L245.78 65.16 L4 60.8" stroke="none" stroke-width="0" fill="#ebfbee"></path><path d="M1.8 2.15 C65.54 0.3, 127.94 -0.43, 243.39 2.61 M1.43 1.48 C92.5 -4.04, 184.89 -1.22, 245.38 -1.52 M249.21 1.1 C246.22 20, 249.31 41.89, 243.41 64.9 M244.24 -1.86 C245.24 13.3, 246.37 29.54, 247.2 63.74 M243.31 58.94 C168.99 57.44, 83.82 55.64, 2.7 59.39 M247.18 60.49 C150.2 65.43, 55.59 65.48, -1.1 62.29 M3.21 59.43 C-0.94 44.86, 1.58 18.3, 0.12 -2.67 M-0.98 61.79 C0.05 43.2, -1.85 25.74, -1.21 -0.43" stroke="#1e1e1e" stroke-width="2" fill="none"></path></g><g transform="translate(446.49728393554676 966.0775299072266) rotate(0 64.07199096679688 20)"><text x="64.07199096679688" y="0" font-family="Virgil, Segoe UI Emoji" font-size="16px" fill="#1e1e1e" text-anchor="middle" style="white-space: pre;" direction="ltr" dominant-baseline="text-before-edge">服务器返回304，</text><text x="64.07199096679688" y="20" font-family="Virgil, Segoe UI Emoji" font-size="16px" fill="#1e1e1e" text-anchor="middle" style="white-space: pre;" direction="ltr" dominant-baseline="text-before-edge">读取本地缓存</text></g><g stroke-linecap="round"><g transform="translate(517.8630305017949 1018.2917633056642) rotate(0 0.236941780352538 29.061676025390568)"><path d="M-3.55 -2.43 C-0.41 15.65, -2.19 33.64, -3.46 55 M-0.4 1.43 C0.15 14.97, -1.32 29.57, -0.02 59.23" stroke="#1e1e1e" stroke-width="2" fill="none"></path></g><g transform="translate(517.8630305017949 1018.2917633056642) rotate(0 0.236941780352538 29.061676025390568)"><path d="M-10.91 34.74 C-6.61 42.11, -5.05 49.5, -1.99 57.67 M-9.33 36.67 C-6.97 42.04, -5.53 47.92, -0.27 59.79" stroke="#1e1e1e" stroke-width="2" fill="none"></path></g><g transform="translate(517.8630305017949 1018.2917633056642) rotate(0 0.236941780352538 29.061676025390568)"><path d="M6.19 34.33 C5.76 41.96, 2.6 49.47, -1.99 57.67 M7.76 36.26 C5.94 41.7, 3.2 47.68, -0.27 59.79" stroke="#1e1e1e" stroke-width="2" fill="none"></path></g></g><mask></mask><g mask="url(#mask-U2EFcY5IoGQEV9-Rw0YpM)" stroke-linecap="round"><g transform="translate(459.6714795570547 155.27040814242196) rotate(0 -60.55049788487912 1.922829068563523)"><path d="M-2.8 2.11 C-28.95 2.55, -55.6 -3.01, -118.86 -0.09 M-0.36 0.85 C-25.23 0.79, -55.65 3.28, -122.23 3.51" stroke="#1e1e1e" stroke-width="2" fill="none"></path></g><g transform="translate(459.6714795570547 155.27040814242196) rotate(0 -60.55049788487912 1.922829068563523)"><path d="M-100.25 -4.3 C-104.93 -1.74, -109.81 -2.94, -121.11 1.54 M-99.03 -4.93 C-103.18 -3.57, -110.14 -0.78, -122.79 3.34" stroke="#1e1e1e" stroke-width="2" fill="none"></path></g><g transform="translate(459.6714795570547 155.27040814242196) rotate(0 -60.55049788487912 1.922829068563523)"><path d="M-100.02 12.8 C-104.6 11.47, -109.53 6.39, -121.11 1.54 M-98.8 12.17 C-103.14 9.74, -110.15 8.73, -122.79 3.34" stroke="#1e1e1e" stroke-width="2" fill="none"></path></g></g><mask id="mask-U2EFcY5IoGQEV9-Rw0YpM"><rect x="0" y="0" fill="#fff" width="680.7724753268129" height="259.116066279549"></rect><rect x="386.64898917949984" y="147.19323721098547" fill="#000" width="24.943984985351562" height="20" opacity="1"></rect></mask><g transform="translate(386.64898917949984 147.19323721098547) rotate(0 11.727782841771784 9.361404360643888)"><text x="12.471992492675781" y="0" font-family="Virgil, Segoe UI Emoji" font-size="16px" fill="#1e1e1e" text-anchor="middle" style="white-space: pre;" direction="ltr" dominant-baseline="text-before-edge">yes</text></g><g stroke-linecap="round"><g transform="translate(588.2634493250165 602.3596954345703) rotate(0 -39.25831157657075 78.71001871664481)"><path d="M-2.31 3.27 C-3.08 19.93, -0.95 38.8, 0.38 76.77 M1.25 -0.99 C-1.71 17.06, -1.94 38.99, -3.02 74.51 M-1.43 79.59 C-27.43 80.3, -54.95 75.84, -74.95 79.63 M-5.16 76.25 C-28.87 77.73, -53.31 80.35, -80.12 81.17 M-82.2 81.59 C-78.38 101.33, -74.91 109.79, -74.98 158.59 M-79.13 82.98 C-75.78 109.82, -75.23 134.82, -73.73 157.25" stroke="#1e1e1e" stroke-width="2" fill="none"></path></g><g transform="translate(588.2634493250165 602.3596954345703) rotate(0 -39.25831157657075 78.71001871664481)"><path d="M-84.76 135.92 C-82.35 140.37, -78.37 145.98, -71.82 157.51 M-82.98 133.79 C-81.53 139.01, -78.78 146.24, -73.53 156.38" stroke="#1e1e1e" stroke-width="2" fill="none"></path></g><g transform="translate(588.2634493250165 602.3596954345703) rotate(0 -39.25831157657075 78.71001871664481)"><path d="M-67.69 134.94 C-69.58 139.72, -69.9 145.57, -71.82 157.51 M-65.91 132.81 C-68.66 138.36, -70.12 145.84, -73.53 156.38" stroke="#1e1e1e" stroke-width="2" fill="none"></path></g></g><mask></mask><g stroke-linecap="round" transform="translate(154.383056640625 145.02851867675784) rotate(0 89.94583129882812 24.189834594726562)"><path d="M-1.54 1.04 L180.3 -0.81 L178.32 46.38 L-1.03 48.39" stroke="none" stroke-width="0" fill="#ebfbee"></path><path d="M-3.38 2.02 C35.02 4.64, 72.08 4.92, 181.87 -2.81 M-1.36 0.67 C45.31 -0.18, 93.85 -0.97, 181.72 1.29 M176.47 0.83 C181.67 10.91, 183.5 17.88, 176.77 46.4 M179.88 -1.47 C178.76 9.81, 180.87 21.43, 180.44 48.89 M182.28 50.95 C120.26 50.27, 53.82 49.55, 1.3 46.55 M181.83 47.3 C139.06 47.75, 95.64 48.43, -1.96 46.74 M3.45 50.3 C3.89 38.57, -1.02 23.74, -0.14 -1 M-1.8 47.5 C0.81 28.71, 0.01 11.24, -0.28 0.43" stroke="#1e1e1e" stroke-width="2" fill="none"></path></g><g transform="translate(180.32888793945312 159.2183532714844) rotate(0 64 10)"><text x="64" y="0" font-family="Virgil, Segoe UI Emoji" font-size="16px" fill="#1e1e1e" text-anchor="middle" style="white-space: pre;" direction="ltr" dominant-baseline="text-before-edge">判断缓存是否过期</text></g><g mask="url(#mask-UNnWTmegUuil1JI8b_3fn)" stroke-linecap="round"><g transform="translate(692.68505859375 369.9893493652344) rotate(0 83.94266241413317 196.68085479736328)"><path d="M2.13 0.43 C24.85 2.21, 52.09 0.95, 71.3 3.95 M1.83 -0.25 C23.89 1.28, 49.14 3.35, 68.38 2.31 M69.98 0.54 C73.92 113.19, 76.49 222, 76.44 389.86 M67.66 1.18 C73.29 86.28, 74.78 173.11, 75.97 390.13 M75.8 391.8 C104.48 392, 137.98 392.55, 168.94 392.76 M78.1 390.73 C112.3 390.85, 150.01 390.52, 167.31 391.68" stroke="#1e1e1e" stroke-width="2" fill="none"></path></g><g transform="translate(692.68505859375 369.9893493652344) rotate(0 83.94266241413317 196.68085479736328)"><path d="M144.61 399.64 C152.22 397.39, 162.01 393.64, 168.74 392.85 M144.46 399.3 C151.77 396.75, 160.68 394.74, 167.28 392.03" stroke="#1e1e1e" stroke-width="2" fill="none"></path></g><g transform="translate(692.68505859375 369.9893493652344) rotate(0 83.94266241413317 196.68085479736328)"><path d="M145.19 382.55 C152.45 386.56, 162.03 389.05, 168.74 392.85 M145.04 382.21 C152.15 385.73, 160.85 389.8, 167.28 392.03" stroke="#1e1e1e" stroke-width="2" fill="none"></path></g></g><mask id="mask-UNnWTmegUuil1JI8b_3fn"><rect x="0" y="0" fill="#fff" width="960.5703834220163" height="863.3510589599609"></rect><rect x="757.1860961914061" y="556.1494979858398" fill="#000" width="16.33599853515625" height="20" opacity="1"></rect></mask><g transform="translate(757.1860961914062 556.1494979858398) rotate(0 20.883143989339203 10.092699406668544)"><text x="8.167999267578125" y="0" font-family="Virgil, Segoe UI Emoji" font-size="16px" fill="#1e1e1e" text-anchor="middle" style="white-space: pre;" direction="ltr" dominant-baseline="text-before-edge">no</text></g></svg>