<svg version="1.1" xmlns="http://www.w3.org/2000/svg" viewBox="0 0 627.9983520507811 419.7510681152344" width="627.9983520507811" height="419.7510681152344">
  <!-- svg-source:excalidraw -->
  
  <defs>
    <style class="style-fonts">
      @font-face {
        font-family: "Virgil";
        src: url("https://excalidraw.com/Virgil.woff2");
      }
      @font-face {
        font-family: "Cascadia";
        src: url("https://excalidraw.com/Cascadia.woff2");
      }
      @font-face {
        font-family: "Assistant";
        src: url("https://excalidraw.com/Assistant-Regular.woff2");
      }
    </style>
    
  </defs>
  <g stroke-linecap="round" transform="translate(10 10) rotate(0 217.4098510742187 29.50128173828125)"><path d="M0.42 -2.82 L435.93 -3.56 L436.13 56.32 L-0.07 59.78" stroke="none" stroke-width="0" fill="#e03131"></path><path d="M-0.65 -1.19 C99.49 4.83, 198.71 2.68, 435.22 0.02 M-0.9 -0.3 C172.36 -2.81, 345.2 -2.95, 435.63 0.12 M437.66 -0.71 C435.1 18.83, 432.74 34.32, 434.17 55.54 M434.23 -0.1 C435.22 20.6, 434.88 44.95, 433.88 59.95 M432.84 60.47 C293.05 56.65, 147.74 55.71, 0.1 58.7 M435.39 58.57 C346.69 62.2, 258.68 61.42, -0.69 57.99 M-3 56.85 C-0.01 44.37, -0.79 31.01, 2.7 -3.17 M-0.29 57.72 C-1.83 41.33, 0.88 25.21, 0.02 0.33" stroke="#1e1e1e" stroke-width="2" fill="none"></path></g><g transform="translate(23.62890625 32.8209228515625) rotate(0 96.50395202636719 10)"><text x="0" y="0" font-family="Virgil, Segoe UI Emoji" font-size="16px" fill="#ffffff" text-anchor="start" style="white-space: pre;" direction="ltr" dominant-baseline="text-before-edge">应用层(Application Layer)</text></g><g stroke-linecap="round" transform="translate(37.83074951171898 87.18240356445312) rotate(0 217.4098510742187 29.50128173828125)"><path d="M3.64 -3.09 L435.65 0.76 L437.06 61.3 L2.59 59.3" stroke="none" stroke-width="0" fill="#40c057"></path><path d="M-0.44 1.91 C156.7 -2.1, 312.07 -2.55, 433.11 -0.63 M-0.05 -0.39 C113.63 -2.1, 225.08 -2.36, 435.74 -0.17 M438.27 -1.02 C435.63 14.41, 436.95 23.95, 436.41 60.12 M433.57 0.87 C434.8 18.95, 433.09 37.33, 435.62 58.17 M434.03 58.55 C341.96 58.26, 250.99 56.73, 0.58 58.98 M434.28 59.7 C261.61 56.11, 89.7 56.43, -0.53 58.37 M-2.79 61.95 C2.46 39.12, 1.96 22.11, -3.7 -0.52 M-0.58 59.76 C-2.33 44.7, -2.24 26.03, -1.03 1.56" stroke="#1e1e1e" stroke-width="2" fill="none"></path></g><g stroke-linecap="round"><g transform="translate(412.90081787109375 39.525238037109375) rotate(0 -0.342864990234375 34.28666687011719)"><path d="M-2.06 0.61 C-3.06 19.32, -4.04 36.44, -0.43 65.45 M0.55 0.86 C-1.53 24.87, 0.22 45.84, 0.42 70.51" stroke="#ced4da" stroke-width="2" fill="none"></path></g><g transform="translate(412.90081787109375 39.525238037109375) rotate(0 -0.342864990234375 34.28666687011719)"><path d="M-9.66 47.51 C-7.49 54.1, -5.67 59.96, 0.55 68.95 M-8.35 47.64 C-6.35 55.8, -2.22 62.47, 0.97 71.48" stroke="#ced4da" stroke-width="2" fill="none"></path></g><g transform="translate(412.90081787109375 39.525238037109375) rotate(0 -0.342864990234375 34.28666687011719)"><path d="M7.44 47.15 C5.4 53.94, 3.01 59.89, 0.55 68.95 M8.75 47.28 C4.8 55.61, 3 62.41, 0.97 71.48" stroke="#ced4da" stroke-width="2" fill="none"></path></g></g><mask></mask><g transform="translate(58.88232421875 104.01760864257812) rotate(0 95.34395599365234 10)"><text x="0" y="0" font-family="Virgil, Segoe UI Emoji" font-size="16px" fill="#ffffff" text-anchor="start" style="white-space: pre;" direction="ltr" dominant-baseline="text-before-edge">传输层(Transport Layer)</text></g><g stroke-linecap="round" transform="translate(79.79144287109375 169.08755493164062) rotate(0 211.8463134765625 29.147247314453125)"><path d="M3.7 -1.26 L419.84 0.49 L427.46 55.04 L1.65 55.35" stroke="none" stroke-width="0" fill="#9c36b5"></path><path d="M-0.36 -0.09 C85.4 -3.72, 171.13 -3.38, 421.96 -0.89 M-0.88 0.22 C100.59 4.34, 201.07 3.31, 424.25 0.65 M426.74 2.02 C420.03 20.79, 425.45 40.76, 423.9 57.69 M422.27 -0.87 C422.07 12.97, 425.06 29.75, 423.87 57.27 M424.65 58.42 C259.98 55.39, 94.86 58.35, -1.01 56.35 M422.8 57.47 C299.86 55.73, 178.56 57.67, -0.1 58.55 M-2.41 57.36 C-0.46 46.01, 3.55 36.74, 2.47 -3.23 M1.42 57.32 C-0.44 40.04, -0.73 21.33, -1.48 0.7" stroke="#1e1e1e" stroke-width="2" fill="none"></path></g><g stroke-linecap="round"><g transform="translate(450.3453986839228 125.59161504078656) rotate(0 -1.1551517345395155 34.28666687011719)"><path d="M2.6 2.59 C-0.56 7.21, 0.62 17.3, -1.22 33.94 M0.19 -0.36 C-2.68 11.99, -2.3 25.88, -0.73 32.49 M0.75 31.55 C-3.2 45.77, -5.07 62.57, -3.27 67.48 M-4.25 32.6 C-2.28 44.48, -2.67 57.21, 0.23 67.41" stroke="#ced4da" stroke-width="2" fill="none"></path></g><g transform="translate(450.3453986839228 125.59161504078656) rotate(0 -1.1551517345395155 34.28666687011719)"><path d="M-7.62 53.51 C-6.62 55.55, -3.79 60.05, 0.71 67.57 M-8.67 52.21 C-6.31 57.74, -2.52 63.94, 0.93 66.94" stroke="#ced4da" stroke-width="2" fill="none"></path></g><g transform="translate(450.3453986839228 125.59161504078656) rotate(0 -1.1551517345395155 34.28666687011719)"><path d="M4.16 51.25 C2.42 53.87, 2.54 58.89, 0.71 67.57 M3.1 49.96 C1.2 56.31, 0.72 63.33, 0.93 66.94" stroke="#ced4da" stroke-width="2" fill="none"></path></g></g><mask></mask><g transform="translate(104.8134765625 189.34848022460938) rotate(0 86.407958984375 10)"><text x="0" y="0" font-family="Virgil, Segoe UI Emoji" font-size="16px" fill="#ffffff" text-anchor="start" style="white-space: pre;" direction="ltr" dominant-baseline="text-before-edge">网络层(Network Layer)</text></g><g stroke-linecap="round" transform="translate(120.83123779296875 247.11630249023438) rotate(0 210.91519165039057 33.927490234375)"><path d="M1.83 1.8 L425.74 3.75 L422.03 68.77 L-2.55 68.43" stroke="none" stroke-width="0" fill="#4dabf7"></path><path d="M2.03 -0.05 C143.92 4.38, 290.68 5.77, 422.01 -1.48 M0.4 -0.65 C146.78 -1.89, 295.79 -1.24, 422.6 -0.18 M422.66 -0.34 C420.96 27.19, 422.82 46.93, 422.14 68.04 M421.77 -1.2 C424.5 21.03, 424.41 42.62, 423.36 69.31 M422.19 69.13 C307.92 64.18, 196.87 65.47, 0.46 68.16 M422.13 67.95 C256.58 65.91, 89.47 66.76, 0.93 68.25 M0.43 68.44 C2.69 42.99, 2.66 23.73, 0.19 -2.62 M1.61 69.82 C2.24 45.15, 0.29 28.18, 0.35 -1.93" stroke="#1e1e1e" stroke-width="2" fill="none"></path></g><g transform="translate(140.45147705078125 270.4975280761719) rotate(0 69.89598083496094 10)"><text x="0" y="0" font-family="Virgil, Segoe UI Emoji" font-size="16px" fill="#ffffff" text-anchor="start" style="white-space: pre;" direction="ltr" dominant-baseline="text-before-edge">链接层(Link Layer)</text></g><g stroke-linecap="round"><g transform="translate(491.4381396821152 200.13165505696088) rotate(0 -1.1551517345395155 34.28666687011719)"><path d="M-1.3 0.58 C-3 10.21, -1.54 17.71, -3.75 33.44 M-0.64 1.11 C-1.81 9.48, 0.05 17.06, -2.63 32.72 M0.08 32.19 C-4.65 46.93, 1.26 54.62, 0.81 67.37 M-2.43 32.82 C-3.13 43.54, -2.13 53.73, 1 70.47" stroke="#ced4da" stroke-width="2" fill="none"></path></g><g transform="translate(491.4381396821152 200.13165505696088) rotate(0 -1.1551517345395155 34.28666687011719)"><path d="M-8.19 55.47 C-5.94 59.83, -2.33 63.28, 0.38 70.41 M-7.9 55.7 C-6.02 59.49, -2.71 62.95, 0.86 70.1" stroke="#ced4da" stroke-width="2" fill="none"></path></g><g transform="translate(491.4381396821152 200.13165505696088) rotate(0 -1.1551517345395155 34.28666687011719)"><path d="M3.63 53.5 C2.23 58.49, 2.2 62.56, 0.38 70.41 M3.92 53.73 C2.76 58.05, 3.01 62.02, 0.86 70.1" stroke="#ced4da" stroke-width="2" fill="none"></path></g></g><mask></mask><g stroke-linecap="round" transform="translate(151.93875122070312 339.8998718261719) rotate(0 233.029800415039 34.92559814453125)"><path d="M-2.19 -1.86 L467.77 2.86 L462.28 67 L-1.39 68.01" stroke="none" stroke-width="0" fill="#fab005"></path><path d="M0.75 -0.17 C100.37 -1.28, 202.06 0.16, 464.86 1.74 M-0.33 0.07 C178.06 0.53, 355.89 0.14, 466.24 -0.9 M470 -2.66 C463.03 16.71, 464.58 39.38, 466.42 72.82 M467.58 -1.69 C466.23 20.45, 464.25 38.77, 467.16 71.6 M467.54 71 C357.19 68.76, 245.05 69.18, 0.06 68.1 M466.54 70.24 C336.41 66.48, 206.08 66.54, -0.77 70.27 M-0.07 68.84 C3.27 47.85, 1.98 30.05, 3.05 -1.12 M-0.54 69.26 C1.88 55.85, 1.32 38.93, -0.6 -0.97" stroke="#1e1e1e" stroke-width="2" fill="none"></path></g><g transform="translate(164.22418212890625 362.1552429199219) rotate(0 86.26396179199219 10)"><text x="0" y="0" font-family="Virgil, Segoe UI Emoji" font-size="16px" fill="#ffffff" text-anchor="start" style="white-space: pre;" direction="ltr" dominant-baseline="text-before-edge">实体层(Physical Layer)</text></g><g stroke-linecap="round"><g transform="translate(526.1271145692477 290.79828913975507) rotate(0 -1.1551517345395723 34.28666687011719)"><path d="M-3.03 -1.35 C-2.98 4.77, 2.19 17.64, -4.43 30.33 M-0.1 0.65 C-0.01 8.31, 1.06 16.63, -2.94 31.95 M-6.19 33.66 C-1.96 43.34, -4.21 49.03, 1.89 67.53 M-1.09 33.18 C-1.24 44.71, -2.92 56.69, -1.54 66.71" stroke="#ced4da" stroke-width="2" fill="none"></path></g><g transform="translate(526.1271145692477 290.79828913975507) rotate(0 -1.1551517345395723 34.28666687011719)"><path d="M-9.79 50.02 C-7.7 53.03, -3.42 59.02, -2.47 65.29 M-8.5 50.9 C-6.6 54.63, -4.23 58.61, -1.81 66" stroke="#ced4da" stroke-width="2" fill="none"></path></g><g transform="translate(526.1271145692477 290.79828913975507) rotate(0 -1.1551517345395723 34.28666687011719)"><path d="M2.18 49.34 C1.24 52.55, 2.49 58.71, -2.47 65.29 M3.46 50.22 C2.5 54.05, 1.99 58.2, -1.81 66" stroke="#ced4da" stroke-width="2" fill="none"></path></g></g><mask></mask></svg>