<svg version="1.1" xmlns="http://www.w3.org/2000/svg" viewBox="0 0 1335.6849746704102 603.2626647949219" width="1335.6849746704102" height="603.2626647949219">
  <!-- svg-source:excalidraw -->
  
  <defs>
    <style class="style-fonts">
      @font-face {
        font-family: "Virgil";
        src: url("https://excalidraw.com/Virgil.woff2");
      }
      @font-face {
        font-family: "Cascadia";
        src: url("https://excalidraw.com/Cascadia.woff2");
      }
      @font-face {
        font-family: "Assistant";
        src: url("https://excalidraw.com/Assistant-Regular.woff2");
      }
    </style>
    
  </defs>
  <g stroke-linecap="round" transform="translate(10 443.6282501220703) rotate(0 73.0434799194336 24.816879272460938)"><path d="M3.3 2.87 C3.3 2.87, 3.3 2.87, 3.3 2.87 M3.3 2.87 C3.3 2.87, 3.3 2.87, 3.3 2.87 M0.81 17.93 C4.14 13.12, 9.3 9.08, 16.56 -0.18 M0.81 17.93 C4.52 13.19, 8.24 8.99, 16.56 -0.18 M0.94 29.97 C7.51 21.86, 19.31 11.67, 27.19 -0.22 M0.94 29.97 C10.16 19.38, 18.73 9.95, 27.19 -0.22 M1.08 42.01 C11.73 28.14, 27.53 13.87, 37.16 0.5 M1.08 42.01 C13.75 28.59, 25.18 15.63, 37.16 0.5 M5.8 48.77 C16.14 37.18, 24.04 27.16, 47.79 0.47 M5.8 48.77 C19.35 31.92, 34.8 15.2, 47.79 0.47 M16.43 48.74 C28.76 35.33, 38.31 21.53, 58.42 0.43 M16.43 48.74 C26.72 37.51, 36.35 26.6, 58.42 0.43 M27.06 48.7 C39.18 37.72, 47.73 23.09, 69.05 0.4 M27.06 48.7 C38.06 35.23, 48.62 23.49, 69.05 0.4 M37.04 49.42 C55.6 28.71, 69.68 10.64, 79.68 0.37 M37.04 49.42 C46.04 38.3, 56.86 26.54, 79.68 0.37 M47.67 49.39 C57.23 37.57, 67.29 24, 90.31 0.33 M47.67 49.39 C62.35 33.67, 75.12 18.58, 90.31 0.33 M58.3 49.35 C74.01 30.85, 88.53 11.3, 100.94 0.3 M58.3 49.35 C68.88 37.31, 76.86 27.7, 100.94 0.3 M68.93 49.32 C86.57 33.1, 99.06 12.24, 111.57 0.26 M68.93 49.32 C79.97 37.53, 87.94 27.33, 111.57 0.26 M79.56 49.28 C92.84 36.41, 102.77 21.5, 121.55 0.98 M79.56 49.28 C91.72 35.74, 104.24 22.18, 121.55 0.98 M90.19 49.25 C101.38 39.56, 109.1 28.09, 132.18 0.95 M90.19 49.25 C103.03 33.89, 114.68 20.02, 132.18 0.95 M100.82 49.21 C111.43 38.72, 121.77 26.37, 141.49 2.42 M100.82 49.21 C111.59 36.47, 124.82 23.42, 141.49 2.42 M111.45 49.18 C124.3 33.1, 136.38 19.27, 146.22 9.18 M111.45 49.18 C122.78 35.71, 134.48 21.97, 146.22 9.18 M121.42 49.9 C125.28 43.11, 133.7 38.22, 145.7 21.98 M121.42 49.9 C127.58 42.57, 133.29 35.92, 145.7 21.98 M132.05 49.87 C136.64 47.39, 136.55 43.15, 145.17 34.77 M132.05 49.87 C136.77 44.56, 139.8 40.88, 145.17 34.77" stroke="#a5d8ff" stroke-width="1" fill="none"></path><path d="M12.41 0 C58.79 -0.3, 103.36 -1.59, 133.68 0 M12.41 0 C43.91 0.32, 74.5 0.31, 133.68 0 M133.68 0 C142.2 0.62, 146.96 2.67, 146.09 12.41 M133.68 0 C141.93 -0.11, 144.08 6.17, 146.09 12.41 M146.09 12.41 C146.56 21.28, 144.05 32.59, 146.09 37.23 M146.09 12.41 C146.5 20.15, 145.59 26.21, 146.09 37.23 M146.09 37.23 C147.14 45.25, 143.03 49.51, 133.68 49.63 M146.09 37.23 C148.14 44.4, 141.86 48.7, 133.68 49.63 M133.68 49.63 C100.39 48.73, 71.21 49.28, 12.41 49.63 M133.68 49.63 C101.76 50.72, 70.08 49.37, 12.41 49.63 M12.41 49.63 C4.39 47.7, 1.84 45.62, 0 37.23 M12.41 49.63 C3.08 51.57, 0 47.11, 0 37.23 M0 37.23 C-0.35 28.89, -1.73 24.58, 0 12.41 M0 37.23 C-1.02 26.76, -0.82 17.88, 0 12.41 M0 12.41 C-1.72 6.12, 5.57 -0.93, 12.41 0 M0 12.41 C1.22 5.22, 6 0.88, 12.41 0" stroke="#1e1e1e" stroke-width="2" fill="none"></path></g><g transform="translate(52.980979919433594 458.84512939453134) rotate(0 30.0625 9.600000000000023)"><text x="30.0625" y="0" font-family="Cascadia, Segoe UI Emoji" font-size="16px" fill="#1e1e1e" text-anchor="middle" style="white-space: pre;" direction="ltr" dominant-baseline="text-before-edge">获取DOM</text></g><g stroke-linecap="round" transform="translate(242.37017059326172 441.119873046875) rotate(0 73.0434799194336 24.816879272460938)"><path d="M3.3 2.87 C3.3 2.87, 3.3 2.87, 3.3 2.87 M3.3 2.87 C3.3 2.87, 3.3 2.87, 3.3 2.87 M0.81 17.93 C3.85 10.21, 10.59 4.5, 16.56 -0.18 M0.81 17.93 C3.13 14.76, 6.61 9.93, 16.56 -0.18 M0.94 29.97 C6.34 21.66, 13.91 13.38, 27.19 -0.22 M0.94 29.97 C8.52 21.58, 15.11 14.43, 27.19 -0.22 M1.08 42.01 C9.95 30.06, 18.32 21.79, 37.16 0.5 M1.08 42.01 C10.13 30.43, 21.05 19.72, 37.16 0.5 M5.8 48.77 C17.23 35.3, 29.62 22.57, 47.79 0.47 M5.8 48.77 C17.06 36.15, 30.89 20.56, 47.79 0.47 M16.43 48.74 C32.98 30.25, 49.23 10.08, 58.42 0.43 M16.43 48.74 C24.77 38.9, 35.1 28.69, 58.42 0.43 M27.06 48.7 C44.01 32.26, 59 9.95, 69.05 0.4 M27.06 48.7 C34.87 39.05, 44.17 28.67, 69.05 0.4 M37.04 49.42 C47.08 36.18, 61.43 23.77, 79.68 0.37 M37.04 49.42 C48.01 37.59, 57.56 25.59, 79.68 0.37 M47.67 49.39 C56.83 37.22, 70.37 22.29, 90.31 0.33 M47.67 49.39 C62.9 31.2, 78.85 12.41, 90.31 0.33 M58.3 49.35 C72.25 32.81, 88.5 13.98, 100.94 0.3 M58.3 49.35 C67.08 40.69, 74.81 28.91, 100.94 0.3 M68.93 49.32 C76.31 39.31, 87.88 30.11, 111.57 0.26 M68.93 49.32 C77.94 38.45, 87.7 27.92, 111.57 0.26 M79.56 49.28 C90.41 38.88, 101.71 23.23, 121.55 0.98 M79.56 49.28 C90.4 36.3, 101.76 23.79, 121.55 0.98 M90.19 49.25 C100.7 38.71, 110.02 23.81, 132.18 0.95 M90.19 49.25 C107.44 31.05, 123.15 11.08, 132.18 0.95 M100.82 49.21 C113.25 35.57, 122.34 23.74, 141.49 2.42 M100.82 49.21 C110.52 38.38, 118.38 28.67, 141.49 2.42 M111.45 49.18 C120.71 38.39, 134.05 23.57, 146.22 9.18 M111.45 49.18 C124.64 34.29, 138.16 19.58, 146.22 9.18 M121.42 49.9 C125.36 44.56, 131.21 37.93, 145.7 21.98 M121.42 49.9 C127.43 43.01, 133.39 37.12, 145.7 21.98 M132.05 49.87 C135.38 43.76, 140.33 40.67, 145.17 34.77 M132.05 49.87 C134.82 45.15, 139.15 41.36, 145.17 34.77" stroke="#a5d8ff" stroke-width="1" fill="none"></path><path d="M12.41 0 C55.46 -0.08, 96.78 -0.5, 133.68 0 M12.41 0 C48.94 1.85, 85.04 1.66, 133.68 0 M133.68 0 C140.12 -0.66, 145.68 2.77, 146.09 12.41 M133.68 0 C140.56 -0.43, 146.94 2.18, 146.09 12.41 M146.09 12.41 C144.4 21.68, 144.74 31.85, 146.09 37.23 M146.09 12.41 C146.19 22.23, 145.31 30.47, 146.09 37.23 M146.09 37.23 C147.02 46.1, 141.24 49.72, 133.68 49.63 M146.09 37.23 C145.76 43.77, 141.7 49.87, 133.68 49.63 M133.68 49.63 C87.55 48.68, 40.31 50.27, 12.41 49.63 M133.68 49.63 C88.03 49.13, 43.31 49.58, 12.41 49.63 M12.41 49.63 C5.56 48.2, 1.58 46, 0 37.23 M12.41 49.63 C2.27 51.91, 1.34 45, 0 37.23 M0 37.23 C-0.19 29.14, -1.3 23.02, 0 12.41 M0 37.23 C-0.88 28.36, -0.04 20.23, 0 12.41 M0 12.41 C0.28 5.29, 5.58 0.69, 12.41 0 M0 12.41 C1.35 3.78, 6.16 0.86, 12.41 0" stroke="#1e1e1e" stroke-width="2" fill="none"></path></g><g transform="translate(275.4136505126953 456.33675231933603) rotate(0 40 9.600000000000023)"><text x="40" y="0" font-family="Cascadia, Segoe UI Emoji" font-size="16px" fill="#1e1e1e" text-anchor="middle" style="white-space: pre;" direction="ltr" dominant-baseline="text-before-edge">遍历子元素</text></g><g stroke-linecap="round"><g transform="translate(159.63807678222656 468.44681102364825) rotate(0 40.86604690551758 -0.9628403017270557)"><path d="M0.25 -0.09 C13.79 -0.31, 67.34 -1.52, 81.09 -1.77 M-1.08 -1.19 C12.87 -1.15, 69.53 0.28, 83.46 -0.15" stroke="#1e1e1e" stroke-width="2" fill="none"></path></g><g transform="translate(159.63807678222656 468.44681102364825) rotate(0 40.86604690551758 -0.9628403017270557)"><path d="M59.95 8.37 C66.56 4.81, 73.71 5.07, 83.46 -0.15 M59.95 8.37 C66.65 5.01, 74.57 3.49, 83.46 -0.15" stroke="#1e1e1e" stroke-width="2" fill="none"></path></g><g transform="translate(159.63807678222656 468.44681102364825) rotate(0 40.86604690551758 -0.9628403017270557)"><path d="M59.98 -8.73 C66.51 -7.4, 73.65 -2.24, 83.46 -0.15 M59.98 -8.73 C66.82 -6.46, 74.73 -2.35, 83.46 -0.15" stroke="#1e1e1e" stroke-width="2" fill="none"></path></g></g><mask></mask><g stroke-linecap="round" transform="translate(450.7407760620117 351.0341796875) rotate(0 73.0434799194336 24.816879272460938)"><path d="M3.3 2.87 C3.3 2.87, 3.3 2.87, 3.3 2.87 M3.3 2.87 C3.3 2.87, 3.3 2.87, 3.3 2.87 M0.81 17.93 C3.78 13.57, 7.59 10, 16.56 -0.18 M0.81 17.93 C4.55 14.32, 7.94 9.48, 16.56 -0.18 M0.94 29.97 C8.19 23.02, 11.63 18.86, 27.19 -0.22 M0.94 29.97 C10.21 19.27, 18.85 11.01, 27.19 -0.22 M1.08 42.01 C12.59 30.04, 25.32 15.76, 37.16 0.5 M1.08 42.01 C11.94 29.56, 23.88 16.44, 37.16 0.5 M5.8 48.77 C15.98 36.71, 31.55 22.92, 47.79 0.47 M5.8 48.77 C17.89 36.12, 28.29 23.28, 47.79 0.47 M16.43 48.74 C30.69 30.81, 45.73 17.96, 58.42 0.43 M16.43 48.74 C26.58 38.56, 36.6 27.51, 58.42 0.43 M27.06 48.7 C42.99 30.74, 60 10.44, 69.05 0.4 M27.06 48.7 C43.1 30.21, 60.07 11.52, 69.05 0.4 M37.04 49.42 C49.58 36.11, 60.93 22.9, 79.68 0.37 M37.04 49.42 C46.04 37.75, 54.69 27.29, 79.68 0.37 M47.67 49.39 C59.59 37.2, 72.03 20.34, 90.31 0.33 M47.67 49.39 C64.43 30.52, 79.9 13.37, 90.31 0.33 M58.3 49.35 C73.55 32.41, 90.6 14.63, 100.94 0.3 M58.3 49.35 C73.34 31.88, 88.62 14.84, 100.94 0.3 M68.93 49.32 C85.77 30.04, 104.27 10.31, 111.57 0.26 M68.93 49.32 C78.08 37.15, 89.51 26, 111.57 0.26 M79.56 49.28 C88.35 40.35, 97.51 26.11, 121.55 0.98 M79.56 49.28 C93.3 33.98, 105.77 19.41, 121.55 0.98 M90.19 49.25 C107.61 30.21, 120.81 12.13, 132.18 0.95 M90.19 49.25 C99.86 37.33, 109.32 26.99, 132.18 0.95 M100.82 49.21 C111.79 34.01, 123.21 23.63, 141.49 2.42 M100.82 49.21 C110.89 37.89, 120.9 24.62, 141.49 2.42 M111.45 49.18 C122.05 35.77, 134.54 22.45, 146.22 9.18 M111.45 49.18 C123.92 34.71, 136.76 19.78, 146.22 9.18 M121.42 49.9 C127.51 42.98, 137.71 31.29, 145.7 21.98 M121.42 49.9 C129.83 41.04, 136.15 31.95, 145.7 21.98 M132.05 49.87 C136.25 45.33, 141.35 37.48, 145.17 34.77 M132.05 49.87 C135.64 46.95, 137 43.11, 145.17 34.77" stroke="#a5d8ff" stroke-width="1" fill="none"></path><path d="M12.41 0 C38.84 0.95, 63.72 0.3, 133.68 0 M12.41 0 C45.63 -0.11, 76.54 0.09, 133.68 0 M133.68 0 C143.33 1.81, 147.82 5.75, 146.09 12.41 M133.68 0 C143.09 1.32, 148.15 4.2, 146.09 12.41 M146.09 12.41 C147.56 21.84, 147.19 27.88, 146.09 37.23 M146.09 12.41 C146.37 20.3, 146.09 29.81, 146.09 37.23 M146.09 37.23 C147.05 46.42, 140.13 48.14, 133.68 49.63 M146.09 37.23 C147.88 45.33, 141.13 48.55, 133.68 49.63 M133.68 49.63 C91.43 49.6, 48.14 51.91, 12.41 49.63 M133.68 49.63 C99.45 48.07, 67.88 48.55, 12.41 49.63 M12.41 49.63 C3.68 50.65, 0.72 46.49, 0 37.23 M12.41 49.63 C6.35 50.59, -2.25 44.24, 0 37.23 M0 37.23 C-1.56 29.74, -1.08 26.92, 0 12.41 M0 37.23 C-0.55 31.62, -0.16 27.74, 0 12.41 M0 12.41 C1.59 3.85, 5.75 1.14, 12.41 0 M0 12.41 C1.37 4.76, 5.38 0.42, 12.41 0" stroke="#1e1e1e" stroke-width="2" fill="none"></path></g><g transform="translate(491.7842559814453 366.25105895996103) rotate(0 32 9.600000000000023)"><text x="32" y="0" font-family="Cascadia, Segoe UI Emoji" font-size="16px" fill="#1e1e1e" text-anchor="middle" style="white-space: pre;" direction="ltr" dominant-baseline="text-before-edge">编译节点</text></g><g stroke-linecap="round" transform="translate(447.1240768432617 534.835205078125) rotate(0 73.0434799194336 24.816879272460938)"><path d="M3.3 2.87 C3.3 2.87, 3.3 2.87, 3.3 2.87 M3.3 2.87 C3.3 2.87, 3.3 2.87, 3.3 2.87 M0.81 17.93 C4.46 14.99, 7.6 9.51, 16.56 -0.18 M0.81 17.93 C5 13.8, 7.3 11.07, 16.56 -0.18 M0.94 29.97 C10.55 18.45, 19.09 12.01, 27.19 -0.22 M0.94 29.97 C9.31 21.05, 18.24 10.96, 27.19 -0.22 M1.08 42.01 C11.87 29.68, 24.68 16.19, 37.16 0.5 M1.08 42.01 C10.54 31.11, 22.61 19.28, 37.16 0.5 M5.8 48.77 C18.62 36.35, 27.89 23.93, 47.79 0.47 M5.8 48.77 C20 31.79, 34.47 17.36, 47.79 0.47 M16.43 48.74 C27.19 39.26, 37.47 28.39, 58.42 0.43 M16.43 48.74 C32.33 30.53, 48.72 11.31, 58.42 0.43 M27.06 48.7 C42.55 30.77, 60.08 12.29, 69.05 0.4 M27.06 48.7 C38.84 35.79, 50 22.89, 69.05 0.4 M37.04 49.42 C46.21 36.82, 54.27 26.51, 79.68 0.37 M37.04 49.42 C49.26 36.37, 61.55 20.96, 79.68 0.37 M47.67 49.39 C65.25 29.63, 80.39 13.54, 90.31 0.33 M47.67 49.39 C62.94 32.06, 79.26 14.21, 90.31 0.33 M58.3 49.35 C73.08 31.55, 88.65 14.73, 100.94 0.3 M58.3 49.35 C74.99 29.91, 92.67 10.35, 100.94 0.3 M68.93 49.32 C77.66 36.28, 90.51 25.5, 111.57 0.26 M68.93 49.32 C78.46 39.25, 87.93 26.51, 111.57 0.26 M79.56 49.28 C93.71 33.78, 105.54 19.73, 121.55 0.98 M79.56 49.28 C96.1 30.63, 110.76 12.31, 121.55 0.98 M90.19 49.25 C99.72 36.54, 108.73 27.24, 132.18 0.95 M90.19 49.25 C101.58 34.52, 113.37 22.34, 132.18 0.95 M100.82 49.21 C111.04 38.47, 120.65 23.88, 141.49 2.42 M100.82 49.21 C113.62 34.05, 127.32 18.82, 141.49 2.42 M111.45 49.18 C124.14 34.94, 137.28 19.5, 146.22 9.18 M111.45 49.18 C121.3 37.9, 133.37 24.04, 146.22 9.18 M121.42 49.9 C130.69 41, 135.53 31.79, 145.7 21.98 M121.42 49.9 C129.82 40.28, 138.81 28.94, 145.7 21.98 M132.05 49.87 C136.34 47.41, 136.06 43.17, 145.17 34.77 M132.05 49.87 C135.8 44.25, 139.66 40.59, 145.17 34.77" stroke="#a5d8ff" stroke-width="1" fill="none"></path><path d="M12.41 0 C46.38 0.62, 75.71 1.03, 133.68 0 M12.41 0 C57.95 -0.56, 102.44 -0.16, 133.68 0 M133.68 0 C142.01 0.62, 146.18 2.53, 146.09 12.41 M133.68 0 C143.63 1.4, 147.34 3.04, 146.09 12.41 M146.09 12.41 C146.85 19.56, 146.29 29.93, 146.09 37.23 M146.09 12.41 C145.46 21.83, 146.13 29.34, 146.09 37.23 M146.09 37.23 C145.14 46.39, 143.73 51.59, 133.68 49.63 M146.09 37.23 C145.57 44.1, 139.72 50.88, 133.68 49.63 M133.68 49.63 C98.55 47.2, 68.75 48.16, 12.41 49.63 M133.68 49.63 C100.58 51.03, 66.91 49.09, 12.41 49.63 M12.41 49.63 C3.04 48.51, 0.58 45.32, 0 37.23 M12.41 49.63 C2.43 47.99, -1.16 47.56, 0 37.23 M0 37.23 C-0.87 31.25, -0.1 28.7, 0 12.41 M0 37.23 C0.61 28.4, 0.3 18.93, 0 12.41 M0 12.41 C0.37 4.68, 3.63 1.98, 12.41 0 M0 12.41 C-0.51 6.06, 5.53 -1.82, 12.41 0" stroke="#1e1e1e" stroke-width="2" fill="none"></path></g><g transform="translate(488.1675567626953 550.052084350586) rotate(0 32 9.600000000000023)"><text x="32" y="0" font-family="Cascadia, Segoe UI Emoji" font-size="16px" fill="#1e1e1e" text-anchor="middle" style="white-space: pre;" direction="ltr" dominant-baseline="text-before-edge">编译文本</text></g><g stroke-linecap="round"><g transform="translate(331.4419708251953 440.8611297607422) rotate(0 56.902862548828125 -27.910476684570312)"><path d="M0 0 C16.32 -12.44, 34.64 -26.95, 67.98 -55.82 M0 0 C24.4 -19.17, 49.73 -40.7, 67.98 -55.82 M67.98 -55.82 C80.99 -56.11, 94.89 -53.41, 113.81 -55.05 M67.98 -55.82 C79.96 -56.1, 90.88 -55.02, 113.81 -55.05" stroke="#1e1e1e" stroke-width="2" fill="none"></path></g><g transform="translate(331.4419708251953 440.8611297607422) rotate(0 56.902862548828125 -27.910476684570312)"><path d="M92.18 -47.46 C96.18 -47.69, 102.63 -49.85, 113.81 -55.05 M92.18 -47.46 C100.2 -49.38, 108.71 -53.4, 113.81 -55.05" stroke="#1e1e1e" stroke-width="2" fill="none"></path></g><g transform="translate(331.4419708251953 440.8611297607422) rotate(0 56.902862548828125 -27.910476684570312)"><path d="M92.36 -63.14 C96.17 -59.35, 102.57 -57.5, 113.81 -55.05 M92.36 -63.14 C100.47 -59.36, 108.91 -57.7, 113.81 -55.05" stroke="#1e1e1e" stroke-width="2" fill="none"></path></g></g><mask></mask><g stroke-linecap="round"><g transform="translate(320.2979278564453 492.3189239501953) rotate(0 62.495849609375 34.2905890644289)"><path d="M0 0 C19.94 16.75, 43.01 33.36, 79.91 67.66 M0 0 C18.64 18.16, 39.08 33.47, 79.91 67.66 M79.91 67.66 C94.99 68.96, 112.68 68.49, 124.99 68.58 M79.91 67.66 C92.17 69.02, 103.01 67.94, 124.99 68.58" stroke="#1e1e1e" stroke-width="2" fill="none"></path></g><g transform="translate(320.2979278564453 492.3189239501953) rotate(0 62.495849609375 34.2905890644289)"><path d="M103.71 76.02 C108.56 73.09, 116.53 70.36, 124.99 68.58 M103.71 76.02 C108.32 75.07, 114.06 71.56, 124.99 68.58" stroke="#1e1e1e" stroke-width="2" fill="none"></path></g><g transform="translate(320.2979278564453 492.3189239501953) rotate(0 62.495849609375 34.2905890644289)"><path d="M103.91 60.59 C108.71 61.64, 116.63 62.88, 124.99 68.58 M103.91 60.59 C108.33 63.52, 114.02 63.87, 124.99 68.58" stroke="#1e1e1e" stroke-width="2" fill="none"></path></g></g><mask></mask><g stroke-linecap="round" transform="translate(633.1414108276367 349.74859619140625) rotate(0 73.0434799194336 24.816879272460938)"><path d="M3.3 2.87 C3.3 2.87, 3.3 2.87, 3.3 2.87 M3.3 2.87 C3.3 2.87, 3.3 2.87, 3.3 2.87 M0.81 17.93 C5.02 12.49, 9.28 8.4, 16.56 -0.18 M0.81 17.93 C5.94 11.03, 11.26 6.84, 16.56 -0.18 M0.94 29.97 C9.21 22.09, 13.36 13.3, 27.19 -0.22 M0.94 29.97 C10.4 18.21, 19.36 8.08, 27.19 -0.22 M1.08 42.01 C15.29 25.2, 28.6 10.09, 37.16 0.5 M1.08 42.01 C14.29 26.52, 28.39 10.88, 37.16 0.5 M5.8 48.77 C20.19 27.78, 37.99 11.25, 47.79 0.47 M5.8 48.77 C15.61 37.53, 24.33 26.74, 47.79 0.47 M16.43 48.74 C26.16 38.69, 37.42 25.62, 58.42 0.43 M16.43 48.74 C32.95 30.13, 49.15 10.98, 58.42 0.43 M27.06 48.7 C37.34 38.67, 43.69 28.8, 69.05 0.4 M27.06 48.7 C35.86 37.73, 45.06 25.82, 69.05 0.4 M37.04 49.42 C54.71 29.53, 69.71 12.57, 79.68 0.37 M37.04 49.42 C53.37 28.88, 70.2 9.99, 79.68 0.37 M47.67 49.39 C60.05 36.31, 72.24 17.99, 90.31 0.33 M47.67 49.39 C55.68 38.85, 65.52 29.31, 90.31 0.33 M58.3 49.35 C66.51 37.72, 74.72 28.2, 100.94 0.3 M58.3 49.35 C74.34 30.47, 91.92 11.18, 100.94 0.3 M68.93 49.32 C83.69 30.58, 101.15 9.68, 111.57 0.26 M68.93 49.32 C84.61 28.96, 102.6 10.08, 111.57 0.26 M79.56 49.28 C90.67 37.77, 102.72 23.44, 121.55 0.98 M79.56 49.28 C89.85 37.61, 99.34 26.36, 121.55 0.98 M90.19 49.25 C100.65 40.05, 107.45 28.65, 132.18 0.95 M90.19 49.25 C107.25 30.03, 124.16 10.53, 132.18 0.95 M100.82 49.21 C108.61 41.23, 118.35 30.1, 141.49 2.42 M100.82 49.21 C110.14 38.4, 117.85 30.08, 141.49 2.42 M111.45 49.18 C120.25 40.21, 131.64 25.64, 146.22 9.18 M111.45 49.18 C118.96 40.47, 126.08 32.14, 146.22 9.18 M121.42 49.9 C129.82 41.23, 135.9 36.88, 145.7 21.98 M121.42 49.9 C128.58 41.28, 135.81 34.06, 145.7 21.98 M132.05 49.87 C134.14 45.46, 140.77 43.04, 145.17 34.77 M132.05 49.87 C135.94 44.96, 138.78 42.61, 145.17 34.77" stroke="#a5d8ff" stroke-width="1" fill="none"></path><path d="M12.41 0 C58.37 1.27, 100.87 -1.47, 133.68 0 M12.41 0 C45.08 -0.68, 77.25 -0.76, 133.68 0 M133.68 0 C142.31 -0.25, 145.7 3.18, 146.09 12.41 M133.68 0 C143.38 1.41, 145.57 2.57, 146.09 12.41 M146.09 12.41 C145.48 18.38, 146.51 21.43, 146.09 37.23 M146.09 12.41 C145.41 18.18, 145.89 26.77, 146.09 37.23 M146.09 37.23 C147.92 44.47, 142.55 48.33, 133.68 49.63 M146.09 37.23 C148.29 44.12, 140.04 51.83, 133.68 49.63 M133.68 49.63 C99.13 48.17, 67.56 51.09, 12.41 49.63 M133.68 49.63 C103.67 49.11, 73.1 50.35, 12.41 49.63 M12.41 49.63 C3.84 48.31, -0.27 45.17, 0 37.23 M12.41 49.63 C2.39 51.24, -1.62 47.7, 0 37.23 M0 37.23 C0.03 30.13, 0.38 20.47, 0 12.41 M0 37.23 C0.49 29.63, -0.1 20.91, 0 12.41 M0 12.41 C-1.44 4.4, 5.48 1.92, 12.41 0 M0 12.41 C-1.19 2.46, 6.39 -1.34, 12.41 0" stroke="#1e1e1e" stroke-width="2" fill="none"></path></g><g transform="translate(674.1848907470703 364.9654754638673) rotate(0 32 9.600000000000023)"><text x="32" y="0" font-family="Cascadia, Segoe UI Emoji" font-size="16px" fill="#1e1e1e" text-anchor="middle" style="white-space: pre;" direction="ltr" dominant-baseline="text-before-edge">编译节点</text></g><g stroke-linecap="round"><g transform="translate(600.1363677978516 374.0613555908203) rotate(0 19.200439453125 0.114288330078125)"><path d="M0 0 C10.85 0.75, 19.8 -0.31, 38.4 0.23 M0 0 C7.97 -0.01, 16.35 0.04, 38.4 0.23" stroke="#1e1e1e" stroke-width="2" fill="none"></path></g><g transform="translate(600.1363677978516 374.0613555908203) rotate(0 19.200439453125 0.114288330078125)"><path d="M20.31 6.65 C25.91 5.73, 29.69 3.02, 38.4 0.23 M20.31 6.65 C24.07 5.24, 28.22 3.91, 38.4 0.23" stroke="#1e1e1e" stroke-width="2" fill="none"></path></g><g transform="translate(600.1363677978516 374.0613555908203) rotate(0 19.200439453125 0.114288330078125)"><path d="M20.41 -6.48 C25.97 -4.03, 29.72 -3.38, 38.4 0.23 M20.41 -6.48 C24.12 -5.16, 28.25 -3.77, 38.4 0.23" stroke="#1e1e1e" stroke-width="2" fill="none"></path></g></g><mask></mask><g stroke-linecap="round" transform="translate(852.855583190918 123.631591796875) rotate(0 73.0434799194336 24.816879272460938)"><path d="M3.3 2.87 C3.3 2.87, 3.3 2.87, 3.3 2.87 M3.3 2.87 C3.3 2.87, 3.3 2.87, 3.3 2.87 M0.81 17.93 C5.07 15.22, 7.71 8.64, 16.56 -0.18 M0.81 17.93 C5.36 14.05, 10.04 8.81, 16.56 -0.18 M0.94 29.97 C7.17 24.22, 12 13.94, 27.19 -0.22 M0.94 29.97 C9.9 18.25, 20.56 6.8, 27.19 -0.22 M1.08 42.01 C13.22 27.28, 26.75 12.68, 37.16 0.5 M1.08 42.01 C7.71 33.01, 16.34 23.2, 37.16 0.5 M5.8 48.77 C15.9 38.77, 22.37 27.37, 47.79 0.47 M5.8 48.77 C20.09 31.36, 36.28 11.75, 47.79 0.47 M16.43 48.74 C27.77 33.79, 39.74 22.49, 58.42 0.43 M16.43 48.74 C29.39 32.98, 43.02 17.21, 58.42 0.43 M27.06 48.7 C42.03 32.15, 58.4 14.46, 69.05 0.4 M27.06 48.7 C38.63 34.24, 51.97 19.89, 69.05 0.4 M37.04 49.42 C44.65 37.9, 55.29 28.29, 79.68 0.37 M37.04 49.42 C51.49 32.22, 66.67 16.08, 79.68 0.37 M47.67 49.39 C58.88 39.21, 67.57 27.44, 90.31 0.33 M47.67 49.39 C64.54 31.68, 78.77 13.08, 90.31 0.33 M58.3 49.35 C68.73 37.98, 82.15 24.63, 100.94 0.3 M58.3 49.35 C68.28 38.68, 75.91 29.11, 100.94 0.3 M68.93 49.32 C81.79 32.52, 95.18 19.23, 111.57 0.26 M68.93 49.32 C81.66 33.93, 94.39 18.77, 111.57 0.26 M79.56 49.28 C87.39 38.6, 96.94 29.88, 121.55 0.98 M79.56 49.28 C93.62 33.08, 108.7 17.55, 121.55 0.98 M90.19 49.25 C104.44 32.05, 117.74 18.14, 132.18 0.95 M90.19 49.25 C103.67 34.94, 115.05 20.58, 132.18 0.95 M100.82 49.21 C109.74 38.89, 119.51 28.32, 141.49 2.42 M100.82 49.21 C115.41 32.92, 130.05 15.64, 141.49 2.42 M111.45 49.18 C121.79 38.97, 130.67 26.11, 146.22 9.18 M111.45 49.18 C121.54 38.37, 131.11 26.85, 146.22 9.18 M121.42 49.9 C127.97 41.04, 139.42 30.87, 145.7 21.98 M121.42 49.9 C130.95 39.14, 139.48 29.56, 145.7 21.98 M132.05 49.87 C135.16 47.07, 138.51 42.7, 145.17 34.77 M132.05 49.87 C134.68 46.32, 137.77 43.55, 145.17 34.77" stroke="#a5d8ff" stroke-width="1" fill="none"></path><path d="M12.41 0 C60.06 -0.37, 106.82 -1.06, 133.68 0 M12.41 0 C54.28 0.36, 94.81 0.21, 133.68 0 M133.68 0 C143.67 1.28, 145.43 4.3, 146.09 12.41 M133.68 0 C141.16 0.9, 143.98 3.51, 146.09 12.41 M146.09 12.41 C147.91 23.12, 147.59 32.23, 146.09 37.23 M146.09 12.41 C145.6 18.3, 146.86 23.38, 146.09 37.23 M146.09 37.23 C146.02 44.33, 140.7 48.7, 133.68 49.63 M146.09 37.23 C147.8 47.64, 143.66 48.84, 133.68 49.63 M133.68 49.63 C93.73 51.89, 54.47 48.63, 12.41 49.63 M133.68 49.63 C87.09 49.65, 42.15 48.65, 12.41 49.63 M12.41 49.63 C3.79 51.24, -1.45 44.65, 0 37.23 M12.41 49.63 C2.37 48.98, 1.5 44.9, 0 37.23 M0 37.23 C-1.64 30.37, 0.11 23.13, 0 12.41 M0 37.23 C0.57 29.98, -0.44 24.8, 0 12.41 M0 12.41 C-1.46 4.84, 2.78 -0.44, 12.41 0 M0 12.41 C0.36 3.8, 3.95 -1.9, 12.41 0" stroke="#1e1e1e" stroke-width="2" fill="none"></path></g><g transform="translate(900.5240631103516 138.84847106933591) rotate(0 25.375 9.600000000000023)"><text x="25.375" y="0" font-family="Cascadia, Segoe UI Emoji" font-size="16px" fill="#1e1e1e" text-anchor="middle" style="white-space: pre;" direction="ltr" dominant-baseline="text-before-edge">k-开头</text></g><g stroke-linecap="round" transform="translate(852.2841110229492 540.6342163085938) rotate(0 73.0434799194336 24.816879272460938)"><path d="M3.3 2.87 C3.3 2.87, 3.3 2.87, 3.3 2.87 M3.3 2.87 C3.3 2.87, 3.3 2.87, 3.3 2.87 M4.75 13.4 C7.77 11.79, 11.12 8.16, 14.59 2.08 M4.75 13.4 C7.08 11.25, 8.89 7.39, 14.59 2.08 M4.88 25.44 C11.01 15.85, 20.42 6.66, 25.22 2.05 M4.88 25.44 C11.79 17.12, 19.4 8.86, 25.22 2.05 M1.73 41.26 C7.02 32.89, 16.08 22.7, 35.85 2.01 M1.73 41.26 C9.35 33.09, 15.23 24.34, 35.85 2.01 M5.8 48.77 C18.68 32.6, 34.97 11.89, 46.48 1.98 M5.8 48.77 C16.85 34.93, 28.39 22.89, 46.48 1.98 M12.5 53.26 C25.76 36.3, 40.06 19.64, 57.11 1.94 M12.5 53.26 C28.42 35.47, 44.89 17.1, 57.11 1.94 M23.13 53.23 C34.53 38.62, 49.04 23.9, 67.08 2.66 M23.13 53.23 C31.3 42.14, 41.24 32.02, 67.08 2.66 M33.1 53.95 C47.95 35.86, 64.08 19.95, 77.71 2.63 M33.1 53.95 C43.93 42.49, 53.76 30.29, 77.71 2.63 M43.73 53.92 C62.12 35.81, 75.67 15.76, 88.34 2.6 M43.73 53.92 C55.33 41.01, 68.43 26.99, 88.34 2.6 M54.36 53.88 C65.26 42.37, 71.91 33.13, 98.97 2.56 M54.36 53.88 C68.16 36.84, 82.47 21.44, 98.97 2.56 M64.99 53.85 C77.67 37.71, 90.75 21.64, 109.6 2.53 M64.99 53.85 C73.84 42.39, 83.75 32.12, 109.6 2.53 M75.62 53.81 C90.32 36.51, 107.04 20.94, 120.23 2.49 M75.62 53.81 C90.51 36.06, 104.92 20.18, 120.23 2.49 M86.25 53.78 C100.99 38.74, 111.86 23.69, 130.86 2.46 M86.25 53.78 C96.43 42, 107.17 29.98, 130.86 2.46 M96.88 53.74 C112.74 36.44, 128.85 17.04, 141.49 2.42 M96.88 53.74 C109.35 40.25, 121.32 25.16, 141.49 2.42 M107.51 53.71 C119.17 42.16, 129.46 29.29, 146.22 9.18 M107.51 53.71 C119.75 39.02, 134.38 23.7, 146.22 9.18 M117.49 54.43 C128.9 41.6, 138.35 31.18, 145.7 21.98 M117.49 54.43 C124.06 47.12, 130.93 38.97, 145.7 21.98 M128.12 54.39 C131.25 49.79, 135.34 46.66, 145.17 34.77 M128.12 54.39 C134.89 47.18, 140.46 39.13, 145.17 34.77" stroke="#a5d8ff" stroke-width="1" fill="none"></path><path d="M12.41 0 C54.6 0.34, 94.12 0.03, 133.68 0 M12.41 0 C59.28 0.05, 106.38 -0.52, 133.68 0 M133.68 0 C141.4 1.54, 147.14 2.52, 146.09 12.41 M133.68 0 C143.9 1.57, 147.67 5.43, 146.09 12.41 M146.09 12.41 C145.28 18.33, 147.81 22.62, 146.09 37.23 M146.09 12.41 C145.47 20.51, 146.87 27.87, 146.09 37.23 M146.09 37.23 C145.4 46.05, 141.56 50.93, 133.68 49.63 M146.09 37.23 C145.81 47.18, 142.2 47.58, 133.68 49.63 M133.68 49.63 C86.63 50.01, 42.9 48.01, 12.41 49.63 M133.68 49.63 C98.95 47.99, 64.78 49.41, 12.41 49.63 M12.41 49.63 C3.62 48.54, -1.98 44.84, 0 37.23 M12.41 49.63 C1.97 48.76, -0.15 43.29, 0 37.23 M0 37.23 C0.96 29.07, -1.07 25.06, 0 12.41 M0 37.23 C-0.31 31.75, -0.23 25.88, 0 12.41 M0 12.41 C-1.65 3.02, 6.01 0.79, 12.41 0 M0 12.41 C-1.57 5.16, 5.92 -1.36, 12.41 0" stroke="#1e1e1e" stroke-width="2" fill="none"></path></g><g transform="translate(899.9525909423828 555.8510955810548) rotate(0 25.375 9.600000000000023)"><text x="25.375" y="0" font-family="Cascadia, Segoe UI Emoji" font-size="16px" fill="#1e1e1e" text-anchor="middle" style="white-space: pre;" direction="ltr" dominant-baseline="text-before-edge">at开头</text></g><g stroke-linecap="round"><g transform="translate(715.2062530517578 347.05958557128906) rotate(0 68.49499541636885 -98.1060599201677)"><path d="M0 0 C20.97 -50.14, 43.97 -100.83, 83.84 -194.68 M0 0 C28.28 -68.08, 56.74 -136.95, 83.84 -194.68 M83.84 -194.68 C99.19 -196.55, 111.62 -194.46, 136.99 -196.21 M83.84 -194.68 C98.66 -196.44, 113.32 -195.14, 136.99 -196.21" stroke="#1e1e1e" stroke-width="2" fill="none"></path></g><g transform="translate(715.2062530517578 347.05958557128906) rotate(0 68.49499541636885 -98.1060599201677)"><path d="M113.71 -187.09 C119.24 -188.82, 126.75 -191.53, 136.99 -196.21 M113.71 -187.09 C122.18 -190.01, 129.08 -193.32, 136.99 -196.21" stroke="#1e1e1e" stroke-width="2" fill="none"></path></g><g transform="translate(715.2062530517578 347.05958557128906) rotate(0 68.49499541636885 -98.1060599201677)"><path d="M113.29 -204.18 C118.96 -201.49, 126.57 -199.79, 136.99 -196.21 M113.29 -204.18 C122.08 -201.06, 129.12 -198.33, 136.99 -196.21" stroke="#1e1e1e" stroke-width="2" fill="none"></path></g></g><mask></mask><g stroke-linecap="round"><g transform="translate(714.1122589111328 403.9718780517578) rotate(0 67.75244140625 83.04173278808594)"><path d="M0 0 C30.81 64.33, 63.5 129.89, 78.85 164.83 M0 0 C25.7 52.9, 50.15 106.93, 78.85 164.83 M78.85 164.83 C101.4 166, 120.83 166.11, 135.5 166.08 M78.85 164.83 C92.61 165.3, 105.19 164.3, 135.5 166.08" stroke="#1e1e1e" stroke-width="2" fill="none"></path></g><g transform="translate(714.1122589111328 403.9718780517578) rotate(0 67.75244140625 83.04173278808594)"><path d="M111.67 173.64 C120.16 170.26, 131.29 168.23, 135.5 166.08 M111.67 173.64 C119.67 170.51, 126.35 168.87, 135.5 166.08" stroke="#1e1e1e" stroke-width="2" fill="none"></path></g><g transform="translate(714.1122589111328 403.9718780517578) rotate(0 67.75244140625 83.04173278808594)"><path d="M112.39 156.55 C120.67 159.87, 131.51 164.54, 135.5 166.08 M112.39 156.55 C120.15 158.94, 126.6 162.82, 135.5 166.08" stroke="#1e1e1e" stroke-width="2" fill="none"></path></g></g><mask></mask><g stroke-linecap="round"><g transform="translate(1002.6956939697266 568.7811737060547) rotate(0 86.34890747070312 -0.0543212890625)"><path d="M0 0 C65.18 -0.15, 127.81 -0.31, 172.7 -0.11 M0 0 C62.29 0.53, 125.78 -1, 172.7 -0.11" stroke="#1e1e1e" stroke-width="2" fill="none"></path></g><g transform="translate(1002.6956939697266 568.7811737060547) rotate(0 86.34890747070312 -0.0543212890625)"><path d="M149.16 8.31 C159.7 3.83, 167.69 0.64, 172.7 -0.11 M149.16 8.31 C157.34 5.81, 166.67 1.27, 172.7 -0.11" stroke="#1e1e1e" stroke-width="2" fill="none"></path></g><g transform="translate(1002.6956939697266 568.7811737060547) rotate(0 86.34890747070312 -0.0543212890625)"><path d="M149.26 -8.79 C159.77 -7.01, 167.73 -3.94, 172.7 -0.11 M149.26 -8.79 C157.26 -5.08, 166.55 -3.41, 172.7 -0.11" stroke="#1e1e1e" stroke-width="2" fill="none"></path></g></g><mask></mask><g stroke-linecap="round" transform="translate(1179.598014831543 543.62890625) rotate(0 73.0434799194336 24.816879272460938)"><path d="M3.3 2.87 C3.3 2.87, 3.3 2.87, 3.3 2.87 M3.3 2.87 C3.3 2.87, 3.3 2.87, 3.3 2.87 M0.81 17.93 C6.78 13.29, 8.22 7.28, 16.56 -0.18 M0.81 17.93 C7.08 11.07, 10.97 6.35, 16.56 -0.18 M0.94 29.97 C10.34 19.63, 22.96 4.51, 27.19 -0.22 M0.94 29.97 C10.23 19.43, 18.03 9.03, 27.19 -0.22 M1.08 42.01 C13.1 31.17, 22.96 16.72, 37.16 0.5 M1.08 42.01 C14.77 27.77, 26.04 11.37, 37.16 0.5 M5.8 48.77 C14.14 39.03, 25.13 28.25, 47.79 0.47 M5.8 48.77 C18.23 34.73, 29.76 20.65, 47.79 0.47 M16.43 48.74 C27.11 37.57, 37.48 23.08, 58.42 0.43 M16.43 48.74 C29.83 32.78, 42.91 18.16, 58.42 0.43 M27.06 48.7 C35.37 35.67, 47.31 24.48, 69.05 0.4 M27.06 48.7 C36.35 39.23, 46.21 28.33, 69.05 0.4 M37.04 49.42 C50.75 34.91, 62.34 20.26, 79.68 0.37 M37.04 49.42 C46 38.42, 57.08 26.1, 79.68 0.37 M47.67 49.39 C57.77 41.16, 66.54 29.67, 90.31 0.33 M47.67 49.39 C61.04 34.01, 73.66 20.69, 90.31 0.33 M58.3 49.35 C66.92 39.91, 75.6 28.1, 100.94 0.3 M58.3 49.35 C71.89 33.36, 87.66 17.07, 100.94 0.3 M68.93 49.32 C81.22 34.97, 96.86 16.93, 111.57 0.26 M68.93 49.32 C80.35 35.94, 90.47 23.5, 111.57 0.26 M79.56 49.28 C88.51 36.64, 101.21 27.64, 121.55 0.98 M79.56 49.28 C93.19 33.76, 106.91 17.88, 121.55 0.98 M90.19 49.25 C100.21 37.24, 112.11 26.39, 132.18 0.95 M90.19 49.25 C101.11 36.74, 114.3 21.91, 132.18 0.95 M100.82 49.21 C116.49 30.89, 130.89 14.73, 141.49 2.42 M100.82 49.21 C112.87 35.58, 126.61 20.37, 141.49 2.42 M111.45 49.18 C126.39 32.21, 136.92 16.44, 146.22 9.18 M111.45 49.18 C120.58 39.4, 128.38 29.08, 146.22 9.18 M121.42 49.9 C128.07 38.12, 139.6 31.24, 145.7 21.98 M121.42 49.9 C128.94 41.35, 134.53 33.34, 145.7 21.98 M132.05 49.87 C136.76 47.26, 138.43 44.72, 145.17 34.77 M132.05 49.87 C136.95 43.93, 141.43 39.6, 145.17 34.77" stroke="#a5d8ff" stroke-width="1" fill="none"></path><path d="M12.41 0 C39.32 -0.21, 61.53 1.2, 133.68 0 M12.41 0 C48.52 1.21, 83.98 0.87, 133.68 0 M133.68 0 C140.19 0.25, 144.51 2.93, 146.09 12.41 M133.68 0 C141.03 -0.45, 148.06 5.35, 146.09 12.41 M146.09 12.41 C147.13 19.26, 145.93 27.7, 146.09 37.23 M146.09 12.41 C146.61 18.54, 145.59 25.57, 146.09 37.23 M146.09 37.23 C145.05 43.91, 143.85 49.48, 133.68 49.63 M146.09 37.23 C144.78 47.11, 142.01 50.71, 133.68 49.63 M133.68 49.63 C90.85 49.78, 48.8 47.1, 12.41 49.63 M133.68 49.63 C109.7 49.77, 84.68 48.78, 12.41 49.63 M12.41 49.63 C4.35 50.63, 1.06 44.12, 0 37.23 M12.41 49.63 C3.75 48.25, -1.13 45.59, 0 37.23 M0 37.23 C-0.71 28.52, -0.09 20.76, 0 12.41 M0 37.23 C-0.04 32.52, 0.55 27.57, 0 12.41 M0 12.41 C-1.94 2.68, 4.63 -0.55, 12.41 0 M0 12.41 C-1.62 5.25, 6.43 1.81, 12.41 0" stroke="#1e1e1e" stroke-width="2" fill="none"></path></g><g transform="translate(1213.2039947509766 558.845785522461) rotate(0 39.4375 9.600000000000023)"><text x="39.4375" y="0" font-family="Cascadia, Segoe UI Emoji" font-size="16px" fill="#1e1e1e" text-anchor="middle" style="white-space: pre;" direction="ltr" dominant-baseline="text-before-edge">绑定click</text></g><g mask="url(#mask-hj2Utw99DxWBTpPSLf431)" stroke-linecap="round"><g transform="translate(939.8217010498047 118.65068054199219) rotate(0 86.24995422363281 -41.52889190290489)"><path d="M0 0 C7.03 -5.2, 12.25 -8.26, 21.94 -14.95 M0 0 C4 -2.68, 8.79 -7.86, 21.94 -14.95 M21.94 -14.95 C48.62 -32.68, 71.74 -52.53, 112.53 -81.79 M21.94 -14.95 C43.06 -30.82, 66.16 -47.15, 112.53 -81.79 M112.53 -81.79 C134.14 -82.81, 156.32 -83.44, 172.5 -83.06 M112.53 -81.79 C131.64 -81.4, 150.97 -81.71, 172.5 -83.06" stroke="#1e1e1e" stroke-width="2" fill="none"></path></g><g transform="translate(939.8217010498047 118.65068054199219) rotate(0 86.24995422363281 -41.52889190290489)"><path d="M149.46 -73.34 C156.81 -76.98, 162.36 -78.48, 172.5 -83.06 M149.46 -73.34 C153.75 -74.87, 158.79 -78.88, 172.5 -83.06" stroke="#1e1e1e" stroke-width="2" fill="none"></path></g><g transform="translate(939.8217010498047 118.65068054199219) rotate(0 86.24995422363281 -41.52889190290489)"><path d="M148.61 -90.42 C156.17 -88.96, 161.98 -85.34, 172.5 -83.06 M148.61 -90.42 C153.24 -88.15, 158.46 -88.35, 172.5 -83.06" stroke="#1e1e1e" stroke-width="2" fill="none"></path></g></g><mask id="mask-hj2Utw99DxWBTpPSLf431"><rect x="0" y="0" fill="#fff" width="1212.3216094970703" height="301.70846434780196"></rect><rect x="978.9301605224609" y="60.6820892333983" fill="#000" width="56.25" height="19.2" opacity="1"></rect></mask><g transform="translate(978.9301605224609 60.682089233398415) rotate(0 47.14149475097656 16.38414508057815)"><text x="28.125" y="0" font-family="Cascadia, Segoe UI Emoji" font-size="16px" fill="#1e1e1e" text-anchor="middle" style="white-space: pre;" direction="ltr" dominant-baseline="text-before-edge">k-text</text></g><g mask="url(#mask-cDbhQAlTb8bn-mTIJsht9)" stroke-linecap="round"><g transform="translate(935.3203277587891 175.9252471923828) rotate(0 97.51284790039062 42.41015625)"><path d="M0 0 C5.34 4.61, 12.76 8, 27.53 17.32 M0 0 C10.39 5.99, 21.57 13.06, 27.53 17.32 M27.53 17.32 C65.14 41.05, 102.92 67.02, 128.5 84.82 M27.53 17.32 C53.17 35.14, 79.59 52.49, 128.5 84.82 M128.5 84.82 C147.93 83, 163.13 85.32, 195.03 84.17 M128.5 84.82 C145.18 85.1, 160.68 84.68, 195.03 84.17" stroke="#1e1e1e" stroke-width="2" fill="none"></path></g><g transform="translate(935.3203277587891 175.9252471923828) rotate(0 97.51284790039062 42.41015625)"><path d="M171.67 93.09 C175.98 91.5, 182.41 88.7, 195.03 84.17 M171.67 93.09 C180.52 89.18, 190.12 86.35, 195.03 84.17" stroke="#1e1e1e" stroke-width="2" fill="none"></path></g><g transform="translate(935.3203277587891 175.9252471923828) rotate(0 97.51284790039062 42.41015625)"><path d="M171.4 75.99 C175.8 78.43, 182.3 79.66, 195.03 84.17 M171.4 75.99 C180.33 78.54, 190.03 82.16, 195.03 84.17" stroke="#1e1e1e" stroke-width="2" fill="none"></path></g></g><mask id="mask-cDbhQAlTb8bn-mTIJsht9"><rect x="0" y="0" fill="#fff" width="1230.3460235595703" height="360.7455596923828"></rect><rect x="980.5234527587891" y="217.39723815917978" fill="#000" width="65.625" height="19.2" opacity="1"></rect></mask><g transform="translate(980.5234527587891 217.39723815917978) rotate(0 52.309722900390625 0.9836272578381795)"><text x="32.8125" y="0" font-family="Cascadia, Segoe UI Emoji" font-size="16px" fill="#1e1e1e" text-anchor="middle" style="white-space: pre;" direction="ltr" dominant-baseline="text-before-edge">k-model</text></g><g mask="url(#mask-lC9-BHLl7Yq1DpQLS1r-r)" stroke-linecap="round"><g transform="translate(1004.1358184814453 150.23165850054454) rotate(0 58.596710205078125 -0.4299818144521055)"><path d="M0 0 C31.72 -1.28, 64.23 0.16, 117.19 -0.86 M0 0 C23.47 0.37, 48.03 0.63, 117.19 -0.86" stroke="#1e1e1e" stroke-width="2" fill="none"></path></g><g transform="translate(1004.1358184814453 150.23165850054454) rotate(0 58.596710205078125 -0.4299818144521055)"><path d="M93.86 8.11 C100.6 5.46, 108.07 4.74, 117.19 -0.86 M93.86 8.11 C98.09 6.56, 103.4 5.16, 117.19 -0.86" stroke="#1e1e1e" stroke-width="2" fill="none"></path></g><g transform="translate(1004.1358184814453 150.23165850054454) rotate(0 58.596710205078125 -0.4299818144521055)"><path d="M93.55 -8.99 C100.27 -7.08, 107.82 -3.24, 117.19 -0.86 M93.55 -8.99 C97.82 -7.03, 103.19 -4.93, 117.19 -0.86" stroke="#1e1e1e" stroke-width="2" fill="none"></path></g></g><mask id="mask-lC9-BHLl7Yq1DpQLS1r-r"><rect x="0" y="0" fill="#fff" width="1221.3292388916016" height="251.09162212944875"></rect><rect x="1034.6075286865234" y="140.20167668609236" fill="#000" width="56.25" height="19.2" opacity="1"></rect></mask><g transform="translate(1034.6075286865234 140.20167668609236) rotate(0 28.125 9.743411536437009)"><text x="28.125" y="0" font-family="Cascadia, Segoe UI Emoji" font-size="16px" fill="#1e1e1e" text-anchor="middle" style="white-space: pre;" direction="ltr" dominant-baseline="text-before-edge">k-html</text></g><g stroke-linecap="round" transform="translate(1115.7133102416992 10) rotate(0 86.98665618896484 24.816879272460938)"><path d="M3.3 2.87 C3.3 2.87, 3.3 2.87, 3.3 2.87 M3.3 2.87 C3.3 2.87, 3.3 2.87, 3.3 2.87 M0.81 17.93 C5.34 15.76, 7.83 8.09, 16.56 -0.18 M0.81 17.93 C7.29 11.42, 12.35 3.84, 16.56 -0.18 M0.94 29.97 C8.54 21.42, 12.77 13.24, 27.19 -0.22 M0.94 29.97 C8.59 20.35, 17.28 9.82, 27.19 -0.22 M1.08 42.01 C12.91 29.12, 27.42 14.99, 37.16 0.5 M1.08 42.01 C15.71 26.61, 28.05 10.15, 37.16 0.5 M5.8 48.77 C17.34 35.12, 28.98 20.41, 47.79 0.47 M5.8 48.77 C18.55 33.38, 31.67 19.59, 47.79 0.47 M16.43 48.74 C31.85 32.64, 46.51 13.12, 58.42 0.43 M16.43 48.74 C25.71 37.88, 34.7 28.87, 58.42 0.43 M27.06 48.7 C42.96 34.12, 56.7 14.42, 69.05 0.4 M27.06 48.7 C42.12 30.86, 58.51 12.36, 69.05 0.4 M37.04 49.42 C50.93 31.5, 67.39 16.51, 79.68 0.37 M37.04 49.42 C47.99 38.06, 56.72 26.78, 79.68 0.37 M47.67 49.39 C62.78 32.61, 80.9 12.12, 90.31 0.33 M47.67 49.39 C56.77 38.46, 67.01 27.58, 90.31 0.33 M58.3 49.35 C70.97 34.64, 80.55 23.2, 100.94 0.3 M58.3 49.35 C69.35 36.48, 82.05 21.58, 100.94 0.3 M68.93 49.32 C77.65 37.93, 89.53 25.69, 111.57 0.26 M68.93 49.32 C82.4 33.3, 94.56 18.85, 111.57 0.26 M79.56 49.28 C88.9 35.63, 102.46 20.93, 122.2 0.23 M79.56 49.28 C93.64 33.63, 105.83 17.35, 122.2 0.23 M90.19 49.25 C100.09 37.38, 112.92 25.09, 132.18 0.95 M90.19 49.25 C99.84 38.09, 109.75 26.27, 132.18 0.95 M100.82 49.21 C117.86 28.97, 135.76 13.2, 142.81 0.91 M100.82 49.21 C113.45 34.83, 125.54 19.3, 142.81 0.91 M111.45 49.18 C122.31 37.29, 132.53 23.32, 153.44 0.88 M111.45 49.18 C123.61 34.8, 134.66 22.97, 153.44 0.88 M122.08 49.15 C134.82 36.4, 145.35 22.83, 164.07 0.84 M122.08 49.15 C138 31.98, 153.98 13.54, 164.07 0.84 M132.05 49.87 C146.81 34.02, 164.16 17.46, 171.42 4.58 M132.05 49.87 C144.85 35.91, 155.48 21.98, 171.42 4.58 M142.68 49.83 C148.67 38.76, 156.89 30.97, 174.17 13.61 M142.68 49.83 C150.86 39.37, 159.97 29.8, 174.17 13.61 M153.31 49.8 C157.85 44.01, 160.61 40.98, 174.31 25.65 M153.31 49.8 C159.03 42, 166.04 35.01, 174.31 25.65 M163.94 49.76 C166.75 47.11, 167.78 42.82, 173.78 38.44 M163.94 49.76 C165.88 46.59, 169.68 43.76, 173.78 38.44" stroke="#a5d8ff" stroke-width="1" fill="none"></path><path d="M12.41 0 C49.17 -2.04, 89.9 -2.24, 161.56 0 M12.41 0 C63.72 -1.22, 116.61 -0.57, 161.56 0 M161.56 0 C167.99 -1.53, 172.65 4.92, 173.97 12.41 M161.56 0 C170.29 -2.05, 175.4 2.49, 173.97 12.41 M173.97 12.41 C174.5 18.7, 174.21 27.4, 173.97 37.23 M173.97 12.41 C174.56 22.64, 174.3 31.18, 173.97 37.23 M173.97 37.23 C175.18 46.79, 169.53 51, 161.56 49.63 M173.97 37.23 C173.2 43.66, 167.66 50.88, 161.56 49.63 M161.56 49.63 C107.49 50.02, 54.6 50.55, 12.41 49.63 M161.56 49.63 C109.96 49.89, 60.4 50.64, 12.41 49.63 M12.41 49.63 C3.31 47.78, 1.05 45.96, 0 37.23 M12.41 49.63 C5.05 47.85, -0.38 47.22, 0 37.23 M0 37.23 C-1.97 28.8, 1.23 17.89, 0 12.41 M0 37.23 C0.39 31.41, 1.19 23.89, 0 12.41 M0 12.41 C0.24 3.83, 4.89 -1.91, 12.41 0 M0 12.41 C1.96 3.79, 5.05 0.48, 12.41 0" stroke="#1e1e1e" stroke-width="2" fill="none"></path></g><g transform="translate(1135.137466430664 25.216879272460915) rotate(0 67.5625 9.600000000000023)"><text x="67.5625" y="0" font-family="Cascadia, Segoe UI Emoji" font-size="16px" fill="#1e1e1e" text-anchor="middle" style="white-space: pre;" direction="ltr" dominant-baseline="text-before-edge">处理textContent</text></g><g stroke-linecap="round" transform="translate(1124.7704391479492 125.34295654296875) rotate(0 73.0434799194336 24.816879272460938)"><path d="M3.3 2.87 C3.3 2.87, 3.3 2.87, 3.3 2.87 M3.3 2.87 C3.3 2.87, 3.3 2.87, 3.3 2.87 M0.81 17.93 C3.71 12.53, 7.33 10.39, 16.56 -0.18 M0.81 17.93 C6.18 10.34, 13.13 4.19, 16.56 -0.18 M0.94 29.97 C10.69 16.85, 22.39 6.29, 27.19 -0.22 M0.94 29.97 C9.99 21.13, 18.24 10.6, 27.19 -0.22 M1.08 42.01 C8.79 30.42, 19.69 19.44, 37.16 0.5 M1.08 42.01 C14.07 26.37, 28.25 11.74, 37.16 0.5 M5.8 48.77 C15.83 38.93, 26.79 26.25, 47.79 0.47 M5.8 48.77 C17.82 34.08, 29.71 19.81, 47.79 0.47 M16.43 48.74 C32.86 32.47, 46.65 12.95, 58.42 0.43 M16.43 48.74 C25.1 37.58, 34.03 29.47, 58.42 0.43 M27.06 48.7 C42.27 31.92, 54.68 16.82, 69.05 0.4 M27.06 48.7 C37.05 38.48, 46.48 25.94, 69.05 0.4 M37.04 49.42 C47.75 36.13, 62.39 20.46, 79.68 0.37 M37.04 49.42 C47.65 37.44, 56.65 25.6, 79.68 0.37 M47.67 49.39 C57.54 38.32, 67.76 25.18, 90.31 0.33 M47.67 49.39 C63.24 31.22, 80.26 12.69, 90.31 0.33 M58.3 49.35 C67.09 38.69, 75.29 28.56, 100.94 0.3 M58.3 49.35 C71.99 33.99, 84.63 20.05, 100.94 0.3 M68.93 49.32 C76.88 38.44, 88.39 28.29, 111.57 0.26 M68.93 49.32 C80.2 36.12, 90.99 24.37, 111.57 0.26 M79.56 49.28 C93.63 29.62, 110.35 12.16, 121.55 0.98 M79.56 49.28 C90.77 37.42, 99.92 26.12, 121.55 0.98 M90.19 49.25 C102.43 34.84, 115.92 20.96, 132.18 0.95 M90.19 49.25 C102.51 37.2, 113.24 23.57, 132.18 0.95 M100.82 49.21 C108.3 37.54, 117.26 28.05, 141.49 2.42 M100.82 49.21 C116.47 30.31, 132.52 12.2, 141.49 2.42 M111.45 49.18 C124.39 35.84, 137.68 19.95, 146.22 9.18 M111.45 49.18 C123.12 35.79, 135.58 22.4, 146.22 9.18 M121.42 49.9 C128.57 43.6, 133.51 35.85, 145.7 21.98 M121.42 49.9 C128.68 43.46, 134.05 35.95, 145.7 21.98 M132.05 49.87 C133.75 46.25, 138.3 43.32, 145.17 34.77 M132.05 49.87 C134.99 45.65, 139.11 41.08, 145.17 34.77" stroke="#a5d8ff" stroke-width="1" fill="none"></path><path d="M12.41 0 C55.52 1.03, 97.4 -1.1, 133.68 0 M12.41 0 C39.85 0.38, 68.35 0.07, 133.68 0 M133.68 0 C141 0.09, 146.73 2.22, 146.09 12.41 M133.68 0 C142.36 -1.63, 147.88 6.16, 146.09 12.41 M146.09 12.41 C146.39 17.81, 147.38 24.43, 146.09 37.23 M146.09 12.41 C145.46 18.53, 146.8 27.08, 146.09 37.23 M146.09 37.23 C145.05 44.52, 140.72 50.75, 133.68 49.63 M146.09 37.23 C144.61 47.39, 142.92 50.45, 133.68 49.63 M133.68 49.63 C91.35 48.88, 44.56 46.92, 12.41 49.63 M133.68 49.63 C90.15 49.95, 48.93 50.89, 12.41 49.63 M12.41 49.63 C5.45 51.23, -1.8 46.44, 0 37.23 M12.41 49.63 C5.74 48.94, -0.71 43.34, 0 37.23 M0 37.23 C1.87 29.57, 0.2 21.57, 0 12.41 M0 37.23 C0.08 29.24, 0.45 20.41, 0 12.41 M0 12.41 C1.91 3.94, 4 0.73, 12.41 0 M0 12.41 C-1.88 5.53, 2.02 -1.54, 12.41 0" stroke="#1e1e1e" stroke-width="2" fill="none"></path></g><g transform="translate(1139.6264190673828 140.55983581542966) rotate(0 58.1875 9.600000000000023)"><text x="58.1875" y="0" font-family="Cascadia, Segoe UI Emoji" font-size="16px" fill="#1e1e1e" text-anchor="middle" style="white-space: pre;" direction="ltr" dominant-baseline="text-before-edge">处理innerHTML</text></g><g stroke-linecap="round" transform="translate(1129.1133346557617 232.685546875) rotate(0 73.0434799194336 24.816879272460938)"><path d="M3.3 2.87 C3.3 2.87, 3.3 2.87, 3.3 2.87 M3.3 2.87 C3.3 2.87, 3.3 2.87, 3.3 2.87 M4.75 13.4 C7.72 10.86, 11.38 6.47, 14.59 2.08 M4.75 13.4 C8.29 9.74, 11.24 5.92, 14.59 2.08 M4.88 25.44 C13.88 15.94, 19.06 9.33, 25.22 2.05 M4.88 25.44 C11.78 17.42, 19.43 9.44, 25.22 2.05 M1.73 41.26 C13.51 29.86, 23.27 15.38, 35.85 2.01 M1.73 41.26 C10.45 31.67, 17.81 22.43, 35.85 2.01 M5.8 48.77 C19.66 30.81, 38.16 14.23, 46.48 1.98 M5.8 48.77 C15.25 36.81, 23.39 27.44, 46.48 1.98 M12.5 53.26 C30.16 36.36, 45.62 15.78, 57.11 1.94 M12.5 53.26 C25.8 37.67, 37.79 22.31, 57.11 1.94 M23.13 53.23 C33.68 38.73, 46.38 27.41, 67.08 2.66 M23.13 53.23 C37.71 36.93, 49.8 21.25, 67.08 2.66 M33.1 53.95 C48.43 33.61, 65.52 13.41, 77.71 2.63 M33.1 53.95 C46.28 38.07, 60.66 23.67, 77.71 2.63 M43.73 53.92 C55.25 42.44, 65.15 25.93, 88.34 2.6 M43.73 53.92 C60.32 34.34, 78.17 13.96, 88.34 2.6 M54.36 53.88 C67.77 39.75, 79.54 23.94, 98.97 2.56 M54.36 53.88 C64.27 43.57, 73.75 30.63, 98.97 2.56 M64.99 53.85 C77.42 39.55, 90.87 27.16, 109.6 2.53 M64.99 53.85 C79.12 37.67, 93.19 21.13, 109.6 2.53 M75.62 53.81 C87.94 39.34, 102.85 22.03, 120.23 2.49 M75.62 53.81 C90.56 37.39, 103.46 21.7, 120.23 2.49 M86.25 53.78 C96.3 42.59, 104.88 29.69, 130.86 2.46 M86.25 53.78 C99.35 38.32, 113.97 23.59, 130.86 2.46 M96.88 53.74 C111.86 36.04, 129.29 19.69, 141.49 2.42 M96.88 53.74 C107.33 41.86, 118.53 29.67, 141.49 2.42 M107.51 53.71 C122.25 39.47, 132.56 24.08, 146.22 9.18 M107.51 53.71 C121.25 37.49, 133.42 22.65, 146.22 9.18 M117.49 54.43 C127.45 43.64, 136.74 32.58, 145.7 21.98 M117.49 54.43 C126.01 45.27, 134.87 33.53, 145.7 21.98 M128.12 54.39 C131.17 49.23, 135.16 45.39, 145.17 34.77 M128.12 54.39 C130.92 49.94, 135.05 45.93, 145.17 34.77" stroke="#a5d8ff" stroke-width="1" fill="none"></path><path d="M12.41 0 C49.73 -0.14, 88.98 -0.66, 133.68 0 M12.41 0 C51.98 0.57, 93.86 -1.05, 133.68 0 M133.68 0 C142.68 1.7, 146.3 4.17, 146.09 12.41 M133.68 0 C143.33 1.48, 145.73 5.71, 146.09 12.41 M146.09 12.41 C146.97 20.11, 144.85 24.66, 146.09 37.23 M146.09 12.41 C147.05 18.74, 146.58 24.87, 146.09 37.23 M146.09 37.23 C144.94 44.09, 143.77 49.73, 133.68 49.63 M146.09 37.23 C145.14 43.36, 143.16 50.16, 133.68 49.63 M133.68 49.63 C93.99 50.98, 52.62 51.03, 12.41 49.63 M133.68 49.63 C107.93 50.17, 81.84 50.57, 12.41 49.63 M12.41 49.63 C4.45 51.34, 1.91 45.52, 0 37.23 M12.41 49.63 C4.41 49.28, 0.87 43.3, 0 37.23 M0 37.23 C0.45 27.58, 1.94 17.91, 0 12.41 M0 37.23 C0.52 29.02, -0.76 22.15, 0 12.41 M0 12.41 C0.12 3.98, 3.02 1.43, 12.41 0 M0 12.41 C1.45 2.21, 3.23 1.54, 12.41 0" stroke="#1e1e1e" stroke-width="2" fill="none"></path></g><g transform="translate(1162.7193145751953 247.90242614746103) rotate(0 39.4375 9.600000000000023)"><text x="39.4375" y="0" font-family="Cascadia, Segoe UI Emoji" font-size="16px" fill="#1e1e1e" text-anchor="middle" style="white-space: pre;" direction="ltr" dominant-baseline="text-before-edge">监听input</text></g></svg>