<svg version="1.1" xmlns="http://www.w3.org/2000/svg" viewBox="0 0 812.0201110839832 595.8647664388018" width="812.0201110839832" height="595.8647664388018">
  <!-- svg-source:excalidraw -->
  
  <defs>
    <style class="style-fonts">
      @font-face {
        font-family: "Virgil";
        src: url("https://excalidraw.com/Virgil.woff2");
      }
      @font-face {
        font-family: "Cascadia";
        src: url("https://excalidraw.com/Cascadia.woff2");
      }
      @font-face {
        font-family: "Assistant";
        src: url("https://excalidraw.com/Assistant-Regular.woff2");
      }
    </style>
    
  </defs>
  <g stroke-linecap="round" transform="translate(198.8097635904943 10) rotate(0 301.60517374674447 217.0254770914712)"><path d="M1.52 1.91 L602.01 0.5 L602.52 435.62 L1.4 434.37" stroke="none" stroke-width="0" fill="#ffd8a8"></path><path d="M0 0 C210.37 -0.61, 419.61 -0.8, 603.21 0 M603.21 0 C603.58 97.83, 604.63 196.57, 603.21 434.05 M603.21 434.05 C419.12 435.16, 235.48 435.38, 0 434.05 M0 434.05 C2.14 345.06, 1.78 253.32, 0 0" stroke="#1e1e1e" stroke-width="2.5" fill="none" stroke-dasharray="8 10"></path></g><g stroke-linecap="round" transform="translate(261.5262349446608 70.40596008300784) rotate(0 226.58274332682294 153.87405395507812)"><path d="M0.69 0.22 L454.29 -0.82 L452.91 307.64 L-1.43 309.73" stroke="none" stroke-width="0" fill="#fff9db"></path><path d="M0 0 C125.55 0.86, 252.38 1.43, 453.17 0 M0 0 C175.09 0.27, 349.94 0.27, 453.17 0 M453.17 0 C454.07 79.82, 453.36 160.81, 453.17 307.75 M453.17 0 C450.69 83.08, 451.72 167.22, 453.17 307.75 M453.17 307.75 C348.9 306.83, 244.86 307.49, 0 307.75 M453.17 307.75 C311.04 308.88, 169.18 308.8, 0 307.75 M0 307.75 C0.87 227.26, -0.24 148.03, 0 0 M0 307.75 C-1.09 222.26, -1.75 136.12, 0 0" stroke="#1e1e1e" stroke-width="2" fill="none"></path></g><g stroke-linecap="round" transform="translate(329.4646708170577 133.49797566731777) rotate(0 160.5987040201822 92.69696553548181)"><path d="M-0.9 0.88 L319.98 -1.84 L321.06 186.57 L-0.87 186.46" stroke="none" stroke-width="0" fill="#ebfbee"></path><path d="M0 0 C99.52 1.87, 202.28 2.57, 321.2 0 M321.2 0 C322.96 65.21, 324.49 130.53, 321.2 185.39 M321.2 185.39 C209.77 188.37, 96.63 186.51, 0 185.39 M0 185.39 C0.55 119.35, 0.31 55.31, 0 0" stroke="#1e1e1e" stroke-width="2.5" fill="none" stroke-dasharray="8 10"></path></g><g stroke-linecap="round" transform="translate(394.07374064127623 181.9265238444009) rotate(0 96.10707600911462 44.92001851399739)"><path d="M0.64 -1.41 L192.69 1.62 L192.49 90.87 L-1.4 88.97" stroke="none" stroke-width="0" fill="#a5d8ff"></path><path d="M0 0 C42.22 -1.57, 84.86 -1.89, 192.21 0 M0 0 C49.2 1.67, 98.33 1.14, 192.21 0 M192.21 0 C192.61 19.55, 194.08 35.62, 192.21 89.84 M192.21 0 C193.81 26.23, 192.16 51.83, 192.21 89.84 M192.21 89.84 C151.15 89.02, 110.4 87.75, 0 89.84 M192.21 89.84 C151.42 88.13, 112.33 88.02, 0 89.84 M0 89.84 C-0.16 68.64, -1.33 41.82, 0 0 M0 89.84 C0.68 72.14, 1.57 51.97, 0 0" stroke="#1e1e1e" stroke-width="2" fill="none"></path></g><g transform="translate(230.64519246419252 26.81961059570321) rotate(0 29.16997528076172 12.5)"><text x="0" y="0" font-family="Virgil, Segoe UI Emoji" font-size="20px" fill="#1e1e1e" text-anchor="start" style="white-space: pre;" direction="ltr" dominant-baseline="text-before-edge">margin</text></g><g transform="translate(285.527089436849 89.49742635091152) rotate(0 30.379966735839844 12.5)"><text x="0" y="0" font-family="Virgil, Segoe UI Emoji" font-size="20px" fill="#1e1e1e" text-anchor="start" style="white-space: pre;" direction="ltr" dominant-baseline="text-before-edge">border</text></g><g transform="translate(347.274932861328 145.64193725585923) rotate(0 34.84996795654297 12.5)"><text x="0" y="0" font-family="Virgil, Segoe UI Emoji" font-size="20px" fill="#1e1e1e" text-anchor="start" style="white-space: pre;" direction="ltr" dominant-baseline="text-before-edge">padding</text></g><g transform="translate(452.8150939941405 211.41057332356777) rotate(0 36.66996765136719 12.5)"><text x="0" y="0" font-family="Virgil, Segoe UI Emoji" font-size="20px" fill="#1e1e1e" text-anchor="start" style="white-space: pre;" direction="ltr" dominant-baseline="text-before-edge">content</text></g><g stroke-linecap="round"><g transform="translate(262.649383544922 322.37279256184877) rotate(0 1.2287394205728788 131.7459869384765)"><path d="M0 0 C0.05 92.22, -0.97 184.24, 2.46 263.49" stroke="#1e1e1e" stroke-width="2.5" fill="none" stroke-dasharray="8 10"></path></g></g><mask></mask><g stroke-linecap="round"><g transform="translate(714.0149434407549 325.6633504231771) rotate(0 1.852518717447765 121.84104919433594)"><path d="M0 0 C0.35 56.7, 0 112.18, 3.71 243.68" stroke="#1e1e1e" stroke-width="2.5" fill="none" stroke-dasharray="8 10"></path></g></g><mask></mask><g stroke-linecap="round"><g transform="translate(534.0945031854394 534.4281174867763) rotate(0 85.7709195905486 0.26201038909874796)"><path d="M0 0 C57.64 0.52, 113.16 -0.08, 171.54 0.52 M0 0 C37.28 0.35, 74 1.73, 171.54 0.52" stroke="#1e1e1e" stroke-width="2" fill="none"></path></g><g transform="translate(534.0945031854394 534.4281174867763) rotate(0 85.7709195905486 0.26201038909874796)"><path d="M148.11 9.23 C156.68 7.36, 163.19 3.7, 171.54 0.52 M148.11 9.23 C153.5 6.63, 158.29 6.03, 171.54 0.52" stroke="#1e1e1e" stroke-width="2" fill="none"></path></g><g transform="translate(534.0945031854394 534.4281174867763) rotate(0 85.7709195905486 0.26201038909874796)"><path d="M147.99 -7.87 C156.7 -4.08, 163.25 -2.08, 171.54 0.52 M147.99 -7.87 C153.33 -6.78, 158.15 -3.7, 171.54 0.52" stroke="#1e1e1e" stroke-width="2" fill="none"></path></g></g><mask></mask><g stroke-linecap="round"><g transform="translate(443.8469950358075 533.9783223470051) rotate(0 -84.95442708333343 0.19048055013018939)"><path d="M0 0 C-50.23 -0.64, -97.78 -1.15, -169.91 0.38 M0 0 C-49.48 0.43, -100.88 0.49, -169.91 0.38" stroke="#1e1e1e" stroke-width="2" fill="none"></path></g><g transform="translate(443.8469950358075 533.9783223470051) rotate(0 -84.95442708333343 0.19048055013018939)"><path d="M-146.41 -8.15 C-154.78 -5.57, -160.5 -3.75, -169.91 0.38 M-146.41 -8.15 C-152.49 -6.22, -160.46 -3.74, -169.91 0.38" stroke="#1e1e1e" stroke-width="2" fill="none"></path></g><g transform="translate(443.8469950358075 533.9783223470051) rotate(0 -84.95442708333343 0.19048055013018939)"><path d="M-146.42 8.95 C-154.86 6.65, -160.58 3.58, -169.91 0.38 M-146.42 8.95 C-152.42 5.81, -160.39 3.22, -169.91 0.38" stroke="#1e1e1e" stroke-width="2" fill="none"></path></g></g><mask></mask><g transform="translate(461.567840576172 517.846934000651) rotate(0 24.559974670410156 12.5)"><text x="0" y="0" font-family="Virgil, Segoe UI Emoji" font-size="20px" fill="#1e1e1e" text-anchor="start" style="white-space: pre;" direction="ltr" dominant-baseline="text-before-edge">width</text></g><g stroke-linecap="round"><g transform="translate(336.306406656901 72.15749104817701) rotate(0 -154.0325419108072 -0.7619222005208428)"><path d="M0 0 C-101.67 -3.16, -200.61 -2.47, -308.07 -1.52" stroke="#1e1e1e" stroke-width="2.5" fill="none" stroke-dasharray="8 10"></path></g></g><mask></mask><g stroke-linecap="round"><g transform="translate(324.2070007324219 379.9073282877604) rotate(0 -157.10350036621094 -1.2287648518880587)"><path d="M0 0 C-62.69 -1.26, -125.37 -1.93, -314.21 -2.46" stroke="#1e1e1e" stroke-width="2.5" fill="none" stroke-dasharray="8 10"></path></g></g><mask></mask><g stroke-linecap="round"><g transform="translate(95.82733154296886 205.92402140299473) rotate(0 -5.684341886080802e-14 -62.49966939290364)"><path d="M0 0 C-1.63 -40.06, -0.26 -83.39, 0 -125 M0 0 C0.01 -38.19, 0.61 -77.08, 0 -125" stroke="#1e1e1e" stroke-width="2" fill="none"></path></g><g transform="translate(95.82733154296886 205.92402140299473) rotate(0 -5.684341886080802e-14 -62.49966939290364)"><path d="M8.7 -101.56 C4.92 -107.85, 3.39 -117.35, 0 -125 M8.7 -101.56 C5.39 -108.22, 3.29 -115.62, 0 -125" stroke="#1e1e1e" stroke-width="2" fill="none"></path></g><g transform="translate(95.82733154296886 205.92402140299473) rotate(0 -5.684341886080802e-14 -62.49966939290364)"><path d="M-8.4 -101.45 C-6.48 -107.68, -2.32 -117.21, 0 -125 M-8.4 -101.45 C-6.41 -108.22, -3.21 -115.66, 0 -125" stroke="#1e1e1e" stroke-width="2" fill="none"></path></g></g><mask></mask><g stroke-linecap="round"><g transform="translate(97.19100952148449 256.43280029296864) rotate(0 -5.684341886080802e-14 53.71551513671881)"><path d="M0 0 C0.7 21.29, 2.47 48.02, 0 107.43 M0 0 C-0.18 37.49, -0.04 73.65, 0 107.43" stroke="#1e1e1e" stroke-width="2" fill="none"></path></g><g transform="translate(97.19100952148449 256.43280029296864) rotate(0 -5.684341886080802e-14 53.71551513671881)"><path d="M-8.59 83.95 C-6.84 87.24, -3.21 95.89, 0 107.43 M-8.59 83.95 C-5.88 92.78, -2.8 100.23, 0 107.43" stroke="#1e1e1e" stroke-width="2" fill="none"></path></g><g transform="translate(97.19100952148449 256.43280029296864) rotate(0 -5.684341886080802e-14 53.71551513671881)"><path d="M8.51 83.92 C6.58 87.05, 6.52 95.71, 0 107.43 M8.51 83.92 C5.37 92.67, 2.6 100.13, 0 107.43" stroke="#1e1e1e" stroke-width="2" fill="none"></path></g></g><mask></mask><g transform="translate(74.13925170898449 220.56147257486978) rotate(0 28.199966430664062 12.5)"><text x="0" y="0" font-family="Virgil, Segoe UI Emoji" font-size="20px" fill="#1e1e1e" text-anchor="start" style="white-space: pre;" direction="ltr" dominant-baseline="text-before-edge">height</text></g></svg>