<svg version="1.1" xmlns="http://www.w3.org/2000/svg" viewBox="0 0 1213.9117940266926 1233.214925130208" width="1213.9117940266926" height="1233.214925130208">
  <!-- svg-source:excalidraw -->
  
  <defs>
    <style class="style-fonts">
      @font-face {
        font-family: "Virgil";
        src: url("https://excalidraw.com/Virgil.woff2");
      }
      @font-face {
        font-family: "Cascadia";
        src: url("https://excalidraw.com/Cascadia.woff2");
      }
      @font-face {
        font-family: "Assistant";
        src: url("https://excalidraw.com/Assistant-Regular.woff2");
      }
    </style>
    
  </defs>
  <rect x="0" y="0" width="1213.9117940266926" height="1233.214925130208" fill="#ffffff"></rect><g stroke-linecap="round" transform="translate(105.89029947916686 10) rotate(0 120.98581949869794 60)"><path d="M10.85 34.61 C10.85 34.61, 10.85 34.61, 10.85 34.61 M10.85 34.61 C10.85 34.61, 10.85 34.61, 10.85 34.61 M1.14 57.97 C16.55 40.83, 30.51 26.19, 36.57 17.22 M1.14 57.97 C14.96 41.14, 29.07 25.98, 36.57 17.22 M3.9 66.99 C13.16 54.72, 25.1 45.25, 51.79 11.9 M3.9 66.99 C20.53 48.67, 36.32 30.34, 51.79 11.9 M6.66 76.01 C25.35 57.33, 43.19 34.7, 65.7 8.09 M6.66 76.01 C30.14 49.57, 52.32 21.59, 65.7 8.09 M10.73 83.53 C26.52 65.08, 48.39 41.17, 79.62 4.28 M10.73 83.53 C35.75 53.42, 61.88 24.83, 79.62 4.28 M16.77 88.78 C47.07 53.92, 77.43 22.46, 91.56 2.74 M16.77 88.78 C46.09 54.75, 75.66 20.11, 91.56 2.74 M22.8 94.02 C45.42 67.22, 68.06 42.59, 102.84 1.95 M22.8 94.02 C52.85 58.45, 84.29 23.8, 102.84 1.95 M29.5 98.52 C49.76 76.92, 68.56 51.17, 114.13 1.16 M29.5 98.52 C53.23 69.94, 79.4 42.97, 114.13 1.16 M36.85 102.26 C56.62 76.71, 79.27 55.66, 125.42 0.37 M36.85 102.26 C69.43 66.04, 102.44 28.83, 125.42 0.37 M44.85 105.24 C76.38 66.68, 109.77 30.48, 135.39 1.09 M44.85 105.24 C77.55 67.61, 111.69 27.55, 135.39 1.09 M52.86 108.23 C75.47 77.19, 102.29 51.08, 145.36 1.81 M52.86 108.23 C77.81 80.39, 103.15 51.47, 145.36 1.81 M60.87 111.21 C82.03 84.07, 106.64 60.27, 154.68 3.29 M60.87 111.21 C78.59 88.42, 99.93 65.08, 154.68 3.29 M68.87 114.19 C99.59 76.4, 132.3 42.13, 164.66 4.01 M68.87 114.19 C93.8 85.53, 118.55 57.59, 164.66 4.01 M77.53 116.42 C104.45 88.91, 131.68 57.88, 173.97 5.48 M77.53 116.42 C110.74 74.88, 147.15 34.4, 173.97 5.48 M87.51 117.14 C121.67 79.52, 156.61 38.4, 181.98 8.47 M87.51 117.14 C111.6 89.45, 138.32 59.83, 181.98 8.47 M97.48 117.86 C131.48 75.93, 167.96 34.51, 189.99 11.45 M97.48 117.86 C124.18 87.69, 151.15 57.59, 189.99 11.45 M107.46 118.58 C131.19 90.26, 156.85 63.06, 197.99 14.43 M107.46 118.58 C128.91 94.07, 151.55 68.2, 197.99 14.43 M117.43 119.31 C140.49 89.13, 164.9 64.17, 206 17.42 M117.43 119.31 C134.83 98.19, 153.64 77.33, 206 17.42 M128.06 119.27 C162.77 80.03, 192.66 44.08, 213.35 21.16 M128.06 119.27 C149.91 92.85, 171.65 68.57, 213.35 21.16 M139.35 118.48 C166.32 87.18, 194.23 57.73, 219.38 26.41 M139.35 118.48 C158.2 96.32, 177.7 75.56, 219.38 26.41 M150.63 117.69 C166.2 99.06, 179.02 83.64, 225.42 31.66 M150.63 117.69 C168.32 95.92, 188.73 72.7, 225.42 31.66 M161.26 117.66 C188.04 87.43, 211.76 56.85, 231.46 36.9 M161.26 117.66 C181.31 95.62, 201.57 70.81, 231.46 36.9 M176.48 112.34 C187.36 99.03, 201.18 81.77, 236.19 43.66 M176.48 112.34 C195.06 92.17, 212.15 73.29, 236.19 43.66 M191.05 107.78 C200.3 93.04, 211.65 80.8, 238.94 52.68 M191.05 107.78 C208.17 87.49, 223.59 67.79, 238.94 52.68 M208.24 100.2 C217.45 89.16, 226.28 76.57, 241.7 61.71 M208.24 100.2 C215.46 91.13, 224.79 80.33, 241.7 61.71 M230.68 86.58 C231.35 85.65, 232.38 85.11, 232.65 84.31 M230.68 86.58 C231.47 85.56, 232.22 84.66, 232.65 84.31" stroke="#e9ecef" stroke-width="1" fill="none"></path><path d="M126.59 -0.33 C141.2 -1.12, 157.99 1.62, 171.95 4.86 C185.91 8.09, 199.98 13.35, 210.35 19.08 C220.71 24.81, 228.88 32.06, 234.13 39.23 C239.39 46.39, 242.37 54.26, 241.88 62.06 C241.39 69.85, 237.83 79.02, 231.21 85.99 C224.58 92.96, 213.5 98.74, 202.15 103.88 C190.8 109.03, 177.56 114.34, 163.12 116.87 C148.68 119.4, 130.87 119.35, 115.49 119.06 C100.12 118.76, 84.91 118.18, 70.88 115.11 C56.84 112.03, 41.71 106.25, 31.26 100.58 C20.81 94.92, 13.21 88.16, 8.16 81.13 C3.12 74.09, 0.57 66.1, 0.97 58.4 C1.38 50.69, 4.34 42.01, 10.6 34.9 C16.86 27.79, 27.07 21, 38.51 15.74 C49.95 10.48, 62.46 5.97, 79.22 3.34 C95.97 0.71, 126.93 0, 139.04 -0.04 C151.15 -0.08, 152.04 1.87, 151.87 3.12 M94.68 1.86 C108.81 -0.81, 127.34 -1.62, 142.39 -0.47 C157.44 0.69, 171.98 4.51, 184.98 8.78 C197.98 13.04, 211.26 18.74, 220.39 25.13 C229.52 31.52, 236.63 39.74, 239.75 47.13 C242.87 54.53, 241.86 61.86, 239.11 69.5 C236.36 77.13, 230.98 86.43, 223.24 92.95 C215.51 99.46, 205.44 104.12, 192.68 108.57 C179.92 113.03, 161.72 117.78, 146.68 119.69 C131.64 121.6, 117.64 121.26, 102.44 120.04 C87.25 118.82, 68.82 116.49, 55.52 112.35 C42.22 108.21, 31.54 101.9, 22.64 95.19 C13.73 88.47, 5.55 79.61, 2.09 72.07 C-1.36 64.53, -0.88 57.45, 1.9 49.95 C4.67 42.44, 10.41 33.34, 18.73 27.02 C27.05 20.7, 39.15 16.52, 51.84 12.02 C64.53 7.53, 87.69 1.59, 94.85 0.07 C102.01 -1.44, 94.75 1.61, 94.79 2.93" stroke="#1e1e1e" stroke-width="2" fill="none"></path></g><g transform="translate(166.82622558292383 45.07359312880715) rotate(0 60 25)"><text x="60" y="0" font-family="Virgil, Segoe UI Emoji" font-size="20px" fill="#1e1e1e" text-anchor="middle" style="white-space: pre;" direction="ltr" dominant-baseline="text-before-edge">keep-alive </text><text x="60" y="25" font-family="Virgil, Segoe UI Emoji" font-size="20px" fill="#1e1e1e" text-anchor="middle" style="white-space: pre;" direction="ltr" dominant-baseline="text-before-edge">组件渲染过程</text></g><g stroke-linecap="round"><g transform="translate(222.64901100844918 135.93967223638882) rotate(0 0.7039242248291657 38.07625559730044)"><path d="M-0.37 0.98 C-0.19 13.51, 1.11 62.81, 1.44 75.39 M1.64 0.44 C1.63 13.1, 0.63 63.61, 0.51 76.53" stroke="#1e1e1e" stroke-width="2" fill="none"></path></g><g transform="translate(222.64901100844918 135.93967223638882) rotate(0 0.7039242248291657 38.07625559730044)"><path d="M-7.69 52.91 C-3.3 60.83, -3.48 68.91, 0.51 76.53 M-7.69 52.91 C-6.11 61.04, -3.24 69.27, 0.51 76.53" stroke="#1e1e1e" stroke-width="2" fill="none"></path></g><g transform="translate(222.64901100844918 135.93967223638882) rotate(0 0.7039242248291657 38.07625559730044)"><path d="M9.41 53.17 C8.12 60.95, 2.26 68.94, 0.51 76.53 M9.41 53.17 C5.42 61.15, 2.72 69.29, 0.51 76.53" stroke="#1e1e1e" stroke-width="2" fill="none"></path></g></g><mask></mask><g stroke-linecap="round" transform="translate(52.44354248046898 218.25012207031256) rotate(0 164.54605102539062 49.670562744140625)"><path d="M5.95 6.5 C5.95 6.5, 5.95 6.5, 5.95 6.5 M5.95 6.5 C5.95 6.5, 5.95 6.5, 5.95 6.5 M0.84 24.58 C4.17 20.68, 10.78 16.62, 21.83 0.43 M0.84 24.58 C8.49 14.19, 17.03 6.03, 21.83 0.43 M0.97 36.62 C9.99 28.02, 18.06 17.52, 33.12 -0.36 M0.97 36.62 C11.73 23.76, 22.74 11.54, 33.12 -0.36 M1.11 48.66 C12.57 33.78, 24.93 20.53, 43.09 0.36 M1.11 48.66 C14.07 35.4, 26.76 20.18, 43.09 0.36 M1.24 60.7 C15.63 44.08, 27.95 30.17, 53.72 0.33 M1.24 60.7 C19.16 39.68, 36.96 17.77, 53.72 0.33 M1.37 72.74 C18.94 53.42, 38.16 32.78, 64.35 0.29 M1.37 72.74 C22.57 48.71, 44.84 23.39, 64.35 0.29 M2.16 84.03 C30.31 50.63, 59.05 17.59, 74.98 0.26 M2.16 84.03 C22.92 59.84, 44.73 36.35, 74.98 0.26 M5.57 92.3 C23.61 74.04, 42.41 50.96, 85.61 0.22 M5.57 92.3 C23.24 72.03, 39.25 52.67, 85.61 0.22 M12.27 96.79 C41.3 62.22, 73.18 25.15, 96.24 0.19 M12.27 96.79 C28.56 76.66, 46.07 58.33, 96.24 0.19 M20.93 99.02 C52.71 61.74, 88.36 19.81, 106.87 0.15 M20.93 99.02 C45.31 72.03, 70.57 42.05, 106.87 0.15 M30.9 99.74 C51.13 76.43, 67.52 54.33, 117.5 0.12 M30.9 99.74 C49.42 76.69, 69.16 54.32, 117.5 0.12 M41.53 99.71 C77.79 63.04, 109.77 22.48, 128.13 0.08 M41.53 99.71 C61.04 78.39, 79.83 55.35, 128.13 0.08 M52.16 99.67 C83.61 64.96, 118.05 25.09, 138.76 0.05 M52.16 99.67 C78.07 70.6, 101.1 44.02, 138.76 0.05 M62.79 99.64 C86.55 73.89, 109.39 45.41, 149.39 0.02 M62.79 99.64 C95.82 62.13, 128.59 23.29, 149.39 0.02 M73.42 99.6 C101.63 67.13, 128.41 36.56, 160.02 -0.02 M73.42 99.6 C105.24 60.58, 138.23 24.73, 160.02 -0.02 M84.05 99.57 C102.04 75.31, 121.85 53.74, 170.65 -0.05 M84.05 99.57 C115.62 61.47, 149.65 23.13, 170.65 -0.05 M94.68 99.53 C129.46 59.53, 159.98 22.57, 181.28 -0.09 M94.68 99.53 C120.71 68.33, 146.38 39.69, 181.28 -0.09 M104.66 100.25 C128.14 73.57, 149.63 49.04, 191.91 -0.12 M104.66 100.25 C136.34 63.36, 167.75 25.95, 191.91 -0.12 M115.29 100.22 C141.02 69.06, 168.78 36.98, 202.54 -0.16 M115.29 100.22 C145.45 66.28, 172.37 34.74, 202.54 -0.16 M125.92 100.18 C158.81 63.78, 192.59 27.26, 213.17 -0.19 M125.92 100.18 C154.42 66.6, 182.69 34.35, 213.17 -0.19 M136.55 100.15 C164.66 69.69, 191.3 41.63, 223.8 -0.23 M136.55 100.15 C165.34 68.94, 192.93 36.22, 223.8 -0.23 M147.18 100.12 C177.31 63.15, 211.17 29.16, 234.43 -0.26 M147.18 100.12 C180.42 63.7, 212.53 24.63, 234.43 -0.26 M157.81 100.08 C176.72 78.87, 194.7 59.21, 245.07 -0.3 M157.81 100.08 C177.86 76.7, 197.91 53.7, 245.07 -0.3 M168.44 100.05 C200.81 64.49, 230.22 32.23, 255.7 -0.33 M168.44 100.05 C193.07 72.37, 214.93 47.65, 255.7 -0.33 M179.07 100.01 C203.28 70.59, 226.55 41.14, 266.33 -0.36 M179.07 100.01 C196.68 80.86, 212.89 59.63, 266.33 -0.36 M189.7 99.98 C221.08 67.91, 247.91 32.71, 276.3 0.36 M189.7 99.98 C215.13 72.45, 239.69 43.3, 276.3 0.36 M200.33 99.94 C224.04 74.31, 248.29 44.79, 286.93 0.32 M200.33 99.94 C220.84 75.23, 242.21 51.18, 286.93 0.32 M210.96 99.91 C235.19 72.56, 256.11 46.09, 297.56 0.29 M210.96 99.91 C243.64 63.14, 275.15 27.28, 297.56 0.29 M221.59 99.87 C250.47 67.85, 276.61 39.31, 308.19 0.25 M221.59 99.87 C254.05 64.36, 285.56 27.66, 308.19 0.25 M232.22 99.84 C254.56 73.99, 277.55 48.89, 316.85 2.48 M232.22 99.84 C264.37 63.31, 297.1 27.25, 316.85 2.48 M242.85 99.81 C257.8 79.82, 276.19 60.62, 323.55 6.98 M242.85 99.81 C264.44 75.44, 285.41 53.03, 323.55 6.98 M253.48 99.77 C270.86 77.04, 292.78 56.83, 327.61 14.49 M253.48 99.77 C268.3 82.27, 283.73 63.54, 327.61 14.49 M264.11 99.74 C290.17 71.66, 313.72 45.22, 329.06 25.02 M264.11 99.74 C278.05 84.01, 290.22 69.64, 329.06 25.02 M274.74 99.7 C295.86 75.59, 313.84 52.52, 329.19 37.06 M274.74 99.7 C289.26 80.57, 306.52 62.86, 329.19 37.06 M285.37 99.67 C297.92 85.02, 312.03 69.93, 329.33 49.1 M285.37 99.67 C301.73 80.75, 317.68 61.11, 329.33 49.1 M296 99.63 C304.87 90.53, 316.55 77.09, 329.46 61.14 M296 99.63 C305.73 88.24, 315.84 75.76, 329.46 61.14 M306.63 99.6 C313 91.54, 318.75 85.62, 328.94 73.94 M306.63 99.6 C313.83 91.28, 320.42 85.12, 328.94 73.94" stroke="#e9ecef" stroke-width="1" fill="none"></path><path d="M24.84 0 C123.86 0.51, 221.84 1.64, 304.26 0 M24.84 0 C134.46 -0.85, 245.03 -0.75, 304.26 0 M304.26 0 C321.12 1, 327.98 6.48, 329.09 24.84 M304.26 0 C322.87 -1.65, 329.58 7.3, 329.09 24.84 M329.09 24.84 C330.9 42.25, 330.51 62.98, 329.09 74.51 M329.09 24.84 C328.46 38.12, 328.17 52.39, 329.09 74.51 M329.09 74.51 C330.29 90.59, 319.57 98.86, 304.26 99.34 M329.09 74.51 C327.27 92.99, 319.47 100.45, 304.26 99.34 M304.26 99.34 C243.42 100.45, 185.21 101.77, 24.84 99.34 M304.26 99.34 C222.1 97.04, 141.61 97.19, 24.84 99.34 M24.84 99.34 C10.06 100.66, -0.76 89.38, 0 74.51 M24.84 99.34 C8.94 97.28, -0.3 89.67, 0 74.51 M0 74.51 C-0.57 59.25, 1.29 42.6, 0 24.84 M0 74.51 C-0.46 55.05, 0.35 34.62, 0 24.84 M0 24.84 C-1.63 8.36, 6.33 0.79, 24.84 0 M0 24.84 C-2.21 7.29, 10.32 -1.46, 24.84 0" stroke="#1e1e1e" stroke-width="2" fill="none"></path></g><g transform="translate(124.4096374511721 242.92068481445318) rotate(0 92.5799560546875 25)"><text x="92.5799560546875" y="0" font-family="Virgil, Segoe UI Emoji" font-size="20px" fill="#1e1e1e" text-anchor="middle" style="white-space: pre;" direction="ltr" dominant-baseline="text-before-edge">created 钩子</text><text x="92.5799560546875" y="25" font-family="Virgil, Segoe UI Emoji" font-size="20px" fill="#1e1e1e" text-anchor="middle" style="white-space: pre;" direction="ltr" dominant-baseline="text-before-edge">创建 cache 和 keys</text></g><g stroke-linecap="round"><g transform="translate(220.84691674537066 322.1781412760417) rotate(0 -0.15248466438890773 34.6214548746745)"><path d="M-0.69 -0.31 C-0.69 11.1, 0.51 56.84, 0.59 68.36 M1.15 -1.52 C1.01 10.03, 0.46 57.53, 0.11 69.44" stroke="#1e1e1e" stroke-width="2" fill="none"></path></g><g transform="translate(220.84691674537066 322.1781412760417) rotate(0 -0.15248466438890773 34.6214548746745)"><path d="M-7.99 45.79 C-5.68 55.62, -3.79 62.55, 0.11 69.44 M-7.99 45.79 C-6.53 51.8, -3.3 57.71, 0.11 69.44" stroke="#1e1e1e" stroke-width="2" fill="none"></path></g><g transform="translate(220.84691674537066 322.1781412760417) rotate(0 -0.15248466438890773 34.6214548746745)"><path d="M9.11 46.12 C5.42 55.73, 1.32 62.55, 0.11 69.44 M9.11 46.12 C6.02 51.97, 4.71 57.8, 0.11 69.44" stroke="#1e1e1e" stroke-width="2" fill="none"></path></g></g><mask></mask><g stroke-linecap="round" transform="translate(92.72023518880223 398.0935668945313) rotate(0 130.42683919270837 44.8077392578125)"><path d="M5.31 5.94 C5.31 5.94, 5.31 5.94, 5.31 5.94 M5.31 5.94 C5.31 5.94, 5.31 5.94, 5.31 5.94 M0.85 23.26 C8.78 15.13, 16.52 4.63, 20.53 0.62 M0.85 23.26 C6.9 17.46, 12.03 11.65, 20.53 0.62 M0.33 36.06 C7.65 26.23, 17.36 17.76, 31.16 0.59 M0.33 36.06 C11.46 24.32, 22.81 10.87, 31.16 0.59 M0.46 48.1 C14.16 34.05, 25.8 17.57, 41.79 0.55 M0.46 48.1 C13.55 32.29, 27.41 18.25, 41.79 0.55 M0.59 60.14 C17.57 40.66, 37.08 20.24, 52.42 0.52 M0.59 60.14 C11.61 46.22, 23.39 33.99, 52.42 0.52 M0.72 72.18 C15.76 52.74, 31.84 33.68, 63.05 0.48 M0.72 72.18 C15.55 57.24, 29.41 39.98, 63.05 0.48 M4.14 80.45 C18.85 62.32, 31.38 47.3, 73.68 0.45 M4.14 80.45 C20.21 62.39, 35.21 44.73, 73.68 0.45 M9.52 86.45 C32.8 61.97, 51.04 39.86, 84.31 0.41 M9.52 86.45 C25.03 68.53, 41.16 52.02, 84.31 0.41 M17.53 89.44 C43.46 59.19, 70.91 29.6, 94.94 0.38 M17.53 89.44 C36.36 65.93, 57.38 41.76, 94.94 0.38 M28.16 89.4 C49.2 63.57, 72.26 35.4, 105.57 0.35 M28.16 89.4 C47.46 68.55, 64.36 47.54, 105.57 0.35 M38.13 90.12 C59.03 63.84, 83.81 37.82, 116.2 0.31 M38.13 90.12 C55.96 69.54, 72.49 49.62, 116.2 0.31 M48.76 90.09 C65.17 69.93, 82.82 52.08, 126.83 0.28 M48.76 90.09 C72.23 61.91, 97.08 33.18, 126.83 0.28 M59.39 90.05 C83.89 63.12, 105.79 35.92, 136.8 1 M59.39 90.05 C79.24 66.22, 99.16 43.87, 136.8 1 M70.02 90.02 C88.55 69.86, 105.32 51.38, 147.43 0.96 M70.02 90.02 C102.21 53.6, 132.63 19.23, 147.43 0.96 M80.65 89.98 C102.17 62.67, 124.67 36.66, 158.07 0.93 M80.65 89.98 C107.44 61.08, 134.36 29.51, 158.07 0.93 M91.28 89.95 C113.82 59.81, 139.47 34.4, 168.7 0.89 M91.28 89.95 C112.5 64.35, 135.23 40.83, 168.7 0.89 M101.91 89.91 C123.43 66.52, 146.44 40.98, 179.33 0.86 M101.91 89.91 C125.97 63.76, 148.56 36.07, 179.33 0.86 M112.54 89.88 C138.67 59.12, 165.87 24.92, 189.96 0.82 M112.54 89.88 C133.93 66.36, 154.28 40.95, 189.96 0.82 M123.17 89.85 C150.95 55.79, 176.81 24.46, 200.59 0.79 M123.17 89.85 C150.81 55.97, 179.54 23.86, 200.59 0.79 M133.8 89.81 C164.48 53.67, 194.27 17.53, 211.22 0.76 M133.8 89.81 C161.86 60.11, 188.44 28.29, 211.22 0.76 M144.43 89.78 C170.56 59.02, 194.59 30.65, 221.85 0.72 M144.43 89.78 C165.03 65.42, 187.14 40.2, 221.85 0.72 M155.06 89.74 C183.29 56.33, 215.31 20.98, 232.48 0.69 M155.06 89.74 C172.24 70.54, 187.3 50.75, 232.48 0.69 M165.69 89.71 C183.18 66.9, 202.77 45.4, 242.45 1.41 M165.69 89.71 C191.43 60.96, 216.78 30.82, 242.45 1.41 M176.32 89.67 C192.8 66.8, 210.53 49.81, 251.11 3.64 M176.32 89.67 C192.49 70.94, 207.32 53.76, 251.11 3.64 M186.95 89.64 C205.89 67.42, 224.72 46.27, 257.15 8.88 M186.95 89.64 C210.37 61.86, 232.91 36.66, 257.15 8.88 M197.58 89.6 C220.98 61.68, 245.52 36.51, 260.56 17.15 M197.58 89.6 C211.42 74.7, 224.29 58.46, 260.56 17.15 M208.21 89.57 C221.49 76.43, 233.35 62.96, 260.7 29.19 M208.21 89.57 C221.05 74.01, 235.4 56.16, 260.7 29.19 M218.84 89.53 C235.37 72.51, 249.55 53.21, 260.83 41.23 M218.84 89.53 C232.67 71.99, 248.32 54.97, 260.83 41.23 M229.47 89.5 C240.08 79.09, 248.91 66.66, 260.96 53.27 M229.47 89.5 C236.07 81.25, 244.15 73.68, 260.96 53.27 M240.1 89.47 C248.06 79.83, 253.64 73.52, 261.1 65.32 M240.1 89.47 C245.94 82.25, 251.95 75.1, 261.1 65.32" stroke="#e9ecef" stroke-width="1" fill="none"></path><path d="M22.4 0 C88.95 1.91, 159.49 -0.28, 238.45 0 M22.4 0 C86.67 -1.12, 151.9 -1.97, 238.45 0 M238.45 0 C254.64 -0.57, 262.63 5.66, 260.85 22.4 M238.45 0 C252.11 -2.11, 261.58 5.39, 260.85 22.4 M260.85 22.4 C261.48 35.07, 258.87 49.9, 260.85 67.21 M260.85 22.4 C261.18 35.49, 260.66 49.61, 260.85 67.21 M260.85 67.21 C260.32 81.37, 252.59 91.48, 238.45 89.62 M260.85 67.21 C262.04 80.49, 252.53 91.02, 238.45 89.62 M238.45 89.62 C172.87 88.65, 107.05 90.27, 22.4 89.62 M238.45 89.62 C168.86 87.87, 100.54 86.97, 22.4 89.62 M22.4 89.62 C7.87 90.05, 1.57 81.46, 0 67.21 M22.4 89.62 C7.66 88.5, 1.97 80.55, 0 67.21 M0 67.21 C0.46 51.7, 1.61 39.11, 0 22.4 M0 67.21 C-0.65 55.68, 0.31 43.15, 0 22.4 M0 22.4 C0.59 9.23, 6.74 1.97, 22.4 0 M0 22.4 C1 7.94, 8.69 -0.8, 22.4 0" stroke="#1e1e1e" stroke-width="2" fill="none"></path></g><g transform="translate(168.24710337320982 430.4013061523438) rotate(0 54.89997100830078 12.5)"><text x="54.89997100830078" y="0" font-family="Virgil, Segoe UI Emoji" font-size="20px" fill="#1e1e1e" text-anchor="middle" style="white-space: pre;" direction="ltr" dominant-baseline="text-before-edge">render 函数</text></g><g stroke-linecap="round"><g transform="translate(228.21683109952392 491.55481974283856) rotate(0 0.49787786019635405 34.51708678442705)"><path d="M-1.07 -0.81 C-0.85 10.68, 0.8 56.55, 1.1 68.18 M0.57 1.38 C0.66 13.06, 0.32 57.79, 0.2 69.27" stroke="#1e1e1e" stroke-width="2" fill="none"></path></g><g transform="translate(228.21683109952392 491.55481974283856) rotate(0 0.49787786019635405 34.51708678442705)"><path d="M-8.15 45.7 C-7.28 52.59, -5.01 58.65, 0.2 69.27 M-8.15 45.7 C-6.13 51.84, -3.69 59.65, 0.2 69.27" stroke="#1e1e1e" stroke-width="2" fill="none"></path></g><g transform="translate(228.21683109952392 491.55481974283856) rotate(0 0.49787786019635405 34.51708678442705)"><path d="M8.96 45.85 C5 52.55, 2.45 58.56, 0.2 69.27 M8.96 45.85 C5.93 52.11, 3.33 59.88, 0.2 69.27" stroke="#1e1e1e" stroke-width="2" fill="none"></path></g></g><mask></mask><g stroke-linecap="round" transform="translate(49.3434651692711 565.3041585286459) rotate(0 184.68841552734358 35)"><path d="M11.29 36.31 C11.29 36.31, 11.29 36.31, 11.29 36.31 M11.29 36.31 C11.29 36.31, 11.29 36.31, 11.29 36.31 M19.3 39.3 C20.51 37.14, 23.71 35.65, 26.51 31 M19.3 39.3 C21.41 36.95, 23.09 34.73, 26.51 31 M27.96 41.53 C31.75 37.73, 35.14 31.05, 39.11 28.7 M27.96 41.53 C31.7 37.97, 34.22 33.21, 39.11 28.7 M37.28 43 C43.4 36.16, 47.31 32.66, 51.71 26.4 M37.28 43 C43.39 36.73, 48.02 29.43, 51.71 26.4 M45.94 45.23 C50.95 37.28, 55.41 31.14, 64.31 24.1 M45.94 45.23 C51.19 38.39, 56.43 33.39, 64.31 24.1 M55.26 46.71 C63.29 38.22, 69.95 31.19, 76.91 21.8 M55.26 46.71 C59.89 41.75, 63.72 35.06, 76.91 21.8 M63.92 48.94 C72.28 41.18, 77.77 32.87, 90.16 18.75 M63.92 48.94 C68.68 41.52, 74.22 35.73, 90.16 18.75 M73.23 50.41 C84.03 36.23, 95.6 26.96, 102.76 16.45 M73.23 50.41 C84.92 38.83, 94.69 25.04, 102.76 16.45 M82.55 51.89 C90.97 44.12, 98.16 31.88, 115.36 14.15 M82.55 51.89 C93.62 38.1, 106.27 25.57, 115.36 14.15 M91.87 53.36 C103.9 41.02, 115.38 28.57, 127.95 11.85 M91.87 53.36 C102.92 40.5, 114.99 27.37, 127.95 11.85 M101.19 54.84 C110.8 41.91, 121.61 32.04, 140.55 9.55 M101.19 54.84 C115.56 36.25, 131.29 20.17, 140.55 9.55 M109.85 57.07 C123.58 39.43, 136.06 25.91, 153.15 7.26 M109.85 57.07 C119.24 46.98, 127.7 37.31, 153.15 7.26 M119.17 58.54 C133.35 41.45, 146.64 29.08, 165.75 4.96 M119.17 58.54 C136.18 39.61, 151.83 21.51, 165.75 4.96 M128.49 60.02 C142.56 44.51, 156.52 26.53, 177.69 3.41 M128.49 60.02 C145.2 39.44, 162.61 20.46, 177.69 3.41 M137.8 61.49 C150.92 44.16, 166.58 25.62, 188.32 3.38 M137.8 61.49 C153.34 44.34, 168.39 26.14, 188.32 3.38 M147.12 62.97 C156.01 49.65, 166.51 39.79, 198.95 3.34 M147.12 62.97 C166.6 39.86, 188.84 17.14, 198.95 3.34 M156.44 64.44 C171.06 45.11, 189.89 29.35, 207.61 5.57 M156.44 64.44 C169.58 49.99, 180.62 37.55, 207.61 5.57 M165.1 66.67 C183.13 44.3, 202.12 21.28, 216.93 7.05 M165.1 66.67 C182.19 46.64, 199.44 26.66, 216.93 7.05 M175.08 67.39 C195.13 45.69, 214.24 22.77, 226.25 8.52 M175.08 67.39 C185.34 55.69, 195.2 43.24, 226.25 8.52 M185.05 68.11 C199.5 52.43, 214.22 37.41, 235.57 10 M185.05 68.11 C199.55 53, 213.02 35.47, 235.57 10 M196.99 66.57 C213.35 46.61, 233.28 25.77, 244.23 12.23 M196.99 66.57 C215.1 44.34, 234.12 22.56, 244.23 12.23 M208.94 65.02 C218.98 51.33, 229.24 40.25, 253.55 13.7 M208.94 65.02 C223.98 48.69, 238.06 32.73, 253.55 13.7 M220.88 63.48 C229.94 54.33, 240.42 41.84, 262.21 15.93 M220.88 63.48 C230.86 53.9, 240.22 41.79, 262.21 15.93 M233.48 61.18 C246.43 48.25, 254.34 36.14, 271.53 17.41 M233.48 61.18 C242.42 51.15, 250.97 40.88, 271.53 17.41 M246.07 58.88 C255.83 45.56, 266.63 34.88, 280.84 18.88 M246.07 58.88 C254.74 49.1, 264.66 37.82, 280.84 18.88 M258.67 56.58 C271.66 42.04, 280.32 29.51, 289.51 21.11 M258.67 56.58 C269.77 43.57, 281.47 29.28, 289.51 21.11 M271.27 54.28 C282.34 41.72, 294.39 30.54, 298.82 22.59 M271.27 54.28 C279.17 45.48, 287.35 37.21, 298.82 22.59 M283.87 51.99 C291.49 45.27, 297.79 37.54, 307.49 24.82 M283.87 51.99 C288.28 46.24, 293.29 40.55, 307.49 24.82 M296.47 49.69 C302.04 42.41, 310.72 32.17, 316.8 26.29 M296.47 49.69 C302.37 44.71, 306.95 38.5, 316.8 26.29 M309.07 47.39 C313.88 40.72, 315.68 38.49, 326.12 27.77 M309.07 47.39 C316.09 39.01, 321.79 31.83, 326.12 27.77 M321.01 45.85 C328.08 41.37, 331.51 35.51, 334.78 30 M321.01 45.85 C325.09 41.26, 330.12 34.79, 334.78 30 M333.61 43.55 C338.05 40.98, 339.42 37.3, 344.1 31.47 M333.61 43.55 C335.95 40.91, 339.75 37.19, 344.1 31.47 M346.2 41.25 C347.83 39.74, 348.19 37.79, 352.11 34.46 M346.2 41.25 C347.49 39.92, 348.8 37.74, 352.11 34.46" stroke="#e9ecef" stroke-width="1" fill="none"></path><path d="M231.25 9 C248.08 14.14, 266.52 17.93, 323.13 27 M231.25 9 C265.05 16.14, 297.37 22.17, 323.13 27 M323.13 27 C370.73 35.6, 369.15 36.98, 323.13 45 M323.13 27 C369.87 35.41, 369.14 37.86, 323.13 45 M323.13 45 C290.18 49.93, 261.89 55.36, 231.25 61 M323.13 45 C298.92 49.89, 273.85 53.7, 231.25 61 M231.25 61 C184.39 70.49, 185.85 71.24, 138.75 61 M231.25 61 C186.47 70.87, 184.84 71.32, 138.75 61 M138.75 61 C114.9 59.14, 90.06 53.62, 46.25 45 M138.75 61 C103.78 55.39, 70.56 49.12, 46.25 45 M46.25 45 C0.39 35.69, 0.78 35.84, 46.25 27 M46.25 45 C1.73 36.61, -0.65 35.47, 46.25 27 M46.25 27 C79.9 21.14, 113.89 15.31, 138.75 9 M46.25 27 C79.13 21.3, 110.05 14.52, 138.75 9 M138.75 9 C184.89 -1.29, 186.87 1.1, 231.25 9 M138.75 9 C185.62 0.69, 184.28 0.85, 231.25 9" stroke="#1e1e1e" stroke-width="2" fill="none"></path></g><g transform="translate(154.18767293294297 587.8041585286459) rotate(0 80 12.5)"><text x="80" y="0" font-family="Virgil, Segoe UI Emoji" font-size="20px" fill="#1e1e1e" text-anchor="middle" style="white-space: pre;" direction="ltr" dominant-baseline="text-before-edge">是否命中缓存规则</text></g><g stroke-linecap="round"><g transform="translate(613.128662109375 610.8634440104166) rotate(0 58.86385227037522 -1.2300161822015525)"><path d="M-0.64 -0.68 C18.98 -0.75, 98.75 -1.04, 118.61 -1.35 M1.22 1.58 C20.68 1.28, 98.63 -2.41, 118.13 -2.9" stroke="#1e1e1e" stroke-width="2" fill="none"></path></g><g transform="translate(613.128662109375 610.8634440104166) rotate(0 58.86385227037522 -1.2300161822015525)"><path d="M94.97 6.52 C102.6 4.59, 114.25 0.95, 118.13 -2.9 M94.97 6.52 C101.06 4.7, 107.8 2.02, 118.13 -2.9" stroke="#1e1e1e" stroke-width="2" fill="none"></path></g><g transform="translate(613.128662109375 610.8634440104166) rotate(0 58.86385227037522 -1.2300161822015525)"><path d="M94.33 -10.57 C102.07 -6.09, 113.96 -3.32, 118.13 -2.9 M94.33 -10.57 C100.69 -7.42, 107.61 -5.15, 118.13 -2.9" stroke="#1e1e1e" stroke-width="2" fill="none"></path></g></g><mask></mask><g stroke-linecap="round"><g transform="translate(405.1976521809895 611.6889444986978) rotate(0 84.34773763020826 0.08590698242181816)"><path d="M-0.41 -0.78 C27.66 -0.89, 139.98 -0.1, 168.25 0.13 M1.57 1.42 C29.47 1.45, 139.21 2.14, 167.06 1.64" stroke="#1e1e1e" stroke-width="2" fill="none"></path></g></g><mask></mask><g transform="translate(584.6609497070312 598.2815551757812) rotate(0 10 12.5)"><text x="0" y="0" font-family="Virgil, Segoe UI Emoji" font-size="20px" fill="#1e1e1e" text-anchor="start" style="white-space: pre;" direction="ltr" dominant-baseline="text-before-edge">否</text></g><g stroke-linecap="round" transform="translate(740.1594034830732 532.1473185221355) rotate(0 130.66935221354163 74.01880900065103)"><path d="M4.94 54.64 C4.94 54.64, 4.94 54.64, 4.94 54.64 M4.94 54.64 C4.94 54.64, 4.94 54.64, 4.94 54.64 M1.79 70.46 C10.62 60.59, 21.72 46.72, 44.43 21.4 M1.79 70.46 C15.31 55.18, 28.53 37.87, 44.43 21.4 M0.61 84.01 C17.16 64.44, 29.93 48.3, 63.59 11.55 M0.61 84.01 C23.38 57.66, 46.31 28.68, 63.59 11.55 M5.33 90.76 C21.7 71.13, 38.91 52.01, 76.85 8.5 M5.33 90.76 C24.11 70.27, 43.14 49.11, 76.85 8.5 M9.4 98.28 C40.73 62.88, 70.72 26.87, 90.76 4.69 M9.4 98.28 C40.54 62.86, 73 27.43, 90.76 4.69 M14.13 105.03 C32.68 83.07, 53.17 60.54, 104.01 1.64 M14.13 105.03 C44.47 70.94, 75.71 33.78, 104.01 1.64 M20.17 110.28 C56.54 71.62, 89.58 29.06, 115.3 0.85 M20.17 110.28 C44.76 80.97, 72.33 50.37, 115.3 0.85 M26.21 115.53 C56.81 81.18, 85.36 49.53, 125.93 0.81 M26.21 115.53 C63.31 72.61, 100.86 30.49, 125.93 0.81 M32.9 120.02 C68.94 79.95, 102.42 37.32, 135.9 1.54 M32.9 120.02 C65.62 83.1, 97.76 45.84, 135.9 1.54 M38.94 125.27 C65.78 92.14, 99.48 58.24, 146.53 1.5 M38.94 125.27 C69.42 89.1, 100.78 53.69, 146.53 1.5 M45.63 129.77 C86.61 82.42, 128.33 32.84, 156.5 2.22 M45.63 129.77 C74.99 95.65, 105.22 62.16, 156.5 2.22 M53.64 132.75 C88.81 93.2, 120.1 52.97, 165.17 4.45 M53.64 132.75 C82.12 101.01, 109.29 69.9, 165.17 4.45 M62.3 134.98 C96.41 94.63, 129.9 56.76, 174.48 5.93 M62.3 134.98 C93.84 99.53, 125.46 63.27, 174.48 5.93 M70.3 137.97 C112.8 93.73, 151.55 44.31, 183.15 8.15 M70.3 137.97 C110.05 93.05, 149.89 47.92, 183.15 8.15 M78.31 140.95 C108.53 109.91, 134.39 77.06, 192.46 9.63 M78.31 140.95 C121.77 90.26, 166.06 40.64, 192.46 9.63 M86.97 143.18 C122.36 98.67, 161.8 57.53, 200.47 12.61 M86.97 143.18 C125.95 97.61, 166.03 52.58, 200.47 12.61 M96.95 143.9 C133.41 101.72, 165.61 62.31, 207.82 16.35 M96.95 143.9 C120 117.4, 142.48 91.22, 207.82 16.35 M106.26 145.37 C146.83 100.7, 185.44 56.04, 215.17 20.09 M106.26 145.37 C139.57 108.54, 171.27 71.76, 215.17 20.09 M116.24 146.09 C151.7 101.59, 189.69 59.99, 222.52 23.83 M116.24 146.09 C143.01 117.08, 168.14 86.3, 222.52 23.83 M125.56 147.57 C162.22 103.7, 202.73 59.32, 229.87 27.57 M125.56 147.57 C158.68 109.29, 193.69 71.41, 229.87 27.57 M136.19 147.53 C166.31 114.24, 197.29 77.26, 236.56 32.06 M136.19 147.53 C174.87 102.13, 215.14 55.65, 236.56 32.06 M147.47 146.75 C170.47 119.62, 195.57 90.8, 241.94 38.07 M147.47 146.75 C171.62 118.46, 197.81 89.45, 241.94 38.07 M159.41 145.2 C187.67 116.24, 210.94 83.74, 247.33 44.07 M159.41 145.2 C180.35 120.86, 200.72 98.49, 247.33 44.07 M170.7 144.41 C197.78 114.44, 222.13 86.74, 252.71 50.07 M170.7 144.41 C186.85 125.25, 205.8 104.71, 252.71 50.07 M183.3 142.11 C212.4 110.79, 238.65 76.54, 256.12 58.34 M183.3 142.11 C206.62 114.82, 230.06 88.99, 256.12 58.34 M199.18 136.04 C214.13 119.74, 226.7 106.79, 258.22 68.12 M199.18 136.04 C222.38 110.11, 244.43 83.95, 258.22 68.12 M215.06 129.97 C228.68 112, 245.7 94.2, 260.32 77.89 M215.06 129.97 C230.06 113.01, 243.63 96.11, 260.32 77.89 M242.74 110.31 C245.53 108.46, 248.52 106.25, 251.93 99.75 M242.74 110.31 C245.53 108.08, 247.21 105.09, 251.93 99.75" stroke="#e9ecef" stroke-width="1" fill="none"></path><path d="M107.1 0.31 C121.45 -2.3, 139.77 -0.22, 155.14 1.62 C170.51 3.46, 186.07 6.62, 199.34 11.36 C212.6 16.1, 225.39 22.97, 234.73 30.06 C244.08 37.14, 251.14 45.35, 255.4 53.86 C259.65 62.37, 261.54 72.4, 260.28 81.1 C259.02 89.8, 254.66 98.28, 247.84 106.04 C241.01 113.8, 230.84 121.44, 219.34 127.66 C207.84 133.89, 193.41 140.04, 178.83 143.4 C164.24 146.76, 147.83 148.03, 131.83 147.83 C115.83 147.64, 97.54 145.38, 82.84 142.23 C68.14 139.08, 54.99 134.88, 43.63 128.92 C32.27 122.97, 22.02 114.35, 14.68 106.49 C7.34 98.63, 1.24 90.39, -0.4 81.77 C-2.05 73.16, 0.31 63.33, 4.8 54.79 C9.3 46.25, 17.15 37.71, 26.55 30.52 C35.95 23.33, 47.42 16.71, 61.2 11.68 C74.97 6.65, 100.86 1.76, 109.18 0.33 C117.5 -1.09, 110.71 1.7, 111.14 3.14 M73.66 6.36 C86.31 1.71, 104.44 0.76, 120.27 0.16 C136.09 -0.44, 153.67 0.07, 168.63 2.74 C183.6 5.41, 197.58 10.37, 210.05 16.19 C222.52 22.01, 235.11 30.12, 243.47 37.67 C251.83 45.23, 257.46 52.98, 260.21 61.51 C262.96 70.05, 263.16 79.95, 259.96 88.88 C256.75 97.81, 249.89 107.67, 240.99 115.09 C232.09 122.51, 219.47 128.2, 206.56 133.41 C193.65 138.63, 178.6 143.88, 163.53 146.39 C148.46 148.9, 131.7 149.53, 116.14 148.49 C100.58 147.46, 84.11 144.55, 70.17 140.18 C56.22 135.81, 42.65 128.87, 32.47 122.27 C22.29 115.67, 14.67 108.62, 9.08 100.58 C3.48 92.54, -1.29 83.29, -1.1 74.01 C-0.9 64.73, 3.88 53.59, 10.24 44.9 C16.59 36.21, 26.07 28.32, 37.03 21.87 C47.98 15.42, 69.45 8.35, 75.96 6.2 C82.46 4.04, 75.49 7.84, 76.05 8.94" stroke="#1e1e1e" stroke-width="2" fill="none"></path></g><g transform="translate(799.3315950672286 593.8269257430743) rotate(0 71.5999755859375 12.5)"><text x="71.5999755859375" y="0" font-family="Virgil, Segoe UI Emoji" font-size="20px" fill="#1e1e1e" text-anchor="middle" style="white-space: pre;" direction="ltr" dominant-baseline="text-before-edge">直接返回 vnode</text></g><g transform="translate(488.27992757161473 529.9959309895833) rotate(0 105.57996368408203 25)"><text x="0" y="0" font-family="Virgil, Segoe UI Emoji" font-size="20px" fill="#1e1e1e" text-anchor="start" style="white-space: pre;" direction="ltr" dominant-baseline="text-before-edge">不符合 include 规则</text><text x="0" y="25" font-family="Virgil, Segoe UI Emoji" font-size="20px" fill="#1e1e1e" text-anchor="start" style="white-space: pre;" direction="ltr" dominant-baseline="text-before-edge">或者命中 exclude 规则</text></g><g stroke-linecap="round"><g transform="translate(233.68890303825356 744.7720336914062) rotate(0 -0.9703011463581106 44.649885454274965)"><path d="M0.66 0.65 C0.69 15.3, -0.46 73.64, -0.75 88.37 M-0.45 -0.06 C-0.4 14.67, -0.92 74.37, -1.07 89.42" stroke="#1e1e1e" stroke-width="2" fill="none"></path></g><g transform="translate(233.68890303825356 744.7720336914062) rotate(0 -0.9703011463581106 44.649885454274965)"><path d="M-9.41 65.85 C-6.36 73.11, -7.1 77.89, -1.07 89.42 M-9.41 65.85 C-8 72.5, -5.18 78.18, -1.07 89.42" stroke="#1e1e1e" stroke-width="2" fill="none"></path></g><g transform="translate(233.68890303825356 744.7720336914062) rotate(0 -0.9703011463581106 44.649885454274965)"><path d="M7.69 66.01 C6.88 73.33, 2.28 78.07, -1.07 89.42 M7.69 66.01 C4.33 72.5, 2.38 78.14, -1.07 89.42" stroke="#1e1e1e" stroke-width="2" fill="none"></path></g></g><mask></mask><g stroke-linecap="round"><g transform="translate(232.37932138821577 647.3832194010417) rotate(0 0.22350662360048545 26.48140191531124)"><path d="M-0.89 -0.89 C-0.64 7.83, 0.85 44.41, 1.07 53.4 M0.84 1.26 C1.02 10.12, 0.64 42.64, 0.44 51.5" stroke="#1e1e1e" stroke-width="2" fill="none"></path></g></g><mask></mask><g transform="translate(225.23254394531273 710.7576497395833) rotate(0 10 12.5)"><text x="0" y="0" font-family="Virgil, Segoe UI Emoji" font-size="20px" fill="#1e1e1e" text-anchor="start" style="white-space: pre;" direction="ltr" dominant-baseline="text-before-edge">是</text></g><g stroke-linecap="round" transform="translate(10 834.9362691243491) rotate(0 220.59000651041663 35)"><path d="M13.88 35.92 C13.88 35.92, 13.88 35.92, 13.88 35.92 M13.88 35.92 C13.88 35.92, 13.88 35.92, 13.88 35.92 M21.89 38.9 C22.65 36.77, 24.59 36.04, 27.79 32.11 M21.89 38.9 C23.25 37.41, 24.85 35.51, 27.79 32.11 M30.55 41.13 C34.44 38.78, 36.29 33.69, 40.39 29.81 M30.55 41.13 C34.17 36.87, 36.4 33.3, 40.39 29.81 M39.87 42.61 C45.46 38.22, 51.11 29.92, 52.99 27.51 M39.87 42.61 C43.43 37.19, 48.53 32.42, 52.99 27.51 M49.19 44.08 C54.48 39.61, 56.88 35.06, 64.93 25.97 M49.19 44.08 C53.99 38.2, 58.38 32.74, 64.93 25.97 M58.5 45.56 C62.8 41.55, 69.17 36.47, 77.53 23.67 M58.5 45.56 C63.07 39.71, 68.65 34.08, 77.53 23.67 M67.82 47.03 C75.54 36, 84.58 30.14, 89.47 22.13 M67.82 47.03 C74.01 40.01, 80.41 33.3, 89.47 22.13 M77.14 48.51 C87.33 38, 97.03 27.35, 102.07 19.83 M77.14 48.51 C83.38 41.82, 88.94 35.57, 102.07 19.83 M86.46 49.98 C98.12 38.87, 108.57 26.86, 114.01 18.28 M86.46 49.98 C92.07 42.85, 97.88 34.95, 114.01 18.28 M95.78 51.46 C109.58 36.16, 118.97 24.43, 126.61 15.99 M95.78 51.46 C103.01 44.31, 109.74 37.02, 126.61 15.99 M105.09 52.93 C113.01 45.56, 119.33 36.9, 139.21 13.69 M105.09 52.93 C118.09 37.09, 130.56 22.06, 139.21 13.69 M114.41 54.41 C124.51 40.63, 134.08 30.1, 151.15 12.14 M114.41 54.41 C128.41 38.65, 143.06 22.56, 151.15 12.14 M123.73 55.88 C138.49 38.99, 154.98 18.85, 163.75 9.84 M123.73 55.88 C132.29 44.74, 142.56 32.51, 163.75 9.84 M133.7 56.6 C147.4 39.83, 161.52 25.5, 175.69 8.3 M133.7 56.6 C147.16 41.26, 160 26.35, 175.69 8.3 M143.02 58.08 C156.56 45.15, 166.6 30.75, 188.29 6 M143.02 58.08 C157.81 40.57, 172.87 23.46, 188.29 6 M152.34 59.55 C171.81 37.74, 188.46 19.01, 200.23 4.46 M152.34 59.55 C168.25 40.25, 184.38 23, 200.23 4.46 M161.66 61.03 C173.53 46.31, 187.7 30.94, 211.52 3.67 M161.66 61.03 C182.06 38.2, 202.02 15.94, 211.52 3.67 M170.98 62.5 C188.87 42.02, 206.66 20.22, 222.81 2.88 M170.98 62.5 C182.51 48.67, 196.61 34.79, 222.81 2.88 M180.29 63.98 C198.87 44.32, 216.59 26.36, 233.44 2.85 M180.29 63.98 C194.14 48.75, 208.33 32.5, 233.44 2.85 M189.61 65.45 C202.86 49.41, 220.03 32.26, 242.75 4.32 M189.61 65.45 C206.83 46.24, 222.45 27.39, 242.75 4.32 M198.93 66.93 C210.85 51.35, 224.78 35.37, 252.07 5.8 M198.93 66.93 C216.25 47.96, 234.5 26.4, 252.07 5.8 M208.9 67.65 C224.09 51.71, 236.63 33.48, 261.39 7.27 M208.9 67.65 C225.76 47.89, 241.64 29.6, 261.39 7.27 M218.88 68.37 C239.04 45.1, 259.36 21.25, 270.71 8.74 M218.88 68.37 C234.81 49.75, 252.34 29.53, 270.71 8.74 M230.16 67.58 C242.51 52.36, 254.34 38.25, 280.03 10.22 M230.16 67.58 C245.88 48.9, 261.67 30.22, 280.03 10.22 M241.45 66.79 C254.22 50.63, 266.76 38.62, 289.34 11.69 M241.45 66.79 C257.13 49.03, 272.4 29.99, 289.34 11.69 M253.39 65.24 C261.12 52.43, 272.98 44.16, 298.66 13.17 M253.39 65.24 C264.07 51.58, 276.97 37.72, 298.66 13.17 M265.34 63.7 C273.34 52.38, 282.07 41.06, 307.98 14.64 M265.34 63.7 C278.51 48.99, 290.78 33.35, 307.98 14.64 M277.93 61.4 C287.75 48.5, 303.11 34.02, 317.3 16.12 M277.93 61.4 C292.56 44.43, 309 26.66, 317.3 16.12 M289.88 59.86 C303.39 45.94, 317.45 28.09, 326.62 17.59 M289.88 59.86 C299.58 48.48, 309.21 38.63, 326.62 17.59 M301.82 58.31 C309.89 50.47, 317.16 40.22, 335.93 19.07 M301.82 58.31 C308.35 48.82, 317.26 40.03, 335.93 19.07 M314.42 56.02 C326.17 41.45, 337.02 31.29, 345.25 20.54 M314.42 56.02 C322.59 48.32, 328.93 40.36, 345.25 20.54 M326.36 54.47 C331.59 46.29, 338.38 40.05, 354.57 22.02 M326.36 54.47 C337.09 41.67, 348.73 29.07, 354.57 22.02 M338.3 52.93 C346.64 43.13, 357.77 31.81, 363.89 23.49 M338.3 52.93 C344.85 44.55, 353.01 35.76, 363.89 23.49 M350.9 50.63 C354.61 45.99, 361.88 36.09, 373.2 24.97 M350.9 50.63 C359.02 40.37, 367.32 31.27, 373.2 24.97 M362.84 49.09 C368.23 39.79, 377.64 33.56, 382.52 26.44 M362.84 49.09 C369.74 41.58, 375.37 34.28, 382.52 26.44 M374.78 47.54 C380.52 41.73, 387.02 32.36, 391.18 28.67 M374.78 47.54 C377.61 43.58, 381.48 38.87, 391.18 28.67 M387.38 45.24 C390.38 43.04, 394.91 35.37, 400.5 30.15 M387.38 45.24 C390.48 40.72, 395.78 35.95, 400.5 30.15 M399.98 42.94 C402.63 39.39, 405.58 35.18, 409.82 31.62 M399.98 42.94 C404.24 39.13, 406.45 34.51, 409.82 31.62 M412.58 40.65 C413.35 38.54, 415.91 36.77, 418.48 33.85 M412.58 40.65 C414.37 38.92, 415.54 37.14, 418.48 33.85 M426.49 36.84 C426.66 36.72, 426.9 36.37, 427.14 36.08 M426.49 36.84 C426.77 36.56, 427.04 36.2, 427.14 36.08" stroke="#e9ecef" stroke-width="1" fill="none"></path><path d="M276.25 9 C300.4 13.9, 320.26 17.08, 385.93 27 M276.25 9 C314.1 15.48, 353.12 22.43, 385.93 27 M385.93 27 C439.49 37.08, 440 37.94, 385.93 45 M385.93 27 C439.58 35.67, 441.18 34.02, 385.93 45 M385.93 45 C347.06 51.6, 310.22 56.29, 276.25 61 M385.93 45 C348.4 49.55, 312.49 55.43, 276.25 61 M276.25 61 C220.43 69.19, 220.12 68.51, 165.75 61 M276.25 61 C220.44 67.82, 220.25 68.57, 165.75 61 M165.75 61 C135.33 57.31, 105.01 52.2, 55.25 45 M165.75 61 C124.1 56.05, 82.59 49.49, 55.25 45 M55.25 45 C1.84 36.25, -0.93 35.06, 55.25 27 M55.25 45 C-0.4 33.76, -0.4 37.17, 55.25 27 M55.25 27 C78.16 24.42, 103.4 19.86, 165.75 9 M55.25 27 C79.84 23.62, 106.19 18.14, 165.75 9 M165.75 9 C222.29 -1.32, 222.41 -0.38, 276.25 9 M165.75 9 C222.2 2.17, 221.65 0.39, 276.25 9" stroke="#1e1e1e" stroke-width="2" fill="none"></path></g><g transform="translate(150.79500325520837 857.4362691243491) rotate(0 80 12.5)"><text x="80" y="0" font-family="Virgil, Segoe UI Emoji" font-size="20px" fill="#1e1e1e" text-anchor="middle" style="white-space: pre;" direction="ltr" dominant-baseline="text-before-edge">已经存在缓存文件</text></g><g stroke-linecap="round"><g transform="translate(652.2469650437438 883.7802507440148) rotate(0 94.28822835286451 -0.5829977035976412)"><path d="M0.7 -0.33 C32.31 -0.65, 157.62 -0.74, 189.03 -1.03 M-0.38 -1.55 C31.16 -1.73, 156.81 0.52, 188.32 0.58" stroke="#1e1e1e" stroke-width="2" fill="none"></path></g><g transform="translate(652.2469650437438 883.7802507440148) rotate(0 94.28822835286451 -0.5829977035976412)"><path d="M164.74 8.88 C170.01 7.43, 176.67 5.58, 188.32 0.58 M164.74 8.88 C169.66 7.92, 174.62 4.61, 188.32 0.58" stroke="#1e1e1e" stroke-width="2" fill="none"></path></g><g transform="translate(652.2469650437438 883.7802507440148) rotate(0 94.28822835286451 -0.5829977035976412)"><path d="M164.92 -8.22 C170.27 -5.4, 176.89 -2.99, 188.32 0.58 M164.92 -8.22 C169.93 -5.31, 174.85 -4.76, 188.32 0.58" stroke="#1e1e1e" stroke-width="2" fill="none"></path></g></g><mask></mask><g stroke-linecap="round"><g transform="translate(444.31595511535807 884.3438212076823) rotate(0 84.34773763020826 0.08590698242181816)"><path d="M0.45 0.14 C28.55 0.07, 141.09 -0.72, 169.28 -0.72 M-0.77 -0.83 C27.16 -0.74, 140.29 -0.03, 168.64 0.36" stroke="#1e1e1e" stroke-width="2" fill="none"></path></g></g><mask></mask><g transform="translate(623.7792526414 870.9364318847657) rotate(0 10 12.5)"><text x="0" y="0" font-family="Virgil, Segoe UI Emoji" font-size="20px" fill="#1e1e1e" text-anchor="start" style="white-space: pre;" direction="ltr" dominant-baseline="text-before-edge">否</text></g><g stroke-linecap="round" transform="translate(843.7960815429688 837.9073079427084) rotate(0 127.94514973958326 47.608795166015625)"><path d="M3.23 9.43 C3.23 9.43, 3.23 9.43, 3.23 9.43 M3.23 9.43 C3.23 9.43, 3.23 9.43, 3.23 9.43 M0.74 24.49 C9 14.29, 18.72 7.61, 21.08 1.1 M0.74 24.49 C5.72 18.92, 12.9 11.87, 21.08 1.1 M0.87 36.53 C9.19 23.71, 17.79 13.46, 32.36 0.31 M0.87 36.53 C10.34 25.92, 19.4 14.71, 32.36 0.31 M0.35 49.33 C12.3 40.02, 21.64 27.61, 42.99 0.27 M0.35 49.33 C14.07 33.1, 28.91 17.21, 42.99 0.27 M0.48 61.37 C21.57 37.24, 41.98 13.83, 53.62 0.24 M0.48 61.37 C14.79 46.38, 28.67 28.63, 53.62 0.24 M0.62 73.41 C15.51 55.71, 30.28 40.15, 64.25 0.2 M0.62 73.41 C25.38 47.26, 47.83 19.46, 64.25 0.2 M2.72 83.19 C17.84 63.33, 35.24 43.69, 74.88 0.17 M2.72 83.19 C31.22 49.22, 59.21 16.81, 74.88 0.17 M7.44 89.95 C33.05 56.7, 64.67 24.28, 85.51 0.14 M7.44 89.95 C32.4 61.55, 56.22 33.39, 85.51 0.14 M14.79 93.68 C42.58 59.26, 72.76 27.34, 96.14 0.1 M14.79 93.68 C42.67 62.74, 69.19 33.02, 96.14 0.1 M24.11 95.16 C47.58 66.25, 70.11 38.78, 106.77 0.07 M24.11 95.16 C51.79 61.08, 80.22 27.72, 106.77 0.07 M34.74 95.13 C51.25 76.15, 67.25 54.91, 116.75 0.79 M34.74 95.13 C64.21 61.73, 96.08 25.34, 116.75 0.79 M45.37 95.09 C68.08 66.41, 89.96 42.41, 127.38 0.75 M45.37 95.09 C65.28 74.02, 84.75 50.7, 127.38 0.75 M56 95.06 C76.88 69.66, 99.76 41.94, 138.01 0.72 M56 95.06 C85.11 62.31, 113.38 28.13, 138.01 0.72 M66.63 95.02 C89.61 69.16, 115.71 41.28, 148.64 0.68 M66.63 95.02 C88.15 70.2, 109.1 45.5, 148.64 0.68 M77.26 94.99 C94.02 73.78, 113.97 56.06, 159.27 0.65 M77.26 94.99 C105.81 63.73, 133.63 30.57, 159.27 0.65 M87.24 95.71 C107.84 69.88, 129.56 47.26, 169.9 0.61 M87.24 95.71 C106.94 72.7, 127.38 50.42, 169.9 0.61 M97.87 95.67 C119.11 70.77, 140.76 43.94, 180.53 0.58 M97.87 95.67 C125.87 63.74, 152.74 30.88, 180.53 0.58 M108.5 95.64 C123.64 76.45, 142.87 55.68, 191.16 0.55 M108.5 95.64 C136.99 64.14, 163.24 33.01, 191.16 0.55 M119.13 95.6 C139.77 72.02, 160.89 44.5, 201.79 0.51 M119.13 95.6 C150.42 59.1, 181.98 24.1, 201.79 0.51 M129.76 95.57 C159.43 60.98, 189.75 26.49, 212.42 0.48 M129.76 95.57 C151.57 71.3, 172.03 48.31, 212.42 0.48 M140.39 95.53 C158.88 73.3, 179.48 48.85, 223.05 0.44 M140.39 95.53 C160.98 72.36, 181.37 47.93, 223.05 0.44 M151.02 95.5 C169.72 74.14, 186.45 52.99, 233.68 0.41 M151.02 95.5 C184.55 58.29, 217.76 20.12, 233.68 0.41 M161.65 95.47 C178.29 74.24, 196.2 57.26, 243 1.88 M161.65 95.47 C191.33 63.22, 218.56 30.04, 243 1.88 M172.28 95.43 C196.56 70.19, 217.99 42.78, 249.69 6.38 M172.28 95.43 C200.12 61.42, 229.05 28.59, 249.69 6.38 M182.91 95.4 C209.5 63.44, 233.84 34.97, 253.76 13.89 M182.91 95.4 C200.1 76.11, 217.22 58.53, 253.76 13.89 M193.54 95.36 C213.3 72.14, 234.09 47.79, 255.86 23.67 M193.54 95.36 C206.96 79, 223.55 60.81, 255.86 23.67 M204.17 95.33 C221.22 78.93, 237.27 59.07, 255.99 35.71 M204.17 95.33 C218.97 79.79, 232.3 63.28, 255.99 35.71 M214.8 95.29 C230.37 80.48, 246.09 61.94, 256.13 47.75 M214.8 95.29 C225.13 83.42, 237.8 70.64, 256.13 47.75 M225.43 95.26 C232.75 86.18, 236.97 78.88, 256.26 59.79 M225.43 95.26 C231.27 87.58, 238.02 79.99, 256.26 59.79 M237.37 93.72 C244.89 83.48, 250.45 75.71, 256.39 71.83 M237.37 93.72 C241.93 90.17, 244.3 85.28, 256.39 71.83" stroke="#e9ecef" stroke-width="1" fill="none"></path><path d="M23.8 0 C86.81 -0.85, 149.65 -0.07, 232.09 0 M23.8 0 C69.75 -1.49, 114.46 -0.69, 232.09 0 M232.09 0 C249.94 -1.81, 255.96 7.98, 255.89 23.8 M232.09 0 C248.1 1.03, 254.69 7.26, 255.89 23.8 M255.89 23.8 C256.86 35.09, 256 50.84, 255.89 71.41 M255.89 23.8 C257.07 36.65, 255.88 51.11, 255.89 71.41 M255.89 71.41 C254.44 89, 246.02 97, 232.09 95.22 M255.89 71.41 C257.08 85.52, 248.36 95.83, 232.09 95.22 M232.09 95.22 C158.31 95.99, 85.84 96.09, 23.8 95.22 M232.09 95.22 C163.83 96.57, 94.24 97.65, 23.8 95.22 M23.8 95.22 C8.53 96.36, -1.89 86.04, 0 71.41 M23.8 95.22 C7.38 95.68, -0.2 87.12, 0 71.41 M0 71.41 C-1.07 63.08, -1.45 51.04, 0 23.8 M0 71.41 C-0.17 59.55, 0 47.6, 0 23.8 M0 23.8 C0.22 7.89, 7.97 1.64, 23.8 0 M0 23.8 C-0.22 6.6, 8.77 -0.76, 23.8 0" stroke="#1e1e1e" stroke-width="2" fill="none"></path></g><g transform="translate(904.1612752278645 860.516103108724) rotate(0 67.5799560546875 25)"><text x="67.5799560546875" y="0" font-family="Virgil, Segoe UI Emoji" font-size="20px" fill="#1e1e1e" text-anchor="middle" style="white-space: pre;" direction="ltr" dominant-baseline="text-before-edge">添加至</text><text x="67.5799560546875" y="25" font-family="Virgil, Segoe UI Emoji" font-size="20px" fill="#1e1e1e" text-anchor="middle" style="white-space: pre;" direction="ltr" dominant-baseline="text-before-edge">cache 和 keys</text></g><g stroke-linecap="round"><g transform="translate(234.4585099849278 1013.0253966828283) rotate(0 -0.8328684010916731 62.6348368326822)"><path d="M0.12 0.79 C-0.51 21.78, -2.29 105.25, -2.6 126.02 M-1.28 0.17 C-1.63 20.8, -0.17 103.18, -0.38 124.3" stroke="#1e1e1e" stroke-width="2" fill="none"></path></g><g transform="translate(234.4585099849278 1013.0253966828283) rotate(0 -0.8328684010916731 62.6348368326822)"><path d="M-9.05 100.85 C-4.29 108.53, -0.94 119.19, -0.38 124.3 M-9.05 100.85 C-6.58 107.64, -4.13 116.11, -0.38 124.3" stroke="#1e1e1e" stroke-width="2" fill="none"></path></g><g transform="translate(234.4585099849278 1013.0253966828283) rotate(0 -0.8328684010916731 62.6348368326822)"><path d="M8.05 100.76 C6.07 108.49, 2.67 119.19, -0.38 124.3 M8.05 100.76 C5.15 107.7, 2.25 116.19, -0.38 124.3" stroke="#1e1e1e" stroke-width="2" fill="none"></path></g></g><mask></mask><g stroke-linecap="round"><g transform="translate(233.0931275405594 915.6365823924637) rotate(0 0.22350662360048545 26.481401915311267)"><path d="M-0.94 0.75 C-0.9 9.48, -0.07 44.28, 0.36 53.13 M0.77 0.1 C0.64 8.98, -0.75 46.12, -0.63 54.75" stroke="#1e1e1e" stroke-width="2" fill="none"></path></g></g><mask></mask><g transform="translate(225.94635009765648 979.0110127310052) rotate(0 10 12.5)"><text x="0" y="0" font-family="Virgil, Segoe UI Emoji" font-size="20px" fill="#1e1e1e" text-anchor="start" style="white-space: pre;" direction="ltr" dominant-baseline="text-before-edge">是</text></g><g stroke-linecap="round" transform="translate(105.40883382161485 1141.1917114257812) rotate(0 132.97068277994794 40.44275919596362)"><path d="M5.38 4.68 C5.38 4.68, 5.38 4.68, 5.38 4.68 M5.38 4.68 C5.38 4.68, 5.38 4.68, 5.38 4.68 M4.2 18.23 C9.28 13.02, 11.35 7.4, 16.01 4.64 M4.2 18.23 C6.19 15.59, 10.66 10.48, 16.01 4.64 M3.68 31.02 C12.13 22.29, 19.1 13.85, 25.99 5.36 M3.68 31.02 C10.64 22.87, 19.47 13.71, 25.99 5.36 M3.81 43.07 C11.88 31.19, 20.58 22.64, 36.62 5.33 M3.81 43.07 C15.22 31.05, 24.83 17.59, 36.62 5.33 M3.95 55.11 C14.1 42.12, 26.24 29.7, 47.25 5.3 M3.95 55.11 C20.16 37.77, 35.83 18.51, 47.25 5.3 M3.42 67.9 C18.03 52.31, 32.62 34.52, 57.88 5.26 M3.42 67.9 C23.9 44.07, 44.71 19.94, 57.88 5.26 M6.84 76.17 C26.25 54.64, 42.85 34.13, 68.51 5.23 M6.84 76.17 C19.87 61.56, 32.01 47.87, 68.51 5.23 M12.88 81.42 C29.56 61.58, 45.45 46.44, 79.14 5.19 M12.88 81.42 C26.5 66.67, 39.87 50.27, 79.14 5.19 M22.19 82.89 C42.4 57.58, 65.57 33.62, 89.77 5.16 M22.19 82.89 C48.68 50.56, 76.11 21.41, 89.77 5.16 M32.82 82.86 C48.5 64.29, 60.66 50.43, 100.4 5.12 M32.82 82.86 C49.17 62.94, 68.19 41.34, 100.4 5.12 M43.45 82.82 C61.24 66.04, 74.37 44.71, 111.03 5.09 M43.45 82.82 C68.88 54.06, 94.25 24.56, 111.03 5.09 M54.08 82.79 C76.06 58.47, 95.19 33.44, 121.66 5.05 M54.08 82.79 C73.47 59.33, 92.45 37.38, 121.66 5.05 M64.71 82.75 C89.19 54.22, 117.3 22.62, 132.29 5.02 M64.71 82.75 C87.79 56.14, 110.06 29.68, 132.29 5.02 M75.34 82.72 C96.32 61.13, 115.38 38.84, 142.92 4.99 M75.34 82.72 C99.54 57.5, 122.13 30.9, 142.92 4.99 M85.97 82.69 C110.5 53.03, 139.36 19.6, 153.55 4.95 M85.97 82.69 C112.3 53.35, 137.33 24.35, 153.55 4.95 M96.6 82.65 C113.08 64.67, 126.88 46.4, 164.18 4.92 M96.6 82.65 C116.83 58.07, 138.22 32.91, 164.18 4.92 M107.23 82.62 C126.7 62.66, 146.18 41.94, 174.81 4.88 M107.23 82.62 C134.33 52.75, 159.9 23.81, 174.81 4.88 M117.86 82.58 C139.84 59.93, 160.69 34.29, 185.44 4.85 M117.86 82.58 C134.71 61.63, 152.25 42.33, 185.44 4.85 M128.49 82.55 C150.42 60.37, 170.98 33.51, 196.07 4.81 M128.49 82.55 C148.85 58.42, 170.01 34.11, 196.07 4.81 M139.12 82.51 C165.59 54.53, 190.42 25.01, 206.04 5.53 M139.12 82.51 C155.06 64.17, 170.08 45.4, 206.04 5.53 M149.75 82.48 C177.24 51.14, 202.92 21.17, 216.67 5.5 M149.75 82.48 C168.7 60.13, 189.57 35.31, 216.67 5.5 M160.38 82.44 C182.68 55.03, 209.39 27.16, 227.3 5.46 M160.38 82.44 C175.48 64, 192.87 45.59, 227.3 5.46 M171.01 82.41 C191.41 60.52, 210.16 39, 237.93 5.43 M171.01 82.41 C185.37 66.24, 200.12 48.2, 237.93 5.43 M181.64 82.38 C204.1 59.09, 225.7 32.94, 249.87 3.89 M181.64 82.38 C204.82 55.45, 226.97 28.18, 249.87 3.89 M191.62 83.1 C217.9 53.38, 241.63 22.49, 259.19 5.36 M191.62 83.1 C209.07 61.91, 226.87 41.58, 259.19 5.36 M202.25 83.06 C226.35 57.29, 247.92 30.48, 265.89 9.85 M202.25 83.06 C220.7 61.38, 238.71 40.75, 265.89 9.85 M212.88 83.03 C232.1 63.35, 249.99 42.33, 269.3 18.12 M212.88 83.03 C234 59.32, 253.33 36.74, 269.3 18.12 M223.51 82.99 C235.67 69.28, 250.92 50.92, 269.43 30.16 M223.51 82.99 C238.58 66.33, 252.87 49.6, 269.43 30.16 M234.14 82.96 C244.43 70.15, 255.49 56.22, 268.91 42.96 M234.14 82.96 C246.98 68.37, 259.87 52.03, 268.91 42.96 M246.08 81.41 C248.83 74.09, 255.62 69.87, 269.04 55 M246.08 81.41 C254.29 72.45, 263.39 62.05, 269.04 55" stroke="#e9ecef" stroke-width="1" fill="none"></path><path d="M20.22 0 C79.45 -0.05, 138.87 -2.3, 245.72 0 M20.22 0 C98.47 -1.7, 174.72 -1.52, 245.72 0 M245.72 0 C259 -1.08, 267.69 8.55, 265.94 20.22 M245.72 0 C261.4 -1.05, 267.35 5.33, 265.94 20.22 M265.94 20.22 C265.14 28.57, 266.22 42.25, 265.94 60.66 M265.94 20.22 C265.37 31.77, 264.83 42.86, 265.94 60.66 M265.94 60.66 C266.28 75.12, 260.47 79.24, 245.72 80.89 M265.94 60.66 C265.98 75.04, 261.29 82.24, 245.72 80.89 M245.72 80.89 C196.25 78.67, 145.95 79.93, 20.22 80.89 M245.72 80.89 C186.34 80.31, 126.06 81.4, 20.22 80.89 M20.22 80.89 C5.76 79.95, -0.86 72.51, 0 60.66 M20.22 80.89 C6.41 80.99, -2.04 73.01, 0 60.66 M0 60.66 C-0.62 44.97, 0.9 33.49, 0 20.22 M0 60.66 C0.2 51.54, 0.49 41.41, 0 20.22 M0 20.22 C1.26 6.04, 5.92 -0.55, 20.22 0 M0 20.22 C2.13 4.93, 8.06 -0.22, 20.22 0" stroke="#1e1e1e" stroke-width="2" fill="none"></path></g><g transform="translate(191.6595382690432 1169.1344706217449) rotate(0 46.71997833251953 12.5)"><text x="46.71997833251953" y="0" font-family="Virgil, Segoe UI Emoji" font-size="20px" fill="#1e1e1e" text-anchor="middle" style="white-space: pre;" direction="ltr" dominant-baseline="text-before-edge">更新 Keys</text></g><g stroke-linecap="round"><g transform="translate(374.7276814778645 1182.5259399414062) rotate(0 43.2391357421875 0)"><path d="M-0.79 0.34 C13.66 0.41, 72.16 -0.46, 86.67 -0.51 M0.99 -0.53 C15.31 -0.22, 71.76 0.44, 85.82 0.76" stroke="#1e1e1e" stroke-width="2" fill="none"></path></g></g><mask></mask><g transform="translate(467.99397786458326 1167.0561726888022) rotate(0 165.1898956298828 12.5)"><text x="0" y="0" font-family="Virgil, Segoe UI Emoji" font-size="20px" fill="#1e1e1e" text-anchor="start" style="white-space: pre;" direction="ltr" dominant-baseline="text-before-edge">vnode.componentInstance 存在实例</text></g><g stroke-linecap="round"><g transform="translate(803.3177693684895 1181.416463704154) rotate(0 40.28398592516578 -1.2101997951490375)"><path d="M0.86 0.17 C14.64 -0.26, 68.41 -2.71, 81.67 -3.25 M-0.14 -0.78 C13.67 -1.03, 68.01 -1.92, 81.29 -2.15" stroke="#1e1e1e" stroke-width="2" fill="none"></path></g><g transform="translate(803.3177693684895 1181.416463704154) rotate(0 40.28398592516578 -1.2101997951490375)"><path d="M57.95 6.79 C63.29 6.54, 66.63 2.56, 81.29 -2.15 M57.95 6.79 C63.88 3.85, 68.45 2.77, 81.29 -2.15" stroke="#1e1e1e" stroke-width="2" fill="none"></path></g><g transform="translate(803.3177693684895 1181.416463704154) rotate(0 40.28398592516578 -1.2101997951490375)"><path d="M57.66 -10.31 C62.98 -6.9, 66.37 -7.21, 81.29 -2.15 M57.66 -10.31 C63.53 -9.07, 68.17 -5.96, 81.29 -2.15" stroke="#1e1e1e" stroke-width="2" fill="none"></path></g></g><mask></mask><g stroke-linecap="round" transform="translate(886.009012858073 1120.9713745117188) rotate(0 106.24409993489576 51.1217753092447)"><path d="M1.77 41.29 C1.77 41.29, 1.77 41.29, 1.77 41.29 M1.77 41.29 C1.77 41.29, 1.77 41.29, 1.77 41.29 M2.56 52.58 C11.44 42.52, 18.7 32, 24.87 26.92 M2.56 52.58 C10.5 43.51, 16.85 36.16, 24.87 26.92 M3.35 63.86 C20.15 42.44, 41.8 22.62, 53.21 6.5 M3.35 63.86 C14.69 50.94, 24.27 38.68, 53.21 6.5 M9.39 69.11 C29.52 46.65, 48.44 25.4, 65.15 4.96 M9.39 69.11 C25.03 52.76, 37.9 35.6, 65.15 4.96 M15.42 74.36 C31.55 57.02, 48.63 35.91, 77.75 2.66 M15.42 74.36 C29.01 59.09, 40.8 42.01, 77.75 2.66 M21.46 79.61 C37.29 63.3, 51.8 48.86, 90.35 0.36 M21.46 79.61 C41.89 57.36, 61.26 35.12, 90.35 0.36 M27.5 84.86 C47.98 60.98, 66.07 38.31, 99.01 2.59 M27.5 84.86 C46.74 61.73, 67.13 38.82, 99.01 2.59 M34.85 88.6 C65.08 54.5, 94.06 22.09, 108.98 3.31 M34.85 88.6 C56.13 64.1, 77.96 38.64, 108.98 3.31 M42.2 92.33 C57.85 72.49, 72.68 57.73, 118.96 4.03 M42.2 92.33 C60.01 69.52, 79.92 48.06, 118.96 4.03 M49.55 96.07 C67.32 73.02, 88.19 51.85, 128.93 4.75 M49.55 96.07 C73.35 68.28, 97.6 40.33, 128.93 4.75 M56.9 99.81 C81.74 71.8, 105.87 44.1, 140.22 3.96 M56.9 99.81 C81.4 72.11, 106.71 43.42, 140.22 3.96 M66.87 100.53 C91.12 69.82, 118.04 39.8, 148.88 6.19 M66.87 100.53 C90.41 72.34, 113.76 45.32, 148.88 6.19 M76.19 102.01 C90.85 82.8, 108.84 63.58, 157.54 8.42 M76.19 102.01 C95.68 78.58, 116.09 55.83, 157.54 8.42 M86.17 102.73 C111.97 73.49, 137.32 45.6, 166.2 10.65 M86.17 102.73 C113.39 70.81, 139.23 39.75, 166.2 10.65 M96.8 102.69 C119.26 80.85, 138.16 54.41, 174.87 12.88 M96.8 102.69 C116.03 79.99, 135.61 58.88, 174.87 12.88 M108.08 101.9 C139.11 67.77, 167.11 37.21, 182.22 16.62 M108.08 101.9 C130.24 77.82, 153.02 51.42, 182.22 16.62 M119.37 101.11 C144.31 70.5, 174.15 37.3, 188.25 21.87 M119.37 101.11 C141.03 77.87, 161.61 51.81, 188.25 21.87 M130 101.08 C142.83 87.03, 158.71 69.17, 194.95 26.36 M130 101.08 C150.98 76.22, 173.33 50.33, 194.95 26.36 M141.28 100.29 C155.81 86.5, 165.85 69.12, 202.3 30.1 M141.28 100.29 C163.67 75.71, 184.15 50.68, 202.3 30.1 M155.19 96.48 C168.65 77.68, 187.37 62.67, 205.71 38.37 M155.19 96.48 C175.05 72.94, 194.19 50.87, 205.71 38.37 M169.76 91.92 C183.61 79.83, 195.76 64.78, 209.12 46.64 M169.76 91.92 C184.1 75.54, 197.82 59.19, 209.12 46.64 M181.05 91.13 C191.43 79.32, 202.58 67.86, 213.85 53.4 M181.05 91.13 C190.14 79.38, 200.4 69.38, 213.85 53.4" stroke="#e9ecef" stroke-width="1" fill="none"></path><path d="M94.57 -0.62 C108.12 -2.18, 124.01 -0.09, 137.73 2.09 C151.44 4.27, 166.18 7.72, 176.87 12.44 C187.56 17.16, 196.1 23.94, 201.88 30.39 C207.67 36.85, 211.26 44.41, 211.58 51.17 C211.89 57.93, 209.39 64.85, 203.77 70.95 C198.14 77.05, 188.5 83.05, 177.84 87.77 C167.17 92.49, 153.47 96.98, 139.78 99.28 C126.09 101.58, 110 102, 95.68 101.56 C81.37 101.12, 66.19 100.1, 53.91 96.63 C41.64 93.16, 30.55 86.27, 22.05 80.72 C13.56 75.18, 6.29 69.96, 2.94 63.36 C-0.42 56.75, -0.86 47.95, 1.94 41.1 C4.73 34.24, 11.29 28.02, 19.7 22.23 C28.11 16.43, 38.11 9.93, 52.4 6.3 C66.69 2.68, 94.71 1.19, 105.44 0.47 C116.18 -0.26, 116.71 1.19, 116.82 1.96 M57.59 5.73 C69.28 2.34, 85.68 1.54, 100 1.11 C114.32 0.68, 129.9 0.78, 143.52 3.15 C157.15 5.53, 171.63 10.64, 181.74 15.35 C191.85 20.07, 199.01 25.22, 204.17 31.45 C209.33 37.67, 213.37 45.63, 212.71 52.69 C212.05 59.76, 206.5 67.34, 200.21 73.83 C193.92 80.31, 185.79 87.27, 174.99 91.6 C164.18 95.93, 149.51 98.28, 135.38 99.8 C121.24 101.33, 104.36 101.72, 90.2 100.73 C76.05 99.74, 62.27 97.17, 50.45 93.85 C38.63 90.52, 27.42 86.51, 19.27 80.79 C11.13 75.07, 4.22 66.68, 1.59 59.53 C-1.05 52.38, -0.35 44.76, 3.45 37.9 C7.25 31.04, 15.33 23.8, 24.4 18.38 C33.46 12.96, 52.25 7.49, 57.83 5.4 C63.42 3.31, 57.33 4.99, 57.89 5.84" stroke="#1e1e1e" stroke-width="2" fill="none"></path></g><g transform="translate(940.5272136820051 1159.4445958335014) rotate(0 51.5999755859375 12.5)"><text x="51.5999755859375" y="0" font-family="Virgil, Segoe UI Emoji" font-size="20px" fill="#1e1e1e" text-anchor="middle" style="white-space: pre;" direction="ltr" dominant-baseline="text-before-edge">返回 vnode</text></g><g stroke-linecap="round"><g transform="translate(997.7087243408926 1035.2579523123554) rotate(0 0.42030273956788733 38.625121497153316)"><path d="M1.11 -0.02 C1.29 13.15, 1.51 65.1, 1.51 77.97 M0.23 -1.08 C0.27 11.85, 0.88 62.96, 0.91 76.23" stroke="#1e1e1e" stroke-width="2" fill="none"></path></g><g transform="translate(997.7087243408926 1035.2579523123554) rotate(0 0.42030273956788733 38.625121497153316)"><path d="M-7.82 52.8 C-5.12 61.75, -0.93 68.92, 0.91 76.23 M-7.82 52.8 C-6.06 59.46, -2.69 66.28, 0.91 76.23" stroke="#1e1e1e" stroke-width="2" fill="none"></path></g><g transform="translate(997.7087243408926 1035.2579523123554) rotate(0 0.42030273956788733 38.625121497153316)"><path d="M9.28 52.67 C6.21 61.82, 4.62 69.03, 0.91 76.23 M9.28 52.67 C5.94 59.48, 4.2 66.33, 0.91 76.23" stroke="#1e1e1e" stroke-width="2" fill="none"></path></g></g><mask></mask><g stroke-linecap="round"><g transform="translate(996.1886272150384 943.2025934256366) rotate(0 0.2235066236004286 26.481401915311267)"><path d="M0.67 0.72 C0.59 9.55, 0.65 44.12, 0.67 52.95 M-0.44 0.06 C-0.75 9.09, -0.27 45.86, -0.16 54.47" stroke="#1e1e1e" stroke-width="2" fill="none"></path></g></g><mask></mask><g transform="translate(834.7520955403645 1001.2435683605323) rotate(0 184.57984924316406 12.5)"><text x="0" y="0" font-family="Virgil, Segoe UI Emoji" font-size="20px" fill="#1e1e1e" text-anchor="start" style="white-space: pre;" direction="ltr" dominant-baseline="text-before-edge">vnode.componentInstance 为 undefined</text></g></svg>