<svg version="1.1" xmlns="http://www.w3.org/2000/svg" viewBox="0 0 978.5935058593744 517.66582253531" width="978.5935058593744" height="517.66582253531">
  <!-- svg-source:excalidraw -->
  
  <defs>
    <style class="style-fonts">
      @font-face {
        font-family: "Virgil";
        src: url("https://excalidraw.com/Virgil.woff2");
      }
      @font-face {
        font-family: "Cascadia";
        src: url("https://excalidraw.com/Cascadia.woff2");
      }
      @font-face {
        font-family: "Assistant";
        src: url("https://excalidraw.com/Assistant-Regular.woff2");
      }
    </style>
    
  </defs>
  <g transform="translate(49.853271484375 15.74273681640625) rotate(0 50.75 9.599999999999994)"><text x="0" y="0" font-family="Cascadia, Segoe UI Emoji" font-size="16px" fill="#1e1e1e" text-anchor="start" style="white-space: pre;" direction="ltr" dominant-baseline="text-before-edge">OSI 七层模型</text></g><g stroke-linecap="round" transform="translate(16.31414794921875 57.739227294921875) rotate(0 81.48162841796875 24.482955932617188)"><path d="M-0.14 0.54 L161.24 3.65 L165.81 51.07 L2.85 51.23" stroke="none" stroke-width="0" fill="#e7f5ff"></path><path d="M-0.52 2.97 C45.78 -2.51, 83.22 -4.54, 161.16 -2.68 M0.06 0.94 C50.25 2.05, 99.03 4.49, 162.1 -0.13 M166.36 0.37 C166.62 16.9, 163.98 38.87, 159.42 51.9 M164.93 -0.94 C164.15 14.21, 163.75 26.05, 161.12 50.54 M159.44 50.28 C109.65 45.81, 50.01 50.73, 1.81 47.41 M162.37 47.45 C120.54 44.18, 81.67 47.39, 1 49.06 M-1.88 47.94 C2.57 33.75, -0.93 10.6, -1.96 0.33 M0.36 49.72 C0.55 29.83, 0.74 9.8, -0.73 0.02" stroke="#1e1e1e" stroke-width="2" fill="none"></path></g><g transform="translate(64.4207763671875 72.62218322753904) rotate(0 33.375 9.599999999999994)"><text x="33.375" y="0" font-family="Cascadia, Segoe UI Emoji" font-size="16px" fill="#1e1e1e" text-anchor="middle" style="white-space: pre;" direction="ltr" dominant-baseline="text-before-edge">7.应用层</text></g><g stroke-linecap="round" transform="translate(15.54266357421875 121.28883361816406) rotate(0 81.48162841796875 24.482955932617188)"><path d="M0.96 -1.58 L163.73 2.9 L165.33 51.02 L-0.51 48" stroke="none" stroke-width="0" fill="#e7f5ff"></path><path d="M0.42 -1.99 C39.7 -2.74, 76.16 1.93, 162.1 1.92 M1.12 1.07 C43.61 -1.49, 87.37 -1.73, 162.72 -1.92 M163.88 0.76 C160.34 11.66, 167.44 21.6, 158.98 50.72 M161.7 1.97 C162.83 15.75, 163.48 28.28, 163.75 50.68 M160.69 45.2 C115.5 51.95, 68.56 48.14, -3.6 46.62 M164 49.22 C110.54 47.91, 62.47 48.42, 0.57 48.36 M0.9 48.21 C-0.7 29.78, 2.67 17.45, 1.23 1.23 M-1.93 48.27 C-2.52 32.28, -1.25 14.73, -0.53 -1.22" stroke="#1e1e1e" stroke-width="2" fill="none"></path></g><g transform="translate(63.6492919921875 136.17178955078126) rotate(0 33.375 9.599999999999994)"><text x="33.375" y="0" font-family="Cascadia, Segoe UI Emoji" font-size="16px" fill="#1e1e1e" text-anchor="middle" style="white-space: pre;" direction="ltr" dominant-baseline="text-before-edge">6.表示层</text></g><g stroke-linecap="round" transform="translate(15.2850341796875 189.26051330566406) rotate(0 81.48162841796875 24.482955932617188)"><path d="M2.36 2.06 L162.45 -0.96 L163.9 46.7 L3.99 52.35" stroke="none" stroke-width="0" fill="#e7f5ff"></path><path d="M0.37 1.38 C39.92 4.59, 80.52 0.23, 166.1 2.25 M-1.84 0.82 C57.39 -3.66, 114.32 -0.34, 161.04 0.46 M166.75 -3.07 C158.17 17.38, 162.02 29.69, 162.19 46.43 M163.86 -0.79 C163.88 21.22, 162.79 39.75, 162.72 47.83 M161.44 48.55 C125.82 49.38, 96.42 49.75, -1.03 51.03 M164.8 49.26 C112.54 48.01, 61.39 46.97, -1.23 49.42 M1.86 48.86 C1.6 36.44, 1.69 24.54, -2.07 -3.86 M-0.49 47.33 C0.34 34.76, 1.35 22.22, 0.38 1.45" stroke="#1e1e1e" stroke-width="2" fill="none"></path></g><g transform="translate(63.39166259765625 204.14346923828126) rotate(0 33.375 9.599999999999994)"><text x="33.375" y="0" font-family="Cascadia, Segoe UI Emoji" font-size="16px" fill="#1e1e1e" text-anchor="middle" style="white-space: pre;" direction="ltr" dominant-baseline="text-before-edge">5.会话层</text></g><g stroke-linecap="round" transform="translate(14.04669189453125 254.7748565673828) rotate(0 81.48162841796875 24.482955932617188)"><path d="M0.94 -2.27 L166.95 3.38 L166.68 52.18 L-1.56 48.01" stroke="none" stroke-width="0" fill="#e7f5ff"></path><path d="M-1.05 -2.44 C57.65 0.68, 111.16 -3.55, 165.11 -3.68 M-0.96 1.4 C53.67 3.58, 111.58 1.47, 162.62 1.9 M162.84 -1.55 C161.22 8.4, 165.92 22.35, 165.4 50.76 M162.66 0.75 C163.1 11.62, 161.47 25.01, 164.66 48.21 M163.52 46.99 C114.75 49.12, 69.11 44.53, -0.43 52.63 M163.38 47.32 C110.43 48.43, 59.98 47.23, -1.74 49.9 M1.32 52.06 C-2.38 30.55, -1.7 16.31, -0.76 -0.98 M0.48 48.18 C0.64 39.73, 1.44 28.62, -0.26 -0.48" stroke="#1e1e1e" stroke-width="2" fill="none"></path></g><g transform="translate(62.1533203125 269.6578125) rotate(0 33.375 9.600000000000001)"><text x="33.375" y="0" font-family="Cascadia, Segoe UI Emoji" font-size="16px" fill="#1e1e1e" text-anchor="middle" style="white-space: pre;" direction="ltr" dominant-baseline="text-before-edge">4.运输层</text></g><g stroke-linecap="round" transform="translate(12.39996337890625 320.23182678222656) rotate(0 81.48162841796875 24.482955932617188)"><path d="M3.72 3.21 L161.41 -0.95 L162.01 52.92 L2.35 51.81" stroke="none" stroke-width="0" fill="#e7f5ff"></path><path d="M2.15 -1.99 C41.08 -5.51, 79.51 -2.32, 159.13 -1.92 M0.38 -1.66 C59.99 1.15, 119.13 -2.74, 163.84 -0.06 M166.89 0.5 C165.21 14.58, 161.2 27.16, 166.4 48.37 M161.08 -0.51 C164.53 15.76, 162.63 31.25, 161.79 49.25 M163.48 46.44 C121.68 54.31, 81.85 51.78, -1.21 49.8 M162.58 48.21 C125.72 50.63, 91.91 50.32, 0.62 49.62 M-1.4 45.44 C-0.25 29.51, -2.76 10.94, -2.45 0.96 M1.18 50 C-0.44 35.73, 0.28 22.32, 1.99 1.69" stroke="#1e1e1e" stroke-width="2" fill="none"></path></g><g transform="translate(60.506591796875 335.1147827148437) rotate(0 33.375 9.6)"><text x="33.375" y="0" font-family="Cascadia, Segoe UI Emoji" font-size="16px" fill="#1e1e1e" text-anchor="middle" style="white-space: pre;" direction="ltr" dominant-baseline="text-before-edge">3.网络层</text></g><g stroke-linecap="round" transform="translate(12.085693359375 385.6891632080078) rotate(0 81.48162841796875 24.482955932617188)"><path d="M-0.96 3.95 L165.32 2.84 L163.52 46.07 L2.52 46.21" stroke="none" stroke-width="0" fill="#e7f5ff"></path><path d="M1.65 -0.49 C36.93 1.08, 84.34 -0.86, 163.88 0.76 M-1.54 -1.99 C36.26 -3.15, 70 -3.48, 161.7 1.97 M161.39 1.58 C167 14.7, 165.06 30.11, 160.69 45.2 M162.75 -1.8 C162.62 13.72, 162.81 26.38, 164 49.22 M163.56 50.1 C123.16 52.78, 82.48 49.49, 0.9 48.21 M162.91 49.58 C120.83 51.14, 79.01 49.45, -1.93 48.27 M-3.27 47.91 C-2.26 39.56, -1.4 28.99, 2.9 2.36 M0.47 47.83 C2.12 33.45, 1.99 16.15, -0.78 -0.48" stroke="#1e1e1e" stroke-width="2" fill="none"></path></g><g transform="translate(44.19232177734375 400.572119140625) rotate(0 49.375 9.599999999999998)"><text x="49.375" y="0" font-family="Cascadia, Segoe UI Emoji" font-size="16px" fill="#1e1e1e" text-anchor="middle" style="white-space: pre;" direction="ltr" dominant-baseline="text-before-edge">2.数据链路层</text></g><g stroke-linecap="round" transform="translate(10 453.34645080566406) rotate(0 81.48162841796875 24.482955932617188)"><path d="M0.55 -2.9 L165.49 -2.76 L166.19 52.46 L-2.93 47.41" stroke="none" stroke-width="0" fill="#e7f5ff"></path><path d="M2.81 -3.86 C47.79 2.33, 90.44 0.89, 166.75 -3.07 M-0.78 -0.39 C31.39 2.07, 65.57 1.32, 163.86 -0.79 M164.46 -0.5 C161.53 12.86, 162.79 36.64, 161.44 48.55 M161.98 -0.52 C163.42 10.55, 161.13 20.36, 164.8 49.26 M159.68 46.5 C110.35 48.89, 54.43 46.16, 1.86 48.86 M164.51 47.93 C107.12 49.34, 53.36 49.66, -0.49 47.33 M-1.58 49.73 C3.5 37.93, 2.66 21.66, -0.96 0.94 M1.86 50.57 C-1.75 36.58, -1.46 27.11, 1.18 1.42" stroke="#1e1e1e" stroke-width="2" fill="none"></path></g><g transform="translate(58.10662841796875 468.2294067382812) rotate(0 33.375 9.599999999999994)"><text x="33.375" y="0" font-family="Cascadia, Segoe UI Emoji" font-size="16px" fill="#1e1e1e" text-anchor="middle" style="white-space: pre;" direction="ltr" dominant-baseline="text-before-edge">1.物理层</text></g><g transform="translate(378.4523925781251 10) rotate(0 64.8125 9.599999999999994)"><text x="0" y="0" font-family="Cascadia, Segoe UI Emoji" font-size="16px" fill="#1e1e1e" text-anchor="start" style="white-space: pre;" direction="ltr" dominant-baseline="text-before-edge">TCP/IP 四层模型</text></g><g stroke-linecap="round" transform="translate(327.50897216796886 51.08367919921875) rotate(0 126.62713623046864 88.40977478027345)"><path d="M-3.38 -2.38 L250.59 0.07 L254.1 180.65 L-0.73 180.5" stroke="none" stroke-width="0" fill="#e7f5ff"></path><path d="M2.1 1.47 C60.12 2.46, 120.32 -3.01, 255.1 0.12 M-0.51 1.61 C99.47 -1.47, 200.59 -3.14, 251.75 1.52 M251.46 -1.01 C255.18 59.55, 254.58 109.44, 255.82 177.11 M251.51 -0.35 C251.1 40.97, 249.21 80.35, 253.47 176.28 M250.78 174.61 C182.81 177.2, 114.46 179.62, -2.12 173.98 M253.15 175.4 C188.63 178.85, 123.55 179.82, 1.53 178.22 M1.71 178.37 C-4.63 115.57, -0.13 50.84, -3.68 0.29 M0.55 176.32 C-3.16 141.13, -3.21 103.95, -0.11 -1.17" stroke="#1e1e1e" stroke-width="2" fill="none"></path></g><g transform="translate(373.8861083984376 110.6934539794922) rotate(0 80.25 28.799999999999997)"><text x="80.25" y="0" font-family="Cascadia, Segoe UI Emoji" font-size="16px" fill="#1e1e1e" text-anchor="middle" style="white-space: pre;" direction="ltr" dominant-baseline="text-before-edge">应用层</text><text x="80.25" y="19.2" font-family="Cascadia, Segoe UI Emoji" font-size="16px" fill="#1e1e1e" text-anchor="middle" style="white-space: pre;" direction="ltr" dominant-baseline="text-before-edge">(各种应用层协议，如</text><text x="80.25" y="38.4" font-family="Cascadia, Segoe UI Emoji" font-size="16px" fill="#1e1e1e" text-anchor="middle" style="white-space: pre;" direction="ltr" dominant-baseline="text-before-edge">DNS、HTTP、SMTP等)</text></g><g stroke-linecap="round" transform="translate(324.9953002929691 251.4730682373047) rotate(0 126.62713623046875 28.892135620117188)"><path d="M-1.42 0.51 L250.8 -2.42 L251.89 56.09 L2.51 54.58" stroke="none" stroke-width="0" fill="#e7f5ff"></path><path d="M1.49 -0.68 C75.34 -2.29, 145.16 -4.32, 251.32 -1.64 M0.1 -0.41 C101.08 2.25, 198.9 3.53, 253.87 0.89 M251.35 -2.11 C250.52 17.19, 252.52 33.05, 254.08 60.51 M252.74 -1.87 C253.29 23.84, 252.84 45.62, 253.71 56.01 M252.12 54.58 C175.46 58.47, 100.11 59.46, 0.51 56.55 M253.55 57.91 C202.52 57.82, 148.71 58.25, -0.22 59.16 M-1.37 55.43 C0.28 38.57, 3.15 11.03, 2.91 2.27 M-1.71 59.05 C2.44 47.15, 0.34 33.03, 0.53 1.42" stroke="#1e1e1e" stroke-width="2" fill="none"></path></g><g transform="translate(382.12243652343784 270.76520385742185) rotate(0 69.5 9.600000000000001)"><text x="69.5" y="0" font-family="Cascadia, Segoe UI Emoji" font-size="16px" fill="#1e1e1e" text-anchor="middle" style="white-space: pre;" direction="ltr" dominant-baseline="text-before-edge">运输层(TCP或UDP)</text></g><g stroke-linecap="round" transform="translate(326.4256591796877 326.52442932128906) rotate(0 126.6271362304687 23.97099304199219)"><path d="M-1.36 -1.69 L255.77 -3.21 L256.41 45.56 L1.26 48.41" stroke="none" stroke-width="0" fill="#e7f5ff"></path><path d="M-0.39 -0.69 C68.73 -3.34, 144.35 -1.66, 250.32 0.2 M-0.19 -0.18 C70.2 4.6, 138.43 2.64, 253.99 -0.77 M253.28 3.65 C253.6 14.58, 256.41 27.48, 256.01 46.91 M251.75 0.46 C253.2 8.12, 252.69 19.95, 252.8 47.24 M250.61 50.55 C202.75 48.76, 148.21 50.31, 1.12 48.54 M253.36 46.99 C175.14 45.81, 99.03 43.95, 0.79 47.38 M2.81 47 C2.93 38.66, -3.84 21.67, 3.28 -3.42 M-0.58 46.73 C-0.2 31.94, -1.44 13.34, -1.23 -1.21" stroke="#1e1e1e" stroke-width="2" fill="none"></path></g><g transform="translate(419.67779541015636 340.8954223632812) rotate(0 33.375 9.6)"><text x="33.375" y="0" font-family="Cascadia, Segoe UI Emoji" font-size="16px" fill="#1e1e1e" text-anchor="middle" style="white-space: pre;" direction="ltr" dominant-baseline="text-before-edge">网络层IP</text></g><g stroke-linecap="round" transform="translate(329.6255493164066 396.12220764160156) rotate(0 126.62713623046875 53.55180358886717)"><path d="M3.16 -2.38 L254.52 0.47 L250.86 103.88 L-1.59 109.4" stroke="none" stroke-width="0" fill="#e7f5ff"></path><path d="M3.02 0.04 C67.67 2.28, 140.38 5.13, 250.33 -0.39 M-0.74 -1.07 C73.95 -3.04, 145.57 -3.07, 254.27 0.01 M256.89 3.78 C256.45 40.88, 249.95 81.71, 255.77 104.09 M253.2 0.16 C253.29 33.88, 251.77 67.59, 254.25 105.47 M250.22 107.42 C158.04 106.14, 60.84 108.72, -2.77 107.31 M254.82 106.62 C192.92 110.03, 130.06 110.56, 1.5 108.24 M-3.85 103.94 C1.72 74.09, 0.98 50.96, 2.28 -1.15 M-0.71 107.36 C-1.79 80.27, -1.25 55.01, 1.26 -1.6" stroke="#1e1e1e" stroke-width="2" fill="none"></path></g><g transform="translate(366.87768554687534 430.4740112304687) rotate(0 89.375 19.200000000000003)"><text x="89.375" y="0" font-family="Cascadia, Segoe UI Emoji" font-size="16px" fill="#1e1e1e" text-anchor="middle" style="white-space: pre;" direction="ltr" dominant-baseline="text-before-edge">网络接口层</text><text x="89.375" y="19.2" font-family="Cascadia, Segoe UI Emoji" font-size="16px" fill="#1e1e1e" text-anchor="middle" style="white-space: pre;" direction="ltr" dominant-baseline="text-before-edge">(这一层并没有具体内容)</text></g><g transform="translate(767.5099487304686 16.400146484375) rotate(0 64.8125 9.599999999999994)"><text x="0" y="0" font-family="Cascadia, Segoe UI Emoji" font-size="16px" fill="#1e1e1e" text-anchor="start" style="white-space: pre;" direction="ltr" dominant-baseline="text-before-edge">TCP/IP 五层模型</text></g><g stroke-linecap="round" transform="translate(715.3392333984372 48.04756164550781) rotate(0 126.62713623046864 88.40977478027345)"><path d="M1.12 -3.1 L250.99 -1.01 L249.32 175.17 L0.81 179.94" stroke="none" stroke-width="0" fill="#e7f5ff"></path><path d="M-2.01 2.65 C80.02 2.1, 162.69 -0.88, 250.2 0.93 M-1.08 0.65 C62.05 2.4, 126.59 3.1, 253.32 -0.28 M250.75 -2.86 C259.22 55.31, 255.53 107.42, 250.45 177.84 M255.01 1.53 C253.91 63.18, 253.64 127.88, 251.81 177.24 M252.14 173.9 C192.21 181, 125.64 178.4, -2.03 178.94 M252.74 177.69 C180.12 173.18, 106.55 172.91, -1.54 176.94 M1.98 177.66 C-4.16 109.61, -1.53 36.55, -2.9 2.53 M-1.95 175.12 C-0.87 139.9, -0.05 102.4, -0.4 -1.99" stroke="#1e1e1e" stroke-width="2" fill="none"></path></g><g transform="translate(808.5913696289059 126.85733642578128) rotate(0 33.375 9.599999999999994)"><text x="33.375" y="0" font-family="Cascadia, Segoe UI Emoji" font-size="16px" fill="#1e1e1e" text-anchor="middle" style="white-space: pre;" direction="ltr" dominant-baseline="text-before-edge">5.应用层</text></g><g stroke-linecap="round" transform="translate(713.1401367187499 247.96519470214844) rotate(0 126.62713623046875 28.892135620117188)"><path d="M-1.96 2.33 L252.46 -1.03 L251.58 59.64 L-0.89 60.91" stroke="none" stroke-width="0" fill="#e7f5ff"></path><path d="M-2.79 -1.19 C72.8 -1.95, 146.28 -2.49, 251.73 -0.47 M-1.56 0.99 C78.49 4.87, 158.55 3.44, 253.5 0.39 M253.97 -2.66 C250.1 16.26, 257.17 26.39, 250.67 53.81 M254.98 1.07 C253.34 15.7, 254.19 36.9, 254.34 58.14 M255.27 60.33 C153.97 57.41, 57.78 55.13, -0.86 56.21 M252.94 58.4 C165.03 57.81, 75.06 57.41, -0.27 58.82 M-2.99 59.54 C3.82 34.33, -1.61 12.66, 2.38 -1.87 M1.97 59.76 C-2.06 41.49, 0.52 29.38, 0.73 0.32" stroke="#1e1e1e" stroke-width="2" fill="none"></path></g><g transform="translate(806.3922729492186 267.2573303222656) rotate(0 33.375 9.600000000000001)"><text x="33.375" y="0" font-family="Cascadia, Segoe UI Emoji" font-size="16px" fill="#1e1e1e" text-anchor="middle" style="white-space: pre;" direction="ltr" dominant-baseline="text-before-edge">4.运输层</text></g><g stroke-linecap="round" transform="translate(712.7402343749999 329.80043029785156) rotate(0 126.62713623046875 23.97099304199219)"><path d="M-2.91 0.02 L250.94 0.98 L257.03 50.44 L0.57 49.38" stroke="none" stroke-width="0" fill="#e7f5ff"></path><path d="M0.04 -2.59 C60.94 1.48, 127.05 2.68, 254.25 0.32 M0.82 0.39 C80.06 1.53, 158.03 3.66, 254.61 -0.39 M251.69 1.05 C255.75 13.43, 253.37 18.65, 256.03 51.09 M253.56 -0.66 C254.67 18.55, 253.03 34.57, 254.37 47.14 M251.65 47.22 C183.37 51.32, 116.64 51.98, 0.29 49.03 M253.09 48.25 C180.28 51.59, 111.23 50.06, -0.7 47.05 M1.4 49.6 C4.38 34.66, -2.87 10.32, 1.85 2.07 M1.16 47.55 C-0.67 30.97, 0.78 15.23, 1.56 -1.88" stroke="#1e1e1e" stroke-width="2" fill="none"></path></g><g transform="translate(805.9923706054686 344.1714233398437) rotate(0 33.375 9.6)"><text x="33.375" y="0" font-family="Cascadia, Segoe UI Emoji" font-size="16px" fill="#1e1e1e" text-anchor="middle" style="white-space: pre;" direction="ltr" dominant-baseline="text-before-edge">3.网络层</text></g><g stroke-linecap="round" transform="translate(711.9116210937499 396.80079650878906) rotate(0 126.62713623046875 23.970993041992188)"><path d="M2.97 2.21 L256.29 -1.2 L250.69 51.51 L-0.34 46.1" stroke="none" stroke-width="0" fill="#e7f5ff"></path><path d="M-2.06 1.64 C79.26 -0.4, 154.81 -4.01, 255.36 2.7 M0.09 -0.63 C70.37 5.49, 140.76 4.52, 251.67 1.13 M256.83 0.61 C252.46 20.65, 256.91 35.53, 254.46 50.17 M254.3 -0.99 C252.55 12.07, 253.76 26.09, 254.42 48.12 M255.57 47.61 C169.43 48.15, 85.8 53.57, -1.62 46.54 M252.52 48.51 C191.93 47.62, 130.88 44.68, -1.28 48.69 M-1.96 50.27 C-1.14 30.05, -2.02 16.08, -0.89 3.12 M-1.16 48.43 C2.59 39.32, 0.98 28.92, -1.52 -1.61" stroke="#1e1e1e" stroke-width="2" fill="none"></path></g><g transform="translate(789.1637573242186 411.1717895507812) rotate(0 49.375 9.600000000000001)"><text x="49.375" y="0" font-family="Cascadia, Segoe UI Emoji" font-size="16px" fill="#1e1e1e" text-anchor="middle" style="white-space: pre;" direction="ltr" dominant-baseline="text-before-edge">2.数据链路层</text></g><g stroke-linecap="round" transform="translate(712.5687255859374 458.8292999267578) rotate(0 126.62713623046875 23.970993041992188)"><path d="M-0.16 2.17 L256.44 3.52 L253.14 47.76 L2.09 49.05" stroke="none" stroke-width="0" fill="#e7f5ff"></path><path d="M-3.23 0.18 C95.8 3.51, 196.93 4.4, 254.12 -3.18 M0.29 1.45 C93.79 -2.77, 188.09 -0.96, 252.93 0.49 M251.31 2.08 C250.89 16.15, 252.09 35.63, 255.58 50.28 M254.53 1.43 C253.37 15.2, 252.08 30.51, 255.11 46.94 M251.74 46.47 C189.37 51.73, 126.41 53.6, -2.69 45.39 M253.51 47.15 C166.5 49.12, 77.44 48.76, 0.75 47.58 M0.02 45.63 C1.88 33.59, 3.4 12.26, 1.44 -3.03 M1.52 47.34 C-2 39.2, -0.88 25.97, -1.11 -1.27" stroke="#1e1e1e" stroke-width="2" fill="none"></path></g><g transform="translate(805.8208618164061 473.20029296875) rotate(0 33.375 9.599999999999994)"><text x="33.375" y="0" font-family="Cascadia, Segoe UI Emoji" font-size="16px" fill="#1e1e1e" text-anchor="middle" style="white-space: pre;" direction="ltr" dominant-baseline="text-before-edge">1.物理层</text></g><g stroke-linecap="round"><g transform="translate(179.9521484375 239.58197021484375) rotate(0 77.94503784179688 -2.171478271484375)"><path d="M1.18 -3.55 C59.15 -3.77, 114.66 -5.65, 155.29 -2.24" stroke="#1e1e1e" stroke-width="2.5" fill="none" stroke-dasharray="8 10"></path></g></g><mask></mask><g stroke-linecap="round"><g transform="translate(184.5977783203125 57.41351318359375) rotate(0 70.15310668945312 -0.914306640625)"><path d="M0.34 0.22 C46.25 -0.76, 83.18 1.52, 141.53 -3.43" stroke="#1e1e1e" stroke-width="2.5" fill="none" stroke-dasharray="8 10"></path></g></g><mask></mask><g stroke-linecap="round"><g transform="translate(187.5775146484375 305.69024658203125) rotate(0 62.495758056640625 0.4571533203125)"><path d="M3.93 -0.5 C33.61 0.24, 60.69 2.47, 128.58 -2.44" stroke="#1e1e1e" stroke-width="2.5" fill="none" stroke-dasharray="8 10"></path></g></g><mask></mask><g stroke-linecap="round"><g transform="translate(186.79364013671875 368.5040283203125) rotate(0 66.77847290039062 2.68017578125)"><path d="M-2.05 3.04 C49.97 -1.24, 102.62 3.29, 131.53 5.29" stroke="#1e1e1e" stroke-width="2.5" fill="none" stroke-dasharray="8 10"></path></g></g><mask></mask><g stroke-linecap="round"><g transform="translate(585.1658935546874 50.4384765625) rotate(0 66.24740600585938 -0.22857666015625)"><path d="M-2.81 -1.87 C47.76 -0.4, 93.9 1.82, 135.36 -2.09" stroke="#1e1e1e" stroke-width="2.5" fill="none" stroke-dasharray="8 10"></path></g></g><mask></mask><g stroke-linecap="round"><g transform="translate(584.4244995117186 228.57528686523438) rotate(0 63.9952392578125 0.577545166015625)"><path d="M3.14 0.29 C36.62 5.95, 78.99 6.23, 125.39 -1.27" stroke="#1e1e1e" stroke-width="2.5" fill="none" stroke-dasharray="8 10"></path></g></g><mask></mask><g stroke-linecap="round"><g transform="translate(586.4880981445311 312.78826904296875) rotate(0 60.19024658203125 -3.2000732421875)"><path d="M-1.12 -2.19 C35.93 -6.54, 78.26 -4.74, 118.55 -2.69" stroke="#1e1e1e" stroke-width="2.5" fill="none" stroke-dasharray="8 10"></path></g></g><mask></mask><g stroke-linecap="round"><g transform="translate(581.4884643554686 377.63916015625) rotate(0 63.632080078125 -1.974273681640625)"><path d="M3.99 -1.98 C35.8 -2.96, 76.15 1.48, 125.42 -7.79" stroke="#1e1e1e" stroke-width="2.5" fill="none" stroke-dasharray="8 10"></path></g></g><mask></mask><g stroke-linecap="round"><g transform="translate(177.56207275390625 435.00177001953125) rotate(0 265.9579467773437 3.237548828125)"><path d="M0.01 -0.96 C134.6 0.58, 269.01 3.05, 532.85 5.05" stroke="#1e1e1e" stroke-width="2.5" fill="none" stroke-dasharray="8 10"></path></g></g><mask></mask><g stroke-linecap="round"><g transform="translate(175.8800048828125 501.04339599609375) rotate(0 270.0816345214843 3.065704345703125)"><path d="M0.09 0.52 C160.68 6.4, 320.69 8.3, 541.45 5.04" stroke="#1e1e1e" stroke-width="2.5" fill="none" stroke-dasharray="8 10"></path></g></g><mask></mask></svg>