<svg version="1.1" xmlns="http://www.w3.org/2000/svg" viewBox="0 0 1708.6655578613281 2362.768310546875" width="1708.6655578613281" height="2362.768310546875">
  <!-- svg-source:excalidraw -->
  
  <defs>
    <style class="style-fonts">
      @font-face {
        font-family: "Virgil";
        src: url("https://excalidraw.com/Virgil.woff2");
      }
      @font-face {
        font-family: "Cascadia";
        src: url("https://excalidraw.com/Cascadia.woff2");
      }
      @font-face {
        font-family: "Assistant";
        src: url("https://excalidraw.com/Assistant-Regular.woff2");
      }
    </style>
    
  </defs>
  <g stroke-linecap="round" transform="translate(647.1329650878905 49.17265319824219) rotate(0 81.25189208984375 27.242904663085938)"><path d="M13.62 0 C57.96 0, 102.3 0, 148.88 0 C157.96 0, 162.5 4.54, 162.5 13.62 C162.5 23.66, 162.5 33.69, 162.5 40.86 C162.5 49.95, 157.96 54.49, 148.88 54.49 C100.04 54.49, 51.2 54.49, 13.62 54.49 C4.54 54.49, 0 49.95, 0 40.86 C0 31.28, 0 21.7, 0 13.62 C0 4.54, 4.54 0, 13.62 0" stroke="none" stroke-width="0" fill="#343a40"></path><path d="M13.62 0 C49.65 0, 85.69 0, 148.88 0 M13.62 0 C56.77 0, 99.92 0, 148.88 0 M148.88 0 C157.96 0, 162.5 4.54, 162.5 13.62 M148.88 0 C157.96 0, 162.5 4.54, 162.5 13.62 M162.5 13.62 C162.5 20.88, 162.5 28.15, 162.5 40.86 M162.5 13.62 C162.5 23.27, 162.5 32.92, 162.5 40.86 M162.5 40.86 C162.5 49.95, 157.96 54.49, 148.88 54.49 M162.5 40.86 C162.5 49.95, 157.96 54.49, 148.88 54.49 M148.88 54.49 C96.82 54.49, 44.76 54.49, 13.62 54.49 M148.88 54.49 C117.79 54.49, 86.7 54.49, 13.62 54.49 M13.62 54.49 C4.54 54.49, 0 49.95, 0 40.86 M13.62 54.49 C4.54 54.49, 0 49.95, 0 40.86 M0 40.86 C0 30.91, 0 20.95, 0 13.62 M0 40.86 C0 33.25, 0 25.65, 0 13.62 M0 13.62 C0 4.54, 4.54 0, 13.62 0 M0 13.62 C0 4.54, 4.54 0, 13.62 0" stroke="#1e1e1e" stroke-width="2" fill="none"></path></g><g transform="translate(686.1973571777343 66.8155578613281) rotate(0 42.1875 9.599999999999994)"><text x="42.1875" y="0" font-family="Cascadia, Segoe UI Emoji" font-size="16px" fill="#ffffff" text-anchor="middle" style="white-space: pre;" direction="ltr" dominant-baseline="text-before-edge">new Vue()</text></g><g stroke-linecap="round"><g transform="translate(729.2722207212984 104.86315917968744) rotate(0 0.11576259133778422 30.62927246093753)"><path d="M0 0 C0.04 10.21, 0.19 51.05, 0.23 61.26 M0 0 C0.04 10.21, 0.19 51.05, 0.23 61.26" stroke="#868e96" stroke-width="2" fill="none"></path></g><g transform="translate(729.2722207212984 104.86315917968744) rotate(0 0.11576259133778422 30.62927246093753)"><path d="M-8.41 37.8 C-5.3 46.23, -2.2 54.65, 0.23 61.26 M-8.41 37.8 C-5.82 44.82, -3.24 51.83, 0.23 61.26" stroke="#868e96" stroke-width="2" fill="none"></path></g><g transform="translate(729.2722207212984 104.86315917968744) rotate(0 0.11576259133778422 30.62927246093753)"><path d="M8.69 37.73 C5.65 46.18, 2.61 54.63, 0.23 61.26 M8.69 37.73 C6.16 44.77, 3.63 51.81, 0.23 61.26" stroke="#868e96" stroke-width="2" fill="none"></path></g></g><mask></mask><g stroke-linecap="round" transform="translate(595.0281677246093 169.80615234375) rotate(0 125.82427978515625 26.693527221679688)"><path d="M13.35 0 C62.67 0, 112 0, 238.3 0 C247.2 0, 251.65 4.45, 251.65 13.35 C251.65 23.79, 251.65 34.23, 251.65 40.04 C251.65 48.94, 247.2 53.39, 238.3 53.39 C184.22 53.39, 130.14 53.39, 13.35 53.39 C4.45 53.39, 0 48.94, 0 40.04 C0 32.15, 0 24.26, 0 13.35 C0 4.45, 4.45 0, 13.35 0" stroke="none" stroke-width="0" fill="#40c057"></path><path d="M13.35 0 C65.39 0, 117.43 0, 238.3 0 M13.35 0 C102.69 0, 192.04 0, 238.3 0 M238.3 0 C247.2 0, 251.65 4.45, 251.65 13.35 M238.3 0 C247.2 0, 251.65 4.45, 251.65 13.35 M251.65 13.35 C251.65 19.14, 251.65 24.94, 251.65 40.04 M251.65 13.35 C251.65 21.46, 251.65 29.57, 251.65 40.04 M251.65 40.04 C251.65 48.94, 247.2 53.39, 238.3 53.39 M251.65 40.04 C251.65 48.94, 247.2 53.39, 238.3 53.39 M238.3 53.39 C162.89 53.39, 87.48 53.39, 13.35 53.39 M238.3 53.39 C173.62 53.39, 108.94 53.39, 13.35 53.39 M13.35 53.39 C4.45 53.39, 0 48.94, 0 40.04 M13.35 53.39 C4.45 53.39, 0 48.94, 0 40.04 M0 40.04 C0 30.04, 0 20.03, 0 13.35 M0 40.04 C0 30.32, 0 20.59, 0 13.35 M0 13.35 C0 4.45, 4.45 0, 13.35 0 M0 13.35 C0 4.45, 4.45 0, 13.35 0" stroke="#ffffff" stroke-width="2" fill="none"></path></g><g transform="translate(613.0399475097655 186.89967956542966) rotate(0 107.8125 9.599999999999994)"><text x="107.8125" y="0" font-family="Cascadia, Segoe UI Emoji" font-size="16px" fill="#ffffff" text-anchor="middle" style="white-space: pre;" direction="ltr" dominant-baseline="text-before-edge">Init Events &amp; Lifecycle</text></g><g stroke-linecap="round"><g transform="translate(726.6285439634856 224.99342346191412) rotate(0 0.11576259133778422 30.62927246093753)"><path d="M0 0 C0.04 10.21, 0.19 51.05, 0.23 61.26 M0 0 C0.04 10.21, 0.19 51.05, 0.23 61.26" stroke="#868e96" stroke-width="2" fill="none"></path></g><g transform="translate(726.6285439634856 224.99342346191412) rotate(0 0.11576259133778422 30.62927246093753)"><path d="M-8.41 37.8 C-6.05 44.21, -3.69 50.61, 0.23 61.26 M-8.41 37.8 C-5.91 44.58, -3.41 51.37, 0.23 61.26" stroke="#868e96" stroke-width="2" fill="none"></path></g><g transform="translate(726.6285439634856 224.99342346191412) rotate(0 0.11576259133778422 30.62927246093753)"><path d="M8.69 37.73 C6.38 44.16, 4.07 50.58, 0.23 61.26 M8.69 37.73 C6.25 44.54, 3.8 51.34, 0.23 61.26" stroke="#868e96" stroke-width="2" fill="none"></path></g></g><mask></mask><g stroke-linecap="round" transform="translate(592.3844909667968 289.9364166259766) rotate(0 125.82427978515625 26.693527221679673)"><path d="M13.35 0 C90.11 0, 166.87 0, 238.3 0 C247.2 0, 251.65 4.45, 251.65 13.35 C251.65 22.27, 251.65 31.2, 251.65 40.04 C251.65 48.94, 247.2 53.39, 238.3 53.39 C188.33 53.39, 138.35 53.39, 13.35 53.39 C4.45 53.39, 0 48.94, 0 40.04 C0 31.42, 0 22.8, 0 13.35 C0 4.45, 4.45 0, 13.35 0" stroke="none" stroke-width="0" fill="#40c057"></path><path d="M13.35 0 C102.25 0, 191.15 0, 238.3 0 M13.35 0 C99.5 0, 185.65 0, 238.3 0 M238.3 0 C247.2 0, 251.65 4.45, 251.65 13.35 M238.3 0 C247.2 0, 251.65 4.45, 251.65 13.35 M251.65 13.35 C251.65 23.5, 251.65 33.66, 251.65 40.04 M251.65 13.35 C251.65 19.44, 251.65 25.54, 251.65 40.04 M251.65 40.04 C251.65 48.94, 247.2 53.39, 238.3 53.39 M251.65 40.04 C251.65 48.94, 247.2 53.39, 238.3 53.39 M238.3 53.39 C171.89 53.39, 105.49 53.39, 13.35 53.39 M238.3 53.39 C172.39 53.39, 106.48 53.39, 13.35 53.39 M13.35 53.39 C4.45 53.39, 0 48.94, 0 40.04 M13.35 53.39 C4.45 53.39, 0 48.94, 0 40.04 M0 40.04 C0 33.84, 0 27.64, 0 13.35 M0 40.04 C0 31.14, 0 22.25, 0 13.35 M0 13.35 C0 4.45, 4.45 0, 13.35 0 M0 13.35 C0 4.45, 4.45 0, 13.35 0" stroke="#ffffff" stroke-width="2" fill="none"></path></g><g transform="translate(633.833770751953 297.4299438476563) rotate(0 84.375 19.200000000000003)"><text x="84.375" y="0" font-family="Cascadia, Segoe UI Emoji" font-size="16px" fill="#ffffff" text-anchor="middle" style="white-space: pre;" direction="ltr" dominant-baseline="text-before-edge">Init injections &amp; </text><text x="84.375" y="19.2" font-family="Cascadia, Segoe UI Emoji" font-size="16px" fill="#ffffff" text-anchor="middle" style="white-space: pre;" direction="ltr" dominant-baseline="text-before-edge">reactivity</text></g><g stroke-linecap="round"><g transform="translate(809.4458923339843 49.70159912109375) rotate(0 36.686614990234375 -12.686004638671875)"><path d="M0 0 C12.23 -4.23, 61.14 -21.14, 73.37 -25.37 M0 0 C12.23 -4.23, 61.14 -21.14, 73.37 -25.37" stroke="#e03131" stroke-width="2" fill="none"></path></g><g transform="translate(809.4458923339843 49.70159912109375) rotate(0 36.686614990234375 -12.686004638671875)"><path d="M53.97 -9.61 C60.44 -14.87, 66.92 -20.13, 73.37 -25.37 M53.97 -9.61 C60.32 -14.77, 66.67 -19.93, 73.37 -25.37" stroke="#e03131" stroke-width="2" fill="none"></path></g><g transform="translate(809.4458923339843 49.70159912109375) rotate(0 36.686614990234375 -12.686004638671875)"><path d="M48.38 -25.78 C56.72 -25.64, 65.06 -25.51, 73.37 -25.37 M48.38 -25.78 C56.56 -25.64, 64.74 -25.51, 73.37 -25.37" stroke="#e03131" stroke-width="2" fill="none"></path></g></g><mask></mask><g transform="translate(888.8937072753905 10) rotate(0 213.1875 9.600000000000023)"><text x="0" y="0" font-family="Cascadia, Segoe UI Emoji" font-size="16px" fill="#e03131" text-anchor="start" style="white-space: pre;" direction="ltr" dominant-baseline="text-before-edge">var vm = new Vue({}) 表示 开始创建一个vue实例对象</text></g><g stroke-linecap="round"><g transform="translate(843.6044006347655 171.93878173828125) rotate(0 32.801055908203125 -14.122594381156489)"><path d="M0 0 C10.93 -4.71, 54.67 -23.54, 65.6 -28.25 M0 0 C10.93 -4.71, 54.67 -23.54, 65.6 -28.25" stroke="#e03131" stroke-width="2" fill="none"></path></g><g transform="translate(843.6044006347655 171.93878173828125) rotate(0 32.801055908203125 -14.122594381156489)"><path d="M47.41 -11.1 C53.58 -16.91, 59.74 -22.73, 65.6 -28.25 M47.41 -11.1 C51.36 -14.83, 55.31 -18.55, 65.6 -28.25" stroke="#e03131" stroke-width="2" fill="none"></path></g><g transform="translate(843.6044006347655 171.93878173828125) rotate(0 32.801055908203125 -14.122594381156489)"><path d="M40.64 -26.81 C49.11 -27.3, 57.57 -27.78, 65.6 -28.25 M40.64 -26.81 C46.07 -27.12, 51.49 -27.43, 65.6 -28.25" stroke="#e03131" stroke-width="2" fill="none"></path></g></g><mask></mask><g transform="translate(914.7487487792968 138.970947265625) rotate(0 262.0625 19.19999999999999)"><text x="0" y="0" font-family="Cascadia, Segoe UI Emoji" font-size="16px" fill="#e03131" text-anchor="start" style="white-space: pre;" direction="ltr" dominant-baseline="text-before-edge">表示刚初始化一个Vue的空的实例对象，此时对象身上只有默认的生命周期</text><text x="0" y="19.2" font-family="Cascadia, Segoe UI Emoji" font-size="16px" fill="#e03131" text-anchor="start" style="white-space: pre;" direction="ltr" dominant-baseline="text-before-edge">函数和事件，其它东西都未创建</text></g><g transform="translate(915.2096862792968 194.01141357421875) rotate(0 168.25 19.19999999999999)"><text x="0" y="0" font-family="Cascadia, Segoe UI Emoji" font-size="16px" fill="#e03131" text-anchor="start" style="white-space: pre;" direction="ltr" dominant-baseline="text-before-edge">注意：在beforeCreate生命周期函数执行时，</text><text x="0" y="19.2" font-family="Cascadia, Segoe UI Emoji" font-size="16px" fill="#e03131" text-anchor="start" style="white-space: pre;" direction="ltr" dominant-baseline="text-before-edge">data、methods都未被初始化</text></g><g stroke-linecap="round"><g transform="translate(724.2826232910155 254.10809326171875) rotate(0 -106.10049438476562 -0.3148193359375)"><path d="M0 0 C-35.37 -0.1, -176.83 -0.52, -212.2 -0.63" stroke="#e03131" stroke-width="2.5" fill="none" stroke-dasharray="8 10"></path></g><g transform="translate(724.2826232910155 254.10809326171875) rotate(0 -106.10049438476562 -0.3148193359375)"><path d="M-188.68 -9.11 C-197.08 -6.08, -205.48 -3.05, -212.2 -0.63" stroke="#e03131" stroke-width="2.5" fill="none"></path></g><g transform="translate(724.2826232910155 254.10809326171875) rotate(0 -106.10049438476562 -0.3148193359375)"><path d="M-188.73 7.99 C-197.12 4.91, -205.5 1.83, -212.2 -0.63" stroke="#e03131" stroke-width="2.5" fill="none"></path></g></g><mask></mask><g stroke-linecap="round" transform="translate(359.80303955078125 229.10955810546875) rotate(0 73.54887390136713 25.46527099609375)"><path d="M12.73 0 C38.69 0, 64.65 0, 134.37 0 M12.73 0 C51.26 0, 89.79 0, 134.37 0 M134.37 0 C142.85 0, 147.1 4.24, 147.1 12.73 M134.37 0 C142.85 0, 147.1 4.24, 147.1 12.73 M147.1 12.73 C147.1 21.84, 147.1 30.95, 147.1 38.2 M147.1 12.73 C147.1 18.86, 147.1 24.98, 147.1 38.2 M147.1 38.2 C147.1 46.69, 142.85 50.93, 134.37 50.93 M147.1 38.2 C147.1 46.69, 142.85 50.93, 134.37 50.93 M134.37 50.93 C104.36 50.93, 74.36 50.93, 12.73 50.93 M134.37 50.93 C100.84 50.93, 67.31 50.93, 12.73 50.93 M12.73 50.93 C4.24 50.93, 0 46.69, 0 38.2 M12.73 50.93 C4.24 50.93, 0 46.69, 0 38.2 M0 38.2 C0 29.29, 0 20.38, 0 12.73 M0 38.2 C0 29.95, 0 21.7, 0 12.73 M0 12.73 C0 4.24, 4.24 0, 12.73 0 M0 12.73 C0 4.24, 4.24 0, 12.73 0" stroke="#e03131" stroke-width="2" fill="none"></path></g><g transform="translate(377.1019134521483 244.97482910156248) rotate(0 56.25 9.599999999999994)"><text x="56.25" y="0" font-family="Cascadia, Segoe UI Emoji" font-size="16px" fill="#e03131" text-anchor="middle" style="white-space: pre;" direction="ltr" dominant-baseline="text-before-edge">beforeCreate</text></g><g transform="translate(774.5511169433593 267.9444580078125) rotate(0 32 9.599999999999994)"><text x="0" y="0" font-family="Cascadia, Segoe UI Emoji" font-size="16px" fill="#e03131" text-anchor="start" style="white-space: pre;" direction="ltr" dominant-baseline="text-before-edge">执行步骤</text></g><g stroke-linecap="round"><g transform="translate(727.9773331011269 345.8157958984375) rotate(0 0.3408680792239238 38.55601113928139)"><path d="M0 0 C0.11 12.85, 0.57 64.26, 0.68 77.11 M0 0 C0.11 12.85, 0.57 64.26, 0.68 77.11" stroke="#868e96" stroke-width="2" fill="none"></path></g><g transform="translate(727.9773331011269 345.8157958984375) rotate(0 0.3408680792239238 38.55601113928139)"><path d="M-8.08 53.7 C-4.6 62.99, -1.13 72.28, 0.68 77.11 M-8.08 53.7 C-6.05 59.11, -4.03 64.52, 0.68 77.11" stroke="#868e96" stroke-width="2" fill="none"></path></g><g transform="translate(727.9773331011269 345.8157958984375) rotate(0 0.3408680792239238 38.55601113928139)"><path d="M9.02 53.55 C5.71 62.9, 2.4 72.25, 0.68 77.11 M9.02 53.55 C7.1 58.99, 5.17 64.44, 0.68 77.11" stroke="#868e96" stroke-width="2" fill="none"></path></g></g><mask></mask><g stroke-linecap="round"><g transform="translate(724.5725860595702 381.4742736816406) rotate(0 -106.10049438476562 -0.3148193359375)"><path d="M0 0 C-35.37 -0.1, -176.83 -0.52, -212.2 -0.63" stroke="#e03131" stroke-width="2.5" fill="none" stroke-dasharray="8 10"></path></g><g transform="translate(724.5725860595702 381.4742736816406) rotate(0 -106.10049438476562 -0.3148193359375)"><path d="M-188.68 -9.11 C-197.43 -5.96, -206.18 -2.8, -212.2 -0.63" stroke="#e03131" stroke-width="2.5" fill="none"></path></g><g transform="translate(724.5725860595702 381.4742736816406) rotate(0 -106.10049438476562 -0.3148193359375)"><path d="M-188.73 7.99 C-197.46 4.78, -206.19 1.58, -212.2 -0.63" stroke="#e03131" stroke-width="2.5" fill="none"></path></g></g><mask></mask><g stroke-linecap="round" transform="translate(360.0930023193357 356.4757385253906) rotate(0 73.54887390136713 25.46527099609375)"><path d="M12.73 0 C52.32 0, 91.91 0, 134.37 0 M12.73 0 C45.37 0, 78.01 0, 134.37 0 M134.37 0 C142.85 0, 147.1 4.24, 147.1 12.73 M134.37 0 C142.85 0, 147.1 4.24, 147.1 12.73 M147.1 12.73 C147.1 22.65, 147.1 32.57, 147.1 38.2 M147.1 12.73 C147.1 21.69, 147.1 30.65, 147.1 38.2 M147.1 38.2 C147.1 46.69, 142.85 50.93, 134.37 50.93 M147.1 38.2 C147.1 46.69, 142.85 50.93, 134.37 50.93 M134.37 50.93 C109.42 50.93, 84.47 50.93, 12.73 50.93 M134.37 50.93 C106.76 50.93, 79.15 50.93, 12.73 50.93 M12.73 50.93 C4.24 50.93, 0 46.69, 0 38.2 M12.73 50.93 C4.24 50.93, 0 46.69, 0 38.2 M0 38.2 C0 28.86, 0 19.51, 0 12.73 M0 38.2 C0 31.3, 0 24.41, 0 12.73 M0 12.73 C0 4.24, 4.24 0, 12.73 0 M0 12.73 C0 4.24, 4.24 0, 12.73 0" stroke="#e03131" stroke-width="2" fill="none"></path></g><g transform="translate(400.8293762207028 372.34100952148435) rotate(0 32.8125 9.599999999999994)"><text x="32.8125" y="0" font-family="Cascadia, Segoe UI Emoji" font-size="16px" fill="#e03131" text-anchor="middle" style="white-space: pre;" direction="ltr" dominant-baseline="text-before-edge">created</text></g><g stroke-linecap="round"><g transform="translate(846.5873107910155 307.2542724609375) rotate(0 44.16937255859375 -1.257171630859375)"><path d="M0 0 C14.72 -0.42, 73.62 -2.1, 88.34 -2.51 M0 0 C14.72 -0.42, 73.62 -2.1, 88.34 -2.51" stroke="#e03131" stroke-width="2" fill="none"></path></g><g transform="translate(846.5873107910155 307.2542724609375) rotate(0 44.16937255859375 -1.257171630859375)"><path d="M65.1 6.7 C73.3 3.45, 81.5 0.2, 88.34 -2.51 M65.1 6.7 C70.76 4.46, 76.42 2.21, 88.34 -2.51" stroke="#e03131" stroke-width="2" fill="none"></path></g><g transform="translate(846.5873107910155 307.2542724609375) rotate(0 44.16937255859375 -1.257171630859375)"><path d="M64.61 -10.39 C72.99 -7.61, 81.36 -4.83, 88.34 -2.51 M64.61 -10.39 C70.39 -8.47, 76.17 -6.55, 88.34 -2.51" stroke="#e03131" stroke-width="2" fill="none"></path></g></g><mask></mask><g transform="translate(942.6647644042968 286.8148498535156) rotate(0 231.125 19.200000000000003)"><text x="0" y="0" font-family="Cascadia, Segoe UI Emoji" font-size="16px" fill="#e03131" text-anchor="start" style="white-space: pre;" direction="ltr" dominant-baseline="text-before-edge">在 Created 中，data 和 method 都已经被初始化，之后才能</text><text x="0" y="19.2" font-family="Cascadia, Segoe UI Emoji" font-size="16px" fill="#e03131" text-anchor="start" style="white-space: pre;" direction="ltr" dominant-baseline="text-before-edge">开始调用它们</text></g><g stroke-linecap="round" transform="translate(557.1835021972655 425.8701171875) rotate(0 170.95193481445312 72.03347778320312)"><path d="M213.75 18.25 C232.64 26.32, 251.53 34.39, 299.15 54.75 C341.9 73, 341.9 73, 299.15 91.25 C278.17 99.74, 257.19 108.23, 213.75 125.82 C171 144.07, 171 144.07, 128.25 125.82 C100.43 114.57, 72.6 103.32, 42.75 91.25 C0 73, 0 73, 42.75 54.75 C69.11 43.5, 95.47 32.25, 128.25 18.25 C171 0, 171 0, 213.75 18.25" stroke="none" stroke-width="0" fill="#fab005"></path><path d="M213.75 18.25 C235.74 27.65, 257.73 37.05, 299.15 54.75 M213.75 18.25 C239.19 29.12, 264.63 40, 299.15 54.75 M299.15 54.75 C341.9 73, 341.9 73, 299.15 91.25 M299.15 54.75 C341.9 73, 341.9 73, 299.15 91.25 M299.15 91.25 C269.9 103.09, 240.65 114.93, 213.75 125.82 M299.15 91.25 C266.5 104.47, 233.85 117.68, 213.75 125.82 M213.75 125.82 C171 144.07, 171 144.07, 128.25 125.82 M213.75 125.82 C171 144.07, 171 144.07, 128.25 125.82 M128.25 125.82 C105.45 116.6, 82.65 107.38, 42.75 91.25 M128.25 125.82 C106.82 117.15, 85.39 108.49, 42.75 91.25 M42.75 91.25 C0 73, 0 73, 42.75 54.75 M42.75 91.25 C0 73, 0 73, 42.75 54.75 M42.75 54.75 C66.57 44.58, 90.38 34.41, 128.25 18.25 M42.75 54.75 C69.25 43.44, 95.75 32.13, 128.25 18.25 M128.25 18.25 C171 0, 171 0, 213.75 18.25 M128.25 18.25 C171 0, 171 0, 213.75 18.25" stroke="transparent" stroke-width="2" fill="none"></path></g><g transform="translate(648.4719696044921 488.28685607910154) rotate(0 79.6875 9.599999999999998)"><text x="79.6875" y="0" font-family="Cascadia, Segoe UI Emoji" font-size="16px" fill="#ffffff" text-anchor="middle" style="white-space: pre;" direction="ltr" dominant-baseline="text-before-edge">Has 'el' option ?</text></g><g transform="translate(783.036895751953 430.55902099609375) rotate(24.80626453287107 32 9.600000000000001)"><text x="0" y="0" font-family="Cascadia, Segoe UI Emoji" font-size="16px" fill="#1e1e1e" text-anchor="start" style="white-space: pre;" direction="ltr" dominant-baseline="text-before-edge">分支判断</text></g><g mask="url(#mask-nADulhNiSUL7uDNauEAmK)" stroke-linecap="round"><g transform="translate(726.3934402788612 571.0123596191406) rotate(0 0.3408680792239238 38.55601113928139)"><path d="M0 0 C0.11 12.85, 0.57 64.26, 0.68 77.11 M0 0 C0.11 12.85, 0.57 64.26, 0.68 77.11" stroke="#868e96" stroke-width="2" fill="none"></path></g><g transform="translate(726.3934402788612 571.0123596191406) rotate(0 0.3408680792239238 38.55601113928139)"><path d="M-8.08 53.7 C-4.65 62.85, -1.23 72, 0.68 77.11 M-8.08 53.7 C-4.92 62.14, -1.76 70.58, 0.68 77.11" stroke="#868e96" stroke-width="2" fill="none"></path></g><g transform="translate(726.3934402788612 571.0123596191406) rotate(0 0.3408680792239238 38.55601113928139)"><path d="M9.02 53.55 C5.76 62.76, 2.5 71.97, 0.68 77.11 M9.02 53.55 C6.02 62.04, 3.01 70.54, 0.68 77.11" stroke="#868e96" stroke-width="2" fill="none"></path></g></g><mask id="mask-nADulhNiSUL7uDNauEAmK"><rect x="0" y="0" fill="#fff" width="827.0751764373091" height="748.1243818977034"></rect><rect x="712.6718083580854" y="599.968370758422" fill="#000" width="28.125" height="19.2" opacity="1"></rect></mask><g transform="translate(712.6718083580854 599.968370758422) rotate(0 14.062499999999886 9.600000000000001)"><text x="14.0625" y="0" font-family="Cascadia, Segoe UI Emoji" font-size="16px" fill="#1e1e1e" text-anchor="middle" style="white-space: pre;" direction="ltr" dominant-baseline="text-before-edge">YES</text></g><g stroke-linecap="round" transform="translate(555.5996093749999 651.0666809082031) rotate(0 170.95193481445312 72.03347778320312)"><path d="M213.75 18.25 C244.59 31.43, 275.43 44.61, 299.15 54.75 C341.9 73, 341.9 73, 299.15 91.25 C268.65 103.59, 238.15 115.94, 213.75 125.82 C171 144.07, 171 144.07, 128.25 125.82 C95.29 112.49, 62.32 99.16, 42.75 91.25 C0 73, 0 73, 42.75 54.75 C71.49 42.48, 100.23 30.21, 128.25 18.25 C171 0, 171 0, 213.75 18.25" stroke="none" stroke-width="0" fill="#fab005"></path><path d="M213.75 18.25 C244.79 31.52, 275.83 44.78, 299.15 54.75 M213.75 18.25 C246.75 32.35, 279.75 46.46, 299.15 54.75 M299.15 54.75 C341.9 73, 341.9 73, 299.15 91.25 M299.15 54.75 C341.9 73, 341.9 73, 299.15 91.25 M299.15 91.25 C271.49 102.45, 243.83 113.64, 213.75 125.82 M299.15 91.25 C275.76 100.72, 252.36 110.19, 213.75 125.82 M213.75 125.82 C171 144.07, 171 144.07, 128.25 125.82 M213.75 125.82 C171 144.07, 171 144.07, 128.25 125.82 M128.25 125.82 C110.22 118.53, 92.2 111.24, 42.75 91.25 M128.25 125.82 C96 112.78, 63.74 99.74, 42.75 91.25 M42.75 91.25 C0 73, 0 73, 42.75 54.75 M42.75 91.25 C0 73, 0 73, 42.75 54.75 M42.75 54.75 C68.22 43.88, 93.68 33.01, 128.25 18.25 M42.75 54.75 C63.04 46.09, 83.33 37.43, 128.25 18.25 M128.25 18.25 C171 0, 171 0, 213.75 18.25 M128.25 18.25 C171 0, 171 0, 213.75 18.25" stroke="transparent" stroke-width="2" fill="none"></path></g><g transform="translate(656.2630767822264 703.8834197998046) rotate(0 70.3125 19.200000000000003)"><text x="70.3125" y="0" font-family="Cascadia, Segoe UI Emoji" font-size="16px" fill="#ffffff" text-anchor="middle" style="white-space: pre;" direction="ltr" dominant-baseline="text-before-edge">Has 'template' </text><text x="70.3125" y="19.2" font-family="Cascadia, Segoe UI Emoji" font-size="16px" fill="#ffffff" text-anchor="middle" style="white-space: pre;" direction="ltr" dominant-baseline="text-before-edge">option ?</text></g><g transform="translate(781.4530029296874 655.7555847167969) rotate(24.80626453287107 32 9.600000000000001)"><text x="0" y="0" font-family="Cascadia, Segoe UI Emoji" font-size="16px" fill="#1e1e1e" text-anchor="start" style="white-space: pre;" direction="ltr" dominant-baseline="text-before-edge">分支判断</text></g><g mask="url(#mask-yMBMp3HauyZ9tQEKcI1HA)" stroke-linecap="round"><g transform="translate(888.022003173828 498.2336730957031) rotate(0 66.82815551757812 115.83882141113281)"><path d="M0 0 C30.64 -0.14, 61.29 -0.28, 133.58 -0.6 M133.58 -0.6 C134.53 43.73, 135.48 88.07, 136.16 119.36 M136.16 119.36 C135.83 160.72, 135.5 202.09, 135.26 232.28 M135.26 232.28 C87.68 231.87, 40.1 231.46, -2.5 231.09" stroke="#1e1e1e" stroke-width="2.5" fill="none" stroke-dasharray="8 10"></path></g><g transform="translate(888.022003173828 498.2336730957031) rotate(0 66.82815551757812 115.83882141113281)"><path d="M21.07 222.74 C15.66 224.66, 10.25 226.57, -2.5 231.09" stroke="#1e1e1e" stroke-width="2.5" fill="none"></path></g><g transform="translate(888.022003173828 498.2336730957031) rotate(0 66.82815551757812 115.83882141113281)"><path d="M20.92 239.85 C15.55 237.84, 10.17 235.83, -2.5 231.09" stroke="#1e1e1e" stroke-width="2.5" fill="none"></path></g></g><mask id="mask-yMBMp3HauyZ9tQEKcI1HA"><rect x="0" y="0" fill="#fff" width="1126.6767272949219" height="831.1156005859375"></rect><rect x="939.8025207519531" y="598.3896606445312" fill="#000" width="168.75" height="38.4" opacity="1"></rect></mask><g transform="translate(939.8025207519531 598.3896606445312) rotate(0 15.047637939453125 15.68283386230469)"><text x="84.375" y="0" font-family="Cascadia, Segoe UI Emoji" font-size="16px" fill="#1e1e1e" text-anchor="middle" style="white-space: pre;" direction="ltr" dominant-baseline="text-before-edge">when vm.$mount(el)</text><text x="84.375" y="19.2" font-family="Cascadia, Segoe UI Emoji" font-size="16px" fill="#1e1e1e" text-anchor="middle" style="white-space: pre;" direction="ltr" dominant-baseline="text-before-edge">is called</text></g><g transform="translate(942.665557861328 480.521484375) rotate(0 9.375 9.600000000000001)"><text x="0" y="0" font-family="Cascadia, Segoe UI Emoji" font-size="16px" fill="#1e1e1e" text-anchor="start" style="white-space: pre;" direction="ltr" dominant-baseline="text-before-edge">No</text></g><g stroke-linecap="round"><g transform="translate(729.3842468261718 792.8240966796875) rotate(0 0.342864990234375 22.286224365234375)"><path d="M0 0 C0.24 15.85, 0.49 31.71, 0.69 44.57 M0 0 C0.25 16.01, 0.49 32.02, 0.69 44.57" stroke="#1e1e1e" stroke-width="2" fill="none"></path></g></g><mask></mask><g stroke-linecap="round"><g transform="translate(527.5736389160155 942.4167175292969) rotate(0 193.87747192382812 -51.89936828613281)"><path d="M0 0 C0 -30.62, 0 -61.24, 0 -100.97 M0 0 C0 -30.41, 0 -60.83, 0 -100.97 M0 -100.97 C65.39 -101.8, 130.78 -102.64, 204.14 -103.57 M0 -100.97 C77.44 -101.96, 154.89 -102.94, 204.14 -103.57 M204.14 -103.57 C242.33 -103.62, 280.53 -103.67, 386.33 -103.8 M204.14 -103.57 C251.01 -103.63, 297.89 -103.69, 386.33 -103.8 M386.33 -103.8 C386.85 -65.75, 387.38 -27.7, 387.75 -0.38 M386.33 -103.8 C386.78 -71.03, 387.23 -38.26, 387.75 -0.38" stroke="#1e1e1e" stroke-width="2" fill="none"></path></g></g><mask></mask><g stroke-linecap="round" transform="translate(410.5014953613281 941.788818359375) rotate(0 114.28982543945307 55.5672607421875)"><path d="M27.78 0 C88.49 0, 149.2 0, 200.8 0 C219.32 0, 228.58 9.26, 228.58 27.78 C228.58 47.02, 228.58 66.26, 228.58 83.35 C228.58 101.87, 219.32 111.13, 200.8 111.13 C137.03 111.13, 73.27 111.13, 27.78 111.13 C9.26 111.13, 0 101.87, 0 83.35 C0 68.43, 0 53.51, 0 27.78 C0 9.26, 9.26 0, 27.78 0" stroke="none" stroke-width="0" fill="#40c057"></path><path d="M27.78 0 C94.21 0, 160.64 0, 200.8 0 M27.78 0 C87.35 0, 146.92 0, 200.8 0 M200.8 0 C219.32 0, 228.58 9.26, 228.58 27.78 M200.8 0 C219.32 0, 228.58 9.26, 228.58 27.78 M228.58 27.78 C228.58 46.86, 228.58 65.94, 228.58 83.35 M228.58 27.78 C228.58 39.4, 228.58 51.01, 228.58 83.35 M228.58 83.35 C228.58 101.87, 219.32 111.13, 200.8 111.13 M228.58 83.35 C228.58 101.87, 219.32 111.13, 200.8 111.13 M200.8 111.13 C161.09 111.13, 121.38 111.13, 27.78 111.13 M200.8 111.13 C138.91 111.13, 77.03 111.13, 27.78 111.13 M27.78 111.13 C9.26 111.13, 0 101.87, 0 83.35 M27.78 111.13 C9.26 111.13, 0 101.87, 0 83.35 M0 83.35 C0 65.89, 0 48.43, 0 27.78 M0 83.35 C0 66.38, 0 49.4, 0 27.78 M0 27.78 C0 9.26, 9.26 0, 27.78 0 M0 27.78 C0 9.26, 9.26 0, 27.78 0" stroke="transparent" stroke-width="2" fill="none"></path></g><g transform="translate(426.35382080078114 978.1560791015625) rotate(0 98.4375 19.19999999999999)"><text x="98.4375" y="0" font-family="Cascadia, Segoe UI Emoji" font-size="16px" fill="#ffffff" text-anchor="middle" style="white-space: pre;" direction="ltr" dominant-baseline="text-before-edge">Compile template into</text><text x="98.4375" y="19.2" font-family="Cascadia, Segoe UI Emoji" font-size="16px" fill="#ffffff" text-anchor="middle" style="white-space: pre;" direction="ltr" dominant-baseline="text-before-edge">render function</text></g><g stroke-linecap="round" transform="translate(798.2326660156249 938.025634765625) rotate(0 114.28982543945312 55.5672607421875)"><path d="M27.78 0 C92.68 0, 157.58 0, 200.8 0 C219.32 0, 228.58 9.26, 228.58 27.78 C228.58 40.8, 228.58 53.82, 228.58 83.35 C228.58 101.87, 219.32 111.13, 200.8 111.13 C163.63 111.13, 126.47 111.13, 27.78 111.13 C9.26 111.13, 0 101.87, 0 83.35 C0 61.7, 0 40.05, 0 27.78 C0 9.26, 9.26 0, 27.78 0" stroke="none" stroke-width="0" fill="#40c057"></path><path d="M27.78 0 C74.06 0, 120.33 0, 200.8 0 M27.78 0 C69.08 0, 110.38 0, 200.8 0 M200.8 0 C219.32 0, 228.58 9.26, 228.58 27.78 M200.8 0 C219.32 0, 228.58 9.26, 228.58 27.78 M228.58 27.78 C228.58 44.7, 228.58 61.62, 228.58 83.35 M228.58 27.78 C228.58 40.36, 228.58 52.94, 228.58 83.35 M228.58 83.35 C228.58 101.87, 219.32 111.13, 200.8 111.13 M228.58 83.35 C228.58 101.87, 219.32 111.13, 200.8 111.13 M200.8 111.13 C158.71 111.13, 116.62 111.13, 27.78 111.13 M200.8 111.13 C145.12 111.13, 89.45 111.13, 27.78 111.13 M27.78 111.13 C9.26 111.13, 0 101.87, 0 83.35 M27.78 111.13 C9.26 111.13, 0 101.87, 0 83.35 M0 83.35 C0 70.32, 0 57.29, 0 27.78 M0 83.35 C0 71.98, 0 60.61, 0 27.78 M0 27.78 C0 9.26, 9.26 0, 27.78 0 M0 27.78 C0 9.26, 9.26 0, 27.78 0" stroke="transparent" stroke-width="2" fill="none"></path></g><g transform="translate(804.709991455078 974.3928955078125) rotate(0 107.8125 19.19999999999999)"><text x="107.8125" y="0" font-family="Cascadia, Segoe UI Emoji" font-size="16px" fill="#ffffff" text-anchor="middle" style="white-space: pre;" direction="ltr" dominant-baseline="text-before-edge">Compile el's outerHTML </text><text x="107.8125" y="19.2" font-family="Cascadia, Segoe UI Emoji" font-size="16px" fill="#ffffff" text-anchor="middle" style="white-space: pre;" direction="ltr" dominant-baseline="text-before-edge">as template</text></g><g transform="translate(490.52340698242176 890.5923461914062) rotate(0 14.0625 9.599999999999994)"><text x="0" y="0" font-family="Cascadia, Segoe UI Emoji" font-size="16px" fill="#1e1e1e" text-anchor="start" style="white-space: pre;" direction="ltr" dominant-baseline="text-before-edge">YES</text></g><g transform="translate(921.5506286621093 886.0211791992188) rotate(0 9.375 9.599999999999994)"><text x="0" y="0" font-family="Cascadia, Segoe UI Emoji" font-size="16px" fill="#1e1e1e" text-anchor="start" style="white-space: pre;" direction="ltr" dominant-baseline="text-before-edge">NO</text></g><g stroke-linecap="round"><g transform="translate(735.6002286332194 1262.9875120131237) rotate(359.3891320767142 -0.028306215246288957 -51.71995131432749)"><path d="M0 0 C-0.02 -32.62, -0.04 -65.25, -0.06 -103.44 M0 0 C-0.02 -30.53, -0.03 -61.05, -0.06 -103.44" stroke="#1e1e1e" stroke-width="2" fill="none"></path></g></g><mask></mask><g stroke-linecap="round"><g transform="translate(530.3786255377396 1053.8239613346482) rotate(359.3891320767142 195.35869020719645 52.29587796019587)"><path d="M0 0 C0 31.45, 0 62.9, 0 101.74 M0 0 C0 26.76, 0 53.53, 0 101.74 M0 101.74 C45.62 102.32, 91.23 102.9, 205.7 104.36 M0 101.74 C79.57 102.76, 159.14 103.77, 205.7 104.36 M205.7 104.36 C257.45 104.43, 309.2 104.49, 389.28 104.59 M205.7 104.36 C254.4 104.42, 303.1 104.48, 389.28 104.59 M389.28 104.59 C389.74 71.22, 390.2 37.85, 390.72 0.39 M389.28 104.59 C389.75 70.72, 390.21 36.86, 390.72 0.39" stroke="#1e1e1e" stroke-width="2" fill="none"></path></g></g><mask></mask><g transform="translate(492.95381298631867 1089.0278988903606) rotate(359.3891320767142 14.169937093661133 9.673343722606035)"><text x="0" y="0" font-family="Cascadia, Segoe UI Emoji" font-size="16.122239537676684px" fill="#1e1e1e" text-anchor="start" style="white-space: pre;" direction="ltr" dominant-baseline="text-before-edge">YES</text></g><g transform="translate(927.2987617016398 1089.0535993684732) rotate(359.3891320767142 9.446624729107384 9.673343722606035)"><text x="0" y="0" font-family="Cascadia, Segoe UI Emoji" font-size="16.122239537676684px" fill="#1e1e1e" text-anchor="start" style="white-space: pre;" direction="ltr" dominant-baseline="text-before-edge">NO</text></g><g stroke-linecap="round" transform="translate(618.9213867187499 1254.0651245117188) rotate(0 114.28982543945312 55.5672607421875)"><path d="M27.78 0 C66.29 0, 104.8 0, 200.8 0 C219.32 0, 228.58 9.26, 228.58 27.78 C228.58 41.4, 228.58 55.01, 228.58 83.35 C228.58 101.87, 219.32 111.13, 200.8 111.13 C140.75 111.13, 80.7 111.13, 27.78 111.13 C9.26 111.13, 0 101.87, 0 83.35 C0 64.86, 0 46.36, 0 27.78 C0 9.26, 9.26 0, 27.78 0" stroke="none" stroke-width="0" fill="#40c057"></path><path d="M27.78 0 C77.75 0, 127.72 0, 200.8 0 M27.78 0 C87.61 0, 147.44 0, 200.8 0 M200.8 0 C219.32 0, 228.58 9.26, 228.58 27.78 M200.8 0 C219.32 0, 228.58 9.26, 228.58 27.78 M228.58 27.78 C228.58 45.85, 228.58 63.91, 228.58 83.35 M228.58 27.78 C228.58 39.51, 228.58 51.24, 228.58 83.35 M228.58 83.35 C228.58 101.87, 219.32 111.13, 200.8 111.13 M228.58 83.35 C228.58 101.87, 219.32 111.13, 200.8 111.13 M200.8 111.13 C136.95 111.13, 73.1 111.13, 27.78 111.13 M200.8 111.13 C154.11 111.13, 107.43 111.13, 27.78 111.13 M27.78 111.13 C9.26 111.13, 0 101.87, 0 83.35 M27.78 111.13 C9.26 111.13, 0 101.87, 0 83.35 M0 83.35 C0 72.09, 0 60.83, 0 27.78 M0 83.35 C0 65.35, 0 47.35, 0 27.78 M0 27.78 C0 9.26, 9.26 0, 27.78 0 M0 27.78 C0 9.26, 9.26 0, 27.78 0" stroke="transparent" stroke-width="2" fill="none"></path></g><g transform="translate(639.461212158203 1290.4323852539062) rotate(0 93.75 19.19999999999999)"><text x="93.75" y="0" font-family="Cascadia, Segoe UI Emoji" font-size="16px" fill="#ffffff" text-anchor="middle" style="white-space: pre;" direction="ltr" dominant-baseline="text-before-edge">Create vm $el and </text><text x="93.75" y="19.2" font-family="Cascadia, Segoe UI Emoji" font-size="16px" fill="#ffffff" text-anchor="middle" style="white-space: pre;" direction="ltr" dominant-baseline="text-before-edge">replace 'el' with it</text></g><g stroke-linecap="round"><g transform="translate(730.2603302001952 1217.1522216796875) rotate(0 -106.10049438476562 -0.3148193359375)"><path d="M0 0 C-35.37 -0.1, -176.83 -0.52, -212.2 -0.63" stroke="#e03131" stroke-width="2.5" fill="none" stroke-dasharray="8 10"></path></g><g transform="translate(730.2603302001952 1217.1522216796875) rotate(0 -106.10049438476562 -0.3148193359375)"><path d="M-188.68 -9.11 C-196.02 -6.46, -203.36 -3.82, -212.2 -0.63" stroke="#e03131" stroke-width="2.5" fill="none"></path></g><g transform="translate(730.2603302001952 1217.1522216796875) rotate(0 -106.10049438476562 -0.3148193359375)"><path d="M-188.73 7.99 C-196.06 5.3, -203.38 2.61, -212.2 -0.63" stroke="#e03131" stroke-width="2.5" fill="none"></path></g></g><mask></mask><g stroke-linecap="round" transform="translate(365.78074645996094 1192.1536865234375) rotate(0 73.54887390136713 25.46527099609375)"><path d="M12.73 0 C58.47 0, 104.2 0, 134.37 0 M12.73 0 C59.66 0, 106.58 0, 134.37 0 M134.37 0 C142.85 0, 147.1 4.24, 147.1 12.73 M134.37 0 C142.85 0, 147.1 4.24, 147.1 12.73 M147.1 12.73 C147.1 20.38, 147.1 28.03, 147.1 38.2 M147.1 12.73 C147.1 18.84, 147.1 24.95, 147.1 38.2 M147.1 38.2 C147.1 46.69, 142.85 50.93, 134.37 50.93 M147.1 38.2 C147.1 46.69, 142.85 50.93, 134.37 50.93 M134.37 50.93 C103.15 50.93, 71.94 50.93, 12.73 50.93 M134.37 50.93 C89.09 50.93, 43.82 50.93, 12.73 50.93 M12.73 50.93 C4.24 50.93, 0 46.69, 0 38.2 M12.73 50.93 C4.24 50.93, 0 46.69, 0 38.2 M0 38.2 C0 28.23, 0 18.27, 0 12.73 M0 38.2 C0 29.83, 0 21.46, 0 12.73 M0 12.73 C0 4.24, 4.24 0, 12.73 0 M0 12.73 C0 4.24, 4.24 0, 12.73 0" stroke="#e03131" stroke-width="2" fill="none"></path></g><g transform="translate(387.767120361328 1208.0189575195313) rotate(0 51.5625 9.600000000000023)"><text x="51.5625" y="0" font-family="Cascadia, Segoe UI Emoji" font-size="16px" fill="#e03131" text-anchor="middle" style="white-space: pre;" direction="ltr" dominant-baseline="text-before-edge">beforeMount</text></g><g stroke-linecap="round"><g transform="translate(364.78074645996094 1214.6675013311096) rotate(0 -31.879997253417912 -8.452835467264265)"><path d="M0 0 C-10.63 -2.82, -53.13 -14.09, -63.76 -16.91 M0 0 C-10.63 -2.82, -53.13 -14.09, -63.76 -16.91" stroke="#e03131" stroke-width="2" fill="none"></path></g><g transform="translate(364.78074645996094 1214.6675013311096) rotate(0 -31.879997253417912 -8.452835467264265)"><path d="M-38.86 -19.15 C-46.39 -18.47, -53.92 -17.79, -63.76 -16.91 M-38.86 -19.15 C-45.42 -18.56, -51.99 -17.97, -63.76 -16.91" stroke="#e03131" stroke-width="2" fill="none"></path></g><g transform="translate(364.78074645996094 1214.6675013311096) rotate(0 -31.879997253417912 -8.452835467264265)"><path d="M-43.24 -2.62 C-49.45 -6.94, -55.65 -11.26, -63.76 -16.91 M-43.24 -2.62 C-48.65 -6.39, -54.06 -10.15, -63.76 -16.91" stroke="#e03131" stroke-width="2" fill="none"></path></g></g><mask></mask><g transform="translate(10 1183.3976440429688) rotate(0 144 19.19999999999999)"><text x="0" y="0" font-family="Cascadia, Segoe UI Emoji" font-size="16px" fill="#e03131" text-anchor="start" style="white-space: pre;" direction="ltr" dominant-baseline="text-before-edge">此函数编译时，模版已在内存中编译好</text><text x="0" y="19.2" font-family="Cascadia, Segoe UI Emoji" font-size="16px" fill="#e03131" text-anchor="start" style="white-space: pre;" direction="ltr" dominant-baseline="text-before-edge">但未挂载在页面中去，此时数据还是旧的</text></g><g stroke-linecap="round" transform="translate(331.4462890625 787.8772277832031) rotate(0 409.17939758300776 195.6968536376953)"><path d="M32 0 C304 0, 575.99 0, 786.36 0 M32 0 C216.34 0, 400.68 0, 786.36 0 M786.36 0 C807.69 0, 818.36 10.67, 818.36 32 M786.36 0 C807.69 0, 818.36 10.67, 818.36 32 M818.36 32 C818.36 123.97, 818.36 215.94, 818.36 359.39 M818.36 32 C818.36 105.32, 818.36 178.65, 818.36 359.39 M818.36 359.39 C818.36 380.73, 807.69 391.39, 786.36 391.39 M818.36 359.39 C818.36 380.73, 807.69 391.39, 786.36 391.39 M786.36 391.39 C590.17 391.39, 393.98 391.39, 32 391.39 M786.36 391.39 C517.84 391.39, 249.32 391.39, 32 391.39 M32 391.39 C10.67 391.39, 0 380.73, 0 359.39 M32 391.39 C10.67 391.39, 0 380.73, 0 359.39 M0 359.39 C0 250.96, 0 142.52, 0 32 M0 359.39 C0 287.76, 0 216.12, 0 32 M0 32 C0 10.67, 10.67 0, 32 0 M0 32 C0 10.67, 10.67 0, 32 0" stroke="#2f9e44" stroke-width="2" fill="none"></path></g><g transform="translate(1163.2650451660156 811.88525390625) rotate(0 134.0625 57.599999999999994)"><text x="0" y="0" font-family="Cascadia, Segoe UI Emoji" font-size="16px" fill="#2f9e44" text-anchor="start" style="white-space: pre;" direction="ltr" dominant-baseline="text-before-edge">这里表示 Vue 开始编译模版，执行</text><text x="0" y="19.2" font-family="Cascadia, Segoe UI Emoji" font-size="16px" fill="#2f9e44" text-anchor="start" style="white-space: pre;" direction="ltr" dominant-baseline="text-before-edge">Vue 的指令，在内存中生成一个编译</text><text x="0" y="38.4" font-family="Cascadia, Segoe UI Emoji" font-size="16px" fill="#2f9e44" text-anchor="start" style="white-space: pre;" direction="ltr" dominant-baseline="text-before-edge">好的模版字符串，然后把这个模版</text><text x="0" y="57.599999999999994" font-family="Cascadia, Segoe UI Emoji" font-size="16px" fill="#2f9e44" text-anchor="start" style="white-space: pre;" direction="ltr" dominant-baseline="text-before-edge">字符串渲染为内存中的DOM，此时只在</text><text x="0" y="76.8" font-family="Cascadia, Segoe UI Emoji" font-size="16px" fill="#2f9e44" text-anchor="start" style="white-space: pre;" direction="ltr" dominant-baseline="text-before-edge">内存中渲染好了模版，并未把模版</text><text x="0" y="96" font-family="Cascadia, Segoe UI Emoji" font-size="16px" fill="#2f9e44" text-anchor="start" style="white-space: pre;" direction="ltr" dominant-baseline="text-before-edge">挂载到页面中去</text></g><g stroke-linecap="round"><g transform="translate(735.1061205797361 1366.1996459960938) rotate(0 0.7398723047328986 111.00072891785334)"><path d="M0 0 C0.25 37, 1.23 185, 1.48 222 M0 0 C0.25 37, 1.23 185, 1.48 222" stroke="#868e96" stroke-width="2" fill="none"></path></g><g transform="translate(735.1061205797361 1366.1996459960938) rotate(0 0.7398723047328986 111.00072891785334)"><path d="M-7.23 198.57 C-4.64 205.52, -2.06 212.48, 1.48 222 M-7.23 198.57 C-4.56 205.75, -1.89 212.94, 1.48 222" stroke="#868e96" stroke-width="2" fill="none"></path></g><g transform="translate(735.1061205797361 1366.1996459960938) rotate(0 0.7398723047328986 111.00072891785334)"><path d="M9.87 198.45 C7.38 205.44, 4.89 212.43, 1.48 222 M9.87 198.45 C7.3 205.67, 4.73 212.89, 1.48 222" stroke="#868e96" stroke-width="2" fill="none"></path></g></g><mask></mask><g stroke-linecap="round" transform="translate(778.0647888183593 1492.4674072265625) rotate(0 169.83511352539062 167.57315063476562)"><path d="M339.67 167.57 C339.67 171.75, 339.51 175.93, 339.2 180.1 C338.88 184.26, 338.4 188.42, 337.77 192.55 C337.14 196.68, 336.35 200.79, 335.41 204.86 C334.47 208.93, 333.37 212.98, 332.12 216.97 C330.88 220.96, 329.48 224.91, 327.93 228.79 C326.38 232.68, 324.69 236.52, 322.85 240.28 C321.02 244.04, 319.03 247.74, 316.92 251.36 C314.8 254.97, 312.54 258.52, 310.16 261.97 C307.78 265.42, 305.26 268.79, 302.62 272.05 C299.98 275.32, 297.21 278.49, 294.33 281.55 C291.46 284.61, 288.45 287.57, 285.35 290.41 C282.25 293.25, 279.03 295.98, 275.73 298.59 C272.42 301.19, 269 303.68, 265.51 306.03 C262.01 308.38, 258.42 310.61, 254.75 312.7 C251.09 314.78, 247.34 316.74, 243.52 318.55 C239.71 320.36, 235.82 322.04, 231.88 323.56 C227.94 325.09, 223.94 326.47, 219.89 327.7 C215.85 328.93, 211.75 330.02, 207.63 330.94 C203.5 331.87, 199.33 332.65, 195.15 333.27 C190.96 333.9, 186.75 334.37, 182.53 334.68 C178.31 334.99, 174.07 335.15, 169.84 335.15 C165.6 335.15, 161.36 334.99, 157.14 334.68 C152.92 334.37, 148.71 333.9, 144.52 333.27 C140.34 332.65, 136.17 331.87, 132.04 330.94 C127.92 330.02, 123.82 328.93, 119.78 327.7 C115.73 326.47, 111.73 325.09, 107.79 323.56 C103.85 322.04, 99.96 320.36, 96.15 318.55 C92.33 316.74, 88.58 314.78, 84.92 312.7 C81.25 310.61, 77.66 308.38, 74.16 306.03 C70.67 303.68, 67.25 301.19, 63.94 298.59 C60.64 295.98, 57.42 293.25, 54.32 290.41 C51.22 287.57, 48.21 284.61, 45.34 281.55 C42.46 278.49, 39.69 275.32, 37.05 272.05 C34.41 268.79, 31.89 265.42, 29.51 261.97 C27.13 258.52, 24.87 254.97, 22.75 251.36 C20.64 247.74, 18.65 244.04, 16.82 240.28 C14.98 236.52, 13.29 232.68, 11.74 228.79 C10.19 224.91, 8.79 220.96, 7.55 216.97 C6.3 212.98, 5.2 208.93, 4.26 204.86 C3.32 200.79, 2.53 196.68, 1.9 192.55 C1.27 188.42, 0.79 184.26, 0.47 180.1 C0.16 175.93, 0 171.75, 0 167.57 C0 163.4, 0.16 159.21, 0.47 155.05 C0.79 150.89, 1.27 146.73, 1.9 142.6 C2.53 138.47, 3.32 134.35, 4.26 130.28 C5.2 126.22, 6.3 122.17, 7.55 118.18 C8.79 114.19, 10.19 110.24, 11.74 106.35 C13.29 102.47, 14.98 98.63, 16.82 94.87 C18.65 91.11, 20.64 87.4, 22.75 83.79 C24.87 80.17, 27.13 76.62, 29.51 73.18 C31.89 69.73, 34.41 66.36, 37.05 63.09 C39.69 59.83, 42.46 56.65, 45.34 53.59 C48.21 50.53, 51.22 47.57, 54.32 44.73 C57.42 41.89, 60.64 39.16, 63.94 36.56 C67.25 33.96, 70.67 31.47, 74.16 29.12 C77.66 26.77, 81.25 24.54, 84.92 22.45 C88.58 20.36, 92.33 18.41, 96.15 16.59 C99.96 14.78, 103.85 13.11, 107.79 11.58 C111.73 10.06, 115.73 8.68, 119.78 7.44 C123.82 6.21, 127.92 5.13, 132.04 4.2 C136.17 3.27, 140.34 2.49, 144.52 1.87 C148.71 1.25, 152.92 0.78, 157.14 0.47 C161.36 0.16, 165.6 0, 169.84 0 C174.07 0, 178.31 0.16, 182.53 0.47 C186.75 0.78, 190.96 1.25, 195.15 1.87 C199.33 2.49, 203.5 3.27, 207.63 4.2 C211.75 5.13, 215.85 6.21, 219.89 7.44 C223.94 8.68, 227.94 10.06, 231.88 11.58 C235.82 13.11, 239.71 14.78, 243.52 16.59 C247.34 18.41, 251.09 20.36, 254.75 22.45 C258.42 24.54, 262.01 26.77, 265.51 29.12 C269 31.47, 272.42 33.96, 275.73 36.56 C279.03 39.16, 282.25 41.89, 285.35 44.73 C288.45 47.57, 291.46 50.53, 294.33 53.59 C297.21 56.65, 299.98 59.83, 302.62 63.09 C305.26 66.36, 307.78 69.73, 310.16 73.18 C312.54 76.62, 314.8 80.17, 316.92 83.79 C319.03 87.4, 321.02 91.11, 322.85 94.87 C324.69 98.63, 326.38 102.47, 327.93 106.35 C329.48 110.24, 330.88 114.19, 332.12 118.18 C333.37 122.17, 334.47 126.22, 335.41 130.28 C336.35 134.35, 337.14 138.47, 337.77 142.6 C338.4 146.73, 338.88 150.89, 339.2 155.05 C339.51 159.21, 339.67 163.4, 339.67 167.57" stroke="#868e96" stroke-width="2.5" fill="none" stroke-dasharray="8 10"></path></g><g stroke-linecap="round" transform="translate(645.3741760253905 1591.3401489257812) rotate(0 90.75698852539062 90.68710327148438)"><path d="M181.51 90.69 C181.51 93.65, 181.37 96.63, 181.08 99.58 C180.79 102.52, 180.35 105.47, 179.77 108.38 C179.19 111.29, 178.47 114.18, 177.61 117.01 C176.75 119.85, 175.74 122.65, 174.61 125.39 C173.47 128.13, 172.2 130.82, 170.8 133.44 C169.4 136.05, 167.87 138.61, 166.22 141.07 C164.57 143.53, 162.79 145.93, 160.91 148.22 C159.03 150.51, 157.03 152.72, 154.93 154.81 C152.84 156.91, 150.62 158.91, 148.33 160.79 C146.04 162.67, 143.64 164.44, 141.18 166.09 C138.71 167.74, 136.15 169.27, 133.54 170.67 C130.92 172.06, 128.23 173.34, 125.49 174.47 C122.75 175.6, 119.94 176.61, 117.1 177.47 C114.26 178.33, 111.37 179.05, 108.46 179.63 C105.55 180.21, 102.6 180.65, 99.65 180.94 C96.7 181.23, 93.72 181.37, 90.76 181.37 C87.79 181.37, 84.81 181.23, 81.86 180.94 C78.91 180.65, 75.96 180.21, 73.05 179.63 C70.14 179.05, 67.25 178.33, 64.41 177.47 C61.57 176.61, 58.77 175.6, 56.03 174.47 C53.29 173.34, 50.59 172.06, 47.97 170.67 C45.36 169.27, 42.8 167.74, 40.34 166.09 C37.87 164.44, 35.47 162.67, 33.18 160.79 C30.89 158.91, 28.68 156.91, 26.58 154.81 C24.49 152.72, 22.48 150.51, 20.6 148.22 C18.72 145.93, 16.94 143.53, 15.3 141.07 C13.65 138.61, 12.11 136.05, 10.72 133.44 C9.32 130.82, 8.04 128.13, 6.91 125.39 C5.77 122.65, 4.77 119.85, 3.91 117.01 C3.05 114.18, 2.32 111.29, 1.74 108.38 C1.17 105.47, 0.73 102.52, 0.44 99.58 C0.15 96.63, 0 93.65, 0 90.69 C0 87.72, 0.15 84.75, 0.44 81.8 C0.73 78.85, 1.17 75.9, 1.74 72.99 C2.32 70.09, 3.05 67.2, 3.91 64.36 C4.77 61.53, 5.77 58.72, 6.91 55.98 C8.04 53.25, 9.32 50.55, 10.72 47.94 C12.11 45.32, 13.65 42.77, 15.3 40.3 C16.94 37.84, 18.72 35.45, 20.6 33.16 C22.48 30.87, 24.49 28.66, 26.58 26.56 C28.68 24.47, 30.89 22.46, 33.18 20.59 C35.47 18.71, 37.87 16.93, 40.34 15.28 C42.8 13.64, 45.36 12.1, 47.97 10.71 C50.59 9.31, 53.29 8.04, 56.03 6.9 C58.77 5.77, 61.57 4.77, 64.41 3.9 C67.25 3.04, 70.14 2.32, 73.05 1.74 C75.96 1.16, 78.91 0.73, 81.86 0.44 C84.81 0.15, 87.79 0, 90.76 0 C93.72 0, 96.7 0.15, 99.65 0.44 C102.6 0.73, 105.55 1.16, 108.46 1.74 C111.37 2.32, 114.26 3.04, 117.1 3.9 C119.94 4.77, 122.75 5.77, 125.49 6.9 C128.23 8.04, 130.92 9.31, 133.54 10.71 C136.15 12.1, 138.71 13.64, 141.18 15.28 C143.64 16.93, 146.04 18.71, 148.33 20.59 C150.62 22.46, 152.84 24.47, 154.93 26.56 C157.03 28.66, 159.03 30.87, 160.91 33.16 C162.79 35.45, 164.57 37.84, 166.22 40.3 C167.87 42.77, 169.4 45.32, 170.8 47.94 C172.2 50.55, 173.47 53.25, 174.61 55.98 C175.74 58.72, 176.75 61.53, 177.61 64.36 C178.47 67.2, 179.19 70.09, 179.77 72.99 C180.35 75.9, 180.79 78.85, 181.08 81.8 C181.37 84.75, 181.44 89.21, 181.51 90.69 C181.59 92.17, 181.59 89.21, 181.51 90.69" stroke="none" stroke-width="0" fill="#e03131"></path><path d="M181.51 90.69 C181.51 93.65, 181.37 96.63, 181.08 99.58 C180.79 102.52, 180.35 105.47, 179.77 108.38 C179.19 111.29, 178.47 114.18, 177.61 117.01 C176.75 119.85, 175.74 122.65, 174.61 125.39 C173.47 128.13, 172.2 130.82, 170.8 133.44 C169.4 136.05, 167.87 138.61, 166.22 141.07 C164.57 143.53, 162.79 145.93, 160.91 148.22 C159.03 150.51, 157.03 152.72, 154.93 154.81 C152.84 156.91, 150.62 158.91, 148.33 160.79 C146.04 162.67, 143.64 164.44, 141.18 166.09 C138.71 167.74, 136.15 169.27, 133.54 170.67 C130.92 172.06, 128.23 173.34, 125.49 174.47 C122.75 175.6, 119.94 176.61, 117.1 177.47 C114.26 178.33, 111.37 179.05, 108.46 179.63 C105.55 180.21, 102.6 180.65, 99.65 180.94 C96.7 181.23, 93.72 181.37, 90.76 181.37 C87.79 181.37, 84.81 181.23, 81.86 180.94 C78.91 180.65, 75.96 180.21, 73.05 179.63 C70.14 179.05, 67.25 178.33, 64.41 177.47 C61.57 176.61, 58.77 175.6, 56.03 174.47 C53.29 173.34, 50.59 172.06, 47.97 170.67 C45.36 169.27, 42.8 167.74, 40.34 166.09 C37.87 164.44, 35.47 162.67, 33.18 160.79 C30.89 158.91, 28.68 156.91, 26.58 154.81 C24.49 152.72, 22.48 150.51, 20.6 148.22 C18.72 145.93, 16.94 143.53, 15.3 141.07 C13.65 138.61, 12.11 136.05, 10.72 133.44 C9.32 130.82, 8.04 128.13, 6.91 125.39 C5.77 122.65, 4.77 119.85, 3.91 117.01 C3.05 114.18, 2.32 111.29, 1.74 108.38 C1.17 105.47, 0.73 102.52, 0.44 99.58 C0.15 96.63, 0 93.65, 0 90.69 C0 87.72, 0.15 84.75, 0.44 81.8 C0.73 78.85, 1.17 75.9, 1.74 72.99 C2.32 70.09, 3.05 67.2, 3.91 64.36 C4.77 61.53, 5.77 58.72, 6.91 55.98 C8.04 53.25, 9.32 50.55, 10.72 47.94 C12.11 45.32, 13.65 42.77, 15.3 40.3 C16.94 37.84, 18.72 35.45, 20.6 33.16 C22.48 30.87, 24.49 28.66, 26.58 26.56 C28.68 24.47, 30.89 22.46, 33.18 20.59 C35.47 18.71, 37.87 16.93, 40.34 15.28 C42.8 13.64, 45.36 12.1, 47.97 10.71 C50.59 9.31, 53.29 8.04, 56.03 6.9 C58.77 5.77, 61.57 4.77, 64.41 3.9 C67.25 3.04, 70.14 2.32, 73.05 1.74 C75.96 1.16, 78.91 0.73, 81.86 0.44 C84.81 0.15, 87.79 0, 90.76 0 C93.72 0, 96.7 0.15, 99.65 0.44 C102.6 0.73, 105.55 1.16, 108.46 1.74 C111.37 2.32, 114.26 3.04, 117.1 3.9 C119.94 4.77, 122.75 5.77, 125.49 6.9 C128.23 8.04, 130.92 9.31, 133.54 10.71 C136.15 12.1, 138.71 13.64, 141.18 15.28 C143.64 16.93, 146.04 18.71, 148.33 20.59 C150.62 22.46, 152.84 24.47, 154.93 26.56 C157.03 28.66, 159.03 30.87, 160.91 33.16 C162.79 35.45, 164.57 37.84, 166.22 40.3 C167.87 42.77, 169.4 45.32, 170.8 47.94 C172.2 50.55, 173.47 53.25, 174.61 55.98 C175.74 58.72, 176.75 61.53, 177.61 64.36 C178.47 67.2, 179.19 70.09, 179.77 72.99 C180.35 75.9, 180.79 78.85, 181.08 81.8 C181.37 84.75, 181.44 89.21, 181.51 90.69 C181.59 92.17, 181.59 89.21, 181.51 90.69" stroke="transparent" stroke-width="1.5" fill="none" stroke-dasharray="8 9"></path></g><g transform="translate(703.1437825244078 1672.3017865078343) rotate(0 32.8125 9.600000000000023)"><text x="32.8125" y="0" font-family="Cascadia, Segoe UI Emoji" font-size="16px" fill="#ffffff" text-anchor="middle" style="white-space: pre;" direction="ltr" dominant-baseline="text-before-edge">Mounted</text></g><g transform="translate(885.4357604980468 1458.1669311523438) rotate(0 79.6875 9.600000000000023)"><text x="0" y="0" font-family="Cascadia, Segoe UI Emoji" font-size="16px" fill="#1e1e1e" text-anchor="start" style="white-space: pre;" direction="ltr" dominant-baseline="text-before-edge">when data changes</text></g><g stroke-linecap="round"><g transform="translate(1077.9848390450047 1550.3387924812876) rotate(0 36.68185110738034 -28.256869483189917)"><path d="M0 0 C12.23 -9.42, 61.14 -47.09, 73.36 -56.51" stroke="#e03131" stroke-width="2.5" fill="none" stroke-dasharray="8 10"></path></g><g transform="translate(1077.9848390450047 1550.3387924812876) rotate(0 36.68185110738034 -28.256869483189917)"><path d="M59.97 -35.4 C65.16 -43.59, 70.36 -51.78, 73.36 -56.51" stroke="#e03131" stroke-width="2.5" fill="none"></path></g><g transform="translate(1077.9848390450047 1550.3387924812876) rotate(0 36.68185110738034 -28.256869483189917)"><path d="M49.53 -48.95 C58.78 -51.88, 68.02 -54.82, 73.36 -56.51" stroke="#e03131" stroke-width="2.5" fill="none"></path></g></g><mask></mask><g stroke-linecap="round" transform="translate(1153.832260131836 1465.8447265625) rotate(0 73.54887390136707 25.46527099609375)"><path d="M12.73 0 C55.26 0, 97.79 0, 134.37 0 M12.73 0 C47.21 0, 81.68 0, 134.37 0 M134.37 0 C142.85 0, 147.1 4.24, 147.1 12.73 M134.37 0 C142.85 0, 147.1 4.24, 147.1 12.73 M147.1 12.73 C147.1 22.21, 147.1 31.69, 147.1 38.2 M147.1 12.73 C147.1 18.54, 147.1 24.36, 147.1 38.2 M147.1 38.2 C147.1 46.69, 142.85 50.93, 134.37 50.93 M147.1 38.2 C147.1 46.69, 142.85 50.93, 134.37 50.93 M134.37 50.93 C91.7 50.93, 49.03 50.93, 12.73 50.93 M134.37 50.93 C106.47 50.93, 78.57 50.93, 12.73 50.93 M12.73 50.93 C4.24 50.93, 0 46.69, 0 38.2 M12.73 50.93 C4.24 50.93, 0 46.69, 0 38.2 M0 38.2 C0 32.89, 0 27.58, 0 12.73 M0 38.2 C0 32.31, 0 26.42, 0 12.73 M0 12.73 C0 4.24, 4.24 0, 12.73 0 M0 12.73 C0 4.24, 4.24 0, 12.73 0" stroke="#e03131" stroke-width="2" fill="none"></path></g><g transform="translate(1171.1311340332031 1481.7099975585938) rotate(0 56.25 9.600000000000023)"><text x="56.25" y="0" font-family="Cascadia, Segoe UI Emoji" font-size="16px" fill="#e03131" text-anchor="middle" style="white-space: pre;" direction="ltr" dominant-baseline="text-before-edge">beforeUpdate</text></g><g transform="translate(1251.7241516113281 1333.0217590332031) rotate(0 112.25 28.80000000000001)"><text x="0" y="0" font-family="Cascadia, Segoe UI Emoji" font-size="16px" fill="#e03131" text-anchor="start" style="white-space: pre;" direction="ltr" dominant-baseline="text-before-edge">当执行beforeUpdate的时候，</text><text x="0" y="19.2" font-family="Cascadia, Segoe UI Emoji" font-size="16px" fill="#e03131" text-anchor="start" style="white-space: pre;" direction="ltr" dominant-baseline="text-before-edge">页面中的数据还未更新，此时</text><text x="0" y="38.4" font-family="Cascadia, Segoe UI Emoji" font-size="16px" fill="#e03131" text-anchor="start" style="white-space: pre;" direction="ltr" dominant-baseline="text-before-edge">data中数据是最新的</text></g><g stroke-linecap="round"><g transform="translate(1273.0221795599587 1462.8047485351562) rotate(0 25.489422375313893 -34.51507568359375)"><path d="M0 0 C8.5 -11.51, 42.48 -57.53, 50.98 -69.03 M0 0 C8.5 -11.51, 42.48 -57.53, 50.98 -69.03" stroke="#e03131" stroke-width="2" fill="none"></path></g><g transform="translate(1273.0221795599587 1462.8047485351562) rotate(0 25.489422375313893 -34.51507568359375)"><path d="M43.9 -45.05 C46.2 -52.83, 48.5 -60.62, 50.98 -69.03 M43.9 -45.05 C46.66 -54.4, 49.42 -63.75, 50.98 -69.03" stroke="#e03131" stroke-width="2" fill="none"></path></g><g transform="translate(1273.0221795599587 1462.8047485351562) rotate(0 25.489422375313893 -34.51507568359375)"><path d="M30.14 -55.21 C36.91 -59.7, 43.67 -64.18, 50.98 -69.03 M30.14 -55.21 C38.27 -60.6, 46.39 -65.99, 50.98 -69.03" stroke="#e03131" stroke-width="2" fill="none"></path></g></g><mask></mask><g stroke-linecap="round" transform="translate(1037.1532287597656 1591.8421630859375) rotate(0 113.66632080078125 65.44430541992188)"><path d="M32 0 C83.96 0, 135.91 0, 195.33 0 C216.67 0, 227.33 10.67, 227.33 32 C227.33 55.37, 227.33 78.74, 227.33 98.89 C227.33 120.22, 216.67 130.89, 195.33 130.89 C157.4 130.89, 119.47 130.89, 32 130.89 C10.67 130.89, 0 120.22, 0 98.89 C0 78.72, 0 58.55, 0 32 C0 10.67, 10.67 0, 32 0" stroke="none" stroke-width="0" fill="#40c057"></path><path d="M32 0 C84.96 0, 137.92 0, 195.33 0 M32 0 C68.46 0, 104.91 0, 195.33 0 M195.33 0 C216.67 0, 227.33 10.67, 227.33 32 M195.33 0 C216.67 0, 227.33 10.67, 227.33 32 M227.33 32 C227.33 50.99, 227.33 69.99, 227.33 98.89 M227.33 32 C227.33 52.18, 227.33 72.36, 227.33 98.89 M227.33 98.89 C227.33 120.22, 216.67 130.89, 195.33 130.89 M227.33 98.89 C227.33 120.22, 216.67 130.89, 195.33 130.89 M195.33 130.89 C133.43 130.89, 71.54 130.89, 32 130.89 M195.33 130.89 C134.68 130.89, 74.02 130.89, 32 130.89 M32 130.89 C10.67 130.89, 0 120.22, 0 98.89 M32 130.89 C10.67 130.89, 0 120.22, 0 98.89 M0 98.89 C0 77.18, 0 55.46, 0 32 M0 98.89 C0 85.27, 0 71.65, 0 32 M0 32 C0 10.67, 10.67 0, 32 0 M0 32 C0 10.67, 10.67 0, 32 0" stroke="transparent" stroke-width="2" fill="none"></path></g><g transform="translate(1099.2570495605469 1628.4864685058594) rotate(0 51.5625 28.799999999999955)"><text x="51.5625" y="0" font-family="Cascadia, Segoe UI Emoji" font-size="16px" fill="#ffffff" text-anchor="middle" style="white-space: pre;" direction="ltr" dominant-baseline="text-before-edge">Virtual DOM</text><text x="51.5625" y="19.2" font-family="Cascadia, Segoe UI Emoji" font-size="16px" fill="#ffffff" text-anchor="middle" style="white-space: pre;" direction="ltr" dominant-baseline="text-before-edge">re-render</text><text x="51.5625" y="38.4" font-family="Cascadia, Segoe UI Emoji" font-size="16px" fill="#ffffff" text-anchor="middle" style="white-space: pre;" direction="ltr" dominant-baseline="text-before-edge">and patch</text></g><g stroke-linecap="round"><g transform="translate(1078.148719782187 1781.1023053745953) rotate(0 28.62743759425814 18.178710903428964)"><path d="M0 0 C9.54 6.06, 47.71 30.3, 57.25 36.36" stroke="#e03131" stroke-width="2.5" fill="none" stroke-dasharray="8 10"></path></g><g transform="translate(1078.148719782187 1781.1023053745953) rotate(0 28.62743759425814 18.178710903428964)"><path d="M32.84 30.98 C42.16 33.04, 51.49 35.09, 57.25 36.36" stroke="#e03131" stroke-width="2.5" fill="none"></path></g><g transform="translate(1078.148719782187 1781.1023053745953) rotate(0 28.62743759425814 18.178710903428964)"><path d="M42.01 16.55 C47.83 24.11, 53.65 31.68, 57.25 36.36" stroke="#e03131" stroke-width="2.5" fill="none"></path></g></g><mask></mask><g stroke-linecap="round" transform="translate(1137.8873138427734 1791.0144348144531) rotate(0 73.54887390136707 25.46527099609375)"><path d="M12.73 0 C49.97 0, 87.21 0, 134.37 0 M12.73 0 C39.87 0, 67.02 0, 134.37 0 M134.37 0 C142.85 0, 147.1 4.24, 147.1 12.73 M134.37 0 C142.85 0, 147.1 4.24, 147.1 12.73 M147.1 12.73 C147.1 21.42, 147.1 30.11, 147.1 38.2 M147.1 12.73 C147.1 20.51, 147.1 28.29, 147.1 38.2 M147.1 38.2 C147.1 46.69, 142.85 50.93, 134.37 50.93 M147.1 38.2 C147.1 46.69, 142.85 50.93, 134.37 50.93 M134.37 50.93 C109.35 50.93, 84.33 50.93, 12.73 50.93 M134.37 50.93 C87.99 50.93, 41.61 50.93, 12.73 50.93 M12.73 50.93 C4.24 50.93, 0 46.69, 0 38.2 M12.73 50.93 C4.24 50.93, 0 46.69, 0 38.2 M0 38.2 C0 31.41, 0 24.62, 0 12.73 M0 38.2 C0 30.45, 0 22.69, 0 12.73 M0 12.73 C0 4.24, 4.24 0, 12.73 0 M0 12.73 C0 4.24, 4.24 0, 12.73 0" stroke="#e03131" stroke-width="2" fill="none"></path></g><g transform="translate(1178.6236877441406 1806.879705810547) rotate(0 32.8125 9.600000000000023)"><text x="32.8125" y="0" font-family="Cascadia, Segoe UI Emoji" font-size="16px" fill="#e03131" text-anchor="middle" style="white-space: pre;" direction="ltr" dominant-baseline="text-before-edge">updated</text></g><g mask="url(#mask-PNFYUdSnb9c9vMvNvGz2F)" stroke-linecap="round"><g transform="translate(736.6893894028789 1773.7126587013697) rotate(0 -0.44754050972414916 119.43862304189327)"><path d="M0 0 C0.02 15.26, 0.31 51.76, 0.13 91.58 C-0.04 131.39, -0.84 214.33, -1.03 238.88" stroke="#868e96" stroke-width="2.5" fill="none" stroke-dasharray="8 10"></path></g><g transform="translate(736.6893894028789 1773.7126587013697) rotate(0 -0.44754050972414916 119.43862304189327)"><path d="M-9.38 215.31 C-6.83 222.51, -4.28 229.71, -1.03 238.88" stroke="#868e96" stroke-width="2.5" fill="none"></path></g><g transform="translate(736.6893894028789 1773.7126587013697) rotate(0 -0.44754050972414916 119.43862304189327)"><path d="M7.72 215.46 C5.05 222.61, 2.38 229.77, -1.03 238.88" stroke="#868e96" stroke-width="2.5" fill="none"></path></g></g><mask id="mask-PNFYUdSnb9c9vMvNvGz2F"><rect x="0" y="0" fill="#fff" width="837.854312222038" height="2112.5899047851562"></rect><rect x="652.4493103027344" y="1846.0886962890622" fill="#000" width="168.75" height="38.4" opacity="1"></rect></mask><g transform="translate(652.4493103027344 1846.0886962890622) rotate(0 83.8199627025374 47.06258545420053)"><text x="84.375" y="0" font-family="Cascadia, Segoe UI Emoji" font-size="16px" fill="#868e96" text-anchor="middle" style="white-space: pre;" direction="ltr" dominant-baseline="text-before-edge">when vm.$destroy()</text><text x="84.375" y="19.2" font-family="Cascadia, Segoe UI Emoji" font-size="16px" fill="#868e96" text-anchor="middle" style="white-space: pre;" direction="ltr" dominant-baseline="text-before-edge">is called</text></g><g stroke-linecap="round" transform="translate(622.829620361328 2017.9483947753906) rotate(0 113.66632080078125 65.44430541992188)"><path d="M32 0 C90.97 0, 149.93 0, 195.33 0 C216.67 0, 227.33 10.67, 227.33 32 C227.33 47.81, 227.33 63.63, 227.33 98.89 C227.33 120.22, 216.67 130.89, 195.33 130.89 C160.07 130.89, 124.8 130.89, 32 130.89 C10.67 130.89, 0 120.22, 0 98.89 C0 72.18, 0 45.47, 0 32 C0 10.67, 10.67 0, 32 0" stroke="none" stroke-width="0" fill="#40c057"></path><path d="M32 0 C94.15 0, 156.29 0, 195.33 0 M32 0 C80.16 0, 128.33 0, 195.33 0 M195.33 0 C216.67 0, 227.33 10.67, 227.33 32 M195.33 0 C216.67 0, 227.33 10.67, 227.33 32 M227.33 32 C227.33 55.92, 227.33 79.84, 227.33 98.89 M227.33 32 C227.33 48.79, 227.33 65.59, 227.33 98.89 M227.33 98.89 C227.33 120.22, 216.67 130.89, 195.33 130.89 M227.33 98.89 C227.33 120.22, 216.67 130.89, 195.33 130.89 M195.33 130.89 C148.3 130.89, 101.26 130.89, 32 130.89 M195.33 130.89 C134.15 130.89, 72.97 130.89, 32 130.89 M32 130.89 C10.67 130.89, 0 120.22, 0 98.89 M32 130.89 C10.67 130.89, 0 120.22, 0 98.89 M0 98.89 C0 75.78, 0 52.67, 0 32 M0 98.89 C0 82.78, 0 66.67, 0 32 M0 32 C0 10.67, 10.67 0, 32 0 M0 32 C0 10.67, 10.67 0, 32 0" stroke="transparent" stroke-width="2" fill="none"></path></g><g transform="translate(638.0584411621093 2054.5927001953123) rotate(0 98.4375 28.799999999999955)"><text x="98.4375" y="0" font-family="Cascadia, Segoe UI Emoji" font-size="16px" fill="#ffffff" text-anchor="middle" style="white-space: pre;" direction="ltr" dominant-baseline="text-before-edge">Teardown watchers, </text><text x="98.4375" y="19.2" font-family="Cascadia, Segoe UI Emoji" font-size="16px" fill="#ffffff" text-anchor="middle" style="white-space: pre;" direction="ltr" dominant-baseline="text-before-edge">child components and </text><text x="98.4375" y="38.4" font-family="Cascadia, Segoe UI Emoji" font-size="16px" fill="#ffffff" text-anchor="middle" style="white-space: pre;" direction="ltr" dominant-baseline="text-before-edge">event listeners</text></g><g stroke-linecap="round"><g transform="translate(738.9133257552295 2150.008544921875) rotate(0 0.17325119639963305 12.69932744975904)"><path d="M0 0 C0.06 4.23, 0.29 21.17, 0.35 25.4 M0 0 C0.06 4.23, 0.29 21.17, 0.35 25.4" stroke="#868e96" stroke-width="2" fill="none"></path></g><g transform="translate(738.9133257552295 2150.008544921875) rotate(0 0.17325119639963305 12.69932744975904)"><path d="M-4.16 13.52 C-2.89 16.86, -1.63 20.2, 0.35 25.4 M-4.16 13.52 C-2.53 17.83, -0.89 22.13, 0.35 25.4" stroke="#868e96" stroke-width="2" fill="none"></path></g><g transform="translate(738.9133257552295 2150.008544921875) rotate(0 0.17325119639963305 12.69932744975904)"><path d="M4.53 13.41 C3.35 16.78, 2.18 20.15, 0.35 25.4 M4.53 13.41 C3.01 17.75, 1.5 22.1, 0.35 25.4" stroke="#868e96" stroke-width="2" fill="none"></path></g></g><mask></mask><g stroke-linecap="round" transform="translate(645.3280944824218 2177.6394653320312) rotate(0 91.83306884765625 87.56442260742188)"><path d="M183.67 87.56 C183.67 90.43, 183.52 93.3, 183.22 96.15 C182.93 98.99, 182.49 101.84, 181.9 104.65 C181.32 107.45, 180.58 110.25, 179.71 112.98 C178.84 115.72, 177.82 118.43, 176.68 121.07 C175.53 123.72, 174.24 126.32, 172.82 128.84 C171.41 131.37, 169.86 133.83, 168.19 136.21 C166.52 138.59, 164.72 140.9, 162.82 143.11 C160.92 145.33, 158.89 147.46, 156.77 149.48 C154.65 151.5, 152.41 153.44, 150.09 155.25 C147.77 157.07, 145.35 158.78, 142.85 160.37 C140.36 161.96, 137.77 163.44, 135.12 164.79 C132.48 166.14, 129.75 167.37, 126.98 168.46 C124.2 169.56, 121.36 170.53, 118.49 171.36 C115.62 172.19, 112.69 172.89, 109.75 173.45 C106.81 174, 103.82 174.43, 100.83 174.71 C97.85 174.99, 94.83 175.13, 91.83 175.13 C88.83 175.13, 85.82 174.99, 82.83 174.71 C79.85 174.43, 76.86 174, 73.92 173.45 C70.97 172.89, 68.05 172.19, 65.18 171.36 C62.3 170.53, 59.46 169.56, 56.69 168.46 C53.92 167.37, 51.19 166.14, 48.54 164.79 C45.9 163.44, 43.31 161.96, 40.81 160.37 C38.32 158.78, 35.89 157.07, 33.57 155.25 C31.26 153.44, 29.02 151.5, 26.9 149.48 C24.78 147.46, 22.75 145.33, 20.85 143.11 C18.94 140.9, 17.14 138.59, 15.48 136.21 C13.81 133.83, 12.26 131.37, 10.84 128.84 C9.43 126.32, 8.14 123.72, 6.99 121.07 C5.84 118.43, 4.83 115.72, 3.95 112.98 C3.08 110.25, 2.35 107.45, 1.76 104.65 C1.18 101.84, 0.74 98.99, 0.44 96.15 C0.15 93.3, 0 90.43, 0 87.56 C0 84.7, 0.15 81.83, 0.44 78.98 C0.74 76.13, 1.18 73.29, 1.76 70.48 C2.35 67.68, 3.08 64.88, 3.95 62.15 C4.83 59.41, 5.84 56.7, 6.99 54.05 C8.14 51.41, 9.43 48.81, 10.84 46.29 C12.26 43.76, 13.81 41.3, 15.48 38.92 C17.14 36.54, 18.94 34.23, 20.85 32.01 C22.75 29.8, 24.78 27.67, 26.9 25.65 C29.02 23.62, 31.26 21.69, 33.57 19.88 C35.89 18.06, 38.32 16.35, 40.81 14.76 C43.31 13.17, 45.9 11.69, 48.54 10.34 C51.19 8.99, 53.92 7.76, 56.69 6.67 C59.46 5.57, 62.3 4.6, 65.18 3.77 C68.05 2.94, 70.97 2.24, 73.92 1.68 C76.86 1.12, 79.85 0.7, 82.83 0.42 C85.82 0.14, 88.83 0, 91.83 0 C94.83 0, 97.85 0.14, 100.83 0.42 C103.82 0.7, 106.81 1.12, 109.75 1.68 C112.69 2.24, 115.62 2.94, 118.49 3.77 C121.36 4.6, 124.2 5.57, 126.98 6.67 C129.75 7.76, 132.48 8.99, 135.12 10.34 C137.77 11.69, 140.36 13.17, 142.85 14.76 C145.35 16.35, 147.77 18.06, 150.09 19.88 C152.41 21.69, 154.65 23.62, 156.77 25.65 C158.89 27.67, 160.92 29.8, 162.82 32.01 C164.72 34.23, 166.52 36.54, 168.19 38.92 C169.86 41.3, 171.41 43.76, 172.82 46.29 C174.24 48.81, 175.53 51.41, 176.68 54.05 C177.82 56.7, 178.84 59.41, 179.71 62.15 C180.58 64.88, 181.32 67.68, 181.9 70.48 C182.49 73.29, 182.93 76.13, 183.22 78.98 C183.52 81.83, 183.59 86.13, 183.67 87.56 C183.74 88.99, 183.74 86.13, 183.67 87.56" stroke="none" stroke-width="0" fill="#e03131"></path><path d="M183.67 87.56 C183.67 90.43, 183.52 93.3, 183.22 96.15 C182.93 98.99, 182.49 101.84, 181.9 104.65 C181.32 107.45, 180.58 110.25, 179.71 112.98 C178.84 115.72, 177.82 118.43, 176.68 121.07 C175.53 123.72, 174.24 126.32, 172.82 128.84 C171.41 131.37, 169.86 133.83, 168.19 136.21 C166.52 138.59, 164.72 140.9, 162.82 143.11 C160.92 145.33, 158.89 147.46, 156.77 149.48 C154.65 151.5, 152.41 153.44, 150.09 155.25 C147.77 157.07, 145.35 158.78, 142.85 160.37 C140.36 161.96, 137.77 163.44, 135.12 164.79 C132.48 166.14, 129.75 167.37, 126.98 168.46 C124.2 169.56, 121.36 170.53, 118.49 171.36 C115.62 172.19, 112.69 172.89, 109.75 173.45 C106.81 174, 103.82 174.43, 100.83 174.71 C97.85 174.99, 94.83 175.13, 91.83 175.13 C88.83 175.13, 85.82 174.99, 82.83 174.71 C79.85 174.43, 76.86 174, 73.92 173.45 C70.97 172.89, 68.05 172.19, 65.18 171.36 C62.3 170.53, 59.46 169.56, 56.69 168.46 C53.92 167.37, 51.19 166.14, 48.54 164.79 C45.9 163.44, 43.31 161.96, 40.81 160.37 C38.32 158.78, 35.89 157.07, 33.57 155.25 C31.26 153.44, 29.02 151.5, 26.9 149.48 C24.78 147.46, 22.75 145.33, 20.85 143.11 C18.94 140.9, 17.14 138.59, 15.48 136.21 C13.81 133.83, 12.26 131.37, 10.84 128.84 C9.43 126.32, 8.14 123.72, 6.99 121.07 C5.84 118.43, 4.83 115.72, 3.95 112.98 C3.08 110.25, 2.35 107.45, 1.76 104.65 C1.18 101.84, 0.74 98.99, 0.44 96.15 C0.15 93.3, 0 90.43, 0 87.56 C0 84.7, 0.15 81.83, 0.44 78.98 C0.74 76.13, 1.18 73.29, 1.76 70.48 C2.35 67.68, 3.08 64.88, 3.95 62.15 C4.83 59.41, 5.84 56.7, 6.99 54.05 C8.14 51.41, 9.43 48.81, 10.84 46.29 C12.26 43.76, 13.81 41.3, 15.48 38.92 C17.14 36.54, 18.94 34.23, 20.85 32.01 C22.75 29.8, 24.78 27.67, 26.9 25.65 C29.02 23.62, 31.26 21.69, 33.57 19.88 C35.89 18.06, 38.32 16.35, 40.81 14.76 C43.31 13.17, 45.9 11.69, 48.54 10.34 C51.19 8.99, 53.92 7.76, 56.69 6.67 C59.46 5.57, 62.3 4.6, 65.18 3.77 C68.05 2.94, 70.97 2.24, 73.92 1.68 C76.86 1.12, 79.85 0.7, 82.83 0.42 C85.82 0.14, 88.83 0, 91.83 0 C94.83 0, 97.85 0.14, 100.83 0.42 C103.82 0.7, 106.81 1.12, 109.75 1.68 C112.69 2.24, 115.62 2.94, 118.49 3.77 C121.36 4.6, 124.2 5.57, 126.98 6.67 C129.75 7.76, 132.48 8.99, 135.12 10.34 C137.77 11.69, 140.36 13.17, 142.85 14.76 C145.35 16.35, 147.77 18.06, 150.09 19.88 C152.41 21.69, 154.65 23.62, 156.77 25.65 C158.89 27.67, 160.92 29.8, 162.82 32.01 C164.72 34.23, 166.52 36.54, 168.19 38.92 C169.86 41.3, 171.41 43.76, 172.82 46.29 C174.24 48.81, 175.53 51.41, 176.68 54.05 C177.82 56.7, 178.84 59.41, 179.71 62.15 C180.58 64.88, 181.32 67.68, 181.9 70.48 C182.49 73.29, 182.93 76.13, 183.22 78.98 C183.52 81.83, 183.59 86.13, 183.67 87.56 C183.74 88.99, 183.74 86.13, 183.67 87.56" stroke="transparent" stroke-width="2" fill="none"></path></g><g transform="translate(695.0378776107292 2255.686490923061) rotate(0 42.1875 9.600000000000023)"><text x="42.1875" y="0" font-family="Cascadia, Segoe UI Emoji" font-size="16px" fill="#ffffff" text-anchor="middle" style="white-space: pre;" direction="ltr" dominant-baseline="text-before-edge">Destroyed</text></g><g stroke-linecap="round"><g transform="translate(728.5017787381092 1968.8722641801542) rotate(0 -98.34087807755077 0.1877816399681933)"><path d="M0 0 C-32.78 0.06, -163.9 0.31, -196.68 0.38" stroke="#e03131" stroke-width="2.5" fill="none" stroke-dasharray="8 10"></path></g><g transform="translate(728.5017787381092 1968.8722641801542) rotate(0 -98.34087807755077 0.1877816399681933)"><path d="M-173.21 -8.22 C-181.66 -5.12, -190.11 -2.03, -196.68 0.38" stroke="#e03131" stroke-width="2.5" fill="none"></path></g><g transform="translate(728.5017787381092 1968.8722641801542) rotate(0 -98.34087807755077 0.1877816399681933)"><path d="M-173.17 8.88 C-181.64 5.82, -190.1 2.76, -196.68 0.38" stroke="#e03131" stroke-width="2.5" fill="none"></path></g></g><mask></mask><g stroke-linecap="round" transform="translate(370.56428527832054 1951.6082763671875) rotate(0 79.03471374511713 25.46527099609375)"><path d="M12.73 0 C44.35 0, 75.97 0, 145.34 0 M12.73 0 C53.36 0, 93.99 0, 145.34 0 M145.34 0 C153.83 0, 158.07 4.24, 158.07 12.73 M145.34 0 C153.83 0, 158.07 4.24, 158.07 12.73 M158.07 12.73 C158.07 21.74, 158.07 30.75, 158.07 38.2 M158.07 12.73 C158.07 19.21, 158.07 25.69, 158.07 38.2 M158.07 38.2 C158.07 46.69, 153.83 50.93, 145.34 50.93 M158.07 38.2 C158.07 46.69, 153.83 50.93, 145.34 50.93 M145.34 50.93 C97.78 50.93, 50.23 50.93, 12.73 50.93 M145.34 50.93 C99.87 50.93, 54.41 50.93, 12.73 50.93 M12.73 50.93 C4.24 50.93, 0 46.69, 0 38.2 M12.73 50.93 C4.24 50.93, 0 46.69, 0 38.2 M0 38.2 C0 33.09, 0 27.98, 0 12.73 M0 38.2 C0 30.45, 0 22.7, 0 12.73 M0 12.73 C0 4.24, 4.24 0, 12.73 0 M0 12.73 C0 4.24, 4.24 0, 12.73 0" stroke="#e03131" stroke-width="2" fill="none"></path></g><g transform="translate(379.2864990234377 1967.4735473632813) rotate(0 70.31250000000006 9.600000000000023)"><text x="70.3125" y="0" font-family="Cascadia, Segoe UI Emoji" font-size="16px" fill="#e03131" text-anchor="middle" style="white-space: pre;" direction="ltr" dominant-baseline="text-before-edge">beforeDestroyed</text></g><g stroke-linecap="round"><g transform="translate(641.6594657248544 2268.0450245724132) rotate(0 -57.38284107775928 -0.7236013762926632)"><path d="M0 0 C-19.13 -0.24, -95.64 -1.21, -114.77 -1.45" stroke="#e03131" stroke-width="2.5" fill="none" stroke-dasharray="8 10"></path></g><g transform="translate(641.6594657248544 2268.0450245724132) rotate(0 -57.38284107775928 -0.7236013762926632)"><path d="M-91.17 -9.7 C-100.5 -6.44, -109.84 -3.17, -114.77 -1.45" stroke="#e03131" stroke-width="2.5" fill="none"></path></g><g transform="translate(641.6594657248544 2268.0450245724132) rotate(0 -57.38284107775928 -0.7236013762926632)"><path d="M-91.38 7.4 C-100.63 3.9, -109.88 0.4, -114.77 -1.45" stroke="#e03131" stroke-width="2.5" fill="none"></path></g></g><mask></mask><g stroke-linecap="round" transform="translate(374.6151885986328 2241.5064697265625) rotate(0 73.54887390136713 25.46527099609375)"><path d="M12.73 0 C42 0, 71.27 0, 134.37 0 M12.73 0 C48.57 0, 84.41 0, 134.37 0 M134.37 0 C142.85 0, 147.1 4.24, 147.1 12.73 M134.37 0 C142.85 0, 147.1 4.24, 147.1 12.73 M147.1 12.73 C147.1 19.68, 147.1 26.62, 147.1 38.2 M147.1 12.73 C147.1 22.88, 147.1 33.02, 147.1 38.2 M147.1 38.2 C147.1 46.69, 142.85 50.93, 134.37 50.93 M147.1 38.2 C147.1 46.69, 142.85 50.93, 134.37 50.93 M134.37 50.93 C88.51 50.93, 42.66 50.93, 12.73 50.93 M134.37 50.93 C88.2 50.93, 42.03 50.93, 12.73 50.93 M12.73 50.93 C4.24 50.93, 0 46.69, 0 38.2 M12.73 50.93 C4.24 50.93, 0 46.69, 0 38.2 M0 38.2 C0 30.51, 0 22.82, 0 12.73 M0 38.2 C0 29.09, 0 19.98, 0 12.73 M0 12.73 C0 4.24, 4.24 0, 12.73 0 M0 12.73 C0 4.24, 4.24 0, 12.73 0" stroke="#e03131" stroke-width="2" fill="none"></path></g><g transform="translate(405.9765624999999 2257.3717407226563) rotate(0 42.1875 9.600000000000023)"><text x="42.1875" y="0" font-family="Cascadia, Segoe UI Emoji" font-size="16px" fill="#e03131" text-anchor="middle" style="white-space: pre;" direction="ltr" dominant-baseline="text-before-edge">destroyed</text></g><g stroke-linecap="round"><g transform="translate(731.6540335188 1397.3816878116459) rotate(0 -108.16711292045761 -0.0063877888140950745)"><path d="M0 0 C-36.06 0, -180.28 -0.01, -216.33 -0.01" stroke="#e03131" stroke-width="2.5" fill="none" stroke-dasharray="8 10"></path></g><g transform="translate(731.6540335188 1397.3816878116459) rotate(0 -108.16711292045761 -0.0063877888140950745)"><path d="M-192.84 -8.56 C-201.69 -5.34, -210.53 -2.12, -216.33 -0.01" stroke="#e03131" stroke-width="2.5" fill="none"></path></g><g transform="translate(731.6540335188 1397.3816878116459) rotate(0 -108.16711292045761 -0.0063877888140950745)"><path d="M-192.84 8.54 C-201.69 5.32, -210.53 2.1, -216.33 -0.01" stroke="#e03131" stroke-width="2.5" fill="none"></path></g></g><mask></mask><g stroke-linecap="round" transform="translate(365.33915710449196 1371.1939697265625) rotate(0 73.54887390136713 25.46527099609375)"><path d="M12.73 0 C53.08 0, 93.42 0, 134.37 0 M12.73 0 C49.61 0, 86.49 0, 134.37 0 M134.37 0 C142.85 0, 147.1 4.24, 147.1 12.73 M134.37 0 C142.85 0, 147.1 4.24, 147.1 12.73 M147.1 12.73 C147.1 20.36, 147.1 27.98, 147.1 38.2 M147.1 12.73 C147.1 19.96, 147.1 27.19, 147.1 38.2 M147.1 38.2 C147.1 46.69, 142.85 50.93, 134.37 50.93 M147.1 38.2 C147.1 46.69, 142.85 50.93, 134.37 50.93 M134.37 50.93 C109.2 50.93, 84.04 50.93, 12.73 50.93 M134.37 50.93 C104.16 50.93, 73.96 50.93, 12.73 50.93 M12.73 50.93 C4.24 50.93, 0 46.69, 0 38.2 M12.73 50.93 C4.24 50.93, 0 46.69, 0 38.2 M0 38.2 C0 31.46, 0 24.73, 0 12.73 M0 38.2 C0 31.41, 0 24.62, 0 12.73 M0 12.73 C0 4.24, 4.24 0, 12.73 0 M0 12.73 C0 4.24, 4.24 0, 12.73 0" stroke="#e03131" stroke-width="2" fill="none"></path></g><g transform="translate(406.07553100585903 1387.0592407226563) rotate(0 32.8125 9.600000000000023)"><text x="32.8125" y="0" font-family="Cascadia, Segoe UI Emoji" font-size="16px" fill="#e03131" text-anchor="middle" style="white-space: pre;" direction="ltr" dominant-baseline="text-before-edge">mounted</text></g><g transform="translate(181.80108642578148 1440.0986022949219) rotate(0 171.56250000000006 28.80000000000001)"><text x="0" y="0" font-family="Cascadia, Segoe UI Emoji" font-size="16px" fill="#e03131" text-anchor="start" style="white-space: pre;" direction="ltr" dominant-baseline="text-before-edge">若要对页面中的DOM进行操作，最早在 mounted</text><text x="0" y="19.2" font-family="Cascadia, Segoe UI Emoji" font-size="16px" fill="#e03131" text-anchor="start" style="white-space: pre;" direction="ltr" dominant-baseline="text-before-edge">中。执行完 mounted，就表示整个Vue实例已经</text><text x="0" y="38.4" font-family="Cascadia, Segoe UI Emoji" font-size="16px" fill="#e03131" text-anchor="start" style="white-space: pre;" direction="ltr" dominant-baseline="text-before-edge">初始化完毕，此时脱离创建阶段，进入运行阶段</text></g><g stroke-linecap="round" transform="translate(567.8356628417968 1439.455093383789) rotate(0 379.0107727050781 246.08550262451172)"><path d="M32 0 C194.4 0, 356.8 0, 726.02 0 M32 0 C228.46 0, 424.91 0, 726.02 0 M726.02 0 C747.35 0, 758.02 10.67, 758.02 32 M726.02 0 C747.35 0, 758.02 10.67, 758.02 32 M758.02 32 C758.02 173.46, 758.02 314.93, 758.02 460.17 M758.02 32 C758.02 143.98, 758.02 255.97, 758.02 460.17 M758.02 460.17 C758.02 481.5, 747.35 492.17, 726.02 492.17 M758.02 460.17 C758.02 481.5, 747.35 492.17, 726.02 492.17 M726.02 492.17 C566.26 492.17, 406.5 492.17, 32 492.17 M726.02 492.17 C524.49 492.17, 322.96 492.17, 32 492.17 M32 492.17 C10.67 492.17, 0 481.5, 0 460.17 M32 492.17 C10.67 492.17, 0 481.5, 0 460.17 M0 460.17 C0 314.25, 0 168.32, 0 32 M0 460.17 C0 294.75, 0 129.34, 0 32 M0 32 C0 10.67, 10.67 0, 32 0 M0 32 C0 10.67, 10.67 0, 32 0" stroke="#be4bdb" stroke-width="2" fill="none"></path></g><g transform="translate(1353.6655578613281 1451.4595336914062) rotate(0 143.125 19.19999999999999)"><text x="0" y="0" font-family="Cascadia, Segoe UI Emoji" font-size="16px" fill="#be4bdb" text-anchor="start" style="white-space: pre;" direction="ltr" dominant-baseline="text-before-edge">这些是组件运行阶段的生命周期函数，</text><text x="0" y="19.2" font-family="Cascadia, Segoe UI Emoji" font-size="16px" fill="#be4bdb" text-anchor="start" style="white-space: pre;" direction="ltr" dominant-baseline="text-before-edge">只有两个 beforeUpdate 和 updated</text></g><g transform="translate(1352.6566467285156 1506.834228515625) rotate(0 130.75 19.19999999999999)"><text x="0" y="0" font-family="Cascadia, Segoe UI Emoji" font-size="16px" fill="#be4bdb" text-anchor="start" style="white-space: pre;" direction="ltr" dominant-baseline="text-before-edge">这两事件，会根据date数据的改变，</text><text x="0" y="19.2" font-family="Cascadia, Segoe UI Emoji" font-size="16px" fill="#be4bdb" text-anchor="start" style="white-space: pre;" direction="ltr" dominant-baseline="text-before-edge">选择性的触发0次到多次</text></g><g stroke-linecap="round"><g transform="translate(1264.2184143066406 1659.3226704103815) rotate(0 61.23858642578125 0.14008691394985817)"><path d="M0 0 C20.41 0.05, 102.06 0.23, 122.48 0.28 M0 0 C20.41 0.05, 102.06 0.23, 122.48 0.28" stroke="#e03131" stroke-width="2" fill="none"></path></g><g transform="translate(1264.2184143066406 1659.3226704103815) rotate(0 61.23858642578125 0.14008691394985817)"><path d="M98.97 8.78 C106.1 6.2, 113.24 3.62, 122.48 0.28 M98.97 8.78 C104.76 6.68, 110.56 4.59, 122.48 0.28" stroke="#e03131" stroke-width="2" fill="none"></path></g><g transform="translate(1264.2184143066406 1659.3226704103815) rotate(0 61.23858642578125 0.14008691394985817)"><path d="M99 -8.32 C106.13 -5.71, 113.25 -3.1, 122.48 0.28 M99 -8.32 C104.79 -6.2, 110.58 -4.08, 122.48 0.28" stroke="#e03131" stroke-width="2" fill="none"></path></g></g><mask></mask><g transform="translate(1410.6655578613281 1618.6883544921875) rotate(0 144 67.20000000000005)"><text x="0" y="0" font-family="Cascadia, Segoe UI Emoji" font-size="16px" fill="#e03131" text-anchor="start" style="white-space: pre;" direction="ltr" dominant-baseline="text-before-edge">这一步在执行时，先根据data中最新的</text><text x="0" y="19.2" font-family="Cascadia, Segoe UI Emoji" font-size="16px" fill="#e03131" text-anchor="start" style="white-space: pre;" direction="ltr" dominant-baseline="text-before-edge">数据，在内存中，重新渲染出一份最新的</text><text x="0" y="38.4" font-family="Cascadia, Segoe UI Emoji" font-size="16px" fill="#e03131" text-anchor="start" style="white-space: pre;" direction="ltr" dominant-baseline="text-before-edge">DOM树</text><text x="0" y="57.599999999999994" font-family="Cascadia, Segoe UI Emoji" font-size="16px" fill="#e03131" text-anchor="start" style="white-space: pre;" direction="ltr" dominant-baseline="text-before-edge"></text><text x="0" y="76.8" font-family="Cascadia, Segoe UI Emoji" font-size="16px" fill="#e03131" text-anchor="start" style="white-space: pre;" direction="ltr" dominant-baseline="text-before-edge">然后再通过 Virtual DOM re-render</text><text x="0" y="96" font-family="Cascadia, Segoe UI Emoji" font-size="16px" fill="#e03131" text-anchor="start" style="white-space: pre;" direction="ltr" dominant-baseline="text-before-edge">把更新的虚拟DOM-data(Mode层)重新</text><text x="0" y="115.19999999999999" font-family="Cascadia, Segoe UI Emoji" font-size="16px" fill="#e03131" text-anchor="start" style="white-space: pre;" direction="ltr" dominant-baseline="text-before-edge">渲染到页面(view视图层)中去</text></g><g stroke-linecap="round"><g transform="translate(1288.7370910644531 1823.843994140625) rotate(0 50.60992431640625 0.11431884765625)"><path d="M0 0 C16.87 0.04, 84.35 0.19, 101.22 0.23 M0 0 C16.87 0.04, 84.35 0.19, 101.22 0.23" stroke="#e03131" stroke-width="2" fill="none"></path></g><g transform="translate(1288.7370910644531 1823.843994140625) rotate(0 50.60992431640625 0.11431884765625)"><path d="M77.71 8.73 C84.97 6.1, 92.23 3.48, 101.22 0.23 M77.71 8.73 C83.06 6.79, 88.41 4.86, 101.22 0.23" stroke="#e03131" stroke-width="2" fill="none"></path></g><g transform="translate(1288.7370910644531 1823.843994140625) rotate(0 50.60992431640625 0.11431884765625)"><path d="M77.75 -8.37 C85 -5.72, 92.25 -3.06, 101.22 0.23 M77.75 -8.37 C83.09 -6.42, 88.43 -4.46, 101.22 0.23" stroke="#e03131" stroke-width="2" fill="none"></path></g></g><mask></mask><g transform="translate(1400.0936584472656 1799.0309448242188) rotate(0 90.75 28.799999999999955)"><text x="0" y="0" font-family="Cascadia, Segoe UI Emoji" font-size="16px" fill="#e03131" text-anchor="start" style="white-space: pre;" direction="ltr" dominant-baseline="text-before-edge">updated 事件执行时，</text><text x="0" y="19.2" font-family="Cascadia, Segoe UI Emoji" font-size="16px" fill="#e03131" text-anchor="start" style="white-space: pre;" direction="ltr" dominant-baseline="text-before-edge">页面和data数据保持同步</text><text x="0" y="38.4" font-family="Cascadia, Segoe UI Emoji" font-size="16px" fill="#e03131" text-anchor="start" style="white-space: pre;" direction="ltr" dominant-baseline="text-before-edge">都是最新的</text></g><g transform="translate(335.6655578613281 2011.6494140625) rotate(0 140.93749999999994 57.60000000000002)"><text x="0" y="0" font-family="Cascadia, Segoe UI Emoji" font-size="16px" fill="#1e1e1e" text-anchor="start" style="white-space: pre;" direction="ltr" dominant-baseline="text-before-edge">当执行beforeDestroy的钩子函数时，</text><text x="0" y="19.2" font-family="Cascadia, Segoe UI Emoji" font-size="16px" fill="#1e1e1e" text-anchor="start" style="white-space: pre;" direction="ltr" dominant-baseline="text-before-edge">Vue实例就已经从运行阶段进入到</text><text x="0" y="38.4" font-family="Cascadia, Segoe UI Emoji" font-size="16px" fill="#1e1e1e" text-anchor="start" style="white-space: pre;" direction="ltr" dominant-baseline="text-before-edge">销毁阶段，但是山上所有的data和</text><text x="0" y="57.599999999999994" font-family="Cascadia, Segoe UI Emoji" font-size="16px" fill="#1e1e1e" text-anchor="start" style="white-space: pre;" direction="ltr" dominant-baseline="text-before-edge">methods，以及过滤器。指令等，</text><text x="0" y="76.8" font-family="Cascadia, Segoe UI Emoji" font-size="16px" fill="#1e1e1e" text-anchor="start" style="white-space: pre;" direction="ltr" dominant-baseline="text-before-edge">都处于可用状态，还未直接进行销毁</text><text x="0" y="96" font-family="Cascadia, Segoe UI Emoji" font-size="16px" fill="#1e1e1e" text-anchor="start" style="white-space: pre;" direction="ltr" dominant-baseline="text-before-edge">的过程</text></g><g transform="translate(225.0596618652345 2306.9171752929688) rotate(0 192 19.200000000000045)"><text x="0" y="0" font-family="Cascadia, Segoe UI Emoji" font-size="16px" fill="#1e1e1e" text-anchor="start" style="white-space: pre;" direction="ltr" dominant-baseline="text-before-edge">当执行到destroyed钩子函数时，组件已经被完全</text><text x="0" y="19.2" font-family="Cascadia, Segoe UI Emoji" font-size="16px" fill="#1e1e1e" text-anchor="start" style="white-space: pre;" direction="ltr" dominant-baseline="text-before-edge">销毁，此时所有的数据、方法、指令、过滤器都不可用</text></g></svg>