<svg version="1.1" xmlns="http://www.w3.org/2000/svg" viewBox="0 0 699.7720642089843 498.69542694091797" width="699.7720642089843" height="498.69542694091797">
  <!-- svg-source:excalidraw -->
  
  <defs>
    <style class="style-fonts">
      @font-face {
        font-family: "Virgil";
        src: url("https://excalidraw.com/Virgil.woff2");
      }
      @font-face {
        font-family: "Cascadia";
        src: url("https://excalidraw.com/Cascadia.woff2");
      }
      @font-face {
        font-family: "Assistant";
        src: url("https://excalidraw.com/Assistant-Regular.woff2");
      }
    </style>
    
  </defs>
  <g stroke-linecap="round" transform="translate(11.88665771484375 54.449554443359375) rotate(0 109.08282470703125 44.96180725097656)"><path d="M1.32 3.43 L218.41 -2.71 L216.52 87.84 L-3.89 87.75" stroke="none" stroke-width="0" fill="#e7f5ff"></path><path d="M-1.7 -0.54 C71.75 2.59, 141.68 3.09, 221.24 -2.63 M0.47 -1.62 C43.43 -2.78, 87.41 -3.27, 219.53 0.05 M219.87 2.6 C215.78 24.09, 219.52 43.61, 214.2 87.36 M218 -1.37 C217.2 17.83, 216.77 35.86, 218.79 91.64 M218.13 87.78 C166.13 86.26, 119.43 88.38, 0.58 88.97 M218.43 88.69 C136.1 89.56, 55.66 89.38, 1.67 89.74 M3.67 91.9 C1.29 54.31, 3.74 19.08, -0.66 -2.16 M-0.96 89.81 C-2.35 65.19, 0.2 39.98, 1.86 -1.46" stroke="#1e1e1e" stroke-width="2" fill="none"></path></g><g transform="translate(88.72149658203125 89.41136169433594) rotate(0 32.24798583984375 10)"><text x="32.24798583984375" y="0" font-family="Virgil, Segoe UI Emoji" font-size="16px" fill="#1e1e1e" text-anchor="middle" style="white-space: pre;" direction="ltr" dominant-baseline="text-before-edge">CLOSED</text></g><g transform="translate(89.082275390625 10) rotate(0 24 9.599999999999994)"><text x="0" y="0" font-family="Cascadia, Segoe UI Emoji" font-size="16px" fill="#1e1e1e" text-anchor="start" style="white-space: pre;" direction="ltr" dominant-baseline="text-before-edge">客户端</text></g><g transform="translate(545.4364013671874 11.417938232421875) rotate(0 24 9.599999999999994)"><text x="0" y="0" font-family="Cascadia, Segoe UI Emoji" font-size="16px" fill="#1e1e1e" text-anchor="start" style="white-space: pre;" direction="ltr" dominant-baseline="text-before-edge">服务端</text></g><g stroke-linecap="round" transform="translate(10 145.3804168701172) rotate(0 109.08282470703125 85.53433227539062)"><path d="M0.99 -1.41 L217.93 -1.76 L219.53 173.33 L-1.36 174.08" stroke="none" stroke-width="0" fill="#a5d8ff"></path><path d="M0 -2.33 C85.46 -3.5, 164.48 -1.9, 215.48 -3.4 M-0.25 -1.38 C42.82 0.8, 87.63 2.31, 218.53 -0.07 M215.04 -0.64 C219.51 59.12, 217.75 116.44, 216.72 169.64 M219.83 1.49 C218.41 58.28, 217.07 116.26, 216.6 171.54 M218.79 168.07 C157.28 169.12, 101.1 169.35, -2.01 172.62 M216.56 172.31 C157.84 168.63, 98.31 168.73, -1.32 172.63 M1.26 174.17 C-4.51 130.51, -3.48 86.85, 3.52 -1.89 M-1.24 169.1 C-2.8 103.3, -2.13 34.49, 1.15 -1.65" stroke="#1e1e1e" stroke-width="2" fill="none"></path></g><g transform="translate(76.49085235595703 220.9147491455078) rotate(0 42.59197235107422 10)"><text x="42.59197235107422" y="0" font-family="Virgil, Segoe UI Emoji" font-size="16px" fill="#1e1e1e" text-anchor="middle" style="white-space: pre;" direction="ltr" dominant-baseline="text-before-edge">SYN_SENT</text></g><g stroke-linecap="round" transform="translate(10.24395751953125 318.26072692871094) rotate(0 109.08282470703125 82.75123596191406)"><path d="M1.36 2.26 L216.81 3.01 L222.05 168.7 L2.22 162.03" stroke="none" stroke-width="0" fill="#4dabf7"></path><path d="M-1.32 -1.63 C48.13 0.13, 98.19 1.07, 216.27 -0.5 M-0.3 0.25 C48.54 2.69, 97.26 2.2, 216.9 -1.36 M218.84 -3.84 C218.74 45.57, 221.61 92.73, 219.76 168.83 M218.16 1.45 C218.81 62.46, 219.67 122.19, 217.94 165.86 M216.76 164.2 C169.52 165.39, 123.94 160.77, -3.19 162.3 M217 166.65 C135.82 169.35, 55.04 168.77, -1.72 166.05 M-1.55 162.89 C5.65 101.14, 6.04 41.67, 3.63 -2.48 M-1.18 165.01 C4.21 130.49, 3.56 98.08, -0.12 -0.88" stroke="#1e1e1e" stroke-width="2" fill="none"></path></g><g transform="translate(61.51881408691406 391.011962890625) rotate(0 57.80796813964844 10)"><text x="57.80796813964844" y="0" font-family="Virgil, Segoe UI Emoji" font-size="16px" fill="#1e1e1e" text-anchor="middle" style="white-space: pre;" direction="ltr" dominant-baseline="text-before-edge">ESTABLISHED</text></g><g stroke-linecap="round" transform="translate(470.750030517578 57.55316925048828) rotate(0 109.08282470703125 44.96180725097656)"><path d="M0.38 -0.84 L218.71 -2.48 L222.1 87.49 L0.37 92.66" stroke="none" stroke-width="0" fill="#e7f5ff"></path><path d="M1.25 1.85 C46.91 0.14, 92.57 -5.17, 218.71 3.14 M1.41 -0.71 C54.24 3.74, 106.49 2.76, 217.95 -0.59 M216.22 -3.15 C219.68 21.73, 216.91 47.33, 214.71 93.34 M219.01 0.34 C217.84 25.17, 218.19 54.23, 218.29 88.77 M217.46 90.41 C144.3 90.48, 75.68 91.19, -2.22 88.18 M216.91 91.3 C163.94 85.78, 107.22 87.02, 1.43 91.19 M-3.39 92.08 C2.09 58.07, -0.69 27.41, -1.46 -1.87 M-1.53 89.7 C-0.08 53.41, 1.83 19.73, 0.04 -1.13" stroke="#1e1e1e" stroke-width="2" fill="none"></path></g><g transform="translate(547.5848693847655 92.51497650146484) rotate(0 32.24798583984375 10)"><text x="32.24798583984375" y="0" font-family="Virgil, Segoe UI Emoji" font-size="16px" fill="#1e1e1e" text-anchor="middle" style="white-space: pre;" direction="ltr" dominant-baseline="text-before-edge">CLOSED</text></g><g stroke-linecap="round" transform="translate(471.60641479492176 202.19954681396484) rotate(0 109.08282470703125 86.67724609374999)"><path d="M0.55 -2.48 L222.1 -2.44 L218.54 176.09 L-1.21 173.91" stroke="none" stroke-width="0" fill="#a5d8ff"></path><path d="M-0.34 2.65 C77.96 -4.67, 160.3 1.13, 216.2 -0.28 M1.11 0.98 C49.86 1.56, 99.04 0.96, 217.19 1.03 M218.61 -0.2 C214.15 47.5, 213.02 91.49, 218.12 172.3 M218.32 -1.71 C220.14 36.32, 219.76 70.56, 218.85 174.91 M217.25 170.89 C138.8 172.14, 50.4 172.15, -1.67 172.29 M218.91 172.1 C168.32 176.34, 121.93 177.62, 1.1 171.89 M0.57 174.15 C0.73 116.75, 1.48 52.7, 3.38 -1.69 M-0.84 171.4 C3.73 117.72, 2.7 63.08, 0.19 -0.42" stroke="#1e1e1e" stroke-width="2" fill="none"></path></g><g transform="translate(538.9852752685546 278.87679290771484) rotate(0 41.70396423339844 10)"><text x="41.70396423339844" y="0" font-family="Virgil, Segoe UI Emoji" font-size="16px" fill="#1e1e1e" text-anchor="middle" style="white-space: pre;" direction="ltr" dominant-baseline="text-before-edge">SYN_RCVD</text></g><g stroke-linecap="round" transform="translate(467.964385986328 378.96566009521484) rotate(0 109.08282470703125 54.86488342285156)"><path d="M3.93 -2.44 L218.54 2.73 L216.96 110.29 L-0.12 109.74" stroke="none" stroke-width="0" fill="#4dabf7"></path><path d="M-1.93 -2.66 C77.58 0.26, 152.12 -3.17, 215.64 2.83 M0.24 0 C56.28 -2.74, 112.01 -1.11, 217.37 -0.85 M215.84 3.47 C214.95 27.7, 218.37 47.5, 214.44 111.43 M218.67 0.47 C218.46 33.63, 219.02 71.13, 219.75 109.32 M221.57 107.98 C147.43 105.3, 79.46 105.98, -2.65 107.23 M217.16 109.72 C136.91 108.27, 53.88 105.54, 0.74 108.26 M-2.2 112.52 C-1.77 69.03, 3.06 30.39, 0.59 -3.06 M1.08 108.67 C0.96 76.89, 1.11 45.89, 0.27 -1.24" stroke="#1e1e1e" stroke-width="2" fill="none"></path></g><g transform="translate(519.2392425537108 423.8305435180664) rotate(0 57.80796813964844 10)"><text x="57.80796813964844" y="0" font-family="Virgil, Segoe UI Emoji" font-size="16px" fill="#1e1e1e" text-anchor="middle" style="white-space: pre;" direction="ltr" dominant-baseline="text-before-edge">ESTABLISHED</text></g><g stroke-linecap="round" transform="translate(469.83721923828114 150.282470703125) rotate(0 107.95785522460938 26.504547119140625)"><path d="M-2.18 -3.78 L218.11 -0.35 L219.07 50.45 L3.21 53.48" stroke="none" stroke-width="0" fill="#a5d8ff"></path><path d="M-3.16 2.17 C69.98 0.2, 138.73 4.21, 213.3 0.81 M-1.74 0.86 C70.55 0.66, 143.46 -1.93, 214.43 -0.7 M219.16 0.18 C219.87 13.37, 215.84 28.17, 212.55 50.61 M215.72 1.52 C214.92 15.27, 216.46 30.76, 217.84 54.33 M215.66 50.36 C143.76 52.69, 67.35 54.64, 2.59 50.64 M216.62 51.7 C153.15 50.08, 93.99 49.51, -0.36 51.69 M1.47 53.49 C-3.38 34.61, 0.01 12.58, -0.43 3.44 M-0.02 52.12 C-1.65 41.39, 1.07 30.49, 0.12 -1.3" stroke="#1e1e1e" stroke-width="2" fill="none"></path></g><g transform="translate(546.8030929565429 166.78701782226562) rotate(0 30.991981506347656 10)"><text x="30.991981506347656" y="0" font-family="Virgil, Segoe UI Emoji" font-size="16px" fill="#1e1e1e" text-anchor="middle" style="white-space: pre;" direction="ltr" dominant-baseline="text-before-edge">LISTEN</text></g><g mask="url(#mask-qCn9F0s6vYWKFu6siPbQm)" stroke-linecap="round"><g transform="translate(229.5614013671875 145.58746337890625) rotate(0 121.25427246093744 28.437652587890625)"><path d="M-1.32 0.7 C83.44 22.46, 167.82 37.04, 239.38 58.65 M-0.45 -1.39 C92.61 19.42, 187.88 41.33, 240.99 55.47" stroke="#1e1e1e" stroke-width="2" fill="none"></path></g><g transform="translate(229.5614013671875 145.58746337890625) rotate(0 121.25427246093744 28.437652587890625)"><path d="M215.32 58.46 C225.43 58.85, 234.93 55.03, 239.08 56.55 M215.85 57.18 C225.19 57.27, 236.17 56.37, 240.07 54.61" stroke="#1e1e1e" stroke-width="2" fill="none"></path></g><g transform="translate(229.5614013671875 145.58746337890625) rotate(0 121.25427246093744 28.437652587890625)"><path d="M219.49 41.87 C228.07 47.92, 236.15 49.75, 239.08 56.55 M220.02 40.6 C227.84 47.07, 237.22 52.52, 240.07 54.61" stroke="#1e1e1e" stroke-width="2" fill="none"></path></g></g><mask id="mask-qCn9F0s6vYWKFu6siPbQm"><rect x="0" y="0" fill="#fff" width="572.0699462890624" height="302.4627685546875"></rect><rect x="308.6281738281249" y="164.42511596679688" fill="#000" width="84.375" height="19.2" opacity="1"></rect></mask><g transform="translate(308.628173828125 164.42511596679688) rotate(0 40.7718310022417 9.788596942920805)"><text x="42.1875" y="0" font-family="Cascadia, Segoe UI Emoji" font-size="16px" fill="#1e1e1e" text-anchor="middle" style="white-space: pre;" direction="ltr" dominant-baseline="text-before-edge">SYN,seq=x</text></g><g mask="url(#mask-WlvHsBWctCXQr2p1SpUDO)" stroke-linecap="round"><g transform="translate(470.60641479492176 203.364103015656) rotate(0 -118.65284101200712 58.535244279012)"><path d="M-1.01 -1.84 C-91.78 39.12, -181.2 82.94, -235.47 116.43 M1.16 1.38 C-75.42 36.53, -154.24 76.13, -237.15 117" stroke="#1e1e1e" stroke-width="2" fill="none"></path></g><g transform="translate(470.60641479492176 203.364103015656) rotate(0 -118.65284101200712 58.535244279012)"><path d="M-220.52 97.77 C-227.8 104.18, -233.77 110.57, -236 116.6 M-219.15 99.8 C-225 103.83, -231.62 110.65, -237.06 116.96" stroke="#1e1e1e" stroke-width="2" fill="none"></path></g><g transform="translate(470.60641479492176 203.364103015656) rotate(0 -118.65284101200712 58.535244279012)"><path d="M-212.94 113.1 C-223.18 113.6, -232.04 114.16, -236 116.6 M-211.58 115.13 C-220 114.17, -229.08 116, -237.06 116.96" stroke="#1e1e1e" stroke-width="2" fill="none"></path></g></g><mask id="mask-WlvHsBWctCXQr2p1SpUDO"><rect x="0" y="0" fill="#fff" width="807.912096818936" height="420.43459157368"></rect><rect x="314.45357378291465" y="233.099347294668" fill="#000" width="75" height="57.599999999999994" opacity="1"></rect></mask><g transform="translate(314.45357378291465 233.099347294668) rotate(0 38.15424141581593 27.84580749864542)"><text x="37.5" y="0" font-family="Cascadia, Segoe UI Emoji" font-size="16px" fill="#1e1e1e" text-anchor="middle" style="white-space: pre;" direction="ltr" dominant-baseline="text-before-edge">SYN,ACK,</text><text x="37.5" y="19.2" font-family="Cascadia, Segoe UI Emoji" font-size="16px" fill="#1e1e1e" text-anchor="middle" style="white-space: pre;" direction="ltr" dominant-baseline="text-before-edge">seq=y,</text><text x="37.5" y="38.4" font-family="Cascadia, Segoe UI Emoji" font-size="16px" fill="#1e1e1e" text-anchor="middle" style="white-space: pre;" direction="ltr" dominant-baseline="text-before-edge">ack=x+1</text></g><g mask="url(#mask-Qxa6BMO2ylgmFBkAIsNQZ)" stroke-linecap="round"><g transform="translate(232.94232177734386 322.20424915356784) rotate(0 116.2278447737209 29.141494578273264)"><path d="M-1.93 0.18 C75.52 16.88, 148.48 35.89, 231.4 59.74 M0.08 0.24 C64.41 12.66, 133.06 30.35, 233.22 59.2" stroke="#1e1e1e" stroke-width="2" fill="none"></path></g><g transform="translate(232.94232177734386 322.20424915356784) rotate(0 116.2278447737209 29.141494578273264)"><path d="M207.13 61.19 C217.38 60.83, 225.44 60.74, 232.59 60.07 M208.34 61.23 C214.54 59.86, 222.88 59.9, 233.68 59.75" stroke="#1e1e1e" stroke-width="2" fill="none"></path></g><g transform="translate(232.94232177734386 322.20424915356784) rotate(0 116.2278447737209 29.141494578273264)"><path d="M211.75 44.73 C220.7 49.52, 227.32 54.57, 232.59 60.07 M212.96 44.76 C217.71 48.15, 224.73 52.92, 233.68 59.75" stroke="#1e1e1e" stroke-width="2" fill="none"></path></g></g><mask id="mask-Qxa6BMO2ylgmFBkAIsNQZ"><rect x="0" y="0" fill="#fff" width="565.3980113247857" height="480.4872383101144"></rect><rect x="311.67016655106477" y="322.5457437318411" fill="#000" width="75" height="57.599999999999994" opacity="1"></rect></mask><g transform="translate(311.67016655106465 322.5457437318411) rotate(0 36.91694392416531 29.620445101072015)"><text x="37.5" y="0" font-family="Cascadia, Segoe UI Emoji" font-size="16px" fill="#1e1e1e" text-anchor="middle" style="white-space: pre;" direction="ltr" dominant-baseline="text-before-edge">ACK,</text><text x="37.5" y="19.2" font-family="Cascadia, Segoe UI Emoji" font-size="16px" fill="#1e1e1e" text-anchor="middle" style="white-space: pre;" direction="ltr" dominant-baseline="text-before-edge">seq=x+1,</text><text x="37.5" y="38.4" font-family="Cascadia, Segoe UI Emoji" font-size="16px" fill="#1e1e1e" text-anchor="middle" style="white-space: pre;" direction="ltr" dominant-baseline="text-before-edge">ack=y+1</text></g><g stroke-linecap="round"><g transform="translate(312.4786376953125 456.1363525390625) rotate(0 -45.4466552734375 -0.768646240234375)"><path d="M-0.22 0.95 C-28.78 1.11, -63.33 -0.36, -94.86 -1.88 M-1.09 0.82 C-30.87 -1, -65.82 -0.15, -88.97 -3.04" stroke="#1e1e1e" stroke-width="2" fill="none"></path></g><g transform="translate(312.4786376953125 456.1363525390625) rotate(0 -45.4466552734375 -0.768646240234375)"><path d="M-65.02 -9.34 C-71.72 -6.11, -81.34 -4.14, -90.96 -3.21 M-65.45 -9.4 C-72.84 -7.88, -82.76 -4.8, -88.01 -3.8" stroke="#1e1e1e" stroke-width="2" fill="none"></path></g><g transform="translate(312.4786376953125 456.1363525390625) rotate(0 -45.4466552734375 -0.768646240234375)"><path d="M-66.3 7.71 C-72.38 4.84, -81.54 0.71, -90.96 -3.21 M-66.73 7.65 C-73.56 3.14, -83.02 0.2, -88.01 -3.8" stroke="#1e1e1e" stroke-width="2" fill="none"></path></g></g><mask></mask><g stroke-linecap="round"><g transform="translate(381.25958251953125 455.063232421875) rotate(0 44.07482910156244 1.474517822265625)"><path d="M3.1 3.29 C9.6 1.81, 26.34 4.19, 30.63 3.62 M-0.15 -1.2 C13.5 1.57, 24.89 -0.41, 33.1 0.97 M33.29 2.77 C54.3 5.14, 74.25 2.02, 88.17 2.85 M32.24 0.15 C48.39 1.45, 61.62 1.01, 89.69 1.77" stroke="#1e1e1e" stroke-width="2" fill="none"></path></g><g transform="translate(381.25958251953125 455.063232421875) rotate(0 44.07482910156244 1.474517822265625)"><path d="M67.58 11.49 C73.42 7.83, 84.32 6.13, 88.48 3.5 M65.95 9.24 C75.6 7.39, 84.13 3.16, 89.72 2.18" stroke="#1e1e1e" stroke-width="2" fill="none"></path></g><g transform="translate(381.25958251953125 455.063232421875) rotate(0 44.07482910156244 1.474517822265625)"><path d="M67.92 -5.61 C73.5 -3.22, 84.27 1.14, 88.48 3.5 M66.29 -7.85 C75.84 -2.91, 84.24 -0.34, 89.72 2.18" stroke="#1e1e1e" stroke-width="2" fill="none"></path></g></g><mask></mask><g transform="translate(314.082275390625 446) rotate(0 32 9.600000000000001)"><text x="0" y="0" font-family="Cascadia, Segoe UI Emoji" font-size="16px" fill="#1e1e1e" text-anchor="start" style="white-space: pre;" direction="ltr" dominant-baseline="text-before-edge">数据传输</text></g></svg>