<svg version="1.1" xmlns="http://www.w3.org/2000/svg" viewBox="0 0 1236.0637143250938 793.65469852479" width="1236.0637143250938" height="793.65469852479">
  <!-- svg-source:excalidraw -->
  
  <defs>
    <style class="style-fonts">
      @font-face {
        font-family: "Virgil";
        src: url("https://excalidraw.com/Virgil.woff2");
      }
      @font-face {
        font-family: "Cascadia";
        src: url("https://excalidraw.com/Cascadia.woff2");
      }
      @font-face {
        font-family: "Assistant";
        src: url("https://excalidraw.com/Assistant-Regular.woff2");
      }
    </style>
    
  </defs>
  <g stroke-linecap="round" transform="translate(11.780114471578258 90.55372619628906) rotate(0 50.286865234375 30.85785675048828)"><path d="M0 0 L100.57 0 L100.57 61.72 L0 61.72" stroke="none" stroke-width="0" fill="#4dabf7"></path><path d="M0 0 C27.48 0, 54.96 0, 100.57 0 M0 0 C27.5 0, 55 0, 100.57 0 M100.57 0 C100.57 18.31, 100.57 36.62, 100.57 61.72 M100.57 0 C100.57 19.44, 100.57 38.89, 100.57 61.72 M100.57 61.72 C75.62 61.72, 50.66 61.72, 0 61.72 M100.57 61.72 C64.69 61.72, 28.8 61.72, 0 61.72 M0 61.72 C0 42.55, 0 23.38, 0 0 M0 61.72 C0 38.42, 0 15.13, 0 0" stroke="transparent" stroke-width="2" fill="none"></path></g><g transform="translate(52.69197970595326 111.81158294677732) rotate(0 9.375 9.599999999999994)"><text x="9.375" y="0" font-family="Cascadia, Segoe UI Emoji" font-size="16px" fill="#ffffff" text-anchor="middle" style="white-space: pre;" direction="ltr" dominant-baseline="text-before-edge">P1</text></g><g stroke-linecap="round" transform="translate(13.861352264547008 331.31807708740234) rotate(0 113.34677124023438 30.85785675048828)"><path d="M0 0 L226.69 0 L226.69 61.72 L0 61.72" stroke="none" stroke-width="0" fill="#4dabf7"></path><path d="M0 0 C59.69 0, 119.39 0, 226.69 0 M0 0 C55.37 0, 110.74 0, 226.69 0 M226.69 0 C226.69 19.03, 226.69 38.06, 226.69 61.72 M226.69 0 C226.69 24.63, 226.69 49.25, 226.69 61.72 M226.69 61.72 C144.65 61.72, 62.61 61.72, 0 61.72 M226.69 61.72 C158.66 61.72, 90.62 61.72, 0 61.72 M0 61.72 C0 44.72, 0 27.73, 0 0 M0 61.72 C0 45.41, 0 29.11, 0 0" stroke="transparent" stroke-width="2" fill="none"></path></g><g transform="translate(52.20812350478138 352.5759338378906) rotate(0 75 9.599999999999998)"><text x="75" y="0" font-family="Cascadia, Segoe UI Emoji" font-size="16px" fill="#ffffff" text-anchor="middle" style="white-space: pre;" direction="ltr" dominant-baseline="text-before-edge">Parent.prototype</text></g><g stroke-linecap="round" transform="translate(15.995660125875133 576.5999069213867) rotate(0 106.48951721191406 30.85785675048828)"><path d="M0 0 L212.98 0 L212.98 61.72 L0 61.72" stroke="none" stroke-width="0" fill="#4dabf7"></path><path d="M0 0 C46.08 0, 92.15 0, 212.98 0 M0 0 C55.07 0, 110.13 0, 212.98 0 M212.98 0 C212.98 19.16, 212.98 38.33, 212.98 61.72 M212.98 0 C212.98 13.31, 212.98 26.61, 212.98 61.72 M212.98 61.72 C146.77 61.72, 80.57 61.72, 0 61.72 M212.98 61.72 C165.21 61.72, 117.45 61.72, 0 61.72 M0 61.72 C0 37.48, 0 13.25, 0 0 M0 61.72 C0 40.57, 0 19.42, 0 0" stroke="transparent" stroke-width="2" fill="none"></path></g><g transform="translate(47.485177337789196 597.857763671875) rotate(0 75 9.599999999999994)"><text x="75" y="0" font-family="Cascadia, Segoe UI Emoji" font-size="16px" fill="#ffffff" text-anchor="middle" style="white-space: pre;" direction="ltr" dominant-baseline="text-before-edge">Object.prototype</text></g><g stroke-linecap="round" transform="translate(482.44994479384377 90.19254302978516) rotate(0 65.48721313476562 30.85785675048828)"><path d="M0 0 L130.97 0 L130.97 61.72 L0 61.72" stroke="none" stroke-width="0" fill="#ffd43b"></path><path d="M0 0 C28.89 0, 57.78 0, 130.97 0 M0 0 C29.16 0, 58.33 0, 130.97 0 M130.97 0 C130.97 23.12, 130.97 46.24, 130.97 61.72 M130.97 0 C130.97 14.69, 130.97 29.39, 130.97 61.72 M130.97 61.72 C92.41 61.72, 53.84 61.72, 0 61.72 M130.97 61.72 C89.62 61.72, 48.26 61.72, 0 61.72 M0 61.72 C0 43.83, 0 25.94, 0 0 M0 61.72 C0 47.55, 0 33.39, 0 0" stroke="transparent" stroke-width="2" fill="none"></path></g><g transform="translate(519.8121579286094 111.45039978027341) rotate(0 28.125 9.599999999999994)"><text x="28.125" y="0" font-family="Cascadia, Segoe UI Emoji" font-size="16px" fill="#ffffff" text-anchor="middle" style="white-space: pre;" direction="ltr" dominant-baseline="text-before-edge">Parent</text></g><g stroke-linecap="round" transform="translate(480.9625485536093 330.2591781616211) rotate(0 113.68966674804693 30.85785675048828)"><path d="M0 0 L227.38 0 L227.38 61.72 L0 61.72" stroke="none" stroke-width="0" fill="#4dabf7"></path><path d="M0 0 C84.1 0, 168.19 0, 227.38 0 M0 0 C56.04 0, 112.08 0, 227.38 0 M227.38 0 C227.38 20.84, 227.38 41.68, 227.38 61.72 M227.38 0 C227.38 19.77, 227.38 39.54, 227.38 61.72 M227.38 61.72 C153.43 61.72, 79.49 61.72, 0 61.72 M227.38 61.72 C164.7 61.72, 102.02 61.72, 0 61.72 M0 61.72 C0 40.9, 0 20.08, 0 0 M0 61.72 C0 46.54, 0 31.36, 0 0" stroke="transparent" stroke-width="2" fill="none"></path></g><g transform="translate(510.27721530165627 351.51703491210935) rotate(0 84.375 9.599999999999998)"><text x="84.375" y="0" font-family="Cascadia, Segoe UI Emoji" font-size="16px" fill="#ffffff" text-anchor="middle" style="white-space: pre;" direction="ltr" dominant-baseline="text-before-edge">Function.prototype</text></g><g stroke-linecap="round" transform="translate(484.98323947157814 576.3518600463867) rotate(0 65.48721313476562 30.85785675048828)"><path d="M0 0 L130.97 0 L130.97 61.72 L0 61.72" stroke="none" stroke-width="0" fill="#ffd43b"></path><path d="M0 0 C47.78 0, 95.57 0, 130.97 0 M0 0 C46.12 0, 92.23 0, 130.97 0 M130.97 0 C130.97 13.78, 130.97 27.56, 130.97 61.72 M130.97 0 C130.97 18.8, 130.97 37.6, 130.97 61.72 M130.97 61.72 C88.42 61.72, 45.86 61.72, 0 61.72 M130.97 61.72 C96.84 61.72, 62.71 61.72, 0 61.72 M0 61.72 C0 41.22, 0 20.71, 0 0 M0 61.72 C0 47.89, 0 34.07, 0 0" stroke="transparent" stroke-width="2" fill="none"></path></g><g transform="translate(512.9704526063438 597.609716796875) rotate(0 37.5 9.599999999999994)"><text x="37.5" y="0" font-family="Cascadia, Segoe UI Emoji" font-size="16px" fill="#ffffff" text-anchor="middle" style="white-space: pre;" direction="ltr" dominant-baseline="text-before-edge">Object()</text></g><g stroke-linecap="round" transform="translate(973.4939816590781 91.22261810302734) rotate(0 94.40231323242188 30.85785675048828)"><path d="M0 0 L188.8 0 L188.8 61.72 L0 61.72" stroke="none" stroke-width="0" fill="#ffd43b"></path><path d="M0 0 C62.72 0, 125.43 0, 188.8 0 M0 0 C42.29 0, 84.58 0, 188.8 0 M188.8 0 C188.8 17, 188.8 34, 188.8 61.72 M188.8 0 C188.8 13.37, 188.8 26.73, 188.8 61.72 M188.8 61.72 C149.81 61.72, 110.81 61.72, 0 61.72 M188.8 61.72 C118.01 61.72, 47.22 61.72, 0 61.72 M0 61.72 C0 40.03, 0 18.35, 0 0 M0 61.72 C0 40.28, 0 18.85, 0 0" stroke="transparent" stroke-width="2" fill="none"></path></g><g transform="translate(1021.0212948915 112.4804748535156) rotate(0 46.875 9.599999999999994)"><text x="46.875" y="0" font-family="Cascadia, Segoe UI Emoji" font-size="16px" fill="#ffffff" text-anchor="middle" style="white-space: pre;" direction="ltr" dominant-baseline="text-before-edge">Function()</text></g><g mask="url(#mask-ZtRT4tFsGmblaaIiL3cLk)" stroke-linecap="round"><g transform="translate(62.047536773239585 155.13671875) rotate(0 0.12774945913639613 87.24782943725586)"><path d="M0 0 C0.05 36.72, 0.11 73.43, 0.26 174.5 M0 0 C0.05 35.08, 0.1 70.17, 0.26 174.5" stroke="#1e1e1e" stroke-width="2" fill="none"></path></g><g transform="translate(62.047536773239585 155.13671875) rotate(0 0.12774945913639613 87.24782943725586)"><path d="M-8.33 151.02 C-6.52 155.96, -4.72 160.9, 0.26 174.5 M-8.33 151.02 C-6.6 155.74, -4.88 160.46, 0.26 174.5" stroke="#1e1e1e" stroke-width="2" fill="none"></path></g><g transform="translate(62.047536773239585 155.13671875) rotate(0 0.12774945913639613 87.24782943725586)"><path d="M8.77 150.99 C6.98 155.94, 5.19 160.88, 0.26 174.5 M8.77 150.99 C7.06 155.72, 5.35 160.44, 0.26 174.5" stroke="#1e1e1e" stroke-width="2" fill="none"></path></g></g><mask id="mask-ZtRT4tFsGmblaaIiL3cLk"><rect x="0" y="0" fill="#fff" width="162.30303569151238" height="429.6323776245117"></rect><rect x="19.98778623237604" y="232.78454818725587" fill="#000" width="84.375" height="19.2" opacity="1"></rect></mask><g transform="translate(19.98778623237604 232.78454818725587) rotate(0 42.18749999999994 9.599999999999994)"><text x="42.1875" y="0" font-family="Cascadia, Segoe UI Emoji" font-size="16px" fill="#1e1e1e" text-anchor="middle" style="white-space: pre;" direction="ltr" dominant-baseline="text-before-edge">__proto__</text></g><g mask="url(#mask-Bd_dqke9chx6MxSYpQxOb)" stroke-linecap="round"><g transform="translate(64.3243871814409 398.2296142578125) rotate(0 -0.6633607841480398 87.70712280273438)"><path d="M0 0 C-0.42 55.8, -0.84 111.6, -1.33 175.41 M0 0 C-0.46 60.65, -0.92 121.31, -1.33 175.41" stroke="#1e1e1e" stroke-width="2" fill="none"></path></g><g transform="translate(64.3243871814409 398.2296142578125) rotate(0 -0.6633607841480398 87.70712280273438)"><path d="M-9.7 151.86 C-7.04 159.35, -4.37 166.84, -1.33 175.41 M-9.7 151.86 C-6.8 160, -3.91 168.15, -1.33 175.41" stroke="#1e1e1e" stroke-width="2" fill="none"></path></g><g transform="translate(64.3243871814409 398.2296142578125) rotate(0 -0.6633607841480398 87.70712280273438)"><path d="M7.4 151.99 C4.62 159.44, 1.85 166.89, -1.33 175.41 M7.4 151.99 C4.38 160.09, 1.37 168.19, -1.33 175.41" stroke="#1e1e1e" stroke-width="2" fill="none"></path></g></g><mask id="mask-Bd_dqke9chx6MxSYpQxOb"><rect x="0" y="0" fill="#fff" width="165.65110874973698" height="673.6438598632812"></rect><rect x="21.473526397292858" y="476.33673706054685" fill="#000" width="84.375" height="19.2" opacity="1"></rect></mask><g transform="translate(21.473526397292858 476.33673706054685) rotate(0 42.1875 9.599999999999994)"><text x="42.1875" y="0" font-family="Cascadia, Segoe UI Emoji" font-size="16px" fill="#1e1e1e" text-anchor="middle" style="white-space: pre;" direction="ltr" dominant-baseline="text-before-edge">__proto__</text></g><g mask="url(#mask-lyAGsQXMfHvvLG31OydN6)" stroke-linecap="round"><g transform="translate(52.409576851915745 642.0769042968751) rotate(0 -0.2220768519158014 53.445661421808694)"><path d="M0 0 C-0.12 29.32, -0.24 58.64, -0.44 106.89 M0 0 C-0.15 37.2, -0.31 74.39, -0.44 106.89" stroke="#1e1e1e" stroke-width="2" fill="none"></path></g><g transform="translate(52.409576851915745 642.0769042968751) rotate(0 -0.2220768519158014 53.445661421808694)"><path d="M-8.9 83.36 C-6.58 89.82, -4.26 96.27, -0.44 106.89 M-8.9 83.36 C-5.96 91.55, -3.01 99.74, -0.44 106.89" stroke="#1e1e1e" stroke-width="2" fill="none"></path></g><g transform="translate(52.409576851915745 642.0769042968751) rotate(0 -0.2220768519158014 53.445661421808694)"><path d="M8.2 83.43 C5.83 89.87, 3.46 96.3, -0.44 106.89 M8.2 83.43 C5.19 91.6, 2.19 99.76, -0.44 106.89" stroke="#1e1e1e" stroke-width="2" fill="none"></path></g></g><mask id="mask-lyAGsQXMfHvvLG31OydN6"><rect x="0" y="0" fill="#fff" width="152.85373055574735" height="848.9682271404924"></rect><rect x="10" y="685.9225657186838" fill="#000" width="84.375" height="19.2" opacity="1"></rect></mask><g transform="translate(10 685.9225657186838) rotate(0 42.18749999999994 9.599999999999994)"><text x="42.1875" y="0" font-family="Cascadia, Segoe UI Emoji" font-size="16px" fill="#1e1e1e" text-anchor="middle" style="white-space: pre;" direction="ltr" dominant-baseline="text-before-edge">__proto__</text></g><g transform="translate(16.347588836812633 749.9602172851562) rotate(0.16510110643945805 32.8125 16.80000000000001)"><text x="0" y="0" font-family="Cascadia, Segoe UI Emoji" font-size="28px" fill="#1e1e1e" text-anchor="start" style="white-space: pre;" direction="ltr" dominant-baseline="text-before-edge">null</text></g><g mask="url(#mask-3FOOftLzE5VA8bI8Q6KeK)" stroke-linecap="round"><g transform="translate(117.42778903212513 121.9305419921875) rotate(0 180.32955932617188 -0.031280517578125)"><path d="M0 0 C123.21 -0.02, 246.41 -0.04, 360.66 -0.06 M0 0 C75.78 -0.01, 151.57 -0.03, 360.66 -0.06" stroke="#1e1e1e" stroke-width="2" fill="none"></path></g><g transform="translate(117.42778903212513 121.9305419921875) rotate(0 180.32955932617188 -0.031280517578125)"><path d="M337.17 8.49 C345.19 5.57, 353.22 2.65, 360.66 -0.06 M337.17 8.49 C342.1 6.69, 347.04 4.9, 360.66 -0.06" stroke="#1e1e1e" stroke-width="2" fill="none"></path></g><g transform="translate(117.42778903212513 121.9305419921875) rotate(0 180.32955932617188 -0.031280517578125)"><path d="M337.17 -8.61 C345.19 -5.69, 353.22 -2.77, 360.66 -0.06 M337.17 -8.61 C342.1 -6.81, 347.04 -5.02, 360.66 -0.06" stroke="#1e1e1e" stroke-width="2" fill="none"></path></g></g><mask id="mask-3FOOftLzE5VA8bI8Q6KeK"><rect x="0" y="0" fill="#fff" width="578.0869076844689" height="221.99310302734375"></rect><rect x="250.882348358297" y="112.29926147460935" fill="#000" width="93.75" height="19.2" opacity="1"></rect></mask><g transform="translate(250.882348358297 112.29926147460935) rotate(0 46.875 9.600000000000023)"><text x="46.875" y="0" font-family="Cascadia, Segoe UI Emoji" font-size="16px" fill="#1e1e1e" text-anchor="middle" style="white-space: pre;" direction="ltr" dominant-baseline="text-before-edge">constuctor</text></g><g mask="url(#mask-E9-hNC8L-XrSVyYjFjBWP)" stroke-linecap="round"><g transform="translate(614.424371063375 122.71397964620712) rotate(0 177.6662139892578 -0.26710749779380194)"><path d="M0 0 C119.79 -0.18, 239.58 -0.36, 355.33 -0.53 M0 0 C76.94 -0.12, 153.88 -0.23, 355.33 -0.53" stroke="#1e1e1e" stroke-width="2" fill="none"></path></g><g transform="translate(614.424371063375 122.71397964620712) rotate(0 177.6662139892578 -0.26710749779380194)"><path d="M331.85 8.05 C339.77 5.16, 347.68 2.26, 355.33 -0.53 M331.85 8.05 C336.94 6.19, 342.02 4.33, 355.33 -0.53" stroke="#1e1e1e" stroke-width="2" fill="none"></path></g><g transform="translate(614.424371063375 122.71397964620712) rotate(0 177.6662139892578 -0.26710749779380194)"><path d="M331.83 -9.05 C339.75 -6.18, 347.68 -3.31, 355.33 -0.53 M331.83 -9.05 C336.92 -7.21, 342.01 -5.36, 355.33 -0.53" stroke="#1e1e1e" stroke-width="2" fill="none"></path></g></g><mask id="mask-E9-hNC8L-XrSVyYjFjBWP"><rect x="0" y="0" fill="#fff" width="1069.7567990418906" height="223.24819464179473"></rect><rect x="745.2155850526328" y="112.8468721484133" fill="#000" width="93.75" height="19.2" opacity="1"></rect></mask><g transform="translate(745.2155850526328 112.8468721484133) rotate(0 46.875 9.600000000000023)"><text x="46.875" y="0" font-family="Cascadia, Segoe UI Emoji" font-size="16px" fill="#1e1e1e" text-anchor="middle" style="white-space: pre;" direction="ltr" dominant-baseline="text-before-edge">constuctor</text></g><g mask="url(#mask-t0_GEXTA07O0hGpHxjs83)" stroke-linecap="round"><g transform="translate(468.7319272157189 134.41339111328125) rotate(0 -121.18450927734375 93.26290893554688)"><path d="M0 0 C-64.28 49.47, -128.57 98.94, -242.37 186.53 M0 0 C-88.89 68.41, -177.78 136.82, -242.37 186.53" stroke="#1e1e1e" stroke-width="2" fill="none"></path></g><g transform="translate(468.7319272157189 134.41339111328125) rotate(0 -121.18450927734375 93.26290893554688)"><path d="M-228.97 165.42 C-232.52 171.02, -236.08 176.62, -242.37 186.53 M-228.97 165.42 C-233.88 173.16, -238.8 180.9, -242.37 186.53" stroke="#1e1e1e" stroke-width="2" fill="none"></path></g><g transform="translate(468.7319272157189 134.41339111328125) rotate(0 -121.18450927734375 93.26290893554688)"><path d="M-218.54 178.97 C-224.86 180.98, -231.18 182.98, -242.37 186.53 M-218.54 178.97 C-227.28 181.74, -236.02 184.51, -242.37 186.53" stroke="#1e1e1e" stroke-width="2" fill="none"></path></g></g><mask id="mask-t0_GEXTA07O0hGpHxjs83"><rect x="0" y="0" fill="#fff" width="811.1009457704064" height="420.939208984375"></rect><rect x="305.35991793837513" y="218.07630004882813" fill="#000" width="84.375" height="19.2" opacity="1"></rect></mask><g transform="translate(305.35991793837513 218.07630004882813) rotate(0 42.1875 9.599999999999994)"><text x="42.1875" y="0" font-family="Cascadia, Segoe UI Emoji" font-size="16px" fill="#1e1e1e" text-anchor="middle" style="white-space: pre;" direction="ltr" dominant-baseline="text-before-edge">prototype</text></g><g mask="url(#mask-dIaRP3LngHxiEWDPTrMVT)" stroke-linecap="round"><g transform="translate(253.575707733297 360.5606689453125) rotate(0 126.33195495605463 -102.58480834960938)"><path d="M0 0 C24.09 -20.05, 48.17 -40.1, 83.66 -69.63 M0 0 C23.47 -19.54, 46.95 -39.07, 83.66 -69.63 M83.66 -69.63 C147.85 -121.12, 212.05 -172.6, 252.66 -205.17 M83.66 -69.63 C122.61 -100.87, 161.57 -132.12, 252.66 -205.17" stroke="#1e1e1e" stroke-width="2" fill="none"></path></g><g transform="translate(253.575707733297 360.5606689453125) rotate(0 126.33195495605463 -102.58480834960938)"><path d="M239.69 -183.8 C243.42 -189.95, 247.16 -196.11, 252.66 -205.17 M239.69 -183.8 C243.33 -189.8, 246.97 -195.79, 252.66 -205.17" stroke="#1e1e1e" stroke-width="2" fill="none"></path></g><g transform="translate(253.575707733297 360.5606689453125) rotate(0 126.33195495605463 -102.58480834960938)"><path d="M228.99 -197.14 C235.8 -199.45, 242.62 -201.76, 252.66 -205.17 M228.99 -197.14 C235.63 -199.39, 242.27 -201.65, 252.66 -205.17" stroke="#1e1e1e" stroke-width="2" fill="none"></path></g></g><mask id="mask-dIaRP3LngHxiEWDPTrMVT"><rect x="0" y="0" fill="#fff" width="606.2396176454063" height="665.7302856445312"></rect><rect x="285.6704037782189" y="281.3296875" fill="#000" width="103.125" height="19.2" opacity="1"></rect></mask><g transform="translate(285.67040377821877 281.3296875) rotate(0 94.23725891113276 -23.35382690429688)"><text x="51.5625" y="0" font-family="Cascadia, Segoe UI Emoji" font-size="16px" fill="#1e1e1e" text-anchor="middle" style="white-space: pre;" direction="ltr" dominant-baseline="text-before-edge">constructor</text></g><g mask="url(#mask-ld05ru0o-7Lqe-D4nhaMn)" stroke-linecap="round"><g transform="translate(539.6816004939428 158.6568946838379) rotate(0 0.4255539858879729 87.24782943725586)"><path d="M0 0 C0.33 31.44, 0.67 62.87, 0.85 79.95 M0 0 C0.27 25.22, 0.54 50.43, 0.85 79.95 M0.85 79.95 C0.61 117.58, 0.38 155.21, 0.26 174.5 M0.85 79.95 C0.72 100.36, 0.59 120.78, 0.26 174.5" stroke="#1e1e1e" stroke-width="2" fill="none"></path></g><g transform="translate(539.6816004939428 158.6568946838379) rotate(0 0.4255539858879729 87.24782943725586)"><path d="M-8.15 150.95 C-4.84 160.21, -1.54 169.47, 0.26 174.5 M-8.15 150.95 C-5.5 158.38, -2.85 165.8, 0.26 174.5" stroke="#1e1e1e" stroke-width="2" fill="none"></path></g><g transform="translate(539.6816004939428 158.6568946838379) rotate(0 0.4255539858879729 87.24782943725586)"><path d="M8.95 151.06 C5.53 160.27, 2.11 169.49, 0.26 174.5 M8.95 151.06 C6.21 158.45, 3.47 165.84, 0.26 174.5" stroke="#1e1e1e" stroke-width="2" fill="none"></path></g></g><mask id="mask-ld05ru0o-7Lqe-D4nhaMn"><rect x="0" y="0" fill="#fff" width="640.5327084657188" height="433.1525535583496"></rect><rect x="498.34520846571877" y="229.00589599609376" fill="#000" width="84.375" height="19.2" opacity="1"></rect></mask><g transform="translate(498.34520846571877 229.00589599609376) rotate(0 41.76194601411203 16.898828124999994)"><text x="42.1875" y="0" font-family="Cascadia, Segoe UI Emoji" font-size="16px" fill="#1e1e1e" text-anchor="middle" style="white-space: pre;" direction="ltr" dominant-baseline="text-before-edge">__proto__</text></g><g mask="url(#mask-2t1mOx4VX9aPlKhO3FWo0)" stroke-linecap="round"><g transform="translate(544.2732480165 575.5869750976562) rotate(0 -1.614105224609375 -92.49359130859375)"><path d="M0 0 C-0.66 -37.95, -1.32 -75.9, -3.23 -184.99 M0 0 C-1.01 -57.9, -2.02 -115.79, -3.23 -184.99" stroke="#1e1e1e" stroke-width="2" fill="none"></path></g><g transform="translate(544.2732480165 575.5869750976562) rotate(0 -1.614105224609375 -92.49359130859375)"><path d="M5.73 -161.65 C3.89 -166.44, 2.05 -171.22, -3.23 -184.99 M5.73 -161.65 C2.93 -168.95, 0.12 -176.26, -3.23 -184.99" stroke="#1e1e1e" stroke-width="2" fill="none"></path></g><g transform="translate(544.2732480165 575.5869750976562) rotate(0 -1.614105224609375 -92.49359130859375)"><path d="M-11.37 -161.35 C-9.7 -166.2, -8.03 -171.05, -3.23 -184.99 M-11.37 -161.35 C-8.82 -168.75, -6.27 -176.15, -3.23 -184.99" stroke="#1e1e1e" stroke-width="2" fill="none"></path></g></g><mask id="mask-2t1mOx4VX9aPlKhO3FWo0"><rect x="0" y="0" fill="#fff" width="647.5014584657188" height="860.5741577148438"></rect><rect x="500.47164279189064" y="473.4933837890625" fill="#000" width="84.375" height="19.2" opacity="1"></rect></mask><g transform="translate(500.47164279189064 473.4933837890625) rotate(0 42.1875 9.599999999999994)"><text x="42.1875" y="0" font-family="Cascadia, Segoe UI Emoji" font-size="16px" fill="#1e1e1e" text-anchor="middle" style="white-space: pre;" direction="ltr" dominant-baseline="text-before-edge">__proto__</text></g><g mask="url(#mask-9K1dOi-aSmu47ScSRrQIv)" stroke-linecap="round"><g transform="translate(479.53264743056263 366.87110589264034) rotate(0 -144.53431548353632 100.73359073043763)"><path d="M0 0 C-76.59 53.38, -153.18 106.76, -289.07 201.47 M0 0 C-97.85 68.19, -195.69 136.39, -289.07 201.47" stroke="#1e1e1e" stroke-width="2" fill="none"></path></g><g transform="translate(479.53264743056263 366.87110589264034) rotate(0 -144.53431548353632 100.73359073043763)"><path d="M-274.68 181.02 C-278.5 186.44, -282.31 191.86, -289.07 201.47 M-274.68 181.02 C-279.55 187.94, -284.42 194.86, -289.07 201.47" stroke="#1e1e1e" stroke-width="2" fill="none"></path></g><g transform="translate(479.53264743056263 366.87110589264034) rotate(0 -144.53431548353632 100.73359073043763)"><path d="M-264.91 195.05 C-271.31 196.75, -277.71 198.45, -289.07 201.47 M-264.91 195.05 C-273.09 197.22, -281.26 199.39, -289.07 201.47" stroke="#1e1e1e" stroke-width="2" fill="none"></path></g></g><mask id="mask-9K1dOi-aSmu47ScSRrQIv"><rect x="0" y="0" fill="#fff" width="868.6012783976353" height="668.3382873535156"></rect><rect x="292.8108319470265" y="458.00469662307796" fill="#000" width="84.375" height="19.2" opacity="1"></rect></mask><g transform="translate(292.8108319470265 458.00469662307796) rotate(0 42.18749999999994 9.600000000000009)"><text x="42.1875" y="0" font-family="Cascadia, Segoe UI Emoji" font-size="16px" fill="#1e1e1e" text-anchor="middle" style="white-space: pre;" direction="ltr" dominant-baseline="text-before-edge">prototype</text></g><g mask="url(#mask-nvKyfXR5hTw0XWrNYiC7K)" stroke-linecap="round"><g transform="translate(232.79158908095326 593.3279540848105) rotate(0 125.72019958496088 0.6424804771259858)"><path d="M0 0 C91.54 0.47, 183.08 0.94, 251.44 1.28 M0 0 C94.27 0.48, 188.54 0.96, 251.44 1.28" stroke="#1e1e1e" stroke-width="2" fill="none"></path></g><g transform="translate(232.79158908095326 593.3279540848105) rotate(0 125.72019958496088 0.6424804771259858)"><path d="M227.9 9.72 C236.47 6.65, 245.04 3.58, 251.44 1.28 M227.9 9.72 C236.73 6.55, 245.55 3.39, 251.44 1.28" stroke="#1e1e1e" stroke-width="2" fill="none"></path></g><g transform="translate(232.79158908095326 593.3279540848105) rotate(0 125.72019958496088 0.6424804771259858)"><path d="M227.99 -7.39 C236.53 -4.23, 245.07 -1.07, 251.44 1.28 M227.99 -7.39 C236.78 -4.13, 245.57 -0.88, 251.44 1.28" stroke="#1e1e1e" stroke-width="2" fill="none"></path></g></g><mask id="mask-nvKyfXR5hTw0XWrNYiC7K"><rect x="0" y="0" fill="#fff" width="584.231988250875" height="694.6129150390625"></rect><rect x="306.94928866591397" y="584.3704345619365" fill="#000" width="103.125" height="19.2" opacity="1"></rect></mask><g transform="translate(306.9492886659141 584.3704345619365) rotate(0 51.56250000000006 9.599999999999994)"><text x="51.5625" y="0" font-family="Cascadia, Segoe UI Emoji" font-size="16px" fill="#1e1e1e" text-anchor="middle" style="white-space: pre;" direction="ltr" dominant-baseline="text-before-edge">constructor</text></g><g mask="url(#mask-XSjQO8GqUEkC38ViEpArz)" stroke-linecap="round"><g transform="translate(482.7380917665 627.346435546875) rotate(0 -125.43579101562494 -0.68572998046875)"><path d="M0 0 C-68.26 -0.37, -136.52 -0.75, -250.87 -1.37 M0 0 C-96.1 -0.53, -192.19 -1.05, -250.87 -1.37" stroke="#1e1e1e" stroke-width="2" fill="none"></path></g><g transform="translate(482.7380917665 627.346435546875) rotate(0 -125.43579101562494 -0.68572998046875)"><path d="M-227.33 -9.79 C-233.74 -7.5, -240.14 -5.21, -250.87 -1.37 M-227.33 -9.79 C-236.35 -6.57, -245.37 -3.34, -250.87 -1.37" stroke="#1e1e1e" stroke-width="2" fill="none"></path></g><g transform="translate(482.7380917665 627.346435546875) rotate(0 -125.43579101562494 -0.68572998046875)"><path d="M-227.43 7.31 C-233.81 4.95, -240.19 2.58, -250.87 -1.37 M-227.43 7.31 C-236.41 3.98, -245.39 0.66, -250.87 -1.37" stroke="#1e1e1e" stroke-width="2" fill="none"></path></g></g><mask id="mask-XSjQO8GqUEkC38ViEpArz"><rect x="0" y="0" fill="#fff" width="833.6096737977499" height="728.7178955078125"></rect><rect x="315.114800750875" y="617.0607055664062" fill="#000" width="84.375" height="19.2" opacity="1"></rect></mask><g transform="translate(315.114800750875 617.0607055664062) rotate(0 42.18750000000006 9.599999999999994)"><text x="42.1875" y="0" font-family="Cascadia, Segoe UI Emoji" font-size="16px" fill="#1e1e1e" text-anchor="middle" style="white-space: pre;" direction="ltr" dominant-baseline="text-before-edge">prototype</text></g><g mask="url(#mask-DMV1o-LHfGRKubLJtWwvr)" stroke-linecap="round"><g transform="translate(966.4303525086875 130.72535705566406) rotate(0 -185.75106811523438 97.84736633300781)"><path d="M0 0 C-140.69 74.11, -281.38 148.22, -371.5 195.69 M0 0 C-124.95 65.82, -249.89 131.64, -371.5 195.69" stroke="#1e1e1e" stroke-width="2" fill="none"></path></g><g transform="translate(966.4303525086875 130.72535705566406) rotate(0 -185.75106811523438 97.84736633300781)"><path d="M-354.7 177.18 C-361.06 184.19, -367.43 191.2, -371.5 195.69 M-354.7 177.18 C-360.35 183.41, -366 189.63, -371.5 195.69" stroke="#1e1e1e" stroke-width="2" fill="none"></path></g><g transform="translate(966.4303525086875 130.72535705566406) rotate(0 -185.75106811523438 97.84736633300781)"><path d="M-346.73 192.31 C-356.11 193.59, -365.49 194.87, -371.5 195.69 M-346.73 192.31 C-355.06 193.45, -363.39 194.59, -371.5 195.69" stroke="#1e1e1e" stroke-width="2" fill="none"></path></g></g><mask id="mask-DMV1o-LHfGRKubLJtWwvr"><rect x="0" y="0" fill="#fff" width="1437.9324887391563" height="426.4200897216797"></rect><rect x="738.4917843934531" y="218.97272338867188" fill="#000" width="84.375" height="19.2" opacity="1"></rect></mask><g transform="translate(738.4917843934531 218.97272338867188) rotate(0 42.1875 9.599999999999994)"><text x="42.1875" y="0" font-family="Cascadia, Segoe UI Emoji" font-size="16px" fill="#1e1e1e" text-anchor="middle" style="white-space: pre;" direction="ltr" dominant-baseline="text-before-edge">__proto__</text></g><g mask="url(#mask-zSNGGcrT8StBHBaW2pFbM)" stroke-linecap="round"><g transform="translate(1003.3201230165 160.8836212158203) rotate(0 -158.97476196289062 86.70983123779297)"><path d="M0 0 C-55.3 29.85, -110.6 59.7, -213.79 115.4 M0 0 C-59.63 32.19, -119.26 64.37, -213.79 115.4 M-213.79 115.4 C-252.9 137.18, -292 158.96, -317.95 173.42 M-213.79 115.4 C-237.5 128.61, -261.21 141.81, -317.95 173.42" stroke="#1e1e1e" stroke-width="2" fill="none"></path></g><g transform="translate(1003.3201230165 160.8836212158203) rotate(0 -158.97476196289062 86.70983123779297)"><path d="M-301.59 154.52 C-305.82 159.41, -310.05 164.3, -317.95 173.42 M-301.59 154.52 C-306.15 159.79, -310.71 165.06, -317.95 173.42" stroke="#1e1e1e" stroke-width="2" fill="none"></path></g><g transform="translate(1003.3201230165 160.8836212158203) rotate(0 -158.97476196289062 86.70983123779297)"><path d="M-293.27 169.46 C-299.65 170.48, -306.03 171.51, -317.95 173.42 M-293.27 169.46 C-300.15 170.56, -307.03 171.67, -317.95 173.42" stroke="#1e1e1e" stroke-width="2" fill="none"></path></g></g><mask id="mask-zSNGGcrT8StBHBaW2pFbM"><rect x="0" y="0" fill="#fff" width="1421.2696469422813" height="434.30328369140625"></rect><rect x="747.3383114930625" y="266.6827758789062" fill="#000" width="84.375" height="19.2" opacity="1"></rect></mask><g transform="translate(747.3383114930625 266.6827758789062) rotate(0 97.00704956054688 -19.089323425292974)"><text x="42.1875" y="0" font-family="Cascadia, Segoe UI Emoji" font-size="16px" fill="#1e1e1e" text-anchor="middle" style="white-space: pre;" direction="ltr" dominant-baseline="text-before-edge">prototype</text></g><g mask="url(#mask-YtrMX0B26uSkGuqJVTxLP)" stroke-linecap="round"><g transform="translate(717.3023617860313 380.3703308105469) rotate(0 188.4395751953125 -111.6644515991211)"><path d="M0 0 C88.87 -53.34, 177.74 -106.67, 237.22 -142.37 M0 0 C49.28 -29.58, 98.57 -59.16, 237.22 -142.37 M237.22 -142.37 C266.76 -159.5, 296.3 -176.62, 376.88 -223.33 M237.22 -142.37 C266.71 -159.46, 296.19 -176.55, 376.88 -223.33" stroke="#1e1e1e" stroke-width="2" fill="none"></path></g><g transform="translate(717.3023617860313 380.3703308105469) rotate(0 188.4395751953125 -111.6644515991211)"><path d="M360.84 -204.15 C366.85 -211.33, 372.86 -218.52, 376.88 -223.33 M360.84 -204.15 C364.17 -208.13, 367.51 -212.12, 376.88 -223.33" stroke="#1e1e1e" stroke-width="2" fill="none"></path></g><g transform="translate(717.3023617860313 380.3703308105469) rotate(0 188.4395751953125 -111.6644515991211)"><path d="M352.27 -218.94 C361.49 -220.59, 370.71 -222.23, 376.88 -223.33 M352.27 -218.94 C357.38 -219.86, 362.49 -220.77, 376.88 -223.33" stroke="#1e1e1e" stroke-width="2" fill="none"></path></g></g><mask id="mask-YtrMX0B26uSkGuqJVTxLP"><rect x="0" y="0" fill="#fff" width="1194.1815121766563" height="703.6992340087891"></rect><rect x="902.9645932313438" y="228.3959716796875" fill="#000" width="103.125" height="19.2" opacity="1"></rect></mask><g transform="translate(902.9645932313438 228.39597167968748) rotate(0 2.77734375 40.309907531738276)"><text x="51.5625" y="0" font-family="Cascadia, Segoe UI Emoji" font-size="16px" fill="#1e1e1e" text-anchor="middle" style="white-space: pre;" direction="ltr" dominant-baseline="text-before-edge">constructor</text></g><g mask="url(#mask-kfa4rGrC2OkkehG-D4jOY)" stroke-linecap="round"><g transform="translate(617.47295504775 580.9079284667969) rotate(0 270.0686950683594 -210.53607940673828)"><path d="M0 0 C169.02 -131.76, 338.03 -263.52, 540.14 -421.07 M0 0 C113.07 -88.14, 226.14 -176.29, 540.14 -421.07" stroke="#1e1e1e" stroke-width="2" fill="none"></path></g><g transform="translate(617.47295504775 580.9079284667969) rotate(0 270.0686950683594 -210.53607940673828)"><path d="M526.87 -399.89 C531.02 -406.51, 535.17 -413.14, 540.14 -421.07 M526.87 -399.89 C529.64 -404.32, 532.42 -408.76, 540.14 -421.07" stroke="#1e1e1e" stroke-width="2" fill="none"></path></g><g transform="translate(617.47295504775 580.9079284667969) rotate(0 270.0686950683594 -210.53607940673828)"><path d="M516.35 -413.37 C523.8 -415.78, 531.24 -418.19, 540.14 -421.07 M516.35 -413.37 C521.33 -414.98, 526.31 -416.6, 540.14 -421.07" stroke="#1e1e1e" stroke-width="2" fill="none"></path></g></g><mask id="mask-kfa4rGrC2OkkehG-D4jOY"><rect x="0" y="0" fill="#fff" width="1257.6103451844688" height="1101.9800872802734"></rect><rect x="835.9791501161094" y="360.77184906005857" fill="#000" width="103.125" height="19.2" opacity="1"></rect></mask><g transform="translate(835.9791501161094 360.77184906005857) rotate(0 51.5625 9.599999999999994)"><text x="51.5625" y="0" font-family="Cascadia, Segoe UI Emoji" font-size="16px" fill="#1e1e1e" text-anchor="middle" style="white-space: pre;" direction="ltr" dominant-baseline="text-before-edge">constrcutor</text></g><g stroke-linecap="round"><g transform="translate(1163.5695737000938 126.29339599609375) rotate(0 -21.4130859375 -45.7647705078125)"><path d="M0 0 C19.11 0.21, 38.21 0.41, 61.88 0.67 M0 0 C12.98 0.14, 25.96 0.28, 61.88 0.67 M61.88 0.67 C62 -17.99, 62.13 -36.64, 62.49 -91.89 M61.88 0.67 C62.06 -26.88, 62.24 -54.42, 62.49 -91.89 M62.49 -91.89 C24.35 -91.96, -13.79 -92.03, -104.01 -92.2 M62.49 -91.89 C8.62 -91.99, -45.25 -92.09, -104.01 -92.2 M-104.01 -92.2 C-104.43 -74.46, -104.85 -56.72, -105.32 -36.64 M-104.01 -92.2 C-104.41 -75.39, -104.8 -58.58, -105.32 -36.64" stroke="#1e1e1e" stroke-width="2" fill="none"></path></g><g transform="translate(1163.5695737000938 126.29339599609375) rotate(0 -21.4130859375 -45.7647705078125)"><path d="M-113.32 -60.32 C-110.85 -53.01, -108.38 -45.7, -105.32 -36.64 M-113.32 -60.32 C-111.64 -55.36, -109.96 -50.39, -105.32 -36.64" stroke="#1e1e1e" stroke-width="2" fill="none"></path></g><g transform="translate(1163.5695737000938 126.29339599609375) rotate(0 -21.4130859375 -45.7647705078125)"><path d="M-96.22 -59.92 C-99.03 -52.73, -101.84 -45.54, -105.32 -36.64 M-96.22 -59.92 C-98.13 -55.04, -100.04 -50.15, -105.32 -36.64" stroke="#1e1e1e" stroke-width="2" fill="none"></path></g></g><mask></mask><g transform="translate(1095.3758481141563 10) rotate(0 51.5625 9.599999999999994)"><text x="0" y="0" font-family="Cascadia, Segoe UI Emoji" font-size="16px" fill="#1e1e1e" text-anchor="start" style="white-space: pre;" direction="ltr" dominant-baseline="text-before-edge">constructor</text></g></svg>