<svg version="1.1" xmlns="http://www.w3.org/2000/svg" viewBox="0 0 584.1249999999999 404.02859191894527" width="584.1249999999999" height="404.02859191894527">
  <!-- svg-source:excalidraw -->
  
  <defs>
    <style class="style-fonts">
      @font-face {
        font-family: "Virgil";
        src: url("https://excalidraw.com/Virgil.woff2");
      }
      @font-face {
        font-family: "Cascadia";
        src: url("https://excalidraw.com/Cascadia.woff2");
      }
      @font-face {
        font-family: "Assistant";
        src: url("https://excalidraw.com/Assistant-Regular.woff2");
      }
    </style>
    
  </defs>
  <g transform="translate(10 10) rotate(0 131.24999999999994 57.60000000000002)"><text x="0" y="0" font-family="Cascadia, Segoe UI Emoji" font-size="16px" fill="#1e1e1e" text-anchor="start" style="white-space: pre;" direction="ltr" dominant-baseline="text-before-edge">// JavaScript</text><text x="0" y="19.2" font-family="Cascadia, Segoe UI Emoji" font-size="16px" fill="#1e1e1e" text-anchor="start" style="white-space: pre;" direction="ltr" dominant-baseline="text-before-edge"></text><text x="0" y="38.4" font-family="Cascadia, Segoe UI Emoji" font-size="16px" fill="#1e1e1e" text-anchor="start" style="white-space: pre;" direction="ltr" dominant-baseline="text-before-edge">var data = {</text><text x="0" y="57.599999999999994" font-family="Cascadia, Segoe UI Emoji" font-size="16px" fill="#1e1e1e" text-anchor="start" style="white-space: pre;" direction="ltr" dominant-baseline="text-before-edge">   name: 'Bob',</text><text x="0" y="76.8" font-family="Cascadia, Segoe UI Emoji" font-size="16px" fill="#1e1e1e" text-anchor="start" style="white-space: pre;" direction="ltr" dominant-baseline="text-before-edge">   email: 'bob@example.com' </text><text x="0" y="96" font-family="Cascadia, Segoe UI Emoji" font-size="16px" fill="#1e1e1e" text-anchor="start" style="white-space: pre;" direction="ltr" dominant-baseline="text-before-edge">}</text></g><g transform="translate(245.9999999999999 317.2285919189453) rotate(0 164.0625 38.39999999999998)"><text x="0" y="0" font-family="Cascadia, Segoe UI Emoji" font-size="16px" fill="#1e1e1e" text-anchor="start" style="white-space: pre;" direction="ltr" dominant-baseline="text-before-edge">&lt; !--HTML-- &gt;</text><text x="0" y="19.2" font-family="Cascadia, Segoe UI Emoji" font-size="16px" fill="#1e1e1e" text-anchor="start" style="white-space: pre;" direction="ltr" dominant-baseline="text-before-edge"></text><text x="0" y="38.4" font-family="Cascadia, Segoe UI Emoji" font-size="16px" fill="#1e1e1e" text-anchor="start" style="white-space: pre;" direction="ltr" dominant-baseline="text-before-edge">&lt;input name="name" type="text"/&gt;</text><text x="0" y="57.599999999999994" font-family="Cascadia, Segoe UI Emoji" font-size="16px" fill="#1e1e1e" text-anchor="start" style="white-space: pre;" direction="ltr" dominant-baseline="text-before-edge">&lt;input name="email" type = "text"/&gt;</text></g><g transform="translate(266.3121337890624 105.62919616699219) rotate(0 30.84686279296875 98.03150939941406)" stroke="none"><path fill="#e03131" d="M 1.28,-0.93 Q 1.28,-0.93 2.36,0.48 3.44,1.91 4.82,3.71 6.19,5.50 8.19,8.05 10.18,10.60 12.78,13.73 15.37,16.86 18.44,20.66 21.52,24.46 24.72,28.59 27.93,32.71 30.80,36.91 33.67,41.11 35.99,44.99 38.31,48.86 40.17,52.42 42.03,55.98 43.82,60.41 45.61,64.83 47.05,68.84 48.50,72.85 49.96,77.04 51.41,81.22 52.43,84.46 53.45,87.70 54.22,90.67 54.99,93.64 55.58,96.36 56.17,99.08 56.75,102.47 57.33,105.87 57.84,109.01 58.35,112.16 58.76,114.73 59.18,117.30 59.57,118.89 59.96,120.47 60.15,122.61 60.35,124.75 60.54,126.55 60.74,128.35 60.90,130.50 61.06,132.64 61.22,134.61 61.39,136.58 61.53,138.54 61.67,140.50 61.77,142.58 61.87,144.67 62.16,149.29 62.44,153.92 62.56,156.02 62.68,158.12 62.89,159.72 63.09,161.32 63.37,163.07 63.64,164.83 63.80,166.60 63.97,168.38 64.01,170.37 64.05,172.37 64.10,173.64 64.16,174.91 64.24,176.54 64.33,178.17 64.33,179.37 64.32,180.57 64.36,182.35 64.40,184.12 64.45,185.34 64.50,186.56 64.66,187.75 64.82,188.94 64.87,190.00 64.93,191.06 64.97,193.56 65.01,196.06 64.92,196.59 64.83,197.12 64.58,197.59 64.33,198.07 63.94,198.44 63.55,198.81 63.06,199.03 62.58,199.26 62.04,199.31 61.51,199.37 60.98,199.26 60.46,199.14 60.00,198.86 59.54,198.59 59.19,198.18 58.84,197.77 58.65,197.27 58.45,196.77 58.42,196.24 58.39,195.70 58.53,195.18 58.68,194.66 58.98,194.22 59.28,193.78 59.71,193.45 60.13,193.13 60.64,192.95 61.15,192.78 61.69,192.78 62.23,192.78 62.73,192.95 63.24,193.13 63.67,193.45 64.10,193.78 64.40,194.22 64.70,194.66 64.84,195.18 64.99,195.70 64.96,196.24 64.93,196.77 64.73,197.27 64.53,197.77 64.18,198.18 63.84,198.59 63.38,198.86 62.92,199.14 62.39,199.26 61.87,199.37 61.33,199.31 60.80,199.26 60.31,199.03 59.83,198.80 59.44,198.44 59.05,198.07 58.79,197.59 58.54,197.12 58.46,196.59 58.37,196.06 58.37,196.06 58.37,196.06 58.41,193.57 58.44,191.08 58.49,190.00 58.54,188.91 58.48,187.74 58.42,186.56 58.47,185.34 58.52,184.12 58.56,182.34 58.60,180.57 58.60,179.37 58.59,178.16 58.69,176.48 58.80,174.80 58.93,173.42 59.06,172.04 59.23,170.22 59.40,168.40 59.53,166.66 59.67,164.93 59.80,163.25 59.92,161.56 59.88,159.93 59.84,158.30 59.69,156.21 59.55,154.11 59.21,149.48 58.87,144.84 58.73,142.77 58.59,140.70 58.47,138.76 58.35,136.81 58.22,134.86 58.08,132.91 57.85,130.76 57.62,128.61 57.52,126.82 57.42,125.02 57.22,123.03 57.02,121.03 56.80,119.37 56.58,117.72 56.17,115.15 55.75,112.58 55.25,109.45 54.74,106.31 54.17,102.97 53.59,99.63 53.01,96.97 52.43,94.30 51.68,91.40 50.93,88.50 49.92,85.30 48.91,82.09 47.46,77.93 46.00,73.76 44.57,69.79 43.13,65.83 41.40,61.53 39.66,57.23 37.83,53.74 35.99,50.25 33.71,46.45 31.42,42.66 28.59,38.54 25.75,34.42 22.54,30.33 19.33,26.25 16.24,22.48 13.15,18.72 10.50,15.60 7.84,12.47 5.79,9.96 3.74,7.46 2.25,5.66 0.75,3.86 -0.26,2.40 -1.28,0.93 -1.37,0.76 -1.47,0.60 -1.52,0.41 -1.57,0.23 -1.57,0.03 -1.58,-0.15 -1.54,-0.33 -1.49,-0.52 -1.41,-0.69 -1.32,-0.87 -1.20,-1.01 -1.08,-1.16 -0.92,-1.27 -0.77,-1.38 -0.59,-1.46 -0.41,-1.53 -0.22,-1.56 -0.03,-1.58 0.15,-1.57 0.34,-1.55 0.52,-1.48 0.70,-1.42 0.86,-1.32 1.02,-1.21 1.15,-1.07 1.28,-0.93 1.28,-0.93 L 1.28,-0.93 Z"></path></g><g transform="translate(30.458496093749886 111.67292785644531) rotate(0 110.87969970703125 112.94955444335938)" stroke="none"><path fill="#e03131" d="M 1.51,-0.40 Q 1.51,-0.40 2.02,1.57 2.54,3.54 3.45,6.66 4.36,9.79 5.49,13.07 6.63,16.36 8.27,20.69 9.91,25.02 11.35,28.96 12.79,32.91 14.55,37.58 16.31,42.24 17.71,45.85 19.11,49.46 20.51,52.82 21.90,56.17 23.15,58.96 24.39,61.76 25.50,64.28 26.61,66.80 28.13,69.96 29.64,73.11 30.74,75.30 31.84,77.49 34.18,81.82 36.51,86.14 38.43,89.63 40.34,93.11 42.16,96.35 43.97,99.59 45.41,102.16 46.84,104.72 48.37,107.29 49.91,109.86 51.50,112.46 53.09,115.05 54.80,117.58 56.52,120.10 58.22,122.41 59.93,124.73 62.40,127.58 64.87,130.44 66.52,132.25 68.17,134.06 70.66,136.41 73.16,138.77 75.86,141.15 78.56,143.53 81.04,145.73 83.51,147.93 85.93,150.05 88.36,152.16 90.50,153.97 92.64,155.79 94.98,157.59 97.32,159.40 99.72,161.37 102.11,163.34 105.56,166.22 109.01,169.09 111.32,170.96 113.63,172.83 118.58,176.22 123.54,179.62 127.16,182.06 130.79,184.50 135.83,187.97 140.86,191.44 143.84,193.53 146.83,195.62 149.47,197.42 152.11,199.22 154.20,200.57 156.30,201.92 159.09,203.67 161.89,205.43 163.62,206.49 165.35,207.54 167.24,208.65 169.13,209.76 176.88,212.98 184.63,216.19 190.10,218.23 195.58,220.26 198.61,221.25 201.64,222.24 204.20,222.85 206.77,223.46 209.51,223.78 212.25,224.10 213.90,224.15 215.54,224.20 216.70,224.11 217.86,224.02 218.82,223.88 219.77,223.75 219.95,223.45 220.12,223.16 220.38,222.93 220.65,222.71 220.96,222.58 221.28,222.45 221.63,222.43 221.97,222.41 222.30,222.50 222.64,222.59 222.92,222.78 223.21,222.97 223.42,223.24 223.63,223.51 223.74,223.84 223.85,224.16 223.85,224.51 223.86,224.85 223.75,225.18 223.64,225.51 223.43,225.78 223.23,226.06 222.94,226.25 222.66,226.45 222.33,226.54 222.00,226.64 221.65,226.62 221.31,226.60 220.99,226.48 220.67,226.35 220.41,226.13 220.14,225.91 219.96,225.62 219.78,225.32 219.71,224.99 219.63,224.65 219.66,224.31 219.70,223.97 219.84,223.65 219.99,223.34 220.22,223.09 220.46,222.84 220.76,222.67 221.06,222.51 221.40,222.45 221.74,222.39 222.08,222.45 222.42,222.50 222.73,222.66 223.03,222.82 223.27,223.07 223.51,223.32 223.65,223.63 223.80,223.94 223.84,224.28 223.88,224.62 223.81,224.96 223.74,225.30 223.74,225.30 223.74,225.30 220.68,226.50 217.63,227.70 216.46,227.44 215.29,227.18 213.62,226.95 211.95,226.72 209.05,226.38 206.16,226.03 203.49,225.40 200.82,224.77 197.74,223.76 194.65,222.76 189.13,220.71 183.60,218.67 175.69,215.38 167.77,212.09 165.84,210.97 163.90,209.85 162.20,208.75 160.49,207.66 157.69,205.89 154.88,204.13 152.75,202.76 150.63,201.39 147.97,199.58 145.32,197.77 142.35,195.69 139.37,193.61 134.35,190.14 129.33,186.68 125.69,184.23 122.05,181.79 117.01,178.33 111.98,174.87 109.65,172.99 107.33,171.11 103.89,168.24 100.45,165.37 98.08,163.43 95.71,161.48 93.33,159.64 90.95,157.79 88.79,155.97 86.63,154.14 84.20,152.02 81.76,149.89 79.30,147.70 76.83,145.50 74.09,143.09 71.36,140.68 68.79,138.25 66.22,135.83 64.55,133.99 62.89,132.16 60.35,129.22 57.81,126.29 56.08,123.93 54.34,121.58 52.59,119.00 50.85,116.43 49.25,113.82 47.65,111.21 46.09,108.61 44.54,106.00 43.11,103.44 41.68,100.88 39.86,97.63 38.04,94.38 36.12,90.89 34.20,87.40 31.84,83.04 29.48,78.68 28.37,76.47 27.25,74.25 25.72,71.06 24.19,67.87 23.08,65.36 21.96,62.85 20.70,60.02 19.44,57.20 18.02,53.82 16.60,50.44 15.19,46.82 13.77,43.21 11.98,38.53 10.20,33.86 8.75,29.94 7.29,26.02 5.61,21.67 3.92,17.32 2.72,13.98 1.52,10.64 0.54,7.49 -0.43,4.34 -0.97,2.37 -1.51,0.40 -1.54,0.21 -1.56,0.02 -1.55,-0.15 -1.53,-0.34 -1.46,-0.52 -1.40,-0.70 -1.29,-0.86 -1.19,-1.01 -1.05,-1.14 -0.91,-1.27 -0.75,-1.36 -0.58,-1.45 -0.40,-1.50 -0.21,-1.55 -0.02,-1.55 0.15,-1.56 0.34,-1.51 0.52,-1.47 0.69,-1.39 0.86,-1.30 1.01,-1.18 1.15,-1.06 1.26,-0.90 1.37,-0.75 1.44,-0.57 1.51,-0.40 1.51,-0.40 L 1.51,-0.40 Z"></path></g><g transform="translate(266.18939208984364 105.25627136230469) rotate(0 -1.257171630859375 7.200164794921875)" stroke="none"><path fill="#e03131" d="M 2.51,0.44 Q 2.51,0.44 2.34,1.56 2.17,2.68 1.93,3.95 1.68,5.23 1.42,6.61 1.16,8.00 1.08,9.47 1.01,10.94 0.85,13.06 0.68,15.18 0.47,15.67 0.27,16.16 -0.08,16.56 -0.43,16.96 -0.90,17.22 -1.36,17.49 -1.89,17.59 -2.41,17.69 -2.94,17.62 -3.47,17.55 -3.95,17.32 -4.42,17.08 -4.80,16.70 -5.18,16.33 -5.42,15.85 -5.66,15.37 -5.73,14.85 -5.81,14.32 -5.71,13.79 -5.61,13.27 -5.35,12.80 -5.09,12.34 -4.69,11.98 -4.29,11.62 -3.81,11.41 -3.32,11.20 -2.78,11.15 -2.25,11.11 -1.73,11.23 -1.22,11.36 -0.76,11.65 -0.31,11.93 0.01,12.35 0.35,12.76 0.53,13.26 0.72,13.76 0.73,14.30 0.75,14.83 0.60,15.34 0.44,15.85 0.13,16.29 -0.17,16.72 -0.60,17.03 -1.03,17.35 -1.54,17.50 -2.05,17.66 -2.59,17.65 -3.12,17.64 -3.62,17.45 -4.12,17.27 -4.54,16.94 -4.96,16.61 -5.25,16.16 -5.54,15.71 -5.67,15.19 -5.80,14.67 -5.75,14.14 -5.71,13.61 -5.71,13.61 -5.71,13.61 -4.91,13.65 -4.11,13.69 -4.67,12.67 -5.23,11.66 -5.08,10.04 -4.92,8.43 -4.68,7.23 -4.45,6.04 -4.13,5.02 -3.81,4.00 -3.39,2.89 -2.96,1.78 -2.73,0.66 -2.51,-0.44 -2.42,-0.73 -2.33,-1.03 -2.17,-1.29 -2.02,-1.56 -1.80,-1.78 -1.58,-1.99 -1.32,-2.16 -1.06,-2.32 -0.76,-2.41 -0.47,-2.50 -0.16,-2.52 0.13,-2.54 0.44,-2.49 0.74,-2.44 1.02,-2.31 1.30,-2.19 1.55,-2.00 1.79,-1.81 1.98,-1.57 2.17,-1.33 2.30,-1.05 2.43,-0.77 2.49,-0.47 2.54,-0.17 2.53,0.13 2.51,0.44 2.51,0.44 L 2.51,0.44 Z"></path></g><g transform="translate(267.7894287109374 104.34196472167969) rotate(0 5.25726318359375 0)" stroke="none"><path fill="#e03131" d="M 0,-2.57 Q 0,-2.57 0.78,-2.62 1.57,-2.66 2.79,-2.76 4.00,-2.85 5.40,-2.95 6.80,-3.05 8.66,-3.06 10.51,-3.07 11.00,-2.99 11.49,-2.91 11.93,-2.67 12.37,-2.44 12.71,-2.08 13.05,-1.72 13.26,-1.27 13.47,-0.82 13.52,-0.32 13.58,0.16 13.47,0.65 13.36,1.13 13.11,1.56 12.85,1.98 12.47,2.31 12.09,2.63 11.63,2.81 11.17,2.99 10.67,3.02 10.18,3.05 9.70,2.92 9.22,2.78 8.81,2.50 8.40,2.22 8.10,1.83 7.80,1.43 7.64,0.96 7.48,0.49 7.48,-0.00 7.48,-0.49 7.64,-0.96 7.80,-1.43 8.10,-1.83 8.40,-2.23 8.81,-2.50 9.22,-2.78 9.70,-2.92 10.18,-3.05 10.67,-3.02 11.17,-2.99 11.63,-2.81 12.09,-2.63 12.47,-2.30 12.85,-1.98 13.11,-1.56 13.36,-1.13 13.47,-0.65 13.58,-0.16 13.52,0.32 13.47,0.82 13.26,1.27 13.05,1.72 12.71,2.08 12.37,2.44 11.93,2.67 11.49,2.91 11.00,2.99 10.51,3.07 10.51,3.07 10.51,3.07 8.66,3.06 6.80,3.05 5.40,2.95 4.00,2.85 2.79,2.76 1.57,2.66 0.78,2.62 0,2.57 -0.30,2.54 -0.61,2.50 -0.90,2.39 -1.19,2.28 -1.45,2.10 -1.71,1.93 -1.91,1.69 -2.12,1.46 -2.26,1.19 -2.41,0.91 -2.48,0.61 -2.56,0.31 -2.56,-0.00 -2.56,-0.31 -2.48,-0.61 -2.41,-0.91 -2.26,-1.19 -2.12,-1.46 -1.91,-1.69 -1.71,-1.93 -1.45,-2.10 -1.19,-2.28 -0.90,-2.39 -0.61,-2.50 -0.30,-2.54 0.00,-2.57 0.00,-2.57 L 0,-2.57 Z"></path></g><g transform="translate(330.8919677734374 301.75111389160156) rotate(0 5.9429931640625 -5.9429779052734375)" stroke="none"><path fill="#e03131" d="M -1.92,-1.53 Q -1.92,-1.53 -0.83,-2.82 0.24,-4.11 1.33,-5.31 2.42,-6.51 3.57,-7.63 4.72,-8.76 5.63,-9.69 6.53,-10.63 8.50,-12.27 10.47,-13.92 10.83,-14.09 11.19,-14.26 11.59,-14.31 11.99,-14.36 12.38,-14.27 12.77,-14.19 13.12,-13.99 13.47,-13.79 13.73,-13.48 13.99,-13.18 14.14,-12.81 14.29,-12.44 14.32,-12.04 14.35,-11.64 14.24,-11.25 14.14,-10.86 13.92,-10.53 13.70,-10.20 13.38,-9.95 13.06,-9.70 12.69,-9.57 12.31,-9.44 11.91,-9.44 11.50,-9.43 11.12,-9.56 10.74,-9.68 10.42,-9.92 10.10,-10.16 9.87,-10.49 9.64,-10.82 9.53,-11.20 9.42,-11.59 9.44,-11.99 9.46,-12.39 9.60,-12.76 9.75,-13.14 10.00,-13.44 10.26,-13.75 10.60,-13.96 10.94,-14.17 11.33,-14.26 11.72,-14.35 12.12,-14.31 12.52,-14.27 12.89,-14.11 13.25,-13.95 13.54,-13.67 13.84,-13.40 14.03,-13.05 14.22,-12.70 14.29,-12.30 14.36,-11.91 14.30,-11.51 14.24,-11.11 14.05,-10.76 13.87,-10.40 13.58,-10.12 13.29,-9.84 13.29,-9.84 13.29,-9.84 11.61,-8.53 9.92,-7.21 8.97,-6.31 8.02,-5.41 6.97,-4.37 5.93,-3.34 4.94,-2.24 3.96,-1.14 2.94,0.19 1.92,1.53 1.70,1.74 1.49,1.95 1.24,2.10 0.98,2.25 0.70,2.33 0.41,2.42 0.12,2.43 -0.17,2.45 -0.46,2.39 -0.75,2.34 -1.02,2.21 -1.29,2.09 -1.52,1.90 -1.75,1.72 -1.93,1.48 -2.11,1.25 -2.23,0.97 -2.35,0.70 -2.40,0.41 -2.45,0.12 -2.43,-0.17 -2.41,-0.46 -2.32,-0.75 -2.23,-1.03 -2.07,-1.28 -1.92,-1.53 -1.92,-1.53 L -1.92,-1.53 Z"></path></g><g transform="translate(326.3204345703124 301.9796905517578) rotate(0 -4.34295654296875 -6.9715728759765625)" stroke="none"><path fill="#e03131" d="M -2.23,1.49 Q -2.23,1.49 -2.78,0.71 -3.33,-0.05 -4.23,-1.67 -5.14,-3.28 -5.80,-4.58 -6.46,-5.88 -7.11,-6.96 -7.76,-8.03 -9.19,-9.73 -10.62,-11.42 -10.97,-11.80 -11.32,-12.17 -11.54,-12.64 -11.75,-13.11 -11.80,-13.62 -11.85,-14.13 -11.74,-14.63 -11.62,-15.13 -11.36,-15.57 -11.09,-16.01 -10.69,-16.34 -10.30,-16.67 -9.82,-16.86 -9.34,-17.05 -8.83,-17.07 -8.31,-17.09 -7.82,-16.95 -7.33,-16.81 -6.90,-16.52 -6.48,-16.23 -6.17,-15.82 -5.86,-15.41 -5.70,-14.92 -5.54,-14.43 -5.55,-13.92 -5.55,-13.40 -5.72,-12.92 -5.89,-12.43 -6.20,-12.02 -6.51,-11.62 -6.94,-11.33 -7.37,-11.05 -7.86,-10.91 -8.36,-10.78 -8.87,-10.81 -9.39,-10.84 -9.86,-11.03 -10.34,-11.23 -10.73,-11.56 -11.12,-11.90 -11.38,-12.34 -11.64,-12.78 -11.75,-13.29 -11.85,-13.79 -11.79,-14.30 -11.74,-14.81 -11.52,-15.28 -11.30,-15.74 -10.94,-16.11 -10.58,-16.48 -10.13,-16.72 -9.67,-16.96 -9.17,-17.04 -8.66,-17.11 -8.15,-17.03 -7.64,-16.94 -7.19,-16.70 -6.74,-16.45 -6.74,-16.45 -6.74,-16.45 -5.26,-14.84 -3.79,-13.22 -3.06,-12.06 -2.34,-10.91 -1.65,-9.53 -0.95,-8.15 -0.42,-6.87 0.11,-5.60 0.67,-4.35 1.23,-3.10 1.73,-2.29 2.23,-1.49 2.38,-1.20 2.52,-0.91 2.59,-0.59 2.67,-0.28 2.66,0.04 2.66,0.36 2.57,0.68 2.49,0.99 2.34,1.27 2.18,1.56 1.96,1.80 1.74,2.03 1.47,2.21 1.20,2.39 0.90,2.50 0.60,2.61 0.27,2.65 -0.04,2.68 -0.36,2.64 -0.68,2.59 -0.98,2.47 -1.28,2.35 -1.55,2.17 -1.81,1.98 -2.02,1.73 -2.23,1.49 -2.23,1.49 L -2.23,1.49 Z"></path></g><g transform="translate(31.15219116210926 112.14106750488281) rotate(0 -2.400054931640625 6.743011474609375)" stroke="none"><path fill="#e03131" d="M 2.53,0.80 Q 2.53,0.80 2.14,2.04 1.74,3.29 1.37,4.32 1.01,5.34 0.52,6.78 0.03,8.23 -0.38,9.36 -0.80,10.50 -1.30,12.30 -1.81,14.10 -1.98,14.56 -2.16,15.02 -2.47,15.40 -2.79,15.78 -3.21,16.04 -3.63,16.30 -4.11,16.41 -4.59,16.53 -5.08,16.48 -5.57,16.43 -6.02,16.23 -6.47,16.03 -6.84,15.69 -7.20,15.36 -7.44,14.93 -7.67,14.49 -7.76,14.01 -7.85,13.52 -7.77,13.03 -7.70,12.54 -7.47,12.10 -7.25,11.67 -6.89,11.32 -6.54,10.98 -6.09,10.76 -5.65,10.55 -5.16,10.49 -4.67,10.43 -4.19,10.53 -3.70,10.63 -3.28,10.88 -2.85,11.13 -2.52,11.50 -2.20,11.87 -2.01,12.33 -1.82,12.79 -1.79,13.28 -1.76,13.77 -1.88,14.25 -2.01,14.73 -2.28,15.14 -2.55,15.55 -2.94,15.86 -3.33,16.16 -3.80,16.32 -4.26,16.49 -4.76,16.49 -5.25,16.50 -5.72,16.35 -6.19,16.20 -6.59,15.90 -6.98,15.61 -7.27,15.20 -7.55,14.80 -7.69,14.32 -7.82,13.85 -7.80,13.36 -7.78,12.86 -7.78,12.86 -7.78,12.86 -7.30,11.34 -6.81,9.82 -6.32,8.50 -5.84,7.17 -5.27,6.07 -4.70,4.96 -4.01,3.33 -3.32,1.69 -2.93,0.44 -2.53,-0.80 -2.40,-1.09 -2.27,-1.38 -2.07,-1.63 -1.87,-1.88 -1.62,-2.08 -1.36,-2.28 -1.07,-2.41 -0.78,-2.54 -0.46,-2.59 -0.15,-2.65 0.16,-2.63 0.48,-2.61 0.79,-2.51 1.10,-2.42 1.37,-2.25 1.64,-2.08 1.87,-1.85 2.09,-1.63 2.26,-1.35 2.42,-1.08 2.52,-0.77 2.61,-0.46 2.63,-0.14 2.65,0.17 2.59,0.48 2.53,0.80 2.53,0.80 L 2.53,0.80 Z"></path></g><g transform="translate(34.58084106445301 112.59822082519531) rotate(0 5.0286865234375 2.857208251953125)" stroke="none"><path fill="#e03131" d="M 1.02,-2.26 Q 1.02,-2.26 2.46,-1.58 3.89,-0.90 5.06,-0.37 6.23,0.15 7.30,0.73 8.36,1.31 10.15,2.62 11.95,3.93 12.18,4.28 12.42,4.63 12.53,5.03 12.64,5.44 12.61,5.86 12.59,6.28 12.43,6.67 12.27,7.06 12.00,7.38 11.73,7.70 11.36,7.91 11.00,8.13 10.59,8.22 10.18,8.31 9.76,8.26 9.34,8.21 8.96,8.03 8.58,7.85 8.28,7.56 7.97,7.27 7.78,6.90 7.58,6.53 7.52,6.11 7.45,5.70 7.52,5.28 7.59,4.87 7.79,4.50 7.99,4.13 8.30,3.84 8.60,3.55 8.99,3.37 9.37,3.20 9.79,3.16 10.21,3.11 10.62,3.21 11.03,3.30 11.39,3.52 11.75,3.74 12.02,4.06 12.29,4.38 12.44,4.77 12.60,5.16 12.62,5.58 12.64,6.00 12.52,6.41 12.41,6.81 12.17,7.16 11.93,7.51 11.60,7.76 11.26,8.01 10.86,8.15 10.46,8.28 10.04,8.28 9.62,8.27 9.22,8.14 8.82,8.00 8.49,7.74 8.16,7.49 8.16,7.49 8.16,7.49 6.13,6.06 4.10,4.64 2.99,4.08 1.88,3.53 0.42,2.89 -1.02,2.26 -1.28,2.10 -1.54,1.95 -1.75,1.73 -1.96,1.52 -2.11,1.26 -2.27,1.01 -2.35,0.72 -2.44,0.43 -2.46,0.13 -2.48,-0.15 -2.42,-0.45 -2.37,-0.74 -2.24,-1.02 -2.12,-1.29 -1.93,-1.52 -1.75,-1.76 -1.51,-1.94 -1.27,-2.13 -1.00,-2.25 -0.73,-2.37 -0.43,-2.42 -0.14,-2.48 0.15,-2.46 0.45,-2.44 0.74,-2.35 1.02,-2.26 1.02,-2.26 L 1.02,-2.26 Z"></path></g><g transform="translate(249.6186523437499 335.6347198486328) rotate(0 -4.685821533203125 -7.657318115234375)" stroke="none"><path fill="#e03131" d="M -2.23,1.31 Q -2.23,1.31 -2.89,0.20 -3.56,-0.91 -4.26,-1.99 -4.97,-3.07 -5.60,-4.13 -6.24,-5.19 -6.91,-6.21 -7.58,-7.23 -8.18,-8.17 -8.78,-9.11 -10.34,-11.62 -11.90,-14.14 -12.02,-14.57 -12.14,-15.01 -12.12,-15.46 -12.09,-15.91 -11.93,-16.33 -11.76,-16.75 -11.47,-17.09 -11.18,-17.44 -10.79,-17.67 -10.40,-17.90 -9.96,-18.00 -9.52,-18.10 -9.07,-18.05 -8.62,-18.00 -8.21,-17.81 -7.80,-17.62 -7.47,-17.31 -7.14,-17.00 -6.93,-16.60 -6.72,-16.20 -6.65,-15.76 -6.57,-15.31 -6.65,-14.86 -6.72,-14.42 -6.93,-14.02 -7.14,-13.62 -7.47,-13.31 -7.80,-13.00 -8.21,-12.81 -8.62,-12.62 -9.07,-12.57 -9.52,-12.52 -9.96,-12.62 -10.40,-12.71 -10.79,-12.95 -11.18,-13.18 -11.47,-13.52 -11.76,-13.87 -11.93,-14.29 -12.09,-14.71 -12.12,-15.16 -12.14,-15.61 -12.02,-16.05 -11.90,-16.48 -11.65,-16.86 -11.39,-17.23 -11.03,-17.50 -10.68,-17.78 -10.25,-17.92 -9.82,-18.07 -9.37,-18.07 -8.91,-18.07 -8.49,-17.92 -8.06,-17.78 -7.70,-17.50 -7.34,-17.23 -7.08,-16.86 -6.83,-16.48 -6.83,-16.48 -6.83,-16.48 -5.88,-14.96 -4.93,-13.43 -4.03,-11.78 -3.13,-10.12 -2.39,-8.97 -1.65,-7.82 -1.13,-6.87 -0.61,-5.92 0.16,-4.73 0.93,-3.55 1.58,-2.43 2.23,-1.31 2.36,-1.02 2.48,-0.74 2.53,-0.43 2.59,-0.12 2.56,0.18 2.54,0.49 2.44,0.79 2.35,1.09 2.18,1.35 2.02,1.62 1.79,1.84 1.57,2.06 1.30,2.21 1.03,2.37 0.73,2.46 0.43,2.55 0.12,2.57 -0.18,2.58 -0.49,2.52 -0.80,2.46 -1.08,2.33 -1.36,2.20 -1.61,2.00 -1.85,1.81 -2.04,1.56 -2.23,1.31 -2.23,1.31 L -2.23,1.31 Z"></path></g><g transform="translate(251.44720458984364 339.06349182128906) rotate(0 -7.314453125 3.085784912109375)" stroke="none"><path fill="#e03131" d="M 0.52,2.62 Q 0.52,2.62 -0.45,2.85 -1.43,3.07 -2.62,3.53 -3.81,3.99 -4.80,4.49 -5.80,4.98 -6.77,5.51 -7.74,6.05 -9.20,6.87 -10.66,7.69 -11.82,8.31 -12.99,8.94 -13.47,9.13 -13.96,9.32 -14.48,9.34 -15.00,9.36 -15.50,9.22 -16.00,9.08 -16.43,8.78 -16.86,8.48 -17.17,8.07 -17.48,7.65 -17.64,7.15 -17.80,6.66 -17.80,6.14 -17.80,5.62 -17.62,5.13 -17.45,4.63 -17.14,4.22 -16.82,3.81 -16.38,3.52 -15.95,3.23 -15.45,3.10 -14.94,2.96 -14.42,3.00 -13.90,3.03 -13.42,3.23 -12.94,3.42 -12.55,3.76 -12.15,4.10 -11.89,4.55 -11.62,5.00 -11.52,5.51 -11.41,6.02 -11.47,6.54 -11.53,7.06 -11.75,7.53 -11.98,8.00 -12.34,8.37 -12.70,8.75 -13.16,8.99 -13.62,9.23 -14.14,9.31 -14.65,9.38 -15.17,9.30 -15.68,9.21 -16.14,8.96 -16.59,8.71 -16.95,8.33 -17.30,7.95 -17.52,7.47 -17.73,7.00 -17.78,6.48 -17.84,5.96 -17.72,5.46 -17.60,4.95 -17.33,4.50 -17.06,4.06 -16.66,3.73 -16.26,3.39 -16.26,3.39 -16.26,3.39 -14.46,2.54 -12.67,1.70 -11.58,1.12 -10.49,0.54 -9.47,0.09 -8.44,-0.36 -7.02,-0.91 -5.59,-1.45 -4.05,-1.87 -2.50,-2.28 -1.51,-2.45 -0.52,-2.62 -0.20,-2.65 0.11,-2.67 0.43,-2.62 0.75,-2.57 1.05,-2.44 1.34,-2.31 1.60,-2.12 1.86,-1.92 2.06,-1.67 2.27,-1.42 2.40,-1.13 2.54,-0.83 2.60,-0.52 2.67,-0.20 2.65,0.11 2.64,0.44 2.55,0.75 2.46,1.06 2.29,1.33 2.13,1.61 1.91,1.85 1.68,2.08 1.41,2.25 1.13,2.42 0.83,2.52 0.52,2.62 0.52,2.62 L 0.52,2.62 Z"></path></g></svg>