<svg version="1.1" xmlns="http://www.w3.org/2000/svg" viewBox="0 0 803.638966878254 590.9122212727862" width="803.638966878254" height="590.9122212727862">
  <!-- svg-source:excalidraw -->
  
  <defs>
    <style class="style-fonts">
      @font-face {
        font-family: "Virgil";
        src: url("https://excalidraw.com/Virgil.woff2");
      }
      @font-face {
        font-family: "Cascadia";
        src: url("https://excalidraw.com/Cascadia.woff2");
      }
      @font-face {
        font-family: "Assistant";
        src: url("https://excalidraw.com/Assistant-Regular.woff2");
      }
    </style>
    
  </defs>
  <g stroke-linecap="round" transform="translate(190.42861938476506 10) rotate(0 301.60517374674447 217.0254770914712)"><path d="M1.52 1.91 L602.01 0.5 L602.52 435.62 L1.4 434.37" stroke="none" stroke-width="0" fill="#ffd8a8"></path><path d="M0 0 C210.37 -0.61, 419.61 -0.8, 603.21 0 M603.21 0 C603.58 97.83, 604.63 196.57, 603.21 434.05 M603.21 434.05 C419.12 435.16, 235.48 435.38, 0 434.05 M0 434.05 C2.14 345.06, 1.78 253.32, 0 0" stroke="#1e1e1e" stroke-width="2.5" fill="none" stroke-dasharray="8 10"></path></g><g stroke-linecap="round" transform="translate(253.14509073893157 70.40596008300784) rotate(0 226.58274332682294 153.87405395507812)"><path d="M0.69 0.22 L454.29 -0.82 L452.91 307.64 L-1.43 309.73" stroke="none" stroke-width="0" fill="#fff9db"></path><path d="M0 0 C125.55 0.86, 252.38 1.43, 453.17 0 M0 0 C175.09 0.27, 349.94 0.27, 453.17 0 M453.17 0 C454.07 79.82, 453.36 160.81, 453.17 307.75 M453.17 0 C450.69 83.08, 451.72 167.22, 453.17 307.75 M453.17 307.75 C348.9 306.83, 244.86 307.49, 0 307.75 M453.17 307.75 C311.04 308.88, 169.18 308.8, 0 307.75 M0 307.75 C0.87 227.26, -0.24 148.03, 0 0 M0 307.75 C-1.09 222.26, -1.75 136.12, 0 0" stroke="#1e1e1e" stroke-width="2" fill="none"></path></g><g stroke-linecap="round" transform="translate(321.08352661132847 133.49797566731777) rotate(0 160.5987040201822 92.69696553548181)"><path d="M-0.9 0.88 L319.98 -1.84 L321.06 186.57 L-0.87 186.46" stroke="none" stroke-width="0" fill="#ebfbee"></path><path d="M0 0 C99.52 1.87, 202.28 2.57, 321.2 0 M321.2 0 C322.96 65.21, 324.49 130.53, 321.2 185.39 M321.2 185.39 C209.77 188.37, 96.63 186.51, 0 185.39 M0 185.39 C0.55 119.35, 0.31 55.31, 0 0" stroke="#1e1e1e" stroke-width="2.5" fill="none" stroke-dasharray="8 10"></path></g><g stroke-linecap="round" transform="translate(385.692596435547 181.9265238444009) rotate(0 96.10707600911462 44.92001851399739)"><path d="M0.64 -1.41 L192.69 1.62 L192.49 90.87 L-1.4 88.97" stroke="none" stroke-width="0" fill="#a5d8ff"></path><path d="M0 0 C42.22 -1.57, 84.86 -1.89, 192.21 0 M0 0 C49.2 1.67, 98.33 1.14, 192.21 0 M192.21 0 C192.61 19.55, 194.08 35.62, 192.21 89.84 M192.21 0 C193.81 26.23, 192.16 51.83, 192.21 89.84 M192.21 89.84 C151.15 89.02, 110.4 87.75, 0 89.84 M192.21 89.84 C151.42 88.13, 112.33 88.02, 0 89.84 M0 89.84 C-0.16 68.64, -1.33 41.82, 0 0 M0 89.84 C0.68 72.14, 1.57 51.97, 0 0" stroke="#1e1e1e" stroke-width="2" fill="none"></path></g><g transform="translate(222.26404825846328 26.81961059570321) rotate(0 29.16997528076172 12.5)"><text x="0" y="0" font-family="Virgil, Segoe UI Emoji" font-size="20px" fill="#1e1e1e" text-anchor="start" style="white-space: pre;" direction="ltr" dominant-baseline="text-before-edge">margin</text></g><g transform="translate(277.14594523111975 89.49742635091152) rotate(0 30.379966735839844 12.5)"><text x="0" y="0" font-family="Virgil, Segoe UI Emoji" font-size="20px" fill="#1e1e1e" text-anchor="start" style="white-space: pre;" direction="ltr" dominant-baseline="text-before-edge">border</text></g><g transform="translate(338.89378865559877 145.64193725585923) rotate(0 34.84996795654297 12.5)"><text x="0" y="0" font-family="Virgil, Segoe UI Emoji" font-size="20px" fill="#1e1e1e" text-anchor="start" style="white-space: pre;" direction="ltr" dominant-baseline="text-before-edge">padding</text></g><g transform="translate(444.43394978841127 211.41057332356777) rotate(0 36.66996765136719 12.5)"><text x="0" y="0" font-family="Virgil, Segoe UI Emoji" font-size="20px" fill="#1e1e1e" text-anchor="start" style="white-space: pre;" direction="ltr" dominant-baseline="text-before-edge">content</text></g><g stroke-linecap="round"><g transform="translate(321.3175964355469 317.42024739583314) rotate(0 1.2287394205728788 131.7459869384765)"><path d="M0 0 C0.05 92.22, -0.97 184.24, 2.46 263.49" stroke="#1e1e1e" stroke-width="2.5" fill="none" stroke-dasharray="8 10"></path></g></g><mask></mask><g stroke-linecap="round"><g transform="translate(644.6800231933591 320.32989501953125) rotate(0 2.61444091796875 122.22201029459637)"><path d="M0 0 C0.69 56.87, 0.69 112.52, 5.23 244.44" stroke="#1e1e1e" stroke-width="2.5" fill="none" stroke-dasharray="8 10"></path></g></g><mask></mask><g stroke-linecap="round"><g transform="translate(525.7133589797102 534.8090785870368) rotate(0 60.6274869733611 -2.023756212463752)"><path d="M0 0 C40.97 -0.77, 79.85 -2.88, 121.25 -4.05 M0 0 C26.46 -0.96, 52.34 -0.56, 121.25 -4.05" stroke="#1e1e1e" stroke-width="2" fill="none"></path></g><g transform="translate(525.7133589797102 534.8090785870368) rotate(0 60.6274869733611 -2.023756212463752)"><path d="M98.15 5.51 C106.61 3.36, 113.01 -0.58, 121.25 -4.05 M98.15 5.51 C103.48 2.72, 108.2 1.94, 121.25 -4.05" stroke="#1e1e1e" stroke-width="2" fill="none"></path></g><g transform="translate(525.7133589797102 534.8090785870368) rotate(0 60.6274869733611 -2.023756212463752)"><path d="M97.42 -11.58 C106.22 -8.07, 112.86 -6.36, 121.25 -4.05 M97.42 -11.58 C102.82 -10.67, 107.7 -7.78, 121.25 -4.05" stroke="#1e1e1e" stroke-width="2" fill="none"></path></g></g><mask></mask><g stroke-linecap="round"><g transform="translate(435.46585083007824 533.9783223470051) rotate(0 -55.81085205078131 -1.5238444010416856)"><path d="M0 0 C-33.59 -1.26, -64.49 -2.75, -111.62 -3.05 M0 0 C-32.17 -0.95, -66.28 -1.91, -111.62 -3.05" stroke="#1e1e1e" stroke-width="2" fill="none"></path></g><g transform="translate(435.46585083007824 533.9783223470051) rotate(0 -55.81085205078131 -1.5238444010416856)"><path d="M-87.92 -10.99 C-96.35 -8.58, -102.13 -6.92, -111.62 -3.05 M-87.92 -10.99 C-94.05 -9.23, -102.09 -6.92, -111.62 -3.05" stroke="#1e1e1e" stroke-width="2" fill="none"></path></g><g transform="translate(435.46585083007824 533.9783223470051) rotate(0 -55.81085205078131 -1.5238444010416856)"><path d="M-88.36 6.11 C-96.74 3.64, -102.39 0.41, -111.62 -3.05 M-88.36 6.11 C-94.28 2.79, -102.19 0.02, -111.62 -3.05" stroke="#1e1e1e" stroke-width="2" fill="none"></path></g></g><mask></mask><g transform="translate(453.18669637044275 517.846934000651) rotate(0 24.559974670410156 12.5)"><text x="0" y="0" font-family="Virgil, Segoe UI Emoji" font-size="20px" fill="#1e1e1e" text-anchor="start" style="white-space: pre;" direction="ltr" dominant-baseline="text-before-edge">width</text></g><g stroke-linecap="round"><g transform="translate(326.40141805013013 135.01607259114576) rotate(0 -154.0325419108072 -0.7619222005208428)"><path d="M0 0 C-101.67 -3.16, -200.61 -2.47, -308.07 -1.52" stroke="#1e1e1e" stroke-width="2.5" fill="none" stroke-dasharray="8 10"></path></g></g><mask></mask><g stroke-linecap="round"><g transform="translate(324.2070007324219 322.7631632486979) rotate(0 -157.10350036621094 -1.2287648518880587)"><path d="M0 0 C-62.69 -1.26, -125.37 -1.93, -314.21 -2.46" stroke="#1e1e1e" stroke-width="2.5" fill="none" stroke-dasharray="8 10"></path></g></g><mask></mask><g stroke-linecap="round"><g transform="translate(87.44618733723962 205.92402140299473) rotate(0 0.7619222005208144 -35.238901774088546)"><path d="M0 0 C-0.72 -21.89, 1.16 -47.06, 1.52 -70.48 M0 0 C0.14 -21.29, 1.22 -43.28, 1.52 -70.48" stroke="#1e1e1e" stroke-width="2" fill="none"></path></g><g transform="translate(87.44618733723962 205.92402140299473) rotate(0 0.7619222005208144 -35.238901774088546)"><path d="M9.63 -46.83 C6.05 -53.18, 4.72 -62.75, 1.52 -70.48 M9.63 -46.83 C6.5 -53.55, 4.59 -61.02, 1.52 -70.48" stroke="#1e1e1e" stroke-width="2" fill="none"></path></g><g transform="translate(87.44618733723962 205.92402140299473) rotate(0 0.7619222005208144 -35.238901774088546)"><path d="M-7.47 -47.15 C-5.35 -53.3, -0.99 -62.76, 1.52 -70.48 M-7.47 -47.15 C-5.3 -53.86, -1.91 -61.23, 1.52 -70.48" stroke="#1e1e1e" stroke-width="2" fill="none"></path></g></g><mask></mask><g stroke-linecap="round"><g transform="translate(88.80986531575525 256.43280029296864) rotate(0 -0.7619222005208712 30.857849121093807)"><path d="M0 0 C-0.06 11.42, 1.38 28.31, -1.52 61.72 M0 0 C-0.73 21.85, -1.11 42.38, -1.52 61.72" stroke="#1e1e1e" stroke-width="2" fill="none"></path></g><g transform="translate(88.80986531575525 256.43280029296864) rotate(0 -0.7619222005208712 30.857849121093807)"><path d="M-9.58 38.05 C-7.94 41.37, -4.43 50.06, -1.52 61.72 M-9.58 38.05 C-7.05 46.94, -4.16 54.45, -1.52 61.72" stroke="#1e1e1e" stroke-width="2" fill="none"></path></g><g transform="translate(88.80986531575525 256.43280029296864) rotate(0 -0.7619222005208712 30.857849121093807)"><path d="M7.52 38.41 C5.47 41.49, 5.3 50.1, -1.52 61.72 M7.52 38.41 C4.2 47.08, 1.25 54.47, -1.52 61.72" stroke="#1e1e1e" stroke-width="2" fill="none"></path></g></g><mask></mask><g transform="translate(65.75810750325525 220.56147257486978) rotate(0 28.199966430664062 12.5)"><text x="0" y="0" font-family="Virgil, Segoe UI Emoji" font-size="20px" fill="#1e1e1e" text-anchor="start" style="white-space: pre;" direction="ltr" dominant-baseline="text-before-edge">height</text></g></svg>