<svg version="1.1" xmlns="http://www.w3.org/2000/svg" viewBox="0 0 666.2995834350586 382.7807312011719" width="666.2995834350586" height="382.7807312011719">
  <!-- svg-source:excalidraw -->
  
  <defs>
    <style class="style-fonts">
      @font-face {
        font-family: "Virgil";
        src: url("https://excalidraw.com/Virgil.woff2");
      }
      @font-face {
        font-family: "Cascadia";
        src: url("https://excalidraw.com/Cascadia.woff2");
      }
      @font-face {
        font-family: "Assistant";
        src: url("https://excalidraw.com/Assistant-Regular.woff2");
      }
    </style>
    
  </defs>
  <g stroke-linecap="round" transform="translate(10.445564270019645 10.150619506835938) rotate(0 50.42909240722656 25.432022094726562)"><path d="M0 0 L100.86 0 L100.86 50.86 L0 50.86" stroke="none" stroke-width="0" fill="#ffd43b"></path><path d="M0 0 C31.15 0, 62.3 0, 100.86 0 M0 0 C20.44 0, 40.88 0, 100.86 0 M100.86 0 C100.86 16.54, 100.86 33.08, 100.86 50.86 M100.86 0 C100.86 13.1, 100.86 26.2, 100.86 50.86 M100.86 50.86 C77.89 50.86, 54.91 50.86, 0 50.86 M100.86 50.86 C60.67 50.86, 20.47 50.86, 0 50.86 M0 50.86 C0 31.62, 0 12.38, 0 0 M0 50.86 C0 39.87, 0 28.87, 0 0" stroke="#1e1e1e" stroke-width="2" fill="none"></path></g><g transform="translate(32.74965667724621 25.982641601562477) rotate(0 28.125 9.599999999999994)"><text x="28.125" y="0" font-family="Cascadia, Segoe UI Emoji" font-size="16px" fill="#1e1e1e" text-anchor="middle" style="white-space: pre;" direction="ltr" dominant-baseline="text-before-edge">String</text></g><g stroke-linecap="round" transform="translate(189.08141326904308 10.14288330078125) rotate(0 50.42909240722656 25.432022094726562)"><path d="M0 0 L100.86 0 L100.86 50.86 L0 50.86" stroke="none" stroke-width="0" fill="#ffd43b"></path><path d="M0 0 C21.07 0, 42.14 0, 100.86 0 M0 0 C23.05 0, 46.09 0, 100.86 0 M100.86 0 C100.86 13.47, 100.86 26.94, 100.86 50.86 M100.86 0 C100.86 18.09, 100.86 36.18, 100.86 50.86 M100.86 50.86 C64.8 50.86, 28.75 50.86, 0 50.86 M100.86 50.86 C63.37 50.86, 25.88 50.86, 0 50.86 M0 50.86 C0 31.6, 0 12.34, 0 0 M0 50.86 C0 38.68, 0 26.49, 0 0" stroke="#1e1e1e" stroke-width="2" fill="none"></path></g><g transform="translate(211.38550567626964 25.97490539550779) rotate(0 28.125 9.599999999999994)"><text x="28.125" y="0" font-family="Cascadia, Segoe UI Emoji" font-size="16px" fill="#1e1e1e" text-anchor="middle" style="white-space: pre;" direction="ltr" dominant-baseline="text-before-edge">Number</text></g><g stroke-linecap="round" transform="translate(363.33922576904297 10.2000732421875) rotate(0 50.42909240722656 25.432022094726562)"><path d="M0 0 L100.86 0 L100.86 50.86 L0 50.86" stroke="none" stroke-width="0" fill="#ffd43b"></path><path d="M0 0 C27.86 0, 55.73 0, 100.86 0 M0 0 C39.64 0, 79.27 0, 100.86 0 M100.86 0 C100.86 15.77, 100.86 31.54, 100.86 50.86 M100.86 0 C100.86 18.56, 100.86 37.12, 100.86 50.86 M100.86 50.86 C71.28 50.86, 41.71 50.86, 0 50.86 M100.86 50.86 C65.99 50.86, 31.13 50.86, 0 50.86 M0 50.86 C0 31.51, 0 12.16, 0 0 M0 50.86 C0 34.12, 0 17.37, 0 0" stroke="#1e1e1e" stroke-width="2" fill="none"></path></g><g transform="translate(385.64331817626953 26.03209533691404) rotate(0 28.125 9.599999999999994)"><text x="28.125" y="0" font-family="Cascadia, Segoe UI Emoji" font-size="16px" fill="#1e1e1e" text-anchor="middle" style="white-space: pre;" direction="ltr" dominant-baseline="text-before-edge">Object</text></g><g stroke-linecap="round" transform="translate(555.4413986206055 10) rotate(0 50.42909240722656 25.432022094726562)"><path d="M0 0 L100.86 0 L100.86 50.86 L0 50.86" stroke="none" stroke-width="0" fill="#ffd43b"></path><path d="M0 0 C23.38 0, 46.76 0, 100.86 0 M0 0 C39.43 0, 78.87 0, 100.86 0 M100.86 0 C100.86 11.27, 100.86 22.54, 100.86 50.86 M100.86 0 C100.86 17.44, 100.86 34.88, 100.86 50.86 M100.86 50.86 C77.23 50.86, 53.6 50.86, 0 50.86 M100.86 50.86 C71.85 50.86, 42.83 50.86, 0 50.86 M0 50.86 C0 38.78, 0 26.7, 0 0 M0 50.86 C0 35.6, 0 20.33, 0 0" stroke="#1e1e1e" stroke-width="2" fill="none"></path></g><g transform="translate(582.432991027832 25.83202209472654) rotate(0 23.4375 9.599999999999994)"><text x="23.4375" y="0" font-family="Cascadia, Segoe UI Emoji" font-size="16px" fill="#1e1e1e" text-anchor="middle" style="white-space: pre;" direction="ltr" dominant-baseline="text-before-edge">Array</text></g><g stroke-linecap="round" transform="translate(10 321.8672332763672) rotate(0 50.42909240722656 25.432022094726562)"><path d="M0 0 L100.86 0 L100.86 50.86 L0 50.86" stroke="none" stroke-width="0" fill="#ffd43b"></path><path d="M0 0 C33.69 0, 67.38 0, 100.86 0 M0 0 C25.81 0, 51.62 0, 100.86 0 M100.86 0 C100.86 10.33, 100.86 20.66, 100.86 50.86 M100.86 0 C100.86 12.17, 100.86 24.34, 100.86 50.86 M100.86 50.86 C79.69 50.86, 58.52 50.86, 0 50.86 M100.86 50.86 C69.57 50.86, 38.28 50.86, 0 50.86 M0 50.86 C0 39.35, 0 27.83, 0 0 M0 50.86 C0 39.81, 0 28.77, 0 0" stroke="#1e1e1e" stroke-width="2" fill="none"></path></g><g transform="translate(32.30409240722656 337.6992553710937) rotate(0 28.125 9.600000000000001)"><text x="28.125" y="0" font-family="Cascadia, Segoe UI Emoji" font-size="16px" fill="#1e1e1e" text-anchor="middle" style="white-space: pre;" direction="ltr" dominant-baseline="text-before-edge">String</text></g><g stroke-linecap="round" transform="translate(188.63584899902344 321.8594970703125) rotate(0 50.42909240722656 25.432022094726562)"><path d="M0 0 L100.86 0 L100.86 50.86 L0 50.86" stroke="none" stroke-width="0" fill="#ffd43b"></path><path d="M0 0 C23.35 0, 46.71 0, 100.86 0 M0 0 C27.18 0, 54.35 0, 100.86 0 M100.86 0 C100.86 17.53, 100.86 35.07, 100.86 50.86 M100.86 0 C100.86 10.9, 100.86 21.79, 100.86 50.86 M100.86 50.86 C77.6 50.86, 54.34 50.86, 0 50.86 M100.86 50.86 C78.81 50.86, 56.76 50.86, 0 50.86 M0 50.86 C0 32.48, 0 14.09, 0 0 M0 50.86 C0 31.66, 0 12.45, 0 0" stroke="#1e1e1e" stroke-width="2" fill="none"></path></g><g transform="translate(210.93994140625 337.69151916503904) rotate(0 28.125 9.600000000000001)"><text x="28.125" y="0" font-family="Cascadia, Segoe UI Emoji" font-size="16px" fill="#1e1e1e" text-anchor="middle" style="white-space: pre;" direction="ltr" dominant-baseline="text-before-edge">Number</text></g><g stroke-linecap="round" transform="translate(362.89366149902344 321.91668701171875) rotate(0 50.42909240722656 25.432022094726562)"><path d="M0 0 L100.86 0 L100.86 50.86 L0 50.86" stroke="none" stroke-width="0" fill="#ffd43b"></path><path d="M0 0 C38.16 0, 76.31 0, 100.86 0 M0 0 C36.97 0, 73.93 0, 100.86 0 M100.86 0 C100.86 19.73, 100.86 39.46, 100.86 50.86 M100.86 0 C100.86 11.38, 100.86 22.76, 100.86 50.86 M100.86 50.86 C71.06 50.86, 41.25 50.86, 0 50.86 M100.86 50.86 C72.77 50.86, 44.67 50.86, 0 50.86 M0 50.86 C0 32.5, 0 14.14, 0 0 M0 50.86 C0 31.28, 0 11.69, 0 0" stroke="#1e1e1e" stroke-width="2" fill="none"></path></g><g transform="translate(385.19775390625 337.7487091064453) rotate(0 28.125 9.600000000000001)"><text x="28.125" y="0" font-family="Cascadia, Segoe UI Emoji" font-size="16px" fill="#1e1e1e" text-anchor="middle" style="white-space: pre;" direction="ltr" dominant-baseline="text-before-edge">Object</text></g><g stroke-linecap="round" transform="translate(554.9958343505859 321.71661376953125) rotate(0 50.42909240722656 25.432022094726562)"><path d="M0 0 L100.86 0 L100.86 50.86 L0 50.86" stroke="none" stroke-width="0" fill="#ffd43b"></path><path d="M0 0 C20.33 0, 40.65 0, 100.86 0 M0 0 C25.61 0, 51.22 0, 100.86 0 M100.86 0 C100.86 12.62, 100.86 25.24, 100.86 50.86 M100.86 0 C100.86 13.93, 100.86 27.86, 100.86 50.86 M100.86 50.86 C77.33 50.86, 53.81 50.86, 0 50.86 M100.86 50.86 C63.52 50.86, 26.18 50.86, 0 50.86 M0 50.86 C0 30.93, 0 10.99, 0 0 M0 50.86 C0 32.1, 0 13.33, 0 0" stroke="#1e1e1e" stroke-width="2" fill="none"></path></g><g transform="translate(581.9874267578125 337.5486358642578) rotate(0 23.4375 9.600000000000001)"><text x="23.4375" y="0" font-family="Cascadia, Segoe UI Emoji" font-size="16px" fill="#1e1e1e" text-anchor="middle" style="white-space: pre;" direction="ltr" dominant-baseline="text-before-edge">Array</text></g><g mask="url(#mask-M4bPiN_r8KJVKMlEur4Bj)" stroke-linecap="round"><g transform="translate(60.52610015869152 71.70088195800781) rotate(0 0.0829010009765625 121.87957763671875)"><path d="M0 0 C0.04 52.04, 0.07 104.07, 0.17 243.76 M0 0 C0.05 79.89, 0.11 159.79, 0.17 243.76" stroke="#1e1e1e" stroke-width="2" fill="none"></path></g><g transform="translate(60.52610015869152 71.70088195800781) rotate(0 0.0829010009765625 121.87957763671875)"><path d="M-8.4 220.27 C-6.57 225.29, -4.74 230.3, 0.17 243.76 M-8.4 220.27 C-5.59 227.97, -2.79 235.67, 0.17 243.76" stroke="#1e1e1e" stroke-width="2" fill="none"></path></g><g transform="translate(60.52610015869152 71.70088195800781) rotate(0 0.0829010009765625 121.87957763671875)"><path d="M8.7 220.26 C6.88 225.28, 5.06 230.29, 0.17 243.76 M8.7 220.26 C5.9 227.96, 3.11 235.66, 0.17 243.76" stroke="#1e1e1e" stroke-width="2" fill="none"></path></g></g><mask id="mask-M4bPiN_r8KJVKMlEur4Bj"><rect x="0" y="0" fill="#fff" width="160.69190216064464" height="415.4600372314453"></rect><rect x="36.60900115966808" y="183.98045959472654" fill="#000" width="48" height="19.2" opacity="1"></rect></mask><g transform="translate(36.60900115966808 183.98045959472654) rotate(0 24 9.600000000000023)"><text x="24" y="0" font-family="Cascadia, Segoe UI Emoji" font-size="16px" fill="#1e1e1e" text-anchor="middle" style="white-space: pre;" direction="ltr" dominant-baseline="text-before-edge">浅拷贝</text></g><g mask="url(#mask-ajStSmIDop6UyvZuf6FVm)" stroke-linecap="round"><g transform="translate(241.77019500732433 75.86653137207031) rotate(0 0.0829010009765625 121.87957763671875)"><path d="M0 0 C0.05 71.3, 0.1 142.6, 0.17 243.76 M0 0 C0.05 80.55, 0.11 161.1, 0.17 243.76" stroke="#1e1e1e" stroke-width="2" fill="none"></path></g><g transform="translate(241.77019500732433 75.86653137207031) rotate(0 0.0829010009765625 121.87957763671875)"><path d="M-8.4 220.27 C-5.9 227.14, -3.39 234.01, 0.17 243.76 M-8.4 220.27 C-5.57 228.03, -2.74 235.79, 0.17 243.76" stroke="#1e1e1e" stroke-width="2" fill="none"></path></g><g transform="translate(241.77019500732433 75.86653137207031) rotate(0 0.0829010009765625 121.87957763671875)"><path d="M8.7 220.26 C6.2 227.13, 3.71 234.01, 0.17 243.76 M8.7 220.26 C5.88 228.03, 3.06 235.79, 0.17 243.76" stroke="#1e1e1e" stroke-width="2" fill="none"></path></g></g><mask id="mask-ajStSmIDop6UyvZuf6FVm"><rect x="0" y="0" fill="#fff" width="341.93599700927746" height="419.6256866455078"></rect><rect x="217.8530960083009" y="188.14610900878904" fill="#000" width="48" height="19.2" opacity="1"></rect></mask><g transform="translate(217.8530960083009 188.14610900878904) rotate(0 24 9.600000000000023)"><text x="24" y="0" font-family="Cascadia, Segoe UI Emoji" font-size="16px" fill="#1e1e1e" text-anchor="middle" style="white-space: pre;" direction="ltr" dominant-baseline="text-before-edge">浅拷贝</text></g><g stroke-linecap="round"><g transform="translate(416.1998977661133 64.47013854980469) rotate(0 0.68572998046875 49.60118103027344)"><path d="M0 0 C0.52 37.28, 1.03 74.55, 1.37 99.2 M0 0 C0.52 37.7, 1.04 75.39, 1.37 99.2" stroke="#1e1e1e" stroke-width="2" fill="none"></path></g><g transform="translate(416.1998977661133 64.47013854980469) rotate(0 0.68572998046875 49.60118103027344)"><path d="M-7.5 75.83 C-4.17 84.61, -0.83 93.4, 1.37 99.2 M-7.5 75.83 C-4.13 84.71, -0.76 93.59, 1.37 99.2" stroke="#1e1e1e" stroke-width="2" fill="none"></path></g><g transform="translate(416.1998977661133 64.47013854980469) rotate(0 0.68572998046875 49.60118103027344)"><path d="M9.6 75.59 C6.51 84.47, 3.42 93.34, 1.37 99.2 M9.6 75.59 C6.47 84.57, 3.35 93.54, 1.37 99.2" stroke="#1e1e1e" stroke-width="2" fill="none"></path></g></g><mask></mask><g stroke-linecap="round" transform="translate(366.54029083251953 164.90379333496094) rotate(0 44.781005859375 32.946502685546875)"><path d="M0 0 L89.56 0 L89.56 65.89 L0 65.89" stroke="none" stroke-width="0" fill="#4dabf7"></path><path d="M0 0 C23.76 0, 47.52 0, 89.56 0 M0 0 C27.14 0, 54.28 0, 89.56 0 M89.56 0 C89.56 23.93, 89.56 47.86, 89.56 65.89 M89.56 0 C89.56 17.92, 89.56 35.84, 89.56 65.89 M89.56 65.89 C70.98 65.89, 52.4 65.89, 0 65.89 M89.56 65.89 C68.38 65.89, 47.21 65.89, 0 65.89 M0 65.89 C0 47.13, 0 28.37, 0 0 M0 65.89 C0 47.94, 0 29.98, 0 0" stroke="#1e1e1e" stroke-width="2" fill="none"></path></g><g transform="translate(379.32129669189453 188.2502960205078) rotate(0 32 9.599999999999994)"><text x="32" y="0" font-family="Cascadia, Segoe UI Emoji" font-size="16px" fill="#1e1e1e" text-anchor="middle" style="white-space: pre;" direction="ltr" dominant-baseline="text-before-edge">内存地址</text></g><g stroke-linecap="round"><g transform="translate(416.35999298095703 319.5906524658203) rotate(0 -0.342864990234375 -45.029632568359375)"><path d="M0 0 C-0.23 -30.12, -0.46 -60.24, -0.69 -90.06 M0 0 C-0.25 -32.89, -0.5 -65.77, -0.69 -90.06" stroke="#1e1e1e" stroke-width="2" fill="none"></path></g><g transform="translate(416.35999298095703 319.5906524658203) rotate(0 -0.342864990234375 -45.029632568359375)"><path d="M8.04 -66.63 C5.12 -74.47, 2.2 -82.3, -0.69 -90.06 M8.04 -66.63 C4.86 -75.19, 1.67 -83.74, -0.69 -90.06" stroke="#1e1e1e" stroke-width="2" fill="none"></path></g><g transform="translate(416.35999298095703 319.5906524658203) rotate(0 -0.342864990234375 -45.029632568359375)"><path d="M-9.06 -66.5 C-6.26 -74.38, -3.46 -82.26, -0.69 -90.06 M-9.06 -66.5 C-6 -75.1, -2.94 -83.71, -0.69 -90.06" stroke="#1e1e1e" stroke-width="2" fill="none"></path></g></g><mask></mask><g stroke-linecap="round" transform="translate(564.4428176879883 163.7996063232422) rotate(0 44.781005859375 32.946502685546875)"><path d="M0 0 L89.56 0 L89.56 65.89 L0 65.89" stroke="none" stroke-width="0" fill="#4dabf7"></path><path d="M0 0 C32.08 0, 64.17 0, 89.56 0 M0 0 C22.21 0, 44.42 0, 89.56 0 M89.56 0 C89.56 24.8, 89.56 49.59, 89.56 65.89 M89.56 0 C89.56 18.86, 89.56 37.72, 89.56 65.89 M89.56 65.89 C60.45 65.89, 31.33 65.89, 0 65.89 M89.56 65.89 C53.97 65.89, 18.38 65.89, 0 65.89 M0 65.89 C0 45.22, 0 24.55, 0 0 M0 65.89 C0 49.94, 0 33.99, 0 0" stroke="#1e1e1e" stroke-width="2" fill="none"></path></g><g transform="translate(577.2238235473633 187.14610900878904) rotate(0 32 9.599999999999994)"><text x="32" y="0" font-family="Cascadia, Segoe UI Emoji" font-size="16px" fill="#1e1e1e" text-anchor="middle" style="white-space: pre;" direction="ltr" dominant-baseline="text-before-edge">内存地址</text></g><g stroke-linecap="round"><g transform="translate(608.8843460083008 61.64848327636719) rotate(0 0.342864990234375 51.67179870605469)"><path d="M0 0 C0.23 35.33, 0.47 70.66, 0.69 103.34 M0 0 C0.27 40.28, 0.53 80.55, 0.69 103.34" stroke="#1e1e1e" stroke-width="2" fill="none"></path></g><g transform="translate(608.8843460083008 61.64848327636719) rotate(0 0.342864990234375 51.67179870605469)"><path d="M-8.02 79.91 C-5.04 87.92, -2.07 95.93, 0.69 103.34 M-8.02 79.91 C-4.63 89.04, -1.23 98.18, 0.69 103.34" stroke="#1e1e1e" stroke-width="2" fill="none"></path></g><g transform="translate(608.8843460083008 61.64848327636719) rotate(0 0.342864990234375 51.67179870605469)"><path d="M9.08 79.8 C6.21 87.85, 3.34 95.9, 0.69 103.34 M9.08 79.8 C5.81 88.97, 2.54 98.15, 0.69 103.34" stroke="#1e1e1e" stroke-width="2" fill="none"></path></g></g><mask></mask><g stroke-linecap="round"><g transform="translate(611.8452224731445 320.5146026611328) rotate(0 -0.4571533203125 -45.944183349609375)"><path d="M0 0 C-0.36 -35.69, -0.71 -71.38, -0.91 -91.89 M0 0 C-0.21 -21.49, -0.43 -42.98, -0.91 -91.89" stroke="#1e1e1e" stroke-width="2" fill="none"></path></g><g transform="translate(611.8452224731445 320.5146026611328) rotate(0 -0.4571533203125 -45.944183349609375)"><path d="M7.87 -68.48 C4.46 -77.57, 1.05 -86.67, -0.91 -91.89 M7.87 -68.48 C5.82 -73.96, 3.76 -79.43, -0.91 -91.89" stroke="#1e1e1e" stroke-width="2" fill="none"></path></g><g transform="translate(611.8452224731445 320.5146026611328) rotate(0 -0.4571533203125 -45.944183349609375)"><path d="M-9.23 -68.31 C-6 -77.47, -2.77 -86.63, -0.91 -91.89 M-9.23 -68.31 C-7.29 -73.83, -5.34 -79.34, -0.91 -91.89" stroke="#1e1e1e" stroke-width="2" fill="none"></path></g></g><mask></mask></svg>