<svg version="1.1" xmlns="http://www.w3.org/2000/svg" viewBox="0 0 1222.743408203125 520.3377421080606" width="1222.743408203125" height="520.3377421080606">
  <!-- svg-source:excalidraw -->
  
  <defs>
    <style class="style-fonts">
      @font-face {
        font-family: "Virgil";
        src: url("https://excalidraw.com/Virgil.woff2");
      }
      @font-face {
        font-family: "Cascadia";
        src: url("https://excalidraw.com/Cascadia.woff2");
      }
      @font-face {
        font-family: "Assistant";
        src: url("https://excalidraw.com/Assistant-Regular.woff2");
      }
    </style>
    
  </defs>
  <g stroke-linecap="round" transform="translate(10 225.52151489257812) rotate(0 45.99180603027344 21.224777221679688)"><path d="M0 0 L91.98 0 L91.98 42.45 L0 42.45" stroke="none" stroke-width="0" fill="#fd7e14"></path><path d="M0 0 C29.5 0, 59.01 0, 91.98 0 M0 0 C20.83 0, 41.65 0, 91.98 0 M91.98 0 C91.98 9.44, 91.98 18.87, 91.98 42.45 M91.98 0 C91.98 11.09, 91.98 22.17, 91.98 42.45 M91.98 42.45 C56.95 42.45, 21.92 42.45, 0 42.45 M91.98 42.45 C67.84 42.45, 43.7 42.45, 0 42.45 M0 42.45 C0 31.11, 0 19.77, 0 0 M0 42.45 C0 28.6, 0 14.75, 0 0" stroke="transparent" stroke-width="2" fill="none"></path></g><g transform="translate(35.99180603027344 234.7462921142578) rotate(0 20 12)"><text x="20" y="0" font-family="Cascadia, Segoe UI Emoji" font-size="20px" fill="#ffffff" text-anchor="middle" style="white-space: pre;" direction="ltr" dominant-baseline="text-before-edge">继承</text></g><g stroke-linecap="round" transform="translate(190.23513793945312 51.825164794921875) rotate(0 121.6980590820312 23.720489501953125)"><path d="M0 0 L243.4 0 L243.4 47.44 L0 47.44" stroke="none" stroke-width="0" fill="#a5d8ff"></path><path d="M0 0 C68.42 0, 136.85 0, 243.4 0 M0 0 C58.93 0, 117.85 0, 243.4 0 M243.4 0 C243.4 11.12, 243.4 22.25, 243.4 47.44 M243.4 0 C243.4 16.03, 243.4 32.05, 243.4 47.44 M243.4 47.44 C191.2 47.44, 139.01 47.44, 0 47.44 M243.4 47.44 C149.03 47.44, 54.65 47.44, 0 47.44 M0 47.44 C0 37.5, 0 27.56, 0 0 M0 47.44 C0 37.33, 0 27.21, 0 0" stroke="#ffffff" stroke-width="2" fill="none"></path></g><g transform="translate(205.76132202148426 63.545654296875) rotate(0 106.171875 12)"><text x="106.171875" y="0" font-family="Cascadia, Segoe UI Emoji" font-size="20px" fill="#ffffff" text-anchor="middle" style="white-space: pre;" direction="ltr" dominant-baseline="text-before-edge">不使用Object.create</text></g><g transform="translate(651.3688659667968 92.628173828125) rotate(0 -1.14666748046875 175.82180786132812)" stroke="none"><path fill="#ffffff" d="M 1.58,5.06 Q 1.58,5.06 -0.50,5.76 -2.59,6.46 -5.17,7.91 -7.75,9.37 -9.79,11.28 -11.83,13.19 -13.09,15.58 -14.36,17.96 -13.35,20.50 -12.34,23.04 -11.51,25.58 -10.69,28.12 -10.04,30.26 -9.40,32.39 -8.82,34.49 -8.24,36.60 -7.55,39.11 -6.86,41.63 -6.23,44.41 -5.59,47.20 -5.30,50.12 -5.00,53.03 -4.74,55.36 -4.47,57.69 -4.38,60.51 -4.29,63.34 -4.22,66.34 -4.14,69.34 -4.19,72.95 -4.24,76.57 -4.27,79.92 -4.30,83.28 -4.27,86.53 -4.24,89.79 -4.06,93.33 -3.87,96.87 -3.66,99.52 -3.45,102.17 -3.14,104.68 -2.82,107.18 -2.38,109.82 -1.95,112.45 -1.51,115.09 -1.08,117.73 -0.72,120.37 -0.37,123.01 -0.19,125.83 -0.01,128.65 0.21,131.10 0.43,133.56 0.23,135.79 0.04,138.02 -0.49,140.73 -1.02,143.45 -2.05,146.18 -3.08,148.91 -5.00,152.11 -6.93,155.31 -9.41,157.69 -11.89,160.07 -14.68,161.52 -17.46,162.98 -21.23,163.49 -24.99,164.00 -28.99,163.61 -32.98,163.23 -35.62,162.77 -38.27,162.32 -39.33,162.10 -40.40,161.87 -41.21,161.61 -42.01,161.34 -42.72,160.90 -43.44,160.45 -44.03,159.84 -44.61,159.23 -45.04,158.50 -45.46,157.77 -45.70,156.96 -45.94,156.15 -45.98,155.31 -46.01,154.46 -45.85,153.63 -45.68,152.80 -45.32,152.04 -44.96,151.28 -44.43,150.62 -43.90,149.96 -43.22,149.45 -42.55,148.94 -41.77,148.61 -41.00,148.27 -40.16,148.14 -39.33,148.00 -38.49,148.06 -37.65,148.13 -35.40,148.40 -33.15,148.68 -30.86,149.23 -28.57,149.78 -25.74,150.72 -22.90,151.66 -20.52,152.89 -18.15,154.12 -16.06,155.98 -13.96,157.84 -12.75,159.71 -11.53,161.58 -11.12,163.84 -10.72,166.09 -11.11,168.77 -11.49,171.45 -12.53,173.85 -13.56,176.24 -14.20,178.66 -14.85,181.09 -14.57,186.43 -14.29,191.78 -13.87,194.66 -13.45,197.53 -12.39,203.88 -11.32,210.22 -10.76,213.90 -10.20,217.58 -9.35,222.43 -8.50,227.27 -8.21,230.59 -7.93,233.92 -7.52,236.22 -7.12,238.53 -6.72,241.48 -6.32,244.42 -6.10,247.30 -5.89,250.17 -5.78,252.85 -5.67,255.53 -5.69,258.70 -5.71,261.87 -5.80,265.04 -5.89,268.21 -5.91,271.01 -5.92,273.80 -5.86,276.04 -5.80,278.27 -5.17,282.57 -4.55,286.86 -3.40,293.97 -2.24,301.07 -1.44,304.42 -0.64,307.77 0.23,309.78 1.10,311.79 2.69,315.07 4.27,318.34 5.52,321.05 6.78,323.75 8.09,325.89 9.41,328.03 11.01,330.22 12.61,332.41 14.28,334.30 15.96,336.18 17.84,338.04 19.73,339.90 21.38,341.39 23.03,342.88 25.05,344.22 27.06,345.57 28.69,343.79 30.31,342.00 30.09,339.33 29.88,336.66 29.74,334.39 29.60,332.13 29.68,331.07 29.75,330.02 30.16,329.05 30.57,328.07 31.26,327.28 31.96,326.48 32.87,325.95 33.78,325.42 34.82,325.21 35.85,325.00 36.90,325.13 37.95,325.26 38.90,325.72 39.85,326.18 40.61,326.92 41.36,327.66 41.84,328.60 42.32,329.54 42.47,330.58 42.63,331.63 42.44,332.67 42.25,333.71 41.74,334.63 41.23,335.56 40.46,336.27 39.68,336.98 38.71,337.41 37.75,337.84 36.70,337.94 35.64,338.03 34.62,337.79 33.59,337.55 32.69,336.99 31.80,336.43 31.13,335.61 30.46,334.80 30.08,333.81 29.71,332.82 29.67,331.77 29.63,330.71 29.93,329.70 30.23,328.69 30.83,327.82 31.44,326.96 32.29,326.33 33.14,325.71 34.15,325.39 35.15,325.07 36.21,325.09 37.26,325.10 38.26,325.46 39.25,325.81 40.08,326.46 40.91,327.11 41.49,328.00 42.07,328.88 42.33,329.90 42.60,330.92 42.60,330.92 42.60,330.92 42.71,333.73 42.82,336.55 42.85,339.51 42.87,342.48 41.71,345.60 40.55,348.72 38.59,351.36 36.64,354.00 32.83,355.52 29.03,357.03 24.97,355.80 20.91,354.57 18.44,352.42 15.97,350.27 14.34,348.62 12.71,346.98 10.57,344.85 8.44,342.72 6.54,340.49 4.63,338.26 2.76,335.70 0.89,333.15 -0.62,330.58 -2.13,328.00 -3.51,325.18 -4.90,322.35 -6.22,318.70 -7.53,315.04 -8.36,312.54 -9.18,310.04 -10.21,306.50 -11.23,302.95 -13.14,295.38 -15.05,287.81 -15.19,285.67 -15.33,283.53 -15.62,280.89 -15.92,278.25 -15.84,275.99 -15.76,273.72 -15.73,270.88 -15.69,268.04 -15.68,265.01 -15.67,261.98 -15.75,258.90 -15.84,255.83 -15.88,253.33 -15.92,250.84 -16.06,248.34 -16.20,245.84 -16.64,242.94 -17.08,240.04 -17.40,237.51 -17.73,234.99 -18.15,231.82 -18.58,228.66 -19.19,224.07 -19.81,219.48 -20.66,216.05 -21.50,212.62 -23.43,206.27 -25.36,199.91 -26.15,196.73 -26.95,193.55 -27.77,189.85 -28.60,186.16 -28.98,182.70 -29.35,179.24 -28.59,175.63 -27.84,172.03 -26.97,169.12 -26.10,166.21 -28.34,165.11 -30.58,164.02 -33.10,163.34 -35.62,162.65 -38.01,162.26 -40.40,161.87 -41.20,161.61 -42.01,161.35 -42.72,160.90 -43.44,160.45 -44.03,159.84 -44.61,159.23 -45.04,158.50 -45.46,157.77 -45.70,156.96 -45.94,156.15 -45.98,155.31 -46.01,154.46 -45.85,153.63 -45.68,152.80 -45.32,152.04 -44.96,151.28 -44.43,150.62 -43.90,149.96 -43.22,149.45 -42.55,148.94 -41.77,148.61 -41.00,148.28 -40.16,148.14 -39.33,148.00 -38.49,148.06 -37.65,148.13 -36.87,148.35 -36.10,148.58 -33.59,149.14 -31.08,149.70 -28.44,149.97 -25.81,150.24 -23.13,149.82 -20.44,149.40 -18.62,147.62 -16.80,145.85 -15.76,143.76 -14.72,141.67 -13.97,139.17 -13.23,136.66 -13.19,133.36 -13.16,130.05 -13.75,126.16 -14.34,122.27 -14.66,119.60 -14.99,116.93 -15.46,114.34 -15.94,111.74 -16.26,109.11 -16.59,106.48 -16.87,103.48 -17.16,100.47 -17.33,97.40 -17.49,94.32 -17.77,90.49 -18.05,86.65 -18.09,83.33 -18.12,80.00 -18.19,76.48 -18.26,72.96 -18.35,69.86 -18.44,66.76 -18.59,63.07 -18.75,59.38 -19.03,57.03 -19.30,54.67 -19.71,51.45 -20.12,48.22 -20.70,45.92 -21.28,43.62 -21.86,41.19 -22.43,38.76 -23.10,36.34 -23.77,33.93 -24.32,31.77 -24.87,29.60 -25.74,26.88 -26.61,24.15 -27.21,20.72 -27.81,17.29 -27.09,15.05 -26.38,12.81 -25.08,10.62 -23.79,8.43 -22.36,6.60 -20.93,4.77 -19.08,3.08 -17.23,1.39 -14.40,-0.12 -11.58,-1.65 -8.69,-2.74 -5.81,-3.83 -3.69,-4.44 -1.58,-5.06 -0.95,-5.18 -0.32,-5.29 0.31,-5.25 0.95,-5.21 1.56,-5.02 2.17,-4.84 2.72,-4.50 3.26,-4.17 3.72,-3.72 4.17,-3.27 4.50,-2.72 4.83,-2.18 5.02,-1.57 5.21,-0.96 5.25,-0.32 5.29,0.31 5.18,0.94 5.06,1.57 4.80,2.15 4.54,2.74 4.14,3.24 3.75,3.74 3.25,4.14 2.74,4.53 2.16,4.80 1.58,5.06 1.58,5.06 L 1.58,5.06 Z"></path></g><g stroke-linecap="round" transform="translate(189.84375000000023 417.1295471191406) rotate(0 121.6980590820312 23.720489501953125)"><path d="M0 0 L243.4 0 L243.4 47.44 L0 47.44" stroke="none" stroke-width="0" fill="#a5d8ff"></path><path d="M0 0 C83.17 0, 166.34 0, 243.4 0 M0 0 C72 0, 144.01 0, 243.4 0 M243.4 0 C243.4 17.12, 243.4 34.24, 243.4 47.44 M243.4 0 C243.4 9.6, 243.4 19.2, 243.4 47.44 M243.4 47.44 C162.8 47.44, 82.2 47.44, 0 47.44 M243.4 47.44 C189.86 47.44, 136.32 47.44, 0 47.44 M0 47.44 C0 31.92, 0 16.4, 0 0 M0 47.44 C0 29.49, 0 11.55, 0 0" stroke="#ffffff" stroke-width="2" fill="none"></path></g><g transform="translate(215.36993408203136 428.85003662109375) rotate(0 96.171875 12)"><text x="96.171875" y="0" font-family="Cascadia, Segoe UI Emoji" font-size="20px" fill="#ffffff" text-anchor="middle" style="white-space: pre;" direction="ltr" dominant-baseline="text-before-edge">使用Object.create</text></g><g transform="translate(494.83541870117176 22.853073120117188) rotate(0 60 12)"><text x="0" y="0" font-family="Cascadia, Segoe UI Emoji" font-size="20px" fill="#1e1e1e" text-anchor="start" style="white-space: pre;" direction="ltr" dominant-baseline="text-before-edge">构造函数继承</text></g><g transform="translate(499.96005249023426 92.60162353515625) rotate(0 50 12)"><text x="0" y="0" font-family="Cascadia, Segoe UI Emoji" font-size="20px" fill="#1e1e1e" text-anchor="start" style="white-space: pre;" direction="ltr" dominant-baseline="text-before-edge">原型链继承</text></g><g stroke-linecap="round"><g transform="translate(626.8830261230468 10.184529572999793) rotate(0 17.194804262465823 69.00160120693579)"><path d="M0 0 C13.02 -0.07, 26.04 -0.14, 33.62 -0.18 M0 0 C10.04 -0.06, 20.07 -0.11, 33.62 -0.18 M33.62 -0.18 C33.67 16.54, 33.72 33.27, 33.82 67.07 M33.62 -0.18 C33.67 16.96, 33.72 34.11, 33.82 67.07 M33.82 67.07 C34 90.49, 34.19 113.9, 34.39 138.12 M33.82 67.07 C33.99 88.22, 34.16 109.36, 34.39 138.12 M34.39 138.12 C27.53 138.13, 20.67 138.15, 3.48 138.19 M34.39 138.12 C25.49 138.14, 16.58 138.16, 3.48 138.19" stroke="#1e1e1e" stroke-width="4" fill="none"></path></g></g><mask></mask><g stroke-linecap="round"><g transform="translate(662.1994323730468 78.45730590820312) rotate(0 14.85748291015625 0)"><path d="M0 0 C9.65 0, 19.3 0, 29.71 0 M0 0 C8 0, 15.99 0, 29.71 0" stroke="#1e1e1e" stroke-width="4" fill="none"></path></g></g><mask></mask><g stroke-linecap="round" transform="translate(691.1261291503905 52.76527404785156) rotate(0 89.34652709960938 23.740333557128906)"><path d="M0 0 L178.69 0 L178.69 47.48 L0 47.48" stroke="none" stroke-width="0" fill="#a5d8ff"></path><path d="M0 0 C48.11 0, 96.23 0, 178.69 0 M0 0 C65.86 0, 131.73 0, 178.69 0 M178.69 0 C178.69 15.18, 178.69 30.37, 178.69 47.48 M178.69 0 C178.69 11.36, 178.69 22.73, 178.69 47.48 M178.69 47.48 C135.97 47.48, 93.25 47.48, 0 47.48 M178.69 47.48 C109.37 47.48, 40.04 47.48, 0 47.48 M0 47.48 C0 29.4, 0 11.31, 0 0 M0 47.48 C0 31.96, 0 16.45, 0 0" stroke="#ffffff" stroke-width="2" fill="none"></path></g><g transform="translate(740.4726562499999 64.50560760498047) rotate(0 40 12)"><text x="40" y="0" font-family="Cascadia, Segoe UI Emoji" font-size="20px" fill="#ffffff" text-anchor="middle" style="white-space: pre;" direction="ltr" dominant-baseline="text-before-edge">组合继承</text></g><g mask="url(#mask-oBulP5g7ie3DYQmK_obDc)" stroke-linecap="round"><g transform="translate(784.2832658801002 102.67230224609375) rotate(0 0.6126038584889102 152.10556030273438)"><path d="M0 0 C0.44 109.24, 0.88 218.47, 1.23 304.21 M0 0 C0.48 119.03, 0.96 238.06, 1.23 304.21" stroke="#f08c00" stroke-width="2" fill="none"></path></g><g transform="translate(784.2832658801002 102.67230224609375) rotate(0 0.6126038584889102 152.10556030273438)"><path d="M-7.42 280.75 C-4.32 289.18, -1.21 297.6, 1.23 304.21 M-7.42 280.75 C-4.04 289.93, -0.65 299.11, 1.23 304.21" stroke="#f08c00" stroke-width="2" fill="none"></path></g><g transform="translate(784.2832658801002 102.67230224609375) rotate(0 0.6126038584889102 152.10556030273438)"><path d="M9.68 280.68 C6.64 289.13, 3.61 297.58, 1.23 304.21 M9.68 280.68 C6.37 289.89, 3.06 299.09, 1.23 304.21" stroke="#f08c00" stroke-width="2" fill="none"></path></g></g><mask id="mask-oBulP5g7ie3DYQmK_obDc"><rect x="0" y="0" fill="#fff" width="885.508473597078" height="506.8834228515625"></rect><rect x="754.8958697385892" y="242.77786254882812" fill="#000" width="60" height="24" opacity="1"></rect></mask><g transform="translate(754.8958697385892 242.77786254882812) rotate(0 30 12)"><text x="30" y="0" font-family="Cascadia, Segoe UI Emoji" font-size="20px" fill="#1e1e1e" text-anchor="middle" style="white-space: pre;" direction="ltr" dominant-baseline="text-before-edge">改造为</text></g><g stroke-linecap="round" transform="translate(695.5076904296874 414.32454681396484) rotate(0 98.03244018554688 21.228668212890625)"><path d="M0 0 L196.06 0 L196.06 42.46 L0 42.46" stroke="none" stroke-width="0" fill="#a5d8ff"></path><path d="M0 0 C40.67 0, 81.34 0, 196.06 0 M0 0 C41.43 0, 82.86 0, 196.06 0 M196.06 0 C196.06 10.15, 196.06 20.3, 196.06 42.46 M196.06 0 C196.06 10.01, 196.06 20.03, 196.06 42.46 M196.06 42.46 C122.68 42.46, 49.29 42.46, 0 42.46 M196.06 42.46 C124.9 42.46, 53.73 42.46, 0 42.46 M0 42.46 C0 28.87, 0 15.27, 0 0 M0 42.46 C0 32.93, 0 23.4, 0 0" stroke="#ffffff" stroke-width="2" fill="none"></path></g><g transform="translate(733.5401306152343 423.55321502685547) rotate(0 60 12)"><text x="60" y="0" font-family="Cascadia, Segoe UI Emoji" font-size="20px" fill="#ffffff" text-anchor="middle" style="white-space: pre;" direction="ltr" dominant-baseline="text-before-edge">寄生组合继承</text></g><g transform="translate(498.9103088378905 390.37896728515625) rotate(0 50 12)"><text x="0" y="0" font-family="Cascadia, Segoe UI Emoji" font-size="20px" fill="#1e1e1e" text-anchor="start" style="white-space: pre;" direction="ltr" dominant-baseline="text-before-edge">原型式继承</text></g><g transform="translate(497.77792358398426 457.75042724609375) rotate(0 50 12)"><text x="0" y="0" font-family="Cascadia, Segoe UI Emoji" font-size="20px" fill="#1e1e1e" text-anchor="start" style="white-space: pre;" direction="ltr" dominant-baseline="text-before-edge">寄生式继承</text></g><g stroke-linecap="round"><g transform="translate(625.7380371093749 367.5489359024392) rotate(0 17.194804262465823 69.00160120693579)"><path d="M0 0 C11.04 -0.06, 22.08 -0.12, 33.62 -0.18 M0 0 C12.83 -0.07, 25.67 -0.14, 33.62 -0.18 M33.62 -0.18 C33.69 23.99, 33.76 48.17, 33.82 67.07 M33.62 -0.18 C33.67 17.43, 33.72 35.05, 33.82 67.07 M33.82 67.07 C34.03 93.6, 34.24 120.14, 34.39 138.12 M33.82 67.07 C33.97 86.59, 34.13 106.1, 34.39 138.12 M34.39 138.12 C23.27 138.14, 12.15 138.17, 3.48 138.19 M34.39 138.12 C22.81 138.14, 11.23 138.17, 3.48 138.19" stroke="#1e1e1e" stroke-width="4" fill="none"></path></g></g><mask></mask><g stroke-linecap="round"><g transform="translate(662.1973266601561 435.8217122376425) rotate(0 14.85748291015625 0)"><path d="M0 0 C10.74 0, 21.49 0, 29.71 0 M0 0 C8.27 0, 16.55 0, 29.71 0" stroke="#1e1e1e" stroke-width="4" fill="none"></path></g></g><mask></mask><g stroke-linecap="round"><g transform="translate(501.96957397460926 11.774949086032962) rotate(0 -17.194804262465823 69.00160120693579)"><path d="M0 0 C-8.18 -0.04, -16.37 -0.09, -33.62 -0.18 M0 0 C-11.58 -0.06, -23.16 -0.13, -33.62 -0.18 M-33.62 -0.18 C-33.69 24.33, -33.76 48.84, -33.82 67.07 M-33.62 -0.18 C-33.69 25.12, -33.77 50.43, -33.82 67.07 M-33.82 67.07 C-34 90.5, -34.19 113.94, -34.39 138.12 M-33.82 67.07 C-34 89.4, -34.18 111.73, -34.39 138.12 M-34.39 138.12 C-27.5 138.13, -20.61 138.15, -3.48 138.19 M-34.39 138.12 C-26.16 138.14, -17.93 138.15, -3.48 138.19" stroke="#1e1e1e" stroke-width="4" fill="none"></path></g></g><mask></mask><g stroke-linecap="round"><g transform="translate(464.30441284179676 77.81496785287686) rotate(0 -15.31463623046875 0.114288330078125)"><path d="M0 0 C-6.93 0.05, -13.86 0.1, -30.63 0.23 M0 0 C-10.8 0.08, -21.61 0.16, -30.63 0.23" stroke="#1e1e1e" stroke-width="4" fill="none"></path></g></g><mask></mask><g stroke-linecap="round"><g transform="translate(505.68698120117176 372.15001012118927) rotate(0 -17.194804262465823 69.00160120693577)"><path d="M0 0 C-9.68 -0.05, -19.36 -0.11, -33.62 -0.18 M0 0 C-9.82 -0.05, -19.64 -0.11, -33.62 -0.18 M-33.62 -0.18 C-33.68 19.5, -33.74 39.18, -33.82 67.07 M-33.62 -0.18 C-33.68 18.79, -33.73 37.76, -33.82 67.07 M-33.82 67.07 C-33.94 81.94, -34.06 96.8, -34.39 138.12 M-33.82 67.07 C-34.03 94.08, -34.25 121.1, -34.39 138.12 M-34.39 138.12 C-22.08 138.15, -9.77 138.17, -3.48 138.19 M-34.39 138.12 C-25.06 138.14, -15.74 138.16, -3.48 138.19" stroke="#1e1e1e" stroke-width="4" fill="none"></path></g></g><mask></mask><g stroke-linecap="round"><g transform="translate(468.02182006835926 438.19002888803305) rotate(0 -15.31463623046875 0.114288330078125)"><path d="M0 0 C-10.74 0.08, -21.49 0.16, -30.63 0.23 M0 0 C-6.43 0.05, -12.85 0.1, -30.63 0.23" stroke="#1e1e1e" stroke-width="4" fill="none"></path></g></g><mask></mask><g stroke-linecap="round"><g transform="translate(190.7490234374999 73.26191808017359) rotate(0 -27.043757509536135 186.67786666723458)"><path d="M0 0 C-20.61 -0.6, -41.21 -1.2, -53.78 -1.57 M0 0 C-11.36 -0.33, -22.73 -0.66, -53.78 -1.57 M-53.78 -1.57 C-53.38 58.88, -52.98 119.32, -52.6 176.51 M-53.78 -1.57 C-53.33 66.29, -52.88 134.16, -52.6 176.51 M-52.6 176.51 C-52.95 223.14, -53.3 269.77, -54.09 374.92 M-52.6 176.51 C-52.92 219.52, -53.24 262.53, -54.09 374.92 M-54.09 374.92 C-34.36 374.78, -14.63 374.63, -0.62 374.52 M-54.09 374.92 C-34.82 374.78, -15.54 374.64, -0.62 374.52" stroke="#1e1e1e" stroke-width="4" fill="none"></path></g></g><mask></mask><g stroke-linecap="round"><g transform="translate(132.47164916992176 249.42312214975175) rotate(0 -15.31463623046875 0.114288330078125)"><path d="M0 0 C-7.48 0.06, -14.96 0.11, -30.63 0.23 M0 0 C-11.77 0.09, -23.53 0.18, -30.63 0.23" stroke="#1e1e1e" stroke-width="4" fill="none"></path></g></g><mask></mask><g stroke-linecap="round"><g transform="translate(892.066192626953 437.1705322265625) rotate(0 79.12762451171875 -0.250640869140625)"><path d="M0 0 C51.61 -0.16, 103.23 -0.33, 158.26 -0.5" stroke="#f08c00" stroke-width="2.5" fill="none" stroke-dasharray="1.5 8"></path></g></g><mask></mask><g transform="translate(937.2247619628905 405.66473388671875) rotate(0 40 12)"><text x="0" y="0" font-family="Cascadia, Segoe UI Emoji" font-size="20px" fill="#1e1e1e" text-anchor="start" style="white-space: pre;" direction="ltr" dominant-baseline="text-before-edge">基本类似</text></g><g stroke-linecap="round" transform="translate(1046.3934936523438 415.4075622558594) rotate(0 83.17495727539062 21.228668212890625)"><path d="M0 0 L166.35 0 L166.35 42.46 L0 42.46" stroke="none" stroke-width="0" fill="#a5d8ff"></path><path d="M0 0 C41.32 0, 82.65 0, 166.35 0 M0 0 C33.87 0, 67.73 0, 166.35 0 M166.35 0 C166.35 10.33, 166.35 20.67, 166.35 42.46 M166.35 0 C166.35 16.83, 166.35 33.66, 166.35 42.46 M166.35 42.46 C108.74 42.46, 51.13 42.46, 0 42.46 M166.35 42.46 C107.49 42.46, 48.63 42.46, 0 42.46 M0 42.46 C0 25.76, 0 9.05, 0 0 M0 42.46 C0 30.27, 0 18.08, 0 0" stroke="#ffffff" stroke-width="2" fill="none"></path></g><g transform="translate(1065.1153259277344 424.63623046875) rotate(0 64.453125 12)"><text x="64.453125" y="0" font-family="Cascadia, Segoe UI Emoji" font-size="20px" fill="#ffffff" text-anchor="middle" style="white-space: pre;" direction="ltr" dominant-baseline="text-before-edge">ES6 extends</text></g></svg>