<svg version="1.1" xmlns="http://www.w3.org/2000/svg" viewBox="0 0 1326.8735053109172 1013.1592775784433" width="1326.8735053109172" height="1013.1592775784433">
  <!-- svg-source:excalidraw -->
  
  <defs>
    <style class="style-fonts">
      @font-face {
        font-family: "Virgil";
        src: url("https://excalidraw.com/Virgil.woff2");
      }
      @font-face {
        font-family: "Cascadia";
        src: url("https://excalidraw.com/Cascadia.woff2");
      }
      @font-face {
        font-family: "Assistant";
        src: url("https://excalidraw.com/Assistant-Regular.woff2");
      }
    </style>
    
  </defs>
  <g stroke-linecap="round" transform="translate(19.748069763183594 10) rotate(0 270.9411163330077 46.049583435058594)"><path d="M-3.89 -2.48 L540.77 2.8 L544.45 95.61 L-3.41 94.11" stroke="none" stroke-width="0" fill="#ced4da"></path><path d="M0.38 1.42 C131.83 -4.21, 267.22 -3.04, 542.39 0.4 M0.78 -0.66 C190.88 -0.64, 381.42 0.39, 542.15 -0.1 M540.35 2.34 C544.54 22.47, 539.67 38.5, 543.49 91.87 M540.1 1.95 C540.47 30.08, 541.69 62.12, 541.43 94.05 M540.32 90.7 C359.36 92.45, 180.08 90.58, -0.23 93.55 M541.99 91.85 C397.16 88.5, 251.46 89.17, 0.56 91.93 M-0.26 89.21 C-0.13 70.38, 1.7 50.28, -2.83 -1.61 M-1 93.8 C-0.19 72.24, 0.03 54.92, -0.44 -0.93" stroke="#343a40" stroke-width="2" fill="none"></path></g><g transform="translate(255.83550262451172 20.370681762695312) rotate(0 24 9.200000000000003)"><text x="0" y="0" font-family="Helvetica, Segoe UI Emoji" font-size="16px" fill="#1e1e1e" text-anchor="start" style="white-space: pre;" direction="ltr" dominant-baseline="text-before-edge">应用层</text></g><g transform="translate(24.31475067138672 49.667022705078125) rotate(0 262.3125 19.200000000000003)"><text x="0" y="0" font-family="Cascadia, Segoe UI Emoji" font-size="16px" fill="#1e1e1e" text-anchor="start" style="white-space: pre;" direction="ltr" dominant-baseline="text-before-edge">规定应用程序的数据格式，如TCP协议可以为不同的程序传递数据，</text><text x="0" y="19.2" font-family="Cascadia, Segoe UI Emoji" font-size="16px" fill="#1e1e1e" text-anchor="start" style="white-space: pre;" direction="ltr" dominant-baseline="text-before-edge">如Email、WWW、FTP等， 产生不同协议规定优点、网页、FTP的数据格式</text></g><g transform="translate(634.8275680541991 10.37115478515625) rotate(0 241.12808227539062 44.494562034478584)"><text x="0" y="0" font-family="Cascadia, Segoe UI Emoji" font-size="14.831520678159519px" fill="#1e1e1e" text-anchor="start" style="white-space: pre;" direction="ltr" dominant-baseline="text-before-edge">应用层就是贵定了应用程序的数据格式，数据格式放入UDP或者TCP协议的</text><text x="0" y="17.797824813791422" font-family="Cascadia, Segoe UI Emoji" font-size="14.831520678159519px" fill="#1e1e1e" text-anchor="start" style="white-space: pre;" direction="ltr" dominant-baseline="text-before-edge">Data中，常见的HTTP(超文本传输协议)，就是浏览器和服务器约定的一</text><text x="0" y="35.595649627582844" font-family="Cascadia, Segoe UI Emoji" font-size="14.831520678159519px" fill="#1e1e1e" text-anchor="start" style="white-space: pre;" direction="ltr" dominant-baseline="text-before-edge">种数据格式，所谓协议就是数据格式的约定、规范，双方遵守，从而可以</text><text x="0" y="53.393474441374266" font-family="Cascadia, Segoe UI Emoji" font-size="14.831520678159519px" fill="#1e1e1e" text-anchor="start" style="white-space: pre;" direction="ltr" dominant-baseline="text-before-edge">解析数据</text><text x="0" y="71.19129925516569" font-family="Cascadia, Segoe UI Emoji" font-size="14.831520678159519px" fill="#1e1e1e" text-anchor="start" style="white-space: pre;" direction="ltr" dominant-baseline="text-before-edge"></text></g><g stroke-linecap="round" transform="translate(18.25012969970703 140.08660888671875) rotate(0 272.89269256591797 65.797607421875)"><path d="M-0.98 0.99 L546 -2.28 L543.65 129.8 L0.51 130.75" stroke="none" stroke-width="0" fill="#ced4da"></path><path d="M-0.98 -0.38 C162.3 1.36, 324.62 1.8, 544.56 1.01 M-0.72 -0.64 C127.51 3.36, 254.74 3.84, 546.57 -0.12 M546.61 -3.11 C545.52 37.91, 550.37 80.71, 544.5 131.77 M546.81 -1.52 C547.21 51.82, 544.21 101.08, 545.06 132.91 M545.54 132.93 C429.31 134.34, 309.18 134.2, 0.66 130.38 M546.03 132.19 C347.24 128.04, 147.84 127.95, 0.55 131.83 M-3.21 130.19 C-1.51 83.38, -4.22 36.05, 0.92 -2.85 M-0.95 131.89 C-1.08 98.47, -0.81 66.68, -1.67 -0.91" stroke="#1e1e1e" stroke-width="2" fill="none"></path></g><g transform="translate(257.8622055053711 152.6094970703125) rotate(0 24 9.600000000000001)"><text x="0" y="0" font-family="Cascadia, Segoe UI Emoji" font-size="16px" fill="#1e1e1e" text-anchor="start" style="white-space: pre;" direction="ltr" dominant-baseline="text-before-edge">传输层</text></g><g transform="translate(26.452079772949332 178.3194580078125) rotate(0 269.1517028808594 38.07663049735206)"><text x="0" y="0" font-family="Cascadia, Segoe UI Emoji" font-size="15.86526270723002px" fill="#1e1e1e" text-anchor="start" style="white-space: pre;" direction="ltr" dominant-baseline="text-before-edge">有了MAC地址和IP协议，两台互联网上的主机可以建立通信，但是每台主机上</text><text x="0" y="19.038315248676025" font-family="Cascadia, Segoe UI Emoji" font-size="15.86526270723002px" fill="#1e1e1e" text-anchor="start" style="white-space: pre;" direction="ltr" dominant-baseline="text-before-edge">都有很多不同的应用程序，需要建立端口到端口的通信，Unix系统把</text><text x="0" y="38.07663049735205" font-family="Cascadia, Segoe UI Emoji" font-size="15.86526270723002px" fill="#1e1e1e" text-anchor="start" style="white-space: pre;" direction="ltr" dominant-baseline="text-before-edge">‘主机+端口’成为Scoket，基于Sorket，产生了不可靠的UDP协议和</text><text x="0" y="57.11494574602807" font-family="Cascadia, Segoe UI Emoji" font-size="15.86526270723002px" fill="#1e1e1e" text-anchor="start" style="white-space: pre;" direction="ltr" dominant-baseline="text-before-edge">可靠的TCP协议</text></g><g stroke-linecap="round" transform="translate(741.4867477416991 70.1444091796875) rotate(0 62.092803955078125 14.600000000000001)"><path d="M0.92 -3.15 L123.98 -3.42 L123.36 32.3 L-1.96 27.05" stroke="none" stroke-width="0" fill="#99e9f2"></path><path d="M-2.81 -3.43 C34.84 4.56, 68.44 -3.23, 127.93 -3.39 M-1.93 1.23 C43.43 -3.14, 83.94 -2.66, 123.01 -1.44 M126.84 0.03 C122.51 13.46, 122.83 17.79, 120.6 28.73 M124.56 -0.16 C122.79 11.75, 124.04 24.44, 122.36 30.04 M121.03 29.35 C76.53 28.93, 34.26 27.63, -2.55 26.55 M122.62 31.11 C78.54 30.89, 29.31 31.82, 1.29 28.63 M2.14 31.03 C3.38 22.87, 4.38 13.9, -1.11 -1.37 M-1.92 31.09 C-0.81 21.37, 1.17 18.08, 0.91 -1.28" stroke="#1e1e1e" stroke-width="2" fill="none"></path></g><g transform="translate(771.5795516967772 75.1444091796875) rotate(0 32 9.600000000000001)"><text x="32" y="0" font-family="Cascadia, Segoe UI Emoji" font-size="16px" fill="#343a40" text-anchor="middle" style="white-space: pre;" direction="ltr" dominant-baseline="text-before-edge">数据格式</text></g><g transform="translate(629.5890426635741 149.7718505859375) rotate(0 264.8294677734375 16.74328308293888)"><text x="0" y="0" font-family="Cascadia, Segoe UI Emoji" font-size="13.952735902449067px" fill="#343a40" text-anchor="start" style="white-space: pre;" direction="ltr" dominant-baseline="text-before-edge">传输层主要有Socket的概念，引出了UDP和TCP协议，UDP可以放入IP包的数据部分，</text><text x="0" y="16.74328308293888" font-family="Cascadia, Segoe UI Emoji" font-size="13.952735902449067px" fill="#343a40" text-anchor="start" style="white-space: pre;" direction="ltr" dominant-baseline="text-before-edge">TCP理论上无限大，但为了保证传输效率，一般不会超过一个IP包大小</text></g><g stroke-linecap="round" transform="translate(622.4366989135741 200.13479614257812) rotate(0 262.8673400878906 36.16792297363281)"><path d="M-0.66 3.38 L522.52 -3.72 L527.53 72.36 L-1.95 73.98" stroke="none" stroke-width="0" fill="#b2f2bb"></path><path d="M-0.19 -1.27 C169.66 1.57, 337.45 -0.71, 526.21 0.75 M-0.76 -0.59 C164.4 -2.63, 329.27 -2.52, 525.57 0.57 M525.62 1.97 C527.28 26.56, 523.4 49.29, 523.61 75.32 M524.14 0.37 C523.41 15.78, 525.98 31.6, 527.04 73.32 M526.47 71.07 C326.45 70.67, 123.97 70.48, -0.45 73.4 M526.44 71.58 C382.83 75.85, 238.46 75.39, 0.29 72.92 M-1.44 75.98 C1.17 47.26, 1.67 18.66, 3.87 -1.69 M-0.75 72.6 C-0.46 54.74, -0.01 34.81, -1.58 -0.47" stroke="#343a40" stroke-width="2" fill="none"></path></g><g stroke-linecap="round" transform="translate(649.9534225463866 219.29254150390625) rotate(0 60.290130615234375 19.675323486328125)"><path d="M1.86 -3.71 L117.67 1.38 L117.81 39.42 L3.85 37.71" stroke="none" stroke-width="0" fill="#fab005"></path><path d="M1.15 3.88 C32.91 0.38, 60.42 2.96, 118.43 1.12 M1.49 0.35 C23.51 -0.02, 50.81 1.23, 118.71 0.35 M117.8 -3.51 C121.17 5.32, 120.6 19.77, 120.75 38.29 M118.92 0.37 C118.71 11.96, 120.91 24.35, 122.42 38.05 M119.34 39.89 C75.75 34.44, 31.81 40.08, -1.47 36.96 M121.77 41.29 C79.87 35.72, 43.75 37.44, 1.32 40.64 M-0.64 38.6 C-0.82 28.25, -0.13 13.83, 2.77 -2.23 M-0.51 38.88 C-0.33 22.79, -0.68 8.73, 0.67 -0.38" stroke="#343a40" stroke-width="2" fill="none"></path></g><g transform="translate(691.493553161621 229.36786499023438) rotate(0 18.75 9.599999999999998)"><text x="18.75" y="0" font-family="Cascadia, Segoe UI Emoji" font-size="16px" fill="#343a40" text-anchor="middle" style="white-space: pre;" direction="ltr" dominant-baseline="text-before-edge">Head</text></g><g stroke-linecap="round" transform="translate(795.3424606323241 214.60809326171875) rotate(0 169.34976196289062 23.58126831054688)"><path d="M1.9 -2.77 L341.78 3.86 L341.49 45.94 L-1.03 44.79" stroke="none" stroke-width="0" fill="#fab005"></path><path d="M1.94 0 C78.26 4.79, 154.96 0.29, 338.6 -1.56 M-0.8 -0.13 C106 0.36, 212.22 2.07, 338.74 -0.98 M341 -1.97 C341.88 21.77, 337.17 37.12, 341.15 47.82 M338.49 -1.12 C340.7 11.43, 338.65 19, 339.43 48.45 M339.48 46.3 C226.32 46.96, 116 44.42, 0.64 49.72 M339.92 47.41 C219.13 44.57, 99.53 45.17, -1.16 47.22 M3.94 43.55 C4.23 29.31, 3.28 17.25, -3.94 -1.06 M1.9 47.35 C-0.66 30.71, 0.67 14.19, -1.67 1.86" stroke="#343a40" stroke-width="2" fill="none"></path></g><g transform="translate(945.9422225952147 228.58936157226563) rotate(0 18.75 9.599999999999998)"><text x="18.75" y="0" font-family="Cascadia, Segoe UI Emoji" font-size="16px" fill="#343a40" text-anchor="middle" style="white-space: pre;" direction="ltr" dominant-baseline="text-before-edge">Data</text></g><g stroke-linecap="round" transform="translate(998.5826034545897 223.68619384765626) rotate(0 62.092803955078125 14.600000000000001)"><path d="M3.05 -0.72 L124.41 -3.37 L121.71 26.05 L3.6 28.91" stroke="none" stroke-width="0" fill="#99e9f2"></path><path d="M1.68 -2.96 C27.91 1.33, 59.08 1.34, 126.36 -0.85 M0.4 0.44 C29.58 -1.43, 59.84 -3.12, 122.87 1.14 M123.49 -1.19 C125.99 10.26, 122.09 13.9, 126.21 32.2 M124.21 1.73 C122.86 6.11, 122.96 13.2, 125.71 27.84 M124.95 33.11 C87.39 31.7, 52.1 30.26, 2.36 27.07 M125.98 30.9 C89.79 26.68, 50.59 25.9, 0.3 29.52 M0.28 29.48 C4.07 20.92, 1.91 10.69, -0.59 -0.61 M-0.62 30.11 C-0.67 23.1, -0.74 13.99, 0.46 0.61" stroke="#1e1e1e" stroke-width="2" fill="none"></path></g><g transform="translate(1028.675407409668 228.68619384765626) rotate(0 32 9.600000000000001)"><text x="32" y="0" font-family="Cascadia, Segoe UI Emoji" font-size="16px" fill="#343a40" text-anchor="middle" style="white-space: pre;" direction="ltr" dominant-baseline="text-before-edge">数据格式</text></g><g stroke-linecap="round" transform="translate(17.177001953125 360.84686279296875) rotate(0 275.17845916748047 56.31166076660156)"><path d="M-2.77 -0.14 L553.53 -3.78 L550.31 116.01 L2.78 112.29" stroke="none" stroke-width="0" fill="#ced4da"></path><path d="M1.13 1.44 C215.29 1.05, 430.71 0.8, 549.99 1.57 M0.42 0.49 C188.72 1.38, 377.69 0.07, 550.73 -0.37 M551.16 -0.81 C553.6 36.8, 548.06 67.63, 548.2 115.39 M550.93 1.09 C550.06 41.92, 551.36 84.12, 552.27 111.98 M551.95 113.99 C420.67 115.58, 291.71 113.65, -1.51 113.95 M550.59 113.25 C365.14 107.8, 180.11 108.05, 0.78 112.92 M3.94 109.22 C-0.26 76.4, -1.03 43.52, -2.27 -0.72 M-1.26 112.57 C-1.39 82.71, 0.67 52.81, -1.57 -0.39" stroke="#1e1e1e" stroke-width="2" fill="none"></path></g><g transform="translate(264.4193344116211 378.2149658203125) rotate(0 24 9.599999999999994)"><text x="0" y="0" font-family="Cascadia, Segoe UI Emoji" font-size="16px" fill="#343a40" text-anchor="start" style="white-space: pre;" direction="ltr" dominant-baseline="text-before-edge">网络层</text></g><g transform="translate(40.04088592529297 416.11492919921875) rotate(0 246.0625 19.200000000000003)"><text x="0" y="0" font-family="Cascadia, Segoe UI Emoji" font-size="16px" fill="#343a40" text-anchor="start" style="white-space: pre;" direction="ltr" dominant-baseline="text-before-edge">由于以太网协议依靠MAC地址在网络上已广播的方式发送数据包，但是</text><text x="0" y="19.2" font-family="Cascadia, Segoe UI Emoji" font-size="16px" fill="#343a40" text-anchor="start" style="white-space: pre;" direction="ltr" dominant-baseline="text-before-edge">这个包不能发给全世界吧，所以需要一个IP路由协议</text></g><g transform="translate(601.5317306518555 317.6004638671875) rotate(0 293.49999999999994 28.799999999999997)"><text x="0" y="0" font-family="Cascadia, Segoe UI Emoji" font-size="16px" fill="#343a40" text-anchor="start" style="white-space: pre;" direction="ltr" dominant-baseline="text-before-edge">IP协议主要有两个作用，为每台计算机分配IP地址，确定哪些地址在同一个子网</text><text x="0" y="19.2" font-family="Cascadia, Segoe UI Emoji" font-size="16px" fill="#343a40" text-anchor="start" style="white-space: pre;" direction="ltr" dominant-baseline="text-before-edge">IP协议在以太网协议的数据内部，如果IP数据包超过1500字节则需要分开发送。</text><text x="0" y="38.4" font-family="Cascadia, Segoe UI Emoji" font-size="16px" fill="#343a40" text-anchor="start" style="white-space: pre;" direction="ltr" dominant-baseline="text-before-edge">APP协议用来在子网中从IP地址得到MAC地址，不在同一子网中需要交给网关处理。</text></g><g stroke-linecap="round" transform="translate(609.7635116577147 380.63352966308594) rotate(0 283.4392395019531 50.429534912109375)"><path d="M1.34 0.06 L569.28 -3.31 L569.41 97.87 L-1.23 104.41" stroke="none" stroke-width="0" fill="#b2f2bb"></path><path d="M-0.92 0.44 C204.46 -1.61, 405.19 -2.34, 567.76 -1.38 M0.15 0.67 C140.24 4.22, 280.97 4.84, 567.05 0.32 M568.73 -3.3 C568.12 33.34, 565.69 65.24, 570.6 98.87 M567.73 -0.41 C563.45 40.17, 566.56 76.1, 567.71 98.97 M567.77 100.36 C344.3 101.3, 122.13 102.82, 0.6 101.59 M566.71 100.83 C412.59 99.21, 257.12 100.39, 0.2 101.37 M-2.12 101.85 C0.76 65.65, 0.49 28.01, 2.91 3.17 M-0.75 100.77 C-0.88 65.33, 0.98 27.97, 0.81 0.55" stroke="#343a40" stroke-width="2" fill="none"></path></g><g stroke-linecap="round" transform="translate(623.516502380371 414.1250915527344) rotate(0 60.747283935546875 25.846893310546875)"><path d="M-0.97 1.52 L124.65 1.9 L117.55 55.62 L-1.53 52.58" stroke="none" stroke-width="0" fill="#ced4da"></path><path d="M-2.79 1.16 C27.46 3.37, 59.36 4.98, 119.36 1.41 M1.24 -0.43 C27.31 -1.01, 52.64 1.56, 121.13 1.47 M123.48 -3.53 C121.34 22.56, 122.06 41.44, 121.55 48.19 M123.17 0.94 C120.93 18.31, 120.84 36.26, 119.74 51.51 M124.06 52.52 C91.11 51.05, 52.66 50.85, 1.78 48.76 M123.07 49.8 C94.03 54.48, 66.33 51.23, 0.03 52.82 M1.97 52.39 C-1.53 38.98, -3.07 28.33, -0.8 -3.88 M0.94 52.86 C-0.54 36.99, 0.69 20.04, 0.21 0.94" stroke="#343a40" stroke-width="2" fill="none"></path></g><g transform="translate(665.5137863159179 430.3719848632812) rotate(0 18.75 9.599999999999994)"><text x="18.75" y="0" font-family="Cascadia, Segoe UI Emoji" font-size="16px" fill="#343a40" text-anchor="middle" style="white-space: pre;" direction="ltr" dominant-baseline="text-before-edge">Head</text></g><g stroke-linecap="round" transform="translate(761.1014328002929 410.23681640625) rotate(0 193.9613037109375 30.0694580078125)"><path d="M-3.49 -0.86 L391.47 2.74 L388.51 57.64 L-1.03 63.09" stroke="none" stroke-width="0" fill="#ced4da"></path><path d="M-0.14 -2.32 C119.47 -3.41, 235.3 -1.73, 389.42 -2.26 M-0.22 1.07 C130.76 -2.42, 261.34 -2.77, 388.24 -0.02 M391.61 -3.19 C383.73 14.94, 388.82 33.94, 389.03 62.22 M387.58 1.24 C386.16 19.13, 388 39.13, 386.02 60.5 M386.54 59.2 C261.68 58.14, 131.44 58.37, -1.76 59 M387.92 60.75 C274.88 58.67, 163.79 58.87, 0.56 61.22 M2.8 58.65 C-0.78 48.68, -1.81 30.39, -1.69 -1.45 M0.12 58.26 C-0.55 40.11, -1.08 21.88, 0.92 -0.36" stroke="#343a40" stroke-width="2" fill="none"></path></g><g stroke-linecap="round" transform="translate(888.4005966186522 417.3393249511719) rotate(0 123.52011108398438 23.009857177734375)"><path d="M-0.73 -3.53 L250.34 -1.08 L248.66 47.8 L-2.72 49.82" stroke="none" stroke-width="0" fill="#fab005"></path><path d="M2.71 3.14 C100.35 -4.44, 194.69 -1.86, 249.75 1.01 M-0.27 -1.09 C52.24 2.23, 104.9 2.81, 246.43 0.11 M243.99 1.48 C246.29 19.63, 243.88 33.76, 250.15 45.4 M245.67 -1.25 C245.27 15.04, 246.43 33.72, 245.3 45.48 M249.12 47.25 C160.75 44.38, 74.47 45.69, 0.01 44.36 M246.24 44.73 C170.63 48.16, 90.98 47.5, -0.77 45.09 M-2.91 42.93 C-0.04 29.81, -0.83 21.83, -0.23 2.96 M-0.55 46.45 C-2.54 30.7, 0.52 17.42, 0.64 0.33" stroke="#343a40" stroke-width="2" fill="none"></path></g><g transform="translate(893.4005966186522 430.7491821289062) rotate(0 18.75 9.599999999999994)"><text x="0" y="0" font-family="Cascadia, Segoe UI Emoji" font-size="16px" fill="#343a40" text-anchor="start" style="white-space: pre;" direction="ltr" dominant-baseline="text-before-edge">Data</text></g><g stroke-linecap="round" transform="translate(779.585105895996 419.2186706542969) rotate(0 32.975250244140625 20.200128173828134)"><path d="M0.3 2.36 L68.69 2.57 L63.57 42.5 L-3.51 40.83" stroke="none" stroke-width="0" fill="#fab005"></path><path d="M-2.27 -2.84 C27.43 2.06, 50.39 -0.59, 62.05 3.42 M0.48 0.52 C23.34 1.94, 42.24 -1.41, 66.65 -1.24 M64.24 1.24 C67.74 8.09, 65.16 16.2, 66.58 39.3 M66.93 0.62 C63.96 15.04, 65.28 31.45, 65.15 41.07 M63.4 43.9 C38.72 40.84, 18.29 43.75, -2.44 40.3 M64.24 41.38 C53.44 41.69, 38.7 39.42, 0.69 39.45 M1.79 44.22 C2.93 28.45, 2.52 19.79, -3.41 2.88 M0.12 39.87 C-0.84 24.31, 0.49 8.14, -0.89 -1.81" stroke="#343a40" stroke-width="2" fill="none"></path></g><g transform="translate(793.8103561401366 429.818798828125) rotate(0 18.75 9.599999999999994)"><text x="18.75" y="0" font-family="Cascadia, Segoe UI Emoji" font-size="16px" fill="#343a40" text-anchor="middle" style="white-space: pre;" direction="ltr" dominant-baseline="text-before-edge">Head</text></g><g stroke-linecap="round" transform="translate(1024.6110458374023 422.8004516601562) rotate(0 47.578155517578125 17)"><path d="M1.91 -3.01 L94.49 -0.59 L94.42 31.38 L-2.55 37.49" stroke="none" stroke-width="0" fill="#99e9f2"></path><path d="M-0.18 -2.08 C21.8 0.32, 40.34 0.78, 93.66 -3.75 M-1.11 0.83 C34.31 -0.39, 71.95 -0.53, 96.06 0.69 M97.79 1.35 C97.6 5.82, 98.71 21.08, 97.1 30.88 M93.37 0.7 C93.9 13.69, 95.44 25.29, 95.81 32.24 M98.54 34.72 C64.15 35.23, 26.52 29.94, -1.91 34.24 M93.86 33.23 C65.11 34.47, 39.88 34.38, 1.79 33.72 M-2.88 34.45 C-2.16 19.51, 2.6 7.39, 3.54 0.52 M0.39 33.05 C0.38 22.95, -0.66 9.71, -1.7 -0.33" stroke="#1e1e1e" stroke-width="2" fill="none"></path></g><g transform="translate(1040.1892013549805 430.20045166015626) rotate(0 32 9.599999999999994)"><text x="32" y="0" font-family="Cascadia, Segoe UI Emoji" font-size="16px" fill="#343a40" text-anchor="middle" style="white-space: pre;" direction="ltr" dominant-baseline="text-before-edge">数据格式</text></g><g transform="translate(922.0942306518554 384.98797607421875) rotate(0 46.875 9.599999999999994)"><text x="0" y="0" font-family="Cascadia, Segoe UI Emoji" font-size="16px" fill="#fa5252" text-anchor="start" style="white-space: pre;" direction="ltr" dominant-baseline="text-before-edge">&lt;65515byte</text></g><g transform="translate(646.4671554565429 387.8216552734375) rotate(0 42.1875 9.599999999999994)"><text x="0" y="0" font-family="Cascadia, Segoe UI Emoji" font-size="16px" fill="#fa5252" text-anchor="start" style="white-space: pre;" direction="ltr" dominant-baseline="text-before-edge">20-60byte</text></g><g stroke-linecap="round"><g transform="translate(1026.3983627280136 351.0959851284897) rotate(0 24.31210632520208 26.550304554895774)"><path d="M1.43 3.58 C15.68 19.2, 36.7 37.04, 52.18 54.48" stroke="#1e1e1e" stroke-width="2.5" fill="none" stroke-dasharray="8 10"></path></g><g transform="translate(1026.3983627280136 351.0959851284897) rotate(0 24.31210632520208 26.550304554895774)"><path d="M30.45 45.24 C36.72 47.12, 46.52 50.16, 53.95 55.17" stroke="#1e1e1e" stroke-width="2.5" fill="none"></path></g><g transform="translate(1026.3983627280136 351.0959851284897) rotate(0 24.31210632520208 26.550304554895774)"><path d="M42.79 33.4 C44.43 39.74, 49.55 47.27, 53.95 55.17" stroke="#1e1e1e" stroke-width="2.5" fill="none"></path></g></g><mask></mask><g stroke-linecap="round"><g transform="translate(1020.6844406127929 350.1414794921875) rotate(0 -28.00067138671875 -36.34381103515625)"><path d="M2.6 2.7 C-6.38 -19.49, -20.89 -30.71, -52.75 -69.64" stroke="#1e1e1e" stroke-width="2.5" fill="none" stroke-dasharray="8 10"></path></g><g transform="translate(1020.6844406127929 350.1414794921875) rotate(0 -28.00067138671875 -36.34381103515625)"><path d="M-29.72 -55.93 C-33.46 -61.9, -39.41 -62.53, -51.12 -68.12" stroke="#1e1e1e" stroke-width="2.5" fill="none"></path></g><g transform="translate(1020.6844406127929 350.1414794921875) rotate(0 -28.00067138671875 -36.34381103515625)"><path d="M-42.75 -44.85 C-43.68 -53.07, -46.92 -56, -51.12 -68.12" stroke="#1e1e1e" stroke-width="2.5" fill="none"></path></g></g><mask></mask><g stroke-linecap="round" transform="translate(15.2152099609375 540.7059326171875) rotate(0 275.17845916748047 51.625762939453125)"><path d="M3.38 1.12 L546.58 -1.02 L553.47 106.16 L-0.44 107.23" stroke="none" stroke-width="0" fill="#ced4da"></path><path d="M-0.24 0.73 C146.64 -2.37, 295.63 -2.57, 550.57 -0.79 M0.69 -0.49 C126.36 -3.17, 251.47 -3.74, 551.07 -0.47 M552.98 -1.18 C547.66 29.22, 554.47 53.21, 547.85 101.69 M552.08 -0.06 C547.36 32.87, 549.54 69.12, 548.82 103.67 M549.41 104.22 C416.6 106.95, 286.43 106.7, 1.13 102.31 M550.69 102.75 C363.9 100.39, 178.34 99.77, 0.58 103.39 M-3.85 100.84 C3.61 77.74, 2.46 44.61, -1.66 -2.06 M1.58 101.97 C1.64 68.69, 2.8 35.08, 0.97 0.28" stroke="#1e1e1e" stroke-width="2" fill="none"></path></g><g transform="translate(277.33300018310547 551.7526245117188) rotate(0 24 9.599999999999994)"><text x="0" y="0" font-family="Cascadia, Segoe UI Emoji" font-size="16px" fill="#1e1e1e" text-anchor="start" style="white-space: pre;" direction="ltr" dominant-baseline="text-before-edge">连接层</text></g><g transform="translate(47.20842742919922 588.8297119140625) rotate(0 238.0625 19.19999999999999)"><text x="0" y="0" font-family="Cascadia, Segoe UI Emoji" font-size="16px" fill="#1e1e1e" text-anchor="start" style="white-space: pre;" direction="ltr" dominant-baseline="text-before-edge">连接层主要用来解读0和1的电信号，确定了0/1的分组方式，</text><text x="0" y="19.2" font-family="Cascadia, Segoe UI Emoji" font-size="16px" fill="#1e1e1e" text-anchor="start" style="white-space: pre;" direction="ltr" dominant-baseline="text-before-edge">主要是以太网协议、MAC地址标示物理设备，广播的方式发送数据包</text></g><g transform="translate(600.5888595581055 605.2503662109375) rotate(0 273.37499999999994 19.19999999999999)"><text x="0" y="0" font-family="Cascadia, Segoe UI Emoji" font-size="16px" fill="#1e1e1e" text-anchor="start" style="white-space: pre;" direction="ltr" dominant-baseline="text-before-edge">以太网规定，一组电信号构成一个数据包，成为'帧'，每个帧分为两个部分：</text><text x="0" y="19.2" font-family="Cascadia, Segoe UI Emoji" font-size="16px" fill="#1e1e1e" text-anchor="start" style="white-space: pre;" direction="ltr" dominant-baseline="text-before-edge">标头(Head)和数据(Data)，单个数据包大小不超过1518byte</text></g><g stroke-linecap="round" transform="translate(10 720.42578125) rotate(0 275.17845916748047 53.797332763671875)"><path d="M-0.12 -3.45 L551.13 2.24 L552.1 105.05 L-1.8 109.22" stroke="none" stroke-width="0" fill="#ced4da"></path><path d="M0.83 -1.34 C180.44 2.08, 364.14 2.27, 550.94 -1.35 M0.22 0.14 C141.7 -0.4, 282.32 0.78, 551.05 0.15 M553.04 3.76 C553.19 29.14, 546.88 49.54, 552.95 106.81 M550.19 -0.2 C549.56 39.17, 547.81 78.67, 551.57 109.08 M550.33 108.46 C437.43 110.15, 325.32 108.94, -0.23 106.04 M550.75 107.61 C396.37 106.36, 242.35 105.97, -0.24 107.52 M-2.08 107.35 C2.7 75.59, -4.07 46.31, -1.39 4 M0.25 108.82 C-3.29 82.76, -2.99 57.87, 0.02 1.89" stroke="#1e1e1e" stroke-width="2" fill="none"></path></g><g transform="translate(273.3364181518556 734.3770751953125) rotate(0 24 9.600000000000023)"><text x="0" y="0" font-family="Cascadia, Segoe UI Emoji" font-size="16px" fill="#1e1e1e" text-anchor="start" style="white-space: pre;" direction="ltr" dominant-baseline="text-before-edge">物理层</text></g><g transform="translate(42.625328063964844 771.0089111328125) rotate(0 238.0625 19.19999999999999)"><text x="0" y="0" font-family="Cascadia, Segoe UI Emoji" font-size="16px" fill="#1e1e1e" text-anchor="start" style="white-space: pre;" direction="ltr" dominant-baseline="text-before-edge">物理层就是时机电脑间连接的介质，如网线、光纤、电缆、双绞线</text><text x="0" y="19.2" font-family="Cascadia, Segoe UI Emoji" font-size="16px" fill="#1e1e1e" text-anchor="start" style="white-space: pre;" direction="ltr" dominant-baseline="text-before-edge">无线电波等， 主要规定了网络的电气特性，负责传送0和1的电信号</text></g><g stroke-linecap="round"><g transform="translate(642.3157272338866 494.82733154296875) rotate(0 43.376068115234375 0.2537994384765625)"><path d="M0 0 C23.53 0.14, 47.06 0.28, 86.75 0.51 M0 0 C30.6 0.18, 61.19 0.36, 86.75 0.51" stroke="#1e1e1e" stroke-width="2" fill="none"></path></g></g><mask></mask><g stroke-linecap="round"><g transform="translate(643.2054977416991 591.5384521484375) rotate(0 45.769378662109375 0.217803955078125)"><path d="M0 0 C27.03 0.13, 54.05 0.26, 91.54 0.44 M0 0 C20.26 0.1, 40.52 0.19, 91.54 0.44" stroke="#1e1e1e" stroke-width="2" fill="none"></path></g></g><mask></mask><g stroke-linecap="round"><g transform="translate(636.3678235001861 497.4935874156654) rotate(0 1.88934326171875 43.797760009765625)"><path d="M2.19 -2.9 C3.52 21.4, 2.78 50.3, 4.98 91.46" stroke="#1e1e1e" stroke-width="2.5" fill="none" stroke-dasharray="8 10"></path></g></g><mask></mask><g stroke-linecap="round"><g transform="translate(734.4431408829986 594.5242270641029) rotate(0 0.04852294921875 -51.951812744140625)"><path d="M2.58 -2.07 C-0.29 -17.54, 0.1 -38.08, -2.11 -100.46" stroke="#1e1e1e" stroke-width="2.5" fill="none" stroke-dasharray="8 10"></path></g></g><mask></mask><g transform="translate(664.7517013549804 505.789306640625) rotate(0 25.375 38.400000000000006)"><text x="0" y="0" font-family="Cascadia, Segoe UI Emoji" font-size="16px" fill="#1e1e1e" text-anchor="start" style="white-space: pre;" direction="ltr" dominant-baseline="text-before-edge">版本</text><text x="0" y="19.2" font-family="Cascadia, Segoe UI Emoji" font-size="16px" fill="#1e1e1e" text-anchor="start" style="white-space: pre;" direction="ltr" dominant-baseline="text-before-edge">长度</text><text x="0" y="38.4" font-family="Cascadia, Segoe UI Emoji" font-size="16px" fill="#1e1e1e" text-anchor="start" style="white-space: pre;" direction="ltr" dominant-baseline="text-before-edge">IP地址</text><text x="0" y="57.599999999999994" font-family="Cascadia, Segoe UI Emoji" font-size="16px" fill="#1e1e1e" text-anchor="start" style="white-space: pre;" direction="ltr" dominant-baseline="text-before-edge">等</text></g><g stroke-linecap="round" transform="translate(612.2909469604492 703.3970947265625) rotate(0 276.96069335937494 88.962890625)"><path d="M-1.05 1.71 L552.37 -3.2 L553.95 181.03 L-2.46 177.35" stroke="none" stroke-width="0" fill="#ced4da"></path><path d="M-0.06 -1.04 C126.41 5, 250.84 4.98, 555.19 -1.36 M-0.11 -0.32 C192.57 2.25, 383.93 3.11, 554.03 0.4 M556.53 -3.89 C557.39 63.17, 554.1 121.09, 552.84 177.29 M553.4 0.51 C554.45 57.23, 555.41 117.01, 554.29 179.62 M553.6 177.7 C403.29 179.99, 252.02 179.91, 0.62 176.65 M553.48 177.74 C424.63 179.53, 294.15 178.32, 0.11 177.2 M-0.7 178.18 C2.82 127.41, 2.02 72.89, -1 0.92 M0.02 178.82 C0.26 139.16, 3.37 99.94, 0.7 1.25" stroke="#1e1e1e" stroke-width="2" fill="none"></path></g><g stroke-linecap="round" transform="translate(625.4016647338866 747.6356201171875) rotate(0 47.214996337890625 58.17279052734375)"><path d="M1.98 -0.01 L94.03 -0.67 L97.25 118.18 L0.63 113.99" stroke="none" stroke-width="0" fill="#ffa94d"></path><path d="M-2.81 2.61 C29.13 1.54, 67.45 -1.75, 91.97 -1.09 M1.48 -0.52 C27.35 -0.43, 52.23 0.53, 94.08 0.37 M95.52 -0.81 C93.24 46.14, 95.93 90.71, 96.36 117.91 M94.89 -1.1 C92.46 27.48, 94.37 52.01, 92.88 116.63 M97.19 115.65 C74.95 114.79, 56.28 113.99, -1.4 115.34 M93.31 116.37 C64.82 113.58, 33.14 116.69, -1.03 117.05 M-1.55 113.15 C0.64 77.25, -1.85 31.36, 3.19 1.38 M0.57 116.14 C-0.28 91, -1.51 69.07, 1.09 1.15" stroke="#1e1e1e" stroke-width="2" fill="none"></path></g><g transform="translate(653.8666610717772 796.2084106445312) rotate(0 18.75 9.600000000000023)"><text x="18.75" y="0" font-family="Cascadia, Segoe UI Emoji" font-size="16px" fill="#1e1e1e" text-anchor="middle" style="white-space: pre;" direction="ltr" dominant-baseline="text-before-edge">Head</text></g><g stroke-linecap="round" transform="translate(733.2227706909179 737.4927978515625) rotate(0 214.16693115234375 67.71063232421875)"><path d="M1.66 0.74 L430.28 -0.12 L425.83 132.17 L2.91 134.56" stroke="none" stroke-width="0" fill="#ffa94d"></path><path d="M0.37 1.35 C129.81 1.64, 257.56 2.43, 426.84 -0.95 M0.38 -0.09 C136.03 -1.89, 272.44 -0.65, 429.19 -0.99 M426.37 -2.99 C428.25 55.46, 423.29 103.21, 430.65 136.09 M427.74 0.59 C427.16 31.46, 427.66 65.68, 427.08 133.43 M427.67 134.5 C323.44 136.55, 220.93 134.67, -1.74 133.41 M429.09 135.57 C266.35 131.42, 103.11 131.85, -0.42 135.8 M2.28 131.5 C1.78 81.76, 2.74 33.34, 1.29 -2.06 M-0.8 137.31 C-4.46 94.8, -3.05 53.45, 0.15 1.23" stroke="#1e1e1e" stroke-width="2" fill="none"></path></g><g transform="translate(914.0745773315429 718.2628784179688) rotate(0 51.5625 9.600000000000023)"><text x="0" y="0" font-family="Cascadia, Segoe UI Emoji" font-size="16px" fill="#1e1e1e" text-anchor="start" style="white-space: pre;" direction="ltr" dominant-baseline="text-before-edge">46-1500byte</text></g><g transform="translate(630.7415695190429 717.4169921875) rotate(0 44.125 9.600000000000023)"><text x="0" y="0" font-family="Cascadia, Segoe UI Emoji" font-size="16px" fill="#1e1e1e" text-anchor="start" style="white-space: pre;" direction="ltr" dominant-baseline="text-before-edge">固定18byte</text></g><g stroke-linecap="round" transform="translate(764.1047286987304 751.0772705078125) rotate(0 194.28411865234375 54.939422607421875)"><path d="M-2.77 0.02 L390.76 -3.95 L384.97 108.65 L2.96 107.04" stroke="none" stroke-width="0" fill="#b2f2bb"></path><path d="M0.3 -0.14 C151.06 -3.53, 295.92 -0.23, 387.37 2.31 M0.37 0.74 C142.58 -2.39, 286.65 -2.89, 389.46 -0.91 M389.33 -3.27 C391.68 27.13, 386.69 62.93, 386.71 108.44 M388.22 1.5 C387.5 36.3, 387.22 76.46, 388.38 110.3 M387.47 109.01 C246.62 108.8, 101.19 110.85, 2.34 110.9 M387.97 109.59 C238.4 110.3, 87.47 109.84, 0.52 109.8 M-2.45 106.27 C-5.66 78.85, -3.51 45.26, 1.53 3.01 M1.83 108.29 C-1.36 78.72, 0.84 44.31, -1.86 -0.49" stroke="#1e1e1e" stroke-width="2" fill="none"></path></g><g stroke-linecap="round" transform="translate(772.0754318237304 764.6959838867188) rotate(0 28.68646240234375 40.000946044921875)"><path d="M3.09 -0.2 L58.76 -2.95 L56.9 77.36 L-0.06 83.88" stroke="none" stroke-width="0" fill="#ced4da"></path><path d="M-0.27 -3.97 C12.84 -2.79, 25.5 0.25, 58.02 1.8 M-1.62 0.68 C18.9 0.47, 35.54 -2.4, 58.74 -0.62 M55.27 -1.38 C58.14 30.17, 60.4 54.04, 56.55 76.89 M56.25 -0.96 C55.97 22.69, 58.93 40.36, 58.81 78.67 M54.42 77.57 C39.59 78.58, 17.05 75.65, 1.96 76.87 M57.31 81.33 C44.78 81.6, 34.15 82.05, 0.43 81.93 M0.11 77.68 C2.76 54.26, -3.18 22.15, -3.99 1.8 M1.04 80.65 C0.77 61.51, 0.79 42.4, -1.49 -0.6" stroke="#1e1e1e" stroke-width="2" fill="none"></path></g><g transform="translate(782.0118942260741 795.0969299316406) rotate(0 18.75 9.600000000000023)"><text x="18.75" y="0" font-family="Cascadia, Segoe UI Emoji" font-size="16px" fill="#1e1e1e" text-anchor="middle" style="white-space: pre;" direction="ltr" dominant-baseline="text-before-edge">Head</text></g><g stroke-linecap="round" transform="translate(840.2496261596679 765.2838745117188) rotate(0 151.38671875 42.31201171875)"><path d="M2.28 3.4 L298.85 -2.04 L301.17 83.08 L-3.04 85.07" stroke="none" stroke-width="0" fill="#ced4da"></path><path d="M-0.01 -2.86 C121.82 -1.69, 242.82 -1.74, 305.34 -1.81 M-0.4 0.62 C102.71 -0.86, 205.31 -2.19, 302.04 0.69 M304.5 3.38 C306.85 24.07, 302.65 52.68, 298.84 82.46 M303.25 -1.74 C301.06 32.61, 304.45 61.69, 302.6 83.46 M304.69 86.77 C228.71 87.78, 154.78 89, 1.17 85.24 M303.37 84.95 C216.95 85.58, 129.28 85.85, 0.69 84.05 M0.86 83.94 C-3.89 61.25, 0.95 46.36, 1.75 -3.06 M-1.99 84.1 C-2.69 58.02, -2.31 32.43, 1.9 -1.05" stroke="#1e1e1e" stroke-width="2" fill="none"></path></g><g stroke-linecap="round" transform="translate(856.6976242065429 774.0576782226562) rotate(0 140.60205078125 32.50421142578125)"><path d="M3.32 -3.62 L281.44 3.94 L278.27 62.17 L1.86 64.59" stroke="none" stroke-width="0" fill="#b2f2bb"></path><path d="M-2.84 3.03 C67.95 -1.68, 128.07 -3.41, 280.5 -0.43 M-0.94 1.08 C109.49 -3.68, 221.52 -3.59, 281.1 0.96 M281.86 -3.4 C281.43 18.78, 282.97 34.98, 277.38 65.55 M279.48 -0.2 C282.02 22.86, 283.43 40.37, 280.18 64.88 M278.79 63.93 C174.81 69.23, 63.95 68.48, 0.38 66.07 M279.98 64.75 C176.89 69.92, 73.61 67.62, -1.53 63.54 M2.91 66.6 C-1.74 40.19, -0.01 22.55, 2.15 0.91 M-1.95 66.66 C-0.02 41.19, 0.08 18.31, -1.45 -0.34" stroke="#1e1e1e" stroke-width="2" fill="none"></path></g><g stroke-linecap="round" transform="translate(871.8404464721679 790.796875) rotate(0 33.1435546875 14.600000000000023)"><path d="M-2.32 3.32 L62.83 -2.98 L63.99 29.58 L-1.76 26.78" stroke="none" stroke-width="0" fill="#fab005"></path><path d="M-2.39 -3.02 C20.63 -2.01, 40.65 -1, 68.98 -3.26 M1.63 0.88 C24.31 0.43, 48.18 -0.4, 65.5 1.79 M68.59 -1.68 C66.34 6.77, 69.55 19.35, 65.06 26.45 M66.37 -0.19 C67.14 7.56, 64.97 16.66, 65.39 30.4 M69.84 26.46 C52.22 31.18, 37.25 28.17, 3.78 32.59 M65.33 30.01 C49.14 31.53, 32.58 28.32, 0.26 29.87 M-0.61 32.68 C-3.59 20.74, -0.85 13.62, -0.62 0.89 M-0.65 31.17 C-1.61 19.69, -1.81 9.79, -0.49 -1.03" stroke="#1e1e1e" stroke-width="2" fill="none"></path></g><g transform="translate(886.2340011596679 795.796875) rotate(0 18.75 9.600000000000023)"><text x="18.75" y="0" font-family="Cascadia, Segoe UI Emoji" font-size="16px" fill="#1e1e1e" text-anchor="middle" style="white-space: pre;" direction="ltr" dominant-baseline="text-before-edge">Head</text></g><g stroke-linecap="round" transform="translate(955.5544357299804 781.38427734375) rotate(0 84.93048095703125 23.180389404296875)"><path d="M3.22 -1.37 L166.97 -1.73 L167.37 49.7 L2.91 45.5" stroke="none" stroke-width="0" fill="#fab005"></path><path d="M-3.62 -1.12 C63.97 3.49, 134.02 -1.82, 169.7 -2.63 M-1.43 -0.85 C50.95 -1.35, 102.67 -1.45, 169.8 0.76 M172.16 -1.41 C173.15 19.38, 169.75 31.83, 166.61 47.54 M171.03 -0.08 C169.73 14.69, 168.93 25.11, 168.19 47.14 M173.84 44.99 C129.03 45.64, 93.47 48.33, -0.82 44.67 M169.31 46.53 C116.89 48.47, 60.88 47.05, 1.18 47.28 M-0.77 48.7 C-4.51 32.6, -1.83 8.22, -2.65 1.01 M-1.16 47.16 C-0.2 30.94, 0.6 16.53, -0.58 -0.57" stroke="#1e1e1e" stroke-width="2" fill="none"></path></g><g transform="translate(960.5544357299804 794.9646667480469) rotate(0 18.75 9.600000000000023)"><text x="0" y="0" font-family="Cascadia, Segoe UI Emoji" font-size="16px" fill="#1e1e1e" text-anchor="start" style="white-space: pre;" direction="ltr" dominant-baseline="text-before-edge">Data</text></g><g stroke-linecap="round" transform="translate(1022.1097335815429 790.68603515625) rotate(0 44.343994140625 15)"><path d="M2.64 2.72 L92.4 -2.04 L85.84 29.48 L2.25 29.53" stroke="none" stroke-width="0" fill="#99e9f2"></path><path d="M2.59 -2.73 C17.67 2.61, 32.43 0.53, 86.29 -1.73 M0.14 1.31 C17.11 -0.84, 36.7 0.5, 89.31 -1.29 M86.39 0.93 C85.8 11.92, 86.32 25.72, 86.84 31.85 M89.58 -0.59 C86.5 8.71, 88.94 15.89, 90.65 31.48 M84.98 30.92 C70.69 29.43, 45.48 27.96, 1.48 32.4 M90.15 28.81 C65.9 28.67, 44.02 30.83, -1.49 30.61 M2.67 27.7 C-1.79 26.01, 0.19 15.94, -3.82 1.83 M-0.09 29.34 C0.65 19.54, -0.69 9.6, -1.01 0.97" stroke="#1e1e1e" stroke-width="2" fill="none"></path></g><g transform="translate(1034.453727722168 796.08603515625) rotate(0 32 9.600000000000023)"><text x="32" y="0" font-family="Cascadia, Segoe UI Emoji" font-size="16px" fill="#1e1e1e" text-anchor="middle" style="white-space: pre;" direction="ltr" dominant-baseline="text-before-edge">数据格式</text></g><g stroke-linecap="round"><g transform="translate(624.5156722888349 893.3432116881013) rotate(0 43.376068115234375 0.2537994384765625)"><path d="M0 0 C25.82 0.15, 51.65 0.3, 86.75 0.51 M0 0 C31.51 0.18, 63.02 0.37, 86.75 0.51" stroke="#1e1e1e" stroke-width="2" fill="none"></path></g></g><mask></mask><g stroke-linecap="round"><g transform="translate(625.4054427966474 990.05433229357) rotate(0 45.769378662109375 0.217803955078125)"><path d="M0 0 C28.55 0.14, 57.1 0.27, 91.54 0.44 M0 0 C20.36 0.1, 40.72 0.19, 91.54 0.44" stroke="#1e1e1e" stroke-width="2" fill="none"></path></g></g><mask></mask><g stroke-linecap="round"><g transform="translate(618.5677685551344 896.0094675607979) rotate(0 1.88934326171875 43.797760009765625)"><path d="M2.53 -2.58 C-0.69 28.49, 0.69 64.7, 2.62 89.49" stroke="#1e1e1e" stroke-width="2.5" fill="none" stroke-dasharray="8 10"></path></g></g><mask></mask><g stroke-linecap="round"><g transform="translate(716.6430859379469 993.0401072092354) rotate(0 0.04852294921875 -51.951812744140625)"><path d="M-3.1 -2.95 C-4.36 -36.88, -2.4 -75.39, -3.49 -104.42" stroke="#1e1e1e" stroke-width="2.5" fill="none" stroke-dasharray="8 10"></path></g></g><mask></mask><g transform="translate(628.2083602771162 907.8614001646638) rotate(0 36.96929852167773 6.564721679687523)"><text x="0" y="0" font-family="Cascadia, Segoe UI Emoji" font-size="10.941202799479173px" fill="#1e1e1e" text-anchor="start" style="white-space: pre;" direction="ltr" dominant-baseline="text-before-edge">发送者MAC地址</text></g><g transform="translate(633.6740646362304 934.7694036194906) rotate(0 32.11907958984375 5.703457369942214)"><text x="0" y="0" font-family="Cascadia, Segoe UI Emoji" font-size="9.505762283236988px" fill="#1e1e1e" text-anchor="start" style="white-space: pre;" direction="ltr" dominant-baseline="text-before-edge">接受者MAC地址</text></g><g transform="translate(633.9028244018554 956.730712890625) rotate(0 31.99981689453125 7.679956054687523)"><text x="0" y="0" font-family="Cascadia, Segoe UI Emoji" font-size="12.799926757812504px" fill="#1e1e1e" text-anchor="start" style="white-space: pre;" direction="ltr" dominant-baseline="text-before-edge">数据类型等</text></g><g stroke-linecap="round"><g transform="translate(967.9213790893554 585.3695373535156) rotate(0 36.8330078125 76.67518615722656)"><path d="M-3.58 -2.71 C20.77 41.51, 46.29 91.13, 74.33 155.45" stroke="#1e1e1e" stroke-width="2.5" fill="none" stroke-dasharray="8 10"></path></g><g transform="translate(967.9213790893554 585.3695373535156) rotate(0 36.8330078125 76.67518615722656)"><path d="M55.04 136.24 C60.36 141.09, 67.5 148.8, 74.67 156.5" stroke="#1e1e1e" stroke-width="2.5" fill="none"></path></g><g transform="translate(967.9213790893554 585.3695373535156) rotate(0 36.8330078125 76.67518615722656)"><path d="M70.62 129.17 C71.47 136.02, 74.09 145.79, 74.67 156.5" stroke="#1e1e1e" stroke-width="2.5" fill="none"></path></g></g><mask></mask><g stroke-linecap="round"><g transform="translate(965.1536788940429 582.4735107421875) rotate(0 -24.5616455078125 -46.932525634765625)"><path d="M-3.46 -0.92 C-13.05 -29.09, -32.15 -66.04, -46.36 -94.62" stroke="#1e1e1e" stroke-width="2.5" fill="none" stroke-dasharray="8 10"></path></g><g transform="translate(965.1536788940429 582.4735107421875) rotate(0 -24.5616455078125 -46.932525634765625)"><path d="M-29.95 -77.87 C-32.87 -81.9, -40.26 -90.35, -44.98 -95" stroke="#1e1e1e" stroke-width="2.5" fill="none"></path></g><g transform="translate(965.1536788940429 582.4735107421875) rotate(0 -24.5616455078125 -46.932525634765625)"><path d="M-45.26 -70.24 C-42.98 -76.83, -45.2 -87.85, -44.98 -95" stroke="#1e1e1e" stroke-width="2.5" fill="none"></path></g></g><mask></mask><g mask="url(#mask-CyQqz06uuf3nQ--Arm_2d)" stroke-linecap="round"><g transform="translate(1300.269645690918 23.21943664550784) rotate(0 8.21136474609375 490.0294723510742)"><path d="M0.39 0.71 C10.7 390.11, 17.52 783.61, 16.5 979.18 M-0.29 0.76 C6.26 292.01, 12.21 583.92, 16.3 979.94" stroke="#1e1e1e" stroke-width="2" fill="none"></path></g><g transform="translate(1300.269645690918 23.21943664550784) rotate(0 8.21136474609375 490.0294723510742)"><path d="M7.95 957.44 C11.73 964.28, 15.59 976.24, 16.41 978.85 M7.1 957.51 C9.29 963.1, 13.25 969.52, 16.16 979.79" stroke="#1e1e1e" stroke-width="2" fill="none"></path></g><g transform="translate(1300.269645690918 23.21943664550784) rotate(0 8.21136474609375 490.0294723510742)"><path d="M25.05 957.23 C22 964.15, 19.03 976.19, 16.41 978.85 M24.2 957.3 C21.29 962.96, 20.15 969.44, 16.16 979.79" stroke="#1e1e1e" stroke-width="2" fill="none"></path></g></g><mask id="mask-CyQqz06uuf3nQ--Arm_2d"><rect x="0" y="0" fill="#fff" width="1416.6923751831055" height="1103.2783813476562"></rect><rect x="1300.4810104370117" y="426.84890899658205" fill="#000" width="16" height="172.79999999999998" opacity="1"></rect></mask><g transform="translate(1300.4810104370117 426.84890899658205) rotate(0 7.9466356259854365 86.69389118142425)"><text x="8" y="0" font-family="Cascadia, Segoe UI Emoji" font-size="16px" fill="#1e1e1e" text-anchor="middle" style="white-space: pre;" direction="ltr" dominant-baseline="text-before-edge">由</text><text x="8" y="19.2" font-family="Cascadia, Segoe UI Emoji" font-size="16px" fill="#1e1e1e" text-anchor="middle" style="white-space: pre;" direction="ltr" dominant-baseline="text-before-edge">上</text><text x="8" y="38.4" font-family="Cascadia, Segoe UI Emoji" font-size="16px" fill="#1e1e1e" text-anchor="middle" style="white-space: pre;" direction="ltr" dominant-baseline="text-before-edge">而</text><text x="8" y="57.599999999999994" font-family="Cascadia, Segoe UI Emoji" font-size="16px" fill="#1e1e1e" text-anchor="middle" style="white-space: pre;" direction="ltr" dominant-baseline="text-before-edge">下</text><text x="8" y="76.8" font-family="Cascadia, Segoe UI Emoji" font-size="16px" fill="#1e1e1e" text-anchor="middle" style="white-space: pre;" direction="ltr" dominant-baseline="text-before-edge">的</text><text x="8" y="96" font-family="Cascadia, Segoe UI Emoji" font-size="16px" fill="#1e1e1e" text-anchor="middle" style="white-space: pre;" direction="ltr" dominant-baseline="text-before-edge">数</text><text x="8" y="115.19999999999999" font-family="Cascadia, Segoe UI Emoji" font-size="16px" fill="#1e1e1e" text-anchor="middle" style="white-space: pre;" direction="ltr" dominant-baseline="text-before-edge">据</text><text x="8" y="134.4" font-family="Cascadia, Segoe UI Emoji" font-size="16px" fill="#1e1e1e" text-anchor="middle" style="white-space: pre;" direction="ltr" dominant-baseline="text-before-edge">包</text><text x="8" y="153.6" font-family="Cascadia, Segoe UI Emoji" font-size="16px" fill="#1e1e1e" text-anchor="middle" style="white-space: pre;" direction="ltr" dominant-baseline="text-before-edge">装</text></g></svg>